<svg width="380" height="377" viewBox="0 0 380 377" fill="none" xmlns="http://www.w3.org/2000/svg">
<path d="M171.48 358.577V355.14C174.145 355.137 176.699 354.077 178.584 352.193C180.468 350.309 181.527 347.754 181.53 345.09V339.134H184.967V345.09C184.964 348.666 183.542 352.093 181.013 354.622C178.484 357.15 175.056 358.573 171.48 358.577Z" fill="#0058B0"/>
<path d="M197.229 359.329H193.791V334.971C193.791 333.801 193.326 332.679 192.499 331.852C191.671 331.025 190.549 330.56 189.379 330.56C188.208 330.56 187.086 331.025 186.259 331.852C185.431 332.679 184.966 333.801 184.966 334.971V342.147H181.529V334.971C181.529 332.89 182.356 330.894 183.828 329.422C185.3 327.95 187.297 327.124 189.379 327.124C191.461 327.124 193.457 327.95 194.929 329.422C196.401 330.894 197.229 332.89 197.229 334.971V359.329Z" fill="#0058B0"/>
<path d="M219.29 351.561H215.853V321.049C215.853 319.469 215.225 317.954 214.107 316.836C212.99 315.719 211.474 315.092 209.894 315.092C208.314 315.092 206.798 315.719 205.681 316.836C204.564 317.954 203.936 319.469 203.936 321.049V351.561H200.499V321.049C200.499 318.557 201.488 316.168 203.25 314.406C205.012 312.645 207.402 311.655 209.894 311.655C212.386 311.655 214.776 312.645 216.538 314.406C218.3 316.168 219.29 318.557 219.29 321.049V351.561Z" fill="#0058B0"/>
<path d="M198.905 367.692C197.552 367.69 196.255 367.151 195.299 366.195C194.343 365.238 193.806 363.94 193.806 362.588V349.145H197.243V362.588C197.242 362.807 197.285 363.024 197.368 363.226C197.451 363.428 197.574 363.612 197.728 363.767C197.883 363.922 198.066 364.045 198.269 364.129C198.471 364.213 198.687 364.256 198.906 364.256C199.125 364.256 199.342 364.213 199.544 364.129C199.746 364.045 199.93 363.922 200.084 363.767C200.239 363.612 200.361 363.428 200.444 363.226C200.528 363.024 200.57 362.807 200.57 362.588V349.145H204.007V362.588C204.006 363.941 203.469 365.238 202.512 366.195C201.555 367.152 200.258 367.691 198.905 367.692Z" fill="#0058B0"/>
<path d="M171.731 358.577C168.155 358.573 164.726 357.151 162.198 354.622C159.669 352.094 158.247 348.666 158.243 345.091V332.751H161.681V345.091C161.683 347.755 162.743 350.309 164.627 352.193C166.511 354.078 169.066 355.138 171.731 355.141V358.577Z" fill="#0058B0"/>
<path d="M161.686 333.949H158.249V321.608C158.246 318.944 157.187 316.39 155.303 314.506C153.419 312.622 150.864 311.562 148.199 311.559H144.789V308.122H148.199C151.775 308.127 155.204 309.549 157.732 312.077C160.26 314.605 161.683 318.033 161.686 321.608V333.949Z" fill="#0058B0"/>
<path d="M120.153 311.612H113.383C109.806 311.608 106.377 310.187 103.848 307.659C101.319 305.131 99.8958 301.703 99.8916 298.127V257.453H103.329V298.127C103.333 300.792 104.393 303.346 106.278 305.23C108.163 307.113 110.718 308.173 113.383 308.175H120.153V311.612Z" fill="#0058B0"/>
<path d="M229.179 376.841V373.404C231.845 373.401 234.401 372.34 236.285 370.456C238.17 368.571 239.23 366.016 239.233 363.351V279.274H242.67V363.351C242.666 366.927 241.243 370.355 238.714 372.884C236.185 375.413 232.756 376.836 229.179 376.841Z" fill="#0058B0"/>
<path d="M229.433 376.841C225.856 376.836 222.427 375.413 219.898 372.884C217.37 370.355 215.947 366.927 215.944 363.351V333.831H219.381V363.351C219.384 366.016 220.443 368.571 222.328 370.456C224.212 372.34 226.767 373.401 229.433 373.404V376.841Z" fill="#0058B0"/>
<path d="M129.863 296.585H134.066C134.328 296.585 134.58 296.689 134.765 296.875C134.95 297.06 135.054 297.311 135.054 297.573V300.783C135.054 300.912 135.029 301.041 134.979 301.161C134.929 301.28 134.857 301.389 134.765 301.481C134.673 301.573 134.564 301.645 134.444 301.695C134.325 301.744 134.196 301.77 134.067 301.77H129.869C129.607 301.77 129.355 301.666 129.17 301.481C128.985 301.295 128.88 301.044 128.88 300.782V297.567C128.88 297.307 128.984 297.057 129.168 296.873C129.352 296.689 129.602 296.585 129.863 296.585Z" fill="#0058B0"/>
<path d="M125.816 302.998C125.928 303.064 126.026 303.151 126.104 303.255C126.182 303.358 126.239 303.476 126.272 303.602C126.304 303.728 126.312 303.859 126.294 303.987C126.276 304.116 126.232 304.239 126.166 304.351L124.087 307.978C123.953 308.204 123.736 308.368 123.482 308.435C123.228 308.502 122.958 308.467 122.73 308.338L119.948 306.733C119.836 306.669 119.738 306.582 119.66 306.48C119.581 306.377 119.524 306.26 119.491 306.135C119.458 306.01 119.45 305.88 119.467 305.752C119.484 305.624 119.526 305.501 119.591 305.389L121.684 301.757C121.814 301.531 122.029 301.366 122.281 301.298C122.533 301.23 122.802 301.265 123.028 301.394L125.816 302.998Z" fill="#0058B0"/>
<path d="M123.11 312.104C123.222 312.038 123.346 311.996 123.475 311.979C123.604 311.962 123.735 311.97 123.86 312.004C123.986 312.038 124.103 312.096 124.206 312.175C124.309 312.254 124.395 312.353 124.46 312.466L126.557 316.101C126.622 316.213 126.664 316.336 126.682 316.464C126.699 316.592 126.691 316.722 126.658 316.847C126.625 316.972 126.568 317.089 126.49 317.192C126.411 317.294 126.313 317.381 126.202 317.446L123.413 319.047C123.301 319.112 123.177 319.154 123.049 319.171C122.92 319.188 122.79 319.18 122.665 319.146C122.54 319.112 122.422 319.054 122.32 318.975C122.217 318.896 122.131 318.797 122.067 318.685L119.97 315.058C119.84 314.83 119.805 314.559 119.874 314.305C119.943 314.052 120.11 313.836 120.339 313.705L123.11 312.104Z" fill="#0058B0"/>
<path d="M129.646 318.996C129.646 318.866 129.672 318.737 129.722 318.617C129.772 318.496 129.845 318.387 129.937 318.295C130.03 318.203 130.139 318.131 130.26 318.081C130.38 318.032 130.509 318.007 130.64 318.007H134.832C134.961 318.007 135.09 318.031 135.209 318.081C135.329 318.13 135.438 318.202 135.53 318.293C135.622 318.384 135.694 318.493 135.744 318.612C135.794 318.732 135.819 318.86 135.819 318.989V322.205C135.82 322.334 135.794 322.462 135.744 322.582C135.695 322.702 135.622 322.81 135.53 322.902C135.438 322.993 135.33 323.066 135.21 323.115C135.09 323.165 134.961 323.19 134.832 323.189H130.634C130.373 323.189 130.122 323.086 129.937 322.901C129.752 322.716 129.647 322.466 129.646 322.205V318.996Z" fill="#0058B0"/>
<path d="M138.887 316.775C138.775 316.711 138.677 316.625 138.598 316.522C138.519 316.42 138.461 316.303 138.427 316.178C138.394 316.053 138.385 315.923 138.402 315.794C138.419 315.666 138.461 315.542 138.526 315.431L140.624 311.804C140.753 311.576 140.967 311.408 141.219 311.338C141.471 311.267 141.741 311.299 141.97 311.426L144.752 313.043C144.977 313.175 145.14 313.39 145.208 313.641C145.275 313.893 145.241 314.16 145.113 314.387L143.01 318.014C142.947 318.127 142.862 318.226 142.761 318.306C142.659 318.385 142.542 318.444 142.418 318.478C142.293 318.512 142.163 318.521 142.035 318.504C141.907 318.487 141.783 318.445 141.672 318.379L138.887 316.775Z" fill="#0058B0"/>
<path d="M141.584 307.664C141.473 307.73 141.35 307.773 141.222 307.791C141.093 307.809 140.963 307.801 140.838 307.768C140.713 307.735 140.595 307.677 140.493 307.598C140.39 307.52 140.304 307.421 140.24 307.309L138.14 303.676C138.009 303.45 137.973 303.181 138.04 302.929C138.108 302.676 138.272 302.46 138.498 302.329L141.281 300.722C141.507 300.593 141.775 300.558 142.027 300.626C142.279 300.694 142.493 300.859 142.624 301.085L144.73 304.72C144.859 304.948 144.893 305.218 144.824 305.471C144.755 305.723 144.589 305.939 144.361 306.07L141.584 307.664Z" fill="#0058B0"/>
<path d="M132.35 300.285C130.451 300.285 128.594 300.847 127.015 301.902C125.436 302.956 124.204 304.455 123.477 306.209C122.75 307.962 122.559 309.893 122.929 311.755C123.299 313.617 124.212 315.328 125.555 316.671C126.897 318.014 128.607 318.929 130.47 319.3C132.332 319.671 134.263 319.482 136.018 318.757C137.773 318.031 139.273 316.801 140.329 315.223C141.385 313.646 141.949 311.79 141.95 309.891C141.951 308.63 141.703 307.382 141.221 306.216C140.738 305.051 140.031 303.992 139.14 303.1C138.248 302.208 137.19 301.501 136.025 301.018C134.86 300.535 133.611 300.286 132.35 300.285ZM132.35 314.473C131.442 314.474 130.555 314.205 129.8 313.701C129.045 313.197 128.456 312.481 128.109 311.643C127.761 310.804 127.67 309.882 127.847 308.992C128.025 308.102 128.462 307.284 129.104 306.643C129.746 306.001 130.563 305.565 131.454 305.388C132.344 305.211 133.267 305.303 134.105 305.65C134.943 305.998 135.66 306.587 136.163 307.342C136.667 308.097 136.935 308.984 136.934 309.891C136.934 311.107 136.45 312.272 135.591 313.131C134.731 313.99 133.565 314.473 132.35 314.473Z" fill="#0058B0"/>
<path d="M270.23 209.002V205.521C272.492 205.519 274.661 204.621 276.26 203.024C277.86 201.427 278.759 199.262 278.761 197.003H282.248H278.761H282.248C282.245 200.185 280.979 203.235 278.725 205.485C276.472 207.735 273.417 209 270.23 209.002Z" fill="#C5E1F9"/>
<path d="M270.454 209.002C267.267 209 264.211 207.736 261.956 205.486C259.702 203.237 258.433 200.186 258.429 197.004V191.469H261.923V197.004C261.925 199.262 262.825 201.428 264.424 203.025C266.024 204.621 268.192 205.52 270.454 205.522V209.002Z" fill="#C5E1F9"/>
<path d="M261.928 192.513H258.442V181.753C258.438 179.494 257.536 177.329 255.936 175.732C254.335 174.135 252.165 173.237 249.902 173.235H216.666V169.747H249.902C253.09 169.751 256.147 171.017 258.401 173.268C260.655 175.519 261.924 178.57 261.928 181.753V192.513Z" fill="#C5E1F9"/>
<path d="M114.565 194.901V191.42C116.828 191.416 118.997 190.516 120.596 188.918C122.195 187.319 123.095 185.153 123.097 182.894V177.734H126.583V182.927C126.57 186.103 125.299 189.144 123.047 191.388C120.796 193.631 117.746 194.894 114.565 194.901Z" fill="#C5E1F9"/>
<path d="M137.287 211.789H133.801V174.074C133.801 173.118 133.421 172.201 132.745 171.524C132.068 170.847 131.15 170.466 130.193 170.463C129.235 170.466 128.317 170.847 127.64 171.524C126.964 172.201 126.584 173.118 126.584 174.074V180.326H123.098V174.074C123.098 172.195 123.845 170.392 125.175 169.063C126.506 167.733 128.31 166.985 130.193 166.983C132.075 166.985 133.879 167.733 135.21 169.063C136.54 170.392 137.287 172.195 137.287 174.074V211.789Z" fill="#C5E1F9"/>
<path d="M156.555 188.535H153.06V161.938C153.06 160.625 152.539 159.366 151.609 158.436C150.68 157.507 149.42 156.984 148.105 156.982C146.789 156.984 145.528 157.507 144.597 158.436C143.667 159.365 143.143 160.624 143.141 161.938V188.535H139.655V161.938C139.657 159.701 140.548 157.556 142.132 155.975C143.716 154.393 145.864 153.504 148.105 153.501C150.345 153.504 152.493 154.393 154.077 155.975C155.662 157.556 156.553 159.701 156.555 161.938V188.535Z" fill="#C5E1F9"/>
<path d="M138.512 219.306C137.265 219.306 136.069 218.811 135.187 217.93C134.305 217.05 133.81 215.856 133.81 214.61V186.408H137.304V214.61C137.304 214.93 137.431 215.237 137.658 215.463C137.884 215.69 138.192 215.817 138.512 215.817C138.671 215.817 138.828 215.786 138.975 215.725C139.121 215.664 139.254 215.576 139.367 215.463C139.479 215.351 139.568 215.219 139.628 215.072C139.689 214.926 139.72 214.769 139.72 214.61V186.408H143.207V214.61C143.207 215.854 142.712 217.047 141.832 217.928C140.952 218.808 139.758 219.303 138.512 219.306Z" fill="#C5E1F9"/>
<path d="M114.779 194.902C111.592 194.897 108.536 193.631 106.283 191.38C104.03 189.129 102.764 186.077 102.761 182.895V172.136H106.247V182.895C106.25 185.154 107.149 187.32 108.748 188.919C110.347 190.517 112.516 191.417 114.779 191.421V194.902Z" fill="#C5E1F9"/>
<path d="M165.135 210.819C161.948 210.817 158.892 209.552 156.639 207.302C154.386 205.053 153.119 202.002 153.117 198.821V173.08H156.603V198.821C156.605 201.079 157.505 203.244 159.104 204.841C160.704 206.438 162.872 207.336 165.135 207.339V210.819Z" fill="#C5E1F9"/>
<path d="M276.661 256.968H89.8644C88.1887 256.968 86.5816 256.303 85.3967 255.12C84.2118 253.937 83.5461 252.332 83.5461 250.659V92.2293C83.5461 90.4956 84.2354 88.8328 85.4626 87.6061C86.6897 86.3794 88.3543 85.6892 90.0909 85.687H276.434C278.171 85.6892 279.835 86.3794 281.062 87.6061C282.289 88.8328 282.979 90.4956 282.979 92.2293V250.659C282.979 252.332 282.313 253.937 281.128 255.12C279.943 256.303 278.336 256.968 276.661 256.968Z" fill="#EAF4FE"/>
<path d="M83.5461 92.5341C83.5477 89.436 84.7795 86.4653 86.9709 84.2747C89.1623 82.0841 92.1339 80.8527 95.233 80.8511H271.033C274.132 80.8527 277.104 82.0841 279.295 84.2747C281.486 86.4653 282.718 89.436 282.72 92.5341H83.5461Z" fill="#9AC7F7"/>
<path d="M267.861 89.2837C268.374 89.2837 268.875 89.1317 269.302 88.847C269.728 88.5622 270.06 88.1574 270.256 87.6839C270.453 87.2104 270.504 86.6893 270.404 86.1866C270.304 85.6838 270.057 85.2221 269.694 84.8596C269.332 84.4972 268.87 84.2504 268.367 84.1504C267.864 84.0504 267.343 84.1017 266.869 84.2979C266.395 84.494 265.991 84.8262 265.706 85.2524C265.421 85.6785 265.269 86.1796 265.269 86.6922C265.269 87.3795 265.542 88.0387 266.028 88.5247C266.514 89.0107 267.174 89.2837 267.861 89.2837Z" fill="white"/>
<path d="M258.844 89.2837C259.357 89.2837 259.858 89.1317 260.285 88.847C260.711 88.5622 261.043 88.1574 261.24 87.6839C261.436 87.2104 261.487 86.6893 261.387 86.1866C261.287 85.6838 261.04 85.2221 260.678 84.8596C260.315 84.4972 259.853 84.2504 259.35 84.1504C258.847 84.0504 258.326 84.1017 257.852 84.2979C257.379 84.494 256.974 84.8262 256.689 85.2524C256.404 85.6785 256.252 86.1796 256.252 86.6922C256.252 87.3795 256.525 88.0387 257.011 88.5247C257.498 89.0107 258.157 89.2837 258.844 89.2837Z" fill="#0450CF"/>
<path d="M249.833 89.2837C250.346 89.2837 250.847 89.1317 251.273 88.847C251.7 88.5622 252.032 88.1574 252.228 87.6839C252.424 87.2104 252.476 86.6893 252.376 86.1866C252.276 85.6838 252.029 85.2221 251.666 84.8596C251.304 84.4972 250.842 84.2504 250.339 84.1504C249.836 84.0504 249.315 84.1017 248.841 84.2979C248.367 84.494 247.962 84.8262 247.677 85.2524C247.393 85.6785 247.241 86.1796 247.241 86.6922C247.241 87.3795 247.514 88.0387 248 88.5247C248.486 89.0107 249.145 89.2837 249.833 89.2837Z" fill="#003E99"/>
<path d="M118.299 111.059H96.2554V132.007H118.299V111.059Z" fill="#2A66C4"/>
<path d="M101.376 119.405C101.19 119.398 101.004 119.428 100.829 119.495C100.657 119.562 100.502 119.665 100.372 119.797C100.246 119.925 100.147 120.078 100.082 120.247C100.018 120.415 99.9885 120.595 99.9965 120.775C99.9908 120.958 100.023 121.141 100.09 121.312C100.157 121.483 100.259 121.639 100.388 121.769C100.52 121.898 100.675 122 100.846 122.071C101.021 122.136 101.206 122.169 101.393 122.168C101.577 122.169 101.759 122.136 101.931 122.071C102.102 122.008 102.255 121.908 102.381 121.777C102.505 121.648 102.603 121.494 102.668 121.326C102.732 121.158 102.762 120.979 102.756 120.799C102.763 120.617 102.733 120.435 102.669 120.264C102.604 120.093 102.506 119.937 102.381 119.805C102.255 119.672 102.102 119.569 101.931 119.503C101.759 119.43 101.572 119.396 101.385 119.405" fill="white"/>
<path d="M109.194 123.937H107.251V127.197H104.867V116.014H109.194C111.991 116.014 113.39 117.307 113.39 119.894C113.424 120.441 113.346 120.99 113.163 121.507C112.979 122.024 112.693 122.498 112.321 122.902C111.894 123.273 111.398 123.555 110.862 123.733C110.325 123.911 109.758 123.98 109.194 123.937ZM107.251 121.989H109.178C110.369 121.989 110.966 121.28 110.966 119.886C111.013 119.355 110.859 118.825 110.533 118.402C110.352 118.24 110.141 118.116 109.912 118.036C109.677 117.953 109.426 117.922 109.178 117.946H107.251V121.989Z" fill="white"/>
<path d="M262.534 111.059H127.319V115.55H262.534V111.059Z" fill="#9AC7F7"/>
<path d="M262.534 119.284H127.319V123.775H262.534V119.284Z" fill="#9AC7F7"/>
<path d="M262.534 127.5H127.319V131.991H262.534V127.5Z" fill="#9AC7F7"/>
<path d="M262.534 150.168H118.51V153.078H262.534V150.168Z" fill="#9AC7F7"/>
<path d="M223.934 158.425L118.503 158.368L118.511 155.45L223.942 155.507L223.934 158.425Z" fill="#9AC7F7"/>
<path d="M258.355 170.773L118.495 170.708L118.503 167.798L258.355 167.871V170.773Z" fill="#9AC7F7"/>
<path d="M155.838 176.039L118.495 176.031V173.113L155.838 173.137V176.039Z" fill="#9AC7F7"/>
<path d="M205.802 185.486H118.495V188.396H205.802V185.486Z" fill="#9AC7F7"/>
<path d="M191.736 203.149H118.487V206.051H191.736V203.149Z" fill="#9AC7F7"/>
<path d="M262.492 208.489H118.468V211.399H262.492V208.489Z" fill="#9AC7F7"/>
<path d="M231.787 220.821H118.468V223.723H231.787V220.821Z" fill="#9AC7F7"/>
<path d="M193.797 236.92H118.458V239.822H193.797V236.92Z" fill="#9AC7F7"/>
<path d="M97.0449 149.019V159.411H107.454V149.019H97.0449ZM105.756 157.732H98.735V150.714H105.772L105.756 157.732Z" fill="#9AC7F7"/>
<path d="M97.0449 166.429V176.822H107.462V166.421L97.0449 166.429ZM105.748 175.134H98.735V168.124H105.756L105.748 175.134Z" fill="#9AC7F7"/>
<path d="M97.0397 183.832V194.224H107.457V183.832H97.0397ZM105.743 192.545H98.7297V185.535H105.751L105.743 192.545Z" fill="#9AC7F7"/>
<path d="M97.0239 201.234V211.635H107.425V201.243L97.0239 201.234ZM105.735 209.948H98.714V202.938H105.735V209.948Z" fill="#9AC7F7"/>
<path d="M97.0239 218.646V229.038H107.433V218.654L97.0239 218.646ZM105.719 227.359H98.7058V220.349H105.727L105.719 227.359Z" fill="#9AC7F7"/>
<path d="M107.407 246.448L107.415 236.056H97.0057L96.9976 246.44" fill="#9AC7F7"/>
<path d="M98.6873 244.761L98.6954 237.735L105.717 237.751L105.708 244.761" fill="#9AC7F7"/>
<path d="M99.9768 175.795C99.8116 175.796 99.6478 175.763 99.4951 175.701C99.3423 175.638 99.2036 175.545 99.087 175.428C98.8561 175.195 98.7267 174.88 98.7267 174.552C98.7267 174.224 98.8561 173.909 99.087 173.676L104.688 168.084C104.803 167.968 104.94 167.875 105.092 167.812C105.243 167.749 105.405 167.717 105.569 167.717C105.733 167.717 105.896 167.749 106.047 167.812C106.198 167.875 106.336 167.968 106.451 168.084C106.568 168.199 106.66 168.336 106.723 168.487C106.786 168.638 106.819 168.801 106.819 168.964C106.819 169.128 106.786 169.29 106.723 169.441C106.66 169.592 106.568 169.729 106.451 169.845L100.85 175.428C100.619 175.661 100.305 175.793 99.9768 175.795Z" fill="#2A66C4"/>
<path d="M105.539 175.794C105.373 175.795 105.21 175.763 105.057 175.7C104.904 175.637 104.765 175.545 104.649 175.428L99.0563 169.836C98.8249 169.601 98.6952 169.285 98.6952 168.956C98.6952 168.626 98.8249 168.31 99.0563 168.075C99.2914 167.844 99.6081 167.715 99.938 167.715C100.268 167.715 100.584 167.844 100.82 168.075L106.412 173.675C106.643 173.909 106.772 174.223 106.772 174.551C106.772 174.879 106.643 175.194 106.412 175.428C106.181 175.66 105.867 175.792 105.539 175.794Z" fill="#2A66C4"/>
<path d="M103.129 156.957C102.959 156.956 102.791 156.92 102.636 156.853C102.48 156.786 102.339 156.688 102.222 156.566L99.6262 153.827C99.5121 153.71 99.4226 153.571 99.3631 153.418C99.3036 153.266 99.2753 153.104 99.2799 152.94C99.2845 152.777 99.3218 152.616 99.3897 152.467C99.4576 152.319 99.5546 152.185 99.6751 152.074C99.7925 151.96 99.9316 151.871 100.084 151.812C100.237 151.752 100.4 151.724 100.563 151.729C100.727 151.733 100.888 151.77 101.037 151.838C101.186 151.906 101.32 152.003 101.43 152.123L103.063 153.835L107.962 147.917C108.065 147.791 108.192 147.685 108.335 147.608C108.479 147.531 108.637 147.483 108.8 147.467C108.962 147.451 109.126 147.467 109.282 147.515C109.438 147.563 109.583 147.642 109.709 147.746C109.965 147.955 110.128 148.257 110.162 148.585C110.195 148.914 110.097 149.242 109.888 149.499L104.116 156.5C104.004 156.636 103.865 156.746 103.707 156.825C103.55 156.903 103.378 156.948 103.202 156.957H103.129Z" fill="#2A66C4"/>
<path d="M103.628 191.763C103.461 191.763 103.296 191.729 103.143 191.663C102.99 191.597 102.852 191.501 102.738 191.38L100.125 188.649C100.011 188.532 99.9203 188.393 99.86 188.24C99.7997 188.088 99.7707 187.924 99.7745 187.76C99.7783 187.596 99.8149 187.435 99.8821 187.285C99.9494 187.135 100.046 187.001 100.166 186.889C100.282 186.774 100.418 186.682 100.569 186.62C100.719 186.558 100.881 186.526 101.044 186.526C101.207 186.526 101.368 186.558 101.519 186.62C101.669 186.682 101.806 186.774 101.921 186.889L103.554 188.609L108.453 182.699C108.555 182.572 108.682 182.466 108.825 182.388C108.969 182.31 109.126 182.261 109.289 182.244C109.451 182.228 109.616 182.243 109.772 182.291C109.929 182.338 110.074 182.416 110.2 182.52C110.454 182.73 110.616 183.031 110.649 183.359C110.683 183.687 110.586 184.015 110.38 184.272L104.624 191.266C104.512 191.402 104.373 191.513 104.216 191.592C104.058 191.67 103.886 191.715 103.709 191.722L103.628 191.763Z" fill="#2A66C4"/>
<path d="M100.502 209.426C100.333 209.427 100.166 209.392 100.011 209.325C99.8565 209.258 99.7176 209.159 99.6036 209.034L96.9993 206.304C96.8859 206.185 96.7971 206.046 96.7382 205.893C96.6792 205.74 96.6513 205.577 96.6559 205.413C96.6604 205.25 96.6974 205.088 96.7648 204.939C96.8322 204.79 96.9285 204.655 97.0482 204.543C97.1667 204.431 97.306 204.344 97.4583 204.286C97.6107 204.227 97.773 204.2 97.936 204.204C98.099 204.209 98.2596 204.246 98.4085 204.312C98.5573 204.379 98.6916 204.474 98.8035 204.592L100.436 206.304L105.335 200.386C105.438 200.259 105.566 200.154 105.711 200.076C105.855 199.999 106.014 199.951 106.177 199.935C106.34 199.919 106.505 199.936 106.662 199.984C106.818 200.032 106.964 200.11 107.09 200.215C107.345 200.425 107.506 200.727 107.539 201.056C107.571 201.384 107.471 201.712 107.262 201.967L101.547 208.969C101.435 209.105 101.296 209.217 101.138 209.295C100.981 209.374 100.808 209.418 100.632 209.426H100.502Z" fill="#2A66C4"/>
<path d="M283.198 334.688C332.679 334.688 372.791 294.576 372.791 245.095C372.791 195.614 332.679 155.501 283.198 155.501C233.717 155.501 193.604 195.614 193.604 245.095C193.604 294.576 233.717 334.688 283.198 334.688Z" fill="#FFCC00"/>
<path d="M300.817 332.629C341.853 324.537 372.791 288.531 372.791 245.331C372.791 243.883 372.753 242.444 372.685 241.013L335.381 203.902L301.802 237.14V237.246L249.214 281.292L300.817 332.629Z" fill="#D98F00"/>
<path d="M258.482 331.182C266.33 333.463 274.621 334.688 283.198 334.688C291.774 334.688 300.066 333.463 307.913 331.182V274.959H258.482V331.182Z" fill="#EAF4FE"/>
<path d="M283.198 274.959V334.685C283.264 334.685 283.33 334.688 283.396 334.688C291.904 334.688 300.129 333.463 307.913 331.182V274.959H283.198Z" fill="#9AC7F7"/>
<path d="M283.198 295.556C311.066 295.556 333.658 272.964 333.658 245.095C333.658 217.226 311.066 194.634 283.198 194.634C255.329 194.634 232.737 217.226 232.737 245.095C232.737 272.964 255.329 295.556 283.198 295.556Z" fill="#7EB3FF"/>
<path d="M283.401 194.634C283.333 194.634 283.266 194.639 283.198 194.639V295.551C283.266 295.551 283.333 295.556 283.401 295.556C311.157 295.556 333.659 272.963 333.659 245.095C333.659 217.226 311.157 194.634 283.401 194.634Z" fill="#0450CF"/>
<path d="M283.198 282.168C303.673 282.168 320.271 265.57 320.271 245.095C320.271 224.62 303.673 208.021 283.198 208.021C262.723 208.021 246.125 224.62 246.125 245.095C246.125 265.57 262.723 282.168 283.198 282.168Z" fill="white"/>
<path d="M283.402 208.021C283.334 208.021 283.267 208.027 283.198 208.027V282.163C283.267 282.164 283.334 282.168 283.402 282.168C303.764 282.168 320.271 265.57 320.271 245.094C320.271 224.619 303.764 208.021 283.402 208.021Z" fill="#D0D1D3"/>
<path d="M283.198 267.751C295.71 267.751 305.854 257.607 305.854 245.095C305.854 232.582 295.71 222.439 283.198 222.439C270.685 222.439 260.542 232.582 260.542 245.095C260.542 257.607 270.685 267.751 283.198 267.751Z" fill="#7EB3FF"/>
<path d="M283.403 222.439C283.334 222.439 283.266 222.443 283.198 222.444V267.746C283.266 267.746 283.334 267.751 283.403 267.751C295.802 267.751 305.854 257.607 305.854 245.094C305.854 232.582 295.802 222.439 283.403 222.439Z" fill="#0450CF"/>
<path d="M283.198 254.363C288.317 254.363 292.466 250.214 292.466 245.095C292.466 239.976 288.317 235.827 283.198 235.827C278.079 235.827 273.93 239.976 273.93 245.095C273.93 250.214 278.079 254.363 283.198 254.363Z" fill="white"/>
<path d="M283.393 235.827C283.327 235.827 283.263 235.835 283.198 235.837V254.353C283.263 254.354 283.327 254.363 283.393 254.363C288.404 254.363 292.466 250.213 292.466 245.095C292.466 239.977 288.404 235.827 283.393 235.827Z" fill="#D0D1D3"/>
<path d="M283.172 248.184C282.273 248.184 281.384 247.801 280.78 247.065C279.723 245.78 279.937 243.903 281.258 242.876L331.774 203.526C333.092 202.498 335.02 202.705 336.077 203.992C337.133 205.277 336.919 207.154 335.599 208.181L285.082 247.531C284.518 247.97 283.843 248.184 283.172 248.184Z" fill="#EAF4FE"/>
<path d="M335.885 203.902L281.138 247.02C281.15 247.036 281.158 247.053 281.17 247.068C281.77 247.802 282.653 248.184 283.545 248.184C284.212 248.184 284.883 247.971 285.443 247.532L335.607 208.279C336.918 207.253 337.13 205.382 336.081 204.099C336.022 204.026 335.95 203.968 335.885 203.902Z" fill="#9AC7F7"/>
<path d="M140.699 132.605C148.352 125.311 153.107 115.723 154.155 105.472C155.203 95.2208 152.479 84.9417 146.446 76.3851C140.414 67.8285 131.446 61.5234 121.07 58.5438C110.694 55.5642 99.5521 56.0943 89.5414 60.0438C79.5307 63.9933 71.2705 71.1179 66.1676 80.2043C61.0646 89.2907 59.4346 99.7769 61.5551 109.877C63.6755 119.977 69.4153 129.067 77.797 135.597C86.1786 142.128 96.6836 145.696 107.523 145.693C113.689 145.703 119.796 144.552 125.49 142.305C131.185 140.058 136.354 136.761 140.699 132.605ZM80.6023 126.782C74.3706 120.866 70.4908 113.079 69.6242 104.749C68.7576 96.4195 70.9577 88.0619 75.8497 81.1007C80.7417 74.1394 88.0228 69.0054 96.4523 66.5733C104.882 64.1413 113.938 64.5618 122.078 67.7632C130.217 70.9645 136.937 76.7487 141.091 84.13C145.246 91.5112 146.578 100.033 144.86 108.243C143.143 116.453 138.483 123.843 131.674 129.154C124.864 134.464 116.328 137.368 107.518 137.368C102.519 137.377 97.567 136.446 92.9477 134.629C88.3284 132.812 84.1328 130.145 80.6023 126.782H80.6023Z" fill="#0058B0"/>
<path opacity="0.2" d="M99.9049 67.1774C98.0203 65.3045 95.7839 63.8202 93.3237 62.8094C90.8635 61.7985 88.2277 61.2809 85.5668 61.2862C82.9059 61.2914 80.2721 61.8194 77.8159 62.8399C75.3598 63.8604 73.1294 65.3535 71.2521 67.2339C69.3749 69.1142 67.8877 71.3449 66.8754 73.7985C65.8631 76.2522 65.3457 78.8807 65.3526 81.5338C65.3595 84.1869 65.8907 86.8126 66.9158 89.261C67.9408 91.7093 69.4397 93.9323 71.3267 95.8028C73.2112 97.6765 75.4476 99.1614 77.908 100.173C80.3684 101.184 83.0045 101.702 85.6658 101.697C88.3271 101.692 90.9613 101.165 93.4179 100.144C95.8745 99.1235 98.1053 97.6302 99.9828 95.7496C101.86 93.869 103.348 91.6379 104.36 89.1839C105.372 86.7298 105.89 84.1009 105.882 81.4474C105.875 78.7939 105.343 76.1679 104.318 73.7194C103.292 71.2708 101.793 69.0478 99.9049 67.1774Z" fill="white"/>
<path opacity="0.2" d="M77.4503 84.6456C82.5889 79.7678 89.1326 76.445 96.2562 75.0963C103.38 73.7476 110.764 74.4333 117.478 77.067C124.192 79.7007 129.935 84.1644 133.982 89.8952C138.03 95.626 140.2 102.367 140.221 109.269L140.224 109.318C140.23 112.888 139.658 116.438 138.528 119.843C142.305 114.241 144.305 107.724 144.288 101.07L144.286 101.025C144.259 92.6908 141.098 84.64 135.374 78.3249C129.651 72.0098 121.74 67.8461 113.069 66.5848C104.399 65.3235 95.5396 67.0476 88.0893 71.4462C80.6389 75.8448 75.0881 82.6283 72.4381 90.5731C73.8785 88.431 75.5591 86.4435 77.4503 84.6456Z" fill="white"/>
<path d="M67.1707 101.087C67.1803 90.9272 71.4341 81.1869 78.9975 74.0056C86.5608 66.8244 96.8152 62.7895 107.508 62.7875C118.2 62.7855 128.456 66.8165 136.022 73.9949C143.589 81.1733 147.847 90.912 147.861 101.071L151.794 101.073C151.792 101.046 151.792 101.018 151.795 100.991C151.773 89.8379 147.09 79.1501 138.777 71.2763C130.464 63.4025 119.201 58.9871 107.463 59.0005C95.7248 59.014 84.4728 63.4551 76.1798 71.348C67.8867 79.2408 63.2313 89.9393 63.2367 101.092L67.1753 101.098L67.1707 101.087Z" fill="#003C77"/>
<path d="M72.8188 142.034C75.3707 139.669 77.9271 137.304 80.4879 134.937C81.0436 134.418 81.4851 133.8 81.7866 133.117C82.0881 132.434 82.2436 131.701 82.2441 130.961C81.1578 130.116 80.1168 129.22 79.1248 128.277C78.0912 127.297 77.111 126.269 76.1881 125.194C75.4106 125.197 74.6414 125.345 73.9243 125.631C73.2073 125.916 72.5565 126.333 72.0092 126.858C69.4448 129.225 66.8752 131.6 64.3005 133.985C61.8785 136.279 62.7015 138.982 65.1402 141.235L65.1524 141.248C67.5705 143.537 70.4343 144.317 72.8188 142.034Z" fill="#0058B0"/>
<path d="M62.2745 131.194L16.6393 174.554L30.1952 187.434L75.8304 144.074L62.2745 131.194Z" fill="#0058B0"/>
<path d="M69.1443 137.721L23.509 181.081L29.1092 186.402L74.7444 143.042L69.1443 137.721Z" fill="#003C77"/>
<path d="M62.2721 131.194L59.0189 134.286L72.5777 147.165L75.8309 144.073L62.2721 131.194Z" fill="#C5E1F9"/>
<path d="M67.8313 137.892L65.5947 140.018L71.5835 145.706L73.8201 143.58L67.8313 137.892Z" fill="#EAF4FE"/>
<path d="M26.9417 190.52C25.1617 190.52 23.399 190.187 21.7544 189.54C20.1098 188.893 18.6155 187.945 17.3568 186.749C16.0982 185.553 15.0998 184.133 14.4188 182.57C13.7377 181.008 13.3874 179.333 13.3877 177.641C14.4725 176.611 15.553 175.584 16.6399 174.555C21.1623 178.852 25.681 183.145 30.1959 187.435C29.1087 188.464 28.0283 189.491 26.9417 190.52Z" fill="#C5E1F9"/>
<path d="M25.728 189.276L19.7397 183.587L22.5391 180.935L28.5229 186.621L25.728 189.276Z" fill="#EAF4FE"/>
</svg>
