<svg width="37" height="48" viewBox="0 0 37 48" fill="none" xmlns="http://www.w3.org/2000/svg">
<path d="M32.4604 28.789L28.0503 33.1991C27.9528 33.2966 27.8205 33.3514 27.6826 33.3514C27.5447 33.3514 27.4125 33.2966 27.3149 33.1991L25.2415 31.1256C25.144 31.0281 25.0117 30.9733 24.8738 30.9733C24.7359 30.9733 24.6037 31.0281 24.5061 31.1256L22.5976 33.0342C22.5001 33.1316 22.4454 33.2638 22.4453 33.4016C22.4453 33.5395 22.4999 33.6717 22.5973 33.7692L26.7776 37.9567C26.8958 38.0751 27.0362 38.1691 27.1907 38.2332C27.3452 38.2974 27.5109 38.3304 27.6782 38.3305C27.8455 38.3306 28.0112 38.2977 28.1658 38.2337C28.3204 38.1697 28.4608 38.0758 28.5791 37.9575L35.104 31.4326C35.2015 31.3351 35.2562 31.2028 35.2562 31.0649C35.2562 30.927 35.2015 30.7948 35.104 30.6973L33.1958 28.789C33.0982 28.6915 32.966 28.6367 32.8281 28.6367C32.6902 28.6367 32.5579 28.6915 32.4604 28.789Z" fill="#0073E6"/>
<path d="M32.5434 25.6621V7.32543C32.5425 6.57332 32.2434 5.85224 31.7116 5.32037C31.1799 4.7885 30.4588 4.48925 29.7067 4.48828H22.4883" stroke="#505050" stroke-linecap="round" stroke-linejoin="round"/>
<path d="M10.9219 4.48828H3.70381C2.9517 4.48925 2.23068 4.7885 1.69891 5.32037C1.16713 5.85224 0.868023 6.57332 0.867188 7.32543L0.867303 12.9104V42.9007C0.868584 44.0224 1.31477 45.0979 2.10797 45.8911C2.90116 46.6843 3.97661 47.1304 5.09836 47.1317H28.3123C29.434 47.1304 30.5095 46.6843 31.3027 45.8911C32.0959 45.0979 32.5421 44.0224 32.5434 42.9007V37.8062" stroke="#505050" stroke-linecap="round" stroke-linejoin="round"/>
<path d="M21.349 2.70726H19.3337V2.29105C19.3337 1.91341 19.1837 1.55124 18.9167 1.28422C18.6496 1.01719 18.2874 0.867181 17.9098 0.867188H15.4973C15.1204 0.867188 14.759 1.01689 14.4925 1.28336C14.226 1.54984 14.0763 1.91125 14.0763 2.2881L14.0763 2.70726H12.061C11.7591 2.70816 11.4699 2.82845 11.2565 3.04188C11.0431 3.25531 10.9228 3.54453 10.9219 3.84637V7.35129C10.9228 7.65313 11.0431 7.94235 11.2565 8.15578C11.4699 8.36921 11.7591 8.48951 12.061 8.4904H21.349C21.6509 8.48951 21.9401 8.36921 22.1535 8.15578C22.3669 7.94235 22.4872 7.65313 22.4881 7.35129V3.84637C22.4873 3.54453 22.367 3.25531 22.1535 3.04187C21.9401 2.82844 21.6509 2.70814 21.349 2.70726Z" stroke="#505050" stroke-linecap="round" stroke-linejoin="round"/>
<path d="M29.9149 40.3369V42.9007C29.9149 43.1111 29.8735 43.3195 29.793 43.5139C29.7124 43.7083 29.5944 43.8849 29.4456 44.0337C29.2968 44.1825 29.1201 44.3006 28.9257 44.3811C28.7313 44.4616 28.5229 44.5031 28.3125 44.5031H5.09854C4.88811 44.5031 4.67974 44.4616 4.48532 44.3811C4.2909 44.3006 4.11425 44.1825 3.96545 44.0337C3.81665 43.8849 3.69861 43.7083 3.61808 43.5139C3.53755 43.3195 3.4961 43.1111 3.49609 42.9007V12.9106C3.49612 12.4856 3.66495 12.078 3.96545 11.7775L8.15649 7.58649C8.45701 7.28599 8.86459 7.11718 9.28958 7.11719H10.9221" stroke="#505050" stroke-linecap="round" stroke-linejoin="round"/>
<path d="M22.4883 7.11719H29.7064C29.7337 7.11718 29.7608 7.12257 29.7861 7.13303C29.8113 7.14349 29.8343 7.15882 29.8536 7.17815C29.873 7.19749 29.8883 7.22044 29.8988 7.2457C29.9092 7.27096 29.9146 7.29804 29.9146 7.32538V27.3969" stroke="#505050" stroke-linecap="round" stroke-linejoin="round"/>
<rect x="7" y="14" width="10" height="3" fill="#27D1D6"/>
<rect x="7" y="30" width="3" height="3" fill="#27D1D6"/>
<rect x="7" y="35" width="3" height="3" fill="#27D1D6"/>
<rect x="7" y="21" width="10" height="3" fill="#27D1D6"/>
<rect x="7" y="18" width="19" height="1" fill="#0073E6"/>
<rect x="7" y="25" width="19" height="1" fill="#0073E6"/>
<rect x="11" y="32" width="7" height="1" fill="#0073E6"/>
<rect x="11" y="37" width="7" height="1" fill="#0073E6"/>
</svg>
