<svg width="48" height="58" viewBox="0 0 48 58" fill="none" xmlns="http://www.w3.org/2000/svg">
<path d="M42.8311 5.97656H5.16875C2.86641 5.97656 1 8.20715 1 10.9587V39.4175C1 42.1691 2.86641 44.3997 5.16875 44.3997H42.8311C45.1334 44.3997 46.9998 42.1691 46.9998 39.4175V10.9587C46.9998 8.20715 45.1334 5.97656 42.8311 5.97656Z" stroke="#505050" stroke-linecap="round" stroke-linejoin="round"/>
<path d="M22.6875 41.043H25.3131" stroke="#505050" stroke-linecap="round" stroke-linejoin="round"/>
<path d="M1 37.9824H46.9998" stroke="#505050" stroke-linecap="round" stroke-linejoin="round"/>
<path d="M19.5801 50.5464L20.0578 44.3809" stroke="#505050" stroke-linecap="round" stroke-linejoin="round"/>
<path d="M27.9414 44.3809L28.4192 50.5464" stroke="#505050" stroke-linecap="round" stroke-linejoin="round"/>
<path d="M15.0469 50.5469H32.9532" stroke="#505050" stroke-linecap="round" stroke-linejoin="round"/>
<path d="M37.1891 20.1688C37.1891 21.5478 36.3472 22.8149 35.3087 22.8149C34.2703 22.8149 33.4284 21.5478 33.4284 20.1688C33.4006 19.8538 33.4285 19.5353 33.5103 19.234C33.5921 18.9327 33.726 18.6554 33.9033 18.4199C34.0806 18.1845 34.2974 17.9962 34.5395 17.8673C34.7816 17.7385 35.0437 17.6719 35.3088 17.6719C35.5738 17.6719 35.8359 17.7385 36.078 17.8673C36.3201 17.9962 36.5369 18.1845 36.7142 18.4199C36.8915 18.6554 37.0254 18.9327 37.1072 19.234C37.189 19.5353 37.2169 19.8538 37.1891 20.1688Z" stroke="#505050" stroke-linecap="round" stroke-linejoin="round"/>
<path d="M31.4941 28.3848C31.4941 27.1758 31.896 26.0163 32.6113 25.1614C33.3266 24.3065 34.2968 23.8262 35.3085 23.8262H35.3085C36.3201 23.8262 37.2903 24.3065 38.0057 25.1614C38.721 26.0163 39.1228 27.1758 39.1228 28.3848" stroke="#505050" stroke-linecap="round" stroke-linejoin="round"/>
<rect x="8" y="15.5371" width="10" height="3.58537" fill="#27D1D6"/>
<rect x="8" y="23.9023" width="10" height="3.58537" fill="#27D1D6"/>
<rect x="8" y="20.3164" width="19" height="1.19512" fill="#0073E6"/>
<rect x="8" y="28.6836" width="19" height="1.19512" fill="#0073E6"/>
</svg>
