<svg width="48" height="48" viewBox="0 0 48 48" fill="none" xmlns="http://www.w3.org/2000/svg">
<path d="M12.1406 37.377V27.4941L16.5879 29.4707V39.3535L12.1406 37.377Z" fill="#0066CC"/>
<path d="M41.8596 25.0352V34.9815L24.6556 43.5835L6.37695 34.9815V25.1364" stroke="#505050" stroke-linecap="round" stroke-linejoin="round"/>
<path d="M6.37695 15.625L24.6556 23.1518L41.8596 15.625" stroke="#505050" stroke-linecap="round" stroke-linejoin="round"/>
<path d="M24.6543 23.1523V43.5819" stroke="#505050" stroke-linecap="round" stroke-linejoin="round"/>
<path d="M24.6549 23.1518L19.2793 31.2161L1 22.6141L6.37625 15.625" stroke="#505050" stroke-linecap="round" stroke-linejoin="round"/>
<path d="M41.8583 15.625L46.6969 22.6141L30.5682 30.6785L24.6543 23.1518" stroke="#505050" stroke-linecap="round" stroke-linejoin="round"/>
<path d="M24.1172 13.1406V20.2502" stroke="#505050" stroke-linecap="round" stroke-linejoin="round" stroke-dasharray="1 3"/>
<path d="M24.1165 9.71205L18.976 4L1.23438 9.91388L6.37545 15.6259" stroke="#505050" stroke-linecap="round" stroke-linejoin="round"/>
<path d="M24.118 9.71205L29.2591 4L47.0007 9.91388L41.8596 15.6259L24.118 9.71205ZM24.118 9.71205L6.37695 15.6259" stroke="#505050" stroke-linecap="round" stroke-linejoin="round"/>
</svg>
