<svg width="56" height="53" viewBox="0 0 56 53" fill="none" xmlns="http://www.w3.org/2000/svg">
<g filter="url(#filter0_d_4477_222245)">
<path d="M16.1406 37.377V27.4941L20.5879 29.4707V39.3535L16.1406 37.377Z" fill="#0066CC"/>
<path d="M45.8596 25.0352V34.9815L28.6556 43.5835L10.377 34.9815V25.1364" stroke="#505050" stroke-linecap="round" stroke-linejoin="round"/>
<path d="M10.377 15.625L28.6556 23.1518L45.8596 15.625" stroke="#505050" stroke-linecap="round" stroke-linejoin="round"/>
<path d="M28.6543 23.1523V43.5819" stroke="#505050" stroke-linecap="round" stroke-linejoin="round"/>
<path d="M28.6549 23.1518L23.2793 31.2161L5 22.6141L10.3763 15.625" stroke="#505050" stroke-linecap="round" stroke-linejoin="round"/>
<path d="M45.8583 15.625L50.6969 22.6141L34.5682 30.6785L28.6543 23.1518" stroke="#505050" stroke-linecap="round" stroke-linejoin="round"/>
<path d="M28.1172 13.1406V20.2502" stroke="#505050" stroke-linecap="round" stroke-linejoin="round" stroke-dasharray="1 3"/>
<path d="M28.1165 9.71205L22.976 4L5.23438 9.91388L10.3755 15.6259" stroke="#505050" stroke-linecap="round" stroke-linejoin="round"/>
<path d="M28.118 9.71205L33.2591 4L51.0007 9.91388L45.8596 15.6259L28.118 9.71205ZM28.118 9.71205L10.377 15.6259" stroke="#505050" stroke-linecap="round" stroke-linejoin="round"/>
</g>
<defs>
<filter id="filter0_d_4477_222245" x="0" y="0" width="56" height="56" filterUnits="userSpaceOnUse" color-interpolation-filters="sRGB">
<feFlood flood-opacity="0" result="BackgroundImageFix"/>
<feColorMatrix in="SourceAlpha" type="matrix" values="0 0 0 0 0 0 0 0 0 0 0 0 0 0 0 0 0 0 127 0" result="hardAlpha"/>
<feOffset dy="4"/>
<feGaussianBlur stdDeviation="2"/>
<feComposite in2="hardAlpha" operator="out"/>
<feColorMatrix type="matrix" values="0 0 0 0 0 0 0 0 0 0 0 0 0 0 0 0 0 0 0.25 0"/>
<feBlend mode="normal" in2="BackgroundImageFix" result="effect1_dropShadow_4477_222245"/>
<feBlend mode="normal" in="SourceGraphic" in2="effect1_dropShadow_4477_222245" result="shape"/>
</filter>
</defs>
</svg>
