<svg width="48" height="48" viewBox="0 0 48 48" fill="none" xmlns="http://www.w3.org/2000/svg">
<path d="M14.969 15.4687C17.7123 12.6093 21.3655 10.7939 25.3014 10.334C29.2373 9.87422 33.2105 10.7987 36.5391 12.9488C39.8678 15.0989 42.3443 18.3405 43.5436 22.1173C44.7429 25.8942 44.5902 29.9707 43.1117 33.6472C41.6333 37.3237 38.9212 40.371 35.4411 42.2661C31.961 44.1612 27.9297 44.7859 24.0392 44.0329C20.1488 43.28 16.6417 41.1964 14.1198 38.1397C11.598 35.0831 10.2188 31.244 10.2188 27.2813C10.2185 26.4025 10.2856 25.5249 10.4194 24.6564" stroke="#505050" stroke-linecap="round" stroke-linejoin="round"/>
<path d="M11.5273 20.7188C11.7139 20.2713 11.9187 19.8339 12.1417 19.4064C12.2572 19.1847 12.3775 18.9659 12.5023 18.75" stroke="#505050" stroke-linecap="round" stroke-linejoin="round"/>
<path d="M27.2813 15.4688C29.0306 15.4699 30.7578 15.8596 32.3382 16.6096C33.9186 17.3596 35.3126 18.4513 36.4197 19.8058C37.5267 21.1602 38.3191 22.7436 38.7396 24.4416C39.1601 26.1396 39.1983 27.9099 38.8513 29.6244C38.5043 31.339 37.7808 32.955 36.7331 34.3559C35.6854 35.7568 34.3397 36.9075 32.7931 37.7249C31.2465 38.5423 29.5377 39.006 27.79 39.0824C26.0424 39.1589 24.2996 38.8463 22.6875 38.1672" stroke="#27D1D6" stroke-width="3" stroke-linecap="round" stroke-linejoin="round"/>
<path d="M19 36L27 27.5" stroke="#0073E6" stroke-width="1.5" stroke-linecap="round" stroke-linejoin="round"/>
<path d="M27.2812 29.25C28.3686 29.25 29.25 28.3686 29.25 27.2812C29.25 26.1939 28.3686 25.3125 27.2812 25.3125C26.1939 25.3125 25.3125 26.1939 25.3125 27.2812C25.3125 28.3686 26.1939 29.25 27.2812 29.25Z" fill="#0073E6"/>
<path d="M3.65625 15.4688H20.7188" stroke="#505050" stroke-linecap="round" stroke-linejoin="round"/>
<path d="M7.59375 20.7188H24" stroke="#505050" stroke-linecap="round" stroke-linejoin="round"/>
<path d="M25 6.9375H23.3438V4.96875C23.3438 4.62065 23.482 4.28681 23.7282 4.04067C23.9743 3.79453 24.3082 3.65625 24.6562 3.65625H29.9062C30.2543 3.65625 30.5882 3.79453 30.8343 4.04067C31.0805 4.28681 31.2188 4.62065 31.2188 4.96875V6.9375H28.5938" stroke="#505050" stroke-linecap="round" stroke-linejoin="round"/>
<path d="M39.3125 10.875C40.4242 11.6917 41.4504 12.6186 42.3755 13.6417" stroke="#505050" stroke-linecap="round" stroke-linejoin="round"/>
<path d="M40.5 12.5L39 14" stroke="#505050" stroke-linecap="round" stroke-linejoin="round"/>
<rect x="25.3008" y="7" width="4" height="3" stroke="#505050" stroke-linecap="round" stroke-linejoin="round"/>
</svg>
