<svg width="48" height="49" viewBox="0 0 48 49" fill="none" xmlns="http://www.w3.org/2000/svg"><path d="M42.8108 5.60156H6.06707C3.82089 5.60156 2 7.42245 2 9.66864V32.9003C2 35.1465 3.82089 36.9674 6.06707 36.9674H42.8108C45.057 36.9674 46.8779 35.1465 46.8779 32.9003V9.66864C46.8779 7.42245 45.057 5.60156 42.8108 5.60156Z" stroke="#505050" stroke-linecap="round" stroke-linejoin="round"/><path d="M23.1602 34.2266H25.7217" stroke="#505050" stroke-linecap="round" stroke-linejoin="round"/><path d="M2 31.7295H46.8779" stroke="#505050" stroke-linecap="round" stroke-linejoin="round"/><path d="M20.1289 41.9853L20.595 36.9521" stroke="#505050" stroke-linecap="round" stroke-linejoin="round"/><path d="M28.2852 36.9521L28.7513 41.9853" stroke="#505050" stroke-linecap="round" stroke-linejoin="round"/><path d="M15.7031 41.9854H33.1727" stroke="#505050" stroke-linecap="round" stroke-linejoin="round"/><rect x="9.4" y="10.441" width="29.2" height="3.2" rx="1.6" stroke="#0073E6" stroke-width="0.8"/><rect x="9" y="16.041" width="10" height="3" fill="#27D1D6"/><rect x="9" y="23.041" width="10" height="3" fill="#27D1D6"/><rect x="9" y="20.041" width="19" height="1" fill="#0073E6"/><rect x="9" y="27.041" width="19" height="1" fill="#0073E6"/></svg>