<svg width="49" height="48" viewBox="0 0 49 48" fill="none" xmlns="http://www.w3.org/2000/svg"><path d="M30.5446 23.5C32.7067 25.2709 32.6671 24.3189 34.4973 25.0274C34.8798 24.8738 34.6901 24.2907 35.3457 24.5716C36.8374 24.9514 34.9703 25.586 35.0087 26.1894C35.8257 27.135 37.4935 27.4605 38.7166 27.8803C39.8065 28.8119 41.6733 28.8229 42.507 30.0274C42.9705 30.6167 44.4196 31.4356 43.6161 32.3755C43.4959 32.6579 43.6327 33.0167 43.504 33.2617C42.9636 33.3076 42.2753 33.0211 42.1751 32.3612C42.3324 31.9651 42.0442 31.7749 41.8801 31.642C41.7129 31.3741 41.8254 31.129 41.3858 31.2301C40.942 31.4119 39.9353 30.9841 39.707 30.8585C39.5 30.6959 39.6093 30.3462 39.222 30.313C37.8527 30.6025 37.9912 32.4393 37.5908 33.4869C37.4876 34.4579 39.1927 34.2239 39.6665 35.2651C39.7586 35.8254 39.6112 36.1425 39.9778 36.6497C40.6867 37.6268 38.2875 36.8858 38.0161 38.1607C38.6061 39.5949 37.8291 39.6538 37.1065 40.6152C36.7532 40.8426 37.0244 41.2634 36.7891 41.5185C36.5629 41.8381 35.5345 42.0354 35.3372 41.5407C34.888 40.6528 35.416 40.1698 35.9055 39.4815C36.1542 39.24 35.1582 37.8227 36.8104 38.3465C37.2693 37.2112 36.3765 37.6088 36.2764 36.1446C36.2937 35.5463 36.1183 34.8426 35.4535 34.7117C35.0653 34.11 35.5947 34.3478 35.1576 33.4723C34.7524 31.8756 34.4484 32.9902 33.5679 32.7837C33.3308 32.3828 32.0709 32.3785 32.2922 32.0753C32.5818 31.5311 32.3361 30.1709 31.5241 30.3023C31.1352 30.4577 29.5315 31.3719 30.5446 30.3378C30.5148 29.9462 30.1551 29.7108 29.7455 30.002C29.3563 30.0396 29.6153 29.5894 29.4756 29.5079C29.0904 29.2198 28.872 28.3007 28.6629 27.8973C28.2995 27.5638 27.3778 27.8688 26.9628 27.6631C26.8696 27.724 26.3429 28.1636 26.2236 27.7936C25.4933 27.0356 25.0537 26.7133 24.0383 26.1671C23.5456 25.9756 23.493 25.2458 23.2543 25.0884C21.6008 24.1008 20.46 21.9283 18.9399 21.4632C18.738 20.7479 19.1466 20.8953 18.3365 20.4931C18.4359 19.8787 18.4068 19.3064 17.9896 18.8069C17.5235 17.9618 17.5674 16.2194 16.4869 16.002C15.3158 15.0524 14.2352 13.093 12.4569 13.8119C12.0175 14.1933 12.3398 14.636 11.5901 14.688C10.8318 15.3653 9.45917 17.4654 8.57224 16.126C8.69629 15.7568 9.54483 14.6481 8.45318 14.881C7.62279 14.8727 6.57052 14.756 6.64579 13.8408C5.55652 13.0673 6.0733 13.0167 6.83286 12.3916C6.99245 11.7883 6.39225 11.9993 6.11703 11.8458C5.22412 10.9322 6.61051 10.2178 7.12294 9.83357C7.61524 8.90155 6.27714 8.30848 5.82669 7.56581C5.81861 6.65721 7.34664 7.042 8.04361 6.98583C8.89184 6.39767 10.3548 6.7568 10.3284 5.40002C10.4093 4.9541 10.5568 4.51904 11.1134 4.64956C11.9628 5.85754 13.0396 8.62345 13.2593 5.40002M23.6721 13.8408C23.6721 12.3916 23.283 14.1806 24.4166 11.4402C24.5754 10.8415 23.9186 10.6054 23.6721 10.1625C23.7048 9.68133 24.2732 8.06794 24.8442 8.89988C25.7696 8.92375 26.4813 7.94014 27.4151 7.66077C28.0979 7.64371 28.1361 7.8405 28.3016 7.24168C28.2391 6.90658 28.1656 6.35812 28.1997 6.11601C27.9426 6.19194 27.9599 5.98683 27.8583 5.74105C27.4569 5.26856 27.7996 5.07773 28.1998 4.7522C29.7259 3.45083 23.804 3.97174 23.5615 2.53484C23.439 2.18714 23.5615 1.5 22.7593 1.5" stroke="#505050" stroke-linecap="round" stroke-linejoin="round"/><path d="M29.2608 41.4995C30.7523 41.3407 32.0303 41.1552 33.4911 40.727C35.1853 39.3361 33.9114 41.4935 34.2891 42.4423C34.1233 43.1837 33.2901 43.7326 33.2928 44.5246C34.5794 46.2518 33.3968 47.4331 31.2618 46.7272C30.77 46.0263 30.146 45.8357 29.2729 45.6761C28.3381 45.3436 26.8134 44.4679 26.0444 43.8856C24.7107 43.8246 23.4568 43.7689 23.7608 41.9995" stroke="#505050" stroke-linecap="round" stroke-linejoin="round"/><path d="M12.8614 37.5035C12.5678 35.2655 14.1443 37.7743 14.7974 37.2134C15.171 36.5904 14.7975 35.9159 15.2091 35.3742C15.1843 34.1184 15.6549 33.8559 15.2085 32.5669C16.0246 30.5993 15.3101 30.1282 14.5793 28.259C14.1385 28.1171 13.545 28.4444 13.2003 28.6948C12.8026 28.7072 12.277 29.1431 12.1356 29.4692C11.4191 29.9422 11.0166 29.2332 10.6837 28.9367C10.3827 29.3345 10.6805 29.5268 10.5383 29.9533C9.90026 30.6599 11.1264 30.8858 11.264 31.4534C11.3875 32.0046 11.2339 32.8667 11.2639 33.4137C11.4169 33.6841 11.6803 34.268 11.3852 34.4784C11.2686 35.0543 10.9507 35.9957 10.9498 36.4628C10.8755 36.985 10.402 36.4148 10.5382 36.7289C10.5926 37.5945 12.5483 38.4015 12.8614 37.5035Z" stroke="#505050" stroke-linecap="round" stroke-linejoin="round"/><path d="M18.3654 11C18.3654 11 14.7578 8.16923 14.7578 4.47293C14.7761 3.53419 15.1664 2.64112 15.8428 1.99001C16.5193 1.3389 17.4266 0.983029 18.3654 1.00062C19.3041 0.983029 20.2115 1.3389 20.8879 1.99001C21.5644 2.64112 21.9547 3.53419 21.973 4.47293C21.973 8.16923 18.3654 11 18.3654 11Z" fill="#0073E6"/><path d="M27.3654 24C27.3654 24 23.7578 21.1692 23.7578 17.4729C23.7761 16.5342 24.1664 15.6411 24.8428 14.99C25.5193 14.3389 26.4266 13.983 27.3654 14.0006C28.3041 13.983 29.2115 14.3389 29.8879 14.99C30.5644 15.6411 30.9547 16.5342 30.973 17.4729C30.973 21.1692 27.3654 24 27.3654 24Z" fill="#0073E6"/><path d="M26.3654 42C26.3654 42 22.7578 39.1692 22.7578 35.4729C22.7761 34.5342 23.1664 33.6411 23.8428 32.99C24.5193 32.3389 25.4266 31.983 26.3654 32.0006C27.3041 31.983 28.2115 32.3389 28.8879 32.99C29.5644 33.6411 29.9547 34.5342 29.973 35.4729C29.973 39.1692 26.3654 42 26.3654 42Z" fill="#27D1D6"/></svg>
