<svg width="49" height="48" viewBox="0 0 49 48" fill="none" xmlns="http://www.w3.org/2000/svg"><g clip-path="url(#clip0_4477_222246)"><path d="M20.7578 23.8828V14.5L25.2051 15.9766L25.2578 25.5L20.7578 23.8828Z" fill="#0066CC"/><path d="M7.75782 37.3828L7.75781 32.0234L10.7227 33.5L10.7578 39L7.75782 37.3828Z" fill="#27D1D6"/><path d="M15.0254 19.2086V12.7617L31.8878 18.1822L47.7579 12.7617V32.1277L31.8878 39.1634L27.6208 37.3832" stroke="#505050" stroke-linecap="round" stroke-linejoin="round"/><path d="M15.0254 12.7609L31.3916 7L47.7579 12.7609" stroke="#505050" stroke-linecap="round" stroke-linejoin="round"/><path d="M23.0801 15.3491L38.9131 9.64648" stroke="#505050" stroke-linecap="round" stroke-linejoin="round"/><path d="M31.8867 18.1816V39.1628" stroke="#505050" stroke-linecap="round" stroke-linejoin="round"/><path d="M25.2154 30.666V36.3763L15.3381 40.7573L4.84375 36.3763V30.7241" stroke="#505050" stroke-linecap="round" stroke-linejoin="round"/><path d="M4.84375 25.2656L15.3381 29.5868L25.2154 25.2656" stroke="#505050" stroke-linecap="round" stroke-linejoin="round"/><path d="M15.3379 29.5859V40.7574" stroke="#505050" stroke-linecap="round" stroke-linejoin="round"/><path d="M15.3387 29.5868L12.2521 34.2167L1.75781 29.278L4.84441 25.2656" stroke="#505050" stroke-linecap="round" stroke-linejoin="round"/><path d="M25.2152 25.2656L27.9931 29.278L18.7333 33.9085L15.3379 29.5868" stroke="#505050" stroke-linecap="round" stroke-linejoin="round"/><path d="M25.2154 25.2645L15.0293 21.8691L4.84375 25.2645" stroke="#505050" stroke-linecap="round" stroke-linejoin="round"/><path d="M15.0293 21.8691V26.0283" stroke="#505050" stroke-linecap="round" stroke-linejoin="round"/></g><defs><clipPath id="clip0_4477_222246"><rect width="48" height="48" fill="white" transform="translate(0.757812)"/></clipPath></defs></svg>