<svg width="74" height="74" viewBox="0 0 74 74" fill="none" xmlns="http://www.w3.org/2000/svg">
<path d="M70.26 42.3101H3.75V69.8901H70.26V42.3101Z" stroke="#505050" stroke-miterlimit="10"/>
<path d="M12.46 69.89V32.04H61.54V69.89" fill="white"/>
<path d="M12.46 69.89V32.04H61.54V69.89" stroke="#505050" stroke-miterlimit="10"/>
<path d="M24.5201 35.54H18.0601V44.18H24.5201V35.54Z" fill="white" stroke="#505050" stroke-miterlimit="10"/>
<path d="M55.76 35.54H49.3V44.18H55.76V35.54Z" fill="white" stroke="#505050" stroke-miterlimit="10"/>
<path d="M24.61 47.6201H18.15V56.2601H24.61V47.6201Z" fill="white" stroke="#505050" stroke-miterlimit="10"/>
<path d="M35.0201 47.6201H28.5601V56.2601H35.0201V47.6201Z" fill="white" stroke="#505050" stroke-miterlimit="10"/>
<path d="M45.44 47.6201H38.98V56.2601H45.44V47.6201Z" fill="white" stroke="#505050" stroke-miterlimit="10"/>
<path d="M55.85 47.6201H49.39V56.2601H55.85V47.6201Z" fill="white" stroke="#505050" stroke-miterlimit="10"/>
<path d="M52.58 61.5498H21.42V69.8798H52.58V61.5498Z" stroke="#505050" stroke-miterlimit="10"/>
<path d="M72.75 73.3799H48.27H1.25" stroke="#505050" stroke-miterlimit="10"/>
<path d="M1.25 73.5005V69.8901H46.22H72.56V73.5005" stroke="#505050" stroke-miterlimit="10"/>
<path d="M37 61.5498V69.8898" stroke="#505050" stroke-miterlimit="10"/>
<path d="M12.46 45.98H9.48999V58.07H12.46" stroke="#505050" stroke-miterlimit="10"/>
<path d="M61.54 45.98H64.51V58.07H61.54" stroke="#505050" stroke-miterlimit="10"/>
<path d="M36.91 41.7798C42.2893 41.7798 46.65 37.4191 46.65 32.0398C46.65 26.6606 42.2893 22.2998 36.91 22.2998C31.5308 22.2998 27.17 26.6606 27.17 32.0398C27.17 37.4191 31.5308 41.7798 36.91 41.7798Z" fill="white" stroke="#505050" stroke-miterlimit="10"/>
<path d="M36.9101 26.6899H35.3201V30.5299H31.5601V33.5499H35.3201V37.3899H36.9101" fill="#0066CC"/>
<path d="M36.9101 26.6899H35.3201V30.5299H31.5601V33.5499H35.3201V37.3899H36.9101" stroke="#0066CC" stroke-miterlimit="10"/>
<path d="M36.91 26.6899H38.49V30.5299H42.26V33.5499H38.49V37.3899H36.91" fill="#27D1D6"/>
<path d="M36.91 26.6899H38.49V30.5299H42.26V33.5499H38.49V37.3899H36.91" stroke="#27D1D6" stroke-miterlimit="10"/>
</svg>
