<svg width="74" height="74" viewBox="0 0 74 74" fill="none" xmlns="http://www.w3.org/2000/svg">
<path d="M46.3402 52.21V24.33L37.0002 17.79L27.6602 24.33V52.21" fill="white"/>
<path d="M46.3402 52.21V24.33L37.0002 17.79L27.6602 24.33V52.21" stroke="#505050" stroke-miterlimit="10"/>
<path d="M5.57031 33.4404V68.8804H25.7303" stroke="#505050" stroke-miterlimit="10"/>
<path d="M68.4295 33.4404V68.8804H48.2695" stroke="#505050" stroke-miterlimit="10"/>
<path d="M48.27 73.4499H1.25V68.8799H5.57V73.4499" stroke="#505050" stroke-miterlimit="10"/>
<path d="M48.2695 73.4499H72.7495V68.8799H68.4295V73.4499" stroke="#505050" stroke-miterlimit="10"/>
<path d="M37.0006 35.0003C40.0989 35.0003 42.6106 32.4886 42.6106 29.3903C42.6106 26.292 40.0989 23.7803 37.0006 23.7803C33.9023 23.7803 31.3906 26.292 31.3906 29.3903C31.3906 32.4886 33.9023 35.0003 37.0006 35.0003Z" stroke="#505050" stroke-miterlimit="10"/>
<path d="M45.2491 14.1699H40.2891V17.8599H45.2491V14.1699Z" stroke="#27D1D6" stroke-miterlimit="10"/>
<path d="M43.58 12.3203H37V16.0103H43.58V12.3203Z" fill="white" stroke="#0066CC" stroke-miterlimit="10"/>
<path d="M31.2305 40.8896H42.7705" stroke="#505050" stroke-miterlimit="10"/>
<path d="M31.2305 44.21H42.7705" stroke="#505050" stroke-miterlimit="10"/>
<path d="M9.69945 61.4796C9.69945 62.022 9.59263 62.5591 9.38508 63.0601C9.17752 63.5612 8.87331 64.0165 8.4898 64.4C8.1063 64.7835 7.65101 65.0877 7.14994 65.2953C6.64886 65.5028 6.11181 65.6096 5.56945 65.6096C5.02709 65.6096 4.49005 65.5028 3.98897 65.2953C3.4879 65.0877 3.03261 64.7835 2.6491 64.4C2.2656 64.0165 1.96138 63.5612 1.75383 63.0601C1.54628 62.5591 1.43945 62.022 1.43945 61.4796C1.43945 59.1896 3.28945 52.8896 5.56945 52.8896C7.84945 52.8896 9.69945 59.1896 9.69945 61.4796Z" fill="white" stroke="#505050" stroke-miterlimit="10"/>
<path d="M72.5608 61.4796C72.5608 62.575 72.1257 63.6255 71.3511 64.4C70.5766 65.1745 69.5261 65.6096 68.4308 65.6096C67.3354 65.6096 66.285 65.1745 65.5104 64.4C64.7359 63.6255 64.3008 62.575 64.3008 61.4796C64.3008 59.1896 66.1508 52.8896 68.4308 52.8896C70.7108 52.8896 72.5608 59.1896 72.5608 61.4796Z" fill="white" stroke="#505050" stroke-miterlimit="10"/>
<path d="M37 17.7904V10.9004" stroke="#505050" stroke-miterlimit="10"/>
<path d="M48.2805 56.0801H25.7305V68.8801H48.2805V56.0801Z" stroke="#505050" stroke-miterlimit="10"/>
<path d="M25.2899 52.21H48.7099C49.7363 52.21 50.7207 52.6177 51.4464 53.3435C52.1722 54.0692 52.5799 55.0536 52.5799 56.08V56.08H21.4199C21.4199 55.0536 21.8277 54.0692 22.5534 53.3435C23.2792 52.6177 24.2635 52.21 25.2899 52.21V52.21Z" stroke="#505050" stroke-miterlimit="10"/>
<path d="M37 55.8301V68.8801" stroke="#505050" stroke-miterlimit="10"/>
<path d="M15.6909 39.29C16.5476 39.29 17.3692 39.6303 17.9749 40.2361C18.5806 40.8418 18.9209 41.6634 18.9209 42.52V47.93H12.4609V42.52C12.4609 41.6634 12.8012 40.8418 13.407 40.2361C14.0127 39.6303 14.8343 39.29 15.6909 39.29V39.29Z" stroke="#505050" stroke-miterlimit="10"/>
<path d="M58.3491 39.29C59.2058 39.29 60.0274 39.6303 60.6331 40.2361C61.2388 40.8418 61.5791 41.6634 61.5791 42.52V47.93H55.1191V42.52C55.1191 41.6634 55.4594 40.8418 56.0652 40.2361C56.6709 39.6303 57.4925 39.29 58.3491 39.29V39.29Z" stroke="#505050" stroke-miterlimit="10"/>
<path d="M27.66 33.4402H1.25V30.4902H27.66" stroke="#505050" stroke-miterlimit="10"/>
<path d="M46.3398 33.4402H72.7498V30.4902H46.3398" stroke="#505050" stroke-miterlimit="10"/>
<path d="M37 26.5596V29.3896H39.34" stroke="#505050" stroke-miterlimit="10"/>
</svg>
