<svg width="74" height="74" viewBox="0 0 74 74" fill="none" xmlns="http://www.w3.org/2000/svg">
<path d="M72.75 73.4502H48.27H1.25" stroke="#505050" stroke-miterlimit="10"/>
<path d="M1.25 73.5V69.96H46.22H71H72.56V73.5" stroke="#505050" stroke-miterlimit="10"/>
<path d="M66.73 32.1201H7.28003V69.9701H66.73V32.1201Z" stroke="#505050" stroke-miterlimit="10"/>
<path d="M52.58 61.6299H21.42V69.9599H52.58V61.6299Z" stroke="#505050" stroke-miterlimit="10"/>
<path d="M12.46 32.1201V69.9601" stroke="#505050" stroke-miterlimit="10"/>
<path d="M61.54 32.1201V69.9601" stroke="#505050" stroke-miterlimit="10"/>
<path d="M25.5299 35.6099H19.0699V44.2499H25.5299V35.6099Z" stroke="#505050" stroke-miterlimit="10"/>
<path d="M35.95 35.6099H29.49V44.2499H35.95V35.6099Z" stroke="#505050" stroke-miterlimit="10"/>
<path d="M46.36 35.6099H39.9V44.2499H46.36V35.6099Z" stroke="#505050" stroke-miterlimit="10"/>
<path d="M56.7799 35.6099H50.3199V44.2499H56.7799V35.6099Z" stroke="#505050" stroke-miterlimit="10"/>
<path d="M25.5299 47.6899H19.0699V56.3299H25.5299V47.6899Z" stroke="#505050" stroke-miterlimit="10"/>
<path d="M35.95 47.6899H29.49V56.3299H35.95V47.6899Z" stroke="#505050" stroke-miterlimit="10"/>
<path d="M46.36 47.6899H39.9V56.3299H46.36V47.6899Z" stroke="#505050" stroke-miterlimit="10"/>
<path d="M56.7799 47.6899H50.3199V56.3299H56.7799V47.6899Z" stroke="#505050" stroke-miterlimit="10"/>
<path d="M1.75997 61H6.71997L6.71997 57.31H1.75997L1.75997 61Z" fill="#27D1D6" stroke="#27D1D6" stroke-miterlimit="10"/>
<path d="M3.42 59.1602H10V55.4702H3.42L3.42 59.1602Z" fill="#0066CC" stroke="#0066CC" stroke-miterlimit="10"/>
<path d="M10.01 69.96V54.04" stroke="#505050" stroke-miterlimit="10"/>
<path d="M72.24 57.3198H67.28V61.0098H72.24V57.3198Z" fill="#27D1D6" stroke="#27D1D6" stroke-miterlimit="10"/>
<path d="M70.57 55.4702H63.99V59.1602H70.57V55.4702Z" fill="#0066CC" stroke="#0066CC" stroke-miterlimit="10"/>
<path d="M63.99 69.96V54.04" stroke="#505050" stroke-miterlimit="10"/>
<path d="M7.77996 27.9102H66.22C67.3365 27.9102 68.4073 28.3537 69.1969 29.1432C69.9864 29.9328 70.43 31.0036 70.43 32.1202V32.1202H3.57996C3.57995 31.0053 4.02213 29.936 4.8095 29.1468C5.59687 28.3575 6.66513 27.9128 7.77996 27.9102V27.9102Z" stroke="#505050" stroke-miterlimit="10"/>
</svg>
