<svg width="74" height="74" viewBox="0 0 74 74" fill="none" xmlns="http://www.w3.org/2000/svg">
<path d="M37 21.1901V17.5801" stroke="#505050" stroke-miterlimit="10"/>
<path d="M71.5303 28.0703H66.5703V31.7603H71.5303V28.0703Z" stroke="#27D1D6" stroke-miterlimit="10"/>
<path d="M69.8593 26.2197H63.2793V29.9097H69.8593V26.2197Z" fill="white" stroke="#0066CC" stroke-miterlimit="10"/>
<path d="M63.2793 33.7798V24.7998" stroke="#505050" stroke-miterlimit="10"/>
<path d="M2.46969 31.7598H7.42969L7.42969 28.0698H2.46969L2.46969 31.7598Z" stroke="#27D1D6" stroke-miterlimit="10"/>
<path d="M4.1407 29.9199H10.7207V26.2299H4.1407L4.1407 29.9199Z" fill="white" stroke="#0066CC" stroke-miterlimit="10"/>
<path d="M10.7207 33.7798V24.7998" stroke="#505050" stroke-miterlimit="10"/>
<path d="M7.78009 33.7803H66.2201C66.773 33.7816 67.3202 33.8918 67.8304 34.1046C68.3407 34.3173 68.8041 34.6286 69.1941 35.0204C69.5841 35.4123 69.8931 35.8771 70.1035 36.3884C70.3138 36.8997 70.4214 37.4474 70.4201 38.0003V38.0003H3.58009C3.57878 37.4474 3.68637 36.8997 3.89673 36.3884C4.10709 35.8771 4.41609 35.4123 4.8061 35.0204C5.1961 34.6286 5.65947 34.3173 6.16975 34.1046C6.68003 33.8918 7.22722 33.7816 7.78009 33.7803V33.7803Z" stroke="#505050" stroke-miterlimit="10"/>
<path d="M48.2805 56.1201H25.7305V68.9201H48.2805V56.1201Z" stroke="#505050" stroke-miterlimit="10"/>
<path d="M5.57031 37.9902V68.9202H25.7303" stroke="#505050" stroke-miterlimit="10"/>
<path d="M68.4295 37.9902V68.9202H48.2695" stroke="#505050" stroke-miterlimit="10"/>
<path d="M48.27 73.4899H1.25V68.9199H5.57V73.4899" stroke="#505050" stroke-miterlimit="10"/>
<path d="M48.2695 73.4899H72.7495V68.9199H68.4295V73.4899" stroke="#505050" stroke-miterlimit="10"/>
<path d="M9.69945 61.5197C9.69945 62.062 9.59263 62.5991 9.38508 63.1002C9.17752 63.6012 8.87331 64.0565 8.4898 64.44C8.1063 64.8235 7.65101 65.1278 7.14994 65.3353C6.64886 65.5429 6.11181 65.6497 5.56945 65.6497C5.02709 65.6497 4.49005 65.5429 3.98897 65.3353C3.4879 65.1278 3.03261 64.8235 2.6491 64.44C2.2656 64.0565 1.96138 63.6012 1.75383 63.1002C1.54628 62.5991 1.43945 62.062 1.43945 61.5197C1.43945 59.2297 3.28945 52.9297 5.56945 52.9297C7.84945 52.9297 9.69945 59.2297 9.69945 61.5197Z" fill="white" stroke="#505050" stroke-miterlimit="10"/>
<path d="M72.5608 61.5197C72.5608 62.615 72.1257 63.6655 71.3511 64.44C70.5766 65.2146 69.5261 65.6497 68.4308 65.6497C67.3354 65.6497 66.285 65.2146 65.5104 64.44C64.7359 63.6655 64.3008 62.615 64.3008 61.5197C64.3008 59.2297 66.1508 52.9297 68.4308 52.9297C70.7108 52.9297 72.5608 59.2297 72.5608 61.5197Z" fill="white" stroke="#505050" stroke-miterlimit="10"/>
<path d="M24.6105 33.78C24.5627 32.0723 24.8578 30.3724 25.4783 28.7807C26.0988 27.189 27.0321 25.7378 28.2231 24.513C29.4141 23.2882 30.8386 22.3147 32.4123 21.6499C33.986 20.9851 35.6771 20.6426 37.3855 20.6426C39.0938 20.6426 40.7849 20.9851 42.3586 21.6499C43.9323 22.3147 45.3568 23.2882 46.5478 24.513C47.7388 25.7378 48.6721 27.189 49.2927 28.7807C49.9132 30.3724 50.2083 32.0723 50.1605 33.78" stroke="#505050" stroke-miterlimit="10"/>
<path d="M31.3496 33.7702C31.3496 26.7102 33.9096 20.9902 37.0596 20.9902C40.2096 20.9902 42.7696 26.7102 42.7696 33.7702" stroke="#505050" stroke-miterlimit="10"/>
<path d="M52.5799 52.25H21.4199V56.12H52.5799V52.25Z" stroke="#505050" stroke-miterlimit="10"/>
<path d="M37 55.8701V68.9201" stroke="#505050" stroke-miterlimit="10"/>
<path d="M37.0601 40.9404C37.9167 40.9404 38.7383 41.2807 39.344 41.8865C39.9498 42.4922 40.2901 43.3138 40.2901 44.1704V49.5804H33.8301V44.1704C33.8301 43.3138 34.1704 42.4922 34.7761 41.8865C35.3819 41.2807 36.2034 40.9404 37.0601 40.9404V40.9404Z" stroke="#505050" stroke-miterlimit="10"/>
<path d="M24.7593 40.9404C25.1843 40.9391 25.6054 41.0217 25.9984 41.1834C26.3915 41.3452 26.7487 41.5829 27.0497 41.883C27.3507 42.183 27.5895 42.5395 27.7525 42.9321C27.9154 43.3246 27.9993 43.7454 27.9993 44.1704V49.5804H21.5293V44.1704C21.5293 43.3138 21.8696 42.4922 22.4753 41.8865C23.0811 41.2807 23.9026 40.9404 24.7593 40.9404Z" stroke="#505050" stroke-miterlimit="10"/>
<path d="M12.4605 40.9404C12.8846 40.9404 13.3047 41.024 13.6965 41.1863C14.0884 41.3486 14.4445 41.5865 14.7444 41.8865C15.0444 42.1864 15.2823 42.5425 15.4446 42.9344C15.6069 43.3262 15.6905 43.7463 15.6905 44.1704V49.5804H9.23047V44.1704C9.23047 43.3138 9.57077 42.4922 10.1765 41.8865C10.7823 41.2807 11.6038 40.9404 12.4605 40.9404V40.9404Z" stroke="#505050" stroke-miterlimit="10"/>
<path d="M52.5996 49.5703H46.1396V44.1603C46.1396 43.3037 46.4799 42.4821 47.0857 41.8764C47.6914 41.2706 48.513 40.9303 49.3696 40.9303V40.9303C50.2263 40.9303 51.0478 41.2706 51.6536 41.8764C52.2593 42.4821 52.5996 43.3037 52.5996 44.1603V49.5703V49.5703Z" stroke="#505050" stroke-miterlimit="10"/>
<path d="M64.8906 49.5703H58.4306V44.1603C58.4306 43.3037 58.7709 42.4821 59.3767 41.8764C59.9824 41.2706 60.804 40.9303 61.6606 40.9303V40.9303C62.5173 40.9303 63.3388 41.2706 63.9446 41.8764C64.5503 42.4821 64.8906 43.3037 64.8906 44.1603V49.5703Z" stroke="#505050" stroke-miterlimit="10"/>
</svg>
