<svg width="74" height="74" viewBox="0 0 74 74" fill="none" xmlns="http://www.w3.org/2000/svg">
<path d="M13.5498 54.1699H18.5098V50.4799H13.5498V54.1699Z" fill="white" stroke="#27D1D6" stroke-miterlimit="10"/>
<path d="M15.2208 52.3096H21.8008V48.6196H15.2208V52.3096Z" fill="white" stroke="#0066CC" stroke-miterlimit="10"/>
<path d="M21.8008 70.0002V47.2002" stroke="#505050" stroke-miterlimit="10"/>
<path d="M18.1494 44.7998H23.1094V41.1098H18.1494V44.7998Z" fill="white" stroke="#27D1D6" stroke-miterlimit="10"/>
<path d="M19.8302 42.9502H26.4102V39.2602H19.8302V42.9502Z" fill="white" stroke="#0066CC" stroke-miterlimit="10"/>
<path d="M28.6591 13.5303H33.6191V9.84027H28.6591V13.5303Z" fill="white" stroke="#27D1D6" stroke-miterlimit="10"/>
<path d="M30.3302 11.6699H36.9102V7.97992L30.3302 7.97992V11.6699Z" fill="white" stroke="#0066CC" stroke-miterlimit="10"/>
<path d="M26.4102 70.0001V37.8301" stroke="#505050" stroke-miterlimit="10"/>
<path d="M9.42086 63.2002H14.3809V59.5102H9.42086V63.2002Z" fill="white" stroke="#27D1D6" stroke-miterlimit="10"/>
<path d="M11.0899 61.3604H17.6699V57.6704H11.0899V61.3604Z" fill="white" stroke="#0066CC" stroke-miterlimit="10"/>
<path d="M17.6699 70.0005V56.2305" stroke="#505050" stroke-miterlimit="10"/>
<path d="M50.7206 70.0004V25.6904L5.64062 34.3304V70.0004" stroke="#505050" stroke-miterlimit="10"/>
<path d="M59.5402 69.9996V9.80957L36.9102 14.8796V69.9996" fill="white"/>
<path d="M59.5402 69.9996V9.80957L36.9102 14.8796V69.9996" stroke="#505050" stroke-miterlimit="10"/>
<path d="M72.75 73.4902H48.27H1.25" stroke="#505050" stroke-miterlimit="10"/>
<path d="M1.25 73.5V70H46.22H72.56V73.5" stroke="#505050" stroke-miterlimit="10"/>
<path d="M59.5391 41.5498L67.5591 43.5898V69.9998" stroke="#505050" stroke-miterlimit="10"/>
<path d="M36.9102 14.8801V5.87012" stroke="#505050" stroke-miterlimit="10"/>
<path d="M52.9098 17.79H41.2598V23.79H52.9098V17.79Z" stroke="#505050" stroke-miterlimit="10"/>
<path d="M52.9098 26.9102H41.2598V32.9102H52.9098V26.9102Z" stroke="#505050" stroke-miterlimit="10"/>
<path d="M52.9098 36.0195H41.2598V42.0195H52.9098V36.0195Z" stroke="#505050" stroke-miterlimit="10"/>
<path d="M52.9098 45.1396H41.2598V51.1396H52.9098V45.1396Z" stroke="#505050" stroke-miterlimit="10"/>
<path d="M59.5408 17.79H56.0508V23.79H59.5408V17.79Z" stroke="#505050" stroke-miterlimit="10"/>
<path d="M59.5408 26.9102H56.0508V32.9102H59.5408V26.9102Z" stroke="#505050" stroke-miterlimit="10"/>
<path d="M59.5408 36.0195H56.0508V42.0195H59.5408V36.0195Z" stroke="#505050" stroke-miterlimit="10"/>
<path d="M59.5408 45.1396H56.0508V51.1396H59.5408V45.1396Z" stroke="#505050" stroke-miterlimit="10"/>
<path d="M55.1206 64.7002H42.1406V70.0002H55.1206V64.7002Z" stroke="#505050" stroke-miterlimit="10"/>
</svg>
