<svg width="74" height="74" viewBox="0 0 74 74" fill="none" xmlns="http://www.w3.org/2000/svg">
<path d="M51.4448 16.102L59.8594 24.5166L62.3625 22.0134L53.948 13.5989L51.4448 16.102Z" fill="#27D1D6" stroke="#27D1D6" stroke-miterlimit="10"/>
<path d="M50.1594 19.843L56.1133 25.7969L58.6164 23.2937L52.6626 17.3399L50.1594 19.843Z" fill="#0066CC" stroke="#0066CC" stroke-miterlimit="10"/>
<path d="M45.8804 26.2378L49.7129 30.0703L55.0515 24.7317L51.219 20.8991L45.8804 26.2378Z" fill="#0066CC" stroke="#0066CC" stroke-miterlimit="10"/>
<path d="M20.2804 37.55C20.2252 35.2689 20.6269 32.9999 21.4617 30.8763C22.2965 28.7528 23.5476 26.8177 25.1414 25.1849C26.7352 23.5521 28.6395 22.2546 30.7423 21.3687C32.845 20.4827 35.1037 20.0264 37.3854 20.0264C39.6671 20.0264 41.9258 20.4827 44.0285 21.3687C46.1313 22.2546 48.0355 23.5521 49.6294 25.1849C51.2232 26.8177 52.4743 28.7528 53.3091 30.8763C54.1439 32.9999 54.5455 35.2689 54.4904 37.55" fill="white"/>
<path d="M20.2804 37.55C20.2252 35.2689 20.6269 32.9999 21.4617 30.8763C22.2965 28.7528 23.5476 26.8177 25.1414 25.1849C26.7352 23.5521 28.6395 22.2546 30.7423 21.3687C32.845 20.4827 35.1037 20.0264 37.3854 20.0264C39.6671 20.0264 41.9258 20.4827 44.0285 21.3687C46.1313 22.2546 48.0355 23.5521 49.6294 25.1849C51.2232 26.8177 52.4743 28.7528 53.3091 30.8763C54.1439 32.9999 54.5455 35.2689 54.4904 37.55" stroke="#505050" stroke-miterlimit="10"/>
<path d="M29.3008 37.5299C29.3008 28.0799 32.7308 20.4199 36.9508 20.4199C41.1708 20.4199 44.6008 28.0799 44.6008 37.5299" stroke="#505050" stroke-miterlimit="10"/>
<path d="M20.6504 34H54.1304" stroke="#505050" stroke-miterlimit="10"/>
<path d="M23.0098 28.2803H51.7698" stroke="#505050" stroke-miterlimit="10"/>
<path d="M26.5391 24.2402H48.2291" stroke="#505050" stroke-miterlimit="10"/>
<path d="M48.2805 60.8096H25.7305V68.8496H48.2805V60.8096Z" stroke="#505050" stroke-miterlimit="10"/>
<path d="M25.7303 68.8502H5.57031V37.9102H68.4303V68.8502H48.2703" stroke="#505050" stroke-miterlimit="10"/>
<path d="M48.27 73.4196H1.25V68.8496H5.57V73.4196" stroke="#505050" stroke-miterlimit="10"/>
<path d="M48.2695 73.4196H72.7495V68.8496H68.4295V73.4196" stroke="#505050" stroke-miterlimit="10"/>
<path d="M9.69945 61.4403C9.69945 61.9827 9.59263 62.5198 9.38508 63.0208C9.17752 63.5219 8.87331 63.9772 8.4898 64.3607C8.1063 64.7442 7.65101 65.0484 7.14994 65.256C6.64886 65.4635 6.11181 65.5704 5.56945 65.5704C5.02709 65.5704 4.49005 65.4635 3.98897 65.256C3.4879 65.0484 3.03261 64.7442 2.6491 64.3607C2.2656 63.9772 1.96138 63.5219 1.75383 63.0208C1.54628 62.5198 1.43945 61.9827 1.43945 61.4403C1.43945 59.1603 3.28945 52.8604 5.56945 52.8604C7.84945 52.8604 9.69945 59.1603 9.69945 61.4403Z" fill="white" stroke="#505050" stroke-miterlimit="10"/>
<path d="M72.5608 61.4403C72.5608 62.5357 72.1257 63.5862 71.3511 64.3607C70.5766 65.1352 69.5261 65.5704 68.4308 65.5704C67.3354 65.5704 66.285 65.1352 65.5104 64.3607C64.7359 63.5862 64.3008 62.5357 64.3008 61.4403C64.3008 59.1603 66.1508 52.8604 68.4308 52.8604C70.7108 52.8604 72.5608 59.1603 72.5608 61.4403Z" fill="white" stroke="#505050" stroke-miterlimit="10"/>
<path d="M37 60.6504V68.8504" stroke="#505050" stroke-miterlimit="10"/>
<path d="M40.2901 41.7695H33.8301V50.4095H40.2901V41.7695Z" stroke="#505050" stroke-miterlimit="10"/>
<path d="M27.9893 41.7695H21.5293V50.4095H27.9893V41.7695Z" stroke="#505050" stroke-miterlimit="10"/>
<path d="M15.6905 41.7695H9.23047V50.4095H15.6905V41.7695Z" stroke="#505050" stroke-miterlimit="10"/>
<path d="M46.1396 50.4004H52.5996V41.7604H46.1396V50.4004Z" stroke="#505050" stroke-miterlimit="10"/>
<path d="M58.4306 50.4004H64.8906V41.7604H58.4306V50.4004Z" stroke="#505050" stroke-miterlimit="10"/>
<path d="M56.3101 57.3301H17.5801V60.6501H56.3101V57.3301Z" stroke="#505050" stroke-miterlimit="10"/>
</svg>
