<svg width="74" height="74" viewBox="0 0 74 74" fill="none" xmlns="http://www.w3.org/2000/svg">
<path d="M7.78009 33.7803H66.2201C66.773 33.7816 67.3202 33.8918 67.8304 34.1046C68.3407 34.3173 68.8041 34.6286 69.1941 35.0204C69.5841 35.4123 69.8931 35.8771 70.1035 36.3884C70.3138 36.8997 70.4214 37.4474 70.4201 38.0003V38.0003H3.58009C3.57878 37.4474 3.68637 36.8997 3.89673 36.3884C4.10709 35.8771 4.41609 35.4123 4.8061 35.0204C5.1961 34.6286 5.65947 34.3173 6.16975 34.1046C6.68003 33.8918 7.22722 33.7816 7.78009 33.7803V33.7803Z" stroke="#505050" stroke-miterlimit="10"/>
<path d="M46.3402 49.3003V24.3603L37.0002 17.8203L27.6602 24.3603V49.3003" fill="white"/>
<path d="M46.3402 49.3003V24.3603L37.0002 17.8203L27.6602 24.3603V49.3003" stroke="#505050" stroke-miterlimit="10"/>
<path d="M48.2805 49.2998H25.7305V73.4898H48.2805V49.2998Z" stroke="#505050" stroke-miterlimit="10"/>
<path d="M5.57031 37.9805V68.9205H25.7303" stroke="#505050" stroke-miterlimit="10"/>
<path d="M68.4295 37.9805V68.9205H48.2695" stroke="#505050" stroke-miterlimit="10"/>
<path d="M25.73 73.4899H1.25V68.9199H5.57V73.4899" stroke="#505050" stroke-miterlimit="10"/>
<path d="M48.2695 73.4899H72.7495V68.9199H68.4295V73.4899" stroke="#505050" stroke-miterlimit="10"/>
<path d="M36.9998 30.3003C38.7892 30.3003 40.2398 28.8497 40.2398 27.0603C40.2398 25.2709 38.7892 23.8203 36.9998 23.8203C35.2104 23.8203 33.7598 25.2709 33.7598 27.0603C33.7598 28.8497 35.2104 30.3003 36.9998 30.3003Z" stroke="#505050" stroke-miterlimit="10"/>
<path d="M45.2491 14.21H40.2891V17.9H45.2491V14.21Z" stroke="#27D1D6" stroke-miterlimit="10"/>
<path d="M43.58 12.3604H37V16.0504H43.58V12.3604Z" fill="white" stroke="#0066CC" stroke-miterlimit="10"/>
<path d="M31.2305 40.9297H42.7705" stroke="#505050" stroke-miterlimit="10"/>
<path d="M31.2305 44.2402H42.7705" stroke="#505050" stroke-miterlimit="10"/>
<path d="M9.88086 47.9697H21.4209" stroke="#505050" stroke-miterlimit="10"/>
<path d="M9.88086 44.2402H21.4209" stroke="#505050" stroke-miterlimit="10"/>
<path d="M53.9004 47.9697H65.4404" stroke="#505050" stroke-miterlimit="10"/>
<path d="M53.9004 44.2402H65.4404" stroke="#505050" stroke-miterlimit="10"/>
<path d="M37.0005 59C38.5308 59 39.9984 59.6079 41.0805 60.69C42.1626 61.7721 42.7705 63.2397 42.7705 64.77V73.49H31.2305V64.77C31.2305 63.2397 31.8384 61.7721 32.9205 60.69C34.0025 59.6079 35.4702 59 37.0005 59Z" stroke="#505050" stroke-miterlimit="10"/>
<path d="M37.3906 59V73.49" stroke="#505050" stroke-miterlimit="10"/>
<path d="M9.69945 61.5097C9.69945 62.052 9.59263 62.5891 9.38508 63.0902C9.17752 63.5912 8.87331 64.0465 8.4898 64.43C8.1063 64.8135 7.65101 65.1178 7.14994 65.3253C6.64886 65.5329 6.11181 65.6397 5.56945 65.6397C5.02709 65.6397 4.49005 65.5329 3.98897 65.3253C3.4879 65.1178 3.03261 64.8135 2.6491 64.43C2.2656 64.0465 1.96138 63.5912 1.75383 63.0902C1.54628 62.5891 1.43945 62.052 1.43945 61.5097C1.43945 59.2297 3.28945 52.9297 5.56945 52.9297C7.84945 52.9297 9.69945 59.2297 9.69945 61.5097Z" fill="white" stroke="#505050" stroke-miterlimit="10"/>
<path d="M21.8492 61.5097C21.8768 62.0698 21.7902 62.6297 21.5949 63.1554C21.3995 63.681 21.0994 64.1615 20.7127 64.5677C20.326 64.9739 19.8608 65.2972 19.3454 65.5182C18.83 65.7392 18.275 65.8531 17.7142 65.8531C17.1534 65.8531 16.5985 65.7392 16.083 65.5182C15.5676 65.2972 15.1024 64.9739 14.7157 64.5677C14.3291 64.1615 14.0289 63.681 13.8336 63.1554C13.6382 62.6297 13.5517 62.0698 13.5792 61.5097C13.5792 59.2297 15.4292 52.9297 17.7092 52.9297C19.9892 52.9297 21.8492 59.2297 21.8492 61.5097Z" fill="white" stroke="#505050" stroke-miterlimit="10"/>
<path d="M60.4195 61.5097C60.4471 62.0698 60.3606 62.6297 60.1652 63.1554C59.9698 63.681 59.6697 64.1615 59.283 64.5677C58.8963 64.9739 58.4312 65.2972 57.9157 65.5182C57.4003 65.7392 56.8453 65.8531 56.2845 65.8531C55.7237 65.8531 55.1688 65.7392 54.6533 65.5182C54.1379 65.2972 53.6727 64.9739 53.2861 64.5677C52.8994 64.1615 52.5992 63.681 52.4039 63.1554C52.2085 62.6297 52.122 62.0698 52.1495 61.5097C52.1495 59.2297 53.9995 52.9297 56.2895 52.9297C58.5795 52.9297 60.4195 59.2297 60.4195 61.5097Z" fill="white" stroke="#505050" stroke-miterlimit="10"/>
<path d="M72.5608 61.5097C72.5608 62.605 72.1257 63.6555 71.3511 64.43C70.5766 65.2046 69.5261 65.6397 68.4308 65.6397C67.3354 65.6397 66.285 65.2046 65.5104 64.43C64.7359 63.6555 64.3008 62.605 64.3008 61.5097C64.3008 59.2297 66.1508 52.9297 68.4308 52.9297C70.7108 52.9297 72.5608 59.2297 72.5608 61.5097Z" fill="white" stroke="#505050" stroke-miterlimit="10"/>
<path d="M17.7109 65.6504V73.4904" stroke="#505050" stroke-miterlimit="10"/>
<path d="M56.2891 65.6504V73.4904" stroke="#505050" stroke-miterlimit="10"/>
<path d="M37 17.8197V10.9297" stroke="#505050" stroke-miterlimit="10"/>
</svg>
