<svg width="417" height="341" viewBox="0 0 417 341" fill="none" xmlns="http://www.w3.org/2000/svg">
<path d="M296.542 228.751V224.942C299.024 224.94 301.404 223.957 303.159 222.209C304.915 220.461 305.902 218.091 305.904 215.619H309.73H305.904H309.73C309.727 219.101 308.337 222.44 305.864 224.902C303.392 227.365 300.039 228.749 296.542 228.751V228.751Z" fill="#C5E1F9"/>
<path d="M296.788 228.751C293.29 228.749 289.937 227.365 287.462 224.903C284.988 222.441 283.596 219.102 283.591 215.619V209.562H287.426V215.619C287.428 218.091 288.415 220.461 290.171 222.209C291.926 223.957 294.306 224.94 296.788 224.942V228.751Z" fill="#C5E1F9"/>
<path d="M287.432 210.704H283.606V198.928C283.601 196.455 282.612 194.085 280.856 192.338C279.099 190.59 276.718 189.607 274.235 189.605H237.763V185.787H274.235C277.733 185.791 281.087 187.177 283.561 189.641C286.035 192.104 287.427 195.444 287.432 198.928V210.704Z" fill="#C5E1F9"/>
<path d="M125.72 213.318V209.508C128.204 209.504 130.583 208.519 132.338 206.769C134.093 205.02 135.08 202.649 135.083 200.176V194.529H138.908V200.212C138.894 203.688 137.499 207.018 135.028 209.473C132.557 211.928 129.211 213.311 125.72 213.318V213.318Z" fill="#C5E1F9"/>
<path d="M150.655 231.803H146.829V190.524C146.829 189.477 146.412 188.473 145.67 187.732C144.927 186.991 143.92 186.574 142.869 186.572C141.818 186.574 140.811 186.991 140.068 187.732C139.326 188.473 138.909 189.477 138.909 190.524V197.366H135.084V190.524C135.084 188.467 135.904 186.494 137.363 185.039C138.823 183.583 140.803 182.765 142.869 182.762C144.935 182.765 146.915 183.583 148.375 185.039C149.835 186.494 150.655 188.467 150.655 190.524V231.803Z" fill="#C5E1F9"/>
<path d="M171.798 206.35H167.964V177.24C167.964 175.803 167.391 174.425 166.372 173.408C165.352 172.391 163.969 171.818 162.526 171.816C161.082 171.818 159.698 172.39 158.677 173.407C157.655 174.424 157.081 175.802 157.078 177.24V206.35H153.253V177.24C153.255 174.792 154.233 172.444 155.971 170.713C157.71 168.982 160.067 168.009 162.526 168.006C164.984 168.009 167.341 168.982 169.08 170.713C170.818 172.444 171.796 174.792 171.798 177.24V206.35Z" fill="#C5E1F9"/>
<path d="M151.999 240.028C150.63 240.028 149.318 239.487 148.35 238.523C147.382 237.56 146.838 236.253 146.838 234.89V204.022H150.673V234.89C150.673 235.24 150.813 235.576 151.061 235.823C151.31 236.071 151.647 236.21 151.999 236.21C152.173 236.21 152.345 236.176 152.506 236.11C152.667 236.043 152.813 235.946 152.936 235.823C153.06 235.701 153.157 235.555 153.224 235.395C153.29 235.235 153.325 235.063 153.325 234.89V204.022H157.15V234.89C157.15 236.251 156.608 237.557 155.642 238.52C154.676 239.484 153.366 240.026 151.999 240.028V240.028Z" fill="#C5E1F9"/>
<path d="M125.955 213.318C122.457 213.313 119.104 211.927 116.632 209.463C114.159 207 112.769 203.66 112.767 200.177V188.401H116.593V200.177C116.595 202.65 117.582 205.02 119.337 206.77C121.092 208.519 123.472 209.504 125.955 209.509V213.318Z" fill="#C5E1F9"/>
<path d="M181.213 230.741C177.717 230.738 174.364 229.354 171.891 226.892C169.418 224.43 168.028 221.091 168.026 217.609V189.435H171.851V217.609C171.854 220.08 172.841 222.45 174.596 224.198C176.351 225.946 178.731 226.929 181.213 226.931V230.741Z" fill="#C5E1F9"/>
<path d="M302.18 325.739H48.1454C45.8666 325.739 43.6809 324.837 42.0695 323.234C40.4581 321.63 39.5529 319.455 39.5529 317.187V102.42C39.5529 100.07 40.4902 97.8157 42.1591 96.1528C43.828 94.4898 46.0918 93.5542 48.4534 93.5513H301.872C304.233 93.5542 306.497 94.4898 308.166 96.1528C309.835 97.8157 310.772 100.07 310.772 102.42V317.187C310.772 319.455 309.867 321.63 308.256 323.234C306.644 324.837 304.459 325.739 302.18 325.739Z" fill="#EAF4FE"/>
<path d="M87.0163 113.839H56.5041V142.017H87.0163V113.839Z" fill="#2A66C4"/>
<path d="M63.8499 125.113C63.6209 125.101 63.3924 125.151 63.1783 125.259C62.9673 125.369 62.7761 125.537 62.6172 125.751C62.4619 125.961 62.3407 126.211 62.2614 126.485C62.1821 126.76 62.1462 127.053 62.1561 127.346C62.1491 127.646 62.1881 127.944 62.2708 128.223C62.3535 128.502 62.4781 128.755 62.6371 128.968C62.7987 129.178 62.9893 129.345 63.1984 129.46C63.4131 129.566 63.6407 129.62 63.8699 129.619C64.0959 129.62 64.32 129.566 64.5313 129.46C64.7401 129.358 64.9286 129.194 65.0825 128.981C65.2359 128.77 65.3558 128.52 65.435 128.246C65.5142 127.972 65.551 127.68 65.5435 127.386C65.552 127.089 65.5156 126.792 65.4365 126.514C65.3573 126.235 65.237 125.981 65.0825 125.765C64.929 125.548 64.7405 125.38 64.5313 125.273C64.3193 125.153 64.0899 125.099 63.8599 125.113" fill="white"/>
<path d="M74.6668 131.781H72.0928V136.382H68.9349V120.602H74.6668C78.3727 120.602 80.2256 122.427 80.2256 126.077C80.2701 126.849 80.1675 127.623 79.9241 128.352C79.6807 129.081 79.3015 129.751 78.8089 130.321C78.2442 130.844 77.5871 131.243 76.8759 131.494C76.1648 131.745 75.4138 131.842 74.6668 131.781ZM72.0928 129.032H74.6451C76.2241 129.032 77.0136 128.032 77.0136 126.065C77.0771 125.316 76.8724 124.568 76.4404 123.972C76.2013 123.743 75.9219 123.567 75.6185 123.454C75.3065 123.338 74.9743 123.295 74.6451 123.328H72.0928V129.032Z" fill="white"/>
<path d="M282.52 113.839H99.4471V120.602H282.52V113.839Z" fill="#9AC7F7"/>
<path d="M282.52 125.111H99.4471V131.874H282.52V125.111Z" fill="#9AC7F7"/>
<path d="M282.52 136.382H99.4471V142.017H282.52V136.382Z" fill="#9AC7F7"/>
<path d="M282.52 166.814H87.0162V171.322H282.52V166.814Z" fill="#9AC7F7"/>
<path d="M230.525 178.085L87.0162 178.021L87.0274 174.704L230.537 174.769L230.525 178.085Z" fill="#9AC7F7"/>
<path d="M276.87 194.992L87.0162 194.894L87.0273 190.484L276.87 190.595V194.992Z" fill="#9AC7F7"/>
<path d="M137.87 201.755L87.0162 201.745V198.374L137.87 198.402V201.755Z" fill="#9AC7F7"/>
<path d="M205.675 215.28H87.0162V218.662H205.675V215.28Z" fill="#9AC7F7"/>
<path d="M186.463 238.95H87.0162V242.332H186.463V238.95Z" fill="#9AC7F7"/>
<path d="M282.52 245.713H87.0162V250.221H282.52V245.713Z" fill="#9AC7F7"/>
<path d="M240.707 262.62H87.0162V267.128H240.707V262.62Z" fill="#9AC7F7"/>
<path d="M189.854 285.162H87.0162V288.543H189.854V285.162Z" fill="#9AC7F7"/>
<path d="M57.6342 165.687V179.212H72.3252V165.687H57.6342ZM69.9286 177.027H60.0194V167.893H69.9517L69.9286 177.027Z" fill="#9AC7F7"/>
<path d="M57.6342 189.367V202.882H72.3252V189.356L57.6342 189.367ZM69.9074 200.688H60.0175V191.572H69.919L69.9074 200.688Z" fill="#9AC7F7"/>
<path d="M57.6342 213.026V226.552H72.3252V213.026H57.6342ZM69.9074 224.367H60.0175V215.243H69.919L69.9074 224.367Z" fill="#9AC7F7"/>
<path d="M57.6342 236.696V250.221H72.3252V236.706L57.6342 236.696ZM69.9381 248.027H60.0212V238.911H69.9381V248.027Z" fill="#9AC7F7"/>
<path d="M57.6342 260.365V273.891H72.3252V260.376L57.6342 260.365ZM69.9055 271.705H60.0078V262.582H69.9171L69.9055 271.705Z" fill="#9AC7F7"/>
<path d="M72.3137 297.56L72.3252 284.035H57.6457L57.6342 297.55" fill="#9AC7F7"/>
<path d="M59.8943 295.306L59.9061 286.289L70.065 286.31L70.0532 295.306" fill="#9AC7F7"/>
<path d="M61.6401 201.755C61.4093 201.756 61.1807 201.711 60.9673 201.623C60.754 201.536 60.5603 201.406 60.3974 201.243C60.075 200.918 59.8943 200.478 59.8943 200.021C59.8943 199.563 60.075 199.124 60.3974 198.798L68.2188 190.996C68.3799 190.834 68.5718 190.705 68.7832 190.617C68.9945 190.529 69.2212 190.484 69.4502 190.484C69.6792 190.484 69.906 190.529 70.1173 190.617C70.3287 190.705 70.5204 190.834 70.6815 190.996C70.8442 191.157 70.9733 191.348 71.0615 191.559C71.1496 191.77 71.1951 191.996 71.1951 192.224C71.1951 192.453 71.1496 192.679 71.0615 192.89C70.9733 193.101 70.8442 193.292 70.6815 193.453L62.8602 201.243C62.5374 201.568 62.0986 201.752 61.6401 201.755V201.755Z" fill="#2A66C4"/>
<path d="M69.4688 201.755C69.2376 201.756 69.0085 201.711 68.7948 201.624C68.581 201.536 68.387 201.406 68.2238 201.243L60.3995 193.443C60.0758 193.115 59.8943 192.674 59.8943 192.215C59.8943 191.755 60.0758 191.314 60.3995 190.987C60.7285 190.665 61.1715 190.484 61.633 190.484C62.0946 190.484 62.5376 190.665 62.8666 190.987L70.6909 198.799C71.0139 199.124 71.1951 199.563 71.1951 200.021C71.1951 200.479 71.0139 200.918 70.6909 201.243C70.3675 201.568 69.9281 201.752 69.4688 201.755V201.755Z" fill="#2A66C4"/>
<path d="M66.2178 175.831C65.989 175.829 65.7628 175.783 65.5528 175.695C65.3427 175.608 65.153 175.48 64.995 175.32L61.4923 171.744C61.3383 171.591 61.2176 171.41 61.1373 171.211C61.0571 171.012 61.0189 170.8 61.0251 170.587C61.0312 170.373 61.0816 170.163 61.1732 169.969C61.2648 169.775 61.3957 169.601 61.5583 169.456C61.7167 169.307 61.9044 169.191 62.1102 169.113C62.3159 169.036 62.5357 168.999 62.7565 169.005C62.9773 169.011 63.1946 169.059 63.3956 169.148C63.5966 169.236 63.7771 169.363 63.9266 169.52L66.1296 171.755L72.7386 164.028C72.8773 163.863 73.0487 163.726 73.2427 163.625C73.4367 163.524 73.6496 163.461 73.8689 163.44C74.0882 163.42 74.3096 163.441 74.5202 163.504C74.7309 163.566 74.9265 163.669 75.0959 163.805C75.4416 164.078 75.6613 164.472 75.7067 164.901C75.7521 165.329 75.6196 165.758 75.3382 166.093L67.5506 175.235C67.3992 175.412 67.2112 175.556 66.9988 175.659C66.7863 175.761 66.5541 175.82 66.3169 175.831H66.2178Z" fill="#2A66C4"/>
<path d="M67.3572 223.17C67.1322 223.17 66.9096 223.126 66.703 223.04C66.4964 222.955 66.3102 222.829 66.1557 222.672L62.6287 219.117C62.4736 218.965 62.3517 218.784 62.2704 218.585C62.189 218.386 62.1498 218.174 62.1549 217.96C62.1601 217.747 62.2094 217.537 62.3002 217.342C62.3911 217.147 62.5215 216.971 62.6838 216.826C62.8394 216.676 63.0241 216.557 63.2274 216.476C63.4307 216.395 63.6486 216.353 63.8687 216.353C64.0887 216.353 64.3066 216.395 64.5099 216.476C64.7132 216.557 64.8979 216.676 65.0535 216.826L67.2579 219.064L73.8712 211.372C74.0091 211.206 74.1801 211.069 74.3738 210.967C74.5676 210.866 74.7804 210.802 74.9999 210.78C75.2194 210.759 75.4411 210.779 75.6523 210.841C75.8635 210.902 76.0598 211.004 76.2299 211.139C76.5733 211.412 76.7913 211.805 76.8367 212.232C76.8821 212.658 76.7513 213.085 76.4725 213.42L68.7019 222.523C68.5513 222.7 68.3634 222.845 68.1506 222.947C67.9379 223.05 67.705 223.108 67.4674 223.117L67.3572 223.17Z" fill="#2A66C4"/>
<path d="M62.8234 247.967C62.5957 247.968 62.3702 247.919 62.1616 247.823C61.9529 247.727 61.7656 247.587 61.6118 247.41L58.0981 243.521C57.9452 243.352 57.8254 243.153 57.7459 242.935C57.6663 242.718 57.6287 242.485 57.6348 242.252C57.6409 242.019 57.6909 241.789 57.7818 241.577C57.8726 241.364 58.0026 241.172 58.1642 241.013C58.3239 240.854 58.5119 240.729 58.7174 240.646C58.923 240.563 59.142 240.524 59.3619 240.53C59.5818 240.537 59.7985 240.589 59.9994 240.684C60.2002 240.778 60.3813 240.914 60.5323 241.083L62.7353 243.521L69.3441 235.092C69.4838 234.911 69.6561 234.761 69.851 234.651C70.046 234.541 70.2598 234.472 70.48 234.45C70.7002 234.427 70.9225 234.451 71.134 234.519C71.3455 234.587 71.5421 234.699 71.7123 234.848C72.0564 235.148 72.2739 235.578 72.3172 236.046C72.3606 236.514 72.2262 236.981 71.9436 237.344L64.2333 247.317C64.0828 247.511 63.895 247.669 63.6824 247.781C63.4698 247.893 63.2371 247.956 62.9996 247.967H62.8234Z" fill="#2A66C4"/>
<path d="M357.582 165.456C357.043 165.457 356.508 165.357 356.005 165.161C355.509 164.968 355.056 164.68 354.671 164.314C354.29 163.959 353.985 163.531 353.775 163.056C353.569 162.586 353.462 162.079 353.461 161.566L354.455 160.674L358.568 164.564L357.582 165.456Z" fill="#C5E1F9"/>
<path d="M357.217 165.09L355.425 163.368L356.321 162.565L358.113 164.287L357.217 165.09Z" fill="#EAF4FE"/>
<path d="M336.833 63.233C328.527 54.667 317.652 49.3858 306.06 48.289C294.468 47.1922 282.875 50.3476 273.257 57.2177C263.638 64.0878 256.588 74.2478 253.308 85.9673C250.027 97.6868 250.719 110.241 255.266 121.492C259.812 132.743 267.932 141.994 278.242 147.671C288.553 153.348 300.416 155.099 311.811 152.626C323.207 150.152 333.43 143.608 340.74 134.107C348.049 124.606 351.993 112.736 351.9 100.518C351.86 93.5687 350.508 86.695 347.921 80.2951C345.335 73.8952 341.566 68.096 336.833 63.233V63.233ZM330.755 131.018C324.122 138.09 315.355 142.527 305.95 143.573C296.544 144.618 287.082 142.207 279.175 136.751C271.267 131.294 265.405 123.13 262.587 113.649C259.768 104.168 260.168 93.9565 263.717 84.7556C267.267 75.5546 273.747 67.9331 282.053 63.1898C290.359 58.4465 299.978 56.8749 309.269 58.7428C318.561 60.6108 326.95 65.8027 333.009 73.4338C339.067 81.0649 342.419 90.663 342.493 100.593C342.544 106.227 341.533 111.816 339.519 117.038C337.505 122.259 334.526 127.01 330.755 131.018L330.755 131.018Z" fill="#0058B0"/>
<path opacity="0.2" d="M263.239 109.752C261.138 111.892 259.479 114.424 258.358 117.206C257.236 119.987 256.673 122.962 256.701 125.961C256.729 128.961 257.348 131.925 258.522 134.685C259.695 137.445 261.401 139.947 263.542 142.047C265.682 144.147 268.215 145.805 270.996 146.926C273.777 148.047 276.752 148.608 279.75 148.579C282.748 148.549 285.711 147.929 288.469 146.753C291.227 145.578 293.726 143.87 295.824 141.727V141.727C297.926 139.588 299.585 137.055 300.707 134.273C301.83 131.492 302.393 128.516 302.365 125.517C302.337 122.517 301.719 119.552 300.545 116.792C299.372 114.031 297.666 111.529 295.525 109.429C293.384 107.328 290.851 105.67 288.069 104.549C285.287 103.428 282.312 102.867 279.314 102.897C276.316 102.927 273.353 103.548 270.594 104.724C267.836 105.9 265.337 107.609 263.239 109.752V109.752Z" fill="white"/>
<path opacity="0.2" d="M283.166 134.918C277.612 129.166 273.802 121.818 272.219 113.8C270.635 105.782 271.349 97.4531 274.269 89.864C277.189 82.2748 282.185 75.7652 288.627 71.156C295.069 66.5468 302.668 64.0445 310.466 63.9646L310.522 63.961C314.556 63.9242 318.573 64.5394 322.43 65.7852C316.068 61.5741 308.686 59.3739 301.168 59.4475L301.117 59.4508C291.7 59.5498 282.629 63.1784 275.541 69.6821C268.452 76.1857 263.813 85.1363 262.461 94.9194C261.108 104.702 263.13 114.674 268.162 123.035C273.195 131.396 280.907 137.597 289.906 140.518C287.474 138.912 285.214 137.035 283.166 134.918Z" fill="white"/>
<path d="M301.829 146.369C290.349 146.441 279.308 141.727 271.13 133.262C262.952 124.796 258.308 113.271 258.216 101.22C258.124 89.1684 262.594 77.5755 270.642 68.9882C278.69 60.4009 289.659 55.5216 301.139 55.4222L301.108 50.9883C301.077 50.9913 301.046 50.9911 301.014 50.9878C288.412 51.1055 276.375 56.4713 267.547 65.9059C258.719 75.3405 253.824 88.0718 253.937 101.302C254.05 114.532 259.163 127.177 268.151 136.459C277.138 145.742 289.266 150.901 301.868 150.803L301.842 146.363L301.829 146.369Z" fill="#003C77"/>
<path d="M348.055 139.662C345.362 136.805 342.668 133.944 339.972 131.077C339.381 130.455 338.678 129.962 337.904 129.628C337.13 129.294 336.301 129.125 335.464 129.13C334.518 130.361 333.515 131.542 332.456 132.668C331.359 133.841 330.204 134.954 328.998 136.004C329.007 136.88 329.181 137.746 329.51 138.551C329.838 139.357 330.315 140.087 330.912 140.7C333.609 143.571 336.314 146.447 339.03 149.33C341.643 152.041 344.691 151.091 347.216 148.323L347.231 148.309C349.797 145.565 350.655 142.331 348.055 139.662Z" fill="#0058B0"/>
<path d="M335.893 151.636L385.272 202.712L399.714 187.327L350.335 136.251L335.893 151.636Z" fill="#0058B0"/>
<path d="M343.211 143.839L392.59 194.915L398.557 188.559L349.178 137.483L343.211 143.839Z" fill="#003C77"/>
<path d="M335.893 151.639L339.414 155.28L353.855 139.891L350.334 136.25L335.893 151.639Z" fill="#C5E1F9"/>
<path d="M343.416 145.318L345.837 147.821L352.215 141.024L349.794 138.521L343.416 145.318Z" fill="#EAF4FE"/>
<path d="M403.228 190.968C403.243 192.974 402.881 194.964 402.164 196.823C401.446 198.682 400.387 200.374 399.046 201.803C397.705 203.231 396.109 204.368 394.349 205.149C392.589 205.929 390.699 206.338 388.788 206.351C387.614 205.137 386.445 203.928 385.272 202.711C390.09 197.579 394.905 192.45 399.715 187.326C400.887 188.543 402.056 189.752 403.228 190.968Z" fill="#C5E1F9"/>
<path d="M401.832 192.346L395.453 199.143L392.433 196.009L398.808 189.218L401.832 192.346Z" fill="#EAF4FE"/>
<path d="M302.305 143.145C247.276 142.891 247.318 58.6104 302.305 58.6104C357.291 58.6104 357.291 142.891 302.305 143.145Z" fill="white"/>
<path d="M302.273 135.254C256.348 135.254 256.348 66.6676 302.273 66.5003C348.197 66.333 348.325 135.129 302.273 135.254Z" fill="#00CF86"/>
<path d="M299.007 116.094L285.911 102.999L292.231 96.8243L299.007 103.579L314.622 87.9155L320.943 94.0898L299.007 116.094Z" fill="white"/>
</svg>
