<svg width="368" height="280" viewBox="0 0 368 280" fill="none" xmlns="http://www.w3.org/2000/svg">
<path d="M295.508 58H69.9924C61.7136 58 55 65.1677 55 74.0129V199.828C55 208.673 61.7136 215.841 69.9924 215.841H295.508C303.787 215.841 310.5 208.673 310.5 199.828V74.0129C310.5 65.1677 303.787 58 295.508 58Z" fill="white"/>
<path d="M55.2534 72.8843C55.2555 68.9374 56.834 65.1527 59.6423 62.3618C62.4507 59.5708 66.2589 58.002 70.2305 58H295.523C299.495 58.002 303.303 59.5708 306.111 62.3618C308.92 65.1527 310.498 68.9374 310.5 72.8843H55.2534Z" fill="#9AC7F7"/>
<path d="M291.457 68.7435C292.114 68.7435 292.756 68.5499 293.302 68.1871C293.849 67.8243 294.274 67.3086 294.526 66.7053C294.777 66.102 294.843 65.4382 294.715 64.7977C294.587 64.1572 294.27 63.5689 293.806 63.1072C293.341 62.6454 292.749 62.331 292.105 62.2036C291.46 62.0762 290.792 62.1416 290.185 62.3915C289.578 62.6414 289.059 63.0645 288.694 63.6075C288.329 64.1505 288.134 64.7888 288.134 65.4418C288.134 66.3175 288.484 67.1573 289.107 67.7765C289.73 68.3957 290.575 68.7435 291.457 68.7435Z" fill="white"/>
<path d="M279.902 68.7435C280.559 68.7435 281.202 68.5499 281.748 68.1871C282.294 67.8243 282.72 67.3086 282.972 66.7053C283.223 66.102 283.289 65.4382 283.161 64.7977C283.033 64.1572 282.716 63.5689 282.252 63.1072C281.787 62.6454 281.195 62.331 280.55 62.2036C279.906 62.0762 279.238 62.1416 278.631 62.3915C278.024 62.6414 277.505 63.0645 277.14 63.6075C276.775 64.1505 276.58 64.7888 276.58 65.4418C276.58 66.3175 276.93 67.1573 277.553 67.7765C278.176 68.3957 279.021 68.7435 279.902 68.7435Z" fill="#0450CF"/>
<path d="M268.354 68.7435C269.012 68.7435 269.654 68.5499 270.2 68.1871C270.747 67.8243 271.172 67.3086 271.424 66.7053C271.675 66.102 271.741 65.4382 271.613 64.7977C271.485 64.1572 271.168 63.5689 270.704 63.1072C270.239 62.6454 269.647 62.331 269.003 62.2036C268.358 62.0762 267.69 62.1416 267.083 62.3915C266.476 62.6414 265.957 63.0645 265.592 63.6075C265.227 64.1505 265.032 64.7888 265.032 65.4418C265.032 66.3175 265.382 67.1573 266.005 67.7765C266.628 68.3957 267.473 68.7435 268.354 68.7435Z" fill="#003E99"/>
<path d="M137.979 120.854H76.1462C73.8563 120.854 72 122.654 72 124.875V189.948C72 192.169 73.8563 193.969 76.1462 193.969H137.979C140.269 193.969 142.126 192.169 142.126 189.948V124.875C142.126 122.654 140.269 120.854 137.979 120.854Z" fill="#EAF4FE"/>
<path d="M107.718 154.25C112.194 154.25 115.822 150.634 115.822 146.175C115.822 141.715 112.194 138.1 107.718 138.1C103.242 138.1 99.6143 141.715 99.6143 146.175C99.6143 150.634 103.242 154.25 107.718 154.25Z" fill="#50A7EF"/>
<path d="M118.682 175.15H96.7539V164.867C96.7539 162.556 97.6794 160.34 99.3271 158.706C100.975 157.071 103.21 156.152 105.541 156.15H109.895C112.226 156.152 114.461 157.071 116.109 158.706C117.757 160.34 118.682 162.556 118.682 164.867V175.15Z" fill="#50A7EF"/>
<path d="M214.416 120.854H152.583C150.293 120.854 148.437 122.654 148.437 124.875V189.948C148.437 192.169 150.293 193.969 152.583 193.969H214.416C216.706 193.969 218.563 192.169 218.563 189.948V124.875C218.563 122.654 216.706 120.854 214.416 120.854Z" fill="#EAF4FE"/>
<path d="M184.155 154.25C188.631 154.25 192.259 150.634 192.259 146.175C192.259 141.715 188.631 138.1 184.155 138.1C179.679 138.1 176.051 141.715 176.051 146.175C176.051 150.634 179.679 154.25 184.155 154.25Z" fill="#FFBF0D"/>
<path d="M195.119 175.15H173.191V164.867C173.191 162.556 174.116 160.34 175.764 158.706C177.412 157.071 179.647 156.152 181.978 156.15H186.332C188.663 156.152 190.898 157.071 192.546 158.706C194.194 160.34 195.119 162.556 195.119 164.867V175.15Z" fill="#FFBF0D"/>
<path d="M290.854 120.854H229.021C226.731 120.854 224.875 122.654 224.875 124.875V189.948C224.875 192.169 226.731 193.969 229.021 193.969H290.854C293.144 193.969 295 192.169 295 189.948V124.875C295 122.654 293.144 120.854 290.854 120.854Z" fill="#EAF4FE"/>
<path d="M260.592 154.25C265.068 154.25 268.696 150.634 268.696 146.175C268.696 141.715 265.068 138.1 260.592 138.1C256.117 138.1 252.488 141.715 252.488 146.175C252.488 150.634 256.117 154.25 260.592 154.25Z" fill="#0058B0"/>
<path d="M271.556 175.15H249.628V164.867C249.628 162.556 250.553 160.34 252.201 158.706C253.849 157.071 256.084 156.152 258.415 156.15H262.769C265.1 156.152 267.335 157.071 268.983 158.706C270.631 160.34 271.556 162.556 271.556 164.867V175.15Z" fill="#0058B0"/>
<path d="M294.901 81.6382H256.001V83.7122H294.901V81.6382Z" fill="#2A66C4"/>
<path d="M294.895 85.4429H257.368V87.5169H294.895V85.4429Z" fill="#2A66C4"/>
<path d="M294.894 89.1646H278.305V91.2386H294.894V89.1646Z" fill="#2A66C4"/>
<path d="M95.5034 81.1577H72.0864V103.271H95.5034V81.1577Z" fill="#2A66C4"/>
<path d="M77.5431 89.973C77.3466 89.9691 77.1513 90.0027 76.9676 90.0721C76.7857 90.1405 76.6208 90.2471 76.4842 90.3847C76.3502 90.5215 76.2457 90.684 76.1771 90.8623C76.1085 91.0407 76.0773 91.231 76.0853 91.4217C76.0771 91.6136 76.1083 91.8052 76.1769 91.9848C76.2454 92.1643 76.35 92.3282 76.4842 92.4664C76.6234 92.6063 76.7907 92.7155 76.9753 92.7866C77.1572 92.862 77.3539 92.8959 77.5507 92.8858C77.7475 92.8951 77.944 92.8612 78.1262 92.7866C78.3048 92.7163 78.4668 92.6098 78.6019 92.474C78.7332 92.3369 78.8359 92.1754 78.9044 91.9988C78.9729 91.8221 79.0056 91.6338 79.0009 91.4446C79.0076 91.0562 78.8649 90.6798 78.6019 90.3923C78.465 90.2568 78.3036 90.1481 78.1262 90.0721C77.9425 90.0027 77.7472 89.9691 77.5507 89.973" fill="white"/>
<path d="M85.8446 94.7613H83.7883V98.2002H81.2563V86.3965H85.86C88.8267 86.3965 90.3101 87.7614 90.3101 90.4912C90.3494 91.0702 90.269 91.651 90.0737 92.1979C89.8784 92.7448 89.5724 93.2461 89.1746 93.6709C88.722 94.0661 88.1938 94.3665 87.6216 94.5538C87.0493 94.7412 86.4449 94.8118 85.8446 94.7613V94.7613ZM83.7883 92.7101H85.8293C87.0953 92.7101 87.7244 91.9476 87.7244 90.4912C87.7683 89.9435 87.6041 89.3994 87.2641 88.9662C87.0738 88.7878 86.8473 88.652 86.5998 88.5679C86.3523 88.4837 86.0896 88.4531 85.8293 88.4782H83.7883V92.7101Z" fill="white"/>
<path d="M211.691 81.6382H101.35V83.9562H211.691V81.6382Z" fill="#9AC7F7"/>
<path d="M184.192 85.23H101.35V87.548H184.192V85.23Z" fill="#9AC7F7"/>
<path d="M145.99 89.4155H101.35V91.7336H145.99V89.4155Z" fill="#9AC7F7"/>
<path d="M329.019 206.752L304.727 198.098L280.435 189.436L287.667 214.159L294.886 238.874L304.025 222.368L316.724 235.82L324.694 228.326L311.995 214.882L329.019 206.752Z" fill="#4B82E9"/>
<path d="M304.707 198.098L280.412 189.435L280.651 190.262L320.4 232.348L324.654 228.33L311.954 214.884L329.017 206.755L304.707 198.098Z" fill="#88B2F8"/>
</svg>
