<svg width="321" height="293" viewBox="0 0 321 293" fill="none" xmlns="http://www.w3.org/2000/svg">
<path d="M132.378 43.7923L132.379 33.1626L126.788 31.9653C126.468 30.4179 126.04 28.895 125.506 27.408L129.617 23.6908L124.312 14.4837L118.864 16.2472C117.815 15.0717 116.685 13.971 115.482 12.9533L117.192 7.65752L108.005 2.3422L104.169 6.59586C102.673 6.10401 101.146 5.71709 99.5965 5.43788L98.4334 0H87.8251L86.6273 5.60254C85.0831 5.92266 83.5635 6.35216 82.08 6.88783L78.3656 2.76711L69.1802 8.08196L70.9398 13.5417C69.7684 14.5936 68.6702 15.7245 67.6528 16.9265L62.3689 15.2158L57.0626 24.4229L61.3084 28.2657C60.8178 29.7642 60.4319 31.295 60.1534 32.8471L54.7265 34.0148L54.7246 44.6433L60.3158 45.843C60.6361 47.3892 61.0644 48.9111 61.5976 50.3972L57.4867 54.1217L62.7911 63.3248L68.2413 61.561C69.2902 62.7359 70.4191 63.8365 71.6199 64.8549L69.9121 70.1505L79.0998 75.4632L82.9334 71.21C84.4289 71.7019 85.9568 72.089 87.5059 72.3685L88.6714 77.8068H99.2787L100.477 72.2053C102.021 71.8848 103.541 71.4559 105.026 70.9216L108.738 75.0381L117.925 69.7274L116.165 64.2653C117.337 63.214 118.436 62.0831 119.453 60.8807L124.736 62.5901L130.04 53.385L125.796 49.5432C126.287 48.0439 126.674 46.5121 126.953 44.959L132.378 43.7923ZM111.374 38.905C111.374 42.4367 110.329 45.889 108.37 48.8255C106.412 51.762 103.629 54.0507 100.372 55.4021C97.1156 56.7536 93.5323 57.1072 90.0753 56.4181C86.6183 55.7291 83.4428 54.0284 80.9505 51.5311C78.4581 49.0338 76.7608 45.852 76.0732 42.3881C75.3855 38.9243 75.7384 35.3339 77.0873 32.071C78.4361 28.8082 80.7203 26.0193 83.651 24.0572C86.5817 22.095 90.0273 21.0477 93.5521 21.0476C95.8925 21.0476 98.21 21.5095 100.372 22.407C102.535 23.3044 104.499 24.6197 106.154 26.2779C107.809 27.9361 109.122 29.9047 110.017 32.0713C110.913 34.2378 111.374 36.5599 111.374 38.905H111.374Z" fill="#7EB3FF"/>
<path d="M118.085 39.1688C118.085 43.8776 116.692 48.4807 114.081 52.396C111.471 56.3112 107.76 59.3628 103.418 61.1647C99.076 62.9666 94.2984 63.438 89.6893 62.5191C85.0802 61.6002 80.8465 59.3324 77.5238 56.0025C74.2011 52.6726 71.9385 48.4301 71.0223 43.8117C70.1061 39.1933 70.5774 34.4064 72.3766 30.0564C74.1758 25.7063 77.222 21.9886 81.1301 19.3734C85.0381 16.7582 89.6324 15.363 94.3319 15.3643C97.4516 15.3642 100.541 15.9799 103.423 17.1763C106.305 18.3726 108.924 20.1261 111.13 22.3366C113.335 24.5471 115.085 27.1714 116.278 30.0595C117.472 32.9476 118.086 36.0429 118.085 39.1688Z" fill="#FFCC00"/>
<path d="M117.361 39.1713C117.362 43.7367 116.012 48.1999 113.481 51.9962C110.95 55.7926 107.352 58.7517 103.143 60.4992C98.9334 62.2467 94.3013 62.7041 89.8324 61.8136C85.3635 60.9231 81.2586 58.7247 78.0368 55.4964C74.8149 52.2681 72.621 48.1549 71.7324 43.6772C70.8438 39.1994 71.3004 34.5582 73.0446 30.3405C74.7888 26.1228 77.7421 22.5181 81.5311 19.9823C85.32 17.4466 89.7744 16.0937 94.3308 16.0947C100.439 16.0957 106.296 18.5272 110.615 22.8548C114.934 27.1823 117.36 33.0513 117.361 39.1713Z" fill="#D98F00"/>
<path d="M112.47 39.1667C112.47 42.7616 111.407 46.276 109.414 49.2653C107.421 52.2546 104.588 54.5845 101.273 55.9605C97.9584 57.3364 94.311 57.6966 90.792 56.9954C87.2731 56.2942 84.0407 54.5631 81.5036 52.0211C78.9666 49.4791 77.2389 46.2404 76.5389 42.7145C75.839 39.1886 76.1984 35.5339 77.5715 32.2126C78.9447 28.8914 81.2699 26.0527 84.2533 24.0557C87.2366 22.0586 90.744 20.9928 94.3319 20.9932C99.142 20.9943 103.755 22.9094 107.156 26.3173C110.557 29.7252 112.469 34.3471 112.47 39.1667Z" fill="#FFCC00"/>
<path d="M85.2754 36.4171H87.2787C87.4026 35.3307 87.6968 34.2706 88.1505 33.276C88.5718 32.34 89.1513 31.484 89.8633 30.7455C90.5665 30.0228 91.411 29.4531 92.3438 29.072C93.3634 28.6627 94.4538 28.46 95.552 28.4755C97.4758 28.379 99.3661 29.0072 100.851 30.2366C102.251 31.5653 103.087 33.3823 103.187 35.3117H99.5587C99.4815 34.2404 99.0288 33.2309 98.2806 32.4617C97.537 31.784 96.5562 31.4283 95.552 31.4723C94.9683 31.4393 94.3849 31.543 93.8482 31.7751C93.3114 32.0073 92.836 32.3615 92.4595 32.8097C91.6715 33.8587 91.1942 35.1089 91.0822 36.4171H97.0616L96.7143 38.2493H90.9948V40.2282H96.3363L96.0173 42.0603H91.0823C91.1801 43.3426 91.6655 44.5647 92.4738 45.5637C92.8697 45.9851 93.3531 46.3144 93.8899 46.5283C94.4267 46.7422 95.0037 46.8355 95.5804 46.8016C97.9995 46.8016 99.4028 45.3956 99.7903 42.5835H103.391C103.251 44.6056 102.391 46.5102 100.967 47.9497C99.4718 49.2752 97.5172 49.9595 95.5237 49.8552C94.422 49.8734 93.3273 49.6756 92.3014 49.2729C91.3801 48.9035 90.541 48.3548 89.8326 47.6585C89.1224 46.9495 88.5469 46.1169 88.134 45.2015C87.6864 44.2058 87.3978 43.1458 87.2788 42.0603H85.2755V40.2282H87.1914V38.2493H85.2755L85.2754 36.4171Z" fill="#D98F00"/>
<path d="M212.096 50.4062H13.2213C5.9205 50.4062 0 56.7639 0 64.6095V176.206C0 184.052 5.9205 190.41 13.2213 190.41H212.096C219.397 190.41 225.317 184.052 225.317 176.206V64.6095C225.317 56.7639 219.397 50.4062 212.096 50.4062Z" fill="#EAF4FE"/>
<path d="M138.182 154.272H14.8457V190.41H138.182V154.272Z" fill="white"/>
<path d="M26.8281 176.809H22.1729V190.41H26.8281V176.809Z" fill="#9BC7F4"/>
<path d="M33.8115 172.02H29.1562V190.409H33.8115V172.02Z" fill="#FFBF0D"/>
<path d="M40.7871 175.246H36.1387V190.41H40.7871V175.246Z" fill="#80B4FB"/>
<path d="M47.7704 165.25H43.1152V190.41H47.7704V165.25Z" fill="#0058B0"/>
<path d="M124.907 170.512H57.1963V172.669H124.907V170.512Z" fill="#9BC7F4"/>
<path d="M122.525 174.712H57.1963V176.518H122.525V174.712Z" fill="#9BC7F4"/>
<path d="M98.518 178.688H57.1963V181.279H98.518V178.688Z" fill="#9BC7F4"/>
<path d="M86.5419 165.655H56.9326V167.914H86.5419V165.655Z" fill="#9BC7F4"/>
<path d="M0.223633 63.6085C0.225426 60.1076 1.61753 56.7506 4.09409 54.2751C6.57064 51.7996 9.92905 50.408 13.4314 50.4062H212.11C215.612 50.408 218.971 51.7996 221.447 54.2751C223.924 56.7506 225.316 60.1076 225.318 63.6085H0.223633Z" fill="#9AC7F7"/>
<path d="M208.524 59.9353C209.103 59.9353 209.669 59.7635 210.151 59.4417C210.633 59.1199 211.009 58.6625 211.23 58.1274C211.452 57.5923 211.51 57.0035 211.397 56.4354C211.284 55.8673 211.005 55.3455 210.595 54.9359C210.185 54.5263 209.663 54.2474 209.095 54.1344C208.527 54.0214 207.938 54.0794 207.402 54.3011C206.867 54.5227 206.409 54.8981 206.088 55.3797C205.766 55.8613 205.594 56.4275 205.594 57.0067C205.594 57.7834 205.902 58.5283 206.452 59.0775C207.001 59.6267 207.747 59.9353 208.524 59.9353Z" fill="white"/>
<path d="M198.334 59.9353C198.914 59.9353 199.48 59.7635 199.962 59.4417C200.444 59.1199 200.819 58.6625 201.041 58.1274C201.263 57.5923 201.321 57.0035 201.208 56.4354C201.095 55.8673 200.816 55.3455 200.406 54.9359C199.996 54.5263 199.474 54.2474 198.906 54.1344C198.337 54.0214 197.748 54.0794 197.213 54.3011C196.678 54.5227 196.22 54.8981 195.898 55.3797C195.576 55.8613 195.404 56.4275 195.404 57.0067C195.404 57.7834 195.713 58.5283 196.262 59.0775C196.812 59.6267 197.557 59.9353 198.334 59.9353Z" fill="#0450CF"/>
<path d="M188.151 59.9353C188.73 59.9353 189.296 59.7635 189.778 59.4417C190.26 59.1199 190.636 58.6625 190.857 58.1274C191.079 57.5923 191.137 57.0035 191.024 56.4354C190.911 55.8673 190.632 55.3455 190.222 54.9359C189.812 54.5263 189.29 54.2474 188.722 54.1344C188.154 54.0214 187.565 54.0794 187.029 54.3011C186.494 54.5227 186.036 54.8981 185.714 55.3797C185.393 55.8613 185.221 56.4275 185.221 57.0067C185.221 57.7834 185.529 58.5283 186.079 59.0775C186.628 59.6267 187.373 59.9353 188.151 59.9353Z" fill="#003E99"/>
<path d="M134.134 104.317H18.891C16.6563 104.317 14.8447 106.128 14.8447 108.362V143.762C14.8447 145.996 16.6563 147.806 18.891 147.806H134.134C136.369 147.806 138.181 145.996 138.181 143.762V108.362C138.181 106.128 136.369 104.317 134.134 104.317Z" fill="white"/>
<path d="M210.629 104.075H149.992C147.746 104.075 145.926 105.851 145.926 108.041V172.227C145.926 174.417 147.746 176.193 149.992 176.193H210.629C212.875 176.193 214.695 174.417 214.695 172.227V108.041C214.695 105.851 212.875 104.075 210.629 104.075Z" fill="white"/>
<path d="M112.27 115.935H57.335V117.774H112.27V115.935Z" fill="#9BC7F4"/>
<path d="M110.335 119.31H57.335V121.149H110.335V119.31Z" fill="#9BC7F4"/>
<path d="M112.27 133.492H57.335V135.339H112.27V133.492Z" fill="#9BC7F4"/>
<path d="M112.27 122.609H57.335V124.449H112.27V122.609Z" fill="#9BC7F4"/>
<path d="M211.561 71.373H177.256V73.2127H211.561V71.373Z" fill="#2A66C4"/>
<path d="M211.555 74.748H178.461V76.5877H211.555V74.748Z" fill="#2A66C4"/>
<path d="M211.555 78.0488H196.926V79.8885H211.555V78.0488Z" fill="#2A66C4"/>
<path d="M110.335 125.979H57.335V127.818H110.335V125.979Z" fill="#9BC7F4"/>
<path d="M112.27 129.346H57.335V131.192H112.27V129.346Z" fill="#9BC7F4"/>
<path d="M35.7191 70.9463H15.0684V90.5603H35.7191V70.9463Z" fill="#2A66C4"/>
<path d="M19.8795 78.7659C19.7063 78.7625 19.534 78.7923 19.372 78.8538C19.2116 78.9145 19.0662 79.0091 18.9457 79.1311C18.8276 79.2524 18.7354 79.3966 18.6749 79.5548C18.6144 79.7129 18.5868 79.8818 18.5939 80.0509C18.5867 80.2212 18.6142 80.3911 18.6747 80.5503C18.7352 80.7096 18.8274 80.855 18.9457 80.9775C19.0684 81.1017 19.216 81.1985 19.3788 81.2616C19.5392 81.3284 19.7126 81.3585 19.8863 81.3495C20.0598 81.3578 20.2331 81.3278 20.3937 81.2616C20.5512 81.1992 20.6941 81.1047 20.8132 80.9843C20.929 80.8627 21.0196 80.7194 21.08 80.5627C21.1404 80.4061 21.1693 80.2391 21.1651 80.0712C21.171 79.7267 21.0452 79.3928 20.8132 79.1379C20.6925 79.0176 20.5502 78.9213 20.3937 78.8538C20.2318 78.7923 20.0595 78.7625 19.8863 78.7659" fill="white"/>
<path d="M27.2005 83.0132H25.3872V86.0636H23.1543V75.5938H27.2141C29.8304 75.5938 31.1385 76.8044 31.1385 79.2257C31.1732 79.7393 31.1022 80.2545 30.93 80.7396C30.7578 81.2246 30.4879 81.6693 30.1371 82.0461C29.738 82.3967 29.2722 82.663 28.7676 82.8292C28.263 82.9954 27.7299 83.058 27.2005 83.0132ZM25.3872 81.1939H27.187C28.3034 81.1939 28.8583 80.5175 28.8583 79.2257C28.897 78.7399 28.7521 78.2573 28.4523 77.873C28.2845 77.7149 28.0847 77.5944 27.8665 77.5197C27.6483 77.4451 27.4166 77.4179 27.187 77.4402H25.3872V81.1939Z" fill="white"/>
<path d="M138.181 71.373H40.875V73.4291H138.181V71.373Z" fill="#9AC7F7"/>
<path d="M113.931 74.5586H40.875V76.6147H113.931V74.5586Z" fill="#9AC7F7"/>
<path d="M80.2413 78.2715H40.875V80.3276H80.2413V78.2715Z" fill="#9AC7F7"/>
<path d="M41.6995 127.023C41.3991 127.921 40.8997 128.746 40.2354 129.443L45.2236 136.097C47.8176 134.003 49.6026 131.141 50.2942 127.967L41.6995 127.023Z" fill="#D98F00"/>
<path d="M36.2247 118.224C37.6653 118.518 38.9711 119.248 39.9521 120.309C40.9331 121.369 41.538 122.704 41.6788 124.12L50.2943 125.008C50.2943 124.909 50.2943 124.816 50.2943 124.724C50.2872 121 48.8386 117.413 46.2331 114.668C43.6275 111.922 40.0531 110.217 36.2119 109.886L36.2247 118.224Z" fill="#0058B0"/>
<path d="M30.527 119.967C31.4966 118.948 32.7828 118.246 34.2004 117.964V109.886C32.0091 110.073 29.8863 110.706 27.9767 111.741C26.0672 112.776 24.416 114.189 23.1357 115.883L30.527 119.967Z" fill="#80B4FB"/>
<path d="M38.2718 131.348C37.2281 131.795 36.0857 131.984 34.9477 131.897C33.8098 131.809 32.7122 131.449 31.7543 130.848C30.7964 130.247 30.0082 129.424 29.4612 128.454C28.9141 127.484 28.6254 126.397 28.621 125.291C28.6303 124.568 28.7631 123.85 29.0139 123.168L21.6063 118.959C20.6295 120.936 20.1207 123.1 20.1172 125.291C20.1225 127.909 20.8412 130.478 22.2007 132.74C23.5602 135.002 25.5123 136.877 27.8596 138.174C30.207 139.472 32.8665 140.146 35.5693 140.129C38.2721 140.113 40.9224 139.405 43.2525 138.079L38.2718 131.348Z" fill="#FFBF0D"/>
<path d="M66.6084 228.984L68.4783 206.239L70.3545 183.492L50.8766 195.367L31.4022 207.228L47.5833 211.232L38.9782 225.178L47.193 230.26L55.7917 216.315L66.6084 228.984Z" fill="#4B82E9"/>
<path d="M68.4743 206.225L70.3506 183.478L69.6982 183.873L42.7837 227.521L47.1836 230.229L55.7828 216.283L66.6074 228.984L68.4743 206.225Z" fill="#88B2F8"/>
<path d="M180.493 277.325V274.375C182.775 274.372 184.963 273.463 186.576 271.846C188.19 270.229 189.097 268.036 189.1 265.75V260.638H192.043V265.75C192.04 268.818 190.822 271.76 188.657 273.93C186.492 276.1 183.556 277.321 180.493 277.325Z" fill="#0058B0"/>
<path d="M202.543 277.97H199.599V257.065C199.599 256.061 199.201 255.098 198.493 254.388C197.784 253.678 196.823 253.279 195.821 253.279C194.819 253.279 193.857 253.678 193.149 254.388C192.44 255.098 192.042 256.061 192.042 257.065V263.224H189.099V257.065C189.099 255.279 189.807 253.566 191.067 252.303C192.328 251.04 194.038 250.33 195.821 250.33C197.604 250.33 199.313 251.04 200.574 252.303C201.835 253.566 202.543 255.279 202.543 257.065V277.97Z" fill="#0058B0"/>
<path d="M221.435 271.304H218.491V245.116C218.491 243.761 217.953 242.46 216.997 241.501C216.04 240.543 214.742 240.004 213.389 240.004C212.035 240.004 210.738 240.543 209.781 241.501C208.824 242.46 208.286 243.761 208.286 245.116V271.304H205.343V245.116C205.343 242.978 206.19 240.928 207.699 239.416C209.208 237.904 211.255 237.055 213.389 237.055C215.523 237.055 217.569 237.904 219.078 239.416C220.587 240.928 221.435 242.978 221.435 245.116V271.304Z" fill="#0058B0"/>
<path d="M203.979 285.148C202.82 285.146 201.71 284.684 200.891 283.863C200.073 283.041 199.613 281.928 199.612 280.767V269.229H202.556V280.767C202.555 280.955 202.592 281.141 202.663 281.315C202.734 281.488 202.839 281.646 202.971 281.779C203.104 281.912 203.261 282.018 203.434 282.09C203.607 282.162 203.793 282.199 203.98 282.199C204.168 282.199 204.353 282.162 204.526 282.09C204.699 282.018 204.857 281.912 204.989 281.779C205.121 281.646 205.226 281.488 205.297 281.315C205.369 281.141 205.405 280.955 205.404 280.767V269.229H208.348V280.767C208.347 281.928 207.887 283.042 207.068 283.863C206.249 284.685 205.138 285.147 203.979 285.148Z" fill="#0058B0"/>
<path d="M180.708 277.325C177.646 277.321 174.71 276.101 172.545 273.931C170.379 271.761 169.161 268.819 169.158 265.75V255.16H172.102V265.75C172.104 268.037 173.012 270.229 174.625 271.846C176.238 273.463 178.426 274.373 180.708 274.376V277.325Z" fill="#0058B0"/>
<path d="M172.106 256.188H169.163V245.597C169.161 243.31 168.253 241.118 166.64 239.501C165.027 237.884 162.839 236.975 160.557 236.972H157.637V234.022H160.557C163.619 234.026 166.555 235.247 168.72 237.417C170.885 239.587 172.103 242.528 172.106 245.597V256.188Z" fill="#0058B0"/>
<path d="M136.54 237.017H130.743C127.68 237.014 124.743 235.794 122.577 233.625C120.411 231.455 119.193 228.513 119.189 225.444V190.535H122.133V225.444C122.136 227.731 123.044 229.923 124.658 231.54C126.272 233.156 128.46 234.066 130.743 234.068H136.54V237.017Z" fill="#0058B0"/>
<path d="M229.903 292.999V290.05C232.186 290.047 234.374 289.137 235.988 287.519C237.602 285.902 238.51 283.709 238.513 281.421V209.263H241.456V281.421C241.453 284.491 240.234 287.433 238.069 289.604C235.903 291.774 232.966 292.995 229.903 292.999Z" fill="#0058B0"/>
<path d="M230.121 293C227.058 292.996 224.122 291.775 221.956 289.604C219.791 287.434 218.573 284.491 218.57 281.422V256.087H221.514V281.422C221.516 283.709 222.423 285.902 224.037 287.52C225.65 289.137 227.839 290.048 230.121 290.051V293Z" fill="#0058B0"/>
<path d="M242.995 235.175C286.076 235.175 321 200.727 321 158.233C321 115.739 286.076 81.291 242.995 81.291C199.915 81.291 164.991 115.739 164.991 158.233C164.991 200.727 199.915 235.175 242.995 235.175Z" fill="#9AC7F7"/>
<path fill-rule="evenodd" clip-rule="evenodd" d="M254.909 234.284C251.025 234.871 247.046 235.175 242.996 235.175C236.935 235.175 231.036 234.493 225.373 233.203L232.172 174.766L240.076 138.088L247.979 174.766L254.909 234.284Z" fill="#D98F00"/>
<path fill-rule="evenodd" clip-rule="evenodd" d="M250.455 234.828C248 235.058 245.512 235.175 242.996 235.175C238.483 235.175 234.06 234.797 229.757 234.072L234.568 174.766L240.075 138.088L245.583 174.766L250.455 234.828Z" fill="#FFCC00"/>
<path fill-rule="evenodd" clip-rule="evenodd" d="M243.155 235.175C243.102 235.175 243.048 235.175 242.995 235.175C240.977 235.175 238.976 235.1 236.996 234.951L238.443 174.766L240.074 138.088L241.705 174.766L243.155 235.175Z" fill="#D98F00"/>
<path fill-rule="evenodd" clip-rule="evenodd" d="M287.629 221.342C287.356 220.784 287.053 220.238 286.722 219.707C285.108 217.124 282.865 214.994 280.204 213.518C277.542 212.041 274.55 211.267 271.509 211.267C268.467 211.267 265.475 212.041 262.814 213.518C260.152 214.994 257.91 217.124 256.295 219.707C254.681 222.291 253.749 225.243 253.585 228.286C253.475 230.348 253.72 232.407 254.303 234.373C266.568 232.616 277.909 228.044 287.629 221.342Z" fill="#FFCC00"/>
<path fill-rule="evenodd" clip-rule="evenodd" d="M276.416 227.774C266.286 232.519 254.955 235.174 242.995 235.174C231.324 235.174 220.251 232.646 210.31 228.114C212.812 226.336 215.694 225.121 218.76 224.583C219.473 220.221 221.644 216.23 224.918 213.267C228.192 210.304 232.374 208.543 236.778 208.275C241.181 208.007 245.545 209.247 249.153 211.791C252.761 214.335 255.399 218.032 256.634 222.276C259.14 221.053 261.929 220.53 264.707 220.761C267.485 220.993 270.149 221.971 272.419 223.593C274.007 224.728 275.361 226.148 276.416 227.774Z" fill="#D98F00"/>
<path fill-rule="evenodd" clip-rule="evenodd" d="M223.146 232.661L218.179 220.337C217.046 220.337 216.054 219.559 215.124 218.829C214.015 217.959 212.993 217.158 211.925 217.826C211.885 213.264 210.249 208.86 207.302 205.382C204.355 201.904 200.284 199.572 195.797 198.793C191.311 198.013 186.694 198.835 182.75 201.115C181.674 201.738 180.666 202.458 179.738 203.263C190.174 217.502 205.43 228.077 223.146 232.661Z" fill="#FFCC00"/>
<path fill-rule="evenodd" clip-rule="evenodd" d="M288.004 221.082C288.217 219.954 288.107 218.786 287.685 217.716C287.392 216.972 286.956 216.294 286.401 215.719C285.846 215.145 285.184 214.686 284.452 214.368C283.72 214.05 282.933 213.879 282.135 213.866C281.338 213.853 280.545 213.998 279.803 214.291C278.686 214.734 277.725 215.498 277.041 216.488C276.358 217.478 275.982 218.648 275.963 219.852C275.943 221.055 276.28 222.237 276.931 223.249C277.582 224.261 278.517 225.056 279.619 225.535C279.857 225.638 280.1 225.725 280.346 225.797C282.996 224.369 285.552 222.794 288.004 221.082Z" fill="#D98F00"/>
<path fill-rule="evenodd" clip-rule="evenodd" d="M302.47 208.022C301.944 207.509 301.37 207.044 300.755 206.634C299.137 205.554 297.282 204.882 295.348 204.676C293.415 204.47 291.46 204.736 289.652 205.452C287.843 206.167 286.234 207.31 284.962 208.784C283.691 210.258 282.794 212.018 282.348 213.915C281.903 215.811 281.923 217.788 282.405 219.675C282.764 221.078 283.371 222.401 284.193 223.582C291.076 219.351 297.242 214.092 302.47 208.022Z" fill="#D98F00"/>
<path fill-rule="evenodd" clip-rule="evenodd" d="M229.033 233.945C229.65 232.423 229.972 230.789 229.971 229.13C229.97 225.741 228.626 222.492 226.234 220.096C223.842 217.7 220.598 216.354 217.216 216.354C214.693 216.355 212.227 217.104 210.13 218.509C208.032 219.913 206.397 221.91 205.432 224.245C205.269 224.64 205.126 225.041 205.004 225.448C212.361 229.503 220.453 232.416 229.033 233.945Z" fill="#FFCC00"/>
<path fill-rule="evenodd" clip-rule="evenodd" d="M206.071 226.027C206.924 224.283 207.372 222.359 207.371 220.402C207.37 217.013 206.025 213.764 203.633 211.368C201.241 208.973 197.998 207.627 194.616 207.627C192.093 207.627 189.627 208.377 187.529 209.781C187.029 210.116 186.556 210.484 186.111 210.883C191.868 216.932 198.604 222.062 206.071 226.027Z" fill="#D98F00"/>
<path d="M241.083 155.117C234.594 155.117 229.334 163.872 229.334 174.668C229.334 176.004 229.416 177.338 229.581 178.663H252.586C252.752 177.338 252.834 176.004 252.833 174.668C252.833 163.872 247.573 155.117 241.083 155.117Z" fill="#0058B0"/>
<path d="M238.027 155.117C233.226 155.117 229.334 163.872 229.334 174.668C229.334 176.037 229.397 177.376 229.515 178.663H246.533C246.651 177.376 246.714 176.037 246.714 174.668C246.714 163.872 242.824 155.117 238.027 155.117Z" fill="#0073E6"/>
<path d="M229.993 108.268C229.993 129.1 219.339 147.226 203.624 156.619C203.153 157.058 202.687 157.487 202.236 157.902C199.332 160.558 200.278 173.108 200.278 173.108H230.142V100.509C230.123 101.902 230.033 103.293 229.872 104.676C229.942 105.866 229.993 107.06 229.993 108.268Z" fill="#0073E6"/>
<path d="M230.142 132.577C225.339 144.734 216.418 154.808 204.943 161.033C204.425 161.473 203.917 161.904 203.423 162.318C201.482 163.936 201.108 169.221 201.111 173.108H230.142V132.577Z" fill="#EAF4FE"/>
<path d="M203.734 171.637C203.239 172.032 202.841 172.536 202.569 173.109H230.142V149.08C224.016 158.304 215.478 165.664 205.461 170.355C204.875 170.794 204.297 171.224 203.734 171.637Z" fill="#C5E1F9"/>
<path d="M252.179 108.267C252.179 129.099 262.829 147.225 278.547 156.618C279.016 157.057 279.481 157.486 279.933 157.901C282.836 160.557 281.89 173.107 281.89 173.107H252.026V100.508C252.046 101.901 252.136 103.291 252.297 104.675C252.228 105.865 252.179 107.059 252.179 108.267Z" fill="#0073E6"/>
<path d="M252.026 132.575C256.829 144.732 265.75 154.806 277.225 161.031C277.742 161.471 278.254 161.902 278.746 162.317C280.689 163.934 281.06 169.219 281.057 173.106H252.026V132.575Z" fill="#EAF4FE"/>
<path d="M278.438 171.636C278.931 172.033 279.329 172.536 279.602 173.108H252.026V149.079C258.154 158.302 266.691 165.661 276.708 170.354C277.294 170.793 277.873 171.223 278.438 171.636Z" fill="#C5E1F9"/>
<path d="M252.787 173.11V98.058C252.787 91.1882 247.691 68.8997 241.082 65.2285C234.477 68.8997 229.38 91.1882 229.38 98.058V173.11H252.787Z" fill="#C5E1F9"/>
<path d="M241.082 65.2275C241.016 65.264 240.952 65.3145 240.883 65.3576V173.109H252.787V98.057C252.787 91.1872 247.691 68.8987 241.082 65.2275Z" fill="#EAF4FE"/>
<path d="M232.72 80.5539H249.447C247.346 73.6206 244.406 67.0709 241.083 65.2275C237.763 67.0709 234.825 73.6206 232.72 80.5539Z" fill="#0073E6"/>
<path d="M240.883 80.5539H249.446C247.346 73.6206 244.405 67.0709 241.082 65.2275C241.016 65.264 240.952 65.3145 240.883 65.3576V80.5539Z" fill="#0058B0"/>
<path d="M248.286 92.9863C247.805 94.0835 246.213 93.669 244.345 92.9708C242.205 92.1324 239.829 92.1324 237.69 92.9708C235.825 93.6663 234.232 94.0835 233.752 92.9863C233.257 91.918 234.421 89.3272 236.851 88.3837C239.531 87.3357 242.506 87.3357 245.187 88.3837C247.616 89.3198 248.777 91.9119 248.286 92.9863Z" fill="#0073E6"/>
<path d="M217.217 155.116C214.378 155.116 212.078 163.871 212.078 174.667C212.078 176.037 212.115 177.375 212.184 178.662H222.251C222.323 177.375 222.358 176.037 222.358 174.667C222.358 163.871 220.058 155.116 217.217 155.116Z" fill="#0073E6"/>
<path d="M217.217 155.116C216.475 155.116 215.775 155.724 215.137 156.795C217.471 158.073 219.267 165.688 219.267 174.918C219.267 176.202 219.234 177.451 219.167 178.662H222.251C222.323 177.375 222.358 176.037 222.358 174.667C222.358 163.871 220.058 155.116 217.217 155.116Z" fill="#0058B0"/>
<path d="M264.95 155.116C262.113 155.116 259.811 163.871 259.811 174.667C259.811 176.037 259.847 177.375 259.917 178.662H269.984C270.055 177.375 270.09 176.037 270.09 174.667C270.09 163.871 267.79 155.116 264.95 155.116Z" fill="#0073E6"/>
<path d="M264.95 155.116C264.211 155.116 263.506 155.724 262.871 156.795C265.205 158.073 266.999 165.688 266.999 174.918C266.999 176.202 266.965 177.451 266.898 178.662H269.983C270.055 177.375 270.089 176.037 270.089 174.667C270.089 163.871 267.79 155.116 264.95 155.116Z" fill="#0058B0"/>
<path d="M167.589 205.916H169.656C169.785 205.916 169.909 205.967 170 206.059C170.091 206.15 170.142 206.274 170.142 206.403V207.984C170.142 208.048 170.13 208.112 170.105 208.171C170.081 208.23 170.045 208.283 170 208.329C169.955 208.374 169.901 208.41 169.842 208.434C169.783 208.458 169.72 208.471 169.657 208.471H167.592C167.464 208.471 167.34 208.42 167.249 208.328C167.158 208.237 167.106 208.113 167.106 207.984V206.4C167.106 206.272 167.157 206.149 167.248 206.058C167.338 205.967 167.461 205.916 167.589 205.916Z" fill="#0058B0"/>
<path d="M165.6 209.076C165.655 209.109 165.703 209.152 165.741 209.203C165.78 209.254 165.808 209.312 165.824 209.374C165.84 209.436 165.844 209.5 165.835 209.564C165.826 209.627 165.805 209.688 165.772 209.743L164.75 211.53C164.684 211.642 164.577 211.722 164.452 211.756C164.327 211.789 164.195 211.771 164.083 211.708L162.714 210.917C162.659 210.885 162.611 210.843 162.573 210.792C162.534 210.741 162.506 210.684 162.49 210.622C162.473 210.561 162.469 210.496 162.478 210.433C162.486 210.37 162.507 210.31 162.539 210.255L163.568 208.464C163.632 208.353 163.738 208.272 163.862 208.238C163.986 208.205 164.118 208.222 164.229 208.286L165.6 209.076Z" fill="#0058B0"/>
<path d="M164.269 213.564C164.324 213.532 164.385 213.511 164.449 213.502C164.512 213.494 164.576 213.498 164.638 213.515C164.7 213.531 164.758 213.56 164.808 213.599C164.859 213.638 164.901 213.687 164.933 213.742L165.964 215.534C165.996 215.589 166.017 215.65 166.026 215.713C166.034 215.776 166.03 215.84 166.014 215.901C165.998 215.963 165.97 216.021 165.931 216.071C165.893 216.122 165.845 216.164 165.79 216.196L164.418 216.986C164.363 217.018 164.302 217.038 164.239 217.047C164.176 217.055 164.112 217.051 164.05 217.034C163.989 217.018 163.931 216.989 163.881 216.95C163.83 216.911 163.788 216.862 163.756 216.807L162.725 215.02C162.661 214.907 162.644 214.774 162.678 214.649C162.712 214.524 162.794 214.417 162.907 214.353L164.269 213.564Z" fill="#0058B0"/>
<path d="M167.483 216.96C167.483 216.896 167.496 216.832 167.521 216.773C167.545 216.714 167.581 216.66 167.626 216.615C167.672 216.569 167.726 216.533 167.785 216.509C167.844 216.485 167.908 216.472 167.972 216.473H170.033C170.097 216.472 170.16 216.485 170.219 216.509C170.278 216.533 170.331 216.568 170.376 216.613C170.421 216.658 170.457 216.712 170.482 216.771C170.506 216.83 170.519 216.893 170.519 216.957V218.541C170.519 218.605 170.506 218.668 170.482 218.727C170.457 218.786 170.422 218.84 170.376 218.885C170.331 218.93 170.278 218.966 170.219 218.99C170.16 219.014 170.097 219.027 170.033 219.026H167.969C167.84 219.026 167.717 218.975 167.626 218.884C167.535 218.793 167.484 218.67 167.483 218.541V216.96Z" fill="#0058B0"/>
<path d="M172.027 215.866C171.972 215.834 171.923 215.792 171.885 215.741C171.846 215.691 171.817 215.633 171.801 215.571C171.784 215.51 171.78 215.446 171.788 215.382C171.797 215.319 171.817 215.258 171.849 215.203L172.881 213.416C172.944 213.304 173.05 213.221 173.174 213.186C173.297 213.151 173.43 213.167 173.543 213.23L174.911 214.026C175.021 214.091 175.102 214.197 175.135 214.321C175.168 214.445 175.151 214.577 175.088 214.689L174.054 216.476C174.023 216.532 173.982 216.581 173.932 216.62C173.882 216.659 173.824 216.688 173.763 216.705C173.702 216.722 173.638 216.726 173.575 216.718C173.512 216.709 173.451 216.688 173.396 216.656L172.027 215.866Z" fill="#0058B0"/>
<path d="M173.354 211.376C173.299 211.408 173.238 211.43 173.175 211.438C173.112 211.447 173.048 211.443 172.987 211.427C172.925 211.411 172.867 211.382 172.817 211.343C172.767 211.304 172.724 211.256 172.693 211.201L171.66 209.41C171.596 209.299 171.578 209.166 171.611 209.042C171.644 208.918 171.725 208.811 171.836 208.747L173.204 207.955C173.316 207.891 173.448 207.874 173.571 207.907C173.695 207.941 173.801 208.022 173.865 208.133L174.9 209.925C174.964 210.037 174.98 210.17 174.947 210.295C174.913 210.419 174.831 210.525 174.719 210.59L173.354 211.376Z" fill="#0058B0"/>
<path d="M168.813 207.739C167.879 207.739 166.966 208.016 166.189 208.536C165.413 209.055 164.807 209.794 164.45 210.658C164.092 211.523 163.998 212.474 164.18 213.392C164.362 214.309 164.811 215.152 165.471 215.814C166.131 216.476 166.972 216.927 167.888 217.11C168.804 217.293 169.753 217.2 170.616 216.842C171.479 216.485 172.217 215.879 172.736 215.101C173.255 214.323 173.533 213.409 173.533 212.473C173.533 211.852 173.412 211.236 173.174 210.662C172.937 210.088 172.59 209.566 172.151 209.127C171.713 208.687 171.193 208.338 170.62 208.1C170.047 207.862 169.433 207.74 168.813 207.739ZM168.813 214.731C168.366 214.731 167.93 214.599 167.559 214.351C167.188 214.102 166.898 213.749 166.727 213.336C166.556 212.923 166.512 212.469 166.599 212.03C166.686 211.591 166.901 211.189 167.216 210.872C167.532 210.556 167.934 210.341 168.372 210.254C168.81 210.167 169.263 210.212 169.676 210.383C170.088 210.555 170.44 210.845 170.688 211.217C170.935 211.589 171.067 212.026 171.067 212.473C171.067 213.072 170.829 213.646 170.406 214.07C169.983 214.493 169.41 214.731 168.813 214.731Z" fill="#0058B0"/>
<path d="M146.723 246.136C144.59 246.159 142.499 245.546 140.715 244.375C138.93 243.205 137.534 241.529 136.702 239.562C135.87 237.594 135.64 235.423 136.043 233.324C136.445 231.226 137.46 229.294 138.96 227.775C140.46 226.256 142.377 225.218 144.467 224.793C146.557 224.368 148.726 224.574 150.699 225.387C152.671 226.199 154.358 227.581 155.546 229.356C156.733 231.131 157.367 233.22 157.367 235.357C157.379 238.2 156.265 240.931 154.27 242.952C152.274 244.973 149.56 246.118 146.723 246.136ZM146.723 226.509C144.971 226.486 143.252 226.985 141.785 227.943C140.317 228.902 139.167 230.275 138.481 231.89C137.795 233.505 137.603 235.288 137.931 237.012C138.258 238.736 139.09 240.324 140.321 241.573C141.551 242.822 143.125 243.677 144.841 244.028C146.557 244.378 148.339 244.21 149.96 243.543C151.58 242.877 152.966 241.743 153.942 240.285C154.917 238.827 155.438 237.112 155.438 235.357C155.451 233.026 154.54 230.786 152.906 229.127C151.272 227.468 149.048 226.527 146.723 226.509Z" fill="#0058B0"/>
<path d="M146.723 245.865C143.874 245.865 141.727 241.347 141.727 235.356C141.727 229.366 143.874 224.85 146.723 224.85C149.574 224.85 151.721 229.366 151.721 235.356C151.721 241.347 149.574 245.865 146.723 245.865ZM146.723 226.782C145.472 226.782 143.655 230.123 143.655 235.356C143.655 240.593 145.472 243.931 146.723 243.931C147.976 243.931 149.793 240.593 149.793 235.356C149.793 230.123 147.976 226.782 146.723 226.782Z" fill="#0058B0"/>
<path d="M156.404 236.324H137.044C136.788 236.324 136.543 236.222 136.362 236.041C136.181 235.86 136.079 235.614 136.079 235.357C136.079 235.101 136.181 234.855 136.362 234.674C136.543 234.492 136.788 234.391 137.044 234.391H156.404C156.66 234.391 156.906 234.492 157.086 234.674C157.267 234.855 157.369 235.101 157.369 235.357C157.369 235.614 157.267 235.86 157.086 236.041C156.906 236.222 156.66 236.324 156.404 236.324Z" fill="#0058B0"/>
<path d="M146.722 232.065C143.912 232.066 141.115 231.69 138.405 230.948C138.159 230.88 137.949 230.717 137.823 230.494C137.696 230.272 137.663 230.008 137.73 229.761C137.798 229.514 137.96 229.304 138.182 229.177C138.404 229.05 138.667 229.016 138.914 229.083C144.025 230.484 149.418 230.484 154.529 229.083C154.776 229.015 155.039 229.049 155.262 229.176C155.484 229.303 155.647 229.513 155.714 229.761C155.781 230.008 155.748 230.272 155.621 230.495C155.494 230.717 155.284 230.88 155.038 230.948C152.328 231.69 149.531 232.066 146.722 232.065Z" fill="#0058B0"/>
<path d="M138.658 241.664C138.424 241.664 138.199 241.579 138.024 241.425C137.848 241.271 137.735 241.058 137.704 240.827C137.673 240.595 137.727 240.36 137.856 240.165C137.985 239.971 138.18 239.829 138.405 239.768C143.849 238.273 149.595 238.273 155.04 239.768C155.287 239.836 155.496 239.999 155.623 240.222C155.749 240.445 155.782 240.709 155.714 240.956C155.646 241.203 155.483 241.413 155.261 241.539C155.039 241.666 154.775 241.699 154.528 241.631C149.417 240.229 144.024 240.229 138.913 241.631C138.83 241.653 138.744 241.665 138.658 241.664Z" fill="#0058B0"/>
<path d="M148.684 220.314L147.867 220.341L145.816 220.404L145.001 220.43L144.525 224.364L145.939 224.318L147.991 224.253L149.412 224.209L148.684 220.314Z" fill="#0058B0"/>
<path d="M140.915 221.343L140.225 221.773L138.474 222.859L137.784 223.29L139.334 226.936L140.538 226.187L142.283 225.104L143.49 224.358L140.915 221.343Z" fill="#0058B0"/>
<path d="M134.703 226.129L134.318 226.847L133.346 228.662L132.961 229.378L136.126 231.766L136.793 230.516L137.765 228.702L138.434 227.45L134.703 226.129Z" fill="#0058B0"/>
<path d="M131.708 233.389L131.733 234.203L131.797 236.263L131.826 237.075L135.752 237.558L135.709 236.14L135.643 234.08L135.6 232.659L131.708 233.389Z" fill="#0058B0"/>
<path d="M132.74 241.171L133.169 241.865L134.251 243.616L134.681 244.309L138.326 242.758L137.578 241.55L136.491 239.803L135.747 238.595L132.74 241.171Z" fill="#0058B0"/>
<path d="M137.518 247.401L138.233 247.784L140.044 248.76L140.763 249.144L143.143 245.975L141.896 245.304L140.082 244.332L138.835 243.659L137.518 247.401Z" fill="#0058B0"/>
<path d="M144.762 250.399L145.572 250.37L147.63 250.309L148.438 250.281L148.921 246.344L147.503 246.39L145.449 246.456L144.034 246.501L144.762 250.399Z" fill="#0058B0"/>
<path d="M152.528 249.368L153.218 248.936L154.968 247.852L155.658 247.421L154.109 243.773L152.907 244.521L151.16 245.606L149.958 246.353L152.528 249.368Z" fill="#0058B0"/>
<path d="M158.744 244.582L159.128 243.861L160.098 242.046L160.483 241.329L157.323 238.941L156.651 240.194L155.682 242.007L155.01 243.258L158.744 244.582Z" fill="#0058B0"/>
<path d="M161.738 237.323L161.706 236.508L161.646 234.446L161.617 233.637L157.69 233.151L157.734 234.57L157.799 236.629L157.843 238.051L161.738 237.323Z" fill="#0058B0"/>
<path d="M160.707 229.537L160.276 228.842L159.192 227.088L158.767 226.398L155.122 227.953L155.869 229.159L156.956 230.907L157.697 232.114L160.707 229.537Z" fill="#0058B0"/>
<path d="M155.929 223.31L155.216 222.926L153.4 221.953L152.683 221.567L150.304 224.736L151.551 225.405L153.365 226.378L154.615 227.05L155.929 223.31Z" fill="#0058B0"/>
<path d="M146.722 247.865C144.248 247.889 141.822 247.176 139.753 245.816C137.684 244.456 136.065 242.511 135.102 240.227C134.138 237.944 133.874 235.425 134.342 232.99C134.809 230.556 135.989 228.315 137.73 226.554C139.471 224.792 141.695 223.589 144.12 223.096C146.545 222.603 149.062 222.844 151.35 223.787C153.639 224.73 155.596 226.334 156.973 228.393C158.35 230.453 159.085 232.876 159.086 235.356C159.098 238.656 157.804 241.827 155.486 244.172C153.168 246.517 150.016 247.845 146.722 247.865ZM146.722 226.586C144.986 226.561 143.281 227.054 141.825 228.003C140.369 228.951 139.228 230.313 138.546 231.913C137.864 233.513 137.673 235.281 137.997 236.99C138.32 238.7 139.144 240.275 140.363 241.514C141.583 242.753 143.142 243.601 144.844 243.949C146.545 244.298 148.312 244.131 149.918 243.471C151.525 242.811 152.9 241.687 153.867 240.242C154.834 238.797 155.351 237.096 155.351 235.356C155.364 233.047 154.464 230.827 152.846 229.183C151.228 227.539 149.026 226.605 146.722 226.586Z" fill="#0058B0"/>
<path d="M160.881 223.734H136.235V248.412H160.881V223.734Z" fill="#EAF4FE"/>
<path d="M160.379 250.286H131.995V221.862H160.379V250.286ZM135.732 246.54H156.642V225.605H135.732V246.54Z" fill="#0066CC"/>
<path fill-rule="evenodd" clip-rule="evenodd" d="M162.474 219.563H130.273V251.828H162.474V219.563Z" fill="#2A66C4"/>
<path fill-rule="evenodd" clip-rule="evenodd" d="M137.783 232.421C137.51 232.412 137.239 232.461 136.987 232.564C136.735 232.668 136.507 232.824 136.32 233.022C135.945 233.435 135.748 233.979 135.77 234.536C135.755 235.101 135.962 235.65 136.347 236.062C136.534 236.263 136.761 236.421 137.013 236.526C137.265 236.632 137.537 236.682 137.81 236.674C138.079 236.684 138.347 236.635 138.596 236.531C138.845 236.428 139.068 236.271 139.25 236.073C139.621 235.66 139.818 235.119 139.8 234.564C139.817 234.004 139.621 233.458 139.25 233.038C139.069 232.835 138.846 232.675 138.596 232.568C138.347 232.461 138.076 232.411 137.805 232.421" fill="white"/>
<path d="M149.195 239.411H146.364V244.424H142.879V227.198H149.195C153.275 227.198 155.314 229.191 155.314 233.175C155.314 235.188 154.792 236.734 153.748 237.814C152.703 238.893 151.186 239.426 149.195 239.411ZM146.364 236.42H149.173C150.911 236.42 151.774 235.318 151.774 233.175C151.852 232.363 151.626 231.551 151.142 230.895C150.884 230.641 150.575 230.446 150.235 230.323C149.896 230.201 149.533 230.153 149.173 230.184H146.364V236.42Z" fill="white"/>
</svg>
