<svg width="773" height="339" viewBox="0 0 773 339" fill="none" xmlns="http://www.w3.org/2000/svg">
<path d="M525.026 127.113H226.783C215.833 127.113 206.956 136.688 206.956 148.5V316.51C206.956 328.322 215.833 337.896 226.783 337.896H525.026C535.976 337.896 544.853 328.322 544.853 316.51V148.5C544.853 136.688 535.976 127.113 525.026 127.113Z" fill="white" stroke="#EEF4FD" stroke-width="0.784106" stroke-miterlimit="10"/>
<path d="M38.0078 337.897H190.061" stroke="#F6F8F9" stroke-width="0.784106" stroke-miterlimit="10"/>
<path d="M558 338H773" stroke="#F6F8F9" stroke-width="0.784106" stroke-miterlimit="10"/>
<path d="M7.43555 337.897H31.571" stroke="#F6F8F9" stroke-width="0.784106" stroke-miterlimit="10"/>
<path d="M57.3162 299.28C65.314 299.28 71.7975 292.797 71.7975 284.799C71.7975 276.801 65.314 270.318 57.3162 270.318C49.3184 270.318 42.835 276.801 42.835 284.799C42.835 292.797 49.3184 299.28 57.3162 299.28Z" stroke="#F6F8F9" stroke-width="0.784106" stroke-miterlimit="10"/>
<path d="M91.9108 313.761C97.687 313.761 102.37 309.439 102.37 304.107C102.37 298.775 97.687 294.453 91.9108 294.453C86.1347 294.453 81.4521 298.775 81.4521 304.107C81.4521 309.439 86.1347 313.761 91.9108 313.761Z" stroke="#F6F8F9" stroke-width="0.784106" stroke-miterlimit="10"/>
<path d="M77.4293 288.017C88.5373 288.017 97.5422 279.012 97.5422 267.904C97.5422 256.796 88.5373 247.791 77.4293 247.791C66.3213 247.791 57.3164 256.796 57.3164 267.904C57.3164 279.012 66.3213 288.017 77.4293 288.017Z" stroke="#F6F8F9" stroke-width="0.784106" stroke-miterlimit="10"/>
<path d="M78.2334 337.897V268.709" stroke="#F6F8F9" stroke-width="0.784106" stroke-miterlimit="10"/>
<path d="M57.3164 284.799L78.2338 312.152" stroke="#F6F8F9" stroke-width="0.784106" stroke-miterlimit="10"/>
<path d="M78.2334 323.416L92.7147 304.107" stroke="#F6F8F9" stroke-width="0.784106" stroke-miterlimit="10"/>
<path d="M141.79 336.288C146.678 336.288 150.64 332.326 150.64 327.438C150.64 322.551 146.678 318.589 141.79 318.589C136.903 318.589 132.94 322.551 132.94 327.438C132.94 332.326 136.903 336.288 141.79 336.288Z" stroke="#F6F8F9" stroke-width="0.784106" stroke-miterlimit="10"/>
<path d="M111.218 336.288C116.105 336.288 120.068 332.326 120.068 327.438C120.068 322.551 116.105 318.589 111.218 318.589C106.33 318.589 102.368 322.551 102.368 327.438C102.368 332.326 106.33 336.288 111.218 336.288Z" stroke="#F6F8F9" stroke-width="0.784106" stroke-miterlimit="10"/>
<path d="M126.498 326.634L134.546 312.152L142.595 326.634H126.498ZM126.498 326.634L118.463 312.152L110.414 326.634" stroke="#F6F8F9" stroke-width="0.784106" stroke-miterlimit="10"/>
<path d="M134.55 312.152L137.768 307.325" stroke="#F6F8F9" stroke-width="0.784106" stroke-miterlimit="10"/>
<path d="M118.405 311.827L120.827 307H116.521C116.425 306.999 116.331 307.027 116.249 307.08C116.167 307.133 116.101 307.209 116.057 307.301C116.013 307.393 115.994 307.496 116.002 307.598C116.009 307.701 116.043 307.799 116.099 307.882L117.106 309.42" stroke="#F6F8F9" stroke-width="0.784106" stroke-miterlimit="10"/>
<path d="M134.549 312.152H118.459" stroke="#F6F8F9" stroke-width="0.784106" stroke-miterlimit="10"/>
<path d="M140.986 307.325H132.94" stroke="#F6F8F9" stroke-width="0.784106" stroke-miterlimit="10"/>
<path d="M141.79 329.852C143.122 329.852 144.203 328.771 144.203 327.438C144.203 326.105 143.122 325.025 141.79 325.025C140.457 325.025 139.376 326.105 139.376 327.438C139.376 328.771 140.457 329.852 141.79 329.852Z" fill="#0066CC" stroke="#F6F8F9" stroke-width="0.784106" stroke-miterlimit="10"/>
<path d="M126.504 329.852C127.392 329.852 128.113 328.771 128.113 327.438C128.113 326.105 127.392 325.025 126.504 325.025C125.615 325.025 124.895 326.105 124.895 327.438C124.895 328.771 125.615 329.852 126.504 329.852Z" fill="white" stroke="#F6F8F9" stroke-width="0.784106" stroke-miterlimit="10"/>
<path d="M111.219 329.852C112.552 329.852 113.633 328.771 113.633 327.438C113.633 326.105 112.552 325.025 111.219 325.025C109.886 325.025 108.806 326.105 108.806 327.438C108.806 328.771 109.886 329.852 111.219 329.852Z" fill="#0066CC" stroke="#F6F8F9" stroke-width="0.784106" stroke-miterlimit="10"/>
<path d="M600.917 307.325L599.56 307.859L601.169 308.934" stroke="white" stroke-width="0.784106" stroke-miterlimit="10"/>
<path d="M597.95 306.989L599.223 306.777L598.517 305.716" stroke="white" stroke-width="0.784106" stroke-miterlimit="10"/>
<path d="M601.442 279.972L602.778 283.551L601.169 284.799" stroke="white" stroke-width="0.784106" stroke-miterlimit="10"/>
<path d="M601.978 328.243H614.041L601.978 251.009L589.905 328.243H601.978Z" stroke="#F6F8F9" stroke-width="0.784106" stroke-miterlimit="10"/>
<path d="M589.905 307.325L591.514 306.789L590.622 304.107" stroke="#F6F8F9" stroke-width="0.784106" stroke-miterlimit="10"/>
<path d="M610.813 286.408L609.214 289.626H612.432" stroke="#F6F8F9" stroke-width="0.784106" stroke-miterlimit="10"/>
<path d="M599.36 315.37L601.168 320.197H597.95" stroke="#F6F8F9" stroke-width="0.784106" stroke-miterlimit="10"/>
<path d="M602.777 328.243V337.897" stroke="#F6F8F9" stroke-width="0.784106" stroke-miterlimit="10"/>
<path d="M597.047 263.881L597.951 267.1H596.342" stroke="#F6F8F9" stroke-width="0.784106" stroke-miterlimit="10"/>
<path d="M17.09 222.047C17.09 222.9 16.73 223.719 16.0896 224.322C15.4492 224.926 14.5807 225.265 13.675 225.265H7.63276C7.18433 225.265 6.73993 225.181 6.32564 225.02C5.91134 224.858 5.53527 224.621 5.21819 224.322C4.9011 224.024 4.64943 223.668 4.47783 223.278C4.30622 222.887 4.21777 222.469 4.21777 222.047" stroke="#F6F8F9" stroke-width="0.784106" stroke-miterlimit="10"/>
<path d="M7.4528 215.611H13.8556C15.567 215.611 17.2083 216.289 18.4184 217.496C19.6285 218.703 20.3084 220.34 20.3084 222.047V222.047H1C1 220.34 1.67985 218.703 2.88998 217.496C4.10011 216.289 5.74141 215.611 7.4528 215.611V215.611Z" stroke="#F6F8F9" stroke-width="0.784106" stroke-miterlimit="10"/>
<path d="M20.3086 218.828H31.5718V296.42H28.0859L26.4499 305.578V333.09H23.6687V337.897" stroke="#F6F8F9" stroke-width="0.784106" stroke-miterlimit="10"/>
<path d="M47.6621 222.047C47.6621 222.469 47.7391 222.887 47.8884 223.278C48.0378 223.668 48.2568 224.024 48.5327 224.322C48.8087 224.621 49.136 224.858 49.4965 225.02C49.8571 225.181 50.2438 225.265 50.6341 225.265H55.9414C56.3327 225.266 56.7206 225.184 57.0826 225.023C57.4445 224.862 57.7733 224.626 58.0505 224.327C58.3278 224.028 58.5477 223.673 58.6978 223.281C58.8479 222.89 58.9253 222.47 58.9253 222.047V222.047" stroke="#F6F8F9" stroke-width="0.784106" stroke-miterlimit="10"/>
<path d="M63.752 222.047H42.8346C42.8346 220.34 43.5709 218.703 44.8819 217.496C46.1929 216.289 47.9706 215.611 49.8247 215.611H56.7612C58.6152 215.611 60.393 216.289 61.7039 217.496C63.0149 218.703 63.752 220.34 63.752 222.047Z" stroke="#F6F8F9" stroke-width="0.784106" stroke-miterlimit="10"/>
<path d="M42.8345 218.828H31.5713V296.42H35.0533L36.6875 305.578V333.09H39.4782V337.897" stroke="#F6F8F9" stroke-width="0.784106" stroke-miterlimit="10"/>
<path d="M26.7441 333.07H36.3983" stroke="#F6F8F9" stroke-width="0.784106" stroke-miterlimit="10"/>
<path d="M423.083 256.624C423.083 258.427 422.727 260.212 422.036 261.877C421.344 263.542 420.331 265.055 419.053 266.33C417.776 267.604 416.26 268.614 414.591 269.303C412.922 269.992 411.134 270.346 409.328 270.344" stroke="#0066CC" stroke-width="0.784106" stroke-miterlimit="10"/>
<path d="M436.831 270.344C433.185 270.344 429.689 268.899 427.111 266.326C424.534 263.753 423.086 260.263 423.086 256.624V337.676" stroke="#0066CC" stroke-width="0.784106" stroke-miterlimit="10"/>
<path d="M423.083 270.852C423.083 274.493 421.634 277.986 419.054 280.561C416.475 283.136 412.976 284.582 409.328 284.582" stroke="#0066CC" stroke-width="0.784106" stroke-miterlimit="10"/>
<path d="M423.086 270.852C423.085 272.655 423.439 274.44 424.129 276.106C424.819 277.772 425.831 279.285 427.108 280.56C428.384 281.835 429.9 282.847 431.568 283.537C433.237 284.227 435.025 284.582 436.831 284.582" stroke="#0066CC" stroke-width="0.784106" stroke-miterlimit="10"/>
<path d="M423.083 285.088C423.083 286.891 422.727 288.676 422.036 290.341C421.344 292.007 420.331 293.52 419.053 294.794C417.776 296.068 416.26 297.079 414.591 297.768C412.922 298.456 411.134 298.81 409.328 298.809" stroke="#0066CC" stroke-width="0.784106" stroke-miterlimit="10"/>
<path d="M423.086 285.088C423.086 288.727 424.534 292.217 427.111 294.79C429.689 297.363 433.185 298.809 436.831 298.809" stroke="#0066CC" stroke-width="0.784106" stroke-miterlimit="10"/>
<path d="M358.635 321.538V338" stroke="#D2E3F8" stroke-width="0.784106" stroke-miterlimit="10"/>
<path d="M379.458 321.538V338" stroke="#D2E3F8" stroke-width="0.784106" stroke-miterlimit="10"/>
<path d="M382.917 323.875H355.183V327.246H382.917V323.875Z" fill="#0066CC"/>
<path d="M382.917 328.841H355.183V332.212H382.917V328.841Z" fill="#0066CC"/>
<path d="M206.5 145.884C206.5 143.365 207.014 140.872 208.011 138.545C209.009 136.218 210.472 134.103 212.315 132.323C214.159 130.542 216.348 129.129 218.757 128.165C221.165 127.201 223.747 126.705 226.354 126.705H524.194C526.801 126.705 530.335 127.201 532.743 128.165C535.152 129.129 536.656 130.219 538.5 132C540.344 133.781 542.49 136.218 543.488 138.545C544.486 140.872 545 143.365 545 145.884H206.5Z" fill="#9AC7F7"/>
<path d="M504.14 140.404C506.41 140.404 508.25 138.564 508.25 136.294C508.25 134.025 506.41 132.185 504.14 132.185C501.87 132.185 500.03 134.025 500.03 136.294C500.03 138.564 501.87 140.404 504.14 140.404Z" fill="white"/>
<path d="M518.11 140.404C520.379 140.404 522.219 138.564 522.219 136.294C522.219 134.025 520.379 132.185 518.11 132.185C515.84 132.185 514 134.025 514 136.294C514 138.564 515.84 140.404 518.11 140.404Z" fill="white"/>
<path d="M489.072 140.404C491.341 140.404 493.181 138.564 493.181 136.294C493.181 134.025 491.341 132.185 489.072 132.185C486.802 132.185 484.962 134.025 484.962 136.294C484.962 138.564 486.802 140.404 489.072 140.404Z" fill="white"/>
<path d="M315.179 336.965V250.642L227.194 267.46V336.965" fill="#B0CCF5"/>
<path d="M242.606 306.112H252.292V298.912H242.606V306.112Z" fill="#F3D22D" stroke="#B0CCF5" stroke-width="0.784106" stroke-miterlimit="10"/>
<path d="M245.865 302.516H258.715V295.316H245.865V302.516Z" fill="#2A71D5" stroke="#B0CCF5" stroke-width="0.784106" stroke-miterlimit="10"/>
<path d="M258.715 336.975V292.544" stroke="#D2E3F8" stroke-width="0.784106" stroke-miterlimit="10"/>
<path d="M251.614 287.865H261.3V280.664H251.614V287.865Z" fill="#F3D22D" stroke="#B0CCF5" stroke-width="0.784106" stroke-miterlimit="10"/>
<path d="M254.877 284.267H267.727V277.067H254.877V284.267Z" fill="#2A71D5" stroke="#B0CCF5" stroke-width="0.784106" stroke-miterlimit="10"/>
<path d="M272.103 226.94H281.789V219.739H272.103V226.94Z" fill="#F3D22D" stroke="white" stroke-width="0.784106" stroke-miterlimit="10"/>
<path d="M275.361 223.344H288.211V216.144H275.361V223.344Z" fill="#2A71D5" stroke="white" stroke-width="0.784106" stroke-miterlimit="10"/>
<path d="M267.719 336.974V274.294" stroke="#D2E3F8" stroke-width="0.784106" stroke-miterlimit="10"/>
<path d="M234.562 323.722H244.248V316.522H234.562V323.722Z" fill="#F3D22D" stroke="#B0CCF5" stroke-width="0.784106" stroke-miterlimit="10"/>
<path d="M237.817 320.117H250.667V312.917H237.817V320.117Z" fill="#2A71D5" stroke="#B0CCF5" stroke-width="0.784106" stroke-miterlimit="10"/>
<path d="M250.667 336.977V310.146" stroke="#D2E3F8" stroke-width="0.784106" stroke-miterlimit="10"/>
<path d="M332.396 336.967V219.71L288.211 229.571V336.967" fill="#3563B5"/>
<path d="M288.211 229.578V212.029" stroke="#D2E3F8" stroke-width="0.784106" stroke-miterlimit="10"/>
<path d="M323.763 235.246H296.711V242.691H323.763V235.246Z" fill="#B0CCF5"/>
<path d="M323.763 246.559H296.711V254.003H323.763V246.559Z" fill="#B0CCF5"/>
<path d="M323.763 257.862H296.711V265.306H323.763V257.862Z" fill="#B0CCF5"/>
<path d="M323.763 269.177H296.711V276.621H323.763V269.177Z" fill="#B0CCF5"/>
<path d="M323.763 280.551H296.711V287.995H323.763V280.551Z" fill="#B0CCF5"/>
<path d="M323.763 291.925H296.711V299.369H323.763V291.925Z" fill="#B0CCF5"/>
<path d="M323.763 303.298H296.711V310.742H323.763V303.298Z" fill="#B0CCF5"/>
<path d="M323.768 336.966V326.638H298.435V336.966" fill="#B0CCF5"/>
<path d="M346.005 336.967V226.941L332.393 219.71V336.967H346.005Z" fill="#234580"/>
<path d="M322.888 235.246V241.878H296.711V242.691H323.763V235.246H322.888Z" fill="#8BB6EA"/>
<path d="M322.888 246.559V253.18H296.711V254.003H323.763V246.559H322.888Z" fill="#8BB6EA"/>
<path d="M322.888 257.862V264.483H296.711V265.306H323.763V257.862H322.888Z" fill="#8BB6EA"/>
<path d="M322.888 269.177V275.798H296.711V276.611H323.763V269.177H322.888Z" fill="#8BB6EA"/>
<path d="M322.888 280.551V287.172H296.711V287.995H323.763V280.551H322.888Z" fill="#8BB6EA"/>
<path d="M322.888 291.925V298.546H296.711V299.369H323.763V291.925H322.888Z" fill="#8BB6EA"/>
<path d="M322.888 303.298V309.92H296.711V310.742H323.763V303.298H322.888Z" fill="#8BB6EA"/>
<path d="M322.944 336.966V327.46H298.435V326.638H323.768V336.966H322.944Z" fill="#8BB6EA"/>
<g opacity="0.75">
<path opacity="0.75" d="M307.811 280.55H304.474L302.622 287.995H305.949L307.811 280.55Z" fill="#D2E3F8"/>
<path opacity="0.75" d="M304.975 291.924H301.638L299.786 299.368H303.113L304.975 291.924Z" fill="#D2E3F8"/>
<path opacity="0.75" d="M319.128 235.246H315.791L313.929 242.69H317.266L319.128 235.246Z" fill="#D2E3F8"/>
<path opacity="0.75" d="M316.298 246.558H312.961L311.109 254.002H314.446L316.298 246.558Z" fill="#D2E3F8"/>
<path opacity="0.75" d="M298.798 303.299L296.937 310.743H300.274L302.135 303.299H298.798Z" fill="#D2E3F8"/>
<path opacity="0.75" d="M313.476 257.863H310.139L308.277 265.307H311.614L313.476 257.863Z" fill="#D2E3F8"/>
<path opacity="0.75" d="M310.652 269.177H307.325L305.463 276.61H308.8L310.652 269.177Z" fill="#D2E3F8"/>
<path opacity="0.75" d="M309.624 276.61H310.346L312.208 269.177H311.476L309.624 276.61Z" fill="#D2E3F8"/>
<path opacity="0.75" d="M319.952 235.246L318.09 242.69H318.822L320.684 235.246H319.952Z" fill="#D2E3F8"/>
<path opacity="0.75" d="M301.098 310.743H301.83L303.692 303.299H302.959L301.098 310.743Z" fill="#D2E3F8"/>
<path opacity="0.75" d="M312.441 265.307H313.174L315.036 257.863H314.303L312.441 265.307Z" fill="#D2E3F8"/>
<path opacity="0.75" d="M315.271 254.002H315.993L317.855 246.558H317.122L315.271 254.002Z" fill="#D2E3F8"/>
<path opacity="0.75" d="M303.937 299.368H304.669L306.531 291.924H305.798L303.937 299.368Z" fill="#D2E3F8"/>
<path opacity="0.75" d="M306.772 287.995H307.505L309.367 280.55H308.634L306.772 287.995Z" fill="#D2E3F8"/>
</g>
<path d="M372.462 305.401C378.923 305.401 384.162 300.173 384.162 293.723C384.162 287.272 378.923 282.044 372.462 282.044C366 282.044 360.762 287.272 360.762 293.723C360.762 300.173 366 305.401 372.462 305.401Z" fill="#B0CCF5"/>
<path d="M400.894 317.822C405.496 317.822 409.226 314.098 409.226 309.505C409.226 304.911 405.496 301.187 400.894 301.187C396.292 301.187 392.562 304.911 392.562 309.505C392.562 314.098 396.292 317.822 400.894 317.822Z" fill="#B0CCF5"/>
<path d="M388.901 296.312C397.981 296.312 405.342 288.964 405.342 279.9C405.342 270.836 397.981 263.489 388.901 263.489C379.821 263.489 372.46 270.836 372.46 279.9C372.46 288.964 379.821 296.312 388.901 296.312Z" fill="#B0CCF5"/>
<path d="M388.9 336.844V279.902V296.313" stroke="#B0CCF5" stroke-width="0.784106" stroke-miterlimit="10"/>
<path d="M372.459 293.723L388.9 316.156" stroke="#B0CCF5" stroke-width="0.784106" stroke-miterlimit="10"/>
<path d="M388.9 324.798L400.896 309.503" stroke="#B0CCF5" stroke-width="0.784106" stroke-miterlimit="10"/>
<path d="M388.9 279.902V295.846" stroke="#F0F6FC" stroke-width="0.784106" stroke-miterlimit="10"/>
<path d="M372.459 293.723L379.072 302.741" stroke="#F0F6FC" stroke-width="0.784106" stroke-miterlimit="10"/>
<path d="M400.895 309.503L396.042 315.688" stroke="#F0F6FC" stroke-width="0.784106" stroke-miterlimit="10"/>
<path d="M527.134 242.64L501.761 267.968H442.935C442.874 267.968 439.771 267.897 439.812 267.846L465.186 242.518H527.063C527.079 242.511 527.097 242.511 527.114 242.516C527.13 242.521 527.144 242.533 527.153 242.548C527.162 242.563 527.165 242.58 527.161 242.597C527.158 242.614 527.148 242.629 527.134 242.64Z" fill="#3D71CE"/>
<path d="M501.759 337.442V267.967L527.255 242.517L527.153 267.967V337.442H501.759Z" fill="#234580"/>
<path d="M521.316 242.517L495.82 267.967H494.375L519.871 242.517H521.316Z" fill="#4F80C9"/>
<path d="M513.411 242.517L487.915 267.967H486.471L511.977 242.517H513.411Z" fill="#4F80C9"/>
<path d="M505.502 242.517L480.006 267.967H478.562L504.068 242.517H505.502Z" fill="#4F80C9"/>
<path d="M497.599 242.517L472.103 267.967H470.658L496.164 242.517H497.599Z" fill="#4F80C9"/>
<path d="M489.705 242.517L464.199 267.967H462.765L488.261 242.517H489.705Z" fill="#4F80C9"/>
<path d="M481.797 242.517L456.291 267.967H454.856L480.352 242.517H481.797Z" fill="#4F80C9"/>
<path d="M472.449 242.517H473.894L448.388 267.967H446.953L472.449 242.517Z" fill="#4F80C9"/>
<path d="M463.251 267.966H491.809V245.584H463.251V267.966Z" fill="#234580"/>
<path d="M459.716 267.967V245.594H488.264V267.967H501.755V337.442H439.826V267.967H459.716Z" fill="#3563B5"/>
<path d="M465.034 286.726H474.984V277.088H465.034V286.726Z" fill="#B0CCF5"/>
<path d="M445.794 286.726H455.744V277.088H445.794V286.726Z" fill="#B0CCF5"/>
<path d="M465.034 299.756H474.984V290.118H465.034V299.756Z" fill="#B0CCF5"/>
<path d="M445.794 299.756H455.744V290.118H445.794V299.756Z" fill="#B0CCF5"/>
<path d="M465.034 312.561H474.984V302.923H465.034V312.561Z" fill="#B0CCF5"/>
<path d="M485.067 286.726H495.017V277.088H485.067V286.726Z" fill="#B0CCF5"/>
<path d="M485.067 299.756H495.017V290.118H485.067V299.756Z" fill="#B0CCF5"/>
<path d="M485.067 312.561H495.017V302.923H485.067V312.561Z" fill="#B0CCF5"/>
<path d="M445.794 312.561H455.744V302.923H445.794V312.561Z" fill="#B0CCF5"/>
<path d="M473.172 265.194H470.669V259.162H464.737V254.399H470.669V248.366H473.172H475.674V254.399H481.606V259.162H475.674V265.194H473.172Z" fill="#F3D22D"/>
<path d="M445.804 286.726V285.853H454.848V277.088H455.744V286.726H445.804Z" fill="#8BB6EA"/>
<path d="M465.045 286.726V285.853H474.09V277.088H474.985V286.726H465.045Z" fill="#8BB6EA"/>
<path d="M485.076 286.726V285.853H494.121V277.088H495.016V286.726H485.076Z" fill="#8BB6EA"/>
<path d="M445.804 299.753V298.88H454.848V290.116H455.744V299.753H445.804Z" fill="#8BB6EA"/>
<path d="M465.045 299.753V298.88H474.09V290.116H474.985V299.753H465.045Z" fill="#8BB6EA"/>
<path d="M485.076 299.753V298.88H494.121V290.116H495.016V299.753H485.076Z" fill="#8BB6EA"/>
<path d="M445.804 312.55V311.676H454.848V302.912H455.744V312.55H445.804Z" fill="#8BB6EA"/>
<path d="M465.045 312.55V311.676H474.09V302.912H474.985V312.55H465.045Z" fill="#8BB6EA"/>
<path d="M485.076 312.55V311.676H494.121V302.912H495.016V312.55H485.076Z" fill="#8BB6EA"/>
<path d="M490.59 322.878H479.124V324.036H490.59V322.878Z" fill="#234580"/>
<path d="M446.948 322.878H439.826V324.036H446.948V322.878Z" fill="#234580"/>
<path d="M479.123 322.878H446.953V337.502H479.123V322.878Z" fill="#B0CCF5"/>
<path d="M478.085 336.974V323.995H446.953V322.878H479.123V336.974H478.085Z" fill="#8BB6EA"/>
<path d="M434.603 322.878H485.065V320.299H434.603V322.878Z" fill="#D2E3F8"/>
<path d="M485.061 322.878H490.596V320.299H485.061V322.878Z" fill="#B0CCF5"/>
<path d="M661.709 235.719H654.565V241.699H661.709V235.719Z" fill="#7AD3D9" stroke="#7AD3D9" stroke-width="0.784106" stroke-miterlimit="10"/>
<path d="M659.301 232.73H649.835V238.71H659.301V232.73Z" fill="#FFCC00" stroke="#FFCC00" stroke-width="0.784106" stroke-miterlimit="10"/>
<path d="M649.835 249.512V230.417" stroke="#F6F8F9" stroke-width="0.784106" stroke-miterlimit="10"/>
<path d="M649.308 249.617L670.17 273.127H718.518C718.518 273.127 757.276 273.045 757.245 273.01L736.373 249.512H649.35C649.338 249.508 649.325 249.51 649.314 249.516C649.304 249.522 649.295 249.532 649.29 249.545C649.285 249.557 649.284 249.572 649.287 249.585C649.291 249.598 649.298 249.61 649.308 249.617Z" stroke="#F6F8F9" stroke-width="0.784106" stroke-miterlimit="10"/>
<path d="M670.171 273.126H757.246V337.571H670.171" stroke="#F6F8F9" stroke-width="0.784106" stroke-miterlimit="10"/>
<path d="M649.202 337.57H670.167V273.125L649.202 249.51L628.236 273.125V337.57H649.202Z" stroke="#F6F8F9" stroke-width="0.784106" stroke-miterlimit="10"/>
<path d="M654.688 249.51L675.653 273.125" stroke="#F6F8F9" stroke-width="0.784106" stroke-miterlimit="10"/>
<path d="M661.178 249.51L682.143 273.125" stroke="#F6F8F9" stroke-width="0.784106" stroke-miterlimit="10"/>
<path d="M667.681 249.51L688.646 273.125" stroke="#F6F8F9" stroke-width="0.784106" stroke-miterlimit="10"/>
<path d="M674.179 249.51L695.144 273.125" stroke="#F6F8F9" stroke-width="0.784106" stroke-miterlimit="10"/>
<path d="M680.666 249.51L701.642 273.125" stroke="#F6F8F9" stroke-width="0.784106" stroke-miterlimit="10"/>
<path d="M687.172 249.51L708.137 273.125" stroke="#F6F8F9" stroke-width="0.784106" stroke-miterlimit="10"/>
<path d="M693.673 249.51L714.638 273.125" stroke="#F6F8F9" stroke-width="0.784106" stroke-miterlimit="10"/>
<path d="M700.641 249.51L721.606 273.125" stroke="white" stroke-width="0.784106" stroke-miterlimit="10"/>
<path d="M707.604 249.51L728.58 273.125" stroke="white" stroke-width="0.784106" stroke-miterlimit="10"/>
<path d="M714.584 249.51L735.549 273.125" stroke="white" stroke-width="0.784106" stroke-miterlimit="10"/>
<path d="M721.555 249.51L742.52 273.125" stroke="white" stroke-width="0.784106" stroke-miterlimit="10"/>
<path d="M728.522 249.51L749.488 273.125" stroke="white" stroke-width="0.784106" stroke-miterlimit="10"/>
<path d="M684.831 280.929H676.65V293.133H684.831V280.929Z" stroke="#F6F8F9" stroke-width="0.784106" stroke-miterlimit="10"/>
<path d="M700.639 280.929H692.458V293.133H700.639V280.929Z" stroke="#F6F8F9" stroke-width="0.784106" stroke-miterlimit="10"/>
<path d="M684.831 297.138H676.65V309.343H684.831V297.138Z" stroke="#F6F8F9" stroke-width="0.784106" stroke-miterlimit="10"/>
<path d="M745.031 314.026H676.65V326.231H745.031V314.026Z" stroke="#F6F8F9" stroke-width="0.784106" stroke-miterlimit="10"/>
<path d="M700.639 297.138H692.458V309.343H700.639V297.138Z" stroke="#F6F8F9" stroke-width="0.784106" stroke-miterlimit="10"/>
<path d="M716.32 280.929H708.14V293.133H716.32V280.929Z" stroke="white" stroke-width="0.784106" stroke-miterlimit="10"/>
<path d="M716.32 297.138H708.14V309.343H716.32V297.138Z" stroke="white" stroke-width="0.784106" stroke-miterlimit="10"/>
<path d="M730.672 280.929H722.491V293.133H730.672V280.929Z" stroke="white" stroke-width="0.784106" stroke-miterlimit="10"/>
<path d="M730.672 297.138H722.491V309.343H730.672V297.138Z" stroke="white" stroke-width="0.784106" stroke-miterlimit="10"/>
<path d="M745.028 280.929H736.847V293.133H745.028V280.929Z" stroke="white" stroke-width="0.784106" stroke-miterlimit="10"/>
<path d="M745.028 297.138H736.847V309.343H745.028V297.138Z" stroke="white" stroke-width="0.784106" stroke-miterlimit="10"/>
<path d="M648.29 282.213C652.746 282.213 656.357 278.145 656.357 273.127C656.357 268.109 652.746 264.041 648.29 264.041C643.835 264.041 640.224 268.109 640.224 273.127C640.224 278.145 643.835 282.213 648.29 282.213Z" stroke="#F6F8F9" stroke-width="0.784106" stroke-miterlimit="10"/>
<path d="M648.291 268.549V273.127H651.661" stroke="#F6F8F9" stroke-width="0.784106" stroke-miterlimit="10"/>
<path d="M662.681 313.432H621.984V317.893H662.681V313.432Z" stroke="#F6F8F9" stroke-width="0.784106" stroke-miterlimit="10"/>
<path d="M656.361 317.892V337.676" stroke="#F6F8F9" stroke-width="0.784106" stroke-miterlimit="10"/>
<path opacity="0.5" d="M487.564 10.5684V0M471.899 16.9986L464.361 9.52764M465.424 32.5104H454.747M471.899 48.0347L464.361 55.5056M487.564 54.4649V65.0333M503.216 48.0347L510.767 55.5056M509.705 32.5104H520.369M503.216 16.9986L510.767 9.52764M612.639 212.392C615.326 212.392 615.327 216.877 618.015 216.877C620.703 216.877 620.702 212.392 623.39 212.392C626.078 212.392 626.078 216.877 628.766 216.877C631.454 216.877 631.466 212.392 634.154 212.392C636.842 212.392 636.842 216.877 639.53 216.877C642.218 216.877 642.231 212.392 644.918 212.392C647.606 212.392 647.618 216.877 650.306 216.877M557.917 60.7657C560.605 60.7657 560.605 65.2388 563.293 65.2388C565.981 65.2388 565.98 60.7657 568.668 60.7657C571.356 60.7657 571.357 65.2388 574.044 65.2388C576.732 65.2388 576.745 60.7657 579.433 60.7657C582.121 60.7657 582.12 65.2388 584.808 65.2388C587.496 65.2388 587.509 60.7657 590.197 60.7657C592.885 60.7657 592.897 65.2388 595.585 65.2388M501.579 32.5104C501.579 40.181 495.304 46.3992 487.564 46.3992C479.824 46.3992 473.55 40.181 473.55 32.5104C473.55 24.8399 479.824 18.6216 487.564 18.6216C495.304 18.6216 501.579 24.8399 501.579 32.5104Z" stroke="white" stroke-opacity="0.5" stroke-linejoin="round"/>
<g opacity="0.25">
<path opacity="0.25" d="M572.297 185.809H564.107V186.824H572.297V185.809Z" fill="#5A5A5A"/>
</g>
<path d="M297.469 185.393L302.28 186.426L305.005 173.807L300.193 172.774L297.469 185.393Z" fill="#C5E1F9"/>
<path d="M322.697 165.545L332.28 174.193L328.971 177.837L319.391 169.189L322.697 165.545Z" fill="#C5E1F9"/>
<path d="M325.877 150.795L338.176 146.825L336.663 142.151L324.364 146.121L325.877 150.795Z" fill="#C5E1F9"/>
<path d="M308.354 134.958L313.165 135.991L315.885 123.392L311.074 122.359L308.354 134.958Z" fill="#C5E1F9"/>
<path d="M276.686 166.617L288.991 162.661L287.482 157.978L275.177 161.933L276.686 166.617Z" fill="#C5E1F9"/>
<path d="M239.679 117.923L273.289 137.416L306.894 156.91L302.946 118.28L299.007 79.6668L280.963 101.634L265.834 78.2047L252.013 87.1406L267.149 110.551L239.679 117.923Z" fill="#D98F00"/>
<path d="M273.291 137.418L306.896 156.913L306.776 155.619L259.411 82.3458L252.014 87.1409L267.15 110.552L239.679 117.925L273.291 137.418Z" fill="#FFCC00"/>
<path opacity="0.6" d="M411.091 91.5503C413.072 90.661 414.753 89.2187 415.935 87.397C417.116 85.5752 417.747 83.4515 417.75 81.2803C417.748 78.2912 416.56 75.4251 414.447 73.3105C412.335 71.196 409.47 70.0053 406.48 70C404.554 70.0034 402.661 70.4983 400.979 71.438C399.297 72.3777 397.883 73.7313 396.871 75.3701C395.908 75.0258 394.893 74.8529 393.871 74.8599C391.937 74.868 390.058 75.5063 388.519 76.6772C386.98 77.8482 385.864 79.4885 385.341 81.3501C384.716 80.6571 383.952 80.1031 383.1 79.7241C382.247 79.3451 381.324 79.1494 380.391 79.1499C378.906 79.141 377.461 79.6283 376.286 80.5342C375.11 81.44 374.27 82.7125 373.9 84.1499C373.518 84.0334 373.12 83.9762 372.721 83.98C371.591 83.98 370.507 84.4291 369.708 85.228C368.91 86.0269 368.46 87.1104 368.46 88.2402C368.462 88.8659 368.601 89.4835 368.869 90.0488C369.137 90.6142 369.527 91.1133 370.011 91.5103H364.221V92.5103H397.94V91.5103H372.721C371.855 91.5076 371.026 91.1618 370.415 90.5488C369.804 89.9359 369.46 89.1058 369.46 88.2402C369.46 87.3756 369.804 86.5464 370.416 85.9351C371.027 85.3237 371.856 84.98 372.721 84.98C373.186 84.9807 373.646 85.0795 374.071 85.27C374.139 85.3043 374.214 85.3223 374.291 85.3223C374.367 85.3223 374.442 85.3043 374.511 85.27C374.579 85.2347 374.638 85.1837 374.684 85.1211C374.729 85.0585 374.759 84.9864 374.771 84.9102C374.983 83.5739 375.666 82.3576 376.697 81.481C377.727 80.6044 379.038 80.125 380.391 80.1299C381.348 80.1305 382.29 80.373 383.129 80.8345C383.968 81.296 384.677 81.9616 385.19 82.77C385.246 82.8538 385.325 82.9194 385.417 82.9585C385.51 82.9976 385.612 83.0088 385.71 82.9902C385.811 82.9687 385.902 82.9164 385.972 82.8413C386.041 82.7662 386.086 82.6719 386.101 82.5703C386.376 80.7043 387.312 78.9986 388.737 77.7637C390.163 76.5287 391.984 75.8465 393.871 75.8403C394.9 75.8385 395.919 76.0388 396.871 76.4302C396.983 76.4783 397.109 76.4835 397.226 76.4448C397.342 76.4061 397.439 76.3263 397.5 76.2202C398.395 74.6326 399.695 73.3108 401.267 72.3901C402.84 71.4695 404.629 70.9827 406.451 70.98C409.175 70.9853 411.785 72.0705 413.71 73.9976C415.636 75.9246 416.718 78.5364 416.721 81.2603C416.715 83.9824 415.631 86.5913 413.707 88.5161C411.782 90.441 409.173 91.525 406.451 91.5303H402.141V92.5303H435.851V91.5303L411.091 91.5503Z" fill="white" fill-opacity="0.5"/>
<path opacity="0.6" d="M177.87 200.47C178.352 200.074 178.741 199.577 179.009 199.013C179.277 198.45 179.417 197.834 179.42 197.21C179.42 196.079 178.971 194.995 178.173 194.194C177.374 193.394 176.291 192.943 175.16 192.94C174.761 192.941 174.363 192.998 173.98 193.11C173.607 191.674 172.767 190.404 171.592 189.499C170.417 188.593 168.974 188.104 167.49 188.11C166.557 188.109 165.634 188.305 164.781 188.684C163.929 189.063 163.165 189.617 162.54 190.31C162.016 188.448 160.901 186.808 159.362 185.637C157.823 184.466 155.944 183.828 154.01 183.82C152.988 183.813 151.973 183.986 151.01 184.33C149.997 182.692 148.583 181.341 146.901 180.403C145.219 179.465 143.326 178.972 141.4 178.97C138.412 178.973 135.547 180.161 133.434 182.274C131.321 184.387 130.133 187.252 130.13 190.24C130.134 192.411 130.764 194.535 131.946 196.357C133.127 198.179 134.809 199.621 136.79 200.51H112V201.51H145.71V200.51H141.4C138.678 200.505 136.069 199.421 134.144 197.496C132.219 195.571 131.135 192.962 131.13 190.24C131.133 187.517 132.216 184.906 134.141 182.981C136.067 181.056 138.677 179.973 141.4 179.97C143.229 179.965 145.027 180.447 146.608 181.366C148.19 182.285 149.499 183.608 150.4 185.2C150.459 185.305 150.555 185.385 150.67 185.424C150.784 185.463 150.909 185.458 151.02 185.41C151.972 185.019 152.991 184.818 154.02 184.82C155.906 184.826 157.728 185.509 159.154 186.744C160.58 187.979 161.515 189.684 161.79 191.55C161.804 191.652 161.849 191.746 161.919 191.821C161.989 191.896 162.08 191.949 162.18 191.97C162.279 191.992 162.382 191.982 162.475 191.942C162.568 191.903 162.647 191.836 162.7 191.75C163.213 190.942 163.923 190.276 164.762 189.814C165.601 189.353 166.542 189.11 167.5 189.11C168.854 189.105 170.166 189.586 171.197 190.465C172.228 191.343 172.91 192.562 173.12 193.9C173.135 193.975 173.166 194.046 173.21 194.108C173.255 194.171 173.313 194.223 173.38 194.26C173.448 194.295 173.524 194.312 173.6 194.312C173.676 194.312 173.752 194.295 173.82 194.26C174.245 194.07 174.705 193.971 175.17 193.97C175.599 193.97 176.024 194.055 176.42 194.219C176.816 194.384 177.176 194.624 177.479 194.928C177.782 195.232 178.022 195.593 178.185 195.989C178.348 196.386 178.431 196.811 178.43 197.24C178.43 198.105 178.086 198.934 177.475 199.545C176.864 200.157 176.035 200.5 175.17 200.5H149.95V201.5H183.67V200.5L177.87 200.47Z" fill="white" fill-opacity="0.5"/>
<path opacity="0.6" d="M628.04 182.2C630.019 181.307 631.699 179.862 632.878 178.039C634.057 176.215 634.686 174.091 634.69 171.92C634.687 168.932 633.499 166.067 631.386 163.954C629.273 161.841 626.408 160.653 623.42 160.65C621.495 160.653 619.602 161.149 617.922 162.088C616.242 163.028 614.831 164.381 613.82 166.02C612.858 165.677 611.842 165.505 610.82 165.51C608.888 165.519 607.011 166.157 605.473 167.328C603.936 168.499 602.822 170.139 602.3 172C601.67 171.3 600.899 170.742 600.037 170.363C599.175 169.984 598.242 169.792 597.3 169.8C595.817 169.792 594.374 170.279 593.2 171.185C592.026 172.091 591.188 173.364 590.82 174.8C590.437 174.689 590.039 174.632 589.64 174.63C589.079 174.63 588.524 174.74 588.006 174.955C587.488 175.17 587.017 175.484 586.621 175.881C586.224 176.277 585.91 176.748 585.695 177.266C585.481 177.784 585.37 178.339 585.37 178.9C585.372 179.526 585.512 180.145 585.782 180.71C586.052 181.276 586.444 181.774 586.93 182.17H571.99V183.17H602.12V182.17H589.64C588.774 182.167 587.943 181.822 587.331 181.209C586.718 180.597 586.373 179.766 586.37 178.9C586.373 178.033 586.718 177.203 587.331 176.591C587.943 175.978 588.774 175.633 589.64 175.63C590.103 175.63 590.561 175.733 590.98 175.93C591.049 175.962 591.124 175.979 591.2 175.979C591.276 175.979 591.351 175.962 591.42 175.93C591.489 175.896 591.549 175.844 591.594 175.782C591.64 175.719 591.669 175.647 591.68 175.57C591.907 174.233 592.606 173.021 593.65 172.155C594.694 171.289 596.014 170.826 597.37 170.85C598.327 170.849 599.269 171.089 600.108 171.549C600.947 172.009 601.656 172.673 602.17 173.48C602.223 173.569 602.303 173.639 602.398 173.678C602.494 173.718 602.6 173.726 602.7 173.7C602.799 173.679 602.889 173.629 602.958 173.556C603.028 173.482 603.074 173.39 603.09 173.29C603.361 171.424 604.294 169.717 605.719 168.482C607.143 167.246 608.964 166.564 610.85 166.56C611.879 166.557 612.899 166.758 613.85 167.15C613.964 167.195 614.09 167.198 614.206 167.157C614.322 167.117 614.419 167.036 614.48 166.93C615.375 165.344 616.675 164.023 618.248 163.104C619.82 162.186 621.609 161.701 623.43 161.7C626.152 161.705 628.761 162.789 630.686 164.714C632.611 166.639 633.695 169.248 633.7 171.97C633.698 174.694 632.615 177.306 630.69 179.233C628.765 181.16 626.154 182.245 623.43 182.25H616.75V183.25H646.88V182.25L628.04 182.2Z" fill="white" fill-opacity="0.5"/>
</svg>
