<svg width="141" height="116" viewBox="0 0 141 116" fill="none" xmlns="http://www.w3.org/2000/svg">
<g clip-path="url(#clip0_13760_305803)">
<path d="M100.27 77.5508V76.2593C101.109 76.2585 101.914 75.9253 102.507 75.3327C103.101 74.7402 103.434 73.9367 103.435 73.0988H104.729H103.435H104.729C104.728 74.2793 104.258 75.4112 103.422 76.2459C102.586 77.0807 101.452 77.55 100.27 77.5508Z" fill="#C5E1F9"/>
<path d="M108.704 79.6438H107.407V71.7801C107.407 71.4253 107.266 71.0849 107.015 70.8338C106.764 70.5826 106.423 70.4411 106.068 70.4403C105.713 70.4419 105.373 70.5836 105.122 70.8346C104.871 71.0857 104.73 71.4255 104.729 71.7801V73.4527H103.436V71.7801C103.436 71.0828 103.713 70.414 104.206 69.9206C104.7 69.4272 105.37 69.1496 106.068 69.1488C106.767 69.1496 107.437 69.4271 107.931 69.9204C108.425 70.4137 108.703 71.0825 108.704 71.7801V79.6438Z" fill="#C5E1F9"/>
<path d="M109.156 82.4383C108.694 82.4375 108.252 82.254 107.925 81.9281C107.599 81.6021 107.415 81.1602 107.414 80.6993V76.35H108.708V80.6993C108.708 80.8177 108.756 80.9311 108.84 81.0149C108.924 81.0987 109.037 81.1461 109.156 81.1469C109.275 81.1469 109.389 81.0997 109.473 81.0158C109.557 80.9318 109.604 80.818 109.604 80.6993L109.671 50.4332H110.955L110.892 80.6993C110.89 81.159 110.707 81.5994 110.382 81.9251C110.057 82.2507 109.616 82.4351 109.156 82.4383Z" fill="#C5E1F9"/>
<path d="M100.353 77.551C99.1701 77.5502 98.0361 77.0809 97.1995 76.2463C96.363 75.4116 95.8922 74.2797 95.8906 73.0989V71.0453H97.1872V73.0989C97.188 73.9369 97.5217 74.7404 98.1152 75.3329C98.7087 75.9255 99.5135 76.2587 100.353 76.2595V77.551Z" fill="#C5E1F9"/>
<path d="M110.956 50.4333H109.662C109.666 49.2522 110.139 48.121 110.977 47.2875C111.815 46.4541 112.95 45.9865 114.133 45.9873H117.484V47.2788H114.133C113.293 47.2772 112.487 47.6084 111.891 48.1998C111.295 48.7913 110.959 49.5945 110.956 50.4333Z" fill="#C5E1F9"/>
<path d="M97.1891 71.4323H95.8956V67.44C95.894 66.6017 95.5595 65.7982 94.9656 65.2058C94.3716 64.6133 93.5665 64.2801 92.7269 64.2794H80.3945V62.9849H92.7269C93.9099 62.9865 95.0439 63.4564 95.8804 64.2915C96.7169 65.1266 97.1875 66.2589 97.1891 67.44V71.4323Z" fill="#C5E1F9"/>
<path d="M119.437 59.5975C118.021 58.5382 116.827 57.2107 115.924 55.6908C115.021 54.1709 114.427 52.4884 114.176 50.7392C113.924 48.9901 114.02 47.2086 114.458 45.4966C114.897 43.7845 115.668 42.1754 116.729 40.761C117.788 39.3449 119.117 38.1512 120.639 37.2479C122.16 36.3447 123.845 35.7496 125.597 35.4968C127.35 35.244 129.134 35.3384 130.85 35.7746C132.566 36.2108 134.178 36.9802 135.596 38.039C137.014 39.0972 138.209 40.4239 139.114 41.9434C140.018 43.4629 140.614 45.1455 140.867 46.8949C141.121 48.6444 141.026 50.4265 140.589 52.1395C140.153 53.8525 139.382 55.4628 138.322 56.8785C137.261 58.2956 135.931 59.4901 134.408 60.3937C132.885 61.2974 131.198 61.8925 129.444 62.145C127.69 62.3975 125.904 62.3025 124.187 61.8654C122.47 61.4283 120.856 60.6576 119.437 59.5975Z" fill="#FFCC00"/>
<path d="M42.5098 72.3184V71.027C43.3494 71.0254 44.1541 70.6914 44.7475 70.0984C45.3409 69.5054 45.6746 68.7016 45.6754 67.8633V65.9489H46.9689V67.8754C46.9641 69.0539 46.4925 70.1826 45.657 71.015C44.8215 71.8475 43.6901 72.316 42.5098 72.3184Z" fill="#C5E1F9"/>
<path d="M50.9407 78.585H49.6472V64.5908C49.6472 64.2359 49.5063 63.8956 49.2552 63.6444C49.0042 63.3932 48.6637 63.2517 48.3083 63.2509C47.9529 63.2517 47.6123 63.3932 47.3613 63.6444C47.1103 63.8956 46.9693 64.2359 46.9693 64.5908V66.9106H45.6758V64.5908C45.6758 63.8934 45.953 63.2246 46.4466 62.7312C46.9402 62.2378 47.6098 61.9603 48.3083 61.9595C49.0067 61.9603 49.6763 62.2378 50.1699 62.7312C50.6635 63.2246 50.9407 63.8934 50.9407 64.5908V78.585Z" fill="#C5E1F9"/>
<path d="M58.0901 69.9563H56.7935V60.0874C56.7935 59.6002 56.5999 59.1329 56.2551 58.7882C55.9104 58.4434 55.4427 58.2493 54.9547 58.2485C54.4665 58.2493 53.9984 58.4433 53.6532 58.788C53.308 59.1327 53.1137 59.5999 53.1129 60.0874V69.9563H51.8193V60.0874C51.8201 59.2574 52.1507 58.4616 52.7385 57.8748C53.3264 57.2879 54.1234 56.9578 54.9547 56.957C55.786 56.9578 56.583 57.2879 57.1708 57.8748C57.7587 58.4616 58.0893 59.2574 58.0901 60.0874V69.9563Z" fill="#C5E1F9"/>
<path d="M51.3953 81.3738C50.9325 81.3738 50.4887 81.1903 50.1615 80.8636C49.8342 80.5369 49.6504 80.0937 49.6504 79.6317V69.167H50.9469V79.6317C50.9469 79.7504 50.9942 79.8643 51.0783 79.9482C51.1623 80.0322 51.2764 80.0793 51.3953 80.0793C51.4542 80.0793 51.5125 80.0677 51.5669 80.0452C51.6212 80.0227 51.6707 79.9898 51.7123 79.9482C51.7539 79.9066 51.787 79.8573 51.8095 79.803C51.832 79.7487 51.8436 79.6905 51.8436 79.6317V69.167H53.1372V79.6317C53.1372 80.0932 52.9537 80.5359 52.6272 80.8625C52.3006 81.1891 51.8575 81.373 51.3953 81.3738Z" fill="#C5E1F9"/>
<path d="M42.589 72.3186C41.4064 72.317 40.2726 71.847 39.4366 71.0118C38.6007 70.1766 38.1307 69.0443 38.1299 67.8635V63.8712H39.4234V67.8635C39.4242 68.7018 39.7579 69.5055 40.3513 70.0986C40.9447 70.6916 41.7494 71.0256 42.589 71.0272V72.3186Z" fill="#C5E1F9"/>
<path d="M39.4259 64.2612H38.1323V60.2659C38.1315 59.4279 37.7978 58.6244 37.2043 58.0319C36.6108 57.4393 35.806 57.1061 34.9667 57.1053H16.4727V55.8138H34.9667C36.1491 55.8146 37.2828 56.284 38.1189 57.1187C38.955 57.9535 39.4251 59.0854 39.4259 60.2659V64.2612Z" fill="#C5E1F9"/>
<path d="M17.3067 57.1233H15.1165C13.9341 57.1217 12.8004 56.6523 11.9641 55.8178C11.1277 54.9833 10.6567 53.8518 10.6543 52.6713V43.1169H11.9478V52.6713C11.9494 53.5096 12.2839 54.313 12.8778 54.9055C13.4718 55.4979 14.2769 55.8311 15.1165 55.8319H17.3067V57.1233Z" fill="#C5E1F9"/>
<path d="M61.2012 78.2252V76.9338C62.0408 76.933 62.8458 76.5999 63.4398 76.0074C64.0338 75.4149 64.3682 74.6115 64.3698 73.7732V21.2531H65.6634V73.7732C65.6618 74.954 65.191 76.0859 64.3545 76.9206C63.5179 77.7552 62.3839 78.2244 61.2012 78.2252Z" fill="#C5E1F9"/>
<path d="M61.2736 78.225C60.0912 78.2242 58.9575 77.7549 58.1214 76.9202C57.2853 76.0854 56.8153 74.9535 56.8145 73.773V64.2217H58.108V73.773C58.1088 74.611 58.4425 75.4144 59.036 76.007C59.6295 76.5995 60.4343 76.9328 61.2736 76.9336V78.225Z" fill="#C5E1F9"/>
<path d="M21.3746 45.0194C20.4402 46.2651 19.2691 47.3147 17.9284 48.1085C16.5876 48.9022 15.1034 49.4245 13.5604 49.6455C12.0175 49.8666 10.4461 49.782 8.93586 49.3967C7.42565 49.0113 6.00623 48.3328 4.7587 47.3997C3.51062 46.4672 2.45878 45.2984 1.66318 43.96C0.86759 42.6216 0.343847 41.1398 0.121895 39.5993C-0.100056 38.0588 -0.0158719 36.4898 0.369618 34.9817C0.755108 33.4737 1.43437 32.0563 2.3686 30.8104C4.25579 28.2949 7.06633 26.6308 10.1822 26.1839C13.2981 25.7369 16.4643 26.5438 18.9844 28.4271C20.2326 29.3598 21.2846 30.5289 22.0802 31.8676C22.8758 33.2062 23.3996 34.6883 23.6215 36.229C23.8435 37.7698 23.7593 39.3391 23.3738 40.8473C22.9882 42.3556 22.3089 43.7733 21.3746 45.0194Z" fill="#C7DEFF"/>
<path d="M102.656 95.3486H33.3444C32.7226 95.3486 32.1263 95.102 31.6867 94.6631C31.247 94.2241 31 93.6288 31 93.008V34.2221C31 33.5788 31.2558 32.9618 31.7111 32.5066C32.1664 32.0515 32.7841 31.7953 33.4284 31.7946H102.572C103.216 31.7953 103.834 32.0515 104.289 32.5066C104.744 32.9618 105 33.5788 105 34.2221V93.008C105 93.6288 104.753 94.2241 104.313 94.6631C103.874 95.102 103.277 95.3486 102.656 95.3486Z" fill="white"/>
<path d="M31 34.335C31.0006 33.1855 31.4577 32.0832 32.2708 31.2703C33.0839 30.4575 34.1865 30.0006 35.3364 30H100.567C101.717 30.0006 102.82 30.4575 103.633 31.2703C104.446 32.0832 104.903 33.1855 104.904 34.335H31Z" fill="#9AC7F7"/>
<path d="M99.3916 33.129C99.5819 33.129 99.7678 33.0726 99.926 32.967C100.084 32.8613 100.208 32.7111 100.28 32.5354C100.353 32.3597 100.372 32.1664 100.335 31.9798C100.298 31.7933 100.206 31.6219 100.072 31.4875C99.9373 31.353 99.7659 31.2614 99.5793 31.2243C99.3927 31.1872 99.1993 31.2062 99.0235 31.279C98.8477 31.3518 98.6975 31.475 98.5918 31.6332C98.4861 31.7913 98.4297 31.9772 98.4297 32.1674C98.4297 32.4225 98.531 32.667 98.7114 32.8474C98.8918 33.0277 99.1365 33.129 99.3916 33.129Z" fill="white"/>
<path d="M96.044 33.129C96.2342 33.129 96.4202 33.0726 96.5784 32.967C96.7366 32.8613 96.8599 32.7111 96.9327 32.5354C97.0055 32.3597 97.0245 32.1664 96.9874 31.9798C96.9503 31.7933 96.8587 31.6219 96.7241 31.4875C96.5896 31.353 96.4182 31.2614 96.2316 31.2243C96.045 31.1872 95.8516 31.2062 95.6758 31.279C95.5001 31.3518 95.3498 31.475 95.2441 31.6332C95.1384 31.7913 95.082 31.9772 95.082 32.1674C95.082 32.4225 95.1834 32.667 95.3638 32.8474C95.5442 33.0277 95.7888 33.129 96.044 33.129Z" fill="#0450CF"/>
<path d="M92.7002 33.129C92.8905 33.129 93.0764 33.0726 93.2346 32.967C93.3928 32.8613 93.5161 32.7111 93.5889 32.5354C93.6617 32.3597 93.6808 32.1664 93.6436 31.9798C93.6065 31.7933 93.5149 31.6219 93.3804 31.4875C93.2459 31.353 93.0745 31.2614 92.8879 31.2243C92.7013 31.1872 92.5079 31.2062 92.3321 31.279C92.1563 31.3518 92.0061 31.475 91.9004 31.6332C91.7947 31.7913 91.7383 31.9772 91.7383 32.1674C91.7383 32.4225 91.8396 32.667 92.02 32.8474C92.2004 33.0277 92.4451 33.129 92.7002 33.129Z" fill="#003E99"/>
<path d="M43.895 41.2086H35.7158V48.9816H43.895V41.2086Z" fill="#2A66C4"/>
<path d="M37.616 44.3056C37.5468 44.3028 37.4777 44.3142 37.413 44.3389C37.3492 44.3639 37.2914 44.402 37.2434 44.4508C37.1964 44.4985 37.1598 44.5553 37.1358 44.6178C37.1119 44.6802 37.101 44.7469 37.104 44.8137C37.1019 44.8818 37.1137 44.9497 37.1387 45.0131C37.1637 45.0766 37.2013 45.1342 37.2494 45.1827C37.2982 45.2305 37.3558 45.2685 37.4191 45.2946C37.484 45.3188 37.5527 45.3311 37.622 45.3309C37.6903 45.3311 37.7581 45.3188 37.8219 45.2946C37.8851 45.2714 37.9421 45.2342 37.9886 45.1857C38.0349 45.1376 38.0712 45.0807 38.0951 45.0183C38.1191 44.956 38.1302 44.8895 38.1279 44.8228C38.1305 44.7551 38.1195 44.6876 38.0956 44.6242C38.0716 44.5609 38.0353 44.5029 37.9886 44.4538C37.9422 44.4045 37.8852 44.3662 37.8219 44.3419C37.7579 44.3147 37.6885 44.3023 37.619 44.3056" fill="white"/>
<path d="M40.5167 45.9873H39.7957V47.1971H38.9111V43.0475H40.5167C41.5547 43.0475 42.0737 43.5274 42.0737 44.4871C42.0862 44.6903 42.0575 44.8938 41.9893 45.0855C41.9211 45.2773 41.8149 45.4534 41.6769 45.6032C41.5187 45.7408 41.3347 45.8457 41.1355 45.9117C40.9363 45.9776 40.7259 46.0033 40.5167 45.9873ZM39.7957 45.2644H40.5106C40.9529 45.2644 41.174 45.0013 41.174 44.4841C41.1918 44.287 41.1345 44.0904 41.0135 43.9336C40.9465 43.8735 40.8682 43.8273 40.7832 43.7976C40.6958 43.7669 40.6028 43.7555 40.5106 43.7643H39.7957V45.2644Z" fill="white"/>
<path d="M97.4139 41.2086H47.2422V42.8751H97.4139V41.2086Z" fill="#9AC7F7"/>
<path d="M97.4139 44.2604H47.2422V45.9269H97.4139V44.2604Z" fill="#9AC7F7"/>
<path d="M97.4139 47.3091H47.2422V48.9756H97.4139V47.3091Z" fill="#9AC7F7"/>
<path d="M97.414 55.7202H43.9736V56.8H97.414V55.7202Z" fill="#9AC7F7"/>
<path d="M83.0914 58.7839L43.9707 58.7627L43.9737 57.6799L83.0945 57.7011L83.0914 58.7839Z" fill="#9AC7F7"/>
<path d="M95.8632 63.3659L43.9678 63.3417L43.9708 62.262L95.8632 62.2892V63.3659Z" fill="#9AC7F7"/>
<path d="M57.8239 65.3197L43.9678 65.3166V64.2339L57.8239 64.243V65.3197Z" fill="#9AC7F7"/>
<path d="M76.3634 68.8252H43.9678V69.9049H76.3634V68.8252Z" fill="#9AC7F7"/>
<path d="M71.144 75.379H43.9648V76.4557H71.144V75.379Z" fill="#9AC7F7"/>
<path d="M97.3984 77.3604H43.958V78.4401H97.3984V77.3604Z" fill="#9AC7F7"/>
<path d="M86.0051 81.9363H43.958V83.013H86.0051V81.9363Z" fill="#9AC7F7"/>
<path d="M71.9087 87.9098H43.9541V88.9865H71.9087V87.9098Z" fill="#9AC7F7"/>
<path d="M36.0088 55.2937V59.1499H39.8712V55.2937H36.0088ZM39.2411 58.5269H36.6359V55.9228H39.2472L39.2411 58.5269Z" fill="#9AC7F7"/>
<path d="M36.0088 61.7541V65.6103H39.8742V61.7511L36.0088 61.7541ZM39.2381 64.9843H36.6359V62.3832H39.2411L39.2381 64.9843Z" fill="#9AC7F7"/>
<path d="M36.0068 68.2113V72.0675H39.8723V68.2113H36.0068ZM39.2361 71.4445H36.6339V68.8434H39.2391L39.2361 71.4445Z" fill="#9AC7F7"/>
<path d="M36.001 74.6683V78.5276H39.8604V74.6714L36.001 74.6683ZM39.2333 77.9015H36.6281V75.3005H39.2333V77.9015Z" fill="#9AC7F7"/>
<path d="M36.001 81.1288V84.985H39.8634V81.1318L36.001 81.1288ZM39.2272 84.362H36.625V81.7609H39.2302L39.2272 84.362Z" fill="#9AC7F7"/>
<path d="M39.8536 91.4452L39.8566 87.589H35.9942L35.9912 91.4422" fill="#9AC7F7"/>
<path d="M36.6182 90.8193L36.6212 88.2122L39.2264 88.2182L39.2234 90.8193" fill="#9AC7F7"/>
<path d="M37.0967 65.2292C37.0354 65.2294 36.9746 65.2176 36.9179 65.1942C36.8612 65.1708 36.8098 65.1365 36.7665 65.0931C36.6808 65.0065 36.6328 64.8897 36.6328 64.768C36.6328 64.6462 36.6808 64.5294 36.7665 64.4428L38.8446 62.368C38.8874 62.3249 38.9384 62.2906 38.9946 62.2672C39.0507 62.2438 39.111 62.2318 39.1718 62.2318C39.2326 62.2318 39.2929 62.2438 39.349 62.2672C39.4052 62.2906 39.4561 62.3249 39.4989 62.368C39.5422 62.4108 39.5765 62.4617 39.5999 62.5177C39.6233 62.5738 39.6354 62.6339 39.6354 62.6947C39.6354 62.7554 39.6233 62.8156 39.5999 62.8716C39.5765 62.9277 39.5422 62.9786 39.4989 63.0213L37.4208 65.0931C37.3351 65.1795 37.2185 65.2284 37.0967 65.2292Z" fill="#2A66C4"/>
<path d="M39.1603 65.229C39.099 65.2293 39.0383 65.2174 38.9816 65.194C38.9249 65.1707 38.8734 65.1363 38.8302 65.0929L36.7551 63.0181C36.6692 62.931 36.6211 62.8137 36.6211 62.6915C36.6211 62.5693 36.6692 62.452 36.7551 62.3648C36.8423 62.2791 36.9598 62.2311 37.0822 62.2311C37.2046 62.2311 37.3221 62.2791 37.4094 62.3648L39.4845 64.4427C39.5701 64.5293 39.6182 64.6461 39.6182 64.7678C39.6182 64.8895 39.5701 65.0063 39.4845 65.0929C39.3987 65.1793 39.2822 65.2283 39.1603 65.229Z" fill="#2A66C4"/>
<path d="M38.2662 58.2394C38.2032 58.2389 38.141 58.2258 38.0833 58.2009C38.0255 58.176 37.9733 58.1397 37.9299 58.0942L36.9666 57.078C36.9242 57.0345 36.891 56.983 36.8689 56.9265C36.8469 56.87 36.8364 56.8096 36.8381 56.749C36.8398 56.6884 36.8536 56.6287 36.8788 56.5735C36.904 56.5184 36.94 56.4688 36.9847 56.4277C37.0283 56.3855 37.0799 56.3523 37.1365 56.3303C37.1931 56.3082 37.2535 56.2978 37.3142 56.2994C37.375 56.3011 37.4347 56.315 37.49 56.3401C37.5453 56.3653 37.5949 56.4012 37.636 56.4459L38.2419 57.081L40.0595 54.8853C40.0976 54.8382 40.1448 54.7992 40.1981 54.7706C40.2515 54.7419 40.31 54.724 40.3703 54.7181C40.4307 54.7122 40.4915 54.7183 40.5495 54.7361C40.6074 54.7539 40.6612 54.783 40.7078 54.8217C40.8029 54.8992 40.8633 55.0112 40.8758 55.1331C40.8883 55.255 40.8518 55.3769 40.7744 55.472L38.6327 58.07C38.5911 58.1203 38.5394 58.1613 38.4809 58.1905C38.4225 58.2196 38.3587 58.2363 38.2934 58.2394H38.2662Z" fill="#2A66C4"/>
<path d="M38.4514 71.1542C38.3896 71.1542 38.3284 71.1416 38.2716 71.1172C38.2148 71.0927 38.1636 71.057 38.1212 71.0121L37.1518 69.9989C37.1092 69.9553 37.0757 69.9037 37.0533 69.8471C37.031 69.7905 37.0202 69.7299 37.0216 69.669C37.023 69.6082 37.0366 69.5482 37.0615 69.4927C37.0865 69.4371 37.1224 69.3871 37.167 69.3456C37.2097 69.3029 37.2605 69.269 37.3164 69.2459C37.3722 69.2228 37.4321 69.2109 37.4926 69.2109C37.5531 69.2109 37.613 69.2228 37.6689 69.2459C37.7247 69.269 37.7755 69.3029 37.8182 69.3456L38.4241 69.9837L40.2417 67.791C40.2796 67.7437 40.3266 67.7045 40.3799 67.6755C40.4331 67.6466 40.4916 67.6285 40.5519 67.6223C40.6122 67.6161 40.6732 67.6219 40.7312 67.6395C40.7893 67.657 40.8432 67.6859 40.89 67.7245C40.9844 67.8024 41.0443 67.9143 41.0568 68.036C41.0692 68.1576 41.0333 68.2793 40.9567 68.3747L38.821 70.9697C38.7796 71.0203 38.7279 71.0615 38.6695 71.0907C38.611 71.1199 38.547 71.1364 38.4817 71.1391L38.4514 71.1542Z" fill="#2A66C4"/>
<path d="M37.2914 77.708C37.2288 77.7084 37.1668 77.6957 37.1094 77.6707C37.052 77.6457 37.0005 77.609 36.9582 77.5629L35.9919 76.5497C35.9498 76.5057 35.9169 76.4539 35.895 76.3972C35.8731 76.3405 35.8627 76.28 35.8644 76.2192C35.8661 76.1585 35.8799 76.0987 35.9049 76.0432C35.9298 75.9878 35.9656 75.9379 36.01 75.8964C36.054 75.8548 36.1057 75.8224 36.1622 75.8008C36.2187 75.7792 36.2789 75.769 36.3394 75.7707C36.3999 75.7724 36.4595 75.7859 36.5147 75.8106C36.57 75.8353 36.6198 75.8706 36.6613 75.9145L37.2672 76.5497L39.0848 74.3539C39.1232 74.3068 39.1706 74.2677 39.2242 74.239C39.2778 74.2102 39.3366 74.1924 39.3972 74.1865C39.4578 74.1806 39.5189 74.1867 39.5771 74.2046C39.6352 74.2224 39.6893 74.2515 39.7361 74.2904C39.8307 74.3683 39.8906 74.4805 39.9025 74.6024C39.9144 74.7243 39.8775 74.8459 39.7997 74.9406L37.6792 77.5387C37.6378 77.5892 37.5862 77.6304 37.5277 77.6596C37.4692 77.6888 37.4052 77.7053 37.3399 77.708H37.2914Z" fill="#2A66C4"/>
<path d="M77.5997 82.1874H75.9941V86.3491H77.5997V82.1874Z" fill="#0066CC"/>
<path d="M70.9301 90.1446L67.2949 88.0668L68.0977 86.6967L71.7329 88.7714L70.9301 90.1446Z" fill="#0066CC"/>
<path d="M70.9301 95.014L67.2949 97.0979L68.0977 98.471L71.7329 96.3872L70.9301 95.014Z" fill="#0066CC"/>
<path d="M77.5997 98.8221H75.9941V102.975H77.5997V98.8221Z" fill="#0066CC"/>
<path d="M85.5082 86.6967L81.873 88.7745L82.6758 90.1506L86.311 88.0698L85.5082 86.6967Z" fill="#0066CC"/>
<path d="M100.638 99.539L88.5934 95.6707L76.5488 91.8024L80.4657 103.704L84.3736 115.605L88.6146 107.46L95.0459 113.812L98.8326 110.061L92.4013 103.71L100.638 99.539Z" fill="#3683F2"/>
<path d="M88.5934 95.6707L76.5488 91.8024L76.6761 92.2016L96.7999 112.082L98.8265 110.07L92.3952 103.719L100.638 99.539L88.5934 95.6707Z" fill="#7EB3FF"/>
<path d="M74.5638 19.1114C73.6216 20.3672 72.4409 21.4254 71.0891 22.2256C69.7373 23.0257 68.2409 23.5522 66.6853 23.7749C65.1296 23.9976 63.5453 23.9123 62.0228 23.5236C60.5002 23.135 59.0693 22.4506 57.8116 21.5098C56.552 20.5712 55.49 19.394 54.6863 18.0454C53.8827 16.6968 53.3532 15.2032 53.1281 13.6502C52.9031 12.0971 52.9868 10.515 53.3746 8.99423C53.7624 7.4735 54.4466 6.044 55.3881 4.78746C56.329 3.53038 57.5086 2.47061 58.8596 1.66868C60.2107 0.866761 61.7067 0.338405 63.2623 0.113725C64.8179 -0.110954 66.4026 -0.027563 67.9259 0.359206C69.4491 0.745975 70.8812 1.42854 72.1403 2.36787C73.4016 3.30759 74.465 4.48637 75.2696 5.8368C76.0742 7.18723 76.6042 8.68282 76.8293 10.238C77.0544 11.7931 76.9701 13.3773 76.5814 14.8999C76.1927 16.4225 75.507 17.8536 74.5638 19.1114Z" fill="#7EB3FF"/>
<path d="M129.179 50.8385C131.338 50.8385 133.087 49.0917 133.087 46.9369C133.087 44.7821 131.338 43.0353 129.179 43.0353C127.021 43.0353 125.271 44.7821 125.271 46.9369C125.271 49.0917 127.021 50.8385 129.179 50.8385Z" fill="#EAF4FF"/>
<path d="M62.9005 14.1605C62.9005 14.9394 62.5906 15.6864 62.039 16.2371C61.4874 16.7879 60.7392 17.0973 59.959 17.0973C59.1789 17.0973 58.4308 16.7879 57.8791 16.2371C57.3275 15.6864 57.0176 14.9394 57.0176 14.1605C57.0176 13.3816 57.3275 12.6347 57.8791 12.0839C58.4308 11.5332 59.1789 11.2238 59.959 11.2238C60.7392 11.2238 61.4874 11.5332 62.039 12.0839C62.5906 12.6347 62.9005 13.3816 62.9005 14.1605Z" fill="#C5E1F9"/>
<path d="M73.3918 13.71C73.3954 14.5907 73.0539 15.438 72.4404 16.0708C71.8269 16.7037 70.9898 17.0721 70.108 17.0974C69.2262 17.0721 68.3892 16.7037 67.7757 16.0708C67.1622 15.438 66.8207 14.5907 66.8242 13.71C66.8242 12.8404 67.1702 12.0065 67.786 11.3917C68.4019 10.7768 69.2371 10.4314 70.108 10.4314C70.9789 10.4314 71.8142 10.7768 72.43 11.3917C73.0459 12.0065 73.3918 12.8404 73.3918 13.71Z" fill="#C5E1F9"/>
<path d="M70.0982 10.4314C69.2273 10.4314 68.3921 10.7768 67.7763 11.3917C67.1604 12.0065 66.8145 12.8404 66.8145 13.71C66.8146 14.1563 66.9063 14.5979 67.0841 15.0074C67.6832 15.5395 68.4573 15.8334 69.2591 15.8332C70.13 15.8332 70.9653 15.4877 71.5811 14.8729C72.1969 14.258 72.5429 13.4241 72.5429 12.5546C72.5431 12.1082 72.4513 11.6666 72.2733 11.2571C71.6749 10.7238 70.9004 10.4298 70.0982 10.4314Z" fill="#EAF4FE"/>
<path d="M70.2804 17.0972C70.5227 16.5982 70.9135 16.0417 70.9135 15.4519C70.9139 14.9546 70.8161 14.462 70.6256 14.0024C70.4352 13.5428 70.1558 13.1252 69.8035 12.7735C69.4513 12.4218 69.033 12.1429 68.5727 11.9527C68.1123 11.7626 67.619 11.6649 67.1208 11.6653C65.0245 11.6653 61.9952 13.359 61.9952 15.4519C61.9952 16.0568 59.7171 16.5982 59.9595 17.0972H70.2804Z" fill="#C5E1F9"/>
<path d="M69.2563 11.2056C69.2563 12.481 68.7488 13.7042 67.8456 14.6061C66.9423 15.5079 65.7171 16.0146 64.4397 16.0146C63.1622 16.0146 61.9371 15.5079 61.0338 14.6061C60.1305 13.7042 59.623 12.481 59.623 11.2056C59.623 9.92995 60.1304 8.70646 61.0336 7.80413C61.9368 6.9018 63.162 6.39448 64.4397 6.39368C65.0725 6.39368 65.6991 6.51817 66.2836 6.76003C66.8682 7.00189 67.3993 7.35637 67.8466 7.80324C68.2939 8.25011 68.6487 8.78061 68.8905 9.3644C69.1324 9.9482 69.2567 10.5739 69.2563 11.2056Z" fill="#C5E1F9"/>
<path d="M63.0732 14.3452C63.706 14.3452 64.3326 14.2207 64.9171 13.9788C65.5017 13.737 66.0328 13.3825 66.4801 12.9356C66.9274 12.4888 67.2822 11.9583 67.5241 11.3745C67.7659 10.7907 67.8902 10.165 67.8898 9.53324C67.8915 8.79959 67.7246 8.07533 67.4021 7.4161C66.5568 6.75449 65.5135 6.39554 64.4394 6.39685C63.1617 6.39766 61.9366 6.90498 61.0334 7.80731C60.1302 8.70964 59.6228 9.93313 59.6228 11.2088V11.2391C58.906 11.3214 58.2444 11.664 57.7641 12.2016C57.2837 12.7391 57.018 13.4342 57.0176 14.1547C57.0214 14.5964 57.125 15.0316 57.3205 15.428C57.6065 15.5553 57.9161 15.6213 58.2293 15.6215C58.7921 15.6209 59.3343 15.4107 59.7501 15.032C60.1658 14.6533 60.425 14.1334 60.4771 13.5739C61.2498 14.0757 62.1514 14.3436 63.0732 14.3452Z" fill="#EAF4FE"/>
<path d="M65.8822 12.1464V11.2693C65.8814 10.9402 65.7499 10.6248 65.5165 10.3923C65.2831 10.1599 64.9668 10.0293 64.6372 10.0293H64.4524C64.1227 10.0293 63.8065 10.1599 63.5731 10.3923C63.3397 10.6248 63.2081 10.9402 63.2073 11.2693V12.1464H62.9316V14.9985H66.1579V12.1464H65.8822ZM63.7617 11.2693C63.7625 11.087 63.8356 10.9124 63.9651 10.7837C64.0945 10.655 64.2697 10.5828 64.4524 10.5828H64.6372C64.8198 10.5828 64.995 10.655 65.1245 10.7837C65.2539 10.9124 65.3271 11.087 65.3279 11.2693V12.1464H63.7617V11.2693ZM64.8613 14.1335H64.2282L64.3736 13.5982C64.3107 13.5675 64.2577 13.5197 64.2207 13.4603C64.1838 13.401 64.1643 13.3324 64.1646 13.2625C64.1646 13.2126 64.1745 13.1632 64.1937 13.1171C64.2129 13.071 64.2411 13.0292 64.2766 12.9941C64.3121 12.9589 64.3542 12.9311 64.4005 12.9123C64.4467 12.8935 64.4963 12.884 64.5463 12.8844C64.6467 12.8844 64.743 12.9243 64.814 12.9952C64.8851 13.0661 64.9249 13.1622 64.9249 13.2625C64.9252 13.3324 64.9058 13.401 64.8688 13.4603C64.8318 13.5197 64.7788 13.5675 64.7159 13.5982L64.8613 14.1335Z" fill="#2A66C4"/>
<path d="M132.583 50.1551C133.363 49.424 133.853 48.4375 133.965 47.3756C134.072 46.3197 133.791 45.2611 133.174 44.3965C132.538 43.5135 131.619 42.8734 130.569 42.5818C129.503 42.2765 128.366 42.3307 127.334 42.7361C126.32 43.1292 125.473 43.8586 124.934 44.8018C124.416 45.7197 124.248 46.7942 124.462 47.8263C124.685 48.8752 125.276 49.8103 126.128 50.4636C127.002 51.1368 128.075 51.5006 129.179 51.498C129.81 51.4985 130.436 51.3805 131.023 51.1502C131.603 50.923 132.133 50.585 132.583 50.1551ZM126.416 49.5503C125.782 48.9568 125.382 48.1563 125.289 47.294C125.203 46.4369 125.43 45.5776 125.928 44.8744C126.444 44.1507 127.192 43.6255 128.049 43.3864C128.915 43.1381 129.838 43.1806 130.678 43.5073C131.503 43.827 132.192 44.4195 132.632 45.1859C133.055 45.936 133.192 46.8139 133.017 47.6569C132.834 48.5093 132.354 49.2693 131.663 49.8013C130.953 50.3478 130.081 50.6436 129.185 50.6421C128.672 50.643 128.165 50.5475 127.688 50.3608C127.218 50.1768 126.788 49.9036 126.422 49.5563L126.416 49.5503Z" fill="#0058B0"/>
<path opacity="0.2" d="M129.891 43.8517C129.624 43.5921 129.309 43.3867 128.964 43.2468C128.618 43.1049 128.247 43.032 127.873 43.0321C127.499 43.0327 127.128 43.1067 126.782 43.2499C126.444 43.392 126.135 43.5973 125.874 43.8548C125.615 44.1157 125.41 44.4237 125.268 44.7621C125.126 45.1065 125.053 45.4754 125.053 45.8479C125.054 46.2208 125.13 46.5897 125.274 46.9337C125.414 47.273 125.62 47.5813 125.88 47.841C126.141 48.0996 126.449 48.305 126.789 48.4459C127.135 48.5878 127.505 48.6608 127.879 48.6607C128.253 48.6586 128.623 48.5846 128.97 48.4429C129.309 48.3016 129.617 48.0962 129.878 47.838C130.138 47.5778 130.343 47.2696 130.484 46.9307C130.627 46.5853 130.7 46.2154 130.699 45.8419C130.699 45.4701 130.625 45.1021 130.481 44.7591C130.339 44.4209 130.133 44.113 129.875 43.8517H129.891Z" fill="white"/>
<path d="M125.038 46.9279C125.039 46.407 125.148 45.892 125.356 45.4145C125.564 44.937 125.869 44.5072 126.25 44.1514C127.041 43.4081 128.089 42.9966 129.176 43.0021C130.263 42.9966 131.31 43.4081 132.102 44.1514C132.482 44.5076 132.785 44.9371 132.993 45.4138C133.202 45.8906 133.311 46.4047 133.314 46.9248H133.717C133.713 46.3532 133.593 45.7883 133.363 45.2647C133.133 44.741 132.799 44.2696 132.381 43.8792C131.509 43.0667 130.36 42.6168 129.167 42.621C127.974 42.6182 126.825 43.0716 125.956 43.8883C125.538 44.2793 125.205 44.7514 124.977 45.2757C124.749 45.8 124.63 46.3653 124.629 46.9369L125.038 46.9279Z" fill="#606060"/>
<path d="M125.213 49.3353L119.852 54.4558L121.242 55.7745L126.604 50.654L125.213 49.3353Z" fill="#0058B0"/>
<path d="M120.909 56.0922C120.727 56.0927 120.546 56.0589 120.376 55.9924C120.208 55.9268 120.055 55.8292 119.925 55.705C119.796 55.5847 119.693 55.4396 119.622 55.2786C119.552 55.1192 119.516 54.9473 119.516 54.7735L119.852 54.4711L121.242 55.7897L120.909 56.0922Z" fill="#C5E1F9"/>
<path d="M120.786 55.9682L120.18 55.3845L120.483 55.1123L121.088 55.696L120.786 55.9682Z" fill="#EAF4FE"/>
<path d="M14.9791 38.907C14.8375 39.3566 14.5986 39.7696 14.2793 40.1168L16.6664 43.4437C17.8995 42.3942 18.746 40.9635 19.0717 39.3788L14.9791 38.907Z" fill="#D98F00"/>
<path d="M12.541 34.6968C13.2242 34.8397 13.8436 35.1971 14.3085 35.7169C14.7735 36.2366 15.0597 36.8913 15.125 37.5851L19.2146 38.0358C19.2146 37.9904 19.2146 37.9451 19.2146 37.8967C19.2116 36.0728 18.5266 34.3157 17.2939 32.9696C16.0611 31.6236 14.3694 30.7856 12.5501 30.6198L12.541 34.6968Z" fill="#0058B0"/>
<path d="M9.44832 35.7039C9.9129 35.1915 10.5279 34.839 11.2053 34.6968V30.6198C10.1577 30.7161 9.14309 31.0361 8.23005 31.5579C7.31701 32.0796 6.52686 32.7912 5.91309 33.6442L9.44832 35.7039Z" fill="#80B4FB"/>
<path d="M13.1985 40.882C12.7812 41.0693 12.329 41.1662 11.8716 41.1663C11.4409 41.1671 11.0143 41.0831 10.6161 40.9192C10.2179 40.7553 9.85603 40.5146 9.55106 40.211C9.24609 39.9074 9.00405 39.5467 8.83877 39.1496C8.67349 38.7525 8.58819 38.3268 8.58779 37.8968C8.5928 37.5401 8.65624 37.1866 8.77561 36.8504L5.23435 34.7786C4.76535 35.7514 4.52203 36.8172 4.52246 37.8968C4.52647 39.8394 5.3028 41.7008 6.68086 43.0722C8.05891 44.4435 9.92595 45.2125 11.8716 45.21C13.1767 45.2103 14.4581 44.8614 15.5825 44.1998L13.1985 40.882Z" fill="#003E99"/>
</g>
<defs>
<clipPath id="clip0_13760_305803">
<rect width="141" height="115.605" fill="white"/>
</clipPath>
</defs>
</svg>
