<svg width="137" height="113" viewBox="0 0 137 113" fill="none" xmlns="http://www.w3.org/2000/svg">
<g clip-path="url(#clip0_13760_306150)">
<path d="M128.961 0H8.03898C3.59985 0 0 3.86599 0 8.63679V76.4973C0 81.268 3.59985 85.134 8.03898 85.134H128.961C133.4 85.134 137 81.268 137 76.4973V8.63679C137 3.86599 133.4 0 128.961 0Z" fill="white"/>
<path d="M81.0194 63.1595H12.0273C10.3705 63.1595 9.02734 64.5027 9.02734 66.1595V85.134H84.0194V66.1595C84.0194 64.5027 82.6763 63.1595 81.0194 63.1595Z" fill="#F0F6FC" fill-opacity="0.85"/>
<path d="M16.3129 76.8632H13.4824V85.1339H16.3129V76.8632Z" fill="#9BC7F4"/>
<path d="M20.559 73.9514H17.7285V85.134H20.559V73.9514Z" fill="#FFBF0D"/>
<path d="M24.801 75.9132H21.9746V85.134H24.801V75.9132Z" fill="#80B4FB"/>
<path d="M29.0463 69.8346H26.2158V85.134H29.0463V69.8346Z" fill="#0058B0"/>
<path d="M75.9473 73.0343H34.7773V74.3463H75.9473V73.0343Z" fill="#9BC7F4"/>
<path d="M74.4991 75.5883H34.7773V76.6864H74.4991V75.5883Z" fill="#9BC7F4"/>
<path d="M59.9022 78.0066H34.7773V79.5818H59.9022V78.0066Z" fill="#9BC7F4"/>
<path d="M52.6206 70.0813H34.6172V71.455H52.6206V70.0813Z" fill="#9BC7F4"/>
<path d="M0.135742 8.0281C0.136832 5.89925 0.983277 3.8579 2.4891 2.35258C3.99492 0.847255 6.03694 0.00108976 8.16649 0H128.969C131.099 0.00108976 133.141 0.847255 134.647 2.35258C136.152 3.8579 136.999 5.89925 137 8.0281H0.135742Z" fill="#9AC7F7"/>
<path d="M126.789 5.79492C127.142 5.79492 127.486 5.69048 127.779 5.4948C128.072 5.29912 128.3 5.02099 128.435 4.69559C128.57 4.37019 128.605 4.01212 128.536 3.66668C128.468 3.32123 128.298 3.00392 128.049 2.75487C127.8 2.50582 127.482 2.33621 127.137 2.2675C126.791 2.19878 126.433 2.23405 126.108 2.36883C125.782 2.50362 125.504 2.73187 125.308 3.02473C125.112 3.31758 125.008 3.66189 125.008 4.0141C125.008 4.4864 125.195 4.93936 125.53 5.27333C125.864 5.6073 126.317 5.79492 126.789 5.79492Z" fill="white"/>
<path d="M120.593 5.79492C120.945 5.79492 121.29 5.69048 121.583 5.4948C121.876 5.29912 122.104 5.02099 122.239 4.69559C122.374 4.37019 122.409 4.01212 122.34 3.66668C122.271 3.32123 122.102 3.00392 121.853 2.75487C121.603 2.50582 121.286 2.33621 120.94 2.2675C120.595 2.19878 120.237 2.23405 119.911 2.36883C119.586 2.50362 119.307 2.73187 119.112 3.02473C118.916 3.31758 118.812 3.66189 118.812 4.0141C118.812 4.4864 118.999 4.93936 119.333 5.27333C119.667 5.6073 120.12 5.79492 120.593 5.79492Z" fill="#0450CF"/>
<path d="M114.402 5.79492C114.754 5.79492 115.098 5.69048 115.391 5.4948C115.684 5.29912 115.913 5.02099 116.047 4.69559C116.182 4.37019 116.217 4.01212 116.149 3.66668C116.08 3.32123 115.91 3.00392 115.661 2.75487C115.412 2.50582 115.095 2.33621 114.749 2.2675C114.404 2.19878 114.045 2.23405 113.72 2.36883C113.394 2.50362 113.116 2.73187 112.92 3.02473C112.725 3.31758 112.62 3.66189 112.62 4.0141C112.62 4.4864 112.808 4.93936 113.142 5.27333C113.476 5.6073 113.929 5.79492 114.402 5.79492Z" fill="#003E99"/>
<path d="M18.3318 51.2408C18.2143 51.2362 18.0971 51.2557 17.9874 51.2981C17.8777 51.3406 17.7779 51.405 17.6941 51.4876C17.6153 51.5702 17.5536 51.6676 17.5126 51.7742C17.4716 51.8808 17.4522 51.9945 17.4555 52.1086C17.4518 52.2251 17.4722 52.3411 17.5153 52.4494C17.5585 52.5577 17.6236 52.6559 17.7065 52.7379C17.788 52.8225 17.8868 52.8887 17.9961 52.932C18.1053 52.9752 18.2226 52.9946 18.34 52.9887C18.4566 52.9928 18.5727 52.9732 18.6815 52.9312C18.7901 52.8898 18.8884 52.8253 18.9695 52.742C19.0487 52.6596 19.1107 52.5623 19.1517 52.4556C19.1927 52.3489 19.2119 52.2352 19.2081 52.121C19.2129 51.8883 19.1274 51.6628 18.9695 51.4917C18.8884 51.4076 18.7903 51.3417 18.6818 51.2985C18.5733 51.2552 18.4568 51.2356 18.34 51.2408" fill="white"/>
<path d="M23.29 54.1156H22.0558V56.172H20.5459V49.0898H23.29C25.0591 49.0898 25.945 49.9124 25.9477 51.5575C25.9712 51.9054 25.9226 52.2544 25.8051 52.5828C25.6876 52.9111 25.5037 53.2117 25.2648 53.4658C24.9965 53.7016 24.6832 53.8808 24.3438 53.9924C24.0045 54.1041 23.646 54.146 23.29 54.1156ZM22.0558 52.8818H23.29C24.047 52.8818 24.4214 52.4294 24.4214 51.5452C24.4538 51.2088 24.355 50.8729 24.1457 50.6075C24.0275 50.4991 23.8871 50.4177 23.7343 50.3689C23.5864 50.3181 23.4292 50.2999 23.2736 50.3154H22.0393L22.0558 52.8818Z" fill="white"/>
<path d="M81.5318 33H11.4602C10.1015 33 9 34.1011 9 35.4594V56.9856C9 58.3439 10.1015 59.445 11.4602 59.445H81.5318C82.8906 59.445 83.9921 58.3439 83.9921 56.9856V35.4594C83.9921 34.1011 82.8906 33 81.5318 33Z" fill="#F0F6FC" fill-opacity="0.85"/>
<path d="M128.068 32.6353H91.1988C89.8334 32.6353 88.7266 33.715 88.7266 35.0469V74.0772C88.7266 75.4091 89.8334 76.4888 91.1988 76.4888H128.068C129.434 76.4888 130.54 75.4091 130.54 74.0772V35.0469C130.54 33.715 129.434 32.6353 128.068 32.6353Z" fill="#F0F6FC" fill-opacity="0.85"/>
<path d="M126.789 38.4091H93.3867V39.5277H126.789V38.4091Z" fill="#9BC7F4"/>
<path d="M125.613 40.4612H93.3867V41.5799H125.613V40.4612Z" fill="#9BC7F4"/>
<path d="M126.789 49.0857H93.3867V50.2085H126.789V49.0857Z" fill="#9BC7F4"/>
<path d="M126.789 42.4683H93.3867V43.5869H126.789V42.4683Z" fill="#9BC7F4"/>
<path d="M128.636 12.7495H107.777V13.8682H128.636V12.7495Z" fill="#2A66C4"/>
<path d="M128.632 14.8018H108.51V15.9204H128.632V14.8018Z" fill="#2A66C4"/>
<path d="M128.632 16.8088H119.737V17.9275H128.632V16.8088Z" fill="#2A66C4"/>
<path d="M125.613 44.5165H93.3867V45.6351H125.613V44.5165Z" fill="#9BC7F4"/>
<path d="M126.789 46.5646H93.3867V47.6874H126.789V46.5646Z" fill="#9BC7F4"/>
<path d="M114.331 63.2994C114.136 63.9096 113.812 64.4707 113.381 64.9445L116.619 69.4686C118.302 68.0451 119.461 66.0992 119.91 63.941L114.331 63.2994Z" fill="#D98F00"/>
<path d="M111.015 57.5786C111.943 57.7748 112.784 58.2619 113.416 58.9691C114.048 59.6762 114.438 60.5665 114.529 61.5104L120.078 62.1027C120.078 62.0369 120.078 61.9752 120.078 61.9135C120.074 59.43 119.141 57.038 117.462 55.2071C115.784 53.3763 113.481 52.2388 111.007 52.0182L111.015 57.5786Z" fill="#0058B0"/>
<path d="M106.819 58.9441C107.449 58.2451 108.284 57.7641 109.205 57.5704V52.0305C107.782 52.1589 106.403 52.5928 105.162 53.3026C103.922 54.0124 102.849 54.9813 102.018 56.1433L106.819 58.9441Z" fill="#80B4FB"/>
<path d="M111.904 65.9851C111.226 66.2851 110.485 66.4116 109.746 66.3531C109.007 66.2946 108.295 66.053 107.673 65.6501C107.051 65.2471 106.539 64.6956 106.184 64.0454C105.829 63.3951 105.641 62.6666 105.638 61.9258C105.644 61.4406 105.731 60.9598 105.893 60.5027L101.084 57.6814C100.45 59.0066 100.119 60.4567 100.117 61.9258C100.121 63.68 100.587 65.4023 101.47 66.9185C102.353 68.4347 103.62 69.6911 105.144 70.5607C106.668 71.4304 108.395 71.8824 110.15 71.8712C111.904 71.8599 113.625 71.3858 115.138 70.4967L111.904 65.9851Z" fill="#FFBF0D"/>
<path d="M22.0761 55.2013C27.1567 55.2013 31.2753 51.0841 31.2753 46.0052C31.2753 40.9263 27.1567 36.8091 22.0761 36.8091C16.9956 36.8091 12.877 40.9263 12.877 46.0052C12.877 51.0841 16.9956 55.2013 22.0761 55.2013Z" fill="white"/>
<path d="M20.5703 41.8761H21.3026V41.3291H20.5703V41.8761Z" fill="#C6E0F6" stroke="#F1D041" stroke-width="0.261762" stroke-miterlimit="10"/>
<path d="M20.8096 41.5963H21.7805V41.0535H20.8096V41.5963Z" fill="#0F69C8" stroke="#0F69C8" stroke-width="0.125782" stroke-miterlimit="10"/>
<path d="M23.8164 50.2045V43.657L17.168 44.9443V50.2168" fill="#B0CCF2"/>
<path d="M25.0957 50.2044V41.325L21.7715 42.0735V50.2044" fill="white"/>
<path d="M25.0961 46.0052L26.281 46.3178V50.2044L24.8945 50.1756L25.0961 46.0052Z" fill="#C6E0F6"/>
<path d="M25.0957 50.2044V41.325L21.7715 42.0735V50.2044" fill="#3865B1"/>
<path d="M27.0662 50.7225H16.5176" stroke="#0F69C8" stroke-width="0.125782" stroke-miterlimit="10"/>
<path d="M16.5176 50.7227V50.2045H27.0374V50.7227" fill="#155CA9"/>
<path d="M21.7803 42.0734V40.745" stroke="#155CA9" stroke-width="0.183573" stroke-miterlimit="10"/>
<path d="M24.1416 42.5012H22.4219V43.3896H24.1416V42.5012Z" fill="#B0CCF2"/>
<path d="M24.1416 43.8502H22.4219V44.7345H24.1416V43.8502Z" fill="#B0CCF2"/>
<path d="M24.1416 45.191H22.4219V46.0629H24.1416V45.191Z" fill="#B0CCF2"/>
<path d="M24.1416 46.5399H22.4219V47.4242H24.1416V46.5399Z" fill="#B0CCF2"/>
<path d="M25.0962 42.5012H24.6025V43.3896H25.0962V42.5012Z" fill="#B0CCF2"/>
<path d="M25.0962 43.8502H24.6025V44.7345H25.0962V43.8502Z" fill="#B0CCF2"/>
<path d="M25.0962 45.191H24.6025V46.0629H25.0962V45.191Z" fill="#B0CCF2"/>
<path d="M25.0962 46.5399H24.6025V47.4242H25.0962V46.5399Z" fill="#B0CCF2"/>
<path d="M24.4668 49.423H22.5537V50.2044H24.4668V49.423Z" fill="#B0CCF2"/>
<path d="M18.332 47.8683H19.0643V47.3254H18.332V47.8683Z" fill="#C6E0F6" stroke="#F1D041" stroke-width="0.261762" stroke-miterlimit="10"/>
<path d="M18.5918 47.5969H19.5545V47.0499H18.5918V47.5969Z" fill="#0F69C8" stroke="#0F69C8" stroke-width="0.125782" stroke-miterlimit="10"/>
<path d="M19.5547 50.2044V46.8442" stroke="#155CA9" stroke-width="0.183573" stroke-miterlimit="10"/>
<path d="M19.0117 46.4742H19.7481V45.9313H19.0117V46.4742Z" fill="#C6E0F6" stroke="#F1D041" stroke-width="0.261762" stroke-miterlimit="10"/>
<path d="M19.2627 46.2151H20.2336V45.6516H19.2627V46.2151Z" fill="#0F69C8" stroke="#0F69C8" stroke-width="0.125782" stroke-miterlimit="10"/>
<path d="M20.2334 50.2045V45.4584" stroke="#155CA9" stroke-width="0.183573" stroke-miterlimit="10"/>
<path d="M17.7285 49.2051H18.4567V48.6581H17.7285V49.2051Z" fill="#C6E0F6" stroke="#F1D041" stroke-width="0.261762" stroke-miterlimit="10"/>
<path d="M17.9707 48.9418H18.9252V48.3948H17.9707V48.9418Z" fill="#0F69C8" stroke="#0F69C8" stroke-width="0.125782" stroke-miterlimit="10"/>
<path d="M18.9248 50.2043V48.1726" stroke="#155CA9" stroke-width="0.183573" stroke-miterlimit="10"/>
<path d="M21.7184 12.4905H9.16211V24.4175H21.7184V12.4905Z" fill="#2A66C4"/>
<path d="M12.087 17.2448C11.9817 17.2427 11.877 17.2609 11.7785 17.2983C11.681 17.3352 11.5925 17.3927 11.5193 17.4669C11.4475 17.5407 11.3914 17.6283 11.3546 17.7245C11.3178 17.8207 11.3011 17.9233 11.3054 18.0262C11.301 18.1297 11.3177 18.233 11.3545 18.3299C11.3913 18.4267 11.4473 18.5151 11.5193 18.5897C11.5939 18.6652 11.6836 18.724 11.7826 18.7624C11.8802 18.803 11.9856 18.8213 12.0912 18.8159C12.1967 18.8209 12.302 18.8026 12.3997 18.7624C12.4955 18.7244 12.5824 18.667 12.6548 18.5938C12.7252 18.5198 12.7803 18.4327 12.817 18.3374C12.8537 18.2422 12.8713 18.1406 12.8687 18.0386C12.8723 17.829 12.7958 17.626 12.6548 17.471C12.5814 17.3979 12.4949 17.3393 12.3997 17.2983C12.3012 17.2609 12.1965 17.2427 12.0912 17.2448" fill="white"/>
<path d="M16.5393 19.8276H15.4368V21.6825H14.0791V15.3159H16.5476C18.1384 15.3159 18.9338 16.0521 18.9338 17.5245C18.9548 17.8368 18.9117 18.15 18.807 18.445C18.7023 18.74 18.5382 19.0104 18.3249 19.2395C18.0822 19.4527 17.799 19.6146 17.4921 19.7157C17.1853 19.8168 16.8612 19.8548 16.5393 19.8276ZM15.4368 18.7213H16.5311C17.2099 18.7213 17.5473 18.31 17.5473 17.5245C17.5708 17.2291 17.4828 16.9356 17.3005 16.7019C17.1984 16.6057 17.077 16.5325 16.9443 16.4871C16.8116 16.4417 16.6707 16.4252 16.5311 16.4387H15.4368V18.7213Z" fill="white"/>
<path d="M89.0827 68.7776L87.1368 68.3663L86.0342 73.4785L87.9843 73.8898L89.0827 68.7776Z" fill="#67ACF5"/>
<path d="M78.8845 76.814L75.0049 73.314L76.3461 71.8375L80.2216 75.3416L78.8845 76.814Z" fill="#67ACF5"/>
<path d="M77.596 82.7898L72.6221 84.3979L73.2351 86.2897L78.209 84.6858L77.596 82.7898Z" fill="#67ACF5"/>
<path d="M84.6843 89.2057L82.7383 88.7944L81.6357 93.8942L83.5858 94.3055L84.6843 89.2057Z" fill="#67ACF5"/>
<path d="M97.5044 76.3821L92.5264 77.9819L93.1394 79.882L98.1133 78.2781L97.5044 76.3821Z" fill="#67ACF5"/>
<path d="M112.455 96.1068L98.8783 88.2103L85.3018 80.3138L86.9021 95.9423L88.5025 111.571L95.7969 102.679L101.919 112.167L107.473 108.577L101.347 99.0968L112.455 96.1068Z" fill="#D68D21"/>
<path d="M98.8578 88.2103L85.2812 80.3138L85.3306 80.8362L104.498 110.51L107.489 108.568L101.363 99.0886L112.471 96.1068L98.8578 88.2103Z" fill="#FDCA2F"/>
<path d="M38.0309 48.1399C37.6707 48.2235 37.3023 48.2676 36.9325 48.2715C36.6653 48.2832 36.3984 48.2426 36.1467 48.1522C35.9566 48.0744 35.7955 47.9392 35.6859 47.7656C35.5708 47.5749 35.4926 47.3642 35.4555 47.1446C35.4102 46.8479 35.3896 46.548 35.3938 46.248C35.3455 45.7003 35.457 45.1503 35.7147 44.6646C35.8602 44.5009 36.0433 44.3749 36.2483 44.2976C36.4532 44.2202 36.6739 44.1937 36.8913 44.2204C37.2775 44.2264 37.6615 44.2789 38.0351 44.3767V45.0101C37.7225 44.9553 37.4061 44.9251 37.0888 44.9196C36.9033 44.9064 36.7175 44.9419 36.5499 45.0224C36.424 45.1144 36.3385 45.2514 36.3113 45.4049C36.2466 45.7214 36.2203 46.0445 36.2331 46.3673C36.2046 46.6834 36.2511 47.0019 36.3688 47.2967C36.4426 47.3915 36.5399 47.4653 36.6511 47.5108C36.7622 47.5563 36.8834 47.5718 37.0024 47.5558C37.3412 47.5549 37.6795 47.5287 38.0145 47.4777L38.0309 48.1399Z" fill="#2A66C4"/>
<path d="M38.7181 45.6517C38.9975 45.3918 39.365 45.2473 39.7466 45.2473C40.1283 45.2473 40.4957 45.3918 40.7751 45.6517C40.998 45.9758 41.1052 46.3655 41.0796 46.758C41.0796 47.7697 40.6394 48.2715 39.7548 48.2715C38.8703 48.2715 38.4301 47.7697 38.4301 46.758C38.3997 46.3674 38.5011 45.9779 38.7181 45.6517ZM39.3146 47.4078C39.3644 47.4689 39.4271 47.5181 39.4983 47.5519C39.5695 47.5857 39.6473 47.6032 39.726 47.6032C39.8048 47.6032 39.8826 47.5857 39.9538 47.5519C40.0249 47.5181 40.0877 47.4689 40.1375 47.4078C40.23 47.2043 40.271 46.9811 40.2568 46.758C40.2711 46.5362 40.2302 46.3143 40.1375 46.1123C40.0865 46.0532 40.0233 46.0057 39.9523 45.9732C39.8813 45.9406 39.8041 45.9238 39.726 45.9238C39.6479 45.9238 39.5708 45.9406 39.4998 45.9732C39.4288 46.0057 39.3656 46.0532 39.3146 46.1123C39.2199 46.3137 39.1788 46.5361 39.1953 46.758C39.179 46.9812 39.2201 47.2049 39.3146 47.4078Z" fill="#2A66C4"/>
<path d="M42.3963 48.2014H41.627V45.3225H42.3757V45.487C42.5778 45.3519 42.812 45.2724 43.0546 45.2566C43.187 45.2482 43.3197 45.268 43.4438 45.3148C43.5679 45.3616 43.6807 45.4343 43.7745 45.5281C44.0708 45.3625 44.4021 45.2695 44.7413 45.2566C44.8907 45.2399 45.0419 45.2613 45.1808 45.3188C45.3197 45.3763 45.4417 45.4682 45.5354 45.5857C45.7073 45.9101 45.7843 46.2765 45.7575 46.6426V48.2014H44.9841V46.6673C44.9955 46.4812 44.9674 46.2948 44.9018 46.1203C44.8726 46.062 44.8261 46.0141 44.7687 45.9832C44.7112 45.9523 44.6457 45.9399 44.5809 45.9476C44.4284 45.9519 44.2774 45.9782 44.1324 46.0257L44.0461 46.0545C44.0461 46.3424 44.0666 46.5604 44.0666 46.7126V48.2014H43.2973V46.7249C43.3084 46.5206 43.2833 46.3159 43.2232 46.1203C43.1931 46.0609 43.1452 46.0124 43.0862 45.9815C43.0273 45.9505 42.9601 45.9387 42.8941 45.9476C42.7425 45.9468 42.592 45.9732 42.4498 46.0257L42.3798 46.0504L42.3963 48.2014Z" fill="#2A66C4"/>
<path d="M48.1558 45.3225H48.9293V48.2014H48.164V48.041C47.9472 48.1769 47.6996 48.2561 47.4441 48.2714C47.2901 48.2941 47.1328 48.2757 46.9882 48.2179C46.8437 48.1601 46.717 48.065 46.6212 47.9423C46.4551 47.597 46.3827 47.214 46.4114 46.8319V45.3225H47.1849V46.8442C47.1715 47.0416 47.1952 47.2396 47.2548 47.4282C47.3001 47.5311 47.4111 47.5804 47.5881 47.5804C47.7505 47.5823 47.912 47.5558 48.0653 47.5023L48.1393 47.4776L48.1558 45.3225Z" fill="#2A66C4"/>
<path d="M50.4141 48.2014H49.6406V45.3225H50.41V45.487C50.6244 45.3458 50.8734 45.2661 51.1299 45.2567C51.2801 45.2397 51.4322 45.2618 51.5713 45.3209C51.7105 45.3799 51.8319 45.474 51.924 45.5939C52.0909 45.9171 52.1663 46.2798 52.142 46.6427V48.2014H51.3727V46.6673C51.381 46.4811 51.3516 46.295 51.2863 46.1204C51.2513 46.0605 51.1996 46.0122 51.1374 45.9815C51.0752 45.9507 51.0054 45.939 50.9366 45.9476C50.7823 45.9464 50.629 45.9729 50.484 46.0258L50.4141 46.0504V48.2014Z" fill="#2A66C4"/>
<path d="M53.6028 47.4736C53.7195 47.5647 53.8668 47.6074 54.0142 47.5928C54.368 47.5928 54.6889 47.5928 54.9687 47.5599H55.1291V48.1316C54.7378 48.2322 54.3359 48.286 53.9319 48.292C53.7584 48.308 53.5836 48.2854 53.4199 48.2256C53.2563 48.1659 53.108 48.0705 52.9857 47.9465C52.7608 47.6175 52.6575 47.2206 52.6936 46.8237C52.6936 45.7928 53.1173 45.2773 53.9648 45.2773C54.7876 45.2773 55.1991 45.6886 55.1991 46.577L55.1415 47.1116H53.4835C53.4786 47.1768 53.4866 47.2424 53.5071 47.3045C53.5276 47.3666 53.5601 47.424 53.6028 47.4736ZM54.4544 46.5029C54.4713 46.336 54.4322 46.1682 54.3433 46.0259C54.2938 45.976 54.2337 45.938 54.1675 45.9145C54.1012 45.891 54.0306 45.8827 53.9607 45.8901C53.8898 45.8819 53.818 45.8903 53.7509 45.9145C53.6838 45.9388 53.6232 45.9783 53.574 46.03C53.4858 46.1713 53.4441 46.3367 53.4547 46.5029H54.4544Z" fill="#2A66C4"/>
<path d="M59.4818 44.1751V48.2015H58.7125V48.0822C58.4976 48.1959 58.2601 48.2605 58.0172 48.2714C57.8525 48.2898 57.6857 48.2663 57.5325 48.203C57.3793 48.1397 57.2446 48.0388 57.1409 47.9095C56.9504 47.5585 56.8647 47.1602 56.8941 46.762C56.8599 46.357 56.9643 45.9524 57.1903 45.6146C57.3026 45.4906 57.4418 45.3939 57.5973 45.3319C57.7527 45.2698 57.9203 45.2442 58.0872 45.2568C58.2586 45.2606 58.4293 45.2798 58.5973 45.3143H58.7084V44.1545L59.4818 44.1751ZM58.6261 47.5147H58.7084V45.9806C58.5225 45.9453 58.3339 45.926 58.1447 45.923C57.8321 45.923 57.6757 46.1986 57.6757 46.7456C57.6611 46.9635 57.6977 47.1818 57.7827 47.383C57.8148 47.4446 57.8643 47.4953 57.925 47.529C57.9857 47.5626 58.055 47.5777 58.1242 47.5722C58.2932 47.5743 58.4619 47.5549 58.6261 47.5147Z" fill="#2A66C4"/>
<path d="M60.1934 44.9566V44.1752H60.9668V44.9566H60.1934ZM60.1934 48.2016V45.3226H60.9668V48.2016H60.1934Z" fill="#2A66C4"/>
<path d="M62.666 44.9894V44.2903H65.5459V44.9894H64.5091V48.2015H63.7151V44.9894H62.666Z" fill="#2A66C4"/>
<path d="M65.9775 44.9566V44.1752H66.7469V44.9566H65.9775ZM65.9775 48.2016V45.3226H66.7469V48.2016H65.9775Z" fill="#2A66C4"/>
<path d="M67.1924 45.3225H68.0152L68.476 47.5475H68.6364L69.1178 45.3225H69.8995L69.2124 48.2014H67.8836L67.1924 45.3225Z" fill="#2A66C4"/>
<path d="M70.4459 45.6515C70.7258 45.3925 71.0931 45.2487 71.4745 45.2487C71.8558 45.2487 72.2231 45.3925 72.503 45.6515C72.7238 45.9766 72.8308 46.3656 72.8074 46.7579C72.8074 47.7696 72.3672 48.2713 71.4827 48.2713C70.5982 48.2713 70.158 47.7696 70.158 46.7579C70.1297 46.3675 70.2309 45.9786 70.4459 45.6515ZM71.0425 47.4077C71.0924 47.4725 71.1566 47.525 71.2301 47.5612C71.3036 47.5973 71.3844 47.6161 71.4662 47.6161C71.5481 47.6161 71.6289 47.5973 71.7024 47.5612C71.7759 47.525 71.84 47.4725 71.89 47.4077C71.9825 47.2041 72.0235 46.981 72.0093 46.7579C72.0237 46.5361 71.9827 46.3142 71.89 46.1122C71.8387 46.0494 71.774 45.9987 71.7007 45.964C71.6275 45.9292 71.5474 45.9112 71.4662 45.9112C71.3851 45.9112 71.305 45.9292 71.2317 45.964C71.1585 45.9987 71.0938 46.0494 71.0425 46.1122C70.9515 46.3146 70.912 46.5364 70.9273 46.7579C70.912 46.9806 70.9515 47.2037 71.0425 47.4077Z" fill="#2A66C4"/>
<path d="M73.3916 48.2016V44.1752H74.1609V48.2016H73.3916Z" fill="#2A66C4"/>
<path d="M74.9102 44.9566V44.1752H75.7001V44.9566H74.9102ZM74.9102 48.2016V45.3226H75.7001V48.2016H74.9102Z" fill="#2A66C4"/>
<path d="M84.0176 12.7495H24.8525V13.9998H84.0176V12.7495Z" fill="#9AC7F7"/>
<path d="M69.2726 14.6868H24.8525V15.937H69.2726V14.6868Z" fill="#9AC7F7"/>
<path d="M48.7885 16.9446H24.8525V18.1949H48.7885V16.9446Z" fill="#9AC7F7"/>
</g>
<defs>
<clipPath id="clip0_13760_306150">
<rect width="137" height="112.184" fill="white"/>
</clipPath>
</defs>
</svg>
