<svg width="126" height="110" viewBox="0 0 126 110" fill="none" xmlns="http://www.w3.org/2000/svg">
<path d="M52.1491 17.0876L52.1494 12.9399L49.9636 12.4727C49.8385 11.8689 49.6709 11.2747 49.4621 10.6945L51.0693 9.24407L48.9955 5.65147L46.8654 6.3396C46.4552 5.8809 46.0135 5.45143 45.5434 5.05433L46.2116 2.98793L42.6199 0.913916L41.1202 2.57368C40.5355 2.38176 39.9381 2.23078 39.3325 2.12184L38.8778 0H34.7302L34.262 2.18609C33.6582 2.311 33.0641 2.47859 32.4841 2.6876L31.0319 1.07972L27.4407 3.15355L28.1286 5.28392C27.6707 5.69435 27.2413 6.13563 26.8436 6.60465L24.7777 5.93715L22.7032 9.52973L24.3631 11.0292C24.1713 11.6138 24.0204 12.2112 23.9115 12.8168L21.7898 13.2724L21.7891 17.4196L23.975 17.8877C24.1002 18.4911 24.2677 19.0849 24.4762 19.6648L22.8689 21.1181L24.9428 24.7091L27.0736 24.0208C27.4837 24.4793 27.9251 24.9087 28.3946 25.3061L27.7269 27.3724L31.319 29.4454L32.8178 27.7858C33.4025 27.9778 33.9998 28.1288 34.6055 28.2379L35.0611 30.3599H39.2082L39.6767 28.1742C40.2805 28.0492 40.8748 27.8818 41.4551 27.6733L42.9064 29.2795L46.4985 27.2074L45.8104 25.0761C46.2686 24.6658 46.698 24.2246 47.0957 23.7554L49.1611 24.4224L51.2348 20.8306L49.5756 19.3316C49.7677 18.7465 49.9188 18.1488 50.0279 17.5428L52.1491 17.0876ZM43.9371 15.1806C43.9371 16.5586 43.5284 17.9057 42.7627 19.0515C41.9971 20.1973 40.9089 21.0903 39.6357 21.6177C38.3626 22.145 36.9616 22.283 35.61 22.0141C34.2584 21.7453 33.0169 21.0817 32.0425 20.1072C31.0681 19.1328 30.4045 17.8913 30.1356 16.5397C29.8668 15.1881 30.0048 13.7871 30.5321 12.514C31.0595 11.2408 31.9525 10.1526 33.0983 9.387C34.2442 8.62138 35.5913 8.21273 36.9693 8.21271C37.8843 8.2127 38.7904 8.39293 39.6358 8.7431C40.4812 9.09327 41.2493 9.60652 41.8963 10.2535C42.5433 10.9006 43.0566 11.6687 43.4067 12.5141C43.7569 13.3595 43.9371 14.2655 43.9371 15.1806H43.9371Z" fill="#7EB3FF"/>
<path d="M46.5607 15.2833C46.5608 17.1207 46.016 18.9168 44.9953 20.4445C43.9746 21.9722 42.5237 23.1629 40.8262 23.866C39.1287 24.5691 37.2609 24.753 35.4588 24.3945C33.6568 24.036 32.0016 23.1511 30.7025 21.8517C29.4035 20.5524 28.5189 18.897 28.1607 17.095C27.8025 15.2929 27.9867 13.425 28.6901 11.7277C29.3936 10.0303 30.5846 8.57968 32.1125 7.55924C33.6404 6.5388 35.4366 5.9944 37.274 5.99487C38.4937 5.99485 39.7014 6.2351 40.8283 6.70191C41.9551 7.16871 42.9789 7.85292 43.8413 8.71546C44.7037 9.57799 45.3877 10.602 45.8543 11.7289C46.3209 12.8558 46.5609 14.0636 46.5607 15.2833Z" fill="#FFCC00"/>
<path d="M46.2779 15.284C46.2782 17.0654 45.7503 18.807 44.7608 20.2883C43.7713 21.7696 42.3648 22.9242 40.719 23.6061C39.0733 24.288 37.2623 24.4665 35.5151 24.119C33.7679 23.7715 32.163 22.9137 30.9034 21.654C29.6437 20.3944 28.786 18.7894 28.4386 17.0422C28.0911 15.295 28.2697 13.484 28.9516 11.8383C29.6335 10.1926 30.7882 8.78604 32.2695 7.7966C33.7509 6.80716 35.4924 6.27926 37.2738 6.27966C39.6618 6.28003 41.9518 7.22882 43.6404 8.9174C45.3289 10.606 46.2776 12.8961 46.2779 15.284Z" fill="#D98F00"/>
<path d="M44.3658 15.2831C44.3659 16.6859 43.9501 18.0571 43.1709 19.2236C42.3917 20.39 41.2841 21.2991 39.9881 21.836C38.6922 22.3729 37.2662 22.5134 35.8904 22.2398C34.5146 21.9662 33.2508 21.2907 32.2589 20.2989C31.267 19.307 30.5915 18.0433 30.3179 16.6675C30.0443 15.2917 30.1847 13.8656 30.7216 12.5697C31.2585 11.2737 32.1676 10.1661 33.3339 9.38687C34.5003 8.60762 35.8716 8.19177 37.2743 8.19189C39.1549 8.19234 40.9584 8.93959 42.2882 10.2693C43.618 11.5991 44.3653 13.4025 44.3658 15.2831Z" fill="#FFCC00"/>
<path d="M33.7344 14.21H34.5176C34.5661 13.7861 34.6811 13.3724 34.8584 12.9843C35.0232 12.6191 35.2497 12.2851 35.5281 11.997C35.803 11.715 36.1332 11.4927 36.4979 11.344C36.8965 11.1842 37.3228 11.1051 37.7522 11.1112C38.5044 11.0736 39.2434 11.3187 39.8239 11.7984C40.3712 12.3168 40.6983 13.0258 40.7374 13.7787H39.3187C39.2885 13.3606 39.1115 12.9667 38.819 12.6666C38.5283 12.4021 38.1448 12.2634 37.7522 12.2805C37.524 12.2677 37.2959 12.3081 37.0861 12.3987C36.8762 12.4893 36.6903 12.6275 36.5431 12.8024C36.235 13.2117 36.0484 13.6995 36.0047 14.21H38.3424L38.2066 14.9249H35.9705V15.697H38.0588L37.9341 16.4119H36.0047C36.0429 16.9123 36.2327 17.3891 36.5487 17.7789C36.7035 17.9434 36.8925 18.0719 37.1024 18.1553C37.3122 18.2388 37.5378 18.2752 37.7633 18.262C38.7091 18.262 39.2577 17.7133 39.4092 16.6161H40.8168C40.7624 17.4051 40.426 18.1483 39.8692 18.7099C39.2847 19.2271 38.5205 19.4942 37.7411 19.4535C37.3104 19.4606 36.8824 19.3834 36.4813 19.2263C36.1211 19.0821 35.7931 18.868 35.5161 18.5963C35.2384 18.3197 35.0134 17.9948 34.852 17.6376C34.677 17.2491 34.5642 16.8355 34.5177 16.4119H33.7344V15.697H34.4835V14.9249H33.7344L33.7344 14.21Z" fill="#D98F00"/>
<path d="M85.9665 19.8641H0V68.2728H85.9665V19.8641Z" fill="#003C77"/>
<path d="M85.9997 19.8528H0.0332031V21.1072H85.9997V19.8528Z" fill="#EAF4FE"/>
<path d="M3.62489 20.4307H1.55469V20.5503H3.62489V20.4307Z" fill="#0450CF"/>
<path d="M6.28009 20.4307H4.21094V20.5503H6.28009V20.4307Z" fill="#0450CF"/>
<path d="M8.93803 20.4307H6.86914V20.5503H8.93803V20.4307Z" fill="#0450CF"/>
<path d="M11.5945 20.4307H9.52539V20.5503H11.5945V20.4307Z" fill="#0450CF"/>
<path d="M14.2528 20.4307H12.1836V20.5503H14.2528V20.4307Z" fill="#0450CF"/>
<path d="M16.9087 20.4307H14.8398V20.5503H16.9087V20.4307Z" fill="#0450CF"/>
<path d="M19.5653 20.4307H17.4961V20.5503H19.5653V20.4307Z" fill="#0450CF"/>
<path d="M22.2245 20.4307H20.1543V20.5503H22.2245V20.4307Z" fill="#0450CF"/>
<path d="M1.02674 20.278H0.636719V20.7027H1.02674V20.278Z" fill="#0450CF"/>
<path d="M85.9997 20.9694H0.0332031V22.4686H85.9997V20.9694Z" fill="#0450CF"/>
<path d="M85.9997 22.3595H0.0332031V22.4602H85.9997V22.3595Z" fill="#003E99"/>
<path d="M85.6875 21.2977H80.2324V22.2424H85.6875V21.2977Z" fill="#9AC7F7"/>
<path d="M79.527 21.6732H79.3145V21.867H79.527V21.6732Z" fill="#003E99"/>
<path d="M78.8696 21.6713H75.998V21.8661H78.8696V21.6713Z" fill="#9AC7F7"/>
<path d="M2.3314 21.5194H1.94141V21.9455H2.3314V21.5194Z" fill="#003E99"/>
<path d="M1.02674 21.5194H0.636719V21.9455H1.02674V21.5194Z" fill="#9AC7F7"/>
<path d="M3.18885 21.5194H2.79883V21.9455H3.18885V21.5194Z" fill="#003E99"/>
<path d="M28.9392 23.4512H10.9688V24.0266H28.9392V23.4512Z" fill="#6D5CBB"/>
<path d="M15.4265 25.5686H12.4551V26.144H15.4265V25.5686Z" fill="#FF876C"/>
<path d="M15.4265 27.6855H12.4551V28.2609H15.4265V27.6855Z" fill="#FF876C"/>
<path d="M15.4265 29.803H12.4551V30.3784H15.4265V29.803Z" fill="#FF876C"/>
<path d="M30.3586 25.5686H21.2383V26.144H30.3586V25.5686Z" fill="#7EC896"/>
<path d="M30.3586 27.6855H21.2383V28.2609H30.3586V27.6855Z" fill="#7EC896"/>
<path d="M30.3586 29.803H21.2383V30.3784H30.3586V29.803Z" fill="#7EC896"/>
<path d="M18.8048 25.5686H16.7109V26.144H18.8048V25.5686Z" fill="#C5E1F9"/>
<path d="M18.8048 27.6855H16.7109V28.2609H18.8048V27.6855Z" fill="#C5E1F9"/>
<path d="M18.8048 29.803H16.7109V30.3784H18.8048V29.803Z" fill="#C5E1F9"/>
<path d="M20.2665 25.5686H19.709V26.144H20.2665V25.5686Z" fill="#D98F00"/>
<path d="M20.2665 27.6855H19.709V28.2609H20.2665V27.6855Z" fill="#D98F00"/>
<path d="M20.2665 29.803H19.709V30.3784H20.2665V29.803Z" fill="#D98F00"/>
<path d="M11.5927 25.5686H11.0352V26.144H11.5927V25.5686Z" fill="#D98F00"/>
<path d="M11.5927 27.6855H11.0352V28.2609H11.5927V27.6855Z" fill="#D98F00"/>
<path d="M11.5927 29.803H11.0352V30.3784H11.5927V29.803Z" fill="#D98F00"/>
<path d="M17.0483 34.0359H12.4551V34.6113H17.0483V34.0359Z" fill="#FF876C"/>
<path d="M30.3581 34.0359H23.4004V34.6113H30.3581V34.0359Z" fill="#7EC896"/>
<path d="M20.9661 34.0359H18.332V34.6113H20.9661V34.0359Z" fill="#C5E1F9"/>
<path d="M22.4273 34.0359H21.8711V34.6113H22.4273V34.0359Z" fill="#D98F00"/>
<path d="M52.1779 38.2703H30.627V38.8457H52.1779V38.2703Z" fill="#6D5CBB"/>
<path d="M28.9398 38.2703H18.6035V38.8457H28.9398V38.2703Z" fill="#C5E1F9"/>
<path d="M45.4237 34.0359H38.4648V34.6113H45.4237V34.0359Z" fill="#7EC896"/>
<path d="M36.0327 34.0359H32.3184V34.6113H36.0327V34.0359Z" fill="#C5E1F9"/>
<path d="M37.4928 34.0359H36.9355V34.6113H37.4928V34.0359Z" fill="#D98F00"/>
<path d="M46.6792 34.0359H46.123V34.6113H46.6792V34.0359Z" fill="#D98F00"/>
<path d="M11.5927 34.0359H11.0352V34.6113H11.5927V34.0359Z" fill="#D98F00"/>
<path d="M17.0483 42.5042H12.4551V43.0796H17.0483V42.5042Z" fill="#FF876C"/>
<path d="M11.5927 42.5042H11.0352V43.0796H11.5927V42.5042Z" fill="#C5E1F9"/>
<path d="M18.4853 42.5042H17.9277V43.0796H18.4853V42.5042Z" fill="#C5E1F9"/>
<path d="M13.5347 50.9719H8.94141V51.5473H13.5347V50.9719Z" fill="#FF876C"/>
<path d="M8.07964 50.9719H7.52344V51.5473H8.07964V50.9719Z" fill="#C5E1F9"/>
<path d="M14.9716 50.9719H14.4141V51.5473H14.9716V50.9719Z" fill="#C5E1F9"/>
<path d="M15.4442 40.387H14.8867V40.9624H15.4442V40.387Z" fill="#D98F00"/>
<path d="M17.5886 36.1531H14.8867V36.7285H17.5886V36.1531Z" fill="#FF876C"/>
<path d="M29.1386 36.1531H18.6035V36.7285H29.1386V36.1531Z" fill="#D98F00"/>
<path d="M45.8943 25.5686H36.7754V26.144H45.8943V25.5686Z" fill="#7EC896"/>
<path d="M45.8943 27.6855H36.7754V28.2609H45.8943V27.6855Z" fill="#7EC896"/>
<path d="M45.8943 29.803H36.7754V30.3784H45.8943V29.803Z" fill="#7EC896"/>
<path d="M62.3114 25.5685H46.3672V26.1439H62.3114V25.5685Z" fill="#7EC896"/>
<path d="M68.1883 27.6857H46.3672V28.2611H68.1883V27.6857Z" fill="#7EC896"/>
<path d="M72.1059 29.803H46.3672V30.3784H72.1059V29.803Z" fill="#7EC896"/>
<path d="M34.3449 25.5686H32.25V26.144H34.3449V25.5686Z" fill="#C5E1F9"/>
<path d="M34.3449 27.6855H32.25V28.2609H34.3449V27.6855Z" fill="#C5E1F9"/>
<path d="M34.3449 29.803H32.25V30.3784H34.3449V29.803Z" fill="#C5E1F9"/>
<path d="M35.8023 25.5686H35.2461V26.144H35.8023V25.5686Z" fill="#D98F00"/>
<path d="M35.8023 27.6855H35.2461V28.2609H35.8023V27.6855Z" fill="#D98F00"/>
<path d="M35.8023 29.803H35.2461V30.3784H35.8023V29.803Z" fill="#D98F00"/>
<path d="M64.9638 25.5685H64.4062V26.1439H64.9638V25.5685Z" fill="#D98F00"/>
<path d="M70.3257 27.6855H69.7695V28.2609H70.3257V27.6855Z" fill="#D98F00"/>
<path d="M73.9733 29.803H73.416V30.3784H73.9733V29.803Z" fill="#D98F00"/>
<path d="M28.9392 31.9199H10.9688V32.4953H28.9392V31.9199Z" fill="#7EB3FF"/>
<path d="M11.7791 55.4734H8.80664V56.0488H11.7791V55.4734Z" fill="#FF876C"/>
<path d="M18.7381 59.707H15.7656V60.2824H18.7381V59.707Z" fill="#FF876C"/>
<path d="M44.2741 59.707H24.5469V60.2824H44.2741V59.707Z" fill="#7EC896"/>
<path d="M40.0867 57.5911H11.1719V58.1665H40.0867V57.5911Z" fill="#C5E1F9"/>
<path d="M22.1154 59.707H20.0215V60.2824H22.1154V59.707Z" fill="#C5E1F9"/>
<path d="M23.5771 59.707H23.0195V60.2824H23.5771V59.707Z" fill="#D98F00"/>
<path d="M7.94424 55.4734H7.38672V56.0488H7.94424V55.4734Z" fill="#D98F00"/>
<path d="M13.0126 55.4734H12.4551V56.0488H13.0126V55.4734Z" fill="#D98F00"/>
<path d="M21.102 61.8247H19.75V62.4001H21.102V61.8247Z" fill="#FF876C"/>
<path d="M18.8904 61.8247H18.332V62.4001H18.8904V61.8247Z" fill="#D98F00"/>
<path d="M22.3349 61.8247H21.7773V62.4001H22.3349V61.8247Z" fill="#D98F00"/>
<path d="M24.8869 66.0583H23.5352V66.6338H24.8869V66.0583Z" fill="#FF876C"/>
<path d="M22.6728 66.0583H22.1152V66.6338H22.6728V66.0583Z" fill="#D98F00"/>
<path d="M26.1178 66.0583H25.5605V66.6338H26.1178V66.0583Z" fill="#D98F00"/>
<path d="M14.9049 59.707H14.3477V60.2824H14.9049V59.707Z" fill="#D98F00"/>
<path d="M66.9046 63.9419H22.1816V64.5173H66.9046V63.9419Z" fill="#C5E1F9"/>
<path d="M45.5067 59.707H44.9492V60.2824H45.5067V59.707Z" fill="#D98F00"/>
<path d="M35.6947 44.6211H10.9688V45.1965H35.6947V44.6211Z" fill="#7EB3FF"/>
<path d="M47.584 46.738H10.9688V47.3135H47.584V46.738Z" fill="#7EB3FF"/>
<path d="M23.3997 48.8545H10.9688V49.4299H23.3997V48.8545Z" fill="#7EB3FF"/>
<path d="M2.45642 23.4512H1.10547V24.0266H2.45642V23.4512Z" fill="#D98F00"/>
<path d="M2.45642 25.5685H1.10547V26.1439H2.45642V25.5685Z" fill="#D98F00"/>
<path d="M2.45642 27.6857H1.10547V28.2611H2.45642V27.6857Z" fill="#D98F00"/>
<path d="M2.45642 29.803H1.10547V30.3784H2.45642V29.803Z" fill="#D98F00"/>
<path d="M2.45642 31.9198H1.10547V32.4952H2.45642V31.9198Z" fill="#D98F00"/>
<path d="M2.45642 34.0359H1.10547V34.6113H2.45642V34.0359Z" fill="#D98F00"/>
<path d="M2.45642 36.1531H1.10547V36.7285H2.45642V36.1531Z" fill="#D98F00"/>
<path d="M2.45642 38.2703H1.10547V38.8457H2.45642V38.2703Z" fill="#D98F00"/>
<path d="M2.45642 40.387H1.10547V40.9624H2.45642V40.387Z" fill="#D98F00"/>
<path d="M2.45642 42.5042H1.10547V43.0796H2.45642V42.5042Z" fill="#D98F00"/>
<path d="M2.45642 44.6211H1.10547V45.1965H2.45642V44.6211Z" fill="#D98F00"/>
<path d="M2.45642 46.738H1.10547V47.3135H2.45642V46.738Z" fill="#D98F00"/>
<path d="M2.45642 48.8546H1.10547V49.43H2.45642V48.8546Z" fill="#D98F00"/>
<path d="M2.45642 50.9719H1.10547V51.5473H2.45642V50.9719Z" fill="#D98F00"/>
<path d="M2.45642 53.0887H1.10547V53.6641H2.45642V53.0887Z" fill="#D98F00"/>
<path d="M2.45642 55.2057H1.10547V55.7811H2.45642V55.2057Z" fill="#D98F00"/>
<path d="M2.45642 57.3223H1.10547V57.8977H2.45642V57.3223Z" fill="#D98F00"/>
<path d="M25.2029 80.7074L25.9303 71.8304L26.6602 62.9529L19.0486 67.5845L11.4385 72.2106L17.7638 73.7758L14.4025 79.2177L17.6142 81.2023L20.973 75.761L25.2029 80.7074Z" fill="#4B82E9"/>
<path d="M25.9284 71.8248L26.6582 62.9473L26.4033 63.1013L15.8904 80.1319L17.6105 81.1895L20.9694 75.7482L25.2022 80.7069L25.9284 71.8248Z" fill="#88B2F8"/>
<path d="M70.959 103.884V102.733C71.8512 102.732 72.7065 102.377 73.3373 101.746C73.9681 101.115 74.3229 100.26 74.3239 99.3674V97.3727H75.4747V99.3674C75.4734 100.565 74.9973 101.713 74.1507 102.559C73.3042 103.406 72.1563 103.882 70.959 103.884Z" fill="#0058B0"/>
<path d="M79.5805 104.136H78.4296V95.9789C78.4296 95.5871 78.274 95.2114 77.997 94.9343C77.7199 94.6573 77.3441 94.5016 76.9523 94.5016C76.5605 94.5016 76.1848 94.6573 75.9077 94.9343C75.6307 95.2114 75.475 95.5871 75.475 95.9789V98.3818H74.3242V95.9789C74.3242 95.2819 74.6011 94.6135 75.094 94.1206C75.5868 93.6277 76.2553 93.3508 76.9523 93.3508C77.6494 93.3508 78.3178 93.6277 78.8107 94.1206C79.3036 94.6135 79.5805 95.2819 79.5805 95.9789V104.136Z" fill="#0058B0"/>
<path d="M86.9671 101.534H85.8163V91.3161C85.8163 90.787 85.6061 90.2796 85.232 89.9055C84.8579 89.5314 84.3505 89.3212 83.8214 89.3212C83.2924 89.3212 82.785 89.5314 82.4109 89.9055C82.0368 90.2796 81.8266 90.787 81.8266 91.3161V101.534H80.6758V91.3161C80.6758 90.4818 81.0072 89.6817 81.5971 89.0918C82.1871 88.5018 82.9872 88.1704 83.8215 88.1704C84.6557 88.1704 85.4559 88.5018 86.0458 89.0918C86.6357 89.6817 86.9671 90.4818 86.9671 91.3161V101.534Z" fill="#0058B0"/>
<path d="M80.1407 106.937C79.6878 106.936 79.2537 106.756 78.9336 106.435C78.6136 106.115 78.4337 105.68 78.4336 105.227V100.725H79.5844V105.227C79.5842 105.301 79.5984 105.373 79.6263 105.441C79.6542 105.509 79.6952 105.57 79.7469 105.622C79.7986 105.674 79.8601 105.715 79.9278 105.743C79.9954 105.771 80.068 105.786 80.1413 105.786C80.2146 105.786 80.2871 105.771 80.3548 105.743C80.4225 105.715 80.4839 105.674 80.5357 105.622C80.5874 105.57 80.6284 105.509 80.6563 105.441C80.6841 105.373 80.6984 105.301 80.6982 105.227V100.725H81.849V105.227C81.8487 105.68 81.6687 106.115 81.3485 106.435C81.0282 106.756 80.5938 106.936 80.1407 106.937Z" fill="#0058B0"/>
<path d="M71.045 103.884C69.8477 103.883 68.6998 103.406 67.8532 102.56C67.0067 101.713 66.5305 100.565 66.5293 99.3676V95.2354H67.6801V99.3676C67.681 100.26 68.0358 101.115 68.6666 101.746C69.2974 102.377 70.1528 102.732 71.045 102.733V103.884Z" fill="#0058B0"/>
<path d="M67.6806 95.6363H66.5298V91.5035C66.5289 90.6114 66.1742 89.756 65.5434 89.1251C64.9127 88.4941 64.0574 88.1392 63.1652 88.1381H62.0234V86.9873H63.1652C64.3624 86.9888 65.5102 87.4651 66.3567 88.3118C67.2032 89.1584 67.6793 90.3063 67.6806 91.5035V95.6363Z" fill="#0058B0"/>
<path d="M53.7756 88.1558H51.509C50.3116 88.1547 49.1636 87.6787 48.3168 86.8321C47.47 85.9855 46.9936 84.8376 46.9922 83.6401V68.2725H48.1431V83.6401C48.1442 84.5324 48.4992 85.3878 49.1303 86.0186C49.7613 86.6494 50.6168 87.0042 51.509 87.005H53.7756V88.1558Z" fill="#0058B0"/>
<path d="M90.2773 110V108.849C91.1698 108.848 92.0254 108.493 92.6564 107.862C93.2874 107.23 93.6423 106.375 93.6433 105.482V77.3262H94.7941V105.482C94.7927 106.68 94.3164 107.828 93.4697 108.675C92.623 109.522 91.4749 109.998 90.2773 110Z" fill="#0058B0"/>
<path d="M90.3617 110C89.1642 109.998 88.0162 109.522 87.1696 108.675C86.3229 107.828 85.8468 106.68 85.8457 105.482V95.5967H86.9965V105.482C86.9973 106.375 87.3521 107.231 87.9829 107.862C88.6138 108.493 89.4693 108.848 90.3617 108.849V110Z" fill="#0058B0"/>
<path d="M95.3955 87.4381C112.239 87.4381 125.893 73.9966 125.893 57.4157C125.893 40.8348 112.239 27.3933 95.3955 27.3933C78.5524 27.3933 64.8984 40.8348 64.8984 57.4157C64.8984 73.9966 78.5524 87.4381 95.3955 87.4381Z" fill="#9AC7F7"/>
<path fill-rule="evenodd" clip-rule="evenodd" d="M100.053 87.0902C98.5348 87.3193 96.9793 87.4381 95.3957 87.4381C93.0263 87.4381 90.7199 87.1721 88.5059 86.6688L91.1641 63.8666L94.2542 49.5549L97.3441 63.8666L100.053 87.0902Z" fill="#D98F00"/>
<path fill-rule="evenodd" clip-rule="evenodd" d="M98.311 87.3029C97.3513 87.3925 96.3787 87.4384 95.3951 87.4384C93.6307 87.4384 91.9012 87.2909 90.2188 87.0077L92.0998 63.8669L94.2528 49.5552L96.4064 63.8669L98.311 87.3029Z" fill="#FFCC00"/>
<path fill-rule="evenodd" clip-rule="evenodd" d="M95.4586 87.4381C95.4378 87.4381 95.4169 87.4381 95.396 87.4381C94.6069 87.4381 93.8248 87.4086 93.0508 87.3507L93.6163 63.8666L94.2543 49.5549L94.892 63.8666L95.4586 87.4381Z" fill="#D98F00"/>
<path fill-rule="evenodd" clip-rule="evenodd" d="M112.845 82.0404C112.739 81.8224 112.62 81.6095 112.491 81.4027C111.86 80.3947 110.983 79.5636 109.942 78.9875C108.902 78.4114 107.732 78.1091 106.543 78.1091C105.354 78.1091 104.184 78.4114 103.143 78.9875C102.103 79.5636 101.226 80.3947 100.595 81.4027C99.9639 82.4107 99.5993 83.5626 99.5355 84.7501C99.4923 85.5548 99.5881 86.3579 99.8159 87.1249C104.611 86.4393 109.045 84.6553 112.845 82.0404Z" fill="#FFCC00"/>
<path fill-rule="evenodd" clip-rule="evenodd" d="M108.462 84.5506C104.502 86.4022 100.072 87.4381 95.3955 87.4381C90.8327 87.4381 86.5039 86.4517 82.6172 84.6836C83.5955 83.9898 84.7224 83.5157 85.9211 83.3058C86.1996 81.6036 87.0485 80.0465 88.3285 78.8903C89.6084 77.734 91.2434 77.0472 92.9652 76.9425C94.6869 76.8378 96.3931 77.3215 97.8037 78.3142C99.2143 79.3069 100.246 80.7496 100.728 82.4056C101.708 81.9283 102.798 81.7241 103.885 81.8146C104.971 81.905 106.012 82.2867 106.9 82.9195C107.521 83.3622 108.05 83.9162 108.462 84.5506Z" fill="#D98F00"/>
<path fill-rule="evenodd" clip-rule="evenodd" d="M87.6352 86.4572L85.6933 81.6481C85.2504 81.6481 84.8625 81.3445 84.4988 81.0597C84.0652 80.7202 83.6658 80.4075 83.2481 80.6683C83.2325 78.8882 82.5929 77.1699 81.4407 75.8128C80.2885 74.4557 78.6967 73.5458 76.9427 73.2415C75.1886 72.9373 73.3834 73.258 71.8415 74.1478C71.4208 74.3906 71.0269 74.6716 70.6641 74.9858C74.7442 80.5418 80.7088 84.6684 87.6352 86.4572Z" fill="#FFCC00"/>
<path fill-rule="evenodd" clip-rule="evenodd" d="M112.993 81.9391C113.076 81.4987 113.033 81.0434 112.869 80.6258C112.754 80.3357 112.583 80.071 112.367 79.8468C112.15 79.6226 111.891 79.4434 111.605 79.3193C111.318 79.1952 111.011 79.1287 110.699 79.1236C110.387 79.1185 110.077 79.1749 109.787 79.2896C109.35 79.4622 108.974 79.7605 108.707 80.1466C108.44 80.5328 108.293 80.9896 108.285 81.4591C108.278 81.9287 108.409 82.39 108.664 82.7848C108.918 83.1795 109.284 83.4899 109.715 83.6767C109.808 83.717 109.903 83.7511 109.999 83.779C111.035 83.2217 112.035 82.6069 112.993 81.9391Z" fill="#D98F00"/>
<path fill-rule="evenodd" clip-rule="evenodd" d="M118.648 76.8427C118.443 76.6427 118.218 76.4613 117.978 76.3011C117.345 75.8796 116.62 75.6175 115.864 75.5371C115.108 75.4568 114.344 75.5606 113.637 75.8398C112.93 76.1189 112.301 76.5651 111.803 77.1401C111.306 77.7152 110.956 78.4021 110.781 79.1421C110.607 79.8821 110.615 80.6532 110.804 81.3896C110.944 81.9371 111.181 82.4533 111.503 82.9143C114.194 81.2635 116.604 79.2112 118.648 76.8427Z" fill="#D98F00"/>
<path fill-rule="evenodd" clip-rule="evenodd" d="M89.9376 86.9591C90.1789 86.3652 90.3047 85.7272 90.3045 85.0798C90.304 83.7576 89.7783 82.4896 88.8432 81.5549C87.908 80.6201 86.6399 80.0949 85.3176 80.095C84.3313 80.095 83.3671 80.3875 82.547 80.9356C81.727 81.4836 81.0878 82.2625 80.7105 83.1738C80.6466 83.328 80.5908 83.4847 80.543 83.6435C83.4195 85.2256 86.5831 86.3624 89.9376 86.9591Z" fill="#FFCC00"/>
<path fill-rule="evenodd" clip-rule="evenodd" d="M80.9597 83.8677C81.2928 83.1872 81.4678 82.4369 81.4675 81.6734C81.467 80.3512 80.9414 79.0833 80.0062 78.1485C79.0711 77.2137 77.8029 76.6886 76.4807 76.6886C75.4943 76.6886 74.5302 76.9812 73.7101 77.5292C73.5149 77.6597 73.3299 77.8032 73.1562 77.9585C75.4067 80.3187 78.0405 82.3205 80.9597 83.8677Z" fill="#D98F00"/>
<path d="M94.646 56.2C92.1094 56.2 90.0527 59.6159 90.0527 63.8286C90.0526 64.3497 90.0849 64.8704 90.1494 65.3875H99.1434C99.2082 64.8704 99.2405 64.3497 99.2401 63.8286C99.2401 59.6159 97.1837 56.2 94.646 56.2Z" fill="#0058B0"/>
<path d="M93.4513 56.2C91.5745 56.2 90.0527 59.6159 90.0527 63.8286C90.0527 64.363 90.0775 64.8853 90.1236 65.3875H96.7768C96.823 64.8853 96.8477 64.363 96.8477 63.8286C96.8477 59.6159 95.3267 56.2 93.4513 56.2Z" fill="#0073E6"/>
<path d="M90.3097 37.92C90.3097 46.0486 86.1446 53.1216 80.0005 56.7865C79.8162 56.958 79.6342 57.1252 79.4577 57.2872C78.3225 58.3234 78.6923 63.2207 78.6923 63.2207H90.3681V34.8926C90.3608 35.436 90.3255 35.9788 90.2624 36.5186C90.29 36.9828 90.3097 37.4488 90.3097 37.92Z" fill="#0073E6"/>
<path d="M90.3674 47.4053C88.49 52.1488 85.0021 56.0798 80.5157 58.5084C80.3133 58.6804 80.1145 58.8485 79.9212 59.0102C79.1625 59.6414 79.0164 61.7037 79.0176 63.2203H90.3674V47.4053Z" fill="#EAF4FE"/>
<path d="M80.0431 62.646C79.8497 62.8003 79.694 62.9968 79.5879 63.2204H90.368V53.8445C87.973 57.4436 84.6349 60.3153 80.7185 62.1458C80.4893 62.3173 80.2634 62.4848 80.0431 62.646Z" fill="#C5E1F9"/>
<path d="M98.9834 37.9198C98.9834 46.0484 103.147 53.1213 109.293 56.7863C109.476 56.9577 109.658 57.125 109.834 57.287C110.969 58.3231 110.6 63.2204 110.6 63.2204H98.9238V34.8923C98.9315 35.4358 98.9667 35.9785 99.0296 36.5184C99.0026 36.9825 98.9834 37.4485 98.9834 37.9198Z" fill="#0073E6"/>
<path d="M98.9238 47.4052C100.802 52.1486 104.289 56.0795 108.776 58.5083C108.978 58.6803 109.178 58.8484 109.37 59.0101C110.13 59.6413 110.275 61.7036 110.274 63.2202H98.9238V47.4052Z" fill="#EAF4FE"/>
<path d="M109.25 62.6458C109.443 62.8007 109.598 62.997 109.705 63.2201H98.9238V53.8442C101.319 57.4428 104.657 60.3144 108.573 62.1456C108.803 62.317 109.029 62.4845 109.25 62.6458Z" fill="#C5E1F9"/>
<path d="M99.2219 63.2212V33.9362C99.2219 31.2556 97.2294 22.5587 94.6456 21.1262C92.0629 22.5587 90.0703 31.2556 90.0703 33.9362V63.2212H99.2219Z" fill="#C5E1F9"/>
<path d="M94.6462 21.126C94.6203 21.1402 94.5956 21.1599 94.5684 21.1767V63.221H99.2225V33.9359C99.2225 31.2553 97.23 22.5585 94.6462 21.126Z" fill="#EAF4FE"/>
<path d="M91.375 27.1062H97.9149C97.0936 24.4009 95.9438 21.8452 94.6447 21.126C93.3466 21.8452 92.198 24.4009 91.375 27.1062Z" fill="#0073E6"/>
<path d="M94.5684 27.1062H97.9164C97.0951 24.4009 95.9453 21.8452 94.6462 21.126C94.6203 21.1402 94.5956 21.1599 94.5684 21.1767V27.1062Z" fill="#0058B0"/>
<path d="M97.4625 31.9569C97.2744 32.385 96.6521 32.2233 95.9216 31.9508C95.0852 31.6237 94.1562 31.6237 93.3198 31.9508C92.5906 32.2222 91.9678 32.385 91.7802 31.9569C91.5866 31.54 92.042 30.5291 92.9917 30.1609C94.0396 29.752 95.203 29.752 96.2509 30.1609C97.2005 30.5262 97.6546 31.5377 97.4625 31.9569Z" fill="#0073E6"/>
<path d="M85.3137 56.1998C84.2037 56.1998 83.3047 59.6157 83.3047 63.8285C83.3047 64.3628 83.319 64.8851 83.346 65.3874H87.2819C87.3101 64.8851 87.3236 64.3628 87.3236 63.8285C87.3236 59.6157 86.4245 56.1998 85.3137 56.1998Z" fill="#0073E6"/>
<path d="M85.3133 56.1998C85.0231 56.1998 84.7494 56.4371 84.5 56.8549C85.4126 57.3535 86.115 60.325 86.115 63.9263C86.115 64.4276 86.1019 64.9146 86.0757 65.3874H87.2814C87.3096 64.8851 87.3231 64.3628 87.3231 63.8285C87.3231 59.6157 86.424 56.1998 85.3133 56.1998Z" fill="#0058B0"/>
<path d="M103.976 56.1997C102.867 56.1997 101.967 59.6156 101.967 63.8283C101.967 64.3627 101.981 64.885 102.008 65.3873H105.944C105.972 64.885 105.986 64.3627 105.986 63.8283C105.986 59.6156 105.087 56.1997 103.976 56.1997Z" fill="#0073E6"/>
<path d="M103.977 56.1998C103.688 56.1998 103.412 56.4371 103.164 56.8549C104.077 57.3535 104.778 60.325 104.778 63.9263C104.778 64.4276 104.765 64.9146 104.739 65.3874H105.945C105.973 64.8851 105.986 64.3628 105.986 63.8285C105.986 59.6157 105.087 56.1998 103.977 56.1998Z" fill="#0058B0"/>
<path d="M65.9154 76.021H66.7235C66.7739 76.021 66.8222 76.041 66.8578 76.0766C66.8934 76.1122 66.9134 76.1605 66.9134 76.2109V76.8281C66.9134 76.853 66.9085 76.8777 66.899 76.9008C66.8894 76.9238 66.8754 76.9447 66.8578 76.9623C66.8402 76.98 66.8193 76.994 66.7962 77.0035C66.7732 77.013 66.7485 77.018 66.7236 77.018H65.9166C65.8662 77.018 65.8179 76.9979 65.7822 76.9623C65.7466 76.9267 65.7266 76.8783 65.7266 76.8279V76.2098C65.7266 76.1597 65.7465 76.1117 65.7819 76.0763C65.8173 76.0409 65.8653 76.021 65.9154 76.021Z" fill="#0058B0"/>
<path d="M65.1363 77.2541C65.1578 77.2668 65.1766 77.2835 65.1917 77.3034C65.2067 77.3233 65.2177 77.346 65.224 77.3702C65.2302 77.3944 65.2317 77.4195 65.2282 77.4442C65.2247 77.469 65.2164 77.4928 65.2037 77.5143L64.8039 78.2117C64.7781 78.2551 64.7364 78.2866 64.6876 78.2995C64.6389 78.3125 64.587 78.3058 64.5431 78.2808L64.0082 77.9724C63.9867 77.9599 63.9679 77.9433 63.9528 77.9236C63.9378 77.9038 63.9267 77.8813 63.9204 77.8573C63.914 77.8333 63.9124 77.8083 63.9158 77.7837C63.9191 77.759 63.9272 77.7353 63.9397 77.7139L64.3419 77.0154C64.3671 76.972 64.4084 76.9403 64.4568 76.9272C64.5052 76.9141 64.5569 76.9208 64.6004 76.9457L65.1363 77.2541Z" fill="#0058B0"/>
<path d="M64.6169 79.0047C64.6385 78.9921 64.6624 78.9839 64.6872 78.9807C64.7119 78.9774 64.7371 78.979 64.7612 78.9855C64.7854 78.992 64.808 79.0031 64.8277 79.0184C64.8475 79.0337 64.8641 79.0527 64.8765 79.0744L65.2796 79.7734C65.2922 79.7948 65.3003 79.8185 65.3037 79.8431C65.307 79.8677 65.3055 79.8928 65.2991 79.9168C65.2928 79.9408 65.2818 79.9633 65.2667 79.9831C65.2517 80.0028 65.2329 80.0194 65.2114 80.0319L64.6753 80.3398C64.6538 80.3523 64.63 80.3604 64.6053 80.3637C64.5806 80.367 64.5555 80.3653 64.5314 80.3588C64.5074 80.3524 64.4848 80.3412 64.4651 80.326C64.4454 80.3108 64.4289 80.2918 64.4165 80.2702L64.0134 79.5727C63.9883 79.5288 63.9817 79.4768 63.995 79.428C64.0083 79.3792 64.0404 79.3377 64.0843 79.3126L64.6169 79.0047Z" fill="#0058B0"/>
<path d="M65.873 80.3303C65.873 80.3052 65.878 80.2804 65.8876 80.2573C65.8972 80.2342 65.9112 80.2132 65.929 80.1955C65.9467 80.1778 65.9678 80.1638 65.9909 80.1543C66.0141 80.1448 66.0389 80.14 66.064 80.1401H66.8699C66.8948 80.14 66.9194 80.1448 66.9425 80.1542C66.9655 80.1636 66.9864 80.1775 67.0041 80.1951C67.0217 80.2126 67.0357 80.2335 67.0453 80.2564C67.0548 80.2794 67.0598 80.3041 67.0598 80.3289V80.9472C67.0598 80.9721 67.0549 80.9968 67.0453 81.0198C67.0358 81.0428 67.0218 81.0637 67.0042 81.0813C66.9865 81.0989 66.9656 81.1129 66.9425 81.1223C66.9195 81.1318 66.8948 81.1367 66.8699 81.1366H66.0629C66.0127 81.1366 65.9645 81.1166 65.9289 81.0811C65.8933 81.0456 65.8732 80.9975 65.873 80.9472V80.3303Z" fill="#0058B0"/>
<path d="M67.6496 79.9035C67.628 79.8911 67.6091 79.8746 67.5939 79.8549C67.5787 79.8352 67.5676 79.8126 67.5612 79.7886C67.5547 79.7646 67.5531 79.7396 67.5563 79.7149C67.5596 79.6902 67.5677 79.6665 67.5801 79.645L67.9834 78.9475C68.0083 78.9037 68.0494 78.8715 68.0979 78.8579C68.1463 78.8443 68.1982 78.8504 68.2422 78.8749L68.7771 79.1858C68.8203 79.2112 68.8517 79.2525 68.8647 79.3009C68.8777 79.3492 68.8711 79.4007 68.8465 79.4443L68.4422 80.1417C68.4301 80.1634 68.4138 80.1825 68.3942 80.1978C68.3747 80.2131 68.3523 80.2244 68.3283 80.2309C68.3043 80.2375 68.2793 80.2392 68.2547 80.2359C68.23 80.2327 68.2063 80.2245 68.1849 80.212L67.6496 79.9035Z" fill="#0058B0"/>
<path d="M68.1682 78.1514C68.1467 78.1641 68.123 78.1724 68.0984 78.1758C68.0738 78.1792 68.0487 78.1777 68.0246 78.1713C68.0006 78.165 67.978 78.1539 67.9583 78.1387C67.9386 78.1236 67.9221 78.1046 67.9098 78.083L67.506 77.3845C67.4808 77.341 67.4739 77.2893 67.4868 77.2407C67.4998 77.1922 67.5314 77.1507 67.5749 77.1255L68.1098 76.8165C68.1533 76.7916 68.2049 76.785 68.2533 76.7981C68.3017 76.8111 68.3429 76.8428 68.368 76.8862L68.7729 77.5852C68.7977 77.629 68.8042 77.6809 68.7909 77.7296C68.7776 77.7782 68.7457 77.8196 68.702 77.8447L68.1682 78.1514Z" fill="#0058B0"/>
<path d="M66.3933 76.7324C66.0282 76.7323 65.6713 76.8405 65.3677 77.0433C65.0641 77.246 64.8274 77.5342 64.6876 77.8715C64.5478 78.2087 64.5111 78.5798 64.5822 78.9379C64.6533 79.296 64.829 79.625 65.087 79.8832C65.3451 80.1415 65.6739 80.3174 66.0319 80.3888C66.3899 80.4602 66.7611 80.4238 67.0984 80.2843C67.4358 80.1448 67.7242 79.9083 67.9272 79.6049C68.1302 79.3015 68.2387 78.9447 68.2389 78.5796C68.239 78.3371 68.1914 78.097 68.0987 77.873C68.006 77.6489 67.87 77.4453 67.6987 77.2738C67.5273 77.1022 67.3238 76.9662 67.0998 76.8733C66.8758 76.7804 66.6358 76.7325 66.3933 76.7324ZM66.3933 79.4606C66.2188 79.4607 66.0482 79.409 65.9031 79.3122C65.758 79.2153 65.6448 79.0775 65.578 78.9163C65.5112 78.7551 65.4937 78.5778 65.5278 78.4066C65.5618 78.2355 65.6459 78.0783 65.7693 77.9549C65.8927 77.8316 66.0499 77.7476 66.2211 77.7136C66.3922 77.6797 66.5696 77.6972 66.7308 77.7641C66.8919 77.831 67.0296 77.9442 67.1264 78.0893C67.2233 78.2345 67.2749 78.4051 67.2747 78.5796C67.2745 78.8133 67.1816 79.0373 67.0164 79.2025C66.8511 79.3678 66.627 79.4606 66.3933 79.4606Z" fill="#0058B0"/>
<path d="M57.7568 91.7148C56.923 91.7236 56.1054 91.4845 55.4079 91.0277C54.7103 90.5709 54.1642 89.9171 53.839 89.1494C53.5138 88.3816 53.4241 87.5345 53.5813 86.7156C53.7385 85.8967 54.1356 85.1431 54.7221 84.5504C55.3085 83.9576 56.0579 83.5526 56.875 83.3866C57.6922 83.2207 58.5402 83.3014 59.3114 83.6184C60.0826 83.9354 60.7422 84.4745 61.2063 85.1671C61.6705 85.8598 61.9184 86.6748 61.9184 87.5086C61.9232 88.6179 61.4878 89.6839 60.7075 90.4724C59.9273 91.261 58.8661 91.7078 57.7568 91.7148ZM57.7568 84.0562C57.072 84.0472 56.4 84.242 55.8262 84.6159C55.2525 84.9899 54.8029 85.526 54.5346 86.1561C54.2663 86.7862 54.1914 87.4818 54.3195 88.1546C54.4476 88.8274 54.7729 89.4468 55.2539 89.9343C55.735 90.4217 56.3502 90.7551 57.0212 90.892C57.6922 91.0289 58.3888 90.9631 59.0224 90.7031C59.656 90.4431 60.1979 90.0005 60.5793 89.4317C60.9607 88.8629 61.1643 88.1935 61.1643 87.5086C61.1692 86.5993 60.8132 85.7251 60.1744 85.0779C59.5356 84.4306 58.6662 84.0632 57.7568 84.0562Z" fill="#0058B0"/>
<path d="M57.756 91.609C56.6423 91.609 55.8027 89.8463 55.8027 87.5086C55.8027 85.1712 56.6423 83.4089 57.756 83.4089C58.8708 83.4089 59.7104 85.1712 59.7104 87.5086C59.7104 89.8463 58.8708 91.609 57.756 91.609ZM57.756 84.1629C57.2672 84.1629 56.5568 85.4665 56.5568 87.5086C56.5568 89.552 57.2672 90.8545 57.756 90.8545C58.246 90.8545 58.9563 89.552 58.9563 87.5086C58.9563 85.4665 58.246 84.1629 57.756 84.1629Z" fill="#0058B0"/>
<path d="M61.5421 87.8861H53.9729C53.8729 87.8861 53.7769 87.8463 53.7062 87.7756C53.6355 87.7048 53.5957 87.6089 53.5957 87.5088C53.5957 87.4088 53.6355 87.3128 53.7062 87.2421C53.7769 87.1713 53.8729 87.1316 53.9729 87.1316H61.5421C61.6422 87.1316 61.7381 87.1713 61.8089 87.2421C61.8796 87.3128 61.9194 87.4088 61.9194 87.5088C61.9194 87.6089 61.8796 87.7048 61.8089 87.7756C61.7381 87.8463 61.6422 87.8861 61.5421 87.8861Z" fill="#0058B0"/>
<path d="M57.7571 86.2241C56.6587 86.2244 55.5653 86.0778 54.5057 85.7881C54.4094 85.7616 54.3275 85.698 54.278 85.6112C54.2285 85.5244 54.2155 85.4215 54.2418 85.3251C54.2682 85.2287 54.3317 85.1467 54.4184 85.0971C54.5051 85.0475 54.608 85.0343 54.7044 85.0605C56.7028 85.6072 58.8113 85.6072 60.8096 85.0605C60.9061 85.0341 61.0091 85.0471 61.096 85.0967C61.1829 85.1463 61.2465 85.2284 61.2728 85.3249C61.2992 85.4214 61.2862 85.5244 61.2366 85.6113C61.187 85.6981 61.1049 85.7618 61.0084 85.7881C59.9489 86.0778 58.8555 86.2244 57.7571 86.2241Z" fill="#0058B0"/>
<path d="M54.6047 89.9695C54.5136 89.9694 54.4255 89.9362 54.3569 89.8761C54.2884 89.816 54.2439 89.7331 54.2318 89.6427C54.2198 89.5523 54.2409 89.4606 54.2913 89.3846C54.3417 89.3086 54.4179 89.2535 54.5059 89.2295C56.6346 88.6462 58.881 88.6462 61.0097 89.2295C61.1061 89.256 61.1881 89.3197 61.2375 89.4067C61.2869 89.4936 61.2998 89.5966 61.2733 89.693C61.2468 89.7895 61.183 89.8714 61.0961 89.9208C61.0091 89.9703 60.9061 89.9831 60.8097 89.9566C58.8114 89.4093 56.7028 89.4093 54.7045 89.9566C54.672 89.9653 54.6384 89.9696 54.6047 89.9695Z" fill="#0058B0"/>
<path d="M58.5244 81.6396L58.2051 81.6499L57.4031 81.6747L57.0845 81.6846L56.8984 83.2196L57.4513 83.2018L58.2533 83.1765L58.8088 83.1593L58.5244 81.6396Z" fill="#0058B0"/>
<path d="M55.4857 82.0413L55.2161 82.2093L54.5316 82.6329L54.2617 82.8009L54.8676 84.2236L55.3384 83.9314L56.0205 83.5089L56.4926 83.2178L55.4857 82.0413Z" fill="#0058B0"/>
<path d="M53.058 83.9084L52.9075 84.1885L52.5275 84.897L52.377 85.1763L53.6144 86.1081L53.875 85.6201L54.255 84.9124L54.5168 84.4239L53.058 83.9084Z" fill="#0058B0"/>
<path d="M51.8867 86.7412L51.8967 87.059L51.9215 87.8628L51.9328 88.1798L53.4678 88.368L53.4511 87.8149L53.4252 87.0108L53.4082 86.4565L51.8867 86.7412Z" fill="#0058B0"/>
<path d="M52.2891 89.7776L52.4566 90.0485L52.8799 90.7317L53.0477 91.0021L54.4728 90.3967L54.1806 89.9255L53.7556 89.2439L53.4645 88.7723L52.2891 89.7776Z" fill="#0058B0"/>
<path d="M54.1582 92.2085L54.438 92.3582L55.146 92.739L55.4271 92.8887L56.3575 91.6524L55.8698 91.3904L55.1608 91.0112L54.6731 90.7487L54.1582 92.2085Z" fill="#0058B0"/>
<path d="M56.9895 93.3784L57.3064 93.3671L58.1111 93.3434L58.4267 93.3323L58.6157 91.796L58.0612 91.8141L57.2582 91.8399L56.7051 91.8574L56.9895 93.3784Z" fill="#0058B0"/>
<path d="M60.0262 92.9761L60.2961 92.8075L60.9803 92.3845L61.2502 92.2164L60.6445 90.7932L60.1746 91.0849L59.4914 91.5085L59.0215 91.7996L60.0262 92.9761Z" fill="#0058B0"/>
<path d="M62.4559 91.1087L62.6062 90.8273L62.9854 90.1193L63.1359 89.8395L61.9007 88.9077L61.6378 89.3965L61.2589 90.1039L60.9961 90.5922L62.4559 91.1087Z" fill="#0058B0"/>
<path d="M63.6273 88.2763L63.6149 87.9583L63.5915 87.1536L63.5802 86.8378L62.0449 86.6484L62.0619 87.2021L62.0875 88.0054L62.1047 88.5602L63.6273 88.2763Z" fill="#0058B0"/>
<path d="M63.2245 85.2384L63.0559 84.9675L62.6323 84.2829L62.4661 84.0139L61.041 84.6204L61.3329 85.0911L61.7579 85.7732L62.0479 86.2442L63.2245 85.2384Z" fill="#0058B0"/>
<path d="M61.3556 82.8089L61.0769 82.6589L60.3667 82.2794L60.0867 82.1289L59.1562 83.3652L59.6439 83.6265L60.353 84.0059L60.8418 84.2682L61.3556 82.8089Z" fill="#0058B0"/>
<path d="M57.7566 92.3896C56.7893 92.399 55.8409 92.1208 55.032 91.5902C54.2231 91.0596 53.5901 90.3006 53.2134 89.4095C52.8367 88.5185 52.7333 87.5356 52.9162 86.5857C53.0992 85.6357 53.5603 84.7616 54.241 84.0742C54.9217 83.3868 55.7913 82.9172 56.7394 82.725C57.6876 82.5328 58.6714 82.6267 59.5661 82.9947C60.4607 83.3627 61.2259 83.9883 61.7643 84.792C62.3028 85.5957 62.5903 86.5413 62.5903 87.5087C62.5953 88.7965 62.0892 90.0338 61.183 90.9489C60.2767 91.8639 59.0445 92.3821 57.7566 92.3896ZM57.7566 84.0867C57.0777 84.077 56.4113 84.2695 55.8421 84.6396C55.2728 85.0097 54.8266 85.5408 54.5601 86.1653C54.2935 86.7898 54.2188 87.4794 54.3453 88.1465C54.4718 88.8136 54.7939 89.428 55.2706 89.9115C55.7473 90.395 56.357 90.7258 57.0222 90.8618C57.6874 90.9978 58.3781 90.9329 59.0063 90.6753C59.6345 90.4177 60.1719 89.9791 60.5501 89.4152C60.9283 88.8513 61.1302 88.1876 61.1302 87.5087C61.1355 86.6079 60.7833 85.7417 60.1509 85.1002C59.5185 84.4587 58.6574 84.0942 57.7566 84.0867Z" fill="#0058B0"/>
<path d="M63.292 82.9741H53.6562V92.6034H63.292V82.9741Z" fill="#EAF4FE"/>
<path d="M63.0972 93.3339H52V82.2432H63.0972V93.3339ZM53.4611 91.8724H61.6361V83.7034H53.4611V91.8724Z" fill="#0066CC"/>
<path fill-rule="evenodd" clip-rule="evenodd" d="M63.9157 81.3467H51.3262V93.9361H63.9157V81.3467Z" fill="#2A66C4"/>
<path fill-rule="evenodd" clip-rule="evenodd" d="M54.262 86.3638C54.1556 86.3601 54.0495 86.3791 53.9509 86.4195C53.8524 86.4599 53.7635 86.5208 53.6902 86.5981C53.5438 86.7592 53.4666 86.9716 53.4753 87.1892C53.4693 87.4096 53.5503 87.6235 53.7009 87.7846C53.7737 87.8627 53.8626 87.9245 53.9612 87.9656C54.0598 88.0068 54.1659 88.0264 54.2727 88.0231C54.3779 88.027 54.4828 88.008 54.58 87.9676C54.6772 87.9271 54.7644 87.8662 54.8359 87.7888C54.9808 87.6276 55.0579 87.4166 55.0509 87.1999C55.0575 86.9813 54.9807 86.7684 54.8359 86.6045C54.7652 86.5253 54.6779 86.4626 54.5802 86.421C54.4825 86.3794 54.3768 86.3599 54.2706 86.3638" fill="white"/>
<path d="M58.7235 89.0909H57.6166V91.047H56.2539V84.3256H58.7235C60.3184 84.3256 61.1158 85.1029 61.1158 86.6577C61.1158 87.443 60.9117 88.0463 60.5033 88.4676C60.0949 88.8889 59.5016 89.0967 58.7235 89.0909ZM57.6166 87.9238H58.7149C59.3941 87.9238 59.7317 87.4939 59.7317 86.6577C59.762 86.3408 59.6738 86.0238 59.4844 85.7679C59.3838 85.6688 59.2629 85.5928 59.1301 85.5449C58.9972 85.497 58.8556 85.4785 58.7149 85.4906H57.6166V87.9238Z" fill="white"/>
</svg>
