<svg width="145" height="110" viewBox="0 0 145 110" fill="none" xmlns="http://www.w3.org/2000/svg">
<g clip-path="url(#clip0_13760_304821)">
<path d="M129.66 74.9819V16.3744C129.658 15.6433 129.368 14.9426 128.853 14.4257C128.337 13.9088 127.639 13.6178 126.91 13.6165H32.0552C31.3264 13.6173 30.6276 13.9081 30.1122 14.4251C29.5968 14.9422 29.3067 15.6432 29.3057 16.3744V74.9819H129.66Z" fill="#0058B0"/>
<path d="M29.1064 75.092V83.5675C29.1073 84.3514 29.4184 85.1029 29.9714 85.6568C30.5243 86.2107 31.2739 86.5216 32.0552 86.5211H126.91C127.691 86.5208 128.44 86.2095 128.992 85.6557C129.544 85.1018 129.854 84.3508 129.854 83.5675V75.092H29.1064Z" fill="#C5E1F9"/>
<path d="M96.8346 99.0018C96.8346 99.0018 96.1043 98.644 95.2642 98.3259C94.3702 97.9879 93.2944 97.5653 92.6595 97.2609C91.5516 96.7259 91.4553 96.3744 91.0405 94.5524C90.588 92.5593 90.1612 88.3547 89.9907 86.521H68.9792C68.8051 88.3547 68.3785 92.5593 67.9278 94.5524C67.5122 96.3744 67.4181 96.7259 66.308 97.2609C65.6769 97.5638 64.622 97.9798 63.7317 98.3174C62.8795 98.6377 62.185 98.8855 62.185 98.8855C62.185 98.8855 61.5063 99.2628 62.5926 99.3158H96.3749C97.3936 99.3368 96.8346 99.0018 96.8346 99.0018Z" fill="#C5E1F9"/>
<path d="M90.2121 88.7368C90.118 87.864 90.0391 87.0813 89.9894 86.521H68.974C68.923 87.0813 68.8457 87.864 68.7529 88.7368H90.2121Z" fill="#9AC7F7"/>
<path d="M47.3281 74.9818H68.2154L106.39 13.6165H85.5088L47.3281 74.9818Z" fill="#1F62B2"/>
<path d="M74.1836 74.9818H81.8074L119.981 13.6165H112.358L74.1836 74.9818Z" fill="#1F62B2"/>
<path d="M125.012 18.1499H33.9863V69.5769H125.012V18.1499Z" fill="white"/>
<path d="M139.783 81.4446L139.783 77.1617L137.533 76.6793C137.405 76.0558 137.232 75.4422 137.017 74.8431L138.671 73.3453L136.537 69.6356L134.345 70.3461C133.923 69.8725 133.468 69.429 132.984 69.019L133.672 66.8852L129.976 64.7435L128.432 66.4574C127.83 66.2592 127.216 66.1033 126.592 65.9908L126.124 63.7998H121.856L121.374 66.0572C120.752 66.1862 120.141 66.3592 119.544 66.5751L118.05 64.9147L114.354 67.0562L115.062 69.256C114.59 69.6799 114.148 70.1355 113.739 70.6198L111.613 69.9306L109.478 73.6403L111.186 75.1887C110.989 75.7924 110.834 76.4092 110.721 77.0346L108.538 77.5051L108.537 81.7875L110.787 82.2709C110.916 82.8939 111.088 83.5071 111.303 84.1059L109.648 85.6066L111.783 89.3147L113.976 88.604C114.398 89.0774 114.852 89.5208 115.335 89.9312L114.648 92.0649L118.345 94.2055L119.887 92.4918C120.489 92.69 121.104 92.846 121.727 92.9586L122.196 95.1498H126.464L126.947 92.8928C127.568 92.7637 128.18 92.5909 128.777 92.3756L130.27 94.0342L133.967 91.8944L133.259 89.6936C133.731 89.27 134.173 88.8144 134.582 88.3299L136.708 89.0187L138.842 85.3097L137.134 83.7618C137.332 83.1577 137.487 82.5405 137.6 81.9147L139.783 81.4446ZM131.331 79.4754C131.331 80.8984 130.911 82.2895 130.123 83.4726C129.335 84.6558 128.215 85.5779 126.904 86.1225C125.594 86.667 124.152 86.8095 122.761 86.5318C121.37 86.2542 120.092 85.569 119.09 84.5627C118.087 83.5565 117.404 82.2745 117.127 80.8789C116.85 79.4832 116.992 78.0366 117.535 76.7219C118.078 75.4072 118.997 74.2835 120.176 73.4929C121.355 72.7023 122.742 72.2804 124.16 72.2803C125.102 72.2803 126.034 72.4664 126.904 72.828C127.774 73.1896 128.565 73.7196 129.231 74.3877C129.897 75.0559 130.425 75.849 130.785 76.722C131.146 77.5949 131.331 78.5306 131.331 79.4754H131.331Z" fill="#7EB3FF"/>
<path d="M134.031 79.5816C134.031 81.4788 133.471 83.3335 132.42 84.9111C131.37 86.4886 129.877 87.7182 128.13 88.4442C126.383 89.1702 124.46 89.3601 122.606 88.9899C120.751 88.6197 119.048 87.7059 117.711 86.3642C116.374 85.0225 115.463 83.3132 115.095 81.4523C114.726 79.5915 114.916 77.6627 115.64 75.91C116.363 74.1573 117.589 72.6593 119.162 71.6056C120.734 70.5519 122.583 69.9897 124.474 69.9902C125.729 69.9902 126.972 70.2383 128.132 70.7203C129.291 71.2024 130.345 71.9089 131.233 72.7995C132.12 73.6902 132.824 74.7476 133.304 75.9112C133.785 77.0749 134.032 78.3221 134.031 79.5816Z" fill="#FFCC00"/>
<path d="M133.741 79.5824C133.741 81.422 133.198 83.2203 132.179 84.7499C131.161 86.2795 129.714 87.4718 128.02 88.1759C126.326 88.88 124.462 89.0643 122.664 88.7055C120.866 88.3467 119.214 87.4609 117.918 86.1602C116.621 84.8594 115.739 83.2022 115.381 81.398C115.024 79.5938 115.207 77.7237 115.909 76.0243C116.611 74.3249 117.799 72.8725 119.324 71.8508C120.848 70.8291 122.641 70.284 124.474 70.2844C126.932 70.2848 129.289 71.2645 131.026 73.0082C132.764 74.7518 133.74 77.1166 133.741 79.5824Z" fill="#D98F00"/>
<path d="M131.772 79.5813C131.772 81.0298 131.344 82.4458 130.542 83.6502C129.74 84.8547 128.6 85.7934 127.266 86.3478C125.933 86.9022 124.465 87.0474 123.049 86.7648C121.633 86.4823 120.333 85.7848 119.312 84.7606C118.291 83.7364 117.596 82.4314 117.314 81.0108C117.032 79.5901 117.177 78.1176 117.73 76.7794C118.282 75.4411 119.218 74.2974 120.418 73.4927C121.618 72.6881 123.03 72.2587 124.473 72.2588C126.409 72.2592 128.265 73.0309 129.633 74.404C131.002 75.7771 131.771 77.6394 131.772 79.5813Z" fill="#FFCC00"/>
<path d="M120.83 78.473H121.636C121.686 78.0353 121.804 77.6081 121.987 77.2074C122.156 76.8303 122.39 76.4854 122.676 76.1878C122.959 75.8966 123.299 75.6671 123.674 75.5135C124.084 75.3486 124.523 75.2669 124.965 75.2732C125.739 75.2343 126.5 75.4874 127.097 75.9828C127.661 76.5181 127.997 77.2502 128.037 78.0276H126.577C126.546 77.596 126.364 77.1892 126.063 76.8793C125.764 76.6062 125.369 76.4629 124.965 76.4806C124.73 76.4674 124.496 76.5091 124.28 76.6027C124.064 76.6962 123.872 76.8389 123.721 77.0195C123.404 77.4422 123.212 77.9459 123.167 78.473H125.573L125.433 79.2113H123.131V80.0086H125.281L125.152 80.7468H123.167C123.206 81.2635 123.401 81.7558 123.727 82.1584C123.886 82.3282 124.08 82.4608 124.296 82.547C124.512 82.6332 124.744 82.6708 124.977 82.6572C125.95 82.6572 126.515 82.0906 126.67 80.9576H128.119C128.063 81.7723 127.717 82.5397 127.144 83.1197C126.542 83.6538 125.756 83.9295 124.954 83.8875C124.51 83.8949 124.07 83.8152 123.657 83.6529C123.286 83.504 122.949 83.283 122.664 83.0024C122.378 82.7167 122.146 82.3813 121.98 82.0124C121.8 81.6113 121.684 81.1842 121.636 80.7468H120.83V80.0086H121.601V79.2112H120.83L120.83 78.473Z" fill="#D98F00"/>
<path d="M125.082 25H81.2285V62H125.082V25Z" fill="#EAF4FE"/>
<path d="M125.082 25H81.2285V28.5H125.082V25Z" fill="#0058B0"/>
<path d="M125.082 26H99.1689V27.5H125.082V26Z" fill="white"/>
<path d="M83.9008 26.7925C83.9009 26.9329 83.8594 27.07 83.7817 27.1867C83.7041 27.3034 83.5937 27.3944 83.4645 27.4482C83.3353 27.5019 83.1931 27.516 83.0559 27.4887C82.9188 27.4614 82.7927 27.3939 82.6938 27.2947C82.5948 27.1956 82.5274 27.0692 82.5 26.9316C82.4726 26.794 82.4865 26.6513 82.5399 26.5216C82.5933 26.3919 82.6839 26.2811 82.8001 26.203C82.9163 26.1249 83.053 26.0832 83.1928 26.083C83.3805 26.0829 83.5604 26.1577 83.6932 26.2907C83.826 26.4238 83.9007 26.6043 83.9008 26.7925Z" fill="#D98F00"/>
<path d="M86.1402 26.7925C86.1401 26.9327 86.0986 27.0698 86.021 27.1863C85.9433 27.3029 85.833 27.3937 85.7039 27.4473C85.5748 27.501 85.4328 27.5151 85.2957 27.4878C85.1587 27.4605 85.0327 27.393 84.9339 27.2939C84.835 27.1949 84.7676 27.0686 84.7403 26.9311C84.7129 26.7937 84.7267 26.6511 84.78 26.5216C84.8334 26.392 84.9238 26.2812 85.0398 26.2031C85.1559 26.125 85.2924 26.0833 85.4321 26.083C85.6198 26.083 85.7997 26.1578 85.9325 26.2908C86.0652 26.4239 86.1399 26.6043 86.1402 26.7925Z" fill="#FFCC00"/>
<path d="M88.3794 26.7925C88.3794 26.9329 88.3379 27.0701 88.2602 27.1868C88.1825 27.3035 88.0721 27.3945 87.9428 27.4482C87.8136 27.502 87.6714 27.516 87.5342 27.4887C87.397 27.4613 87.271 27.3937 87.172 27.2945C87.0731 27.1952 87.0057 27.0688 86.9784 26.9311C86.9511 26.7935 86.9651 26.6508 87.0187 26.5211C87.0722 26.3914 87.1628 26.2806 87.2792 26.2026C87.3955 26.1246 87.5322 26.083 87.6721 26.083C87.8596 26.0832 88.0393 26.1581 88.1719 26.2911C88.3045 26.4241 88.3791 26.6044 88.3794 26.7925Z" fill="#7EB3FF"/>
<path d="M125.011 51.0344H85.6426V51.1416H125.011V51.0344Z" fill="#9AC7F7"/>
<path d="M125.011 44.6316H85.6426V44.7397H125.011V44.6316Z" fill="#9AC7F7"/>
<path d="M125.011 38.2295H85.6426V38.3381H125.011V38.2295Z" fill="#9AC7F7"/>
<path d="M125.082 37.75L124.151 37.1756L118.496 39.4148L113.051 35.5761L108.822 39.2331L104.016 39.5426L100.866 34.5748L97.1947 32.875L93.3789 36.1148L89.6727 35.9655L85.7336 39.4789L85.4395 39.1453L89.5115 35.5116L93.2248 35.6616L97.1237 32.3499L101.171 34.2234L104.251 39.0805L108.645 38.7962L113.022 35.0095L118.556 38.912L124.18 36.6851L125.082 37.25V37.75Z" fill="#0561FC"/>
<path d="M84.4469 50.865H82.3789V51.3107H84.4469V50.865Z" fill="#9AC7F7"/>
<path d="M84.4469 44.4617H82.3789V44.9081H84.4469V44.4617Z" fill="#9AC7F7"/>
<path d="M84.4469 38.0603H82.3789V38.5073H84.4469V38.0603Z" fill="#9AC7F7"/>
<path d="M113.959 48.6223L109.399 48.1571L104.987 46.5338L100.182 46.685L97.3495 43.6906L92.3971 42.9811L90.1889 47.8547L85.6153 48.467L85.5566 48.024L89.8869 47.4446L92.1292 42.4922L97.5644 43.2707L100.369 46.2326L105.061 46.0848L109.526 47.7277L113.895 48.1673L116.755 47.0182L120.005 42.6701L123.062 46.5059L124.648 46.1067L125.083 45.5V46.1065L124.869 46.5123L122.894 47.0084L120.016 43.3992L117.035 47.3865L113.959 48.6223Z" fill="#D98F00"/>
<path d="M93.9032 46.7527L89.9998 43.5895L85.5234 45.4725L85.3506 45.0616L90.0727 43.0738L93.8859 46.1646L100.525 40.0937L105.404 42.0819L110.43 45.3915L112.457 41.5161L114.797 39.7545L117.7 35.0004L121.21 36.7763L124.095 39.8148L125.092 39.5912V39.9999L123.939 40.2988L120.914 37.1126L117.866 35.5843L115.098 40.087L112.765 41.8429L110.598 46.0365L105.197 42.4755L100.619 40.6144L93.9032 46.7527Z" fill="#7EB3FF"/>
<path d="M90.7048 43.2949C90.7048 43.4199 90.6678 43.5422 90.5986 43.6461C90.5294 43.7501 90.4311 43.8311 90.316 43.879C90.2009 43.9269 90.0743 43.9395 89.9521 43.9152C89.8298 43.8909 89.7175 43.8308 89.6294 43.7425C89.5412 43.6542 89.4811 43.5416 89.4566 43.4191C89.4321 43.2965 89.4444 43.1694 89.492 43.0538C89.5395 42.9382 89.62 42.8394 89.7235 42.7698C89.827 42.7001 89.9487 42.6628 90.0733 42.6626C90.2406 42.6625 90.401 42.7291 90.5194 42.8477C90.6378 42.9662 90.7045 43.1271 90.7048 43.2949Z" fill="#7EB3FF"/>
<path d="M94.4885 46.3841C94.4884 46.5091 94.4514 46.6313 94.3822 46.7352C94.3129 46.8391 94.2145 46.9201 94.0993 46.9678C93.9842 47.0156 93.8576 47.0281 93.7354 47.0037C93.6132 46.9792 93.501 46.919 93.4129 46.8306C93.3248 46.7422 93.2649 46.6295 93.2406 46.5069C93.2163 46.3843 93.2288 46.2573 93.2765 46.1418C93.3242 46.0263 93.405 45.9276 93.5085 45.8582C93.6121 45.7888 93.7339 45.7517 93.8585 45.7517C93.9413 45.7516 94.0233 45.7679 94.0998 45.7997C94.1763 45.8314 94.2458 45.878 94.3043 45.9368C94.3629 45.9955 94.4093 46.0653 94.4409 46.142C94.4725 46.2188 94.4887 46.3011 94.4885 46.3841Z" fill="#7EB3FF"/>
<path d="M101.24 40.3927C101.24 40.518 101.203 40.6404 101.133 40.7446C101.064 40.8487 100.965 40.9299 100.85 40.9778C100.735 41.0257 100.608 41.0382 100.485 41.0138C100.363 40.9893 100.251 40.929 100.162 40.8404C100.074 40.7518 100.014 40.6389 99.9896 40.516C99.9653 40.3932 99.9779 40.2659 100.026 40.1502C100.074 40.0345 100.154 39.9356 100.258 39.8661C100.362 39.7965 100.484 39.7594 100.609 39.7595C100.776 39.7598 100.937 39.8266 101.055 39.9453C101.173 40.064 101.24 40.2249 101.24 40.3927Z" fill="#7EB3FF"/>
<path d="M105.987 42.2151C105.987 42.3402 105.95 42.4624 105.881 42.5664C105.812 42.6704 105.713 42.7514 105.598 42.7993C105.483 42.8471 105.356 42.8596 105.234 42.8352C105.112 42.8109 104.999 42.7506 104.911 42.6622C104.823 42.5738 104.763 42.4612 104.739 42.3385C104.714 42.2159 104.727 42.0887 104.774 41.9732C104.822 41.8576 104.903 41.7588 105.006 41.6893C105.11 41.6197 105.232 41.5826 105.357 41.5825C105.439 41.5824 105.521 41.5987 105.598 41.6304C105.675 41.6622 105.744 41.7088 105.803 41.7675C105.861 41.8263 105.908 41.8961 105.939 41.9729C105.971 42.0497 105.987 42.132 105.987 42.2151Z" fill="#7EB3FF"/>
<path d="M111.107 45.677C111.107 45.8022 111.07 45.9246 111.001 46.0287C110.932 46.1328 110.833 46.214 110.718 46.262C110.603 46.31 110.476 46.3226 110.354 46.2982C110.231 46.2738 110.119 46.2136 110.031 46.1251C109.942 46.0367 109.882 45.9239 109.858 45.8011C109.833 45.6784 109.846 45.5511 109.894 45.4354C109.941 45.3198 110.022 45.2209 110.126 45.1514C110.23 45.0818 110.352 45.0447 110.476 45.0447C110.644 45.0447 110.804 45.1113 110.922 45.2299C111.04 45.3484 111.107 45.5093 111.107 45.677Z" fill="#7EB3FF"/>
<path d="M113.184 41.6944C113.184 41.8197 113.147 41.9422 113.078 42.0465C113.009 42.1507 112.91 42.232 112.795 42.2799C112.679 42.3279 112.552 42.3405 112.43 42.316C112.307 42.2916 112.195 42.2312 112.107 42.1425C112.018 42.0539 111.958 41.9409 111.934 41.818C111.91 41.6951 111.922 41.5677 111.97 41.452C112.018 41.3363 112.099 41.2374 112.203 41.168C112.307 41.0985 112.429 41.0615 112.554 41.0618C112.637 41.0617 112.719 41.0781 112.795 41.1098C112.872 41.1416 112.941 41.1882 113 41.247C113.058 41.3057 113.105 41.3755 113.136 41.4523C113.168 41.5291 113.184 41.6113 113.184 41.6944Z" fill="#7EB3FF"/>
<path d="M115.67 39.8708C115.67 39.9959 115.633 40.1181 115.563 40.2221C115.494 40.326 115.396 40.407 115.281 40.4548C115.165 40.5027 115.039 40.5152 114.916 40.4907C114.794 40.4663 114.682 40.4061 114.594 40.3177C114.506 40.2293 114.446 40.1166 114.421 39.994C114.397 39.8713 114.409 39.7442 114.457 39.6286C114.505 39.5131 114.585 39.4143 114.689 39.3448C114.793 39.2753 114.914 39.2381 115.039 39.238C115.122 39.2379 115.204 39.2542 115.281 39.2859C115.357 39.3177 115.427 39.3643 115.485 39.423C115.544 39.4818 115.59 39.5517 115.622 39.6285C115.654 39.7053 115.67 39.7877 115.67 39.8708Z" fill="#7EB3FF"/>
<path d="M118.34 35.3671C118.34 35.492 118.303 35.6142 118.234 35.7182C118.164 35.8221 118.066 35.9031 117.951 35.9509C117.836 35.9988 117.709 36.0113 117.587 35.9869C117.465 35.9625 117.353 35.9024 117.265 35.814C117.177 35.7256 117.117 35.613 117.092 35.4904C117.068 35.3678 117.08 35.2408 117.128 35.1253C117.176 35.0098 117.256 34.9111 117.36 34.8417C117.464 34.7722 117.585 34.7351 117.71 34.7351C117.793 34.7351 117.875 34.7514 117.951 34.7831C118.027 34.8149 118.097 34.8614 118.155 34.9201C118.214 34.9788 118.26 35.0485 118.292 35.1252C118.324 35.2018 118.34 35.284 118.34 35.3671Z" fill="#7EB3FF"/>
<path d="M121.829 36.9297C121.829 37.0548 121.792 37.1771 121.723 37.2811C121.653 37.3851 121.555 37.4662 121.44 37.5142C121.325 37.5621 121.198 37.5747 121.076 37.5505C120.953 37.5262 120.841 37.466 120.753 37.3777C120.664 37.2894 120.604 37.1767 120.58 37.0541C120.555 36.9314 120.567 36.8042 120.615 36.6886C120.662 36.5729 120.743 36.474 120.847 36.4043C120.95 36.3346 121.072 36.2972 121.197 36.2969C121.364 36.2967 121.525 36.3633 121.643 36.4819C121.762 36.6006 121.829 36.7617 121.829 36.9297Z" fill="#7EB3FF"/>
<path d="M124.646 40.0576C124.646 40.1828 124.609 40.3051 124.54 40.4091C124.47 40.5132 124.372 40.5942 124.256 40.642C124.141 40.6898 124.014 40.7022 123.892 40.6777C123.77 40.6531 123.657 40.5927 123.569 40.5041C123.481 40.4155 123.421 40.3027 123.397 40.1799C123.373 40.0571 123.385 39.9299 123.433 39.8143C123.481 39.6987 123.562 39.6 123.666 39.5306C123.769 39.4611 123.891 39.4242 124.016 39.4243C124.099 39.4241 124.181 39.4403 124.258 39.4721C124.334 39.5038 124.404 39.5505 124.463 39.6094C124.521 39.6682 124.568 39.7382 124.599 39.8151C124.631 39.892 124.647 39.9745 124.646 40.0576Z" fill="#7EB3FF"/>
<path d="M98.0129 54.4976H88.7695V54.9736H98.0129V54.4976Z" fill="#9AC7F7"/>
<path d="M98.0129 55.8958H88.7695V56.3707H98.0129V55.8958Z" fill="#9AC7F7"/>
<path d="M95.4021 57.2925H88.7695V57.7677H95.4021V57.2925Z" fill="#9AC7F7"/>
<path d="M110.801 54.4976H101.557V54.9736H110.801V54.4976Z" fill="#9AC7F7"/>
<path d="M110.801 55.8958H101.557V56.3707H110.801V55.8958Z" fill="#9AC7F7"/>
<path d="M108.189 57.2925H101.557V57.7677H108.189V57.2925Z" fill="#9AC7F7"/>
<path d="M101.017 54.2834H99.9355V55.1882H101.017V54.2834Z" fill="#7EB3FF"/>
<path d="M87.8609 54.2834H86.7793V55.1882H87.8609V54.2834Z" fill="#7EB3FF"/>
<path d="M123.588 54.4976H114.345V54.9736H123.588V54.4976Z" fill="#9AC7F7"/>
<path d="M123.587 55.8958H114.344V56.3707H123.587V55.8958Z" fill="#9AC7F7"/>
<path d="M120.977 57.2925H114.345V57.7677H120.977V57.2925Z" fill="#9AC7F7"/>
<path d="M113.804 54.2834H112.723V55.1882H113.804V54.2834Z" fill="#0561FC"/>
<path d="M51.4814 57.5613H56.4348C57.6426 57.5613 58.8009 57.08 59.6549 56.2231C60.509 55.3662 60.9887 54.204 60.9887 52.9922C60.9887 51.7804 60.509 50.6182 59.6549 49.7614C58.8009 48.9045 57.6426 48.4231 56.4348 48.4231H51.4814V57.5613Z" fill="#D98F00"/>
<path d="M56.4349 57.5613H5.28031V57.5754L4.51913 57.5613C3.40213 57.5642 2.32503 57.9783 1.49208 58.725C0.659117 59.4718 0.128203 60.4992 0 61.6125C0 62.8546 0.00785263 102.11 0 104.143C0.128573 103.031 0.659985 102.005 1.49319 101.26C2.3264 100.516 3.4033 100.104 4.51913 100.104H5.55879V100.087H56.4349C57.5503 100.087 58.627 99.6765 59.4603 98.9325C60.2936 98.1884 60.8254 97.1631 60.9546 96.0515C60.9546 94.8071 60.9476 55.5538 60.9546 53.5212C60.8254 54.6333 60.2938 55.6591 59.4606 56.4039C58.6275 57.1486 57.5507 57.5605 56.4349 57.5613Z" fill="#EAF4FE"/>
<path d="M54.4414 79.2891H5.89453V80.156H54.4414V79.2891Z" fill="#0066CC"/>
<path d="M8.26998 79.7226C8.26995 80.4045 8.06837 81.0712 7.69073 81.6382C7.31309 82.2053 6.77636 82.6472 6.14839 82.9082C5.52042 83.1692 4.82943 83.2374 4.16279 83.1044C3.49614 82.9714 2.88379 82.643 2.40315 82.1607C1.92252 81.6785 1.59519 81.0641 1.46255 80.3953C1.32992 79.7264 1.39794 79.0331 1.65801 78.403C1.91808 77.7729 2.35853 77.2344 2.92365 76.8555C3.48877 76.4765 4.15319 76.2742 4.83289 76.2742C5.28429 76.274 5.73129 76.3631 6.14836 76.5363C6.56543 76.7096 6.94439 76.9636 7.26358 77.2838C7.58277 77.604 7.83594 77.9843 8.00863 78.4027C8.18131 78.8212 8.27012 79.2697 8.26998 79.7226Z" fill="#EAF4FE"/>
<path d="M4.83277 83.603C4.0677 83.6028 3.3199 83.3748 2.68392 82.9482C2.04794 82.5215 1.55234 81.9151 1.2598 81.2058C0.967253 80.4965 0.890897 79.7161 1.04038 78.9633C1.18987 78.2105 1.55849 77.519 2.09962 76.9764C2.64076 76.4337 3.33012 76.0643 4.08052 75.9147C4.83093 75.7652 5.60868 75.8422 6.31545 76.1361C7.02221 76.4301 7.62624 76.9277 8.05115 77.566C8.47607 78.2043 8.70279 78.9548 8.70265 79.7224C8.70132 80.7516 8.2931 81.7382 7.56759 82.4657C6.84207 83.1933 5.85852 83.6023 4.83277 83.603ZM4.83277 76.7066C4.23857 76.7067 3.65773 76.8835 3.1637 77.2148C2.66968 77.5461 2.28464 78.0169 2.05727 78.5677C1.8299 79.1185 1.77041 79.7246 1.88632 80.3094C2.00222 80.8941 2.28833 81.4313 2.70845 81.8529C3.12858 82.2745 3.66387 82.5616 4.24663 82.678C4.8294 82.7944 5.43349 82.7349 5.98251 82.5068C6.53154 82.2788 7.00085 81.8926 7.33112 81.397C7.66139 80.9013 7.83778 80.3186 7.838 79.7224C7.83742 78.9228 7.52063 78.1562 6.95718 77.5907C6.39373 77.0253 5.62968 76.7073 4.83277 76.7066Z" fill="#0066CC"/>
<path d="M49.0825 79.7226C49.0824 80.4046 48.8808 81.0713 48.5032 81.6383C48.1255 82.2053 47.5887 82.6473 46.9607 82.9082C46.3327 83.1692 45.6417 83.2374 44.975 83.1044C44.3084 82.9713 43.696 82.6428 43.2154 82.1605C42.7348 81.6782 42.4075 81.0638 42.275 80.3948C42.1424 79.7259 42.2105 79.0326 42.4707 78.4025C42.7309 77.7725 43.1714 77.234 43.7367 76.8551C44.3019 76.4763 44.9664 76.2741 45.6461 76.2742C46.0974 76.2742 46.5443 76.3634 46.9613 76.5367C47.3782 76.71 47.7571 76.964 48.0762 77.2842C48.3953 77.6044 48.6484 77.9846 48.8211 78.4029C48.9937 78.8213 49.0826 79.2697 49.0825 79.7226Z" fill="#EAF4FE"/>
<path d="M45.6467 83.603C44.8816 83.603 44.1337 83.3754 43.4975 82.9489C42.8613 82.5223 42.3655 81.9161 42.0727 81.2069C41.7799 80.4976 41.7034 79.7171 41.8527 78.9642C42.002 78.2113 42.3705 77.5197 42.9116 76.9769C43.4527 76.4341 44.142 76.0645 44.8925 75.9148C45.6429 75.7651 46.4208 75.8421 47.1276 76.136C47.8345 76.4299 48.4386 76.9275 48.8635 77.5658C49.2885 78.2042 49.5153 78.9547 49.5151 79.7224C49.5136 80.7513 49.1055 81.7375 48.3804 82.465C47.6552 83.1924 46.6722 83.6017 45.6467 83.603ZM45.6467 76.7066C45.0525 76.7065 44.4716 76.8832 43.9774 77.2144C43.4833 77.5455 43.0981 78.0163 42.8706 78.5671C42.6431 79.1179 42.5835 79.724 42.6993 80.3088C42.8151 80.8936 43.1011 81.4308 43.5212 81.8525C43.9413 82.2742 44.4766 82.5615 45.0594 82.678C45.6422 82.7945 46.2463 82.7349 46.7954 82.5069C47.3444 82.2789 47.8138 81.8927 48.1441 81.3971C48.4744 80.9014 48.6508 80.3186 48.6511 79.7224C48.6503 78.923 48.3336 78.1566 47.7704 77.5912C47.2072 77.0259 46.4434 76.7077 45.6467 76.7066Z" fill="#0066CC"/>
<path d="M35.9292 76.8658H23.7539V82.5784H35.9292V76.8658Z" fill="#EAF4FE"/>
<path d="M36.361 83.0115H23.3213V76.432H36.361V83.0115ZM24.1852 82.1445H35.4971V77.2983H24.1852V82.1445Z" fill="#0066CC"/>
<path d="M58.6036 76.8655H52.9062V82.578H58.6036V76.8655Z" fill="#EAF4FE"/>
<path d="M58.4872 83.0114H51.9258V76.4319H58.4872V83.0114ZM52.7897 82.1444H57.6232V77.2982H52.7897V82.1444Z" fill="#0066CC"/>
<path fill-rule="evenodd" clip-rule="evenodd" d="M58.9711 75.9001H51.5273V83.3688H58.9711V75.9001Z" fill="#2A66C4"/>
<path fill-rule="evenodd" clip-rule="evenodd" d="M53.2634 78.8764C53.2005 78.8742 53.1378 78.8855 53.0795 78.9095C53.0212 78.9334 52.9687 78.9695 52.9253 79.0154C52.8387 79.111 52.7931 79.237 52.7982 79.366C52.7947 79.4968 52.8426 79.6237 52.9317 79.7193C52.9747 79.7656 53.0273 79.8023 53.0856 79.8267C53.1439 79.8511 53.2066 79.8627 53.2697 79.8608C53.3319 79.8631 53.394 79.8518 53.4514 79.8278C53.5089 79.8038 53.5605 79.7677 53.6027 79.7218C53.6884 79.6262 53.734 79.501 53.7298 79.3724C53.7338 79.2427 53.6883 79.1164 53.6027 79.0192C53.5609 78.9722 53.5093 78.935 53.4516 78.9104C53.3938 78.8857 53.3313 78.8741 53.2685 78.8764" fill="white"/>
<path d="M55.9016 80.4945H55.2471V81.6549H54.4414V77.6675H55.9016C56.8446 77.6675 57.3161 78.1287 57.3161 79.051C57.3161 79.5169 57.1954 79.8748 56.9539 80.1247C56.7125 80.3746 56.3617 80.4979 55.9016 80.4945ZM55.2471 79.8021H55.8965C56.2981 79.8021 56.4977 79.5471 56.4977 79.051C56.5156 78.863 56.4635 78.675 56.3515 78.5231C56.292 78.4644 56.2205 78.4192 56.142 78.3909C56.0634 78.3625 55.9797 78.3515 55.8965 78.3586H55.2471V79.8021Z" fill="white"/>
<path d="M14.9968 74.82L10.1113 79.722L14.997 84.6239L19.8825 79.7219L14.9968 74.82Z" fill="#EAF4FE"/>
<path d="M14.9961 85.2368L9.5 79.7223L14.9961 74.2072L20.4927 79.7223L14.9961 85.2368ZM10.7215 79.7223L14.9961 84.0112L19.2712 79.7223L14.9961 75.432L10.7215 79.7223Z" fill="#0066CC"/>
<path d="M24.5201 88.5468H14.4785V84.7642H15.3431V87.6801H24.5201V88.5468Z" fill="#0066CC"/>
<path d="M15.3431 74.68H14.4785V70.8962H24.5201V71.7633H15.3431V74.68Z" fill="#0066CC"/>
<path d="M46.3303 88.5469H36.2891V87.6802H45.4661V83.0302H46.3303V88.5469Z" fill="#0066CC"/>
<path d="M46.3303 76.4139H45.4661V71.7634H36.2891V70.8964H46.3303V76.4139Z" fill="#0066CC"/>
<path d="M35.9292 68.7756H23.7539V74.4899H35.9292V68.7756Z" fill="#EAF4FE"/>
<path d="M36.361 74.9233H23.3213V68.343H36.361V74.9233ZM24.1852 74.0563H35.4971V69.2098H24.1852V74.0563Z" fill="#0066CC"/>
<path d="M35.9292 84.9536H23.7539V90.6669H35.9292V84.9536Z" fill="#EAF4FE"/>
<path d="M36.361 91.1002H23.3213V84.5208H36.361V91.1002ZM24.1852 90.2333H35.4971V85.3877H24.1852V90.2333Z" fill="#0066CC"/>
<path d="M6.80834 65.9967H4.51913C3.40331 65.9968 2.32636 65.5854 1.49312 64.8408C0.659889 64.0962 0.128491 63.0702 0 61.9581C0.00785262 63.9884 0 103.244 0 104.486C0.12849 105.598 0.659911 106.624 1.49317 107.368C2.32642 108.113 3.40337 108.524 4.51913 108.524H6.80834V65.9967Z" fill="#FFCC00"/>
<path d="M60.0258 46.3768H72.1678C72.373 46.3768 72.5699 46.295 72.715 46.1494C72.8601 46.0038 72.9416 45.8063 72.9416 45.6004C72.9416 45.3945 72.8601 45.197 72.715 45.0514C72.5699 44.9058 72.373 44.824 72.1678 44.824H60.0258C59.8205 44.824 59.6237 44.9058 59.4786 45.0514C59.3335 45.197 59.252 45.3945 59.252 45.6004C59.252 45.8063 59.3335 46.0038 59.4786 46.1494C59.6237 46.295 59.8205 46.3768 60.0258 46.3768Z" fill="#0058B0"/>
<path d="M50.9805 15.168C50.9825 11.1463 52.5761 7.29002 55.4111 4.44697C58.2461 1.60392 62.0903 0.00683594 66.0986 0.00683594C70.1068 0.00683594 73.951 1.60392 76.786 4.44697C79.621 7.29002 81.2147 11.1463 81.2167 15.168C81.2167 15.6635 80.8514 22.6724 75.1563 30.0322C73.4894 32.2536 73.7646 36.717 73.7796 36.717H58.3764C58.3909 36.717 58.6984 32.2536 57.037 30.0322C51.3356 22.6677 50.9805 15.6635 50.9805 15.168Z" fill="#D98F00"/>
<path d="M61.2476 34.7387C61.1438 32.8304 60.6776 29.2331 59.4989 27.6581C54.0834 20.6612 53.8403 14.0401 53.8379 13.9747C53.8387 10.4763 55.2246 7.12154 57.6907 4.64838C60.1568 2.17522 63.501 0.78628 66.9878 0.78711C70.4745 0.78794 73.8181 2.17847 76.2831 4.6528C78.748 7.12713 80.1323 10.4826 80.1315 13.981C80.1298 14.0384 79.8805 20.6643 74.4881 27.6331C73.2915 29.2261 72.8087 32.8256 72.6959 34.7387H61.2476Z" fill="#FFCC00"/>
<path d="M78.0059 16.351C77.8503 16.3513 77.6962 16.3208 77.5524 16.2613C77.4085 16.2017 77.2778 16.1144 77.1676 16.0041C77.0575 15.8939 76.97 15.7629 76.9103 15.6188C76.8506 15.4746 76.8198 15.3201 76.8197 15.1639C76.8163 12.3119 75.6852 9.57783 73.6748 7.56165C71.6644 5.54547 68.9388 4.41194 66.0964 4.40984C65.7828 4.40984 65.4821 4.28487 65.2603 4.0624C65.0386 3.83994 64.9141 3.53821 64.9141 3.2236C64.9141 2.90899 65.0386 2.60726 65.2603 2.3848C65.4821 2.16233 65.7828 2.03735 66.0964 2.03735C69.5658 2.04028 72.8923 3.42401 75.3461 5.88492C77.7999 8.34583 79.1806 11.6829 79.185 15.1639C79.1852 15.4781 79.0612 15.7796 78.8401 16.0021C78.6191 16.2246 78.3191 16.3501 78.0059 16.351Z" fill="#FFDD55"/>
<path d="M62.2263 37.8907L60.2646 22.2562L61.0552 22.0187L63.0149 37.6532L62.2263 37.8907Z" fill="#0058B0"/>
<path d="M69.9242 37.8907L71.8866 22.2562L71.0964 22.0187L69.1348 37.6532L69.9242 37.8907Z" fill="#0058B0"/>
<path d="M71.243 24.2142C70.6989 24.2142 70.4651 23.6824 70.2927 23.2931C70.2206 23.1341 70.0712 22.7974 69.9868 22.7974C69.9006 22.7974 69.7533 23.1341 69.6819 23.2931C69.5119 23.6824 69.275 24.2142 68.734 24.2142C68.1908 24.2142 67.9547 23.6824 67.7835 23.2931C67.7446 23.2066 67.6828 23.0665 67.6208 22.9565C67.3432 23.4717 66.8387 24.2142 66.2252 24.2142C65.6811 24.2142 65.4459 23.6824 65.2751 23.2931C65.2028 23.1326 65.0547 22.7974 64.97 22.7974C64.885 22.7974 64.7357 23.1326 64.6647 23.2931C64.4922 23.6824 64.2582 24.2142 63.716 24.2142C63.1715 24.2142 62.9356 23.6824 62.763 23.2931C62.6925 23.1341 62.5439 22.7974 62.4581 22.7974C62.3715 22.7974 62.2236 23.1326 62.1495 23.2931C61.9805 23.6824 61.7446 24.2142 61.2012 24.2142V23.5046C61.2852 23.5046 61.4357 23.1696 61.5066 23.0074C61.6804 22.6196 61.9163 22.0895 62.4581 22.0895C63.0013 22.0895 63.2357 22.6196 63.4075 23.0074C63.4805 23.1696 63.6302 23.5046 63.716 23.5046C63.7979 23.5046 63.9492 23.1696 64.0206 23.0074C64.1907 22.6196 64.4268 22.0895 64.97 22.0895C65.5117 22.0895 65.7478 22.6196 65.9194 23.0074C65.9897 23.1696 66.139 23.5046 66.2252 23.5046C66.4321 23.5046 66.876 22.9305 67.1566 22.2987C67.1845 22.2364 67.2298 22.1835 67.2869 22.1464C67.3441 22.1093 67.4107 22.0895 67.4788 22.0895C68.0222 22.0895 68.2567 22.6196 68.4284 23.0074C68.4988 23.1696 68.6478 23.5046 68.734 23.5046C68.8164 23.5046 68.9664 23.1696 69.0374 23.0084C69.2077 22.6196 69.446 22.0895 69.9868 22.0895C70.531 22.0895 70.7654 22.6196 70.9355 23.0084C71.0092 23.1696 71.1582 23.5046 71.243 23.5046V24.2142Z" fill="#0058B0"/>
<path d="M73.7951 36.7998V44.7291C73.7952 44.9902 73.6921 45.2407 73.5084 45.4257C73.3246 45.6106 73.0753 45.7148 72.815 45.7155H59.3983C59.1379 45.715 58.8883 45.6109 58.7043 45.4259C58.5203 45.241 58.417 44.9904 58.417 44.7291V36.7998H73.7951Z" fill="#0058B0"/>
<path d="M74.1037 38.3414H58.0911C57.9891 38.3419 57.8881 38.3221 57.7938 38.2833C57.6994 38.2444 57.6137 38.1873 57.5414 38.1151C57.4692 38.0429 57.4119 37.9572 57.3727 37.8627C57.3336 37.7682 57.3135 37.6669 57.3135 37.5646C57.3135 37.4623 57.3336 37.361 57.3727 37.2666C57.4119 37.1721 57.4692 37.0863 57.5414 37.0141C57.6137 36.942 57.6994 36.8848 57.7938 36.846C57.8881 36.8072 57.9891 36.7874 58.0911 36.7878H74.1037C74.309 36.7878 74.506 36.8697 74.6512 37.0154C74.7963 37.161 74.8779 37.3586 74.8779 37.5646C74.8779 37.7707 74.7963 37.9682 74.6512 38.1139C74.506 38.2596 74.309 38.3414 74.1037 38.3414Z" fill="#0058B0"/>
<path d="M67.0261 37.9475H58.1401C58.0836 37.9478 58.0275 37.9368 57.9752 37.9153C57.923 37.8937 57.8754 37.862 57.8354 37.822C57.7953 37.782 57.7635 37.7344 57.7418 37.6821C57.7201 37.6297 57.709 37.5735 57.709 37.5168C57.709 37.4601 57.7201 37.4039 57.7418 37.3515C57.7635 37.2992 57.7953 37.2516 57.8354 37.2116C57.8754 37.1716 57.923 37.1399 57.9752 37.1183C58.0275 37.0968 58.0836 37.0858 58.1401 37.0861H67.0261C67.1399 37.0861 67.2491 37.1314 67.3297 37.2122C67.4102 37.293 67.4554 37.4026 67.4554 37.5168C67.4554 37.631 67.4102 37.7406 67.3297 37.8214C67.2491 37.9022 67.1399 37.9475 67.0261 37.9475Z" fill="#4B96E1"/>
<path d="M74.1035 40.934H58.0909C57.9888 40.9344 57.8877 40.9146 57.7932 40.8758C57.6988 40.8369 57.613 40.7797 57.5407 40.7074C57.4684 40.6352 57.411 40.5493 57.3718 40.4548C57.3327 40.3602 57.3125 40.2588 57.3125 40.1564C57.3125 40.054 57.3327 39.9527 57.3718 39.8581C57.411 39.7635 57.4684 39.6777 57.5407 39.6054C57.613 39.5332 57.6988 39.476 57.7932 39.4371C57.8877 39.3982 57.9888 39.3785 58.0909 39.3789H74.1035C74.309 39.3789 74.5061 39.4608 74.6514 39.6066C74.7968 39.7525 74.8784 39.9502 74.8784 40.1564C74.8784 40.3626 74.7968 40.5604 74.6514 40.7062C74.5061 40.852 74.309 40.934 74.1035 40.934Z" fill="#0058B0"/>
<path d="M74.1041 43.5261H58.0914C57.9891 43.5268 57.8877 43.5072 57.793 43.4685C57.6983 43.4297 57.6122 43.3725 57.5396 43.3002C57.467 43.2278 57.4094 43.1418 57.3701 43.0471C57.3308 42.9523 57.3105 42.8507 57.3105 42.7481C57.3105 42.6454 57.3308 42.5438 57.3701 42.449C57.4094 42.3543 57.467 42.2683 57.5396 42.196C57.6122 42.1236 57.6983 42.0664 57.793 42.0277C57.8877 41.9889 57.9891 41.9693 58.0914 41.97H74.1041C74.3088 41.9714 74.5047 42.054 74.6489 42.1998C74.7932 42.3455 74.8742 42.5426 74.8742 42.7481C74.8742 42.9535 74.7932 43.1506 74.6489 43.2963C74.5047 43.4421 74.3088 43.5247 74.1041 43.5261Z" fill="#0058B0"/>
<path d="M67.0264 40.4196H58.1403C58.0838 40.4199 58.0277 40.4089 57.9754 40.3873C57.9231 40.3658 57.8755 40.3341 57.8354 40.294C57.7954 40.254 57.7636 40.2064 57.7419 40.154C57.7202 40.1016 57.709 40.0454 57.709 39.9886C57.709 39.9319 57.7202 39.8757 57.7419 39.8233C57.7636 39.7709 57.7954 39.7233 57.8354 39.6832C57.8755 39.6432 57.9231 39.6115 57.9754 39.5899C58.0277 39.5684 58.0838 39.5574 58.1403 39.5576H67.0264C67.1403 39.5576 67.2496 39.603 67.3301 39.6839C67.4107 39.7647 67.4559 39.8743 67.4559 39.9886C67.4559 40.1029 67.4107 40.2126 67.3301 40.2934C67.2496 40.3742 67.1403 40.4196 67.0264 40.4196Z" fill="#4B96E1"/>
<path d="M67.026 43.0399H58.14C58.0259 43.0399 57.9166 42.9945 57.8359 42.9136C57.7553 42.8327 57.71 42.7229 57.71 42.6085C57.71 42.494 57.7553 42.3843 57.8359 42.3034C57.9166 42.2225 58.0259 42.177 58.14 42.177H67.026C67.1401 42.177 67.2495 42.2225 67.3301 42.3034C67.4107 42.3843 67.4561 42.494 67.4561 42.6085C67.4561 42.7229 67.4107 42.8327 67.3301 42.9136C67.2495 42.9945 67.1401 43.0399 67.026 43.0399Z" fill="#4B96E1"/>
<path d="M68.0994 38.3477H60.5117V39.1383H68.0994V38.3477Z" fill="#1569BE"/>
<path d="M68.0994 40.8699H60.5117V41.6605H68.0994V40.8699Z" fill="#1569BE"/>
<path d="M68.0994 43.3909H60.5117V44.1824H68.0994V43.3909Z" fill="#1569BE"/>
<path d="M31.1627 109.958H33.0035V106.691H31.1627C31.1162 106.692 31.0703 106.701 31.0275 106.719C30.9847 106.738 30.9459 106.764 30.9132 106.797C30.8806 106.831 30.8549 106.87 30.8374 106.913C30.82 106.956 30.8112 107.003 30.8115 107.049V109.599C30.8108 109.693 30.8474 109.784 30.9132 109.851C30.979 109.918 31.0687 109.957 31.1627 109.958Z" fill="#FF876C"/>
<path d="M31.1972 109.512H33.0036V108.124H31.1972C31.1512 108.125 31.1077 108.145 31.0757 108.178C31.0438 108.211 31.0261 108.256 31.0264 108.302V109.334C31.0259 109.357 31.03 109.38 31.0383 109.401C31.0466 109.422 31.0591 109.442 31.075 109.458C31.0908 109.475 31.1098 109.488 31.1308 109.497C31.1518 109.506 31.1743 109.511 31.1972 109.512Z" fill="#FFA38F"/>
<path d="M33.0035 107.455V106.691H31.1627C31.1162 106.692 31.0703 106.701 31.0275 106.719C30.9847 106.738 30.9459 106.764 30.9132 106.797C30.8806 106.831 30.8549 106.87 30.8374 106.913C30.82 106.956 30.8112 107.003 30.8115 107.049V107.455H33.0035Z" fill="#E36E54"/>
<path d="M39.2236 110H90.949C90.9254 109.809 90.8405 109.631 90.7071 109.493C90.5737 109.355 90.399 109.264 90.2096 109.235H39.2236V110Z" fill="#0058B0"/>
<path d="M39.2236 107.414V109.234H90.2097L90.219 109.23L90.2097 109.229C90.4206 109.19 90.6112 109.078 90.7484 108.912C90.8856 108.747 90.9608 108.539 90.9608 108.323C90.9608 108.108 90.8856 107.9 90.7484 107.734C90.6112 107.569 90.4206 107.457 90.2097 107.418L90.219 107.416L90.2097 107.414H39.2236Z" fill="#0066CC"/>
<path d="M90.2096 107.415C90.3988 107.385 90.5733 107.294 90.7066 107.156C90.84 107.018 90.9251 106.841 90.949 106.65H39.2236V107.415H90.2096Z" fill="#0058B0"/>
<path d="M90.9493 106.647C90.9256 106.838 90.8407 107.016 90.7073 107.155C90.574 107.293 90.3994 107.384 90.21 107.414L90.2193 107.416L90.21 107.418C90.4209 107.457 90.6115 107.569 90.7487 107.735C90.8859 107.9 90.9611 108.108 90.9611 108.324C90.9611 108.539 90.8859 108.747 90.7487 108.913C90.6115 109.078 90.4209 109.19 90.21 109.229L90.2193 109.231L90.21 109.235C90.3992 109.264 90.5737 109.355 90.7071 109.493C90.8404 109.631 90.9254 109.809 90.9493 110L97.8008 108.323L90.9493 106.647Z" fill="#C5E1F9"/>
<path d="M90.9493 106.647C90.9256 106.838 90.8407 107.016 90.7073 107.155C90.574 107.293 90.3994 107.384 90.21 107.414L90.2193 107.416L90.21 107.418C90.6318 107.476 97.8008 108.323 97.8008 108.323L90.9493 106.647Z" fill="#9AC7F7"/>
<path d="M39.2232 106.671H32.9355V109.983H39.2232V106.671Z" fill="#D98F00"/>
<path d="M39.2237 108.205H32.9375V108.884H39.2237V108.205Z" fill="#F4DA80"/>
<path d="M95.7334 107.819C95.7117 107.977 95.6997 108.136 95.6973 108.296C95.6981 108.474 95.7133 108.653 95.7428 108.829L97.8001 108.323L95.7334 107.819Z" fill="#0450CF"/>
<path d="M38.5644 109.683H37.6621V109.898H38.5644V109.683Z" fill="#F4DA80"/>
<path d="M38.5644 109.196H37.6621V109.41H38.5644V109.196Z" fill="#F4DA80"/>
<path d="M38.5644 108.708H37.6621V108.921H38.5644V108.708Z" fill="#D98F00"/>
<path d="M38.5644 108.222H37.6621V108.437H38.5644V108.222Z" fill="#D98F00"/>
<path d="M38.5644 107.735H37.6621V107.947H38.5644V107.735Z" fill="#F4DA80"/>
<path d="M38.5644 107.247H37.6621V107.459H38.5644V107.247Z" fill="#F4DA80"/>
<path d="M38.5644 106.761H37.6621V106.974H38.5644V106.761Z" fill="#F4DA80"/>
<path d="M34.7131 109.683H33.8066V109.898H34.7131V109.683Z" fill="#F4DA80"/>
<path d="M34.7131 109.196H33.8066V109.41H34.7131V109.196Z" fill="#F4DA80"/>
<path d="M34.7131 108.708H33.8066V108.921H34.7131V108.708Z" fill="#D98F00"/>
<path d="M34.7131 108.222H33.8066V108.437H34.7131V108.222Z" fill="#D98F00"/>
<path d="M34.7131 107.735H33.8066V107.947H34.7131V107.735Z" fill="#F4DA80"/>
<path d="M34.7131 107.247H33.8066V107.459H34.7131V107.247Z" fill="#F4DA80"/>
<path d="M34.7131 106.761H33.8066V106.974H34.7131V106.761Z" fill="#F4DA80"/>
</g>
<defs>
<clipPath id="clip0_13760_304821">
<rect width="145" height="110" fill="white"/>
</clipPath>
</defs>
</svg>
