<svg width="383" height="335" viewBox="0 0 383 335" fill="none" xmlns="http://www.w3.org/2000/svg">
<path d="M158.346 51.884L158.347 39.2902L151.71 37.8717C151.33 36.0383 150.821 34.2341 150.187 32.4723L155.068 28.0683L148.771 17.1599L142.303 19.2493C141.057 17.8565 139.716 16.5525 138.289 15.3468L140.318 9.07244L129.412 2.77498L124.858 7.8146C123.083 7.23188 121.269 6.77346 119.43 6.44267L118.05 0H105.456L104.034 6.63775C102.201 7.01701 100.397 7.52588 98.6361 8.16052L94.2267 3.2784L83.3226 9.5753L85.4114 16.0439C84.0208 17.2901 82.7171 18.63 81.5094 20.0541L75.2368 18.0273L68.9376 28.9357L73.9778 33.4885C73.3955 35.2638 72.9373 37.0775 72.6067 38.9164L66.1643 40.2999L66.1621 52.8923L72.7995 54.3136C73.1797 56.1456 73.6882 57.9486 74.3212 59.7093L69.441 64.122L75.738 75.0256L82.208 72.9359C83.4531 74.3279 84.7933 75.6318 86.2187 76.8385L84.1914 83.1126L95.0983 89.4069L99.6492 84.3678C101.425 84.9506 103.238 85.4092 105.077 85.7403L106.461 92.1836H119.053L120.475 85.547C122.309 85.1673 124.113 84.6591 125.875 84.0262L130.282 88.9032L141.189 82.6113L139.099 76.1399C140.491 74.8943 141.795 73.5545 143.002 72.13L149.274 74.1552L155.57 63.2493L150.532 58.6976C151.115 56.9212 151.574 55.1064 151.905 53.2663L158.346 51.884ZM133.411 46.0936C133.411 50.2779 132.17 54.3682 129.846 57.8472C127.521 61.3263 124.217 64.0378 120.351 65.639C116.485 67.2402 112.231 67.6591 108.128 66.8428C104.024 66.0264 100.254 64.0115 97.2953 61.0527C94.3366 58.094 92.3216 54.3243 91.5053 50.2204C90.689 46.1165 91.108 41.8627 92.7092 37.997C94.3105 34.1312 97.0221 30.827 100.501 28.5023C103.98 26.1776 108.071 24.9368 112.255 24.9367C115.033 24.9367 117.784 25.484 120.351 26.5472C122.918 27.6104 125.25 29.1688 127.215 31.1334C129.18 33.098 130.738 35.4304 131.801 37.9972C132.864 40.5641 133.412 43.3153 133.412 46.0936H133.411Z" fill="#7EB3FF"/>
<path d="M141.379 46.4065C141.379 51.9854 139.725 57.439 136.626 62.0777C133.527 66.7164 129.121 70.3319 123.967 72.4667C118.813 74.6016 113.141 75.16 107.67 74.0713C102.198 72.9827 97.1724 70.2958 93.228 66.3506C89.2835 62.4054 86.5976 57.3791 85.51 51.9073C84.4223 46.4355 84.9818 40.7641 87.1177 35.6103C89.2535 30.4565 92.8698 26.0519 97.5091 22.9535C102.148 19.8551 107.602 18.202 113.181 18.2035C116.885 18.2034 120.552 18.9329 123.973 20.3503C127.395 21.7677 130.504 23.8452 133.122 26.4642C135.741 29.0831 137.817 32.1923 139.234 35.614C140.651 39.0358 141.38 42.7031 141.379 46.4065Z" fill="#FFCC00"/>
<path d="M140.521 46.4084C140.522 51.8174 138.919 57.1052 135.914 61.6031C132.91 66.1009 128.639 69.6068 123.642 71.6772C118.645 73.7476 113.146 74.2895 107.841 73.2345C102.536 72.1794 97.6629 69.5748 93.8382 65.75C90.0136 61.9252 87.4091 57.052 86.3542 51.7469C85.2993 46.4417 85.8414 40.9429 87.912 35.9459C89.9825 30.9489 93.4885 26.6781 97.9864 23.6738C102.484 20.6695 107.772 19.0666 113.181 19.0679C120.432 19.069 127.385 21.9499 132.512 27.077C137.639 32.2041 140.52 39.1576 140.521 46.4084Z" fill="#D98F00"/>
<path d="M134.713 46.4054C134.713 50.6646 133.451 54.8284 131.085 58.37C128.719 61.9116 125.355 64.6721 121.421 66.3023C117.486 67.9325 113.156 68.3592 108.978 67.5284C104.801 66.6976 100.964 64.6467 97.9519 61.635C94.9402 58.6234 92.8891 54.7862 92.0583 50.6088C91.2274 46.4314 91.654 42.1014 93.284 38.1665C94.9141 34.2315 97.6745 30.8683 101.216 28.5023C104.758 26.1362 108.921 24.8735 113.181 24.8739C118.891 24.8753 124.367 27.1442 128.404 31.1818C132.442 35.2194 134.711 40.6953 134.713 46.4054Z" fill="#FFCC00"/>
<path d="M102.43 43.1466H104.808C104.955 41.8594 105.304 40.6034 105.843 39.425C106.343 38.3162 107.031 37.3019 107.876 36.427C108.711 35.5708 109.713 34.8958 110.821 34.4443C112.031 33.9593 113.326 33.7191 114.629 33.7375C116.913 33.6232 119.157 34.3675 120.92 35.8241C122.582 37.3982 123.575 39.551 123.693 41.8369H119.386C119.294 40.5676 118.757 39.3716 117.868 38.4603C116.986 37.6573 115.821 37.2359 114.629 37.288C113.936 37.249 113.244 37.3718 112.607 37.6469C111.969 37.9219 111.405 38.3416 110.958 38.8726C110.023 40.1155 109.456 41.5967 109.323 43.1466H116.421L116.009 45.3173H109.219V47.6618H115.56L115.182 49.8325H109.323C109.439 51.3517 110.015 52.7996 110.975 53.9831C111.445 54.4825 112.019 54.8726 112.656 55.126C113.293 55.3795 113.978 55.49 114.663 55.4499C117.535 55.4499 119.201 53.784 119.661 50.4523H123.935C123.769 52.8481 122.748 55.1046 121.057 56.8101C119.283 58.3805 116.962 59.1912 114.596 59.0677C113.288 59.0893 111.988 58.8549 110.77 58.3778C109.677 57.9401 108.681 57.29 107.84 56.4651C106.997 55.625 106.313 54.6386 105.823 53.5541C105.292 52.3744 104.949 51.1186 104.808 49.8325H102.43V47.6618H104.704V45.3173H102.43L102.43 43.1466Z" fill="#D98F00"/>
<path d="M261.025 60.3159H0V207.302H261.025V60.3159Z" fill="#003C77"/>
<path d="M261.126 60.2817H0.100586V64.0906H261.126V60.2817Z" fill="#EAF4FE"/>
<path d="M11.0027 62.0356H4.7168V62.3989H11.0027V62.0356Z" fill="#0450CF"/>
<path d="M19.0718 62.0356H12.7891V62.3989H19.0718V62.0356Z" fill="#0450CF"/>
<path d="M27.1374 62.0356H20.8555V62.3989H27.1374V62.0356Z" fill="#0450CF"/>
<path d="M35.2046 62.0356H28.9219V62.3989H35.2046V62.0356Z" fill="#0450CF"/>
<path d="M43.2768 62.0356H36.9941V62.3989H43.2768V62.0356Z" fill="#0450CF"/>
<path d="M51.3424 62.0356H45.0605V62.3989H51.3424V62.0356Z" fill="#0450CF"/>
<path d="M59.4097 62.0356H53.127V62.3989H59.4097V62.0356Z" fill="#0450CF"/>
<path d="M67.4812 62.0356H61.1953V62.3989H67.4812V62.0356Z" fill="#0450CF"/>
<path d="M3.11393 61.5732H1.92969V62.8629H3.11393V61.5732Z" fill="#0450CF"/>
<path d="M261.127 63.6724H0.101562V68.2247H261.127V63.6724Z" fill="#0450CF"/>
<path d="M261.127 67.8936H0.101562V68.1994H261.127V67.8936Z" fill="#003E99"/>
<path d="M260.177 64.6699H243.613V67.5382H260.177V64.6699Z" fill="#9AC7F7"/>
<path d="M241.475 65.8101H240.83V66.3985H241.475V65.8101Z" fill="#003E99"/>
<path d="M239.476 65.8042H230.757V66.3959H239.476V65.8042Z" fill="#9AC7F7"/>
<path d="M7.08162 65.3433H5.89746V66.6369H7.08162V65.3433Z" fill="#003E99"/>
<path d="M3.11491 65.3433H1.93066V66.6369H3.11491V65.3433Z" fill="#9AC7F7"/>
<path d="M9.68131 65.3433H8.49707V66.6369H9.68131V65.3433Z" fill="#003E99"/>
<path d="M87.8704 71.2085H33.3057V72.9556H87.8704V71.2085Z" fill="#6D5CBB"/>
<path d="M46.8426 77.6372H37.8203V79.3843H46.8426V77.6372Z" fill="#FF876C"/>
<path d="M46.8426 84.0654H37.8203V85.8126H46.8426V84.0654Z" fill="#FF876C"/>
<path d="M46.8426 90.4941H37.8203V92.2413H46.8426V90.4941Z" fill="#FF876C"/>
<path d="M92.1768 77.6372H64.4844V79.3843H92.1768V77.6372Z" fill="#7EC896"/>
<path d="M92.1768 84.0654H64.4844V85.8126H92.1768V84.0654Z" fill="#7EC896"/>
<path d="M92.1778 90.4941H64.4854V92.2413H92.1778V90.4941Z" fill="#7EC896"/>
<path d="M57.0999 77.6372H50.7422V79.3843H57.0999V77.6372Z" fill="#C5E1F9"/>
<path d="M57.0999 84.0654H50.7422V85.8126H57.0999V84.0654Z" fill="#C5E1F9"/>
<path d="M57.1008 90.4941H50.7432V92.2413H57.1008V90.4941Z" fill="#C5E1F9"/>
<path d="M61.5367 77.6372H59.8438V79.3843H61.5367V77.6372Z" fill="#D98F00"/>
<path d="M61.5367 84.0654H59.8438V85.8126H61.5367V84.0654Z" fill="#D98F00"/>
<path d="M61.5367 90.4941H59.8438V92.2413H61.5367V90.4941Z" fill="#D98F00"/>
<path d="M35.2016 77.6372H33.5088V79.3843H35.2016V77.6372Z" fill="#D98F00"/>
<path d="M35.2016 84.0654H33.5088V85.8126H35.2016V84.0654Z" fill="#D98F00"/>
<path d="M35.2016 90.4941H33.5088V92.2413H35.2016V90.4941Z" fill="#D98F00"/>
<path d="M51.7671 103.348H37.8203V105.095H51.7671V103.348Z" fill="#FF876C"/>
<path d="M92.178 103.348H71.0518V105.095H92.178V103.348Z" fill="#7EC896"/>
<path d="M63.662 103.348H55.6641V105.095H63.662V103.348Z" fill="#C5E1F9"/>
<path d="M68.099 103.348H66.4102V105.095H68.099V103.348Z" fill="#D98F00"/>
<path d="M158.432 116.204H92.9951V117.951H158.432V116.204Z" fill="#6D5CBB"/>
<path d="M87.8711 116.204H56.4863V117.951H87.8711V116.204Z" fill="#C5E1F9"/>
<path d="M137.921 103.348H116.791V105.095H137.921V103.348Z" fill="#7EC896"/>
<path d="M109.408 103.348H98.1299V105.095H109.408V103.348Z" fill="#C5E1F9"/>
<path d="M113.842 103.348H112.15V105.095H113.842V103.348Z" fill="#D98F00"/>
<path d="M141.738 103.348H140.049V105.095H141.738V103.348Z" fill="#D98F00"/>
<path d="M35.2016 103.348H33.5088V105.095H35.2016V103.348Z" fill="#D98F00"/>
<path d="M51.7671 129.061H37.8203V130.808H51.7671V129.061Z" fill="#FF876C"/>
<path d="M35.2016 129.061H33.5088V130.808H35.2016V129.061Z" fill="#C5E1F9"/>
<path d="M56.1284 129.061H54.4355V130.808H56.1284V129.061Z" fill="#C5E1F9"/>
<path d="M41.0991 154.771H27.1523V156.518H41.0991V154.771Z" fill="#FF876C"/>
<path d="M24.5345 154.771H22.8457V156.518H24.5345V154.771Z" fill="#C5E1F9"/>
<path d="M45.4614 154.771H43.7686V156.518H45.4614V154.771Z" fill="#C5E1F9"/>
<path d="M46.8979 122.631H45.2051V124.378H46.8979V122.631Z" fill="#D98F00"/>
<path d="M53.409 109.777H45.2051V111.524H53.409V109.777Z" fill="#FF876C"/>
<path d="M88.4748 109.777H56.4863V111.524H88.4748V109.777Z" fill="#D98F00"/>
<path d="M139.354 77.6372H111.666V79.3843H139.354V77.6372Z" fill="#7EC896"/>
<path d="M139.354 84.0654H111.666V85.8126H139.354V84.0654Z" fill="#7EC896"/>
<path d="M139.354 90.4941H111.666V92.2413H139.354V90.4941Z" fill="#7EC896"/>
<path d="M189.201 77.6372H140.789V79.3843H189.201V77.6372Z" fill="#7EC896"/>
<path d="M207.046 84.0654H140.789V85.8126H207.046V84.0654Z" fill="#7EC896"/>
<path d="M218.941 90.4941H140.789V92.2413H218.941V90.4941Z" fill="#7EC896"/>
<path d="M104.281 77.6372H97.9199V79.3843H104.281V77.6372Z" fill="#C5E1F9"/>
<path d="M104.281 84.0654H97.9199V85.8126H104.281V84.0654Z" fill="#C5E1F9"/>
<path d="M104.282 90.4941H97.9209V92.2413H104.282V90.4941Z" fill="#C5E1F9"/>
<path d="M108.712 77.6372H107.023V79.3843H108.712V77.6372Z" fill="#D98F00"/>
<path d="M108.712 84.0654H107.023V85.8126H108.712V84.0654Z" fill="#D98F00"/>
<path d="M108.712 90.4941H107.023V92.2413H108.712V90.4941Z" fill="#D98F00"/>
<path d="M197.253 77.6372H195.561V79.3843H197.253V77.6372Z" fill="#D98F00"/>
<path d="M213.533 84.0654H211.844V85.8126H213.533V84.0654Z" fill="#D98F00"/>
<path d="M224.61 90.4941H222.918V92.2413H224.61V90.4941Z" fill="#D98F00"/>
<path d="M87.8704 96.9229H33.3057V98.67H87.8704V96.9229Z" fill="#7EB3FF"/>
<path d="M35.7678 168.44H26.7422V170.188H35.7678V168.44Z" fill="#FF876C"/>
<path d="M56.8947 181.294H47.8691V183.042H56.8947V181.294Z" fill="#FF876C"/>
<path d="M134.433 181.294H74.5342V183.042H134.433V181.294Z" fill="#7EC896"/>
<path d="M121.719 174.87H33.9229V176.617H121.719V174.87Z" fill="#C5E1F9"/>
<path d="M67.1498 181.294H60.792V183.042H67.1498V181.294Z" fill="#C5E1F9"/>
<path d="M71.5864 181.294H69.8936V183.042H71.5864V181.294Z" fill="#D98F00"/>
<path d="M24.1255 168.44H22.4326V170.188H24.1255V168.44Z" fill="#D98F00"/>
<path d="M39.5131 168.44H37.8203V170.188H39.5131V168.44Z" fill="#D98F00"/>
<path d="M64.0759 187.724H59.9707V189.471H64.0759V187.724Z" fill="#FF876C"/>
<path d="M57.3593 187.724H55.6641V189.471H57.3593V187.724Z" fill="#D98F00"/>
<path d="M67.8188 187.724H66.126V189.471H67.8188V187.724Z" fill="#D98F00"/>
<path d="M75.5653 200.579H71.4609V202.326H75.5653V200.579Z" fill="#FF876C"/>
<path d="M68.8413 200.579H67.1484V202.326H68.8413V200.579Z" fill="#D98F00"/>
<path d="M79.3053 200.579H77.6133V202.326H79.3053V200.579Z" fill="#D98F00"/>
<path d="M45.2565 181.294H43.5645V183.042H45.2565V181.294Z" fill="#D98F00"/>
<path d="M203.149 194.153H67.3535V195.9H203.149V194.153Z" fill="#C5E1F9"/>
<path d="M138.177 181.294H136.484V183.042H138.177V181.294Z" fill="#D98F00"/>
<path d="M108.383 135.488H33.3057V137.235H108.383V135.488Z" fill="#7EB3FF"/>
<path d="M144.483 141.915H33.3057V143.662H144.483V141.915Z" fill="#7EB3FF"/>
<path d="M71.0505 148.342H33.3057V150.089H71.0505V148.342Z" fill="#7EB3FF"/>
<path d="M7.45938 71.2085H3.35742V72.9556H7.45938V71.2085Z" fill="#D98F00"/>
<path d="M7.45938 77.6372H3.35742V79.3843H7.45938V77.6372Z" fill="#D98F00"/>
<path d="M7.45938 84.0654H3.35742V85.8126H7.45938V84.0654Z" fill="#D98F00"/>
<path d="M7.45938 90.4941H3.35742V92.2413H7.45938V90.4941Z" fill="#D98F00"/>
<path d="M7.45938 96.9229H3.35742V98.67H7.45938V96.9229Z" fill="#D98F00"/>
<path d="M7.45938 103.348H3.35742V105.095H7.45938V103.348Z" fill="#D98F00"/>
<path d="M7.45938 109.777H3.35742V111.524H7.45938V109.777Z" fill="#D98F00"/>
<path d="M7.45938 116.204H3.35742V117.951H7.45938V116.204Z" fill="#D98F00"/>
<path d="M7.45938 122.631H3.35742V124.378H7.45938V122.631Z" fill="#D98F00"/>
<path d="M7.45938 129.061H3.35742V130.808H7.45938V129.061Z" fill="#D98F00"/>
<path d="M7.45938 135.488H3.35742V137.235H7.45938V135.488Z" fill="#D98F00"/>
<path d="M7.45938 141.915H3.35742V143.662H7.45938V141.915Z" fill="#D98F00"/>
<path d="M7.45938 148.342H3.35742V150.089H7.45938V148.342Z" fill="#D98F00"/>
<path d="M7.45938 154.771H3.35742V156.518H7.45938V154.771Z" fill="#D98F00"/>
<path d="M7.45938 161.199H3.35742V162.946H7.45938V161.199Z" fill="#D98F00"/>
<path d="M7.45938 167.626H3.35742V169.374H7.45938V167.626Z" fill="#D98F00"/>
<path d="M7.45938 174.053H3.35742V175.801H7.45938V174.053Z" fill="#D98F00"/>
<path d="M76.5217 245.06L78.7302 218.106L80.9463 191.151L57.835 205.214L34.7277 219.261L53.9338 224.013L43.7276 240.537L53.4795 246.563L63.6781 230.041L76.5217 245.06Z" fill="#4B82E9"/>
<path d="M78.7263 218.088L80.9424 191.133L80.1684 191.601L48.2474 243.311L53.4704 246.523L63.6691 230.001L76.5214 245.057L78.7263 218.088Z" fill="#88B2F8"/>
<path d="M215.462 315.43V311.936C218.171 311.932 220.768 310.855 222.683 308.939C224.599 307.023 225.676 304.426 225.679 301.716V295.66H229.173V301.716C229.169 305.352 227.724 308.838 225.153 311.408C222.583 313.979 219.097 315.426 215.462 315.43Z" fill="#0058B0"/>
<path d="M241.638 316.195H238.143V291.427C238.143 290.238 237.671 289.097 236.829 288.255C235.988 287.414 234.847 286.942 233.658 286.942C232.468 286.942 231.327 287.414 230.486 288.255C229.645 289.097 229.172 290.238 229.172 291.427V298.723H225.678V291.427C225.678 289.311 226.518 287.281 228.015 285.785C229.512 284.288 231.541 283.447 233.658 283.447C235.774 283.447 237.804 284.288 239.3 285.785C240.797 287.281 241.638 289.311 241.638 291.427V316.195Z" fill="#0058B0"/>
<path d="M264.067 308.297H260.572V277.27C260.572 275.664 259.934 274.123 258.798 272.987C257.662 271.851 256.122 271.213 254.515 271.213C252.909 271.213 251.368 271.851 250.232 272.987C249.096 274.123 248.458 275.664 248.458 277.27V308.297H244.964V277.27C244.964 274.737 245.97 272.308 247.761 270.516C249.553 268.725 251.982 267.719 254.515 267.719C257.048 267.719 259.478 268.725 261.269 270.516C263.06 272.308 264.067 274.737 264.067 277.27V308.297Z" fill="#0058B0"/>
<path d="M243.342 324.701C241.966 324.699 240.648 324.151 239.677 323.178C238.705 322.205 238.159 320.886 238.158 319.511V305.841H241.652V319.511C241.652 319.733 241.695 319.954 241.78 320.159C241.864 320.365 241.989 320.552 242.146 320.71C242.303 320.867 242.49 320.992 242.695 321.078C242.901 321.163 243.121 321.207 243.343 321.207C243.566 321.207 243.786 321.163 243.992 321.078C244.197 320.992 244.384 320.867 244.541 320.71C244.698 320.552 244.822 320.365 244.907 320.159C244.992 319.954 245.035 319.733 245.034 319.511V305.841H248.528V319.511C248.528 320.886 247.981 322.206 247.009 323.179C246.036 324.152 244.717 324.699 243.342 324.701Z" fill="#0058B0"/>
<path d="M215.719 315.431C212.084 315.427 208.598 313.98 206.028 311.41C203.457 308.839 202.012 305.353 202.008 301.718V289.171H205.502V301.718C205.505 304.427 206.582 307.024 208.498 308.94C210.413 310.856 213.01 311.933 215.719 311.937V315.431Z" fill="#0058B0"/>
<path d="M205.509 290.388H202.015V277.839C202.012 275.131 200.935 272.533 199.02 270.618C197.105 268.702 194.508 267.624 191.799 267.621H188.332V264.127H191.799C195.434 264.131 198.919 265.577 201.489 268.148C204.06 270.719 205.505 274.204 205.509 277.839V290.388Z" fill="#0058B0"/>
<path d="M163.285 267.674H156.403C152.768 267.671 149.282 266.226 146.71 263.655C144.139 261.085 142.693 257.599 142.688 253.963V207.301H146.183V253.963C146.187 256.672 147.264 259.27 149.18 261.185C151.096 263.1 153.694 264.178 156.403 264.18H163.285V267.674Z" fill="#0058B0"/>
<path d="M274.119 334.001V330.506C276.829 330.503 279.427 329.425 281.343 327.508C283.259 325.592 284.336 322.994 284.339 320.284V234.792H287.834V320.284C287.829 323.92 286.383 327.406 283.812 329.978C281.241 332.549 277.755 333.996 274.119 334.001Z" fill="#0058B0"/>
<path d="M274.375 334.001C270.739 333.997 267.253 332.55 264.683 329.978C262.112 327.407 260.667 323.921 260.663 320.285V290.268H264.157V320.285C264.16 322.994 265.237 325.592 267.152 327.509C269.068 329.425 271.666 330.503 274.375 330.507V334.001Z" fill="#0058B0"/>
<path d="M289.661 265.496C340.802 265.496 382.261 224.683 382.261 174.337C382.261 123.991 340.802 83.1782 289.661 83.1782C238.519 83.1782 197.061 123.991 197.061 174.337C197.061 224.683 238.519 265.496 289.661 265.496Z" fill="#9AC7F7"/>
<path fill-rule="evenodd" clip-rule="evenodd" d="M303.801 264.439C299.19 265.135 294.467 265.496 289.658 265.496C282.464 265.496 275.461 264.688 268.738 263.16L276.81 193.924L286.192 150.469L295.574 193.924L303.801 264.439Z" fill="#D98F00"/>
<path fill-rule="evenodd" clip-rule="evenodd" d="M298.514 265.086C295.6 265.358 292.647 265.497 289.661 265.497C284.303 265.497 279.052 265.049 273.943 264.19L279.655 193.926L286.192 150.47L292.731 193.926L298.514 265.086Z" fill="#FFCC00"/>
<path fill-rule="evenodd" clip-rule="evenodd" d="M289.85 265.496C289.787 265.496 289.723 265.496 289.66 265.496C287.264 265.496 284.889 265.406 282.539 265.23L284.256 193.924L286.193 150.469L288.13 193.924L289.85 265.496Z" fill="#D98F00"/>
<path fill-rule="evenodd" clip-rule="evenodd" d="M342.646 249.107C342.322 248.445 341.963 247.798 341.57 247.17C339.653 244.11 336.991 241.586 333.832 239.837C330.673 238.088 327.121 237.17 323.51 237.17C319.899 237.17 316.347 238.088 313.188 239.837C310.029 241.586 307.366 244.11 305.45 247.17C303.534 250.231 302.427 253.729 302.233 257.334C302.102 259.778 302.392 262.216 303.084 264.545C317.645 262.464 331.107 257.047 342.646 249.107Z" fill="#FFCC00"/>
<path fill-rule="evenodd" clip-rule="evenodd" d="M329.336 256.728C317.31 262.35 303.859 265.496 289.661 265.496C275.807 265.496 262.663 262.501 250.861 257.132C253.832 255.026 257.253 253.586 260.893 252.949C261.739 247.78 264.316 243.053 268.203 239.542C272.089 236.031 277.053 233.945 282.281 233.628C287.509 233.31 292.69 234.778 296.973 237.793C301.256 240.807 304.387 245.187 305.853 250.216C308.828 248.766 312.139 248.146 315.437 248.421C318.735 248.695 321.897 249.855 324.592 251.776C326.477 253.12 328.083 254.802 329.336 256.728Z" fill="#D98F00"/>
<path fill-rule="evenodd" clip-rule="evenodd" d="M266.098 262.518L260.201 247.915C258.856 247.915 257.678 246.993 256.574 246.128C255.257 245.097 254.045 244.148 252.777 244.94C252.729 239.535 250.787 234.317 247.289 230.197C243.79 226.076 238.957 223.313 233.631 222.39C228.305 221.466 222.824 222.44 218.142 225.141C216.864 225.879 215.668 226.732 214.566 227.686C226.955 244.557 245.066 257.086 266.098 262.518Z" fill="#FFCC00"/>
<path fill-rule="evenodd" clip-rule="evenodd" d="M343.092 248.798C343.345 247.461 343.214 246.079 342.714 244.811C342.366 243.93 341.848 243.126 341.189 242.446C340.531 241.765 339.745 241.221 338.876 240.844C338.007 240.467 337.072 240.265 336.125 240.25C335.179 240.234 334.238 240.406 333.357 240.754C332.031 241.278 330.89 242.184 330.078 243.356C329.267 244.529 328.821 245.916 328.798 247.341C328.774 248.767 329.174 250.168 329.947 251.366C330.72 252.565 331.83 253.507 333.139 254.075C333.42 254.197 333.708 254.3 334.001 254.385C337.147 252.693 340.181 250.826 343.092 248.798Z" fill="#D98F00"/>
<path fill-rule="evenodd" clip-rule="evenodd" d="M360.263 233.325C359.638 232.718 358.957 232.167 358.227 231.681C356.306 230.401 354.104 229.605 351.808 229.361C349.513 229.117 347.193 229.432 345.046 230.28C342.899 231.127 340.989 232.482 339.479 234.228C337.969 235.974 336.905 238.06 336.376 240.307C335.848 242.554 335.871 244.895 336.444 247.131C336.869 248.793 337.59 250.361 338.565 251.76C346.737 246.748 354.056 240.516 360.263 233.325Z" fill="#D98F00"/>
<path fill-rule="evenodd" clip-rule="evenodd" d="M273.085 264.042C273.818 262.238 274.2 260.301 274.199 258.335C274.197 254.321 272.602 250.471 269.762 247.632C266.923 244.794 263.072 243.2 259.057 243.2C256.062 243.2 253.135 244.088 250.645 245.752C248.155 247.416 246.214 249.781 245.068 252.548C244.874 253.016 244.705 253.492 244.56 253.974C253.294 258.778 262.9 262.23 273.085 264.042Z" fill="#FFCC00"/>
<path fill-rule="evenodd" clip-rule="evenodd" d="M245.829 254.654C246.84 252.588 247.371 250.31 247.37 247.992C247.369 243.977 245.773 240.128 242.933 237.289C240.094 234.451 236.243 232.856 232.228 232.856C229.234 232.857 226.306 233.745 223.816 235.409C223.223 235.805 222.662 236.241 222.135 236.712C228.968 243.878 236.965 249.956 245.829 254.654Z" fill="#D98F00"/>
<path d="M287.389 170.645C279.687 170.645 273.442 181.016 273.442 193.808C273.442 195.39 273.54 196.971 273.736 198.541H301.045C301.242 196.971 301.34 195.39 301.338 193.808C301.338 181.016 295.094 170.645 287.389 170.645Z" fill="#0058B0"/>
<path d="M283.762 170.645C278.063 170.645 273.442 181.016 273.442 193.808C273.442 195.43 273.517 197.016 273.658 198.541H293.859C293.999 197.016 294.074 195.43 294.074 193.808C294.074 181.016 289.456 170.645 283.762 170.645Z" fill="#0073E6"/>
<path d="M274.221 115.141C274.221 139.822 261.574 161.298 242.918 172.427C242.359 172.947 241.806 173.455 241.27 173.947C237.823 177.093 238.946 191.963 238.946 191.963H274.398V105.949C274.376 107.599 274.269 109.247 274.077 110.886C274.161 112.295 274.221 113.71 274.221 115.141Z" fill="#0073E6"/>
<path d="M274.398 143.942C268.697 158.345 258.107 170.281 244.484 177.655C243.87 178.177 243.266 178.688 242.679 179.179C240.376 181.095 239.932 187.357 239.936 191.962H274.398V143.942Z" fill="#EAF4FE"/>
<path d="M243.048 190.219C242.461 190.687 241.988 191.284 241.666 191.963H274.398V163.494C267.126 174.422 256.991 183.142 245.099 188.7C244.403 189.221 243.717 189.729 243.048 190.219Z" fill="#C5E1F9"/>
<path d="M300.56 115.141C300.56 139.822 313.203 161.298 331.862 172.427C332.418 172.947 332.971 173.455 333.507 173.947C336.954 177.093 335.831 191.963 335.831 191.963H300.379V105.949C300.402 107.599 300.509 109.247 300.7 110.886C300.618 112.295 300.56 113.71 300.56 115.141Z" fill="#0073E6"/>
<path d="M300.379 143.942C306.08 158.345 316.671 170.28 330.293 177.655C330.907 178.177 331.514 178.688 332.098 179.179C334.404 181.095 334.845 187.357 334.841 191.962H300.379V143.942Z" fill="#EAF4FE"/>
<path d="M331.733 190.219C332.318 190.689 332.79 191.285 333.115 191.963H300.379V163.494C307.653 174.421 317.788 183.14 329.678 188.7C330.374 189.221 331.062 189.729 331.733 190.219Z" fill="#C5E1F9"/>
<path d="M301.284 191.964V103.044C301.284 94.9043 295.234 68.4975 287.388 64.1479C279.546 68.4975 273.496 94.9043 273.496 103.044V191.964H301.284Z" fill="#C5E1F9"/>
<path d="M287.389 64.1481C287.31 64.1912 287.235 64.2511 287.152 64.3022V191.964H301.284V103.044C301.284 94.9044 295.234 68.4976 287.389 64.1481Z" fill="#EAF4FE"/>
<path d="M277.461 82.3062H297.318C294.825 74.0919 291.333 66.3319 287.389 64.1479C283.447 66.3319 279.96 74.0919 277.461 82.3062Z" fill="#0073E6"/>
<path d="M287.152 82.3063H297.318C294.824 74.092 291.333 66.332 287.389 64.1481C287.31 64.1912 287.235 64.2511 287.152 64.3022V82.3063Z" fill="#0058B0"/>
<path d="M295.939 97.0337C295.368 98.3337 293.479 97.8426 291.261 97.0153C288.721 96.022 285.9 96.022 283.361 97.0153C281.146 97.8394 279.256 98.3337 278.686 97.0337C278.098 95.7681 279.481 92.6986 282.365 91.5806C285.546 90.339 289.079 90.339 292.26 91.5806C295.144 92.6898 296.523 95.7609 295.939 97.0337Z" fill="#0073E6"/>
<path d="M259.055 170.644C255.685 170.644 252.955 181.016 252.955 193.807C252.955 195.43 252.999 197.016 253.08 198.541H265.031C265.117 197.016 265.158 195.43 265.158 193.807C265.158 181.016 262.428 170.644 259.055 170.644Z" fill="#0073E6"/>
<path d="M259.055 170.644C258.174 170.644 257.343 171.364 256.586 172.633C259.357 174.147 261.49 183.17 261.49 194.104C261.49 195.626 261.45 197.105 261.37 198.541H265.031C265.117 197.016 265.158 195.43 265.158 193.807C265.158 181.016 262.428 170.644 259.055 170.644Z" fill="#0058B0"/>
<path d="M315.72 170.644C312.352 170.644 309.618 181.016 309.618 193.807C309.618 195.43 309.661 197.016 309.744 198.541H321.695C321.78 197.016 321.821 195.43 321.821 193.807C321.821 181.016 319.091 170.644 315.72 170.644Z" fill="#0073E6"/>
<path d="M315.719 170.644C314.842 170.644 314.006 171.364 313.252 172.633C316.023 174.147 318.152 183.17 318.152 194.104C318.152 195.626 318.112 197.105 318.033 198.541H321.695C321.78 197.016 321.821 195.43 321.821 193.807C321.821 181.016 319.091 170.644 315.719 170.644Z" fill="#0058B0"/>
<path d="M200.145 230.829H202.598C202.751 230.829 202.898 230.889 203.006 230.997C203.114 231.106 203.175 231.252 203.175 231.405V233.279C203.175 233.355 203.16 233.43 203.131 233.5C203.102 233.57 203.06 233.633 203.006 233.687C202.953 233.74 202.889 233.783 202.819 233.812C202.749 233.841 202.674 233.856 202.599 233.856H200.148C199.995 233.856 199.848 233.795 199.74 233.687C199.632 233.579 199.571 233.432 199.571 233.279V231.402C199.571 231.25 199.632 231.104 199.739 230.997C199.847 230.889 199.993 230.829 200.145 230.829Z" fill="#0058B0"/>
<path d="M197.782 234.574C197.848 234.612 197.905 234.663 197.951 234.723C197.996 234.784 198.03 234.853 198.049 234.926C198.068 234.999 198.072 235.076 198.061 235.151C198.051 235.226 198.026 235.298 197.987 235.363L196.773 237.481C196.695 237.613 196.568 237.709 196.42 237.748C196.272 237.787 196.114 237.767 195.981 237.691L194.357 236.754C194.292 236.717 194.235 236.666 194.189 236.606C194.143 236.546 194.11 236.478 194.09 236.405C194.071 236.332 194.066 236.256 194.076 236.181C194.086 236.107 194.111 236.035 194.149 235.969L195.37 233.849C195.447 233.717 195.572 233.621 195.719 233.581C195.866 233.541 196.023 233.561 196.155 233.637L197.782 234.574Z" fill="#0058B0"/>
<path d="M196.204 239.888C196.269 239.85 196.342 239.825 196.417 239.815C196.492 239.805 196.569 239.81 196.642 239.83C196.715 239.849 196.784 239.883 196.844 239.93C196.904 239.976 196.954 240.034 196.992 240.1L198.216 242.222C198.254 242.287 198.279 242.359 198.289 242.434C198.299 242.509 198.294 242.585 198.275 242.657C198.256 242.73 198.222 242.799 198.177 242.859C198.131 242.919 198.074 242.969 198.009 243.007L196.381 243.942C196.316 243.98 196.243 244.005 196.168 244.015C196.093 244.024 196.017 244.019 195.944 244C195.871 243.98 195.803 243.946 195.743 243.9C195.683 243.854 195.633 243.796 195.595 243.73L194.371 241.613C194.295 241.479 194.275 241.321 194.315 241.173C194.356 241.025 194.453 240.899 194.586 240.823L196.204 239.888Z" fill="#0058B0"/>
<path d="M200.018 243.913C200.018 243.837 200.033 243.762 200.062 243.692C200.091 243.621 200.134 243.558 200.187 243.504C200.241 243.45 200.305 243.408 200.376 243.379C200.446 243.35 200.521 243.336 200.597 243.336H203.044C203.12 243.336 203.195 243.35 203.265 243.379C203.335 243.407 203.398 243.449 203.452 243.503C203.505 243.556 203.548 243.619 203.577 243.689C203.606 243.759 203.621 243.834 203.621 243.909V245.787C203.621 245.862 203.606 245.937 203.577 246.007C203.548 246.077 203.506 246.14 203.452 246.194C203.398 246.247 203.335 246.289 203.265 246.318C203.195 246.347 203.12 246.362 203.044 246.362H200.594C200.441 246.361 200.295 246.301 200.187 246.193C200.079 246.085 200.018 245.939 200.018 245.787V243.913Z" fill="#0058B0"/>
<path d="M205.412 242.617C205.347 242.579 205.289 242.529 205.243 242.469C205.197 242.409 205.163 242.341 205.144 242.268C205.124 242.195 205.119 242.119 205.129 242.044C205.139 241.969 205.163 241.897 205.201 241.832L206.426 239.714C206.501 239.581 206.626 239.483 206.773 239.442C206.92 239.401 207.078 239.419 207.212 239.494L208.836 240.437C208.967 240.515 209.062 240.64 209.102 240.787C209.141 240.934 209.121 241.09 209.047 241.222L207.819 243.34C207.782 243.406 207.733 243.464 207.673 243.51C207.614 243.557 207.546 243.591 207.473 243.611C207.4 243.631 207.324 243.636 207.249 243.626C207.175 243.616 207.103 243.591 207.038 243.553L205.412 242.617Z" fill="#0058B0"/>
<path d="M206.985 237.297C206.92 237.336 206.848 237.361 206.773 237.371C206.698 237.382 206.622 237.377 206.549 237.358C206.476 237.338 206.407 237.305 206.347 237.259C206.288 237.213 206.237 237.155 206.2 237.089L204.974 234.969C204.897 234.836 204.877 234.679 204.916 234.532C204.955 234.385 205.051 234.259 205.183 234.182L206.807 233.244C206.939 233.168 207.096 233.148 207.243 233.188C207.39 233.228 207.515 233.324 207.591 233.455L208.821 235.578C208.896 235.711 208.916 235.869 208.875 236.016C208.835 236.164 208.738 236.29 208.605 236.366L206.985 237.297Z" fill="#0058B0"/>
<path d="M201.598 232.989C200.489 232.989 199.405 233.317 198.484 233.933C197.562 234.548 196.843 235.423 196.419 236.447C195.994 237.471 195.883 238.598 196.099 239.685C196.314 240.773 196.848 241.772 197.631 242.556C198.415 243.34 199.413 243.874 200.5 244.091C201.587 244.308 202.714 244.197 203.739 243.774C204.763 243.35 205.639 242.632 206.255 241.711C206.872 240.789 207.201 239.706 207.202 238.597C207.202 237.861 207.057 237.132 206.776 236.452C206.494 235.772 206.082 235.153 205.561 234.632C205.041 234.112 204.423 233.698 203.743 233.416C203.063 233.134 202.334 232.989 201.598 232.989ZM201.598 241.273C201.068 241.273 200.55 241.116 200.109 240.822C199.669 240.528 199.325 240.109 199.122 239.62C198.919 239.13 198.866 238.592 198.97 238.072C199.073 237.553 199.328 237.075 199.703 236.701C200.078 236.326 200.555 236.071 201.075 235.968C201.594 235.865 202.133 235.918 202.622 236.121C203.112 236.324 203.53 236.668 203.824 237.109C204.118 237.55 204.274 238.068 204.274 238.597C204.273 239.307 203.991 239.987 203.489 240.489C202.988 240.991 202.307 241.272 201.598 241.273Z" fill="#0058B0"/>
<path d="M175.372 278.48C172.841 278.507 170.358 277.781 168.24 276.394C166.122 275.007 164.464 273.021 163.476 270.69C162.489 268.359 162.217 265.787 162.694 263.3C163.171 260.814 164.377 258.526 166.158 256.726C167.938 254.926 170.214 253.696 172.695 253.192C175.176 252.689 177.751 252.934 180.092 253.896C182.434 254.859 184.437 256.496 185.846 258.599C187.256 260.702 188.008 263.177 188.008 265.708C188.023 269.077 186.701 272.313 184.332 274.708C181.963 277.102 178.74 278.459 175.372 278.48ZM175.372 255.226C173.293 255.198 171.253 255.79 169.51 256.925C167.768 258.06 166.403 259.688 165.588 261.601C164.774 263.515 164.546 265.627 164.935 267.67C165.324 269.713 166.312 271.593 167.773 273.073C169.233 274.553 171.101 275.566 173.139 275.981C175.176 276.397 177.291 276.197 179.215 275.408C181.139 274.618 182.784 273.275 183.942 271.548C185.1 269.82 185.719 267.788 185.719 265.708C185.734 262.947 184.653 260.293 182.713 258.328C180.773 256.362 178.133 255.247 175.372 255.226Z" fill="#0058B0"/>
<path d="M175.373 278.159C171.992 278.159 169.442 272.806 169.442 265.708C169.442 258.611 171.992 253.26 175.373 253.26C178.758 253.26 181.308 258.611 181.308 265.708C181.308 272.806 178.758 278.159 175.373 278.159ZM175.373 255.55C173.889 255.55 171.732 259.508 171.732 265.708C171.732 271.913 173.889 275.868 175.373 275.868C176.861 275.868 179.018 271.913 179.018 265.708C179.018 259.508 176.861 255.55 175.373 255.55Z" fill="#0058B0"/>
<path d="M186.867 266.854H163.884C163.58 266.854 163.289 266.734 163.074 266.519C162.859 266.304 162.738 266.013 162.738 265.709C162.738 265.405 162.859 265.114 163.074 264.899C163.289 264.684 163.58 264.563 163.884 264.563H186.867C187.17 264.563 187.462 264.684 187.676 264.899C187.891 265.114 188.012 265.405 188.012 265.709C188.012 266.013 187.891 266.304 187.676 266.519C187.462 266.734 187.17 266.854 186.867 266.854Z" fill="#0058B0"/>
<path d="M175.372 261.808C172.037 261.809 168.717 261.364 165.5 260.484C165.207 260.404 164.959 260.211 164.808 259.947C164.658 259.684 164.619 259.371 164.699 259.078C164.779 258.786 164.971 258.537 165.235 258.386C165.498 258.235 165.81 258.195 166.103 258.275C172.171 259.935 178.573 259.935 184.641 258.275C184.934 258.195 185.247 258.234 185.51 258.385C185.774 258.536 185.967 258.785 186.047 259.078C186.127 259.371 186.088 259.684 185.937 259.947C185.787 260.211 185.537 260.404 185.244 260.484C182.027 261.364 178.707 261.809 175.372 261.808Z" fill="#0058B0"/>
<path d="M165.801 273.181C165.524 273.181 165.256 273.08 165.048 272.898C164.84 272.715 164.705 272.463 164.668 272.189C164.632 271.915 164.696 271.636 164.849 271.405C165.002 271.175 165.233 271.007 165.5 270.934C171.964 269.163 178.785 269.163 185.248 270.934C185.541 271.015 185.79 271.208 185.94 271.472C186.09 271.736 186.129 272.049 186.049 272.342C185.968 272.635 185.775 272.883 185.511 273.034C185.247 273.184 184.934 273.223 184.641 273.142C178.574 271.48 172.171 271.48 166.104 273.142C166.005 273.169 165.903 273.182 165.801 273.181Z" fill="#0058B0"/>
<path d="M177.702 247.889L176.732 247.92L174.297 247.995L173.33 248.026L172.765 252.686L174.443 252.632L176.878 252.556L178.565 252.503L177.702 247.889Z" fill="#0058B0"/>
<path d="M168.478 249.109L167.66 249.62L165.581 250.906L164.762 251.416L166.601 255.736L168.031 254.849L170.102 253.566L171.535 252.682L168.478 249.109Z" fill="#0058B0"/>
<path d="M161.105 254.779L160.648 255.629L159.494 257.781L159.037 258.628L162.794 261.458L163.586 259.976L164.74 257.827L165.534 256.344L161.105 254.779Z" fill="#0058B0"/>
<path d="M157.549 263.379L157.579 264.344L157.654 266.785L157.689 267.747L162.349 268.319L162.299 266.64L162.22 264.198L162.169 262.515L157.549 263.379Z" fill="#0058B0"/>
<path d="M158.773 272.599L159.282 273.422L160.567 275.496L161.077 276.317L165.404 274.479L164.517 273.048L163.227 270.979L162.343 269.547L158.773 272.599Z" fill="#0058B0"/>
<path d="M164.445 279.979L165.295 280.434L167.445 281.59L168.298 282.045L171.123 278.291L169.642 277.495L167.49 276.344L166.009 275.547L164.445 279.979Z" fill="#0058B0"/>
<path d="M173.044 283.532L174.007 283.497L176.45 283.425L177.408 283.392L177.982 278.727L176.298 278.782L173.86 278.86L172.181 278.913L173.044 283.532Z" fill="#0058B0"/>
<path d="M182.265 282.31L183.084 281.798L185.162 280.514L185.981 280.004L184.142 275.682L182.715 276.568L180.641 277.854L179.214 278.738L182.265 282.31Z" fill="#0058B0"/>
<path d="M189.644 276.64L190.1 275.786L191.251 273.636L191.708 272.787L187.958 269.958L187.159 271.442L186.009 273.59L185.211 275.072L189.644 276.64Z" fill="#0058B0"/>
<path d="M193.197 268.041L193.16 267.075L193.088 264.632L193.054 263.672L188.393 263.098L188.444 264.779L188.522 267.218L188.574 268.902L193.197 268.041Z" fill="#0058B0"/>
<path d="M191.973 258.817L191.462 257.995L190.175 255.916L189.671 255.099L185.344 256.941L186.23 258.37L187.52 260.441L188.401 261.871L191.973 258.817Z" fill="#0058B0"/>
<path d="M186.303 251.439L185.457 250.984L183.3 249.832L182.45 249.375L179.625 253.128L181.106 253.922L183.259 255.074L184.743 255.87L186.303 251.439Z" fill="#0058B0"/>
<path d="M175.373 280.529C172.436 280.557 169.556 279.713 167.1 278.101C164.644 276.49 162.722 274.186 161.578 271.48C160.434 268.775 160.12 265.79 160.676 262.906C161.231 260.022 162.631 257.367 164.698 255.28C166.765 253.193 169.406 251.767 172.284 251.184C175.163 250.6 178.151 250.885 180.867 252.003C183.584 253.12 185.907 255.019 187.542 257.46C189.177 259.9 190.05 262.771 190.05 265.709C190.065 269.619 188.528 273.376 185.776 276.154C183.025 278.933 179.283 280.506 175.373 280.529ZM175.373 255.318C173.312 255.289 171.288 255.873 169.56 256.997C167.831 258.121 166.476 259.734 165.667 261.63C164.858 263.526 164.631 265.62 165.015 267.645C165.399 269.671 166.377 271.536 167.824 273.004C169.272 274.473 171.123 275.477 173.143 275.89C175.163 276.303 177.26 276.106 179.167 275.324C181.075 274.541 182.706 273.21 183.855 271.497C185.003 269.785 185.616 267.77 185.616 265.709C185.632 262.973 184.563 260.344 182.643 258.396C180.722 256.448 178.108 255.341 175.373 255.318Z" fill="#0058B0"/>
<path d="M192.181 251.941H162.923V281.179H192.181V251.941Z" fill="#EAF4FE"/>
<path d="M191.584 283.397H157.889V249.722H191.584V283.397ZM162.325 278.96H187.147V254.155H162.325V278.96Z" fill="#0066CC"/>
<path fill-rule="evenodd" clip-rule="evenodd" d="M194.071 247H155.845V285.226H194.071V247Z" fill="#2A66C4"/>
<path fill-rule="evenodd" clip-rule="evenodd" d="M164.76 262.234C164.437 262.223 164.115 262.281 163.815 262.403C163.516 262.526 163.246 262.711 163.024 262.945C162.579 263.435 162.345 264.079 162.371 264.74C162.353 265.409 162.599 266.059 163.056 266.548C163.277 266.785 163.547 266.973 163.847 267.098C164.146 267.223 164.468 267.282 164.792 267.272C165.112 267.284 165.43 267.226 165.726 267.104C166.021 266.981 166.286 266.796 166.503 266.561C166.943 266.071 167.176 265.431 167.155 264.773C167.175 264.109 166.942 263.463 166.503 262.965C166.288 262.724 166.023 262.534 165.726 262.408C165.43 262.281 165.108 262.222 164.786 262.234" fill="white"/>
<path d="M178.309 270.515H174.948V276.454H170.811V256.045H178.309C183.152 256.045 185.573 258.406 185.573 263.127C185.573 265.511 184.953 267.343 183.713 268.622C182.473 269.901 180.672 270.532 178.309 270.515ZM174.948 266.971H178.283C180.345 266.971 181.37 265.665 181.37 263.127C181.462 262.164 181.195 261.202 180.62 260.425C180.314 260.124 179.947 259.893 179.544 259.748C179.14 259.602 178.71 259.546 178.283 259.583H174.948V266.971Z" fill="white"/>
</svg>
