<svg width="369" height="303" viewBox="0 0 369 303" fill="none" xmlns="http://www.w3.org/2000/svg">
<g clip-path="url(#clip0_15422_366476)">
<path d="M262.407 202.952V199.572C264.604 199.57 266.71 198.698 268.263 197.147C269.816 195.596 270.69 193.494 270.692 191.301H274.077H270.692H274.077C274.075 194.39 272.845 197.352 270.657 199.537C268.469 201.722 265.502 202.95 262.407 202.952Z" fill="#C5E1F9"/>
<path d="M284.48 208.43H281.087V187.851C281.087 186.922 280.718 186.031 280.061 185.374C279.404 184.717 278.513 184.346 277.583 184.344C276.653 184.348 275.763 184.719 275.107 185.376C274.45 186.033 274.081 186.923 274.079 187.851V192.228H270.693V187.851C270.693 186.026 271.419 184.275 272.711 182.984C274.002 181.693 275.755 180.966 277.583 180.964C279.411 180.966 281.164 181.693 282.457 182.984C283.75 184.275 284.478 186.025 284.48 187.851V208.43Z" fill="#C5E1F9"/>
<path d="M285.663 215.744C284.455 215.742 283.296 215.262 282.442 214.408C281.588 213.555 281.107 212.399 281.104 211.193V199.811H284.49V211.193C284.492 211.503 284.616 211.799 284.836 212.019C285.055 212.238 285.352 212.362 285.663 212.364C285.974 212.364 286.273 212.241 286.493 212.021C286.713 211.801 286.836 211.503 286.836 211.193L287.011 131.986H290.372L290.206 211.193C290.201 212.396 289.722 213.549 288.871 214.401C288.021 215.253 286.868 215.736 285.663 215.744Z" fill="#C5E1F9"/>
<path d="M262.626 202.952C259.531 202.95 256.563 201.722 254.374 199.537C252.184 197.353 250.952 194.391 250.948 191.301V185.926H254.341V191.301C254.343 193.494 255.217 195.596 256.77 197.147C258.323 198.698 260.429 199.57 262.626 199.572V202.952Z" fill="#C5E1F9"/>
<path d="M290.373 131.985H286.988C286.999 128.894 288.236 125.934 290.43 123.753C292.624 121.571 295.594 120.348 298.69 120.35H307.458V123.73H298.69C296.491 123.725 294.381 124.592 292.821 126.14C291.262 127.688 290.382 129.79 290.373 131.985Z" fill="#C5E1F9"/>
<path d="M254.346 186.94H250.961V176.492C250.957 174.298 250.082 172.195 248.527 170.645C246.973 169.094 244.866 168.223 242.669 168.22H210.395V164.833H242.669C245.764 164.837 248.732 166.067 250.921 168.252C253.11 170.438 254.342 173.401 254.346 176.492V186.94Z" fill="#C5E1F9"/>
<path d="M312.568 155.968C308.86 153.195 305.736 149.721 303.374 145.744C301.011 141.766 299.456 137.363 298.798 132.785C298.14 128.208 298.391 123.546 299.538 119.065C300.685 114.585 302.704 110.373 305.48 106.672C308.253 102.966 311.729 99.8421 315.712 97.4783C319.694 95.1144 324.104 93.5572 328.689 92.8957C333.274 92.2341 337.945 92.4811 342.435 93.6226C346.925 94.7641 351.145 96.7778 354.855 99.5484C358.566 102.318 361.694 105.79 364.062 109.767C366.429 113.743 367.988 118.146 368.651 122.725C369.313 127.303 369.066 131.967 367.923 136.45C366.78 140.933 364.764 145.147 361.99 148.852C359.214 152.56 355.733 155.686 351.746 158.051C347.76 160.416 343.345 161.974 338.756 162.634C334.166 163.295 329.491 163.047 324.997 161.903C320.504 160.759 316.28 158.742 312.568 155.968Z" fill="#FFCC00"/>
<path d="M111.249 189.259V185.879C113.446 185.875 115.552 185.001 117.105 183.449C118.658 181.897 119.531 179.793 119.534 177.6V172.589H122.919V177.631C122.906 180.715 121.672 183.669 119.485 185.848C117.299 188.026 114.338 189.252 111.249 189.259Z" fill="#C5E1F9"/>
<path d="M133.313 205.659H129.928V169.035C129.928 168.107 129.559 167.216 128.902 166.559C128.245 165.901 127.354 165.531 126.423 165.529C125.493 165.531 124.602 165.901 123.945 166.559C123.288 167.216 122.919 168.107 122.919 169.035V175.106H119.534V169.035C119.534 167.21 120.26 165.46 121.552 164.169C122.843 162.878 124.596 162.151 126.423 162.149C128.251 162.151 130.004 162.878 131.295 164.169C132.587 165.46 133.313 167.21 133.313 169.035V205.659Z" fill="#C5E1F9"/>
<path d="M152.023 183.077H148.63V157.25C148.63 155.975 148.123 154.752 147.221 153.85C146.319 152.948 145.095 152.44 143.818 152.438C142.54 152.44 141.315 152.947 140.412 153.849C139.508 154.752 139 155.974 138.998 157.25V183.077H135.612V157.25C135.614 155.078 136.48 152.995 138.018 151.46C139.556 149.924 141.642 149.06 143.818 149.058C145.993 149.06 148.079 149.924 149.617 151.46C151.156 152.995 152.021 155.078 152.023 157.25V183.077Z" fill="#C5E1F9"/>
<path d="M134.503 212.957C133.292 212.957 132.13 212.477 131.274 211.622C130.418 210.767 129.937 209.607 129.937 208.398V181.012H133.33V208.398C133.33 208.709 133.453 209.007 133.673 209.226C133.893 209.446 134.192 209.569 134.503 209.569C134.657 209.569 134.81 209.539 134.952 209.48C135.094 209.421 135.224 209.335 135.333 209.226C135.442 209.118 135.528 208.989 135.587 208.846C135.646 208.704 135.676 208.552 135.676 208.398V181.012H139.061V208.398C139.061 209.606 138.581 210.764 137.727 211.619C136.872 212.474 135.713 212.955 134.503 212.957Z" fill="#C5E1F9"/>
<path d="M111.457 189.259C108.362 189.255 105.395 188.025 103.207 185.839C101.019 183.653 99.7892 180.69 99.7871 177.6V167.152H103.172V177.6C103.174 179.794 104.048 181.897 105.601 183.449C107.154 185.001 109.26 185.875 111.457 185.879V189.259Z" fill="#C5E1F9"/>
<path d="M103.178 168.173H99.7932V157.717C99.7911 155.524 98.9177 153.422 97.3645 151.871C95.8113 150.32 93.7053 149.448 91.5087 149.446H43.1094V146.066H91.5087C94.6031 146.069 97.5701 147.297 99.7581 149.481C101.946 151.666 103.176 154.628 103.178 157.717V168.173Z" fill="#C5E1F9"/>
<path d="M45.2923 149.494H39.5605C36.466 149.489 33.4993 148.261 31.3105 146.077C29.1216 143.893 27.8891 140.932 27.8828 137.843V112.839H31.268V137.843C31.2722 140.036 32.1474 142.139 33.7019 143.689C35.2564 145.24 37.3632 146.112 39.5605 146.114H45.2923V149.494Z" fill="#C5E1F9"/>
<path d="M160.167 204.717V201.337C162.364 201.335 164.471 200.463 166.026 198.913C167.58 197.362 168.455 195.26 168.459 193.066V55.6194H171.845V193.066C171.84 196.156 170.609 199.118 168.419 201.302C166.23 203.487 163.262 204.715 160.167 204.717Z" fill="#C5E1F9"/>
<path d="M160.354 204.717C157.26 204.715 154.293 203.486 152.105 201.302C149.917 199.117 148.687 196.155 148.685 193.066V168.07H152.07V193.066C152.072 195.259 152.945 197.361 154.499 198.912C156.052 200.463 158.158 201.335 160.354 201.337V204.717Z" fill="#C5E1F9"/>
<path d="M55.9381 117.817C53.4927 121.077 50.4281 123.824 46.9193 125.901C43.4105 127.979 39.5262 129.345 35.4883 129.924C31.4504 130.502 27.338 130.281 23.3857 129.273C19.4335 128.264 15.7188 126.488 12.454 124.046C9.18774 121.606 6.43505 118.547 4.35296 115.045C2.27087 111.542 0.900228 107.664 0.319377 103.633C-0.261475 99.6011 -0.041163 95.4949 0.967673 91.5484C1.97651 87.6018 3.75414 83.8923 6.19904 80.6318C11.1379 74.0488 18.4931 69.6937 26.6475 68.5241C34.8019 67.3545 43.0878 69.4661 49.6831 74.3947C52.9496 76.8357 55.7025 79.8952 57.7847 83.3985C59.8669 86.9018 61.2375 90.7803 61.8184 94.8125C62.3992 98.8447 62.1789 102.952 61.17 106.899C60.161 110.846 58.3832 114.556 55.9381 117.817Z" fill="#C7DEFF"/>
<path d="M268.652 249.529H87.2633C85.6361 249.529 84.0755 248.884 82.9249 247.735C81.7743 246.586 81.1279 245.028 81.1279 243.404V89.5597C81.1279 87.8762 81.7972 86.2615 82.9889 85.0703C84.1805 83.8791 85.7969 83.2089 87.4832 83.2068H268.432C270.118 83.2089 271.735 83.8791 272.927 85.0703C274.118 86.2615 274.788 87.8762 274.788 89.5597V243.404C274.788 245.028 274.141 246.586 272.99 247.735C271.84 248.884 270.279 249.529 268.652 249.529Z" fill="white"/>
<path d="M81.1279 89.8555C81.1295 86.8472 82.3256 83.9625 84.4535 81.8353C86.5815 79.708 89.4671 78.5123 92.4765 78.5107H263.187C266.197 78.5123 269.082 79.708 271.21 81.8353C273.338 83.9625 274.534 86.8472 274.536 89.8555H81.1279Z" fill="#9AC7F7"/>
<path d="M260.107 86.7001C260.605 86.7001 261.092 86.5525 261.506 86.276C261.92 85.9995 262.242 85.6064 262.433 85.1466C262.623 84.6867 262.673 84.1807 262.576 83.6926C262.479 83.2044 262.239 82.756 261.887 82.4041C261.535 82.0521 261.087 81.8124 260.598 81.7153C260.11 81.6182 259.604 81.6681 259.144 81.8586C258.684 82.049 258.291 82.3716 258.014 82.7854C257.737 83.1993 257.59 83.6858 257.59 84.1835C257.59 84.851 257.855 85.4911 258.327 85.963C258.799 86.435 259.44 86.7001 260.107 86.7001Z" fill="white"/>
<path d="M251.351 86.7001C251.849 86.7001 252.336 86.5525 252.75 86.276C253.164 85.9995 253.487 85.6064 253.677 85.1466C253.868 84.6867 253.917 84.1807 253.82 83.6926C253.723 83.2044 253.483 82.756 253.131 82.4041C252.779 82.0521 252.331 81.8124 251.842 81.7153C251.354 81.6182 250.848 81.6681 250.388 81.8586C249.928 82.049 249.535 82.3716 249.258 82.7854C248.982 83.1993 248.834 83.6858 248.834 84.1835C248.834 84.851 249.099 85.4911 249.571 85.963C250.043 86.435 250.684 86.7001 251.351 86.7001Z" fill="#0450CF"/>
<path d="M242.601 86.7001C243.099 86.7001 243.586 86.5525 244 86.276C244.414 85.9995 244.737 85.6064 244.927 85.1466C245.118 84.6867 245.167 84.1807 245.07 83.6926C244.973 83.2044 244.733 82.756 244.381 82.4041C244.029 82.0521 243.581 81.8124 243.092 81.7153C242.604 81.6182 242.098 81.6681 241.638 81.8586C241.178 82.049 240.785 82.3716 240.508 82.7854C240.232 83.1993 240.084 83.6858 240.084 84.1835C240.084 84.851 240.349 85.4911 240.821 85.963C241.293 86.435 241.934 86.7001 242.601 86.7001Z" fill="#003E99"/>
<path d="M114.874 107.845H93.4688V128.187H114.874V107.845Z" fill="#2A66C4"/>
<path d="M98.4417 115.949C98.2606 115.942 98.0798 115.971 97.9105 116.036C97.7436 116.101 97.5923 116.201 97.4666 116.329C97.3437 116.454 97.2479 116.602 97.1852 116.766C97.1224 116.929 97.0941 117.104 97.1018 117.279C97.0963 117.457 97.1272 117.635 97.1926 117.801C97.258 117.967 97.3566 118.118 97.4824 118.244C97.6102 118.369 97.7609 118.469 97.9264 118.537C98.0962 118.601 98.2762 118.633 98.4576 118.632C98.6363 118.633 98.8136 118.601 98.9807 118.537C99.1459 118.476 99.2951 118.379 99.4168 118.252C99.5381 118.126 99.633 117.977 99.6956 117.814C99.7583 117.651 99.7874 117.477 99.7815 117.302C99.7882 117.125 99.7594 116.949 99.6968 116.783C99.6342 116.617 99.539 116.465 99.4168 116.337C99.2953 116.208 99.1463 116.108 98.9807 116.044C98.8131 115.973 98.6316 115.94 98.4496 115.949" fill="white"/>
<path d="M106.033 120.349H104.146V123.515H101.831V112.656H106.033C108.749 112.656 110.108 113.912 110.108 116.423C110.14 116.955 110.065 117.488 109.887 117.989C109.708 118.491 109.43 118.952 109.069 119.344C108.655 119.704 108.173 119.979 107.652 120.151C107.131 120.324 106.58 120.391 106.033 120.349ZM104.146 118.458H106.017C107.174 118.458 107.753 117.769 107.753 116.415C107.8 115.9 107.65 115.385 107.333 114.975C107.158 114.818 106.953 114.697 106.73 114.619C106.502 114.538 106.258 114.509 106.017 114.532H104.146V118.458Z" fill="white"/>
<path d="M254.934 107.845H123.634V112.206H254.934V107.845Z" fill="#9AC7F7"/>
<path d="M254.934 115.831H123.634V120.193H254.934V115.831Z" fill="#9AC7F7"/>
<path d="M254.934 123.809H123.634V128.17H254.934V123.809Z" fill="#9AC7F7"/>
<path d="M254.935 145.821H115.08V148.647H254.935V145.821Z" fill="#9AC7F7"/>
<path d="M217.452 153.839L115.072 153.784L115.08 150.95L217.46 151.006L217.452 153.839Z" fill="#9AC7F7"/>
<path d="M250.876 165.829L115.064 165.766L115.072 162.94L250.876 163.011V165.829Z" fill="#9AC7F7"/>
<path d="M151.326 170.943L115.064 170.935V168.102L151.326 168.125V170.943Z" fill="#9AC7F7"/>
<path d="M199.844 180.117H115.064V182.943H199.844V180.117Z" fill="#9AC7F7"/>
<path d="M186.185 197.268H115.057V200.086H186.185V197.268Z" fill="#9AC7F7"/>
<path d="M254.894 202.454H115.039V205.279H254.894V202.454Z" fill="#9AC7F7"/>
<path d="M225.077 214.43H115.039V217.247H225.077V214.43Z" fill="#9AC7F7"/>
<path d="M188.187 230.063H115.029V232.881H188.187V230.063Z" fill="#9AC7F7"/>
<path d="M94.2354 144.705V154.797H104.343V144.705H94.2354ZM102.694 153.167H95.8765V146.352H102.71L102.694 153.167Z" fill="#9AC7F7"/>
<path d="M94.2354 161.611V171.703H104.351V161.604L94.2354 161.611ZM102.686 170.065H95.8765V163.258H102.694L102.686 170.065Z" fill="#9AC7F7"/>
<path d="M94.2305 178.509V188.601H104.346V178.509H94.2305ZM102.682 186.971H95.8716V180.164H102.689L102.682 186.971Z" fill="#9AC7F7"/>
<path d="M94.2148 195.409V205.509H104.315V195.417L94.2148 195.409ZM102.674 203.871H95.856V197.064H102.674V203.871Z" fill="#9AC7F7"/>
<path d="M94.2148 212.316V222.408H104.323V212.324L94.2148 212.316ZM102.658 220.777H95.848V213.97H102.666L102.658 220.777Z" fill="#9AC7F7"/>
<path d="M104.297 239.314L104.305 229.222H94.1974L94.1895 239.306" fill="#9AC7F7"/>
<path d="M95.8301 237.675L95.838 230.853L102.656 230.868L102.648 237.675" fill="#9AC7F7"/>
<path d="M97.0831 170.705C96.9226 170.706 96.7636 170.675 96.6153 170.614C96.4669 170.553 96.3323 170.463 96.219 170.349C95.9948 170.123 95.8691 169.817 95.8691 169.498C95.8691 169.18 95.9948 168.874 96.219 168.647L101.657 163.218C101.769 163.105 101.903 163.015 102.05 162.954C102.197 162.893 102.354 162.861 102.514 162.861C102.673 162.861 102.831 162.893 102.978 162.954C103.125 163.015 103.258 163.105 103.37 163.218C103.483 163.329 103.573 163.463 103.634 163.609C103.695 163.756 103.727 163.913 103.727 164.072C103.727 164.231 103.695 164.389 103.634 164.536C103.573 164.682 103.483 164.815 103.37 164.927L97.9314 170.349C97.707 170.575 97.4019 170.703 97.0831 170.705Z" fill="#2A66C4"/>
<path d="M102.483 170.706C102.323 170.706 102.164 170.675 102.015 170.614C101.867 170.553 101.732 170.463 101.619 170.349L96.1885 164.92C95.9639 164.692 95.8379 164.385 95.8379 164.065C95.8379 163.745 95.9639 163.438 96.1885 163.21C96.4169 162.986 96.7243 162.86 97.0447 162.86C97.365 162.86 97.6725 162.986 97.9008 163.21L103.331 168.648C103.556 168.874 103.681 169.18 103.681 169.498C103.681 169.817 103.556 170.123 103.331 170.349C103.107 170.575 102.802 170.704 102.483 170.706Z" fill="#2A66C4"/>
<path d="M100.143 152.413C99.9784 152.412 99.8156 152.378 99.6644 152.313C99.5133 152.247 99.3767 152.152 99.263 152.033L96.742 149.374C96.6312 149.26 96.5443 149.125 96.4865 148.977C96.4288 148.83 96.4013 148.672 96.4057 148.513C96.4102 148.354 96.4465 148.198 96.5124 148.054C96.5783 147.909 96.6725 147.78 96.7895 147.672C96.9035 147.562 97.0386 147.475 97.1867 147.417C97.3348 147.359 97.493 147.332 97.6519 147.336C97.8108 147.341 97.9672 147.377 98.1119 147.443C98.2565 147.509 98.3864 147.603 98.494 147.72L100.08 149.382L104.836 143.636C104.936 143.512 105.059 143.41 105.199 143.335C105.339 143.26 105.492 143.214 105.65 143.198C105.808 143.183 105.967 143.199 106.119 143.245C106.27 143.292 106.411 143.368 106.533 143.469C106.782 143.672 106.94 143.965 106.973 144.284C107.005 144.603 106.91 144.922 106.707 145.171L101.102 151.97C100.993 152.102 100.858 152.209 100.705 152.285C100.552 152.362 100.385 152.405 100.214 152.413H100.143Z" fill="#2A66C4"/>
<path d="M100.628 186.213C100.466 186.213 100.306 186.18 100.157 186.116C100.009 186.052 99.8748 185.958 99.7637 185.841L97.2268 183.189C97.1152 183.075 97.0276 182.94 96.9691 182.792C96.9106 182.644 96.8824 182.485 96.8861 182.326C96.8898 182.167 96.9252 182.01 96.9906 181.865C97.0559 181.719 97.1498 181.588 97.2665 181.48C97.3784 181.368 97.5112 181.279 97.6575 181.219C97.8037 181.158 97.9604 181.127 98.1187 181.127C98.277 181.127 98.4337 181.158 98.5799 181.219C98.7261 181.279 98.859 181.368 98.9709 181.48L100.556 183.15L105.313 177.411C105.412 177.288 105.535 177.185 105.675 177.109C105.814 177.033 105.967 176.986 106.125 176.97C106.283 176.953 106.442 176.969 106.594 177.015C106.746 177.061 106.887 177.136 107.01 177.237C107.257 177.441 107.414 177.734 107.446 178.052C107.479 178.371 107.385 178.689 107.184 178.939L101.595 185.73C101.487 185.862 101.352 185.97 101.199 186.047C101.046 186.123 100.878 186.166 100.707 186.173L100.628 186.213Z" fill="#2A66C4"/>
<path d="M97.5923 203.364C97.4285 203.365 97.2662 203.332 97.116 203.266C96.9658 203.201 96.831 203.105 96.7203 202.984L94.1914 200.333C94.0813 200.218 93.9951 200.082 93.9378 199.934C93.8806 199.785 93.8535 199.627 93.8579 199.468C93.8623 199.309 93.8983 199.152 93.9637 199.007C94.0291 198.862 94.1226 198.732 94.2389 198.623C94.3539 198.514 94.4892 198.429 94.6371 198.373C94.785 198.316 94.9427 198.29 95.101 198.294C95.2593 198.298 95.4152 198.334 95.5598 198.399C95.7043 198.463 95.8346 198.556 95.9434 198.67L97.529 200.333L102.286 194.586C102.386 194.463 102.51 194.361 102.65 194.286C102.791 194.21 102.945 194.164 103.103 194.148C103.262 194.133 103.422 194.149 103.574 194.196C103.726 194.242 103.868 194.318 103.99 194.42C104.238 194.624 104.394 194.918 104.426 195.237C104.457 195.556 104.36 195.874 104.157 196.122L98.6071 202.921C98.4988 203.053 98.3637 203.161 98.2106 203.237C98.0576 203.314 97.8902 203.357 97.7192 203.364H97.5923Z" fill="#2A66C4"/>
<path d="M203.078 215.086H198.876V225.978H203.078V215.086Z" fill="#0066CC"/>
<path d="M185.629 235.91L176.115 230.472L178.216 226.886L187.729 232.316L185.629 235.91Z" fill="#0066CC"/>
<path d="M185.629 248.653L176.115 254.106L178.216 257.7L187.729 252.246L185.629 248.653Z" fill="#0066CC"/>
<path d="M203.078 258.62H198.876V269.488H203.078V258.62Z" fill="#0066CC"/>
<path d="M223.777 226.886L214.264 232.324L216.365 235.925L225.878 230.48L223.777 226.886Z" fill="#0066CC"/>
<path d="M263.369 260.496L231.848 250.372L200.327 240.249L210.578 271.395L220.805 302.541L231.904 281.225L248.734 297.847L258.644 288.032L241.813 271.41L263.369 260.496Z" fill="#D68D21"/>
<path d="M231.848 250.372L200.327 240.249L200.66 241.293L253.325 293.32L258.628 288.056L241.798 271.434L263.369 260.496L231.848 250.372Z" fill="#FDCA2F"/>
<path d="M195.135 50.0154C192.669 53.3018 189.579 56.0711 186.042 58.1652C182.504 60.2593 178.588 61.637 174.517 62.2199C170.446 62.8027 166.299 62.5793 162.315 61.5622C158.33 60.5451 154.585 58.7542 151.294 56.292C147.998 53.8358 145.218 50.755 143.115 47.2257C141.012 43.6963 139.626 39.7876 139.037 35.7232C138.448 31.6588 138.668 27.5183 139.682 23.5385C140.697 19.5587 142.488 15.8177 144.952 12.5293C147.414 9.23951 150.501 6.46606 154.037 4.36741C157.573 2.26876 161.488 0.88604 165.559 0.298049C169.63 -0.289942 173.777 -0.0717045 177.763 0.940478C181.75 1.95266 185.498 3.73894 188.793 6.1972C192.094 8.65646 194.876 11.7413 196.982 15.2755C199.088 18.8096 200.475 22.7235 201.064 26.7934C201.653 30.8632 201.432 35.009 200.415 38.9937C199.398 42.9784 197.603 46.7237 195.135 50.0154Z" fill="#7EB3FF"/>
<path d="M338.068 133.045C343.716 133.045 348.295 128.474 348.295 122.835C348.295 117.195 343.716 112.624 338.068 112.624C332.42 112.624 327.841 117.195 327.841 122.835C327.841 128.474 332.42 133.045 338.068 133.045Z" fill="#EAF4FF"/>
<path d="M164.612 37.0581C164.612 39.0965 163.801 41.0513 162.357 42.4926C160.913 43.934 158.955 44.7437 156.914 44.7437C154.872 44.7437 152.914 43.934 151.47 42.4926C150.027 41.0513 149.216 39.0965 149.216 37.0581C149.216 35.0198 150.027 33.0649 151.47 31.6236C152.914 30.1823 154.872 29.3726 156.914 29.3726C158.955 29.3726 160.913 30.1823 162.357 31.6236C163.801 33.0649 164.612 35.0198 164.612 37.0581Z" fill="#C5E1F9"/>
<path d="M192.068 35.8787C192.078 38.1836 191.184 40.4009 189.579 42.0571C187.973 43.7134 185.782 44.6775 183.475 44.7436C181.167 44.6775 178.976 43.7134 177.371 42.0571C175.765 40.4009 174.872 38.1836 174.881 35.8787C174.881 33.6031 175.786 31.4207 177.398 29.8117C179.01 28.2026 181.195 27.2986 183.475 27.2986C185.754 27.2986 187.94 28.2026 189.551 29.8117C191.163 31.4207 192.068 33.6031 192.068 35.8787Z" fill="#C5E1F9"/>
<path d="M183.448 27.2998C181.169 27.2998 178.983 28.2039 177.372 29.8129C175.76 31.422 174.854 33.6043 174.854 35.8799C174.855 37.048 175.095 38.2036 175.56 39.2754C177.128 40.6678 179.154 41.4368 181.252 41.4363C183.531 41.4363 185.717 40.5323 187.329 38.9232C188.941 37.3142 189.846 35.1318 189.846 32.8563C189.847 31.6881 189.606 30.5323 189.14 29.4607C187.574 28.0651 185.547 27.2956 183.448 27.2998Z" fill="#EAF4FE"/>
<path d="M183.925 44.7446C184.56 43.4386 185.582 41.9823 185.582 40.4388C185.583 39.1372 185.327 37.848 184.829 36.6452C184.331 35.4424 183.599 34.3496 182.678 33.4292C181.756 32.5088 180.661 31.7789 179.456 31.2812C178.252 30.7836 176.961 30.528 175.657 30.5291C170.171 30.5291 162.243 34.9615 162.243 40.4388C162.243 42.0219 156.281 43.4386 156.915 44.7446H183.925Z" fill="#C5E1F9"/>
<path d="M181.246 29.3252C181.246 32.663 179.918 35.8641 177.554 38.2242C175.19 40.5844 171.984 41.9103 168.64 41.9103C165.297 41.9103 162.091 40.5844 159.727 38.2242C157.363 35.8641 156.035 32.663 156.035 29.3252C156.035 25.9867 157.363 22.7848 159.727 20.4234C162.09 18.0619 165.297 16.7343 168.64 16.7322C170.296 16.7322 171.936 17.058 173.466 17.6909C174.996 18.3239 176.386 19.2516 177.556 20.421C178.727 21.5905 179.655 22.9788 180.288 24.5066C180.921 26.0344 181.247 27.6718 181.246 29.3252Z" fill="#C5E1F9"/>
<path d="M165.064 37.5408C166.72 37.5408 168.359 37.2149 169.889 36.582C171.419 35.949 172.809 35.0214 173.98 33.8519C175.15 32.6824 176.078 31.2941 176.711 29.7663C177.345 28.2385 177.67 26.6011 177.669 24.9477C177.673 23.0278 177.236 21.1324 176.392 19.4072C174.18 17.6757 171.45 16.7363 168.639 16.7398C165.295 16.7419 162.089 18.0695 159.725 20.4309C157.362 22.7924 156.034 25.9943 156.034 29.3328V29.4119C154.158 29.6274 152.427 30.5239 151.169 31.9308C149.912 33.3377 149.217 35.1568 149.216 37.0421C149.226 38.1982 149.497 39.3372 150.009 40.3743C150.757 40.7076 151.567 40.8802 152.387 40.8809C153.86 40.8793 155.279 40.3292 156.367 39.3382C157.455 38.3471 158.133 36.9864 158.269 35.5224C160.292 36.8355 162.651 37.5365 165.064 37.5408Z" fill="#EAF4FE"/>
<path d="M172.415 31.7874V29.492C172.413 28.6306 172.069 27.8053 171.458 27.1969C170.847 26.5885 170.02 26.2468 169.157 26.2468H168.673C167.81 26.2468 166.983 26.5885 166.372 27.1969C165.761 27.8053 165.417 28.6306 165.415 29.492V31.7874H164.693V39.2514H173.137V31.7874H172.415ZM166.866 29.492C166.868 29.0148 167.059 28.5578 167.398 28.2211C167.737 27.8843 168.195 27.6953 168.673 27.6953H169.157C169.635 27.6953 170.093 27.8843 170.432 28.2211C170.771 28.5578 170.962 29.0148 170.964 29.492V31.7874H166.866V29.492ZM169.743 36.9877H168.086L168.467 35.5867C168.302 35.5064 168.164 35.3813 168.067 35.2259C167.97 35.0706 167.919 34.8911 167.92 34.7082C167.92 34.5776 167.946 34.4482 167.996 34.3277C168.047 34.2071 168.12 34.0977 168.213 34.0057C168.306 33.9137 168.416 33.841 168.537 33.7917C168.658 33.7425 168.788 33.7177 168.919 33.7188C169.182 33.7188 169.434 33.823 169.62 34.0085C169.806 34.1941 169.91 34.4458 169.91 34.7082C169.911 34.8911 169.86 35.0706 169.763 35.2259C169.666 35.3813 169.528 35.5064 169.363 35.5867L169.743 36.9877Z" fill="#2A66C4"/>
<path d="M346.973 131.257C349.013 129.344 350.296 126.762 350.589 123.983C350.868 121.22 350.132 118.449 348.519 116.187C346.854 113.876 344.449 112.201 341.701 111.438C338.911 110.639 335.935 110.78 333.235 111.841C330.582 112.87 328.365 114.779 326.956 117.247C325.598 119.649 325.158 122.462 325.719 125.162C326.304 127.908 327.85 130.355 330.079 132.065C332.366 133.826 335.174 134.778 338.063 134.771C339.715 134.773 341.353 134.464 342.891 133.861C344.408 133.267 345.795 132.382 346.973 131.257ZM330.832 129.674C329.174 128.121 328.128 126.026 327.883 123.769C327.658 121.526 328.252 119.278 329.556 117.437C330.905 115.543 332.864 114.169 335.105 113.543C337.372 112.893 339.79 113.005 341.987 113.86C344.145 114.696 345.95 116.247 347.1 118.253C348.208 120.216 348.566 122.513 348.107 124.719C347.629 126.95 346.373 128.939 344.563 130.331C342.705 131.761 340.424 132.535 338.078 132.531C336.738 132.534 335.41 132.284 334.162 131.795C332.932 131.314 331.806 130.599 330.848 129.69L330.832 129.674Z" fill="#0058B0"/>
<path opacity="0.2" d="M339.926 114.761C339.228 114.082 338.404 113.544 337.5 113.178C336.595 112.807 335.625 112.616 334.646 112.616C333.667 112.618 332.697 112.811 331.792 113.186C330.906 113.558 330.099 114.095 329.414 114.769C328.738 115.452 328.2 116.258 327.829 117.144C327.457 118.045 327.265 119.01 327.266 119.985C327.27 120.961 327.467 121.927 327.844 122.827C328.211 123.715 328.75 124.522 329.43 125.201C330.112 125.878 330.92 126.416 331.808 126.784C332.714 127.156 333.683 127.347 334.662 127.346C335.641 127.341 336.61 127.147 337.516 126.776C338.404 126.407 339.211 125.869 339.895 125.193C340.573 124.512 341.111 123.706 341.48 122.819C341.853 121.915 342.044 120.947 342.043 119.969C342.041 118.997 341.847 118.034 341.472 117.136C341.1 116.251 340.562 115.445 339.887 114.761H339.926Z" fill="white"/>
<path d="M327.229 122.812C327.233 121.448 327.517 120.101 328.062 118.851C328.608 117.601 329.403 116.477 330.401 115.545C332.473 113.6 335.214 112.523 338.059 112.538C340.903 112.523 343.645 113.6 345.717 115.545C346.711 116.478 347.504 117.602 348.049 118.849C348.594 120.097 348.88 121.442 348.888 122.804H349.943C349.933 121.308 349.618 119.829 349.017 118.459C348.416 117.088 347.541 115.855 346.446 114.833C344.164 112.707 341.156 111.529 338.035 111.54C334.912 111.533 331.905 112.72 329.632 114.857C328.538 115.88 327.667 117.116 327.069 118.488C326.472 119.86 326.163 121.339 326.159 122.835L327.229 122.812Z" fill="#606060"/>
<path d="M327.688 129.111L313.656 142.511L317.295 145.962L331.327 132.562L327.688 129.111Z" fill="#0058B0"/>
<path d="M316.422 146.795C315.945 146.796 315.471 146.708 315.027 146.533C314.588 146.362 314.187 146.107 313.846 145.782C313.509 145.467 313.239 145.087 313.053 144.666C312.871 144.249 312.776 143.799 312.775 143.344L313.655 142.552L317.294 146.003L316.422 146.795Z" fill="#C5E1F9"/>
<path d="M316.098 146.47L314.513 144.942L315.305 144.23L316.891 145.758L316.098 146.47Z" fill="#EAF4FE"/>
<path d="M39.2005 101.821C38.8299 102.998 38.2046 104.079 37.3691 104.987L43.6163 113.694C46.8432 110.947 49.0586 107.203 49.9109 103.056L39.2005 101.821Z" fill="#D98F00"/>
<path d="M32.8203 90.802C34.6082 91.176 36.2291 92.1115 37.446 93.4716C38.6628 94.8318 39.4117 96.5452 39.5828 98.3609L50.2853 99.5403C50.2853 99.4215 50.2853 99.3028 50.2853 99.1762C50.2774 94.403 48.4848 89.8046 45.2586 86.282C42.0324 82.7594 37.6052 80.5662 32.8441 80.1323L32.8203 90.802Z" fill="#0058B0"/>
<path d="M24.7264 93.4377C25.9422 92.0968 27.5516 91.1743 29.3245 90.802V80.1323C26.5829 80.3846 23.9276 81.2218 21.5381 82.5874C19.1487 83.9529 17.0809 85.8149 15.4746 88.0475L24.7264 93.4377Z" fill="#80B4FB"/>
<path d="M34.5402 106.988C33.4484 107.478 32.2649 107.732 31.0678 107.732C29.9407 107.735 28.8242 107.515 27.7821 107.086C26.7401 106.657 25.793 106.027 24.9949 105.232C24.1968 104.438 23.5634 103.494 23.1308 102.455C22.6983 101.416 22.4751 100.302 22.474 99.1762C22.4871 98.2426 22.6531 97.3176 22.9655 96.4376L13.698 91.0156C12.4706 93.5614 11.8338 96.3508 11.835 99.1762C11.8455 104.26 13.8771 109.131 17.4835 112.72C21.0899 116.309 25.976 118.321 31.0678 118.315C34.4834 118.316 37.8368 117.403 40.7794 115.671L34.5402 106.988Z" fill="#003E99"/>
</g>
<defs>
<clipPath id="clip0_15422_366476">
<rect width="369" height="302.54" fill="white"/>
</clipPath>
</defs>
</svg>
