<svg width="372" height="305" viewBox="0 0 372 305" fill="none" xmlns="http://www.w3.org/2000/svg">
<g clip-path="url(#clip0_13760_305879)">
<path d="M264.543 204.602V201.195C266.757 201.193 268.88 200.314 270.446 198.75C272.012 197.187 272.893 195.067 272.895 192.856H276.308H272.895H276.308C276.305 195.971 275.065 198.957 272.859 201.159C270.654 203.362 267.662 204.6 264.543 204.602Z" fill="#C5E1F9"/>
<path d="M286.795 210.124H283.374V189.377C283.374 188.441 283.002 187.543 282.34 186.88C281.678 186.217 280.779 185.844 279.842 185.842C278.905 185.846 278.007 186.22 277.346 186.882C276.684 187.545 276.311 188.441 276.309 189.377V193.79H272.896V189.377C272.896 187.537 273.628 185.773 274.93 184.471C276.232 183.169 277.999 182.437 279.842 182.435C281.685 182.437 283.453 183.169 284.756 184.47C286.06 185.772 286.793 187.536 286.795 189.377V210.124Z" fill="#C5E1F9"/>
<path d="M287.986 217.497C286.768 217.495 285.6 217.011 284.739 216.151C283.878 215.291 283.393 214.125 283.391 212.909V201.435H286.803V212.909C286.805 213.222 286.931 213.521 287.152 213.742C287.373 213.963 287.673 214.088 287.986 214.09C288.3 214.09 288.601 213.966 288.823 213.744C289.044 213.523 289.169 213.222 289.169 212.909L289.345 133.058H292.734L292.566 212.909C292.562 214.122 292.078 215.284 291.221 216.143C290.363 217.002 289.201 217.489 287.986 217.497Z" fill="#C5E1F9"/>
<path d="M264.759 204.602C261.639 204.6 258.647 203.362 256.44 201.16C254.232 198.958 252.991 195.972 252.986 192.856V187.438H256.407V192.856C256.409 195.067 257.29 197.187 258.856 198.75C260.421 200.314 262.544 201.193 264.759 201.195V204.602Z" fill="#C5E1F9"/>
<path d="M292.733 133.058H289.32C289.331 129.942 290.579 126.957 292.79 124.758C295.001 122.559 297.996 121.326 301.117 121.328H309.956V124.735H301.117C298.9 124.731 296.773 125.605 295.201 127.165C293.629 128.725 292.741 130.845 292.733 133.058Z" fill="#C5E1F9"/>
<path d="M256.415 188.46H253.002V177.927C252.998 175.715 252.115 173.596 250.548 172.032C248.981 170.469 246.857 169.59 244.642 169.588H212.105V166.173H244.642C247.763 166.177 250.755 167.417 252.962 169.62C255.169 171.824 256.41 174.811 256.415 177.927V188.46Z" fill="#C5E1F9"/>
<path d="M315.111 157.236C311.374 154.441 308.224 150.939 305.843 146.929C303.461 142.919 301.893 138.48 301.23 133.865C300.566 129.251 300.82 124.551 301.976 120.034C303.131 115.517 305.167 111.271 307.966 107.54C310.761 103.804 314.266 100.654 318.281 98.2712C322.295 95.8882 326.741 94.3183 331.364 93.6513C335.986 92.9844 340.695 93.2334 345.221 94.3842C349.747 95.535 354.002 97.565 357.742 100.358C361.484 103.15 364.637 106.65 367.024 110.659C369.41 114.668 370.982 119.107 371.65 123.723C372.318 128.338 372.069 133.04 370.917 137.56C369.765 142.079 367.732 146.327 364.935 150.062C362.137 153.801 358.627 156.953 354.608 159.337C350.589 161.721 346.139 163.291 341.512 163.957C336.885 164.623 332.172 164.373 327.642 163.219C323.112 162.066 318.854 160.033 315.111 157.236Z" fill="#FFCC00"/>
<path d="M112.156 190.797V187.39C114.371 187.386 116.494 186.505 118.06 184.94C119.626 183.376 120.506 181.255 120.508 179.044V173.993H123.921V179.075C123.908 182.185 122.664 185.162 120.46 187.359C118.255 189.555 115.27 190.791 112.156 190.797Z" fill="#C5E1F9"/>
<path d="M134.398 207.331H130.986V170.41C130.986 169.474 130.614 168.576 129.951 167.913C129.289 167.25 128.391 166.877 127.453 166.875C126.515 166.877 125.617 167.25 124.955 167.913C124.292 168.576 123.921 169.474 123.921 170.41V176.53H120.508V170.41C120.508 168.57 121.239 166.805 122.542 165.504C123.844 164.202 125.61 163.47 127.453 163.468C129.296 163.47 131.062 164.202 132.365 165.504C133.667 166.805 134.398 168.57 134.398 170.41V207.331Z" fill="#C5E1F9"/>
<path d="M153.259 184.565H149.838V158.528C149.838 157.243 149.327 156.01 148.418 155.101C147.508 154.191 146.274 153.679 144.987 153.677C143.699 153.679 142.464 154.191 141.553 155.1C140.642 156.01 140.13 157.242 140.128 158.528V184.565H136.715V158.528C136.717 156.339 137.589 154.239 139.14 152.691C140.691 151.143 142.794 150.272 144.987 150.27C147.18 150.272 149.283 151.143 150.834 152.691C152.385 154.239 153.257 156.339 153.259 158.528V184.565Z" fill="#C5E1F9"/>
<path d="M135.596 214.688C134.375 214.688 133.204 214.204 132.341 213.342C131.477 212.48 130.992 211.311 130.992 210.092V182.483H134.413V210.092C134.413 210.405 134.538 210.705 134.759 210.927C134.981 211.148 135.282 211.273 135.596 211.273C135.751 211.273 135.905 211.242 136.048 211.183C136.192 211.123 136.322 211.037 136.432 210.927C136.542 210.817 136.629 210.687 136.689 210.544C136.748 210.4 136.779 210.247 136.779 210.092V182.483H140.191V210.092C140.191 211.309 139.707 212.477 138.846 213.339C137.984 214.201 136.815 214.686 135.596 214.688Z" fill="#C5E1F9"/>
<path d="M112.362 190.798C109.242 190.794 106.251 189.554 104.045 187.35C101.84 185.146 100.6 182.159 100.598 179.044V168.511H104.01V179.044C104.012 181.255 104.893 183.376 106.458 184.941C108.024 186.505 110.147 187.386 112.362 187.39V190.798Z" fill="#C5E1F9"/>
<path d="M104.018 169.541H100.606V159C100.604 156.789 99.723 154.669 98.1571 153.106C96.5913 151.542 94.4682 150.663 92.2538 150.661H43.4609V147.254H92.2538C95.3733 147.256 98.3644 148.494 100.57 150.696C102.776 152.899 104.016 155.885 104.018 159V169.541Z" fill="#C5E1F9"/>
<path d="M45.6604 150.709H39.882C36.7624 150.704 33.7716 149.466 31.5649 147.264C29.3583 145.063 28.1157 142.077 28.1094 138.963V113.756H31.5221V138.963C31.5263 141.174 32.4087 143.294 33.9758 144.857C35.5429 146.42 37.6668 147.299 39.882 147.301H45.6604V150.709Z" fill="#C5E1F9"/>
<path d="M161.467 206.381V202.974C163.682 202.972 165.806 202.093 167.373 200.53C168.94 198.967 169.822 196.847 169.827 194.636V56.0718H173.239V194.636C173.235 197.751 171.993 200.737 169.786 202.939C167.579 205.141 164.587 206.379 161.467 206.381Z" fill="#C5E1F9"/>
<path d="M161.659 206.381C158.54 206.379 155.548 205.141 153.343 202.939C151.137 200.736 149.897 197.75 149.895 194.635V169.436H153.307V194.635C153.309 196.846 154.19 198.966 155.756 200.529C157.322 202.093 159.445 202.972 161.659 202.974V206.381Z" fill="#C5E1F9"/>
<path d="M56.3939 118.775C53.9286 122.061 50.839 124.831 47.3017 126.925C43.7644 129.019 39.8485 130.397 35.7778 130.98C31.707 131.563 27.5612 131.34 23.5768 130.323C19.5924 129.307 15.8475 127.517 12.5562 125.055C9.26339 122.595 6.48832 119.511 4.3893 115.98C2.29029 112.449 0.9085 108.539 0.322926 104.475C-0.262648 100.411 -0.0405449 96.2712 0.976493 92.2926C1.99353 88.314 3.78562 84.5744 6.25039 81.2873C11.2294 74.6508 18.6444 70.2603 26.8651 69.0812C35.0858 67.902 43.439 70.0308 50.088 74.9995C53.381 77.4603 56.1563 80.5447 58.2554 84.0765C60.3546 87.6083 61.7364 91.5183 62.3219 95.5833C62.9075 99.6482 62.6854 103.789 61.6683 107.768C60.6511 111.747 58.8589 115.487 56.3939 118.775Z" fill="#F0F6FC" fill-opacity="0.85"/>
<path d="M271.217 252.327H86.6756C85.0201 252.327 83.4324 251.671 82.2618 250.502C81.0912 249.333 80.4336 247.748 80.4336 246.095V89.5777C80.4336 87.8649 81.1145 86.2222 82.3269 85.0103C83.5392 83.7984 85.1838 83.1165 86.8993 83.1144H270.993C272.709 83.1165 274.353 83.7984 275.566 85.0103C276.778 86.2222 277.459 87.8649 277.459 89.5777V246.095C277.459 247.748 276.801 249.333 275.631 250.502C274.46 251.671 272.872 252.327 271.217 252.327Z" fill="white"/>
<path d="M115.808 108.721H94.2285V129.228H115.808V108.721Z" fill="#2A66C4"/>
<path d="M99.2387 116.891C99.0561 116.884 98.8739 116.914 98.7032 116.979C98.5349 117.045 98.3825 117.146 98.2557 117.274C98.1319 117.4 98.0352 117.55 97.972 117.715C97.9087 117.88 97.8801 118.056 97.888 118.232C97.8824 118.412 97.9135 118.591 97.9795 118.758C98.0455 118.925 98.1448 119.078 98.2716 119.205C98.4004 119.331 98.5524 119.432 98.7192 119.501C98.8904 119.565 99.0719 119.597 99.2547 119.596C99.435 119.597 99.6137 119.564 99.7822 119.501C99.9487 119.439 100.099 119.341 100.222 119.213C100.344 119.086 100.44 118.936 100.503 118.772C100.566 118.607 100.595 118.432 100.589 118.256C100.596 118.077 100.567 117.899 100.504 117.732C100.441 117.565 100.345 117.412 100.222 117.282C100.099 117.152 99.949 117.051 99.7822 116.987C99.6131 116.915 99.4302 116.883 99.2467 116.891" fill="white"/>
<path d="M106.896 121.328H104.994V124.52H102.66V113.572H106.896C109.635 113.572 111.004 114.838 111.004 117.371C111.037 117.906 110.961 118.443 110.781 118.949C110.601 119.455 110.321 119.92 109.957 120.315C109.54 120.678 109.054 120.955 108.529 121.129C108.003 121.303 107.448 121.371 106.896 121.328ZM104.994 119.421H106.88C108.047 119.421 108.63 118.727 108.63 117.363C108.677 116.842 108.526 116.324 108.207 115.91C108.03 115.752 107.824 115.63 107.599 115.551C107.369 115.47 107.123 115.44 106.88 115.463H104.994V119.421Z" fill="white"/>
<path d="M257.007 108.721H124.639V113.117H257.007V108.721Z" fill="#9AC7F7"/>
<path d="M257.007 116.772H124.639V121.168H257.007V116.772Z" fill="#9AC7F7"/>
<path d="M257.007 124.815H124.639V129.212H257.007V124.815Z" fill="#9AC7F7"/>
<path d="M257.007 147.006H116.016V149.855H257.007V147.006Z" fill="#9AC7F7"/>
<path d="M219.22 155.089L116.008 155.033L116.016 152.177L219.228 152.233L219.22 155.089Z" fill="#9AC7F7"/>
<path d="M252.914 167.178L115.998 167.115L116.006 164.266L252.914 164.338V167.178Z" fill="#9AC7F7"/>
<path d="M152.555 172.333L115.998 172.325V169.468L152.555 169.492V172.333Z" fill="#9AC7F7"/>
<path d="M201.467 181.581H115.998V184.43H201.467V181.581Z" fill="#9AC7F7"/>
<path d="M187.699 198.873H115.992V201.713H187.699V198.873Z" fill="#9AC7F7"/>
<path d="M256.968 204.099H115.977V206.948H256.968V204.099Z" fill="#9AC7F7"/>
<path d="M226.909 216.173H115.977V219.013H226.909V216.173Z" fill="#9AC7F7"/>
<path d="M189.719 231.932H115.967V234.773H189.719V231.932Z" fill="#9AC7F7"/>
<path d="M95.0039 145.881V156.055H105.194V145.881H95.0039ZM103.532 154.411H96.6584V147.541H103.548L103.532 154.411Z" fill="#9AC7F7"/>
<path d="M95.0039 162.925V173.099H105.202V162.917L95.0039 162.925ZM103.524 171.447H96.6584V164.585H103.532L103.524 171.447Z" fill="#9AC7F7"/>
<path d="M94.9961 179.961V190.135H105.194V179.961H94.9961ZM103.516 188.491H96.6505V181.629H103.524L103.516 188.491Z" fill="#9AC7F7"/>
<path d="M94.9785 196.998V207.18H105.161V197.006L94.9785 196.998ZM103.506 205.528H96.633V198.665H103.506V205.528Z" fill="#9AC7F7"/>
<path d="M94.9785 214.042V224.216H105.169V214.05L94.9785 214.042ZM103.49 222.572H96.625V215.71H103.498L103.49 222.572Z" fill="#9AC7F7"/>
<path d="M105.145 241.26L105.153 231.086H94.9631L94.9551 241.252" fill="#9AC7F7"/>
<path d="M96.6094 239.608L96.6174 232.73L103.491 232.746L103.483 239.608" fill="#9AC7F7"/>
<path d="M97.8723 172.094C97.7105 172.094 97.5502 172.063 97.4006 172.001C97.2511 171.94 97.1153 171.849 97.0011 171.735C96.7751 171.506 96.6484 171.198 96.6484 170.877C96.6484 170.556 96.7751 170.248 97.0011 170.019L102.484 164.545C102.597 164.431 102.731 164.341 102.879 164.279C103.028 164.217 103.187 164.186 103.347 164.186C103.508 164.186 103.666 164.217 103.815 164.279C103.963 164.341 104.097 164.431 104.21 164.545C104.324 164.658 104.415 164.792 104.477 164.94C104.538 165.088 104.57 165.247 104.57 165.407C104.57 165.567 104.538 165.726 104.477 165.874C104.415 166.022 104.324 166.156 104.21 166.269L98.7275 171.735C98.5012 171.963 98.1937 172.092 97.8723 172.094Z" fill="#2A66C4"/>
<path d="M103.316 172.094C103.155 172.094 102.994 172.063 102.845 172.001C102.695 171.94 102.56 171.849 102.445 171.735L96.9707 166.261C96.7442 166.031 96.6172 165.721 96.6172 165.399C96.6172 165.076 96.7442 164.767 96.9707 164.537C97.2009 164.311 97.5108 164.184 97.8338 164.184C98.1567 164.184 98.4667 164.311 98.6969 164.537L104.172 170.019C104.398 170.248 104.524 170.556 104.524 170.877C104.524 171.198 104.398 171.506 104.172 171.735C103.945 171.963 103.638 172.092 103.316 172.094Z" fill="#2A66C4"/>
<path d="M100.958 153.653C100.792 153.652 100.628 153.617 100.475 153.552C100.323 153.486 100.185 153.39 100.07 153.27L97.5289 150.589C97.4172 150.474 97.3296 150.338 97.2714 150.189C97.2132 150.04 97.1854 149.881 97.1899 149.721C97.1944 149.561 97.231 149.404 97.2974 149.258C97.3639 149.112 97.4589 148.982 97.5768 148.873C97.6917 148.762 97.8279 148.674 97.9772 148.616C98.1266 148.558 98.286 148.53 98.4462 148.535C98.6064 148.539 98.7641 148.576 98.9099 148.642C99.0558 148.709 99.1867 148.803 99.2952 148.921L100.894 150.597L105.689 144.804C105.79 144.68 105.914 144.577 106.055 144.501C106.196 144.426 106.35 144.379 106.509 144.363C106.668 144.347 106.829 144.363 106.982 144.41C107.135 144.457 107.277 144.534 107.399 144.636C107.65 144.841 107.81 145.136 107.843 145.458C107.876 145.779 107.779 146.101 107.575 146.352L101.925 153.206C101.815 153.339 101.678 153.447 101.524 153.524C101.37 153.601 101.202 153.645 101.03 153.653H100.958Z" fill="#2A66C4"/>
<path d="M101.446 187.726C101.283 187.725 101.122 187.692 100.972 187.628C100.822 187.563 100.687 187.469 100.575 187.351L98.0177 184.677C97.9052 184.563 97.8169 184.426 97.7579 184.277C97.6989 184.128 97.6704 183.968 97.6742 183.807C97.6779 183.647 97.7137 183.488 97.7795 183.342C97.8454 183.195 97.94 183.063 98.0577 182.954C98.1705 182.841 98.3044 182.752 98.4518 182.691C98.5992 182.63 98.7572 182.598 98.9168 182.598C99.0764 182.598 99.2344 182.63 99.3818 182.691C99.5292 182.752 99.6631 182.841 99.7759 182.954L101.374 184.637L106.17 178.852C106.27 178.728 106.394 178.624 106.534 178.548C106.675 178.471 106.829 178.424 106.988 178.407C107.147 178.391 107.308 178.406 107.461 178.453C107.614 178.499 107.757 178.575 107.88 178.677C108.129 178.882 108.287 179.178 108.32 179.499C108.353 179.82 108.258 180.141 108.056 180.392L102.421 187.239C102.312 187.372 102.176 187.481 102.022 187.558C101.867 187.635 101.699 187.678 101.526 187.686L101.446 187.726Z" fill="#2A66C4"/>
<path d="M98.3844 205.017C98.2192 205.018 98.0556 204.984 97.9042 204.918C97.7528 204.852 97.6169 204.756 97.5053 204.634L94.9558 201.961C94.8448 201.845 94.7579 201.708 94.7002 201.559C94.6425 201.409 94.6152 201.249 94.6196 201.089C94.6241 200.929 94.6603 200.771 94.7262 200.625C94.7922 200.479 94.8865 200.347 95.0037 200.237C95.1196 200.128 95.256 200.042 95.4052 199.985C95.5543 199.928 95.7132 199.901 95.8728 199.906C96.0324 199.91 96.1896 199.946 96.3353 200.011C96.481 200.076 96.6124 200.169 96.7221 200.285L98.3205 201.961L103.116 196.168C103.217 196.043 103.342 195.94 103.484 195.864C103.625 195.789 103.78 195.742 103.94 195.726C104.1 195.711 104.261 195.727 104.415 195.774C104.568 195.821 104.711 195.898 104.834 196C105.084 196.206 105.242 196.502 105.273 196.823C105.305 197.145 105.207 197.466 105.002 197.716L99.4075 204.57C99.2983 204.703 99.162 204.812 99.0077 204.889C98.8535 204.966 98.6847 205.01 98.5123 205.017H98.3844Z" fill="#2A66C4"/>
<path d="M204.73 216.834H200.494V227.814H204.73V216.834Z" fill="#0066CC"/>
<path d="M187.14 237.828L177.549 232.346L179.667 228.732L189.258 234.206L187.14 237.828Z" fill="#0066CC"/>
<path d="M187.14 250.676L177.549 256.174L179.667 259.796L189.258 254.298L187.14 250.676Z" fill="#0066CC"/>
<path d="M204.73 260.722H200.494V271.678H204.73V260.722Z" fill="#0066CC"/>
<path d="M225.597 228.732L216.006 234.214L218.124 237.844L227.715 232.354L225.597 228.732Z" fill="#0066CC"/>
<path d="M265.512 262.613L233.734 252.407L201.957 242.201L212.291 273.601L222.601 305L233.79 283.511L250.758 300.268L260.748 290.374L243.781 273.617L265.512 262.613Z" fill="#3683F2"/>
<path d="M233.734 252.407L201.957 242.201L202.293 243.255L255.385 295.704L260.732 290.398L243.765 273.641L265.512 262.613L233.734 252.407Z" fill="#7EB3FF"/>
<path d="M196.721 50.4221C194.235 53.7352 191.12 56.5271 187.553 58.6382C183.987 60.7493 180.039 62.1382 175.935 62.7258C171.831 63.3134 167.651 63.0881 163.634 62.0628C159.617 61.0374 155.841 59.232 152.523 56.7498C149.2 54.2736 146.398 51.1678 144.278 47.6097C142.158 44.0516 140.761 40.1112 140.167 36.0137C139.573 31.9163 139.794 27.7421 140.817 23.73C141.84 19.7178 143.646 15.9464 146.13 12.6313C148.612 9.3147 151.724 6.5187 155.288 4.40299C158.853 2.28728 162.8 0.893318 166.904 0.300547C171.008 -0.292224 175.189 -0.072213 179.208 0.948199C183.227 1.96861 187.005 3.76942 190.327 6.24766C193.655 8.72692 196.46 11.8369 198.583 15.3997C200.706 18.9626 202.104 22.9084 202.698 27.0113C203.291 31.1142 203.069 35.2937 202.044 39.3108C201.018 43.3279 199.209 47.1037 196.721 50.4221Z" fill="#7EB3FF"/>
<path d="M340.814 134.127C346.508 134.127 351.124 129.519 351.124 123.834C351.124 118.149 346.508 113.54 340.814 113.54C335.12 113.54 330.504 118.149 330.504 123.834C330.504 129.519 335.12 134.127 340.814 134.127Z" fill="#EAF4FF"/>
<path d="M86.3958 83.1221H271.497C273.078 83.1221 274.595 83.7493 275.713 84.8656C276.831 85.982 277.459 87.4961 277.459 89.0748V99.2806H80.4336V89.0748C80.4336 87.4961 81.0618 85.982 82.1799 84.8656C83.298 83.7493 84.8145 83.1221 86.3958 83.1221Z" fill="#003E99"/>
<path d="M90.3993 91.9477C90.3805 92.6257 90.0931 93.2685 89.6002 93.7352C89.1072 94.2019 88.4491 94.4545 87.7699 94.4373C87.0922 94.4523 86.4359 94.1989 85.9447 93.7324C85.4535 93.2659 85.1673 92.6243 85.1484 91.9477C85.1673 91.2718 85.4538 90.631 85.9452 90.1658C86.4367 89.7005 87.0929 89.4488 87.7699 89.466C88.1058 89.4564 88.4403 89.5131 88.7542 89.6327C89.0682 89.7522 89.3555 89.9324 89.5997 90.1628C89.8439 90.3933 90.0402 90.6695 90.1774 90.9758C90.3146 91.282 90.39 91.6123 90.3993 91.9477Z" fill="#0561FC"/>
<path d="M98.7196 91.9481C98.7008 92.626 98.4134 93.2688 97.9205 93.7355C97.4276 94.2023 96.7693 94.4548 96.0901 94.4376C95.4124 94.4527 94.7562 94.1992 94.265 93.7327C93.7739 93.2662 93.4876 92.6246 93.4688 91.9481C93.4876 91.2722 93.7741 90.6313 94.2655 90.1661C94.757 89.7009 95.4131 89.4492 96.0901 89.4663C96.7679 89.4492 97.425 89.7006 97.9177 90.1656C98.4104 90.6306 98.6987 91.2715 98.7196 91.9481Z" fill="#FEC12F"/>
<path d="M107.032 91.9477C107.013 92.6257 106.726 93.2685 106.233 93.7352C105.74 94.2019 105.082 94.4545 104.403 94.4373C103.725 94.4523 103.069 94.1989 102.578 93.7324C102.086 93.2659 101.8 92.6243 101.781 91.9477C101.8 91.2718 102.087 90.631 102.578 90.1658C103.07 89.7005 103.726 89.4488 104.403 89.466C104.739 89.4564 105.073 89.5131 105.387 89.6327C105.701 89.7522 105.988 89.9324 106.233 90.1628C106.477 90.3933 106.673 90.6695 106.81 90.9758C106.947 91.282 107.023 91.6123 107.032 91.9477Z" fill="#7EB3FF"/>
<path d="M165.951 37.3596C165.951 39.4145 165.133 41.3853 163.678 42.8383C162.222 44.2914 160.248 45.1077 158.19 45.1077C156.132 45.1077 154.158 44.2914 152.703 42.8383C151.247 41.3853 150.43 39.4145 150.43 37.3596C150.43 35.3047 151.247 33.334 152.703 31.8809C154.158 30.4279 156.132 29.6116 158.19 29.6116C160.248 29.6116 162.222 30.4279 163.678 31.8809C165.133 33.334 165.951 35.3047 165.951 37.3596Z" fill="#C5E1F9"/>
<path d="M193.628 36.1708C193.637 38.4945 192.737 40.7298 191.118 42.3995C189.499 44.0693 187.291 45.0412 184.964 45.1078C182.638 45.0412 180.43 44.0693 178.811 42.3995C177.192 40.7298 176.292 38.4945 176.301 36.1708C176.301 33.8768 177.214 31.6767 178.838 30.0545C180.463 28.4324 182.667 27.521 184.964 27.521C187.262 27.521 189.466 28.4324 191.091 30.0545C192.715 31.6767 193.628 33.8768 193.628 36.1708Z" fill="#C5E1F9"/>
<path d="M184.941 27.521C182.643 27.521 180.44 28.4324 178.815 30.0545C177.19 31.6767 176.277 33.8768 176.277 36.1708C176.278 37.3484 176.52 38.5134 176.989 39.594C178.569 40.9977 180.612 41.773 182.727 41.7725C185.025 41.7725 187.228 40.8611 188.853 39.2389C190.478 37.6168 191.391 35.4167 191.391 33.1226C191.391 31.9449 191.149 30.7798 190.679 29.6995C189.101 28.2925 187.057 27.5168 184.941 27.521Z" fill="#EAF4FE"/>
<path d="M185.42 45.1078C186.059 43.7912 187.09 42.323 187.09 40.767C187.091 39.4548 186.833 38.1551 186.331 36.9426C185.828 35.73 185.091 34.6283 184.162 33.7004C183.232 32.7725 182.129 32.0367 180.914 31.535C179.7 31.0333 178.398 30.7756 177.084 30.7767C171.553 30.7767 163.561 35.2452 163.561 40.767C163.561 42.3629 157.551 43.7912 158.19 45.1078H185.42Z" fill="#C5E1F9"/>
<path d="M182.72 29.5643C182.72 32.9292 181.381 36.1563 178.998 38.5357C176.615 40.915 173.383 42.2517 170.012 42.2517C166.642 42.2517 163.41 40.915 161.027 38.5357C158.644 36.1563 157.305 32.9292 157.305 29.5643C157.305 26.1987 158.643 22.9707 161.026 20.5901C163.409 18.2095 166.641 16.871 170.012 16.8689C171.682 16.8689 173.335 17.1974 174.877 17.8355C176.42 18.4736 177.821 19.4088 179.001 20.5878C180.181 21.7667 181.117 23.1663 181.755 24.7066C182.393 26.2468 182.721 27.8975 182.72 29.5643Z" fill="#C5E1F9"/>
<path d="M166.406 37.8468C168.076 37.8468 169.729 37.5183 171.271 36.8802C172.813 36.2421 174.215 35.3069 175.395 34.1279C176.575 32.9489 177.511 31.5493 178.149 30.0091C178.787 28.4689 179.115 26.8182 179.114 25.1514C179.118 23.2158 178.678 21.305 177.827 19.5657C175.597 17.8202 172.844 16.8732 170.011 16.8767C166.64 16.8788 163.407 18.2172 161.025 20.5979C158.642 22.9785 157.303 26.2064 157.303 29.5721V29.6518C155.412 29.8691 153.667 30.7729 152.399 32.1912C151.132 33.6095 150.431 35.4434 150.43 37.3441C150.44 38.5096 150.713 39.6578 151.229 40.7034C151.983 41.0394 152.8 41.2134 153.627 41.2141C155.111 41.2125 156.542 40.6579 157.639 39.6588C158.736 38.6597 159.42 37.2879 159.557 35.812C161.596 37.1358 163.974 37.8425 166.406 37.8468Z" fill="#EAF4FE"/>
<path d="M173.816 32.0459V29.7318C173.814 28.8634 173.467 28.0314 172.851 27.4181C172.235 26.8047 171.401 26.4603 170.531 26.4603H170.043C169.174 26.4603 168.339 26.8047 167.724 27.4181C167.108 28.0314 166.761 28.8634 166.759 29.7318V32.0459H166.031V39.5706H174.543V32.0459H173.816ZM168.221 29.7318C168.223 29.2507 168.416 28.79 168.758 28.4506C169.099 28.1111 169.561 27.9205 170.043 27.9205H170.531C171.013 27.9205 171.475 28.1111 171.817 28.4506C172.158 28.79 172.351 29.2507 172.353 29.7318V32.0459H168.221V29.7318ZM171.122 37.2885H169.452L169.836 35.8761C169.67 35.7951 169.53 35.669 169.432 35.5124C169.335 35.3557 169.283 35.1748 169.284 34.9904C169.284 34.8587 169.31 34.7283 169.361 34.6068C169.412 34.4853 169.486 34.375 169.58 34.2822C169.673 34.1895 169.784 34.1161 169.906 34.0665C170.029 34.0168 170.159 33.9919 170.291 33.993C170.556 33.993 170.81 34.098 170.998 34.2851C171.185 34.4721 171.29 34.7259 171.29 34.9904C171.291 35.1748 171.24 35.3557 171.142 35.5124C171.045 35.669 170.905 35.7951 170.739 35.8761L171.122 37.2885Z" fill="#2A66C4"/>
<path d="M349.798 132.324C351.854 130.395 353.147 127.792 353.442 124.991C353.724 122.205 352.982 119.412 351.356 117.131C349.677 114.801 347.252 113.113 344.483 112.343C341.67 111.538 338.67 111.681 335.947 112.75C333.273 113.787 331.038 115.712 329.617 118.2C328.248 120.622 327.805 123.457 328.37 126.18C328.96 128.947 330.519 131.414 332.766 133.138C335.071 134.914 337.903 135.874 340.814 135.867C342.48 135.868 344.131 135.557 345.682 134.949C347.212 134.35 348.61 133.458 349.798 132.324ZM333.525 130.728C331.854 129.162 330.799 127.05 330.552 124.775C330.325 122.514 330.924 120.247 332.239 118.392C333.599 116.482 335.573 115.097 337.833 114.466C340.118 113.811 342.555 113.923 344.77 114.785C346.946 115.628 348.766 117.192 349.925 119.214C351.042 121.193 351.403 123.509 350.94 125.733C350.459 127.982 349.193 129.987 347.368 131.39C345.495 132.832 343.195 133.612 340.83 133.609C339.479 133.611 338.14 133.359 336.882 132.866C335.642 132.381 334.507 131.66 333.541 130.744L333.525 130.728Z" fill="#0058B0"/>
<path opacity="0.2" d="M342.691 115.694C341.987 115.009 341.157 114.467 340.246 114.098C339.333 113.724 338.355 113.532 337.369 113.532C336.381 113.534 335.404 113.729 334.491 114.106C333.598 114.482 332.784 115.023 332.094 115.702C331.412 116.391 330.87 117.203 330.495 118.096C330.12 119.005 329.928 119.978 329.928 120.961C329.932 121.945 330.13 122.918 330.511 123.825C330.881 124.721 331.424 125.534 332.11 126.219C332.798 126.901 333.612 127.443 334.507 127.815C335.42 128.19 336.398 128.382 337.385 128.382C338.372 128.376 339.348 128.181 340.262 127.807C341.156 127.434 341.971 126.892 342.659 126.211C343.343 125.525 343.886 124.712 344.258 123.817C344.634 122.906 344.826 121.93 344.825 120.945C344.824 119.964 344.628 118.993 344.25 118.088C343.874 117.196 343.332 116.384 342.651 115.694H342.691Z" fill="white"/>
<path d="M329.888 123.81C329.892 122.436 330.177 121.077 330.727 119.817C331.277 118.557 332.079 117.423 333.084 116.485C335.174 114.523 337.937 113.438 340.805 113.452C343.673 113.438 346.436 114.523 348.526 116.485C349.527 117.424 350.327 118.557 350.877 119.815C351.426 121.073 351.714 122.429 351.722 123.802H352.785C352.776 122.294 352.458 120.803 351.852 119.422C351.246 118.04 350.364 116.796 349.261 115.766C346.96 113.623 343.928 112.436 340.781 112.447C337.633 112.439 334.601 113.636 332.309 115.79C331.207 116.822 330.328 118.068 329.726 119.451C329.124 120.834 328.812 122.326 328.809 123.834L329.888 123.81Z" fill="#606060"/>
<path d="M330.351 130.162L316.205 143.671L319.874 147.15L334.02 133.641L330.351 130.162Z" fill="#0058B0"/>
<path d="M318.995 147.988C318.513 147.989 318.036 147.9 317.588 147.724C317.146 147.551 316.741 147.294 316.397 146.966C316.058 146.649 315.786 146.266 315.598 145.841C315.414 145.421 315.319 144.967 315.318 144.509L316.205 143.711L319.874 147.19L318.995 147.988Z" fill="#C5E1F9"/>
<path d="M318.667 147.661L317.068 146.121L317.868 145.402L319.466 146.942L318.667 147.661Z" fill="#EAF4FE"/>
<path d="M39.5201 102.648C39.1464 103.835 38.5161 104.924 37.6738 105.84L43.9717 114.618C47.2249 111.849 49.4583 108.074 50.3175 103.893L39.5201 102.648Z" fill="#D98F00"/>
<path d="M33.0879 91.5405C34.8903 91.9175 36.5244 92.8606 37.7512 94.2318C38.9779 95.603 39.7328 97.3304 39.9053 99.1608L50.6949 100.35C50.6949 100.23 50.6949 100.11 50.6949 99.9828C50.687 95.1707 48.8797 90.535 45.6273 86.9837C42.3749 83.4325 37.9117 81.2215 33.1119 80.7841L33.0879 91.5405Z" fill="#0058B0"/>
<path d="M24.9266 94.1976C26.1523 92.8458 27.7748 91.9158 29.5621 91.5405V80.7841C26.7982 81.0384 24.1213 81.8824 21.7124 83.259C19.3036 84.6357 17.2189 86.5129 15.5996 88.7635L24.9266 94.1976Z" fill="#80B4FB"/>
<path d="M34.8215 107.859C33.7208 108.353 32.5277 108.608 31.3209 108.609C30.1846 108.611 29.059 108.389 28.0085 107.957C26.958 107.524 26.0032 106.889 25.1986 106.088C24.394 105.287 23.7554 104.336 23.3194 103.288C22.8833 102.241 22.6582 101.117 22.6572 99.9829C22.6704 99.0417 22.8378 98.1092 23.1527 97.222L13.8098 91.756C12.5725 94.3225 11.9305 97.1345 11.9316 99.9829C11.9422 105.108 13.9904 110.019 17.6261 113.637C21.2619 117.255 26.1877 119.284 31.3209 119.277C34.7642 119.278 38.1449 118.358 41.1114 116.612L34.8215 107.859Z" fill="#003E99"/>
</g>
<defs>
<clipPath id="clip0_13760_305879">
<rect width="372" height="305" fill="white"/>
</clipPath>
</defs>
</svg>
