<svg width="370" height="303" viewBox="0 0 370 303" fill="none" xmlns="http://www.w3.org/2000/svg">
<g clip-path="url(#clip0_13760_306240)">
<path d="M348.289 0H21.7111C9.72222 0 0 10.441 0 23.3256V206.598C0 219.483 9.72222 229.924 21.7111 229.924H348.289C360.278 229.924 370 219.483 370 206.598V23.3256C370 10.441 360.278 0 348.289 0Z" fill="#F0F6FC"/>
<path d="M218.812 170.576H32.483C28.0083 170.576 24.3809 174.204 24.3809 178.679V229.923H226.914V178.679C226.914 174.204 223.287 170.576 218.812 170.576Z" fill="white" fill-opacity="0.85"/>
<path d="M44.0566 207.586H36.4121V229.923H44.0566V207.586Z" fill="#9BC7F4"/>
<path d="M55.5253 199.723H47.8809V229.924H55.5253V199.723Z" fill="#FFBF0D"/>
<path d="M66.981 205.021H59.3477V229.924H66.981V205.021Z" fill="#80B4FB"/>
<path d="M78.4472 188.604H70.8027V229.924H78.4472V188.604Z" fill="#0058B0"/>
<path d="M205.115 197.245H93.9258V200.789H205.115V197.245Z" fill="#9BC7F4"/>
<path d="M201.204 204.143H93.9258V207.109H201.204V204.143Z" fill="#9BC7F4"/>
<path d="M161.781 210.675H93.9258V214.929H161.781V210.675Z" fill="#9BC7F4"/>
<path d="M142.114 189.271H93.4922V192.98H142.114V189.271Z" fill="#9BC7F4"/>
<path d="M0.367188 21.6817C0.370132 15.9323 2.65615 10.4192 6.72297 6.35368C10.7898 2.28821 16.3047 0.00294315 22.0561 0H348.312C354.063 0.00294315 359.578 2.28821 363.645 6.35368C367.711 10.4192 369.998 15.9323 370 21.6817H0.367188Z" fill="#9AC7F7"/>
<path d="M342.424 15.6502C343.376 15.6502 344.306 15.3681 345.097 14.8396C345.888 14.3111 346.505 13.56 346.869 12.6812C347.233 11.8023 347.329 10.8353 347.143 9.90236C346.957 8.9694 346.499 8.11243 345.826 7.43981C345.153 6.76718 344.296 6.30912 343.363 6.12354C342.43 5.93797 341.462 6.03321 340.583 6.39723C339.704 6.76125 338.953 7.3777 338.424 8.16862C337.895 8.95955 337.613 9.88942 337.613 10.8407C337.613 12.1162 338.12 13.3395 339.022 14.2415C339.925 15.1435 341.148 15.6502 342.424 15.6502Z" fill="white"/>
<path d="M325.688 15.6502C326.64 15.6502 327.57 15.3681 328.361 14.8396C329.152 14.3111 329.769 13.56 330.133 12.6812C330.497 11.8023 330.592 10.8353 330.407 9.90236C330.221 8.9694 329.763 8.11243 329.09 7.43981C328.417 6.76718 327.56 6.30912 326.627 6.12354C325.693 5.93797 324.726 6.03321 323.847 6.39723C322.968 6.76125 322.216 7.3777 321.688 8.16862C321.159 8.95955 320.877 9.88942 320.877 10.8407C320.877 12.1162 321.384 13.3395 322.286 14.2415C323.188 15.1435 324.412 15.6502 325.688 15.6502Z" fill="#0450CF"/>
<path d="M308.967 15.6502C309.919 15.6502 310.849 15.3681 311.64 14.8396C312.431 14.3111 313.048 13.56 313.412 12.6812C313.776 11.8023 313.872 10.8353 313.686 9.90236C313.5 8.9694 313.042 8.11243 312.369 7.43981C311.696 6.76718 310.839 6.30912 309.906 6.12354C308.973 5.93797 308.005 6.03321 307.126 6.39723C306.247 6.76125 305.496 7.3777 304.967 8.16862C304.438 8.95955 304.156 9.88942 304.156 10.8407C304.156 12.1162 304.663 13.3395 305.565 14.2415C306.468 15.1435 307.691 15.6502 308.967 15.6502Z" fill="#003E99"/>
<path d="M49.5085 138.388C49.1911 138.375 48.8745 138.428 48.5782 138.542C48.282 138.657 48.0124 138.831 47.7862 139.054C47.5732 139.277 47.4066 139.54 47.296 139.828C47.1854 140.116 47.133 140.423 47.1418 140.731C47.1317 141.046 47.1868 141.359 47.3034 141.652C47.42 141.944 47.5957 142.209 47.8196 142.431C48.0398 142.659 48.3065 142.838 48.6017 142.955C48.8968 143.072 49.2136 143.124 49.5307 143.108C49.8454 143.119 50.1591 143.066 50.4529 142.953C50.7463 142.841 51.0117 142.667 51.2307 142.442C51.4447 142.219 51.612 141.957 51.7227 141.668C51.8334 141.38 51.8852 141.073 51.8751 140.765C51.888 140.136 51.6571 139.527 51.2307 139.065C51.0117 138.838 50.7468 138.66 50.4537 138.543C50.1606 138.427 49.8459 138.373 49.5307 138.388" fill="white"/>
<path d="M220.373 89H31.6269C27.967 89 25 91.998 25 95.6961V154.304C25 158.002 27.967 161 31.6269 161H220.373C224.033 161 227 158.002 227 154.304V95.6961C227 91.998 224.033 89 220.373 89Z" fill="white" fill-opacity="0.85"/>
<path d="M183 118H94V127H183V118Z" fill="#2A66C4"/>
<path d="M128 132H94V134H128V132Z" fill="#2A66C4"/>
<path d="M345.878 88.139H246.304C242.616 88.139 239.627 91.0551 239.627 94.6523V200.062C239.627 203.66 242.616 206.576 246.304 206.576H345.878C349.566 206.576 352.555 203.66 352.555 200.062V94.6523C352.555 91.0551 349.566 88.139 345.878 88.139Z" fill="#F0F6FC" fill-opacity="0.85"/>
<path d="M342.424 103.732H252.213V106.753H342.424V103.732Z" fill="#9BC7F4"/>
<path d="M339.246 109.275H252.213V112.296H339.246V109.275Z" fill="#9BC7F4"/>
<path d="M342.424 132.567H252.213V135.6H342.424V132.567Z" fill="#9BC7F4"/>
<path d="M342.424 114.695H252.213V117.717H342.424V114.695Z" fill="#9BC7F4"/>
<path d="M347.411 34.433H291.078V37.4542H347.411V34.433Z" fill="#2A66C4"/>
<path d="M347.399 39.9756H293.055V42.9968H347.399V39.9756Z" fill="#2A66C4"/>
<path d="M347.401 45.3961H323.379V48.4173H347.401V45.3961Z" fill="#2A66C4"/>
<path d="M339.246 120.227H252.213V123.249H339.246V120.227Z" fill="#9BC7F4"/>
<path d="M342.424 125.759H252.213V128.791H342.424V125.759Z" fill="#9BC7F4"/>
<path d="M308.778 170.954C308.251 172.602 307.376 174.118 306.211 175.397L314.955 187.615C319.503 183.771 322.632 178.516 323.844 172.687L308.778 170.954Z" fill="#D98F00"/>
<path d="M299.821 155.504C302.327 156.034 304.599 157.349 306.306 159.259C308.013 161.169 309.065 163.574 309.31 166.123L324.299 167.722C324.299 167.544 324.299 167.378 324.299 167.211C324.287 160.504 321.766 154.044 317.233 149.099C312.7 144.155 306.482 141.083 299.799 140.487L299.821 155.504Z" fill="#0058B0"/>
<path d="M288.488 159.192C290.189 157.304 292.446 156.005 294.933 155.482V140.52C291.088 140.867 287.364 142.039 284.014 143.956C280.664 145.873 277.767 148.49 275.521 151.628L288.488 159.192Z" fill="#80B4FB"/>
<path d="M302.222 178.208C300.392 179.018 298.389 179.36 296.393 179.202C294.398 179.044 292.473 178.391 290.794 177.303C289.114 176.215 287.732 174.725 286.773 172.969C285.814 171.213 285.307 169.246 285.3 167.245C285.316 165.935 285.549 164.636 285.989 163.402L273 155.782C271.287 159.361 270.395 163.277 270.389 167.245C270.398 171.983 271.658 176.634 274.042 180.729C276.426 184.824 279.849 188.217 283.965 190.565C288.081 192.914 292.744 194.135 297.483 194.105C302.222 194.074 306.87 192.794 310.955 190.393L302.222 178.208Z" fill="#FFBF0D"/>
<path d="M59.6218 149.084C73.343 149.084 84.4662 137.964 84.4662 124.248C84.4662 110.531 73.343 99.4114 59.6218 99.4114C45.9006 99.4114 34.7773 110.531 34.7773 124.248C34.7773 137.964 45.9006 149.084 59.6218 149.084Z" fill="#EAF4FE"/>
<path d="M55.5547 113.096H57.5325V111.619H55.5547V113.096Z" fill="#C6E0F6" stroke="#F1D041" stroke-width="0.706948" stroke-miterlimit="10"/>
<path d="M56.2012 112.34H58.8234V110.874H56.2012V112.34Z" fill="#0F69C8" stroke="#0F69C8" stroke-width="0.339702" stroke-miterlimit="10"/>
<path d="M64.3208 135.589V117.906L46.3652 121.382V135.622" fill="#B0CCF2"/>
<path d="M67.7766 135.588V111.608L58.7988 113.629V135.588" fill="white"/>
<path d="M67.7788 124.247L70.9788 125.092V135.588L67.2344 135.51L67.7788 124.247Z" fill="#C6E0F6"/>
<path d="M67.7766 135.588V111.608L58.7988 113.629V135.588" fill="#3865B1"/>
<path d="M73.0983 136.988H44.6094" stroke="#0F69C8" stroke-width="0.339702" stroke-miterlimit="10"/>
<path d="M44.6094 136.988V135.588H73.0205V136.988" fill="#155CA9"/>
<path d="M58.8223 113.629V110.042" stroke="#155CA9" stroke-width="0.495782" stroke-miterlimit="10"/>
<path d="M65.1991 114.784H60.5547V117.184H65.1991V114.784Z" fill="#B0CCF2"/>
<path d="M65.1991 118.427H60.5547V120.815H65.1991V118.427Z" fill="#B0CCF2"/>
<path d="M65.1991 122.048H60.5547V124.403H65.1991V122.048Z" fill="#B0CCF2"/>
<path d="M65.1991 125.692H60.5547V128.08H65.1991V125.692Z" fill="#B0CCF2"/>
<path d="M67.7786 114.784H66.4453V117.184H67.7786V114.784Z" fill="#B0CCF2"/>
<path d="M67.7786 118.427H66.4453V120.815H67.7786V118.427Z" fill="#B0CCF2"/>
<path d="M67.7786 122.048H66.4453V124.403H67.7786V122.048Z" fill="#B0CCF2"/>
<path d="M67.7786 125.692H66.4453V128.08H67.7786V125.692Z" fill="#B0CCF2"/>
<path d="M66.0788 133.478H60.9121V135.589H66.0788V133.478Z" fill="#B0CCF2"/>
<path d="M49.5098 129.279H51.4875V127.813H49.5098V129.279Z" fill="#C6E0F6" stroke="#F1D041" stroke-width="0.706948" stroke-miterlimit="10"/>
<path d="M50.2109 128.546H52.8109V127.069H50.2109V128.546Z" fill="#0F69C8" stroke="#0F69C8" stroke-width="0.339702" stroke-miterlimit="10"/>
<path d="M52.8125 135.588V126.514" stroke="#155CA9" stroke-width="0.495782" stroke-miterlimit="10"/>
<path d="M51.3457 125.514H53.3346V124.048H51.3457V125.514Z" fill="#C6E0F6" stroke="#F1D041" stroke-width="0.706948" stroke-miterlimit="10"/>
<path d="M52.0234 124.814H54.6457V123.293H52.0234V124.814Z" fill="#0F69C8" stroke="#0F69C8" stroke-width="0.339702" stroke-miterlimit="10"/>
<path d="M54.6445 135.588V122.771" stroke="#155CA9" stroke-width="0.495782" stroke-miterlimit="10"/>
<path d="M47.8809 132.889H49.8475V131.412H47.8809V132.889Z" fill="#C6E0F6" stroke="#F1D041" stroke-width="0.706948" stroke-miterlimit="10"/>
<path d="M48.5332 132.179H51.111V130.701H48.5332V132.179Z" fill="#0F69C8" stroke="#0F69C8" stroke-width="0.339702" stroke-miterlimit="10"/>
<path d="M51.1113 135.588V130.101" stroke="#155CA9" stroke-width="0.495782" stroke-miterlimit="10"/>
<path d="M58.6553 33.7334H24.7441V65.945H58.6553V33.7334Z" fill="#2A66C4"/>
<path d="M32.6442 46.5736C32.3597 46.5679 32.0768 46.6169 31.8109 46.718C31.5474 46.8176 31.3087 46.9729 31.1109 47.1734C30.9168 47.3726 30.7655 47.6094 30.6661 47.8691C30.5668 48.1288 30.5215 48.4061 30.5331 48.684C30.5213 48.9635 30.5664 49.2425 30.6658 49.5041C30.7651 49.7657 30.9165 50.0044 31.1109 50.2057C31.3123 50.4096 31.5547 50.5686 31.822 50.6722C32.0855 50.7819 32.3702 50.8313 32.6553 50.8166C32.9403 50.8302 33.2248 50.7809 33.4886 50.6722C33.7473 50.5697 33.9819 50.4146 34.1775 50.2168C34.3676 50.017 34.5165 49.7818 34.6156 49.5245C34.7148 49.2672 34.7622 48.9929 34.7553 48.7173C34.7651 48.1514 34.5584 47.6032 34.1775 47.1845C33.9793 46.987 33.7456 46.8287 33.4886 46.718C33.2227 46.6169 32.9398 46.5679 32.6553 46.5736" fill="white"/>
<path d="M44.6679 53.549H41.6901V58.5585H38.0234V41.3641H44.6901C48.9864 41.3641 51.1345 43.3524 51.1345 47.3288C51.1915 48.1722 51.075 49.0183 50.7922 49.815C50.5093 50.6116 50.0662 51.3418 49.4901 51.9606C48.8347 52.5364 48.0698 52.9738 47.2411 53.2468C46.4125 53.5197 45.5372 53.6225 44.6679 53.549ZM41.6901 50.5611H44.6457C46.479 50.5611 47.3901 49.4504 47.3901 47.3288C47.4537 46.531 47.2158 45.7384 46.7234 45.1073C46.4479 44.8476 46.1199 44.6497 45.7615 44.5271C45.4031 44.4045 45.0227 44.36 44.6457 44.3965H41.6901V50.5611Z" fill="white"/>
<path d="M240.589 185.75L235.333 184.639L232.355 198.446L237.622 199.557L240.589 185.75Z" fill="#67ACF5"/>
<path d="M213.046 207.453L202.568 198.001L206.191 194.013L216.657 203.477L213.046 207.453Z" fill="#67ACF5"/>
<path d="M209.566 223.593L196.133 227.936L197.788 233.045L211.222 228.713L209.566 223.593Z" fill="#67ACF5"/>
<path d="M228.71 240.921L223.454 239.81L220.477 253.583L225.743 254.694L228.71 240.921Z" fill="#67ACF5"/>
<path d="M263.333 206.287L249.889 210.608L251.544 215.74L264.978 211.408L263.333 206.287Z" fill="#67ACF5"/>
<path d="M303.71 259.559L267.044 238.233L230.377 216.906L234.699 259.115L239.021 301.323L258.721 277.309L275.255 302.933L290.255 293.237L273.71 267.634L303.71 259.559Z" fill="#D68D21"/>
<path d="M266.989 238.233L230.322 216.906L230.456 218.317L282.222 298.457L290.3 293.214L273.756 267.612L303.756 259.559L266.989 238.233Z" fill="#FDCA2F"/>
<path d="M226.908 34.433H67.1191V37.8096H226.908V34.433Z" fill="#9AC7F7"/>
<path d="M187.086 39.665H67.1191V43.0417H187.086V39.665Z" fill="#9AC7F7"/>
<path d="M131.764 45.7627H67.1191V49.1394H131.764V45.7627Z" fill="#9AC7F7"/>
</g>
<defs>
<clipPath id="clip0_13760_306240">
<rect width="370" height="302.978" fill="white"/>
</clipPath>
</defs>
</svg>
