<svg width="371" height="282" viewBox="0 0 371 282" fill="none" xmlns="http://www.w3.org/2000/svg">
<path d="M331.75 192.226V41.9781C331.746 40.1039 331.003 38.3076 329.685 36.9824C328.366 35.6573 326.579 34.9113 324.715 34.9077H82.0164C80.1516 34.91 78.3638 35.6555 77.045 36.9809C75.7263 38.3064 74.9842 40.1035 74.9814 41.9781V192.226H331.75Z" fill="#0058B0"/>
<path d="M74.4717 192.508V214.236C74.4739 216.246 75.2699 218.173 76.6847 219.593C78.0995 221.013 80.0173 221.81 82.0164 221.808H324.715C326.712 221.808 328.628 221.009 330.04 219.59C331.452 218.17 332.246 216.244 332.247 214.236V192.508H74.4717Z" fill="#C5E1F9"/>
<path d="M247.761 253.805C247.761 253.805 245.893 252.887 243.743 252.072C241.456 251.206 238.703 250.122 237.079 249.342C234.244 247.97 233.998 247.069 232.936 242.398C231.779 237.288 230.686 226.509 230.25 221.808H176.49C176.044 226.509 174.953 237.288 173.8 242.398C172.736 247.069 172.496 247.97 169.655 249.342C168.041 250.118 165.342 251.185 163.064 252.05C160.883 252.871 159.106 253.506 159.106 253.506C159.106 253.506 157.37 254.474 160.149 254.61H246.585C249.192 254.664 247.761 253.805 247.761 253.805Z" fill="#C5E1F9"/>
<path d="M230.817 227.489C230.576 225.251 230.374 223.245 230.247 221.808H176.477C176.346 223.245 176.149 225.251 175.911 227.489H230.817Z" fill="#9AC7F7"/>
<path d="M121.096 192.226H174.538L272.213 34.9076H218.786L121.096 192.226Z" fill="#1F62B2"/>
<path d="M189.806 192.226H209.312L306.984 34.9076H287.48L189.806 192.226Z" fill="#1F62B2"/>
<path d="M319.856 46.5297H86.957V178.37H319.856V46.5297Z" fill="#C5E1F9"/>
<path d="M357.649 208.795L357.65 197.815L351.894 196.578C351.564 194.98 351.123 193.407 350.573 191.871L354.805 188.031L349.345 178.521L343.735 180.342C342.655 179.128 341.492 177.991 340.254 176.94L342.014 171.47L332.556 165.979L328.607 170.373C327.067 169.865 325.494 169.465 323.899 169.177L322.702 163.56H311.781L310.547 169.347C308.958 169.678 307.393 170.121 305.866 170.674L302.042 166.418L292.585 171.908L294.397 177.548C293.191 178.634 292.06 179.802 291.013 181.044L285.573 179.277L280.11 188.787L284.481 192.757C283.976 194.304 283.579 195.886 283.292 197.489L277.705 198.695L277.703 209.674L283.459 210.913C283.789 212.51 284.23 214.082 284.779 215.617L280.547 219.464L286.008 228.971L291.619 227.149C292.699 228.362 293.861 229.499 295.097 230.551L293.339 236.021L302.798 241.509L306.744 237.116C308.284 237.624 309.857 238.024 311.452 238.312L312.652 243.93H323.572L324.806 238.144C326.396 237.813 327.961 237.37 329.489 236.818L333.31 241.07L342.769 235.584L340.957 229.942C342.164 228.856 343.295 227.688 344.342 226.446L349.781 228.212L355.241 218.703L350.872 214.735C351.378 213.186 351.776 211.604 352.063 210L357.649 208.795ZM336.024 203.746C336.024 207.394 334.948 210.96 332.932 213.994C330.916 217.027 328.05 219.391 324.698 220.787C321.345 222.183 317.656 222.548 314.097 221.836C310.538 221.125 307.269 219.368 304.703 216.788C302.137 214.209 300.39 210.922 299.682 207.344C298.974 203.766 299.337 200.058 300.726 196.687C302.114 193.317 304.466 190.436 307.483 188.409C310.501 186.383 314.048 185.301 317.677 185.301C320.086 185.301 322.472 185.778 324.698 186.705C326.924 187.632 328.947 188.991 330.651 190.703C332.354 192.416 333.706 194.45 334.628 196.688C335.55 198.925 336.025 201.324 336.024 203.746H336.024Z" fill="#7EB3FF"/>
<path d="M342.934 204.018C342.934 208.882 341.5 213.637 338.812 217.681C336.124 221.725 332.304 224.878 327.834 226.739C323.364 228.6 318.445 229.087 313.7 228.138C308.955 227.189 304.596 224.846 301.175 221.407C297.755 217.967 295.425 213.585 294.482 208.814C293.539 204.044 294.024 199.099 295.876 194.606C297.729 190.112 300.865 186.272 304.888 183.571C308.912 180.869 313.641 179.428 318.48 179.43C321.691 179.43 324.872 180.066 327.839 181.301C330.806 182.537 333.502 184.348 335.773 186.632C338.044 188.915 339.845 191.626 341.074 194.609C342.303 197.592 342.935 200.789 342.934 204.018Z" fill="#FFCC00"/>
<path d="M342.189 204.02C342.19 208.736 340.799 213.346 338.194 217.268C335.588 221.189 331.884 224.246 327.551 226.051C323.217 227.856 318.448 228.328 313.847 227.409C309.247 226.489 305.021 224.218 301.704 220.883C298.387 217.549 296.128 213.3 295.213 208.675C294.298 204.049 294.768 199.255 296.564 194.899C298.36 190.542 301.4 186.819 305.301 184.199C309.202 181.58 313.788 180.183 318.479 180.184C324.767 180.185 330.797 182.696 335.243 187.166C339.69 191.636 342.188 197.699 342.189 204.02Z" fill="#D98F00"/>
<path d="M337.153 204.017C337.154 207.731 336.059 211.361 334.007 214.449C331.955 217.536 329.038 219.943 325.626 221.364C322.213 222.786 318.458 223.158 314.835 222.433C311.212 221.709 307.885 219.921 305.273 217.295C302.661 214.67 300.882 211.324 300.162 207.682C299.441 204.04 299.811 200.265 301.225 196.834C302.638 193.404 305.032 190.471 308.104 188.409C311.175 186.346 314.786 185.245 318.48 185.245C323.432 185.246 328.181 187.224 331.682 190.745C335.184 194.265 337.152 199.039 337.153 204.017Z" fill="#FFCC00"/>
<path d="M309.156 201.177H311.219C311.346 200.054 311.649 198.959 312.116 197.932C312.55 196.965 313.147 196.081 313.88 195.318C314.604 194.572 315.473 193.983 316.433 193.589C317.483 193.167 318.606 192.957 319.736 192.973C321.717 192.874 323.663 193.523 325.192 194.792C326.633 196.165 327.494 198.042 327.597 200.035H323.861C323.782 198.928 323.316 197.885 322.545 197.091C321.78 196.391 320.77 196.023 319.736 196.069C319.135 196.035 318.535 196.142 317.982 196.382C317.429 196.621 316.94 196.987 316.552 197.45C315.741 198.534 315.25 199.825 315.135 201.177H321.29L320.933 203.069H315.044V205.113H320.544L320.215 207.006H315.135C315.235 208.33 315.735 209.592 316.567 210.624C316.975 211.06 317.472 211.4 318.025 211.621C318.578 211.842 319.172 211.938 319.765 211.903C322.256 211.903 323.701 210.451 324.1 207.546H327.806C327.663 209.635 326.777 211.602 325.311 213.089C323.772 214.458 321.759 215.165 319.707 215.057C318.573 215.076 317.446 214.872 316.39 214.456C315.441 214.074 314.577 213.507 313.848 212.788C313.117 212.056 312.524 211.196 312.099 210.25C311.638 209.222 311.341 208.127 311.219 207.006H309.156V205.113H311.129V203.069H309.156L309.156 201.177Z" fill="#D98F00"/>
<path d="M320.035 64.0906H207.831V158.945H320.035V64.0906Z" fill="#EAF4FE"/>
<path d="M320.035 64.0906H207.831V73.0634H320.035V64.0906Z" fill="#0058B0"/>
<path d="M320.035 66.6543H253.732V70.4997H320.035V66.6543Z" fill="white"/>
<path d="M214.67 68.6857C214.67 69.0455 214.564 69.3972 214.365 69.6963C214.167 69.9955 213.884 70.2287 213.554 70.3665C213.223 70.5043 212.859 70.5405 212.508 70.4705C212.157 70.4005 211.835 70.2274 211.582 69.9732C211.328 69.719 211.156 69.395 211.086 69.0423C211.016 68.6895 211.051 68.3237 211.188 67.9913C211.325 67.6588 211.556 67.3745 211.854 67.1744C212.151 66.9742 212.501 66.8672 212.858 66.8668C213.339 66.8666 213.799 67.0581 214.139 67.3992C214.478 67.7403 214.67 68.2031 214.67 68.6857Z" fill="#D98F00"/>
<path d="M220.4 68.6858C220.4 69.0452 220.294 69.3965 220.095 69.6952C219.896 69.994 219.614 70.2269 219.284 70.3645C218.954 70.502 218.59 70.5381 218.239 70.468C217.889 70.398 217.567 70.2251 217.314 69.9712C217.061 69.7172 216.888 69.3935 216.818 69.0411C216.748 68.6887 216.784 68.3233 216.92 67.9911C217.056 67.6589 217.288 67.3747 217.585 67.1746C217.882 66.9745 218.231 66.8674 218.589 66.8668C219.069 66.8669 219.529 67.0585 219.869 67.3995C220.208 67.7406 220.399 68.2032 220.4 68.6858Z" fill="#FFCC00"/>
<path d="M226.128 68.6858C226.128 69.0456 226.022 69.3974 225.823 69.6966C225.624 69.9958 225.342 70.229 225.011 70.3667C224.68 70.5045 224.317 70.5406 223.966 70.4704C223.614 70.4002 223.292 70.227 223.039 69.9726C222.786 69.7182 222.613 69.394 222.544 69.0411C222.474 68.6882 222.51 68.3224 222.647 67.9899C222.783 67.6575 223.015 67.3734 223.313 67.1734C223.611 66.9735 223.96 66.8668 224.318 66.8668C224.798 66.8674 225.258 67.0592 225.597 67.4002C225.936 67.7412 226.127 68.2035 226.128 68.6858Z" fill="#7EB3FF"/>
<path d="M319.855 130.833H219.127V131.108H319.855V130.833Z" fill="#9AC7F7"/>
<path d="M319.855 114.419H219.127V114.696H319.855V114.419Z" fill="#9AC7F7"/>
<path d="M319.855 98.0061H219.127V98.2846H319.855V98.0061Z" fill="#9AC7F7"/>
<path d="M320.036 96.777L317.653 95.3044L303.186 101.045L289.253 91.2038L278.432 100.579L266.136 101.373L258.076 88.637L248.683 84.2793L238.919 92.5849L229.437 92.2022L219.358 101.209L218.605 100.354L229.024 91.0386L238.525 91.4232L248.501 82.933L258.857 87.7362L266.738 100.188L277.979 99.4592L289.18 89.7513L303.337 99.7559L317.728 94.0471L320.036 95.4952V96.777Z" fill="#0561FC"/>
<path d="M216.066 130.399H210.775V131.542H216.066V130.399Z" fill="#9AC7F7"/>
<path d="M216.066 113.983H210.775V115.128H216.066V113.983Z" fill="#9AC7F7"/>
<path d="M216.066 97.5723H210.775V98.7182H216.066V97.5723Z" fill="#9AC7F7"/>
<path d="M291.575 124.649L279.908 123.457L268.62 119.295L256.326 119.683L249.078 112.006L236.406 110.187L230.757 122.682L219.054 124.251L218.904 123.115L229.984 121.63L235.721 108.934L249.628 110.93L256.803 118.523L268.809 118.144L280.233 122.356L291.412 123.483L298.73 120.537L307.043 109.39L314.867 119.224L318.926 118.2L320.036 116.645V118.2L319.489 119.24L314.436 120.512L307.073 111.259L299.446 121.481L291.575 124.649Z" fill="#D98F00"/>
<path d="M240.261 119.857L230.273 111.748L218.82 116.575L218.378 115.521L230.46 110.425L240.217 118.349L257.204 102.786L269.686 107.883L282.546 116.367L287.733 106.432L293.719 101.916L301.149 89.7281L310.127 94.281L317.51 102.071L320.062 101.497V102.545L317.112 103.311L309.37 95.1431L301.574 91.2251L294.49 102.768L288.521 107.27L282.976 118.021L269.157 108.892L257.445 104.12L240.261 119.857Z" fill="#7EB3FF"/>
<path d="M232.078 110.992C232.078 111.313 231.984 111.626 231.807 111.893C231.63 112.159 231.378 112.367 231.084 112.49C230.789 112.613 230.465 112.645 230.153 112.583C229.84 112.52 229.553 112.366 229.327 112.14C229.101 111.913 228.947 111.625 228.885 111.311C228.822 110.996 228.854 110.671 228.975 110.374C229.097 110.078 229.303 109.825 229.568 109.646C229.833 109.468 230.144 109.372 230.463 109.371C230.891 109.371 231.301 109.542 231.604 109.846C231.907 110.15 232.078 110.562 232.078 110.992Z" fill="#7EB3FF"/>
<path d="M241.758 118.912C241.758 119.232 241.663 119.545 241.486 119.812C241.309 120.078 241.057 120.286 240.762 120.408C240.468 120.531 240.144 120.563 239.831 120.5C239.518 120.437 239.231 120.283 239.006 120.056C238.781 119.83 238.627 119.541 238.565 119.227C238.503 118.912 238.535 118.587 238.657 118.291C238.779 117.995 238.986 117.742 239.251 117.564C239.516 117.386 239.827 117.291 240.146 117.291C240.358 117.29 240.568 117.332 240.763 117.413C240.959 117.495 241.137 117.614 241.287 117.765C241.437 117.916 241.555 118.094 241.636 118.291C241.717 118.488 241.758 118.699 241.758 118.912Z" fill="#7EB3FF"/>
<path d="M259.033 103.552C259.033 103.873 258.939 104.187 258.761 104.454C258.584 104.721 258.331 104.929 258.036 105.052C257.741 105.175 257.416 105.207 257.103 105.144C256.79 105.081 256.502 104.927 256.276 104.699C256.051 104.472 255.897 104.183 255.835 103.868C255.772 103.553 255.805 103.227 255.927 102.93C256.049 102.633 256.256 102.38 256.522 102.202C256.788 102.023 257.1 101.928 257.419 101.929C257.847 101.929 258.258 102.1 258.56 102.405C258.863 102.709 259.033 103.122 259.033 103.552Z" fill="#7EB3FF"/>
<path d="M271.182 108.224C271.182 108.545 271.087 108.858 270.91 109.125C270.732 109.391 270.481 109.599 270.186 109.721C269.891 109.844 269.567 109.876 269.254 109.814C268.941 109.751 268.654 109.597 268.429 109.37C268.203 109.143 268.049 108.855 267.987 108.54C267.925 108.226 267.957 107.9 268.079 107.604C268.201 107.307 268.407 107.054 268.672 106.876C268.937 106.698 269.249 106.602 269.568 106.602C269.78 106.602 269.99 106.644 270.186 106.725C270.382 106.806 270.56 106.926 270.709 107.076C270.859 107.227 270.978 107.406 271.059 107.603C271.14 107.8 271.182 108.011 271.182 108.224Z" fill="#7EB3FF"/>
<path d="M284.28 117.099C284.28 117.42 284.186 117.734 284.009 118.001C283.832 118.268 283.58 118.476 283.285 118.599C282.99 118.722 282.666 118.754 282.352 118.692C282.039 118.629 281.752 118.475 281.526 118.248C281.3 118.021 281.146 117.732 281.084 117.417C281.021 117.103 281.053 116.776 281.175 116.48C281.298 116.183 281.504 115.93 281.77 115.752C282.035 115.573 282.347 115.478 282.666 115.478C283.094 115.478 283.504 115.649 283.807 115.953C284.11 116.257 284.28 116.669 284.28 117.099Z" fill="#7EB3FF"/>
<path d="M289.595 106.889C289.595 107.21 289.5 107.524 289.323 107.792C289.146 108.059 288.893 108.267 288.598 108.39C288.303 108.513 287.978 108.545 287.665 108.483C287.351 108.42 287.064 108.265 286.838 108.038C286.612 107.811 286.458 107.521 286.396 107.206C286.334 106.891 286.366 106.564 286.489 106.268C286.611 105.971 286.819 105.717 287.085 105.539C287.351 105.361 287.663 105.267 287.983 105.267C288.195 105.267 288.404 105.309 288.6 105.39C288.796 105.472 288.974 105.591 289.123 105.742C289.273 105.893 289.392 106.071 289.473 106.268C289.554 106.465 289.595 106.676 289.595 106.889Z" fill="#7EB3FF"/>
<path d="M295.954 102.214C295.954 102.535 295.859 102.848 295.682 103.115C295.505 103.381 295.253 103.589 294.958 103.711C294.663 103.834 294.339 103.866 294.026 103.803C293.714 103.741 293.426 103.586 293.201 103.36C292.975 103.133 292.822 102.844 292.76 102.53C292.697 102.215 292.729 101.889 292.851 101.593C292.973 101.297 293.18 101.044 293.445 100.866C293.71 100.687 294.021 100.592 294.34 100.592C294.552 100.592 294.762 100.633 294.958 100.715C295.154 100.796 295.332 100.915 295.482 101.066C295.632 101.217 295.751 101.396 295.832 101.593C295.913 101.79 295.954 102.001 295.954 102.214Z" fill="#7EB3FF"/>
<path d="M302.786 90.6677C302.786 90.9882 302.691 91.3014 302.514 91.5678C302.337 91.8342 302.085 92.0419 301.791 92.1646C301.496 92.2872 301.172 92.3193 300.86 92.2568C300.547 92.1943 300.26 92.04 300.035 91.8135C299.809 91.5869 299.656 91.2983 299.594 90.984C299.531 90.6698 299.563 90.344 299.685 90.048C299.807 89.7519 300.014 89.4989 300.279 89.3208C300.544 89.1428 300.855 89.0477 301.174 89.0477C301.386 89.0475 301.595 89.0894 301.791 89.1707C301.986 89.2521 302.164 89.3714 302.314 89.5219C302.463 89.6724 302.582 89.851 302.663 90.0476C302.744 90.2442 302.786 90.4549 302.786 90.6677Z" fill="#7EB3FF"/>
<path d="M311.712 94.6739C311.712 94.9946 311.617 95.3081 311.44 95.5748C311.263 95.8415 311.011 96.0494 310.717 96.1723C310.422 96.2952 310.098 96.3276 309.785 96.2653C309.472 96.203 309.184 96.0489 308.958 95.8224C308.733 95.5959 308.579 95.3072 308.516 94.9928C308.453 94.6784 308.485 94.3523 308.606 94.0558C308.728 93.7593 308.934 93.5056 309.199 93.3269C309.464 93.1482 309.775 93.0523 310.094 93.0516C310.523 93.0511 310.934 93.2218 311.237 93.526C311.54 93.8302 311.711 94.2431 311.712 94.6739Z" fill="#7EB3FF"/>
<path d="M318.921 102.693C318.921 103.014 318.826 103.327 318.648 103.594C318.471 103.861 318.218 104.068 317.923 104.191C317.628 104.313 317.304 104.345 316.991 104.282C316.678 104.219 316.39 104.065 316.165 103.837C315.939 103.61 315.786 103.321 315.724 103.006C315.662 102.692 315.694 102.365 315.817 102.069C315.939 101.773 316.147 101.52 316.412 101.342C316.678 101.164 316.99 101.069 317.309 101.069C317.521 101.069 317.731 101.11 317.927 101.192C318.123 101.273 318.301 101.393 318.451 101.544C318.601 101.695 318.72 101.874 318.8 102.071C318.881 102.268 318.922 102.48 318.921 102.693Z" fill="#7EB3FF"/>
<path d="M250.777 139.712H227.127V140.932H250.777V139.712Z" fill="#9AC7F7"/>
<path d="M250.777 143.296H227.127V144.514H250.777V143.296Z" fill="#9AC7F7"/>
<path d="M244.097 146.877H227.127V148.095H244.097V146.877Z" fill="#9AC7F7"/>
<path d="M283.496 139.712H259.844V140.932H283.496V139.712Z" fill="#9AC7F7"/>
<path d="M283.496 143.296H259.844V144.513H283.496V143.296Z" fill="#9AC7F7"/>
<path d="M276.814 146.877H259.844V148.095H276.814V146.877Z" fill="#9AC7F7"/>
<path d="M258.461 139.163H255.693V141.482H258.461V139.163Z" fill="#7EB3FF"/>
<path d="M224.8 139.163H222.032V141.482H224.8V139.163Z" fill="#7EB3FF"/>
<path d="M316.211 139.712H292.562V140.932H316.211V139.712Z" fill="#9AC7F7"/>
<path d="M316.211 143.296H292.562V144.514H316.211V143.296Z" fill="#9AC7F7"/>
<path d="M309.532 146.877H292.562V148.095H309.532V146.877Z" fill="#9AC7F7"/>
<path d="M291.179 139.163H288.412V141.482H291.179V139.163Z" fill="#0561FC"/>
<path d="M131.722 147.566H144.396C147.486 147.566 150.449 146.332 152.635 144.136C154.82 141.939 156.047 138.959 156.047 135.853C156.047 132.746 154.82 129.767 152.635 127.57C150.449 125.373 147.486 124.139 144.396 124.139H131.722V147.566Z" fill="#D98F00"/>
<path d="M144.395 147.566H13.5103V147.603L11.5627 147.566C8.70475 147.574 5.94888 148.635 3.81766 150.55C1.68643 152.464 0.328024 155.098 0 157.952C0 161.137 0.0200919 261.773 0 266.985C0.32897 264.134 1.68865 261.504 3.82052 259.595C5.95238 257.685 8.70776 256.631 11.5627 256.63H14.2228V256.587H144.395C147.249 256.588 150.004 255.534 152.136 253.627C154.268 251.72 155.629 249.091 155.96 246.241C155.96 243.051 155.942 142.42 155.96 137.209C155.629 140.06 154.269 142.69 152.137 144.599C150.005 146.508 147.25 147.564 144.395 147.566Z" fill="#EAF4FE"/>
<path d="M139.293 203.268H15.0801V205.491H139.293V203.268Z" fill="#0066CC"/>
<path d="M21.1589 204.38C21.1588 206.128 20.6431 207.837 19.6769 209.291C18.7106 210.744 17.3373 211.877 15.7306 212.546C14.1239 213.215 12.3559 213.391 10.6502 213.049C8.9445 212.708 7.37771 211.867 6.14795 210.63C4.91818 209.394 4.08067 207.819 3.74131 206.104C3.40195 204.39 3.57599 202.612 4.24141 200.997C4.90683 199.382 6.03376 198.001 7.4797 197.029C8.92563 196.058 10.6256 195.539 12.3647 195.539C13.5197 195.539 14.6634 195.767 15.7305 196.211C16.7976 196.655 17.7672 197.307 18.5839 198.128C19.4006 198.949 20.0484 199.923 20.4902 200.996C20.9321 202.069 21.1593 203.219 21.1589 204.38Z" fill="#EAF4FE"/>
<path d="M12.3648 214.328C10.4072 214.327 8.4939 213.743 6.86667 212.649C5.23944 211.555 3.9714 210.001 3.22288 208.182C2.47437 206.364 2.279 204.363 2.66148 202.433C3.04396 200.503 3.98711 198.731 5.37168 197.34C6.75624 195.948 8.52004 195.001 10.44 194.618C12.36 194.234 14.35 194.432 16.1584 195.185C17.9667 195.939 19.5122 197.215 20.5994 198.851C21.6866 200.488 22.2667 202.411 22.2663 204.379C22.2629 207.018 21.2184 209.547 19.3621 211.412C17.5058 213.277 14.9893 214.326 12.3648 214.328ZM12.3648 196.648C10.8444 196.648 9.35828 197.102 8.09426 197.951C6.83023 198.8 5.84506 200.007 5.26331 201.419C4.68155 202.831 4.52934 204.385 4.8259 205.884C5.12247 207.383 5.8545 208.76 6.92944 209.841C8.00438 210.922 9.37398 211.658 10.8651 211.957C12.3561 212.255 13.9018 212.102 15.3065 211.518C16.7113 210.933 17.9121 209.943 18.7571 208.672C19.6021 207.402 20.0534 205.908 20.054 204.379C20.0525 202.33 19.242 200.364 17.8003 198.915C16.3587 197.465 14.4038 196.65 12.3648 196.648Z" fill="#0066CC"/>
<path d="M125.585 204.38C125.585 206.128 125.069 207.837 124.102 209.291C123.136 210.745 121.763 211.878 120.156 212.547C118.549 213.216 116.781 213.391 115.075 213.049C113.37 212.708 111.803 211.866 110.573 210.63C109.343 209.393 108.506 207.818 108.167 206.103C107.828 204.388 108.002 202.611 108.668 200.996C109.333 199.38 110.461 198 111.907 197.029C113.353 196.057 115.053 195.539 116.792 195.539C117.947 195.539 119.091 195.768 120.157 196.212C121.224 196.656 122.194 197.308 123.01 198.129C123.826 198.949 124.474 199.924 124.916 200.997C125.358 202.069 125.585 203.219 125.585 204.38Z" fill="#EAF4FE"/>
<path d="M116.792 214.328C114.835 214.328 112.921 213.744 111.293 212.651C109.665 211.557 108.397 210.003 107.648 208.185C106.899 206.367 106.703 204.366 107.085 202.436C107.467 200.505 108.41 198.732 109.794 197.341C111.179 195.949 112.942 195.002 114.862 194.618C116.783 194.234 118.773 194.432 120.581 195.185C122.39 195.939 123.936 197.214 125.023 198.851C126.11 200.487 126.69 202.411 126.69 204.379C126.686 207.017 125.642 209.545 123.787 211.41C121.931 213.275 119.416 214.324 116.792 214.328ZM116.792 196.648C115.272 196.648 113.786 197.101 112.521 197.95C111.257 198.799 110.271 200.006 109.689 201.418C109.107 202.83 108.955 204.384 109.251 205.883C109.547 207.382 110.279 208.759 111.354 209.84C112.429 210.921 113.798 211.658 115.289 211.956C116.781 212.255 118.326 212.102 119.731 211.518C121.136 210.933 122.337 209.943 123.182 208.673C124.027 207.402 124.479 205.908 124.479 204.379C124.477 202.33 123.667 200.365 122.226 198.916C120.785 197.466 118.831 196.651 116.792 196.648Z" fill="#0066CC"/>
<path d="M91.9282 197.056H60.7764V211.701H91.9282V197.056Z" fill="#EAF4FE"/>
<path d="M93.0335 212.811H59.6699V195.944H93.0335V212.811ZM61.8803 210.589H90.8231V198.165H61.8803V210.589Z" fill="#0066CC"/>
<path d="M149.943 197.055H135.366V211.7H149.943V197.055Z" fill="#EAF4FE"/>
<path d="M149.647 212.811H132.858V195.944H149.647V212.811ZM135.069 210.589H147.436V198.165H135.069V210.589Z" fill="#0066CC"/>
<path fill-rule="evenodd" clip-rule="evenodd" d="M150.886 194.58H131.84V213.727H150.886V194.58Z" fill="#2A66C4"/>
<path fill-rule="evenodd" clip-rule="evenodd" d="M136.281 202.21C136.12 202.205 135.96 202.234 135.81 202.295C135.661 202.357 135.527 202.449 135.416 202.567C135.194 202.812 135.078 203.135 135.091 203.466C135.082 203.801 135.204 204.126 135.432 204.371C135.542 204.49 135.677 204.584 135.826 204.647C135.975 204.709 136.136 204.739 136.297 204.734C136.456 204.74 136.615 204.711 136.762 204.65C136.909 204.588 137.041 204.495 137.149 204.378C137.368 204.133 137.485 203.812 137.474 203.482C137.485 203.15 137.368 202.826 137.149 202.577C137.042 202.456 136.91 202.361 136.762 202.297C136.615 202.234 136.455 202.204 136.294 202.21" fill="white"/>
<path d="M143.032 206.359H141.357V209.334H139.296V199.111H143.032C145.445 199.111 146.651 200.294 146.651 202.658C146.651 203.853 146.342 204.77 145.724 205.411C145.107 206.052 144.209 206.368 143.032 206.359ZM141.357 204.584H143.019C144.046 204.584 144.557 203.93 144.557 202.658C144.603 202.176 144.47 201.694 144.183 201.305C144.031 201.154 143.848 201.039 143.647 200.966C143.446 200.893 143.232 200.865 143.019 200.883H141.357V204.584Z" fill="white"/>
<path d="M38.3682 191.811L25.8682 204.378L38.3687 216.945L50.8688 204.378L38.3682 191.811Z" fill="#EAF4FE"/>
<path d="M38.3681 218.516L24.3057 204.379L38.3681 190.24L52.4318 204.379L38.3681 218.516ZM27.431 204.379L38.3681 215.374L49.3065 204.379L38.3681 193.38L27.431 204.379Z" fill="#0066CC"/>
<path d="M62.7356 227.002H37.043V217.305H39.255V224.78H62.7356V227.002Z" fill="#0066CC"/>
<path d="M39.255 191.453H37.043V181.752H62.7356V183.975H39.255V191.453Z" fill="#0066CC"/>
<path d="M118.54 227.002H92.8486V224.78H116.329V212.859H118.54V227.002Z" fill="#0066CC"/>
<path d="M118.54 195.897H116.329V183.975H92.8486V181.752H118.54V195.897Z" fill="#0066CC"/>
<path d="M91.9282 176.316H60.7764V190.965H91.9282V176.316Z" fill="#EAF4FE"/>
<path d="M93.0335 192.076H59.6699V175.207H93.0335V192.076ZM61.8803 189.853H90.8231V177.429H61.8803V189.853Z" fill="#0066CC"/>
<path d="M91.9282 217.79H60.7764V232.437H91.9282V217.79Z" fill="#EAF4FE"/>
<path d="M93.0336 233.548H59.6699V216.681H93.0336V233.548ZM61.8803 231.325H90.8232V218.903H61.8803V231.325Z" fill="#0066CC"/>
<path d="M17.42 169.191H11.5627C8.70777 169.192 5.95227 168.137 3.82034 166.228C1.68841 164.319 0.328759 161.689 0 158.838C0.0200919 164.043 0 264.68 0 267.864C0.328757 270.715 1.68846 273.345 3.82045 275.253C5.95243 277.162 8.70793 278.216 11.5627 278.215H17.42V169.191Z" fill="#FFCC00"/>
<path d="M153.584 118.893H184.651C185.176 118.893 185.68 118.684 186.051 118.31C186.423 117.937 186.631 117.431 186.631 116.903C186.631 116.375 186.423 115.869 186.051 115.495C185.68 115.122 185.176 114.913 184.651 114.913H153.584C153.059 114.913 152.556 115.122 152.184 115.495C151.813 115.869 151.604 116.375 151.604 116.903C151.604 117.431 151.813 117.937 152.184 118.31C152.556 118.684 153.059 118.893 153.584 118.893Z" fill="#0058B0"/>
<path d="M130.439 38.8851C130.445 28.575 134.522 18.6889 141.776 11.4004C149.029 4.11187 158.865 0.0175171 169.121 0.0175171C179.377 0.0175171 189.212 4.11187 196.466 11.4004C203.72 18.6889 207.797 28.575 207.802 38.8851C207.802 40.1555 206.868 58.1238 192.296 76.9917C188.031 82.6865 188.735 94.129 188.774 94.129H149.363C149.4 94.129 150.187 82.6865 145.936 76.9917C131.348 58.1116 130.439 40.1555 130.439 38.8851Z" fill="#D98F00"/>
<path d="M156.71 89.0571C156.444 84.165 155.251 74.9427 152.235 70.9051C138.379 52.9675 137.757 35.9934 137.751 35.8259C137.753 26.8572 141.299 18.2568 147.609 11.9165C153.919 5.57622 162.475 2.01548 171.397 2.01761C180.318 2.01974 188.873 5.58455 195.18 11.9278C201.486 18.2711 205.028 26.8733 205.026 35.8419C205.022 35.9891 204.384 52.9755 190.587 70.8409C187.526 74.9247 186.29 84.1527 186.001 89.0571H156.71Z" fill="#FFCC00"/>
<path d="M199.586 41.9182C199.188 41.9188 198.794 41.8407 198.426 41.6881C198.057 41.5355 197.723 41.3115 197.441 41.0288C197.159 40.7462 196.936 40.4105 196.783 40.0409C196.63 39.6714 196.551 39.2751 196.551 38.8749C196.542 31.5635 193.648 24.5542 188.504 19.3854C183.36 14.2167 176.387 11.3107 169.114 11.3053C168.312 11.3053 167.542 10.9849 166.975 10.4146C166.408 9.8443 166.089 9.07078 166.089 8.26423C166.089 7.45768 166.408 6.68416 166.975 6.11385C167.542 5.54353 168.312 5.22313 169.114 5.22313C177.991 5.23064 186.502 8.77802 192.781 15.0869C199.059 21.3958 202.591 29.9508 202.603 38.8749C202.603 39.6804 202.286 40.4531 201.72 41.0237C201.155 41.5942 200.387 41.9159 199.586 41.9182Z" fill="#FFDD55"/>
<path d="M159.213 97.1379L154.194 57.0566L156.217 56.4478L161.231 96.529L159.213 97.1379Z" fill="#0058B0"/>
<path d="M178.91 97.1379L183.931 57.0566L181.91 56.4478L176.891 96.529L178.91 97.1379Z" fill="#0058B0"/>
<path d="M182.283 62.0762C180.891 62.0762 180.293 60.7129 179.851 59.7148C179.667 59.3072 179.285 58.4441 179.069 58.4441C178.848 58.4441 178.472 59.3072 178.289 59.7148C177.854 60.7129 177.248 62.0762 175.864 62.0762C174.474 62.0762 173.87 60.7129 173.432 59.7148C173.332 59.493 173.174 59.134 173.015 58.8518C172.305 60.1726 171.014 62.0762 169.444 62.0762C168.052 62.0762 167.45 60.7129 167.013 59.7148C166.828 59.3033 166.45 58.4441 166.233 58.4441C166.015 58.4441 165.633 59.3033 165.452 59.7148C165.01 60.7129 164.412 62.0762 163.024 62.0762C161.631 62.0762 161.028 60.7129 160.586 59.7148C160.406 59.3072 160.025 58.4441 159.806 58.4441C159.584 58.4441 159.206 59.3033 159.016 59.7148C158.584 60.7129 157.98 62.0762 156.59 62.0762V60.2571C156.805 60.2571 157.19 59.3982 157.371 58.9825C157.816 57.9882 158.42 56.6292 159.806 56.6292C161.196 56.6292 161.796 57.9882 162.235 58.9825C162.422 59.3982 162.805 60.2571 163.024 60.2571C163.234 60.2571 163.621 59.3982 163.804 58.9825C164.239 57.9882 164.843 56.6292 166.233 56.6292C167.619 56.6292 168.223 57.9882 168.662 58.9825C168.842 59.3982 169.224 60.2571 169.444 60.2571C169.974 60.2571 171.109 58.7852 171.828 57.1656C171.899 57.0059 172.015 56.8703 172.161 56.7751C172.307 56.68 172.478 56.6293 172.652 56.6292C174.042 56.6292 174.642 57.9882 175.081 58.9825C175.262 59.3982 175.643 60.2571 175.864 60.2571C176.074 60.2571 176.458 59.3982 176.64 58.9849C177.075 57.9882 177.685 56.6292 179.069 56.6292C180.461 56.6292 181.061 57.9882 181.496 58.9849C181.685 59.3982 182.066 60.2571 182.283 60.2571V62.0762Z" fill="#0058B0"/>
<path d="M188.813 94.3412V114.669C188.814 115.338 188.55 115.981 188.08 116.455C187.61 116.929 186.972 117.196 186.306 117.198H151.978C151.311 117.197 150.673 116.93 150.202 116.455C149.731 115.981 149.467 115.339 149.467 114.669V94.3412H188.813Z" fill="#0058B0"/>
<path d="M189.604 98.2934H148.634C148.373 98.2945 148.115 98.2439 147.873 98.1443C147.632 98.0447 147.413 97.8982 147.228 97.7132C147.043 97.5282 146.896 97.3082 146.796 97.0661C146.696 96.8239 146.645 96.5642 146.645 96.302C146.645 96.0397 146.696 95.78 146.796 95.5378C146.896 95.2957 147.043 95.0757 147.228 94.8907C147.413 94.7057 147.632 94.5592 147.873 94.4596C148.115 94.3601 148.373 94.3094 148.634 94.3106H189.604C190.13 94.3106 190.634 94.5204 191.005 94.8938C191.377 95.2673 191.585 95.7738 191.585 96.302C191.585 96.8301 191.377 97.3366 191.005 97.7101C190.634 98.0836 190.13 98.2934 189.604 98.2934Z" fill="#0058B0"/>
<path d="M171.494 97.2836H148.758C148.614 97.2842 148.47 97.2561 148.337 97.2009C148.203 97.1456 148.081 97.0644 147.979 96.9618C147.876 96.8592 147.795 96.7373 147.739 96.603C147.684 96.4687 147.655 96.3247 147.655 96.1793C147.655 96.0339 147.684 95.89 147.739 95.7557C147.795 95.6214 147.876 95.4995 147.979 95.3969C148.081 95.2943 148.203 95.213 148.337 95.1578C148.47 95.1026 148.614 95.0745 148.758 95.0751H171.494C171.786 95.0751 172.065 95.1914 172.271 95.3985C172.477 95.6056 172.593 95.8865 172.593 96.1793C172.593 96.4722 172.477 96.7531 172.271 96.9602C172.065 97.1673 171.786 97.2836 171.494 97.2836Z" fill="#4B96E1"/>
<path d="M189.604 104.94H148.634C148.373 104.941 148.114 104.89 147.873 104.791C147.631 104.691 147.411 104.544 147.226 104.359C147.041 104.174 146.895 103.954 146.794 103.711C146.694 103.469 146.643 103.209 146.643 102.946C146.643 102.684 146.694 102.424 146.794 102.182C146.895 101.939 147.041 101.719 147.226 101.534C147.411 101.349 147.631 101.202 147.873 101.102C148.114 101.003 148.373 100.952 148.634 100.953H189.604C190.13 100.953 190.635 101.163 191.006 101.537C191.378 101.911 191.587 102.418 191.587 102.946C191.587 103.475 191.378 103.982 191.006 104.356C190.635 104.73 190.13 104.94 189.604 104.94Z" fill="#0058B0"/>
<path d="M189.604 111.585H148.634C148.372 111.587 148.113 111.537 147.87 111.437C147.628 111.338 147.408 111.191 147.222 111.006C147.036 110.821 146.889 110.6 146.788 110.357C146.688 110.114 146.636 109.854 146.636 109.591C146.636 109.328 146.688 109.067 146.788 108.824C146.889 108.581 147.036 108.361 147.222 108.175C147.408 107.99 147.628 107.843 147.87 107.744C148.113 107.644 148.372 107.594 148.634 107.596H189.604C190.128 107.6 190.629 107.811 190.998 108.185C191.367 108.559 191.574 109.064 191.574 109.591C191.574 110.117 191.367 110.623 190.998 110.996C190.629 111.37 190.128 111.582 189.604 111.585Z" fill="#0058B0"/>
<path d="M171.494 103.621H148.758C148.613 103.622 148.47 103.593 148.336 103.538C148.202 103.483 148.08 103.402 147.978 103.299C147.875 103.196 147.794 103.074 147.738 102.94C147.683 102.806 147.654 102.662 147.654 102.516C147.654 102.371 147.683 102.227 147.738 102.092C147.794 101.958 147.875 101.836 147.978 101.733C148.08 101.63 148.202 101.549 148.336 101.494C148.47 101.439 148.613 101.411 148.758 101.411H171.494C171.785 101.411 172.065 101.528 172.271 101.735C172.477 101.942 172.593 102.223 172.593 102.516C172.593 102.809 172.477 103.09 172.271 103.297C172.065 103.505 171.785 103.621 171.494 103.621Z" fill="#4B96E1"/>
<path d="M171.494 110.339H148.758C148.467 110.339 148.187 110.222 147.98 110.015C147.774 109.807 147.658 109.526 147.658 109.232C147.658 108.939 147.774 108.658 147.98 108.45C148.187 108.243 148.467 108.126 148.758 108.126H171.494C171.786 108.126 172.066 108.243 172.272 108.45C172.479 108.658 172.595 108.939 172.595 109.232C172.595 109.526 172.479 109.807 172.272 110.015C172.066 110.222 171.786 110.339 171.494 110.339Z" fill="#4B96E1"/>
<path d="M174.242 98.3097H154.828V100.337H174.242V98.3097Z" fill="#1569BE"/>
<path d="M174.242 104.775H154.828V106.802H174.242V104.775Z" fill="#1569BE"/>
<path d="M174.242 111.238H154.828V113.267H174.242V111.238Z" fill="#1569BE"/>
<path d="M79.7344 281.891H84.4444V273.518H79.7344C79.6155 273.519 79.4979 273.543 79.3884 273.59C79.2789 273.636 79.1796 273.704 79.0962 273.789C79.0128 273.875 78.9469 273.975 78.9022 274.086C78.8575 274.197 78.835 274.316 78.836 274.435V280.971C78.8341 281.213 78.9276 281.445 79.0961 281.618C79.2645 281.79 79.494 281.888 79.7344 281.891Z" fill="#FF876C"/>
<path d="M79.8229 280.747H84.4446V277.19H79.8229C79.7053 277.194 79.5937 277.244 79.5121 277.329C79.4304 277.414 79.3851 277.528 79.3858 277.646V280.292C79.3846 280.35 79.395 280.409 79.4163 280.464C79.4376 280.518 79.4695 280.568 79.5101 280.611C79.5507 280.653 79.5992 280.687 79.6529 280.71C79.7066 280.734 79.7643 280.746 79.8229 280.747Z" fill="#FFA38F"/>
<path d="M84.4444 275.476V273.518H79.7344C79.6155 273.519 79.4979 273.543 79.3884 273.59C79.2789 273.636 79.1796 273.704 79.0962 273.789C79.0128 273.875 78.9469 273.975 78.9022 274.086C78.8575 274.197 78.835 274.316 78.836 274.435V275.476H84.4444Z" fill="#E36E54"/>
<path d="M100.359 282H232.705C232.645 281.51 232.427 281.054 232.086 280.7C231.745 280.346 231.298 280.113 230.813 280.038H100.359V282Z" fill="#0058B0"/>
<path d="M100.359 275.372V280.038H230.813L230.837 280.027L230.813 280.024C231.353 279.924 231.841 279.637 232.192 279.212C232.543 278.788 232.735 278.254 232.735 277.702C232.735 277.151 232.543 276.616 232.192 276.192C231.841 275.768 231.353 275.481 230.813 275.381L230.837 275.375L230.813 275.372H100.359Z" fill="#0066CC"/>
<path d="M230.813 275.372C231.297 275.296 231.744 275.063 232.085 274.71C232.426 274.356 232.644 273.901 232.705 273.412H100.359V275.372H230.813Z" fill="#0058B0"/>
<path d="M232.705 273.405C232.645 273.894 232.427 274.351 232.086 274.706C231.745 275.061 231.298 275.294 230.813 275.372L230.837 275.375L230.813 275.381C231.353 275.481 231.841 275.768 232.192 276.192C232.543 276.616 232.735 277.151 232.735 277.702C232.735 278.254 232.543 278.788 232.192 279.212C231.841 279.636 231.353 279.924 230.813 280.024L230.837 280.027L230.813 280.038C231.298 280.114 231.744 280.347 232.085 280.701C232.427 281.055 232.644 281.511 232.705 282L250.236 277.701L232.705 273.405Z" fill="#C5E1F9"/>
<path d="M232.705 273.405C232.645 273.894 232.427 274.351 232.086 274.706C231.745 275.061 231.298 275.294 230.813 275.372L230.837 275.375L230.813 275.381C231.893 275.528 250.236 277.701 250.236 277.701L232.705 273.405Z" fill="#9AC7F7"/>
<path d="M100.36 273.466H84.2725V281.956H100.36V273.466Z" fill="#D98F00"/>
<path d="M100.36 277.398H84.2764V279.138H100.36V277.398Z" fill="#F4DA80"/>
<path d="M244.948 276.408C244.893 276.813 244.862 277.221 244.855 277.63C244.858 278.089 244.897 278.546 244.972 278.998L250.236 277.701L244.948 276.408Z" fill="#0450CF"/>
<path d="M98.6728 281.187H96.3643V281.738H98.6728V281.187Z" fill="#F4DA80"/>
<path d="M98.6728 279.939H96.3643V280.486H98.6728V279.939Z" fill="#F4DA80"/>
<path d="M98.6728 278.689H96.3643V279.233H98.6728V278.689Z" fill="#D98F00"/>
<path d="M98.6728 277.443H96.3643V277.993H98.6728V277.443Z" fill="#D98F00"/>
<path d="M98.6728 276.194H96.3643V276.736H98.6728V276.194Z" fill="#F4DA80"/>
<path d="M98.6728 274.942H96.3643V275.486H98.6728V274.942Z" fill="#F4DA80"/>
<path d="M98.6728 273.697H96.3643V274.242H98.6728V273.697Z" fill="#F4DA80"/>
<path d="M88.8174 281.188H86.498V281.738H88.8174V281.188Z" fill="#F4DA80"/>
<path d="M88.8174 279.939H86.498V280.486H88.8174V279.939Z" fill="#F4DA80"/>
<path d="M88.8174 278.689H86.498V279.233H88.8174V278.689Z" fill="#D98F00"/>
<path d="M88.8174 277.443H86.498V277.993H88.8174V277.443Z" fill="#D98F00"/>
<path d="M88.8174 276.194H86.498V276.736H88.8174V276.194Z" fill="#F4DA80"/>
<path d="M88.8174 274.942H86.498V275.486H88.8174V274.942Z" fill="#F4DA80"/>
<path d="M88.8174 273.697H86.498V274.242H88.8174V273.697Z" fill="#F4DA80"/>
</svg>
