<svg width="340" height="232" viewBox="0 0 340 232" fill="none" xmlns="http://www.w3.org/2000/svg">
<path d="M339.999 186.581L340 174.149L333.104 172.749C332.71 170.939 332.181 169.158 331.522 167.419L336.593 163.071L330.05 152.303L323.331 154.366C322.037 152.991 320.643 151.703 319.16 150.513L321.268 144.319L309.938 138.103L305.207 143.078C303.362 142.502 301.478 142.05 299.567 141.723L298.133 135.363H285.049L283.572 141.916C281.667 142.29 279.793 142.793 277.963 143.419L273.382 138.6L262.053 144.816L264.223 151.201C262.778 152.431 261.424 153.754 260.169 155.16L253.652 153.159L247.108 163.928L252.344 168.422C251.739 170.174 251.263 171.965 250.92 173.78L244.226 175.146L244.224 187.577L251.12 188.98C251.515 190.788 252.043 192.568 252.701 194.306L247.631 198.662L254.173 209.426L260.895 207.363C262.189 208.737 263.581 210.024 265.062 211.215L262.956 217.409L274.287 223.623L279.016 218.648C280.86 219.224 282.745 219.676 284.655 220.003L286.093 226.364H299.175L300.653 219.812C302.558 219.437 304.433 218.936 306.263 218.311L310.841 223.125L322.173 216.914L320.003 210.526C321.448 209.296 322.803 207.974 324.057 206.567L330.573 208.567L337.114 197.801L331.88 193.307C332.486 191.554 332.963 189.762 333.307 187.946L339.999 186.581ZM314.093 180.865C314.093 184.996 312.804 189.034 310.388 192.468C307.973 195.902 304.54 198.579 300.524 200.16C296.507 201.74 292.088 202.154 287.824 201.348C283.56 200.542 279.644 198.553 276.57 195.632C273.496 192.712 271.403 188.99 270.555 184.939C269.706 180.888 270.142 176.689 271.805 172.873C273.469 169.056 276.286 165.795 279.901 163.5C283.515 161.205 287.765 159.98 292.112 159.98C294.999 159.98 297.857 160.52 300.524 161.57C303.191 162.619 305.614 164.158 307.655 166.097C309.696 168.036 311.315 170.339 312.42 172.873C313.524 175.407 314.093 178.123 314.093 180.865H314.093Z" fill="#7EB3FF"/>
<path d="M322.37 181.173C322.371 186.68 320.652 192.064 317.432 196.643C314.212 201.222 309.635 204.791 304.28 206.899C298.925 209.006 293.033 209.557 287.348 208.483C281.663 207.408 276.442 204.756 272.344 200.861C268.246 196.967 265.455 192.005 264.325 186.603C263.195 181.202 263.776 175.603 265.995 170.515C268.214 165.428 271.972 161.08 276.792 158.021C281.612 154.962 287.278 153.331 293.074 153.332C296.922 153.332 300.732 154.052 304.287 155.451C307.841 156.85 311.071 158.901 313.792 161.487C316.512 164.072 318.67 167.141 320.142 170.519C321.614 173.897 322.371 177.517 322.37 181.173Z" fill="#FFCC00"/>
<path d="M321.478 181.179C321.479 186.519 319.813 191.738 316.692 196.179C313.57 200.619 309.133 204.08 303.942 206.123C298.75 208.167 293.037 208.702 287.525 207.661C282.013 206.619 276.95 204.048 272.977 200.272C269.003 196.497 266.297 191.686 265.201 186.449C264.105 181.212 264.668 175.784 266.82 170.851C268.971 165.918 272.613 161.702 277.286 158.736C281.96 155.771 287.453 154.188 293.073 154.189C300.606 154.191 307.831 157.034 313.157 162.096C318.484 167.157 321.477 174.021 321.478 181.179Z" fill="#D98F00"/>
<path d="M315.445 181.175C315.446 185.38 314.134 189.49 311.676 192.986C309.218 196.482 305.724 199.207 301.636 200.817C297.547 202.426 293.049 202.847 288.709 202.027C284.369 201.207 280.382 199.182 277.253 196.209C274.124 193.236 271.993 189.448 271.13 185.324C270.266 181.201 270.71 176.926 272.403 173.042C274.097 169.157 276.965 165.837 280.644 163.502C284.324 161.166 288.649 159.92 293.075 159.92C299.007 159.921 304.696 162.161 308.891 166.147C313.086 170.133 315.444 175.538 315.445 181.175Z" fill="#FFCC00"/>
<path d="M281.905 177.958H284.376C284.528 176.687 284.891 175.447 285.451 174.284C285.97 173.189 286.685 172.188 287.563 171.324C288.431 170.479 289.472 169.813 290.623 169.367C291.88 168.888 293.225 168.651 294.579 168.67C296.952 168.557 299.283 169.291 301.115 170.729C302.841 172.283 303.873 174.408 303.997 176.665H299.521C299.426 175.412 298.867 174.231 297.945 173.332C297.028 172.539 295.818 172.123 294.579 172.174C293.859 172.136 293.14 172.257 292.478 172.529C291.816 172.8 291.23 173.214 290.765 173.739C289.793 174.966 289.205 176.428 289.067 177.958H296.441L296.013 180.101H288.959V182.415H295.547L295.153 184.558H289.067C289.187 186.058 289.786 187.487 290.783 188.655C291.271 189.148 291.867 189.533 292.529 189.783C293.191 190.034 293.903 190.143 294.614 190.103C297.598 190.103 299.329 188.459 299.807 185.17H304.247C304.075 187.535 303.014 189.762 301.258 191.446C299.414 192.996 297.003 193.796 294.545 193.675C293.186 193.696 291.836 193.464 290.57 192.993C289.434 192.561 288.399 191.92 287.525 191.105C286.649 190.276 285.94 189.302 285.43 188.232C284.878 187.067 284.522 185.827 284.376 184.558H281.905V182.415H284.268V180.101H281.905L281.905 177.958Z" fill="#D98F00"/>
<path d="M259.984 215.671V123.372V77.0964L225.09 43.9297H127.74V78.1903V123.372V215.671H259.984Z" fill="#EAF4FE"/>
<path d="M225.09 77.0964H259.985L225.09 43.9297V77.0964Z" fill="#7EB3FF"/>
<path d="M259.985 77.0977H225.09L259.985 110.259V77.0977Z" fill="#C5E1F9"/>
<path d="M272.864 211.787C272.865 212.508 272.716 213.223 272.426 213.889C272.136 214.556 271.711 215.162 271.175 215.672C270.638 216.183 270.001 216.588 269.3 216.864C268.599 217.14 267.847 217.283 267.088 217.283H74.3638C73.6042 217.283 72.8521 217.141 72.1503 216.864C71.4486 216.588 70.8109 216.183 70.2738 215.673C69.7367 215.163 69.3107 214.557 69.0201 213.89C68.7294 213.223 68.5799 212.509 68.58 211.787V92.7614C68.58 92.0398 68.7296 91.3253 69.0203 90.6587C69.311 89.992 69.7371 89.3863 70.2742 88.8762C70.8113 88.366 71.4489 87.9614 72.1506 87.6854C72.8523 87.4094 73.6043 87.2674 74.3638 87.2676H267.088C267.847 87.2675 268.599 87.4097 269.3 87.6858C270.001 87.962 270.638 88.3667 271.174 88.877C271.711 89.3872 272.136 89.9929 272.426 90.6594C272.716 91.326 272.864 92.0402 272.864 92.7614V211.787Z" fill="#D98F00"/>
<path d="M79.6355 224.446H176.781H260.384V191.286V98.791H224.325H176.781H79.6355V224.446Z" fill="#9AC7F7"/>
<path d="M254.737 104.156H85.2816V219.083H254.737V104.156Z" fill="#74B8DC"/>
<path d="M79.6355 225.592H176.781H260.384V192.432V99.9355H224.325H176.781H79.6355V225.592Z" fill="#C5E1F9"/>
<path d="M254.737 105.301H85.2816V220.226H254.737V105.301Z" fill="#67ACF5"/>
<path d="M259.984 215.671V123.372V77.0964L225.09 43.9297H127.739V78.1903V123.372V215.671H259.984Z" fill="white"/>
<path d="M240.922 125.59H147.774V127.773H240.922V125.59Z" fill="#C5E1F9"/>
<path d="M243.315 130.812H147.774V133H243.315V130.812Z" fill="#C5E1F9"/>
<path d="M241.318 136.037H147.774V138.215H241.318V136.037Z" fill="#C5E1F9"/>
<path d="M230.314 141.264H147.774V143.444H230.314V141.264Z" fill="#C5E1F9"/>
<path d="M240.922 84.9062H147.774V87.0903H240.922V84.9062Z" fill="#C5E1F9"/>
<path d="M243.315 90.127H147.774V92.3128H243.315V90.127Z" fill="#C5E1F9"/>
<path d="M241.318 95.3535H147.774V97.5302H241.318V95.3535Z" fill="#C5E1F9"/>
<path d="M194.787 100.574H147.774V102.756H194.787V100.574Z" fill="#C5E1F9"/>
<path d="M240.922 109.869H147.774V112.052H240.922V109.869Z" fill="#C5E1F9"/>
<path d="M243.315 115.096H147.774V117.28H243.315V115.096Z" fill="#C5E1F9"/>
<path d="M241.318 120.32H147.774V122.497H241.318V120.32Z" fill="#C5E1F9"/>
<path d="M240.922 150.867H147.774V153.049H240.922V150.867Z" fill="#C5E1F9"/>
<path d="M243.315 156.092H147.774V158.27H243.315V156.092Z" fill="#C5E1F9"/>
<path d="M241.318 161.314H147.774V163.495H241.318V161.314Z" fill="#C5E1F9"/>
<path d="M204.367 166.535H147.774V168.716H204.367V166.535Z" fill="#C5E1F9"/>
<path d="M240.922 175.838H147.774V178.015H240.922V175.838Z" fill="#C5E1F9"/>
<path d="M243.315 181.057H147.774V183.237H243.315V181.057Z" fill="#C5E1F9"/>
<path d="M178.431 186.281H147.774V188.465H178.431V186.281Z" fill="#C5E1F9"/>
<path d="M192.118 74.5039H147.625V78.0514H192.118V74.5039Z" fill="#9AC7F7"/>
<path d="M225.09 77.0964H259.984L225.09 43.9297V77.0964Z" fill="#67ACF5"/>
<path d="M259.984 77.0977H225.09L259.984 110.259V77.0977Z" fill="#C5DFF5"/>
<path d="M287.322 133.044C287.322 132.323 287.173 131.609 286.883 130.942C286.592 130.276 286.166 129.671 285.63 129.161C285.093 128.651 284.456 128.246 283.754 127.97C283.053 127.694 282.301 127.552 281.542 127.553H183.808L175.486 140.371H62.8013C61.2677 140.37 59.7968 140.949 58.712 141.979C57.6272 143.008 57.0173 144.406 57.0165 145.863L68.5806 223.69C68.5811 225.147 69.1907 226.545 70.2753 227.575C71.3599 228.605 72.8307 229.184 74.3644 229.185H267.089C267.848 229.184 268.599 229.042 269.3 228.766C270.001 228.489 270.638 228.085 271.174 227.574C271.711 227.064 272.136 226.458 272.426 225.792C272.716 225.125 272.865 224.411 272.864 223.69L287.322 133.044Z" fill="#FECE40"/>
<path d="M287.322 135.792C287.322 135.071 287.173 134.357 286.882 133.691C286.592 133.024 286.166 132.419 285.629 131.909C285.092 131.399 284.455 130.994 283.754 130.719C283.053 130.443 282.301 130.301 281.542 130.301H183.808L175.486 143.119H62.8013C62.0417 143.118 61.2896 143.26 60.5878 143.536C59.886 143.812 59.2483 144.217 58.7111 144.727C58.1739 145.237 57.7478 145.843 57.457 146.509C57.1662 147.176 57.0165 147.891 57.0165 148.612L68.5806 226.438C68.581 227.895 69.1906 229.292 70.2753 230.323C71.3599 231.353 72.8308 231.931 74.3644 231.931H267.089C267.848 231.931 268.599 231.789 269.3 231.513C270.001 231.237 270.638 230.832 271.174 230.322C271.711 229.812 272.136 229.206 272.426 228.54C272.716 227.873 272.865 227.159 272.864 226.438L287.322 135.792Z" fill="#FFBF0D"/>
<path d="M80.2109 69.3906H118.521V118.303L87.9926 108.635L80.2109 69.3906Z" fill="#D98F00"/>
<path d="M80.2109 79.627H118.521V128.54L87.9926 118.871L80.2109 79.627Z" fill="#C5E1F9"/>
<path d="M80.2109 83.0371H118.521V131.95L87.9926 122.281L80.2109 83.0371Z" fill="#67ACF5"/>
<path d="M146.335 128.113C180.793 128.113 208.727 101.266 208.727 68.1481C208.753 55.0088 204.249 42.2231 195.903 31.7461H112.042V118.237C122.19 124.686 134.126 128.124 146.335 128.113Z" fill="white"/>
<path d="M196.671 95.9746H126.165V98.1582H196.671V95.9746Z" fill="#C5E1F9"/>
<path d="M194.809 101.195H126.165V103.383H194.809V101.195Z" fill="#C5E1F9"/>
<path d="M190.378 106.424H126.165V108.602H190.378V106.424Z" fill="#C5E1F9"/>
<path d="M185.258 111.646H126.165V113.827H185.258V111.646Z" fill="#C5E1F9"/>
<path d="M200.914 55.2891H153.304V57.4731H200.914V55.2891Z" fill="#C5E1F9"/>
<path d="M202.137 60.5098H153.304V62.6956H202.137V60.5098Z" fill="#C5E1F9"/>
<path d="M201.116 65.7422H153.304V67.9188H201.116V65.7422Z" fill="#C5E1F9"/>
<path d="M182.758 70.959H126.165V73.1408H182.758V70.959Z" fill="#C5E1F9"/>
<path d="M204.554 80.2559H126.165V82.4387H204.554V80.2559Z" fill="#C5E1F9"/>
<path d="M202.977 85.4766H126.165V87.661H202.977V85.4766Z" fill="#C5E1F9"/>
<path d="M201.296 90.7051H126.165V92.8817H201.296V90.7051Z" fill="#C5E1F9"/>
<path d="M169.663 121.252H126.165V123.434H169.663V121.252Z" fill="#C5E1F9"/>
<path d="M179.576 45.502H153.238V48.9145H179.576V45.502Z" fill="#9AC7F7"/>
<path d="M188.279 112.344C199.597 101.557 206.63 87.3769 208.18 72.217C209.73 57.0572 205.701 41.8556 196.779 29.2013C187.857 16.547 174.595 7.22256 159.25 2.81604C143.905 -1.59048 127.428 -0.806553 112.623 5.0343C97.8181 10.8751 85.6022 21.4117 78.0556 34.8495C70.5089 48.2872 68.0983 63.7952 71.2342 78.7321C74.3701 93.669 82.8586 107.111 95.2541 116.769C107.65 126.427 123.185 131.704 139.216 131.7C148.334 131.715 157.365 130.012 165.787 126.689C174.208 123.367 181.853 118.491 188.279 112.344ZM99.4029 103.733C90.1869 94.9831 84.4491 83.4677 83.1675 71.1488C81.8859 58.8299 85.1396 46.47 92.3743 36.1751C99.609 25.8802 110.377 18.2875 122.843 14.6908C135.309 11.0941 148.703 11.7159 160.74 16.4504C172.778 21.1849 182.716 29.739 188.859 40.6551C195.003 51.5711 196.973 64.1737 194.433 76.3151C191.894 88.4566 185.002 99.3856 174.932 107.24C164.862 115.094 152.237 119.387 139.208 119.388C131.815 119.401 124.492 118.024 117.66 115.337C110.829 112.651 104.624 108.707 99.4029 103.733H99.4029Z" fill="#0058B0"/>
<path opacity="0.2" d="M109.18 10.5363C107.293 8.66197 105.056 7.17658 102.593 6.16499C100.131 5.15339 97.4937 4.63542 94.8308 4.64066C92.1679 4.64591 89.5322 5.17427 87.0742 6.19556C84.6162 7.21684 82.3841 8.71103 80.5055 10.5928C78.6269 12.4745 77.1386 14.7068 76.1255 17.1623C75.1125 19.6178 74.5947 22.2482 74.6016 24.9033C74.6086 27.5583 75.1401 30.186 76.166 32.6362C77.1918 35.0864 78.6918 37.311 80.5802 39.1829C82.4661 41.0579 84.7041 42.544 87.1663 43.5561C89.6285 44.5683 92.2666 45.0867 94.9299 45.0817C97.5931 45.0768 100.229 44.5486 102.688 43.5273C105.146 42.506 107.379 41.0116 109.257 39.1297C111.136 37.2477 112.625 35.0149 113.638 32.559C114.651 30.1032 115.169 27.4723 115.161 24.8169C115.154 22.1614 114.622 19.5334 113.596 17.0831C112.569 14.6327 111.069 12.4081 109.18 10.5363Z" fill="white"/>
<path fill-rule="evenodd" clip-rule="evenodd" d="M149.291 45.2363H126.771V66.6336H149.291V45.2363Z" fill="#2A66C4"/>
<path fill-rule="evenodd" clip-rule="evenodd" d="M132.023 53.7645C131.833 53.7583 131.643 53.7906 131.467 53.8592C131.291 53.9279 131.132 54.0313 131.001 54.1627C130.739 54.4367 130.6 54.7975 130.616 55.1674C130.605 55.542 130.75 55.9056 131.02 56.1794C131.15 56.3123 131.309 56.4172 131.485 56.4871C131.662 56.5571 131.851 56.5904 132.043 56.5849C132.231 56.5914 132.418 56.5591 132.592 56.4904C132.766 56.4217 132.922 56.318 133.05 56.1866C133.309 55.9126 133.447 55.5539 133.434 55.1856C133.446 54.8141 133.309 54.4523 133.05 54.1737C132.923 54.039 132.767 53.9325 132.593 53.8618C132.418 53.7911 132.229 53.7579 132.039 53.7645" fill="white"/>
<path d="M140.005 58.3982H138.025V61.7227H135.587V50.2988H140.005C142.858 50.2988 144.284 51.6201 144.284 54.2626C144.284 55.5973 143.919 56.6227 143.189 57.3387C142.458 58.0548 141.397 58.4079 140.005 58.3982ZM138.025 56.4144H139.989C141.204 56.4144 141.808 55.6838 141.808 54.2626C141.862 53.7239 141.705 53.1852 141.366 52.7502C141.186 52.5819 140.97 52.4526 140.732 52.3713C140.495 52.2899 140.241 52.2584 139.989 52.2789H138.025V56.4144Z" fill="white"/>
<path opacity="0.2" d="M94.7413 41.4166C102.341 34.203 112.018 29.289 122.553 27.2944C133.088 25.2998 144.009 26.3139 153.938 30.2088C163.867 34.1038 172.36 40.7051 178.346 49.1803C184.331 57.6555 187.542 67.625 187.572 77.8316L187.576 77.904C187.586 83.1842 186.74 88.4345 185.069 93.4703C190.655 85.1849 193.612 75.5466 193.587 65.707L193.584 65.64C193.544 53.3146 188.87 41.4085 180.405 32.0691C171.94 22.7298 160.241 16.5721 147.418 14.7068C134.595 12.8415 121.493 15.3913 110.475 21.8963C99.4569 28.4014 91.2479 38.4334 87.3289 50.1828C89.4591 47.0149 91.9444 44.0757 94.7413 41.4166Z" fill="white"/>
<path d="M79.5388 65.7329C79.5531 50.7083 85.844 36.3034 97.0294 25.6831C108.215 15.0628 123.38 9.09569 139.193 9.0927C155.005 9.08972 170.173 15.0511 181.363 25.6672C192.552 36.2833 198.849 50.6857 198.87 65.7104L204.688 65.7133C204.684 65.6726 204.685 65.6316 204.689 65.591C204.655 49.0973 197.73 33.2912 185.436 21.6467C173.142 10.0023 156.485 3.47236 139.126 3.49223C121.767 3.51211 105.127 10.0801 92.8623 21.7527C80.5978 33.4253 73.713 49.2472 73.721 65.741L79.5457 65.7499L79.5388 65.7329Z" fill="#003C77"/>
<path d="M87.8922 126.29C91.6661 122.794 95.4467 119.295 99.2338 115.795C100.056 115.028 100.709 114.113 101.154 113.103C101.6 112.094 101.83 111.01 101.831 109.915C100.225 108.666 98.685 107.341 97.2181 105.945C95.6895 104.497 94.2399 102.976 92.8749 101.387C91.7251 101.391 90.5875 101.61 89.5271 102.032C88.4666 102.454 87.5042 103.071 86.6948 103.847C82.9023 107.347 79.1022 110.861 75.2945 114.386C71.7126 117.779 72.9298 121.777 76.5363 125.109L76.5545 125.129C80.1305 128.513 84.3657 129.667 87.8922 126.29Z" fill="#0058B0"/>
<path d="M72.2984 110.257L4.80908 174.383L24.8567 193.431L92.3461 129.306L72.2984 110.257Z" fill="#0058B0"/>
<path d="M82.4576 119.912L14.9683 184.037L23.2503 191.906L90.7396 127.781L82.4576 119.912Z" fill="#003C77"/>
<path d="M72.2945 110.257L67.4834 114.83L87.5352 133.877L92.3464 129.304L72.2945 110.257Z" fill="#C5E1F9"/>
<path d="M80.5159 120.165L77.2083 123.309L86.065 131.721L89.3727 128.577L80.5159 120.165Z" fill="#EAF4FE"/>
<path d="M20.0449 197.994C17.4124 197.994 14.8056 197.502 12.3735 196.545C9.94129 195.588 7.73136 194.185 5.86993 192.416C4.00849 190.648 2.53202 188.548 1.52484 186.237C0.517661 183.926 -0.000484084 181.449 3.39358e-07 178.948C1.60433 177.423 3.20217 175.905 4.80969 174.383C11.4978 180.738 18.1804 187.087 24.8575 193.431C23.2496 194.954 21.6518 196.472 20.0449 197.994Z" fill="#C5E1F9"/>
<path d="M18.2498 196.156L9.39392 187.742L13.5338 183.82L22.3832 192.229L18.2498 196.156Z" fill="#EAF4FE"/>
</svg>
