<svg width="145" height="48" viewBox="0 0 145 48" fill="none" xmlns="http://www.w3.org/2000/svg">
<path fill-rule="evenodd" clip-rule="evenodd" d="M35.6159 18.4844L35.4883 18.7426C35.4883 18.8071 35.5521 18.8716 35.5521 18.8716C35.5521 18.678 35.6159 18.6135 35.6159 18.4844ZM35.4883 17.9668V18.0959C35.4883 18.0959 35.5521 18.0959 35.4883 17.9668C35.4883 17.9668 35.4883 18.0313 35.4883 17.9668ZM32.8062 14.1591L32.1681 14.4818C31.8491 14.0945 31.5301 13.7718 31.1472 13.4491L31.5939 12.3518L31.5301 12.2873C31.3386 12.1582 30.5091 11.5127 30.3177 11.3836L30.2539 11.3191L29.3606 12.0936C28.9777 11.8354 28.4673 11.6418 28.0844 11.4482L28.2121 10.2864V10.2218C28.0206 10.0927 27.0635 9.83454 26.8083 9.76999H26.6807L26.1064 10.8027C25.5959 10.6736 25.1493 10.6091 24.7026 10.6091L24.3836 9.44727H23.4903C23.2988 9.44727 23.1074 9.51181 22.916 9.51181H22.8522L22.4693 9.6409V9.70545V9.6409H22.5332L22.4693 9.44727V9.57636L22.597 9.51181L22.4693 10.6736C21.9589 10.7382 21.576 10.8027 21.0656 10.8673L20.4913 9.83454H20.4275C20.1723 9.89908 19.2789 10.2218 19.0237 10.2864L18.8961 10.3509L19.0237 11.5127C18.5771 11.7064 18.1304 11.9 17.7476 12.1582L16.8542 11.3836V11.4482C16.7266 11.5127 16.4714 11.7709 16.2162 11.9645L15.9609 12.4164C16.2162 12.2227 16.7266 11.8354 16.9181 11.7064L17.8114 12.4809L17.8752 12.4164C18.3218 12.1582 18.7685 11.9 19.2789 11.7064L19.4066 11.6418L19.2789 10.48C19.598 10.3509 20.2361 10.1573 20.4913 10.0927L21.0656 11.1254H21.1932C21.6398 10.9964 22.2141 10.9318 22.7884 10.8673H22.916L23.1074 9.70545H24.4474L24.7026 10.8673H24.8302C25.3407 10.9318 25.8512 10.9964 26.4254 11.1254H26.553L27.1273 10.0927C27.4464 10.2218 28.0844 10.4154 28.3397 10.48L28.2121 11.6418L28.3397 11.7064C28.7863 11.9 29.2968 12.1582 29.7434 12.4164L29.8072 12.4809L30.7006 11.7064C30.9558 11.8354 31.5301 12.2873 31.7853 12.4809L31.3386 13.5782L31.4024 13.6427C31.7853 14.03 32.1681 14.3527 32.551 14.8045L32.6148 14.8691L33.3167 14.5464C32.8062 14.2882 32.8062 14.2236 32.8062 14.1591ZM36.1233 21.1943L34.9748 21.0007C34.911 20.4843 34.8472 20.0325 34.7834 19.5807L35.4214 19.1934V19.0643C35.4214 18.9352 35.4852 18.9352 35.4852 18.8707L35.3576 18.9998C35.2938 19.1289 35.2938 19.1289 35.23 19.258V19.1289L34.5281 19.5162V19.6452C34.6557 20.0971 34.7195 20.678 34.7834 21.2589V21.388L35.9319 21.5816V22.9371L34.7834 23.1952V23.3243C34.7834 23.4534 34.7195 23.518 34.7195 23.6471C34.7195 23.7762 34.7195 23.9698 34.7834 24.0989C34.7834 24.4862 34.7834 24.6798 34.6557 24.8089C34.5919 24.8734 34.5919 24.938 34.5281 24.938L35.4852 25.5189C35.4214 25.648 35.3576 25.9062 35.2938 26.1643C35.3576 26.2934 35.3576 26.4225 35.3576 26.5516V26.6807C35.4852 26.2934 35.7405 25.648 35.7405 25.5189V25.3898L34.7195 24.8089C34.8472 24.2925 34.911 23.8407 34.911 23.3889L36.0595 23.1307V21.4525C35.9957 21.388 36.1233 21.1943 36.1233 21.1943ZM33.5711 16.0309C33.5711 15.9019 33.5073 15.9019 33.4435 15.8373L33.3797 15.9019C33.4435 15.9664 33.5073 16.0309 33.5711 16.0309ZM33.8294 15.8375L33.957 15.7084C33.957 15.5793 33.8932 15.5793 33.8932 15.4502L33.7656 15.5793C33.7656 15.6438 33.7656 15.7729 33.8294 15.8375ZM35.1021 17.3859H34.9745C34.9107 17.515 34.9107 17.515 34.8469 17.6441H34.9745C34.9745 17.5796 35.0383 17.4505 35.1021 17.3859ZM34.5938 17.4502L34.2109 17.5147C34.3386 17.5793 34.3386 17.6438 34.4024 17.7084L34.6576 17.6438L34.5938 17.4502ZM33.9558 17.1281L33.6367 16.999C33.6367 17.0636 33.7005 17.1281 33.7005 17.1281C33.8281 17.1927 33.9558 17.2572 34.0834 17.3218C34.0196 17.2572 33.9558 17.1927 33.9558 17.1281ZM33.3797 14.2236L33.5073 14.4173C33.5073 14.4818 33.5711 14.5464 33.5711 14.6109C33.6987 14.74 33.6987 14.8045 33.8263 14.9982C33.7625 14.74 33.6987 14.5464 33.6349 14.3527L33.5711 14.2882L33.3797 14.2236Z" fill="#0066CC"/>
<path fill-rule="evenodd" clip-rule="evenodd" d="M31.3391 17.5149L25.7878 19.064L25.6602 13.2549C28.021 13.8358 30.0629 15.3849 31.3391 17.5149ZM31.7876 17.7094L31.66 17.5803C30.3838 15.1921 28.1505 13.5785 25.4706 12.9976L25.343 12.933L25.5344 19.5166L31.7876 17.7094ZM34.2773 26.4875C34.2773 26.6166 34.2773 26.6166 34.3412 26.7457H34.4688C34.4688 26.6811 34.405 26.6166 34.405 26.4875H34.2773ZM33.2539 28.1006L33.892 28.8751C33.892 28.746 33.8282 28.6815 33.7644 28.6169C33.7006 28.4879 33.5729 28.3588 33.2539 28.1006ZM33.5747 27.391C33.5747 27.4556 33.5109 27.4556 33.5109 27.5201L33.6386 27.6492C33.6386 27.5847 33.7024 27.5201 33.7024 27.5201C33.6386 27.4556 33.5747 27.391 33.5747 27.391ZM35.1063 26.6167C35.1063 26.6812 35.0425 26.6812 34.9787 26.7457C34.9787 26.8103 34.9148 26.8103 34.9148 26.8748H35.0425C35.1063 26.6167 35.1701 26.4876 35.1063 26.6167C35.1063 26.5521 35.1063 26.5521 35.1063 26.6167ZM33.8302 26.8098C33.8302 26.8743 33.7664 26.8743 33.7664 26.9389C33.7664 27.0034 33.8302 27.0679 33.8302 27.0679V26.8098ZM34.0853 29.1333C34.0215 29.0687 33.9577 29.0042 33.9577 28.9396C33.83 29.1978 33.3834 29.7787 33.192 29.9723L32.0434 29.456V29.5205C31.7244 29.9078 31.3415 30.2951 30.8949 30.6823L30.8311 30.7469L31.3415 31.8442C31.0863 32.0378 30.512 32.4896 30.2568 32.6187L29.3635 31.8442L29.2997 31.9087C28.853 32.1669 28.4064 32.4251 27.8959 32.6187L27.7683 32.6833L27.8959 33.8451C27.5769 33.9742 26.9388 34.1678 26.6836 34.2323L26.1093 33.1996H25.9817C25.535 33.3287 25.0246 33.3933 24.3865 33.4578L24.1951 34.6196H22.8551L22.5999 33.3933H22.4722C21.9618 33.3287 21.4513 33.2642 20.877 33.1351H20.7494L20.1752 34.1678C19.8561 34.0387 19.218 33.8451 18.9628 33.7805L19.0904 32.6187L18.9628 32.5542C18.5161 32.3605 18.0057 32.1023 17.559 31.8442L17.4952 31.7796L16.7295 32.5542C16.4743 32.4251 15.9 31.9733 15.6448 31.7796L16.0914 30.6823V30.6178C15.7086 30.2305 15.2619 29.8433 14.9429 29.456L14.8791 29.3914L13.7944 29.8433C13.7306 29.7142 13.6667 29.6496 13.5391 29.456V29.6496V29.5205C13.4753 29.3914 13.4115 29.3269 13.3477 29.1978V29.3914L13.0925 29.0687C13.0287 28.9396 13.0287 28.6814 12.9649 28.5523L12.7734 28.746L12.8372 28.8105C12.9649 29.0042 13.5391 29.8433 13.7306 30.0369L13.7944 30.1014L14.8791 29.6496C15.1981 30.0369 15.5172 30.2951 15.9 30.6823L15.4534 31.7796L15.5172 31.8442C15.7086 31.9733 16.5381 32.6187 16.7295 32.7478L17.6228 31.9733C18.0057 32.2314 18.5161 32.4251 18.899 32.6187L18.7714 33.7805L18.899 33.8451C19.1542 33.9742 20.0475 34.2323 20.3028 34.2969H20.4304L21.0047 33.2642C21.5151 33.3933 21.9618 33.4578 22.4084 33.4578L22.6637 34.6196H24.3865L24.5779 33.4578C25.0884 33.3933 25.535 33.3287 25.9817 33.2642L26.5559 34.2969H26.6836C26.9388 34.2323 27.8959 33.9096 28.0873 33.8451L28.2149 33.7805L28.0873 32.6187C28.534 32.4251 28.9806 32.2314 29.3635 31.9733L30.1292 32.7478L30.193 32.6833C30.3844 32.5542 31.2139 31.9733 31.4053 31.7796L31.4691 31.7151L30.9587 30.6178C31.3415 30.2305 31.6606 29.9723 31.9796 29.5851L33.0643 30.0369L33.1282 29.9723C33.4472 29.9723 33.8939 29.3914 34.0853 29.1333C34.0853 29.0687 34.0853 29.0687 34.0853 29.1333ZM24.8961 10.6091H24.7046L24.5132 9.44727H22.7904L22.4714 10.6091H22.3438C22.3438 10.6736 22.4076 10.7382 22.4076 10.8027H22.6628L22.918 9.6409H24.258L24.4494 10.8027H24.577C24.7046 10.8027 24.7046 10.8027 24.8323 10.8673C24.8323 10.7382 24.8961 10.6736 24.8961 10.6091Z" fill="#0066CC"/>
<path fill-rule="evenodd" clip-rule="evenodd" d="M13.3456 15.3851C13.4732 15.0624 13.8561 14.4815 14.0475 14.2233L14.1751 14.2879C14.2389 14.2233 14.3027 14.1588 14.3665 14.1588L13.9837 14.0297H13.9199C13.7923 14.2233 13.1542 15.0624 13.0266 15.2561V15.3206L13.218 15.5788C13.218 15.5142 13.2818 15.4497 13.3456 15.3851ZM12.0691 17.515C12.0691 17.4505 12.1329 17.3859 12.1329 17.3859H11.8777L11.8138 17.515C11.6862 17.7732 11.431 18.6768 11.3672 18.935V19.0641L12.0691 17.515ZM15.1323 14.288C15.1323 14.3526 15.1323 14.4171 15.0685 14.4817C15.0685 14.5462 15.0047 14.6107 15.0047 14.6107H15.0685L15.1323 14.5462C15.5152 14.1589 15.8342 13.7717 16.2808 13.3844L16.3447 13.3198L15.898 12.2871L15.7704 12.5453L16.0894 13.1907C15.7066 13.7071 15.4513 13.9653 15.1323 14.288ZM13.0912 17.7085L13.474 17.063L13.9845 16.1594L13.8569 16.0303C13.7931 16.1594 13.7292 16.2239 13.6654 16.4175C13.474 16.8048 13.2826 17.1921 13.0912 17.5794H12.9636C12.8997 17.5794 12.8997 17.6439 12.8359 17.7085H13.0912ZM14.4288 20.8072V20.9363C14.3012 22.1627 14.365 23.389 14.684 24.6154L14.8117 24.1636V24.0345C14.8117 24.0345 14.8117 24.099 14.7478 24.1636L14.684 24.3572V23.97L14.8117 23.7763C14.684 22.9372 14.6202 22.0981 14.684 21.1945L20.1077 23.1954L16.7897 28.0363C15.9602 27.1327 15.3859 26.0354 15.0669 24.8736C15.0031 25.0027 15.0031 25.2609 14.9393 25.4545C15.3221 26.5518 15.9602 27.52 16.7259 28.4236L16.8535 28.5527L20.5544 23.1309L14.4288 20.8072ZM21.4484 19.0643L15.9609 17.3861C17.2371 15.2561 19.3428 13.707 21.7036 13.1906L21.4484 19.0643ZM22.0222 12.9322H21.8308C19.2147 13.4486 16.9176 15.1268 15.5776 17.4504L15.45 17.5795L21.6394 19.4513C21.7032 19.4513 22.0222 12.9322 22.0222 12.9322ZM30.2537 28.1007L27.0633 23.2598L32.487 21.3234C32.7422 23.7762 31.9127 26.2289 30.2537 28.1007ZM32.8078 21.0656V20.9365L26.7461 23.1311L30.3193 28.6174L30.447 28.4883C32.1698 26.4229 33.0631 23.7765 32.8078 21.0656ZM23.617 31.1343C22.4046 31.1343 21.1923 30.8761 20.0437 30.3598L23.617 25.8416L27.1264 30.4243C25.9779 30.8761 24.7655 31.1343 23.617 31.1343ZM19.5352 30.4889L19.6628 30.5535C20.8751 31.1344 22.1513 31.4571 23.5551 31.4571C24.8312 31.4571 26.1712 31.1989 27.3197 30.618L27.4473 30.5535L23.4912 25.3898C23.6189 25.3898 19.5352 30.4889 19.5352 30.4889Z" fill="#0066CC"/>
<path fill-rule="evenodd" clip-rule="evenodd" d="M34.3404 39.0096C34.3404 39.1387 34.4042 39.3324 34.468 39.4615C34.5318 39.5899 34.5956 39.526 34.6594 39.4615L34.7232 39.526C34.5956 39.5899 34.5956 39.6551 34.5318 39.6551C34.4042 39.7196 34.4042 39.7842 34.3404 39.7842L34.2766 39.7196C34.4042 39.5899 34.4042 39.5899 34.4042 39.3969C34.4042 39.2033 34.3404 39.0096 34.2766 38.816L34.0852 37.5896H34.2128L35.3613 38.6217C35.4251 38.6869 35.5527 38.816 35.6165 38.816C35.7442 38.8806 35.7442 38.816 35.808 38.816L35.8718 38.8806L35.5527 39.0096L35.2337 39.2672L35.1699 39.2033C35.2975 39.2033 35.3613 39.0742 35.2975 39.0742C35.2337 39.0096 35.1699 38.9445 35.1699 38.9445L34.9785 38.7515L34.468 39.0096C34.468 38.9445 34.3404 39.0096 34.3404 39.0096ZM35.1711 37.2023C35.0435 37.1378 34.9797 37.1378 34.8521 37.2669L34.7883 37.1378C34.9159 37.0732 34.9159 37.0732 34.9159 37.008C34.9797 37.008 35.0435 36.9441 35.0435 36.8796L36.7663 37.4605L36.2559 36.815C36.1282 36.6853 36.1282 36.5569 36.0006 36.4278C35.873 36.2987 35.873 36.3626 35.6816 36.4278L35.6178 36.3626C35.7454 36.2987 35.7454 36.2341 35.873 36.2341C35.9368 36.105 36.0006 36.105 36.0006 36.0398L36.0644 36.105C36.0006 36.2341 35.9368 36.2341 35.9368 36.2987C35.9368 36.3626 36.1282 36.6214 36.2559 36.7505L36.9578 37.7187L36.8939 37.7832C36.7663 37.7832 36.7663 37.7187 36.6387 37.6535L35.1711 37.2023L35.8092 37.9762C35.873 38.1059 35.9368 38.1705 36.0644 38.2989C36.1921 38.3641 36.1921 38.2989 36.3197 38.235V38.2989C36.2559 38.4287 36.1921 38.4287 36.1282 38.4287C36.0006 38.4932 36.0006 38.5578 35.9368 38.5578H35.873C36.0006 38.4287 36.0006 38.4287 36.0006 38.2989C36.0006 38.1705 35.873 38.1059 35.8092 37.9762C35.7454 37.9762 35.1711 37.2023 35.1711 37.2023ZM37.4029 36.9442C37.4029 37.0733 37.5305 37.3308 37.5305 37.396C37.6581 37.5251 37.6581 37.396 37.7219 37.3308L37.7858 37.4606C37.7219 37.5251 37.6581 37.5897 37.5943 37.5897C37.5305 37.6536 37.4667 37.7188 37.4029 37.7188L37.3391 37.5897C37.4667 37.4606 37.4667 37.4606 37.4667 37.3308C37.3391 37.1379 37.3391 36.9442 37.3391 36.7506L36.9563 35.5888L37.0201 35.5242L38.2962 36.4279C38.36 36.4924 38.4876 36.5569 38.5514 36.5569C38.6791 36.6215 38.6791 36.5569 38.8067 36.4924V36.6215C38.6791 36.6854 38.6153 36.7506 38.5514 36.7506C38.4238 36.8797 38.4238 36.8797 38.2962 36.9442L38.2324 36.8797C38.2962 36.8151 38.36 36.7506 38.36 36.6854C38.2962 36.6215 38.2324 36.5569 38.2324 36.5569L37.9772 36.4279L37.4029 36.9442ZM34.7883 38.5578L34.2141 38.0414L34.3417 38.816L34.7883 38.5578ZM37.7232 36.4278L37.0852 35.976L37.3404 36.7505L37.7232 36.4278ZM27.004 37.7187C27.004 37.5896 27.0678 37.4605 27.004 37.3308C27.004 37.2023 26.8763 37.2023 26.8763 37.2023V37.0732C27.004 37.1378 27.1316 37.2023 27.2592 37.2023C27.3868 37.2023 27.5144 37.2669 27.642 37.2669L27.5782 37.3308C27.5144 37.3308 27.4506 37.3308 27.3868 37.4605C27.323 37.5896 27.323 37.7187 27.2592 37.8478L27.1316 38.7514C27.0678 38.8805 27.0678 39.0742 27.0678 39.1387C27.0678 39.2671 27.1954 39.2671 27.1954 39.2671V39.3969C27.0678 39.3323 27.004 39.3323 26.8125 39.2671C26.6849 39.2671 26.6211 39.2671 26.4297 39.2032V39.1387C26.5573 39.1387 26.5573 39.1387 26.6211 39.0096C26.6849 38.9444 26.7487 38.7514 26.7487 38.6217L27.004 37.7187ZM29.2363 38.0413C29.2363 37.7186 29.1087 37.6534 28.9173 37.5895C28.7897 37.5895 28.6621 37.525 28.6621 37.6534L28.4706 39.0741C28.4706 39.2671 28.4706 39.3323 28.6621 39.4613V39.5259C28.5344 39.5259 28.4068 39.4613 28.2792 39.3968C28.1516 39.3968 28.024 39.3968 27.8964 39.3323V39.2671C28.1516 39.2671 28.2154 39.2032 28.2792 39.0095L28.4068 37.5895C28.4706 37.525 28.2792 37.4604 28.2792 37.4604C28.024 37.3959 27.8964 37.3959 27.8964 37.7832L27.7688 37.7186L27.8964 37.2668L29.4278 37.525C29.3639 37.525 29.2363 38.0413 29.2363 38.0413ZM29.4909 39.0096C29.4271 39.1387 29.3633 39.3324 29.3633 39.3969C29.3633 39.526 29.4909 39.526 29.4909 39.526V39.5899C29.3633 39.5899 29.3633 39.526 29.2357 39.526C29.1081 39.526 29.0443 39.4615 28.9805 39.4615L29.0443 39.3969C29.1719 39.3969 29.1719 39.3324 29.2995 39.2033C29.4271 39.0742 29.4271 38.816 29.5547 38.6869L30.0652 37.5896L30.1928 37.6535L30.448 39.2033C30.5119 39.3324 30.5119 39.4615 30.5757 39.5899C30.6395 39.7196 30.7033 39.7196 30.7033 39.7196V39.7842C30.5757 39.7842 30.5119 39.7196 30.3204 39.7196C30.1928 39.6551 30.129 39.6551 29.9376 39.6551L30.0014 39.526C30.0652 39.526 30.129 39.5899 30.129 39.4615V39.2033L30.0652 38.8806L29.4271 38.7515L29.4909 39.0096ZM31.2787 38.4928C31.2787 38.3637 31.3425 38.1701 31.3425 38.1056C31.2787 37.9758 31.2149 37.9758 31.1511 37.9758L31.2149 37.9119C31.3425 37.9119 31.4063 37.9758 31.5339 37.9758C31.6615 38.041 31.7892 38.041 31.9168 38.041L31.853 38.1701C31.7892 38.1701 31.6615 38.1056 31.6615 38.2346C31.5977 38.3637 31.5977 38.5574 31.5339 38.6213L31.4063 39.461C31.3425 39.8483 31.4063 39.9122 31.6615 39.9774C31.7892 39.9774 31.9168 40.0419 32.0444 39.9774C32.2358 39.8483 32.2358 39.7837 32.2358 39.5895H32.3634L32.2358 40.1065C32.2358 40.0419 32.1082 40.0419 32.1082 40.0419C31.6615 39.9122 31.2149 39.9122 30.832 39.8483V39.7837C30.9596 39.7837 30.9596 39.7837 31.0873 39.6546C31.0873 39.5895 31.1511 39.3965 31.2149 39.2667C31.1511 39.3319 31.2787 38.4928 31.2787 38.4928ZM33.0638 38.6862C33.0638 38.5571 33 38.3635 33 38.2983C32.9362 38.1699 32.8724 38.1699 32.8086 38.1699V38.0408H33.1914C33.3191 38.0408 33.3829 37.9756 33.5743 37.9756V38.1053C33.4467 38.1053 33.3829 38.1053 33.3829 38.2344V38.621L33.5105 39.4608C33.5105 39.5892 33.5105 39.7835 33.5743 39.848C33.6381 39.9119 33.7019 39.9771 33.7657 39.9771V40.0417H33.3191C33.1914 40.1062 33.1276 40.1062 32.9362 40.1062V40.0417C33 40.0417 33.1276 40.0417 33.1276 39.9119C33.1914 39.7835 33.1276 39.6544 33.1276 39.5253L33.0638 38.6862ZM30.0652 38.8805L29.9375 38.0414L29.5547 38.7514L30.0652 38.8805ZM15.2005 38.6863C15.2005 38.5572 15.1367 38.3636 15.1367 38.2984C15.0729 38.1699 15.0091 38.1699 14.9453 38.2345V38.1054C15.0729 38.1054 15.1367 38.1054 15.2644 38.0408C15.392 38.0408 15.4558 38.0408 15.5834 37.9756C15.7748 37.9117 16.1577 37.9756 16.2215 38.3636C16.2853 38.6211 16.0939 38.7508 15.9662 38.8799C16.0939 38.8799 16.2215 38.8799 16.3491 38.9438C16.4767 39.0736 16.5405 39.1381 16.6043 39.3317C16.6681 39.4608 16.5405 39.6545 16.4767 39.7836C16.3491 39.912 16.2215 39.912 16.0939 39.912C15.9662 39.912 15.9024 39.912 15.7748 39.9772C15.6472 39.9772 15.5196 40.0417 15.3282 40.0417V39.9772C15.4558 39.912 15.4558 39.912 15.5196 39.8481C15.5196 39.719 15.4558 39.5254 15.4558 39.4608C15.392 39.4608 15.2005 38.6863 15.2005 38.6863ZM16.73 38.428C16.73 38.2983 16.6662 38.1053 16.6024 38.0407C16.5386 37.9116 16.4747 37.9116 16.4109 37.9116C16.5386 37.8471 16.6024 37.8471 16.7938 37.8471C16.9214 37.8471 16.9214 37.7825 17.049 37.7825C17.3042 37.718 17.6233 37.7825 17.6871 38.1698C17.7509 38.428 17.5595 38.5571 17.3681 38.6862C17.4957 38.6862 17.6233 38.6862 17.7509 38.8153C17.8785 38.9437 17.9423 39.0089 18.0061 39.2025C18.0061 39.3962 17.8785 39.5892 17.8785 39.6544C17.7509 39.7835 17.5595 39.7835 17.4319 39.7835C17.3681 39.848 17.3042 39.848 17.1766 39.848C17.049 39.848 16.9214 39.9119 16.7938 39.9771V39.848C16.8576 39.848 16.9214 39.848 16.9214 39.7189C16.9214 39.5892 16.8576 39.4607 16.8576 39.3316C16.73 39.2664 16.73 38.428 16.73 38.428ZM18.069 38.17C18.069 38.0409 18.0052 37.8472 18.0052 37.7827C17.9414 37.653 17.8776 37.653 17.8138 37.7181L17.75 37.5891C17.8776 37.5891 18.0052 37.5891 18.1328 37.5245C18.2605 37.5245 18.3881 37.5245 18.5157 37.46L18.5795 37.5891C18.4519 37.5891 18.4519 37.5891 18.3881 37.7181C18.3881 37.8472 18.4519 38.0409 18.4519 38.1054L18.5795 38.9439C18.6433 39.3318 18.7071 39.3318 19.0262 39.3318C19.1538 39.2666 19.2176 39.2666 19.3452 39.2027C19.4728 39.1381 19.4728 39.0091 19.4728 38.8154L19.6004 38.7509L19.6642 39.2666H19.5366C19.1538 39.3318 18.7071 39.3963 18.3243 39.4609V39.3963C18.4519 39.3318 18.4519 39.3318 18.4519 39.2666C18.5157 39.1381 18.4519 38.9439 18.4519 38.88C18.2605 38.8154 18.069 38.17 18.069 38.17ZM19.6011 37.8478C19.6011 37.7187 19.5373 37.5896 19.5373 37.4605C19.4096 37.3308 19.4096 37.3308 19.3458 37.3308H19.282C19.4096 37.2669 19.5373 37.2669 19.6649 37.2669C19.7925 37.2669 19.9201 37.2023 20.0477 37.2023V37.2669C19.9839 37.2669 19.9201 37.3308 19.9201 37.396C19.9201 37.4605 19.9201 37.6535 19.9839 37.7833L20.1115 38.6217C20.1115 38.7514 20.1753 38.9444 20.2392 39.0096C20.303 39.1387 20.3668 39.1387 20.4306 39.1387V39.2033H20.0477C19.9201 39.2672 19.8563 39.2672 19.6649 39.2672V39.2033C19.7925 39.2033 19.7925 39.2033 19.7925 39.0742C19.8563 38.9444 19.7925 38.816 19.7925 38.6869L19.6011 37.8478ZM21.3887 37.0069L21.5163 37.5885H21.4525C21.3249 37.2657 21.1335 37.0721 20.8783 37.1366C20.4316 37.2012 20.4316 37.7176 20.4954 38.1694C20.623 38.6205 20.8144 39.073 21.1973 39.0085C21.5163 38.8794 21.5801 38.6205 21.5801 38.2978L21.6439 38.2339L21.7716 38.8794L21.6439 38.7503C21.5163 38.8794 21.3249 38.9433 21.1973 39.0085C20.7506 39.1376 20.304 38.7503 20.2402 38.1694C20.1764 37.5885 20.4316 37.0721 20.8783 37.0069C21.0697 36.943 21.2611 37.0069 21.3887 37.0721V37.0069ZM22.2188 38.1053C22.2188 38.2344 22.0912 38.4925 22.155 38.5571C22.155 38.6862 22.2826 38.6862 22.3464 38.6862V38.8153H22.0912C21.9636 38.8798 21.9636 38.8798 21.8359 38.8798V38.8153C21.9636 38.7507 21.9636 38.6862 22.0274 38.621C22.0912 38.428 22.0912 38.2344 22.0912 38.0407L22.2826 36.8789H22.4102L23.1121 38.2344C23.1759 38.3635 23.2397 38.428 23.3035 38.5571C23.3673 38.621 23.4311 38.621 23.4949 38.621V38.7507C23.3673 38.7507 23.3035 38.7507 23.1759 38.8153C23.0483 38.8153 22.9207 38.8798 22.7931 38.8798V38.8153C22.8569 38.7507 22.9207 38.7507 22.9207 38.621C22.9207 38.5571 22.8569 38.4925 22.8569 38.4925L22.6654 38.1698L22.2188 38.1053ZM15.5162 38.9441L15.6438 38.8802C15.7714 38.8802 15.7714 38.8802 15.8352 38.7511C15.9628 38.6213 15.9628 38.5574 15.9628 38.4284C15.899 38.2347 15.8352 38.0411 15.58 38.1056C15.58 38.1056 15.4523 38.1056 15.4523 38.1702V38.2986L15.5162 38.9441ZM15.6451 39.3969C15.6451 39.526 15.7089 39.6551 15.7727 39.7842C15.8365 39.9126 15.9003 39.9126 15.9641 39.8487C16.1555 39.8487 16.2831 39.6551 16.2193 39.3969C16.1555 39.2672 16.0917 39.1387 16.0279 39.0742C15.9641 39.0096 15.8365 39.0096 15.6451 39.0742H15.5812C15.5812 39.0096 15.6451 39.3969 15.6451 39.3969ZM16.9857 38.6866C17.1133 38.6214 17.1771 38.6214 17.2409 38.5575C17.3685 38.4284 17.3685 38.3638 17.3685 38.1702C17.3047 37.9759 17.2409 37.8475 17.0495 37.8475C16.9857 37.912 16.9219 37.912 16.9219 37.912V38.0411C16.9219 38.1056 16.9857 38.6866 16.9857 38.6866ZM17.0495 39.2027C17.1133 39.3318 17.1133 39.3963 17.1771 39.5254C17.2409 39.6545 17.3047 39.6545 17.3685 39.6545C17.4961 39.5893 17.6238 39.4609 17.56 39.2027C17.56 39.0736 17.4323 38.9439 17.3685 38.8154C17.2409 38.7509 17.1771 38.8154 17.0495 38.8154H16.9219L17.0495 39.2027ZM22.7904 37.8477L22.4076 37.1377L22.3438 37.9122L22.7904 37.8477ZM9.96626 37.2665C9.96626 37.3956 9.96626 37.3956 10.0939 37.5247L10.0301 37.5892L9.90245 37.4601C9.83864 37.3956 9.77483 37.3956 9.71102 37.3304V37.1374V36.4274C9.71102 36.2983 9.71102 36.2983 9.58341 36.2338L9.39199 36.4919C9.32818 36.621 9.26437 36.7501 9.20056 36.8792C9.20056 37.0077 9.26437 37.0077 9.32818 37.0077L9.26437 37.0728C9.20056 36.9438 9.07295 36.9438 9.07295 36.8792C8.94533 36.7501 8.88152 36.7501 8.75391 36.6849L8.81771 36.621C8.94533 36.6849 8.94533 36.7501 9.00914 36.6849C9.07295 36.621 9.20056 36.4274 9.26437 36.3622L9.71102 35.6528C9.77483 35.5883 9.83864 35.394 9.90245 35.3301C9.96626 35.201 9.83864 35.201 9.77483 35.201V35.0713C9.90245 35.201 10.0301 35.201 10.1577 35.3301C10.2853 35.394 10.3491 35.4592 10.4129 35.4592C10.6681 35.5883 10.7958 35.8465 10.6043 36.1692C10.4129 36.4919 10.1577 36.4919 9.96626 36.2983V37.2665ZM11.0516 36.6846C11.1155 36.5561 11.1793 36.427 11.2431 36.3618C11.3069 36.2334 11.1793 36.2334 11.1155 36.1688L11.2431 36.1043L12.2002 36.7498L11.945 37.137L11.8812 37.0725C12.0088 36.8143 11.945 36.6846 11.7535 36.5561L11.6259 36.427C11.5621 36.3618 11.5621 36.3618 11.4983 36.4916L11.1155 37.137C11.3707 37.33 11.4983 37.2016 11.6259 37.0725C11.4983 37.2016 11.4983 37.33 11.4345 37.3952C11.3069 37.5243 11.3069 37.5888 11.2431 37.7179L11.1793 37.6527C11.3069 37.3952 11.2431 37.2661 11.0516 37.2016L10.7964 37.5888C10.7326 37.7179 10.6688 37.7825 10.6688 37.847C10.6688 37.9755 10.7964 38.0407 10.8602 38.1052C11.1155 38.2343 11.2431 38.2343 11.4345 38.0407H11.4983L11.2431 38.4279L10.0945 37.6527L10.1583 37.5888C10.2221 37.6527 10.286 37.7179 10.3498 37.6527C10.4136 37.5888 10.4774 37.3952 10.605 37.33L11.0516 36.6846ZM12.0092 38.2344C11.9454 38.3635 11.8816 38.4925 11.8816 38.621C11.8177 38.7507 11.9454 38.7507 12.0092 38.8153L11.9454 38.8798C11.8177 38.7507 11.7539 38.7507 11.6263 38.6862C11.4987 38.621 11.4349 38.5571 11.3711 38.5571V38.428C11.4987 38.4925 11.6263 38.4925 11.6263 38.4925C11.7539 38.428 11.8177 38.2344 11.8816 38.1698L12.2644 37.4598C12.3282 37.3301 12.392 37.2016 12.4558 37.1371C12.5196 37.0074 12.392 37.0074 12.3282 36.9435L12.392 36.8789C12.5196 37.0074 12.6473 37.0074 12.7111 37.0725C12.7749 37.1371 12.9025 37.2016 12.9025 37.2016C13.0939 37.3301 13.2853 37.5889 13.0939 37.9116C12.9025 38.2344 12.5196 38.2344 12.2644 38.0407C12.2006 38.0407 12.1368 37.9116 12.1368 37.9116L12.0092 38.2344ZM13.4128 37.9757C13.4766 37.7827 13.4766 37.653 13.349 37.5245L13.4128 37.46C13.5404 37.5245 13.6042 37.5891 13.668 37.5891L13.9871 37.7181L13.9233 37.7827C13.8594 37.7181 13.7318 37.653 13.7318 37.7827C13.668 37.9118 13.6042 38.3636 13.5404 38.4281L13.4128 39.2027L13.9871 38.7509C14.1147 38.6211 14.3699 38.3636 14.4337 38.2345C14.5613 38.1054 14.4337 38.1054 14.3699 38.0409V37.9118C14.4975 38.0409 14.5613 38.0409 14.6251 38.0409C14.7528 38.1054 14.8166 38.17 14.8804 38.17V38.2345C14.6889 38.1054 14.4975 38.3636 14.3699 38.4927L13.2214 39.5254L13.0938 39.4609C13.1576 39.5254 13.4128 37.9757 13.4128 37.9757ZM9.71016 36.1042C9.96539 36.2333 10.093 36.4269 10.3482 36.039C10.4759 35.846 10.4759 35.6524 10.2844 35.5233C10.2206 35.4587 10.1568 35.3936 10.1568 35.3936C10.093 35.3936 10.093 35.4587 10.0292 35.4587L9.71016 36.1042ZM12.3242 37.8477C12.3242 37.9122 12.388 37.9122 12.4518 37.9761C12.6433 38.1059 12.8347 38.0413 12.9623 37.8477C13.0899 37.525 13.0261 37.3959 12.8985 37.2668C12.7709 37.1377 12.7709 37.1377 12.7709 37.3307C12.7071 37.3307 12.3242 37.8477 12.3242 37.8477Z" fill="#0066CC"/>
<mask id="mask0_327:14786" style="mask-type:alpha" maskUnits="userSpaceOnUse" x="7" y="5" width="34" height="39">
<path fill-rule="evenodd" clip-rule="evenodd" d="M40.5287 43.1724H7.08984V5.55469H40.5287V43.1724Z" fill="white"/>
</mask>
<g mask="url(#mask0_327:14786)">
<path fill-rule="evenodd" clip-rule="evenodd" d="M39.9512 25.0683C39.9512 25.1974 39.9512 25.3265 39.8236 25.391C39.696 25.5201 39.5684 25.5201 39.377 25.5853L39.1856 25.1974C39.1856 24.8747 39.0579 24.5519 38.8665 24.2938C38.9941 24.1653 39.1217 24.1653 39.3132 24.0356C39.4408 23.971 39.4408 23.8426 39.1856 23.8426C38.9941 23.9065 38.8027 23.8426 38.6751 23.8426H38.6113C38.7389 23.3256 38.9303 23.1971 39.1856 22.7447C39.2494 22.6156 39.2494 22.6156 39.0579 22.8744C38.8665 23.1971 38.6751 23.5199 38.4199 23.9065V23.4547C38.356 23.1971 38.2922 23.1971 38.2922 23.4547C38.356 23.7774 38.4199 23.971 38.4199 24.1001C38.1008 24.5519 37.9094 24.7456 37.718 24.6165C37.8456 23.971 37.9732 23.3256 38.1008 22.6156C38.4199 22.2929 38.6751 22.229 38.8665 22.2929C39.1856 22.0347 39.4408 21.9701 39.696 22.1638C39.8236 22.3574 39.8236 22.5517 39.8236 22.7447C39.8236 22.9383 39.696 23.1319 39.6322 23.3901C39.8874 23.3901 40.0151 23.5199 40.0151 23.7129C39.8874 24.1653 39.696 24.488 39.377 24.681C39.8236 24.8747 39.9512 25.0038 39.9512 25.0683ZM39.4405 26.8109C39.3767 27.1336 39.3128 27.4563 39.1214 27.7152C38.5472 28.3606 38.3557 28.6834 38.4833 28.8763C38.611 29.1352 38.611 29.3927 38.3557 29.7806C38.0367 30.1673 37.7177 30.5545 37.2072 30.9424C37.3348 31.2 37.271 31.4582 36.8881 31.5879C36.5053 31.7809 36.0586 31.9745 35.612 32.1682C36.5053 31.5227 37.0158 30.8127 37.2072 30.0382C37.4624 29.7806 37.7177 29.6515 37.9091 29.5218C38.1005 29.3927 38.1005 29.3927 38.0367 29.3927C37.7815 29.5218 37.5262 29.6515 37.271 29.8445C37.5262 29.3288 37.6538 28.8124 37.7815 28.167C38.2919 27.65 38.611 27.2627 38.7386 27.0045C38.93 26.747 38.93 26.6173 38.7386 26.8761C38.5472 27.1988 38.2281 27.5215 37.8453 27.9727C38.0367 27.3924 38.2281 26.8109 38.3557 26.0363C38.4195 25.6491 38.4195 25.5852 38.2919 25.8427L38.1005 26.5534C37.9729 26.2945 37.9091 26.0363 37.7815 25.9079L38.0367 26.747C37.9729 27.0697 37.9091 27.5854 37.6538 28.167C37.4624 27.65 37.271 27.1336 36.952 26.747C36.6967 26.3591 36.6329 26.3591 36.8243 26.747C37.1434 27.1988 37.3986 27.7791 37.59 28.4897C37.4624 29.1352 37.2072 29.6515 37.0158 30.1034C36.8881 29.8445 36.6967 29.7154 36.5053 29.5863C36.3777 29.5218 36.3777 29.5218 36.5053 29.7154C36.6329 29.8445 36.8243 30.1034 36.8881 30.2318C36.7605 30.6197 36.5053 30.9424 36.2501 31.2652C35.9948 31.5879 35.7396 31.7809 35.4844 31.9745C35.8034 31.4582 35.8672 30.9424 35.8034 30.297C35.8034 30.1673 35.931 30.1034 36.0586 30.0382C36.1863 29.9743 36.2501 29.9091 36.1863 29.8445C36.0586 29.5218 35.9948 29.3288 35.9948 29.1352C36.1225 29.07 36.2501 29.07 36.4415 29.1352C36.5691 29.0061 36.5691 28.8124 36.3777 28.6182C36.1863 28.4245 35.9948 28.1018 35.9948 27.7152C35.9948 27.4563 36.1225 27.3924 36.4415 27.4563C36.5691 27.4563 36.5691 27.2627 36.5053 26.94L36.1225 26.4882C35.8672 25.9718 35.9948 25.7788 36.4415 25.9079L36.952 26.2306C37.3348 26.3591 37.4624 26.1015 37.4624 25.52C37.4624 25.3909 37.59 25.3909 37.7815 25.3909C37.9729 25.4561 38.1643 25.2624 38.3557 24.9391C38.4833 24.7454 38.6748 24.9391 38.7386 25.4561C38.6748 26.1654 38.8662 26.4882 39.249 26.4243C39.4405 26.2945 39.4405 26.4882 39.4405 26.8109ZM34.9758 31.2647C34.7205 31.5874 34.5929 31.9102 34.7205 32.1677C34.3377 32.362 34.0186 32.6847 33.6358 33.0713C33.2529 33.4586 32.9977 33.7813 32.8701 34.0395C32.7425 34.2983 32.4873 34.4268 32.2958 34.492C32.1044 34.6211 31.8492 34.5559 31.5301 34.3622L31.4025 34.8786L30.1264 35.6531L29.4883 35.912C29.5521 35.7829 29.6159 35.5241 29.6159 35.2665L29.8711 35.0722C30.7644 34.6211 31.2749 34.1692 31.4663 33.7168C31.6577 33.3941 31.8492 33.0713 32.1044 32.8783C32.2958 32.6847 32.4873 32.4259 32.5511 32.0392V31.5874L32.4873 31.0711C32.6787 31.3286 32.8701 31.3938 33.0615 31.1995C33.3168 30.6831 33.6358 30.2313 33.9548 29.7802C34.2739 29.3283 34.5929 28.8759 34.9758 28.5531C35.3586 28.1665 35.6138 27.8438 35.8691 27.585V28.1013C35.1034 29.0695 34.5929 29.7802 34.4015 30.1029C33.7634 31.135 33.2529 31.9741 32.9977 32.5556C32.8701 32.8783 32.6149 33.2011 32.3596 33.3302C32.1682 33.4586 31.9768 33.5238 31.913 33.7168C31.8492 33.9104 31.8492 33.9104 32.0406 33.8465C32.1682 33.7168 32.2958 33.5877 32.4873 33.5238C32.8063 33.3941 33.3806 32.6847 34.3377 31.4577V30.7483L34.5291 30.3604C34.5291 30.7483 34.5291 31.0059 34.6567 31.0059C34.7843 31.0711 34.8481 30.942 34.9758 30.6831C35.1034 30.4256 35.4224 29.715 35.9967 28.4892C35.8691 28.8759 35.8691 29.1347 35.9967 29.3922C35.6776 29.5859 35.6138 30.0377 35.7415 30.5541L34.9758 31.2647ZM30.827 37.2024C30.4441 37.1372 29.9337 37.0733 29.168 36.8797L29.8699 36.6209C30.2527 36.7506 30.4441 36.6209 30.5079 36.3627C30.5079 36.6854 30.6355 36.9436 30.827 37.2024ZM32.2931 37.7198C32.6759 37.7837 32.9311 37.7198 33.1864 37.6546C33.5692 37.5261 34.2711 37.0091 35.3558 35.9764C36.4406 35.138 37.3339 34.5564 38.0358 34.2989C38.2272 34.1698 38.291 34.1046 38.0996 33.9761C37.9081 33.9109 37.5891 33.847 37.2063 33.847C37.0786 33.9761 37.0786 34.04 37.2701 34.1046C37.4615 34.1046 37.5891 34.1046 37.6529 34.1698C36.7596 34.6216 35.9939 35.0728 35.4834 35.5898C35.5473 35.267 35.6111 34.75 35.6111 33.9761C35.6111 33.7173 35.4834 33.5243 35.3558 33.3307C35.2282 33.2016 35.292 33.0719 35.6111 32.9428L35.8025 32.8137V33.2655L35.5473 33.1364L35.6749 33.3307C35.8025 33.4591 35.9301 33.5882 36.1215 33.6534L37.2063 33.7173H37.6529C38.2272 33.7173 38.4824 33.847 38.4824 34.1046C38.4824 34.3628 38.4824 34.6216 38.5462 34.8152C38.6738 35.3955 38.8653 35.9764 39.1843 36.4928C39.0567 36.7516 38.9291 37.0091 38.6738 37.3319L37.6529 37.9773C36.7596 38.6228 35.5473 39.4625 34.0797 40.4307C32.9949 40.4946 31.655 40.3655 30.1874 40.1719C29.1027 40.0428 27.8265 39.7852 26.4227 39.3334L26.1037 39.2037L26.2313 39.0746C26.4227 38.7519 26.6141 38.6228 26.6141 38.4943C26.6141 38.3652 26.5503 38.1716 26.4865 37.8489C26.3589 37.4609 25.657 37.0743 25.657 36.6219V36.4928L26.0399 36.4289C26.8694 36.4928 27.6351 36.558 28.2093 36.7516C28.8474 36.8807 29.6131 37.0743 30.5064 37.2034C31.2721 37.5261 31.9102 37.6546 32.2931 37.7198ZM29.4854 41.8496C29.1026 41.8496 28.9111 42.0439 28.8473 42.0439H28.5921C28.2092 41.5269 27.954 41.4623 27.6988 41.2041L26.8055 40.4302C26.9331 40.3011 27.3797 40.365 27.954 40.5587C27.8264 40.5587 29.4854 41.8496 29.4854 41.8496ZM30.2533 41.9783L30.4447 42.0435L30.3171 42.172L29.8066 42.301C29.6152 42.4947 29.2962 42.6238 29.0409 42.689L28.6581 42.6238L28.5305 42.3662C28.6581 42.2371 28.7219 42.172 28.8495 42.1074C28.9771 42.0435 29.1685 41.9783 29.2962 41.9783L29.7428 42.1074L30.2533 41.9783ZM27.6362 41.9149C27.5086 41.7851 27.5086 41.7212 27.5086 41.6561L27.8914 42.044C27.8914 42.044 27.7638 42.044 27.6362 41.9149ZM25.4672 39.0738L25.3395 38.7511L24.8291 39.3965L24.3824 39.7193C24.191 39.8483 23.9996 39.9781 23.7443 39.9129L23.1063 39.5256L23.4891 39.3965L23.6167 39.5256C23.5529 39.7193 23.6167 39.6554 23.872 39.3965L24.51 38.7511C24.5738 38.3644 24.4462 37.912 24.2548 37.3311C24.0634 36.7508 23.872 36.4281 23.8082 36.2344C23.7443 36.1054 23.4891 36.1054 22.9148 36.1054C23.2977 35.9756 23.6805 35.9117 24.1272 36.0402L24.5738 36.2344L24.8291 36.1054L24.7653 36.0402L24.191 35.9756H24.4462L24.6377 36.1693L24.7015 36.2344L24.8291 36.3629C25.4672 37.0735 25.9138 37.5893 25.9776 37.8481C26.1052 38.1056 26.1052 38.3644 26.0414 38.622C25.7862 39.0738 25.5948 39.2029 25.4672 39.0738ZM20.4244 39.7844C19.7863 39.9129 19.0844 40.1071 18.574 40.171C17.1702 40.4299 15.8302 40.6235 14.4903 40.8165C14.1074 40.6874 13.1503 40.171 11.5551 39.2674C10.4065 38.5574 9.57704 37.9765 9.13039 37.5892C8.61993 37.0083 8.4285 36.6856 8.49231 36.5571C8.87516 35.9756 9.06658 35.4599 9.1942 35.0719C9.25801 34.8783 9.25801 34.7492 9.25801 34.6208C9.13039 34.169 9.1942 33.9753 9.57704 33.9101C10.4704 33.8462 11.0446 33.8462 11.3637 33.8462C11.4913 33.8462 11.5551 33.781 11.6189 33.7165L11.9379 33.071L11.8103 32.9419L11.5551 33.3299V32.878C11.5551 32.8129 11.6189 32.7483 11.6827 32.8129C12.257 32.9419 12.5122 33.1356 12.4484 33.3938C12.3208 33.7165 12.1932 34.0392 12.1932 34.3619V35.3947C11.4913 34.9435 10.7894 34.4917 9.95989 34.169C10.0875 34.169 10.1513 34.169 10.2789 34.1038C10.4065 34.1038 10.4704 34.0392 10.5342 33.9753C10.598 33.9101 10.3427 33.8462 10.2151 33.8462C9.83228 33.8462 9.57704 33.9101 9.44943 33.9753C9.32181 34.1038 9.38562 34.169 9.51324 34.3619C10.4704 34.8144 11.2999 35.3301 12.0017 35.7826C13.1503 36.4919 14.0436 37.1374 14.6817 37.5892C15.3198 37.5892 16.1493 37.4601 17.2978 37.331L18.9568 37.0083C19.6587 36.8799 20.3606 36.7508 21.1263 36.621C21.3815 36.5571 21.7644 36.5571 22.211 36.4919C22.5939 36.4919 23.0405 36.428 23.3595 36.3629C23.7424 37.0083 23.9338 37.5892 23.9976 38.0417C24.0614 38.2992 23.9976 38.4283 23.87 38.4283C22.2748 39.2674 21.1263 39.5901 20.4244 39.7844ZM20.8735 40.5586C20.2992 41.1395 19.725 41.6559 18.9593 42.1077L18.704 41.9786C19.0869 41.7211 19.6612 41.3331 20.4269 40.7529L20.8097 40.365H20.6821C20.4269 40.5586 20.1078 40.8168 19.7888 41.0104C19.4697 41.2692 19.0869 41.4622 18.6402 41.6559L18.066 41.9147L18.1936 42.0438L18.6402 42.1077C18.8955 42.2374 19.0231 42.4304 18.9593 42.5602C18.8317 42.7531 18.5764 42.7531 18.3212 42.6892L17.8745 42.4304C17.7469 42.3013 17.4917 42.1077 17.3641 42.0438L17.1727 41.9147L17.3003 41.7211L17.9384 41.9147H18.066L18.0022 41.6559L18.704 41.2692C18.8955 41.204 18.9593 41.1395 18.9593 40.9465L19.0231 40.5586C19.3421 40.6238 19.6612 40.5586 19.9802 40.4301C20.3631 40.3011 20.6821 40.1713 21.0011 40.1074C21.1287 40.2359 21.1287 40.365 20.8735 40.5586ZM18.0657 36.8146L16.9172 37.0083L17.1724 36.2344L18.0657 36.8146ZM13.5352 32.0389L13.7266 31.7801L14.237 32.4901L14.5561 33.0071L14.6837 33.3298C14.4923 33.2007 14.3009 33.071 14.237 32.9419L13.918 32.5553L13.5352 32.0389ZM12.5781 30.1662L12.7057 30.0371L13.28 30.9414L13.2162 31.0705L12.5781 30.1662ZM16.2156 34.8143L15.9604 34.4264C15.8328 34.2979 15.769 34.2979 15.6413 34.3618C15.5137 34.4264 15.3861 34.2979 15.3223 34.1036C14.9395 34.2979 14.6204 34.2327 14.2376 33.8461L13.5995 33.0709L12.9614 31.9736L12.77 31.8445C12.6424 31.9736 12.5148 31.9736 12.3871 31.9736C12.1319 31.9097 11.8129 31.78 11.4938 31.4573C11.3662 31.2643 10.9834 30.5536 10.3453 29.3918C9.51578 27.8434 9.00532 26.6809 8.68628 25.907C8.49486 25.2616 8.30343 24.8097 8.30343 24.68C8.23962 24.5509 8.17582 24.5509 8.17582 24.68C8.17582 24.8097 8.30343 25.1964 8.49486 25.8418C8.68628 26.4234 9.00532 27.2618 9.51578 28.3597C9.96244 29.2627 10.4091 30.1025 10.7919 30.8118C9.83482 29.7145 9.13293 28.7464 8.68628 27.8434C8.23962 26.9391 7.98439 26.1006 7.79297 25.2616V23.9055V22.9373C7.85678 22.7436 7.92058 22.6145 8.0482 22.6791C8.17582 22.6791 8.30343 22.8734 8.62247 23.26C8.94151 23.6473 9.26055 24.487 9.77101 25.8418C10.2815 27.1979 10.5367 28.037 10.6643 28.4888C10.7919 28.8755 10.8557 29.1982 11.0472 29.5209C11.1748 29.8436 11.3024 30.1664 11.43 30.4252C11.6852 30.8764 11.8767 31.2643 12.1319 31.3934C12.4509 31.587 12.7062 31.6509 12.8338 31.5218L12.1319 30.2309C12.0681 30.1664 12.0043 30.1664 11.9405 30.2309H11.6852H11.6214V30.1664C11.6214 30.1664 11.6214 30.1025 11.5576 30.1025C11.5576 30.0373 11.5576 30.0373 11.4938 29.9734V29.7145C11.5576 29.457 11.6214 29.0691 11.7491 28.4888C12.0681 27.5206 12.4509 26.5525 12.9614 25.5191C12.8976 25.9709 12.8976 26.3582 12.8976 26.6164C12.3871 27.7143 12.0043 28.6173 11.8129 29.3279C11.6852 29.8436 11.6852 30.0373 11.8129 30.0373L11.9405 29.9082L11.8129 29.6506L11.9405 29.457L12.1957 29.8436L12.3233 29.7145L12.4509 29.8436L12.3233 29.9734L13.2166 31.2643L13.4081 31.1345L13.5357 31.2643C13.2804 31.5218 13.1528 31.7161 13.2166 31.78C13.4719 32.2325 13.6633 32.5552 13.8547 32.8779C14.2376 33.4582 14.5566 33.6525 14.8118 33.3936C14.9395 33.3297 14.9395 33.3297 15.1309 33.4582C15.2585 33.5873 15.3861 33.7809 15.5137 34.1036V33.6525L14.8118 32.9418L14.429 32.1027C14.0461 31.587 13.8547 31.1991 13.7271 30.9416C13.5995 30.6827 13.4081 30.36 13.1528 29.9734C12.9614 29.5855 12.7062 29.1982 12.3233 28.7464L12.3871 28.5527L13.0252 29.3279C13.5995 30.0373 13.9823 30.6188 14.1738 31.0055C14.429 31.3934 14.5566 31.4573 14.5566 31.2643L14.6842 30.8764L14.8118 31.0055V31.78L14.748 32.0388C14.748 32.2325 14.748 32.3616 14.8756 32.3616C15.0033 32.4255 15.0033 32.49 15.0671 32.7482C15.1309 32.8779 15.3223 33.1355 15.7051 33.5873C16.088 33.9752 16.4708 34.3618 16.8537 34.6845C17.2365 35.0073 17.6194 35.2009 17.8746 35.3945C18.1298 35.5236 18.2575 35.7825 18.2575 35.9116L18.6403 35.9755L18.5127 35.5236L18.7679 35.4597C18.8955 35.5888 18.9593 35.6527 19.087 35.9116C19.4698 36.1691 19.725 36.3627 19.9803 36.557L19.087 36.6855L17.6194 35.7825C17.6194 35.8464 16.2156 34.8143 16.2156 34.8143ZM9.96046 19.8393C9.83285 20.9372 9.70523 21.7756 9.57762 22.292L9.45 22.1629C9.45 22.0338 9.57762 21.1947 9.96046 19.8393ZM10.6008 25.7777C10.6008 25.5189 10.5369 25.3898 10.4731 25.2613C10.4093 25.1962 10.3455 25.0671 10.3455 24.8734L10.0903 24.0989C9.96267 23.7116 9.89886 23.4534 9.83506 23.1959C9.77125 23.1959 9.77125 23.1307 9.70744 23.1307C9.3884 23.0016 9.13317 22.7434 9.00555 22.3562C8.87794 21.9689 8.68651 21.4525 8.5589 20.8716C8.43128 20.2913 8.36747 19.5162 8.43128 18.6125C8.49509 17.5798 8.62271 16.6116 8.87794 15.6434C9.19698 14.288 9.89886 13.0616 10.856 11.8352C11.0474 11.5777 11.2388 11.5125 11.2388 11.7062C11.3026 12.2232 11.3026 12.7389 11.2388 13.2552C11.175 13.7716 11.0474 14.288 10.856 14.9334C10.3455 16.6762 10.0265 17.838 9.96267 18.4189C9.77125 19.1289 9.57982 20.0325 9.32459 21.1298C9.19698 20.5489 9.26078 19.4516 9.51602 17.6443C9.77125 15.8371 10.0265 14.6752 10.4093 13.9007C10.5369 13.5141 10.5369 13.4489 10.4093 13.7716C9.57982 15.1916 9.13317 17.1925 9.00555 19.9034C8.94175 20.8071 9.06936 21.5823 9.13317 21.9689C9.26078 22.3562 9.45221 22.6143 9.57982 22.6789C9.64363 22.7434 9.70744 22.7434 9.70744 22.7434C9.77125 22.7434 9.83506 22.7434 9.83506 22.6789C9.96267 22.1625 9.96267 21.7752 9.96267 21.4525C10.0265 21.1298 10.0265 20.8071 10.0903 20.3552C10.1541 19.9034 10.2179 19.5807 10.3455 19.3232L10.4731 19.4516C10.3455 20.0971 10.3455 20.4843 10.3455 20.7425C10.3455 21.0007 10.3455 21.1943 10.2817 21.4525C10.2179 21.7107 10.2179 22.1625 10.1541 22.8732C10.3455 22.2916 10.4731 21.7752 10.6646 21.3234L11.3026 19.5162L12.0683 17.5798C12.515 16.6762 13.0893 15.7732 13.9188 14.6107C14.3654 14.0298 14.8121 13.7716 15.1311 13.7071C15.2587 13.8368 15.2587 14.0943 15.1311 14.5462C15.0035 14.9334 15.0035 15.3852 14.7483 15.8371H14.8759C14.3654 15.9662 14.6206 16.1598 14.493 16.2243C14.493 16.2889 14.3654 16.3534 14.3654 16.3534C14.2378 16.4825 14.174 16.6762 14.1102 16.7413C14.1102 16.8052 14.0464 16.8052 13.9826 16.8698C13.855 16.9989 13.855 17.128 13.7273 17.2571C13.7273 17.3216 13.6635 17.3216 13.6635 17.3868C13.5359 17.5152 13.5359 17.5798 13.4083 17.7734L13.3445 17.9025C13.2807 18.0323 13.2169 18.0962 13.1531 18.2252C13.0893 18.2898 13.0893 18.355 13.0255 18.355C12.9616 18.4189 12.8978 18.4834 12.834 18.548C12.7702 18.6125 12.7064 18.6777 12.7064 18.6777C12.6426 18.7416 12.5788 18.8062 12.515 18.8707C12.4512 18.9352 12.3874 19.0004 12.3874 19.0004L12.0683 19.3232L13.4721 17.128L14.1102 15.9662C14.3654 15.5143 14.4292 15.3207 14.2378 15.5143C12.8978 17.5152 12.0683 18.8062 11.8131 19.3232C11.6217 19.8389 11.3664 20.2913 11.1112 20.7425C10.856 21.1943 10.7284 21.5823 10.6008 21.8398C10.4731 22.098 10.3455 22.5504 10.0903 23.1959C10.0903 23.3243 10.2179 23.6471 10.3455 24.228C10.4731 24.8095 10.6646 25.1323 10.7284 25.2613C10.856 25.3898 10.856 25.455 10.7922 25.5841C10.7284 25.7125 10.7922 25.9068 10.9198 26.2295C10.9836 26.4871 11.1112 26.9389 11.3664 27.5204L11.3026 27.7141C11.0474 27.0034 10.856 26.358 10.6008 25.7777ZM13.2815 11.1256C13.4729 10.6738 13.8557 10.1575 14.2386 9.51201C14.3662 9.18928 14.3024 9.18928 14.0472 9.51201C13.4091 10.3511 12.6434 11.642 11.8139 13.3847L12.1967 12.4166C12.2605 12.2236 12.452 11.7711 12.8348 10.9966C13.2177 10.222 13.5367 9.64174 13.9195 9.18928C14.3024 8.73746 14.4938 8.47928 14.6214 8.28564C15.0681 7.89837 15.3871 7.64019 15.4509 7.70538C15.5147 7.76928 15.5785 7.83382 15.5147 7.96291L14.5576 10.4802C13.9195 11.7066 13.09 12.9975 12.0691 14.3529C11.6225 14.8054 11.3672 15.1281 11.2396 15.2566C11.112 15.3856 11.0482 15.5147 10.9844 15.6438V15.3211L11.3672 14.6756C11.8777 13.9656 12.5796 12.7393 13.2815 11.1256ZM10.343 18.3552C10.4706 17.7097 10.5344 17.1927 10.7258 16.6764L10.8534 16.87L10.343 18.3552ZM11.0449 19.3236L10.662 20.4203L10.343 21.3239L10.4706 20.5494L10.5982 19.9691L10.7258 19.3875L11.0449 19.3236ZM11.8751 17.0643C11.6198 17.58 11.3646 18.0324 11.237 18.4836H11.1094L11.4922 17.1927L11.8751 17.0643ZM16.2133 9.8996C16.4047 9.77051 16.5961 9.77051 16.66 9.77051C16.7238 9.8996 16.7238 10.0932 16.7238 10.3514C16.66 10.6102 16.5323 11.0614 16.2133 11.7714L15.5114 13.1921C15.0009 13.256 14.4905 13.5148 14.0438 13.9014C14.2991 13.5148 14.5543 12.9978 14.9371 12.4814C15.32 11.9651 15.8304 11.126 16.5323 10.0932C16.66 9.8996 16.66 9.83505 16.5323 9.96479C16.4047 10.0932 16.1495 10.416 15.639 11.126C15.1286 11.836 14.4905 12.8041 13.7248 14.2241C13.661 14.3532 13.5972 14.483 13.4696 14.6114C13.1505 15.0632 12.7039 15.7739 12.0658 16.806C12.002 16.8705 11.8106 16.9351 11.4277 16.9351L10.7896 18.8714C10.8534 19.0012 10.981 18.936 11.3001 18.7423C11.1725 19.0012 10.981 19.1296 10.662 19.1296L10.5344 19.0012L10.343 18.8069V18.6784H10.4706L11.1725 16.9351L10.7896 16.4193L10.9172 16.0966C11.0449 16.3541 11.1725 16.4832 11.3001 16.5478C11.4915 16.1605 11.7467 15.7087 12.1296 15.1284C12.5124 14.5469 12.8953 13.9014 13.3419 13.1921V13.0623C13.3419 12.9332 13.4057 12.9332 13.4696 13.0623L14.4267 11.6423L13.5972 13.0623C13.7248 13.1921 13.661 13.3205 13.4696 13.3851C12.5762 14.5469 12.002 15.6441 11.5553 16.7421L11.7467 16.806C11.8744 16.8705 12.002 16.806 12.1296 16.6769L13.3419 14.483L14.4905 12.2878C14.9371 11.2557 15.5114 10.4805 16.2133 9.8996ZM17.4911 7.70466C18.193 7.05921 19.0863 6.60674 20.1072 6.28402C20.6177 6.15493 21.0005 6.09103 21.3834 6.15493C21.511 6.21947 21.5748 6.28402 21.511 6.47765L21.0643 7.05921C20.6815 7.12311 20.171 7.31674 19.4691 7.70466C18.831 8.09129 18.0653 8.60765 17.2996 9.25311L17.0444 9.3822C16.9168 9.25311 16.6616 9.3183 16.2787 9.51129C17.4911 8.47856 18.512 7.70466 19.4691 7.18765C20.0434 6.86493 20.3624 6.67129 20.49 6.5422C20.171 6.67129 19.7882 6.80038 19.2777 7.12311C18.7672 7.44584 17.8739 8.02739 16.6616 8.93038L15.4492 10.0922C16.0235 9.05947 16.7254 8.28493 17.4911 7.70466ZM21.8942 7.25287C21.8942 7.51105 21.7666 7.76924 21.4475 8.09196C21.0009 8.47924 20.299 8.93105 19.6609 9.25378C18.959 9.6417 17.9381 10.0283 16.9172 10.5447V10.4156C18.4486 9.38287 19.5971 8.54378 20.6819 7.96287C21.0009 7.76924 21.0009 7.70534 20.618 7.83378C20.2352 8.02806 19.7885 8.2856 19.3419 8.54378L17.0448 10.0929V9.83469C18.5124 8.47924 19.7885 7.64015 20.7457 7.25287C21.2561 7.12378 21.5752 7.12378 21.8942 7.25287ZM12.8967 28.7468L12.45 28.1665L12.769 27.392C12.769 27.9077 12.8328 28.295 12.8967 28.7468ZM11.6181 27.1332C11.8095 26.1651 12.32 25.133 13.0857 24.0996C12.8942 24.616 12.8942 25.0032 12.8942 25.326C12.32 26.3587 11.8733 27.3269 11.5543 28.2951C11.4267 28.6178 11.4267 28.9405 11.3629 29.3923C11.299 28.876 11.3629 28.1014 11.6181 27.1332ZM13.4071 23.7769C13.6623 22.6796 13.9813 22.0987 14.1728 22.0342C14.3004 22.4215 14.428 23.1315 14.5556 24.2287C14.6832 25.2621 14.6832 26.2303 14.5556 27.0694C14.428 28.1666 14.2366 28.876 14.0451 29.2633L13.7899 29.8442C13.7899 29.0057 13.7899 28.3603 13.8537 27.8439C13.8537 27.3269 13.9175 26.6815 13.9175 25.7785C13.9175 24.8742 13.9813 23.906 14.0451 22.8087C14.109 22.5512 14.109 22.486 13.9813 22.6796C13.7899 23.7769 13.5985 25.1969 13.5985 26.9396V28.1015L13.5347 29.4576L13.2795 29.1348C13.088 28.2305 13.0242 27.1985 13.0242 26.1651C13.0242 25.4557 13.1518 24.616 13.4071 23.7769ZM14.9375 22.8085C15.0652 22.744 15.129 22.8737 15.0652 23.0667L14.6823 23.6476C14.6185 23.454 14.6185 23.2604 14.5547 23.0667C14.6823 22.9376 14.8099 22.8737 14.9375 22.8085ZM15.1928 23.9056C15.129 24.5511 15.0652 25.2617 14.8099 26.1008C14.8099 25.3902 14.7461 24.8738 14.6823 24.6156L14.8099 24.0993C14.8099 23.9702 14.8099 23.9702 14.6823 24.0993L14.5547 24.2929V23.9056L14.8737 23.519C15.1928 23.3893 15.1928 23.519 15.1928 23.9056ZM18.6394 35.1373C18.448 35.2664 18.2566 35.2664 18.0651 35.1373L17.7461 34.8785C17.8737 34.621 18.0013 34.4919 18.1289 34.621L18.448 34.8785C18.5118 34.8785 18.6394 35.1373 18.6394 35.1373ZM17.7453 34.362C17.873 34.2981 18.0006 34.2981 18.1282 34.4266L19.0853 34.8784L20.7443 35.5239C21.1272 35.9118 21.3824 36.2345 21.4462 36.4281C21.1272 36.492 20.8081 36.492 20.3615 36.5572L19.4682 35.9118C19.0853 35.5239 18.8301 35.2011 18.7025 35.0075C18.5748 34.8145 18.3834 34.6848 18.2558 34.6209C18.0644 34.4918 17.873 34.4918 17.7453 34.4918C17.6177 34.5557 17.5539 34.6209 17.4263 34.8784L17.3625 34.8145C17.5539 34.4918 17.6177 34.362 17.7453 34.362ZM28.3391 36.4283C28.2115 36.4283 28.1477 36.4922 28.0201 36.5574L27.382 36.4283L28.0839 36.0404L28.2115 36.3632L28.3391 36.4283ZM28.273 36.0404C28.2092 35.8467 28.273 35.6531 28.5282 35.4601C28.7197 35.3304 28.9749 35.2013 29.2301 35.2665C29.3577 35.2665 29.3577 35.4601 29.2301 35.8467C29.1663 35.9758 28.8473 36.2347 28.3368 36.4283L28.273 36.0404ZM26.6792 35.8469C26.8068 35.6533 27.062 35.4603 27.3173 35.3306C28.4658 34.7497 29.2315 34.4269 29.5505 34.3624C29.6144 34.2985 29.6782 34.3624 29.6782 34.4269L29.8058 34.6212L29.6144 34.7497C29.4867 34.8788 29.2953 34.8788 29.1039 34.8788C28.9763 34.8788 28.721 34.9439 28.402 35.0078C28.083 35.1376 27.9554 35.3306 27.9554 35.5242C27.8915 35.6533 27.8277 35.783 27.7639 35.8469C27.4449 35.976 27.1897 36.1697 26.9982 36.2349L26.3602 36.1697C26.424 36.2349 26.6792 35.8469 26.6792 35.8469ZM32.6773 30.5543C32.8049 30.5543 33.0601 30.6834 33.0601 30.7486C32.9963 30.877 32.9325 31.1352 32.8049 31.1352C32.6773 31.1352 32.422 31.0061 32.422 30.7486C32.3582 30.6195 32.5497 30.5543 32.6773 30.5543ZM33.8282 28.553C33.7644 28.4891 33.5092 28.2948 33.1902 27.9721C32.8711 27.6493 32.7435 27.3918 32.8711 27.1982C32.7435 27.0691 32.7435 26.9393 32.6159 26.8103C32.5521 26.6812 32.5521 26.4875 32.6797 26.3584C32.8073 26.23 33.0626 26.23 33.3816 26.5527C33.4454 26.3584 33.4454 26.1009 33.3816 25.9073C33.3178 25.713 33.254 25.5193 33.1264 25.2618C32.9987 24.9384 32.7435 24.6803 32.6159 24.4221C32.4883 24.0993 32.4883 23.9703 32.4883 23.9057C32.6159 23.8418 32.6797 23.9057 32.8711 24.0348C33.1902 23.6475 33.4454 23.583 33.5092 23.7121C33.6368 23.8418 33.7006 24.0993 33.7644 24.4873C33.8282 24.8739 33.8282 25.1966 33.7644 25.6484L33.6368 25.7782L33.7644 25.9073C33.8282 26.0357 33.7644 26.2939 33.6368 26.8103C33.6368 26.9393 33.7006 27.0039 33.7644 27.133C33.7006 27.0039 33.7006 26.8754 33.7644 26.7464C33.7644 26.6812 33.8282 26.5527 33.8921 26.2939C33.9559 26.0357 34.0197 25.9073 34.0197 25.9073C34.0197 25.9073 34.0197 25.8421 33.8921 25.8421C34.0197 25.7782 34.0197 25.713 34.0197 25.713C34.0835 25.6484 34.0835 25.5845 34.0197 25.5193C34.0197 25.4554 33.9559 25.2618 33.9559 24.8739C33.9559 24.4873 33.8921 24.2284 33.8282 24.0993C33.7644 23.9703 33.7006 23.7766 33.7006 23.7121C33.7006 23.6475 33.573 23.583 33.4454 23.583C33.3178 23.583 33.0626 23.7121 32.8073 24.0348C32.9349 23.4539 33.0626 23.0666 33.1902 22.8736C33.3178 22.6793 33.4454 22.6148 33.573 22.7439C33.7006 22.8736 33.7644 22.8736 33.8282 23.0021C33.8921 23.1312 33.9559 23.0666 33.9559 22.9375C34.0835 22.8084 34.0835 22.8084 34.1473 22.8084C34.2111 22.8736 34.2749 22.9375 34.2749 23.0666C34.3387 23.1964 34.4025 23.3248 34.4025 23.4539C34.4663 23.583 34.4663 23.8418 34.4663 24.1645C34.4663 24.4873 34.4663 24.7448 34.3387 24.8739C34.2111 25.003 34.2111 25.1327 34.2111 25.3257C34.2749 25.9712 34.3387 26.3584 34.3387 26.3584C34.4663 26.3584 34.4663 26.2939 34.6577 26.23C34.7854 26.1009 34.8492 26.1009 34.9768 26.1009C35.1044 26.1648 35.1044 26.2939 35.1044 26.6812C35.1044 27.0691 35.1682 27.0691 35.232 26.8103C35.2958 26.4875 35.3596 26.4236 35.5511 26.4236C35.6787 26.4236 35.6787 26.8103 35.6787 27.5848C35.1682 28.0373 34.7854 28.4891 34.5301 28.7466C34.4025 28.4239 34.4025 28.1664 34.5301 28.0373C34.5939 27.9075 34.6577 27.7784 34.7216 27.5848L34.8492 27.133C34.9768 26.8103 34.9768 26.7464 34.7854 27.0039C34.6577 27.133 34.6577 27.3266 34.5939 27.3918C34.5301 27.4557 34.5939 27.4557 34.5939 27.5848C34.5301 27.3918 34.4663 27.0039 34.3387 26.4236C34.2111 26.0357 34.2111 26.0357 34.2111 26.4236C34.3387 27.0691 34.3387 27.6493 34.4025 28.2303C34.2111 27.9721 33.9559 27.7784 33.7644 27.5848C33.5092 27.4557 33.3816 27.1982 33.1264 27.0039C32.9987 26.8754 32.9987 26.8754 32.9987 27.0691C33.1264 27.2621 33.3816 27.5209 33.7006 27.8436C34.0197 28.1664 34.2111 28.2948 34.2749 28.4239C34.3387 28.553 34.4025 28.553 34.4025 28.6827C34.2749 28.8118 34.1473 29.0054 34.0197 29.1984C33.8921 29.1345 33.8921 29.0693 33.8921 28.9403C33.8921 28.6827 33.8282 28.6175 33.8282 28.553ZM37.2717 22.8741C37.3993 22.8089 37.5269 22.8741 37.6545 22.8741C37.4631 23.9062 37.2717 25.0034 37.0802 25.7134L36.825 25.585C37.144 24.5516 37.2078 23.4544 37.2717 22.8741ZM36.634 21.9053C36.5064 21.711 36.2512 21.3883 35.9959 21.001C35.7407 20.6144 35.5493 20.2265 35.4216 19.9689C35.294 19.7101 35.294 19.4519 35.3578 19.1292C35.4855 18.871 35.4855 18.6128 35.5493 18.4838C35.6131 18.3553 35.6131 18.3553 35.5493 18.3553C35.4216 18.6128 35.294 18.9356 35.1664 19.1938L34.7836 18.0326C34.8474 17.5801 35.0388 16.9992 35.4855 16.2892C35.6131 16.031 35.6131 16.031 35.4216 16.2247C35.0388 16.7417 34.7836 17.3219 34.656 17.8383L34.0179 16.4189C34.0179 16.1601 34.1455 15.7083 34.4645 14.9983C34.5921 14.611 34.5921 14.611 34.3369 15.0628C34.1455 15.4508 33.9541 15.8374 33.8903 16.2247C33.6988 15.4508 33.5074 14.8053 33.3798 14.2883L33.2522 14.2238L33.3798 14.4174C33.5074 15.0628 33.635 15.6438 33.8265 16.1601C33.5712 15.9665 33.316 15.7735 32.9331 15.5792C32.8055 15.4508 32.8055 15.5147 32.9331 15.6438C33.316 15.8374 33.5712 16.0962 33.8265 16.2892C33.9541 16.6765 34.1455 16.9992 34.2731 17.3219C34.0179 17.1928 33.635 16.9347 33.0608 16.6765C32.8693 16.6119 32.8693 16.6765 33.0608 16.8056C33.7626 17.1283 34.2093 17.3871 34.4007 17.7099L34.7836 18.8065C34.656 18.8065 34.4007 18.6128 34.2093 18.161C34.0179 17.7738 33.5074 17.451 32.7417 17.0644C32.6141 16.9992 32.4865 16.8701 32.5503 16.6765C32.6141 16.5474 32.6779 16.4828 32.9969 16.5474C32.8693 16.3538 32.8693 16.1601 32.7417 16.031L32.6141 15.7735C32.4227 15.321 32.4865 15.128 32.9969 15.128C32.8693 14.8692 32.7417 14.6756 32.8693 14.4826C32.8693 14.2238 32.9331 13.9656 32.9969 13.7719C33.1246 13.6428 33.1246 13.4492 33.1246 13.3201C33.3798 13.4492 33.5712 13.5783 33.7626 13.7074C33.9541 13.8371 34.0817 13.9656 34.0817 14.2883L33.9541 14.9338C34.0179 15.0628 34.0817 15.0628 34.2731 14.8053C34.4007 14.5465 34.5921 14.4174 34.656 14.4174C34.7836 14.4826 34.975 14.611 35.0388 14.8053C35.1664 15.0628 35.1664 15.5147 34.9112 16.2247L34.7198 16.8056C35.1664 16.1601 35.5493 15.9019 35.8045 15.9019C35.9321 15.9665 35.9321 16.0962 35.9321 16.2892C35.8683 16.4828 35.8683 16.6765 35.9321 16.9347C35.9959 17.1283 35.8683 17.3219 35.7407 17.5156C35.5493 17.6447 35.4216 17.9028 35.3578 18.2901C35.7407 17.9674 35.9959 18.0326 35.8683 18.4192L35.6131 19.3235C35.5493 19.7101 35.6131 19.9689 35.8045 19.9038C35.9959 19.8392 36.1235 19.9038 36.1873 20.0328C36.2512 20.1619 36.2512 20.2265 36.2512 20.4201C36.1235 20.6783 36.1235 20.8719 36.1235 21.001C36.1235 21.1301 36.1873 21.1301 36.2512 21.1947C36.315 21.2599 36.4426 21.2599 36.634 21.1301C36.8254 21.001 36.953 21.0656 36.953 21.2599V21.9053C36.953 22.0983 37.0168 22.2919 37.1445 22.4856C37.2721 22.6147 37.3359 22.6792 37.5273 22.7438L37.7187 22.5508V23.0019H37.2721C36.953 22.421 36.8254 22.0983 36.634 21.9053ZM31.8478 11.9012C31.8478 11.7715 31.9755 11.6424 32.2307 11.6424C32.5497 11.6424 32.6135 11.5133 32.3583 11.3842C31.9755 11.2557 31.6564 10.9969 31.4012 10.7387C31.2736 10.5451 31.2736 10.3515 31.4012 10.2876L31.7202 10.1578L31.8478 10.0287L31.7202 9.31937C31.6564 8.93146 31.784 8.67392 32.0393 8.54418C32.4221 8.47964 32.7411 8.60873 33.124 8.86691C33.124 8.67392 33.2516 8.60873 33.5068 8.73782C33.7621 8.80236 33.9535 9.31937 34.1449 10.2224L34.464 10.3515C34.5916 10.0933 34.6554 9.96483 34.7192 9.96483C34.8468 9.96483 34.9106 10.1578 35.0382 10.6103C35.2935 10.8678 35.4211 11.2557 35.4211 11.7715C35.2935 11.9651 35.1658 12.2878 35.1658 12.6105L35.0382 12.2239C34.9106 11.836 34.9106 11.3842 34.9106 10.9969C34.9106 10.8033 34.8468 10.8033 34.8468 10.9969C34.783 11.3842 34.783 11.7069 34.8468 11.9651C34.464 11.5133 34.1449 11.0615 33.6983 10.7387C33.5706 10.416 33.5706 10.0933 33.5706 9.77055C33.5068 9.44782 33.5068 9.38327 33.443 9.57691C33.3792 9.96483 33.443 10.3515 33.5068 10.7387C33.1878 10.416 32.8688 9.96483 32.4221 9.38327C32.2945 9.18964 32.2945 9.18964 32.2945 9.25418C32.5497 9.706 32.805 10.1578 33.0602 10.416C33.3154 10.7387 33.5706 10.9969 33.6983 11.1905C33.3154 11.0615 33.0602 11.0615 32.805 10.9969C32.5497 10.933 32.3583 10.8678 32.1031 10.8033C31.9116 10.7387 31.9116 10.8033 32.1031 10.933C32.2307 11.0615 32.4859 11.0615 32.805 11.126C33.1878 11.1905 33.5068 11.2557 33.8259 11.5133C33.9535 11.6424 34.2087 11.9012 34.5278 12.3524L34.783 12.8694C34.4002 12.6751 34.0173 12.4815 33.5706 12.4815C33.124 12.3524 32.8688 12.3524 32.805 12.2878C32.4221 12.1587 32.4221 12.1587 32.6773 12.3524C32.805 12.4815 33.0602 12.4815 33.5068 12.6105C33.9535 12.7396 34.464 12.9333 34.9106 13.1921L34.9744 13.3205C34.8468 13.4496 34.8468 13.5787 34.8468 13.7724L34.9744 14.1603C34.8468 14.0305 34.6554 14.0305 34.464 14.3533C34.5916 14.2242 34.5278 14.0305 34.4002 13.9015C34.2087 13.6433 33.7621 13.3205 33.0602 12.9978L32.9326 13.1921C32.2945 12.8042 31.9755 12.4169 31.8478 11.9012ZM31.4012 11.5781C30.6993 11.5781 30.5079 11.5781 30.5079 11.4484C30.4441 11.3193 30.4441 11.3193 30.6993 11.1257L30.8269 10.9327C30.4441 10.7384 29.9974 10.5448 29.9336 9.96449L30.3164 9.83475C30.4441 9.64176 30.4441 9.51203 30.3164 9.44748C30.1888 9.31904 30.0612 9.06021 30.0612 8.73748C30.1888 8.41475 30.5717 8.41475 31.1459 8.73748C31.4012 8.22112 31.7202 8.09203 32.0393 8.28566C31.6564 8.28566 31.4012 8.41475 31.4012 8.80203C31.3374 8.99631 31.3374 9.25384 31.4012 9.57657C31.2736 9.38294 31.0821 9.1893 30.9545 9.12475C30.5717 8.93112 30.5717 8.99631 30.7631 9.1893C30.9545 9.38294 31.1459 9.64176 31.4012 9.8993C31.0821 10.1575 30.7631 10.2872 30.4441 10.222C30.3164 10.2872 30.3164 10.3511 30.5079 10.3511C30.6355 10.4157 30.8907 10.4157 31.0821 10.2872C31.0183 10.4802 31.1459 10.8675 31.2098 11.0611C31.2736 11.2554 31.5288 11.4484 31.7202 11.5129C31.5288 11.3838 31.465 11.4484 31.4012 11.5781ZM29.8064 9.64178L29.1683 9.4475L29.2321 8.99633L28.8492 9.06023C28.4664 9.18932 28.1474 9.06023 27.7645 8.7375C27.5093 8.80205 27.3817 8.6736 27.4455 8.47932C27.5731 8.28568 27.5093 8.15659 27.3179 8.15659L26.7436 8.22114C26.3607 8.15659 26.1055 8.09205 26.0417 7.89841C25.9141 7.76932 25.9779 7.57568 26.1693 7.38269C25.7865 7.25296 25.595 7.05997 25.5312 6.93023C25.4036 6.80114 25.4674 6.6075 25.6589 6.54296C25.8503 6.47841 26.2331 6.41451 26.7436 6.47841C26.616 6.34932 26.616 6.15568 26.616 6.02659C26.616 5.8975 26.9988 5.96205 27.6369 6.28477L28.0197 6.54296C28.1474 6.34932 28.3388 6.28477 28.5302 6.41451C28.8492 6.54296 29.1045 6.73724 29.4235 6.93023C29.6787 7.12387 29.9978 7.44659 30.3168 7.83387C30.5721 7.64023 30.7635 7.70542 30.9549 7.96296L31.0187 8.41477C30.6997 8.15659 30.3806 8.09205 29.934 8.35087L29.7426 8.22114C29.3597 7.76932 29.1045 7.38269 29.0407 7.12387C28.9131 6.80114 28.9131 6.80114 28.9131 6.99477C28.9131 7.25296 29.0407 7.64023 29.3597 8.02815C28.7854 7.83387 28.3388 7.64023 28.0836 7.3175C27.8283 6.99477 27.6369 6.80114 27.4455 6.6075C27.3179 6.34932 27.254 6.34932 27.3179 6.6075C27.4455 6.93023 27.7007 7.18841 27.9559 7.44659C27.7645 7.3175 27.5731 7.25296 27.3179 7.18841C26.8712 6.99477 26.4245 6.86568 26.1693 6.86568C26.0417 6.86568 26.0417 6.93023 26.1693 6.99477C26.6798 7.12387 27.0626 7.25296 27.3179 7.38269C27.5731 7.51114 27.7007 7.57568 27.7645 7.70542C27.3817 7.83387 26.9988 7.96296 26.616 7.89841H26.2331C26.2969 7.96296 26.3607 7.96296 26.4884 8.02815C26.935 8.09205 27.4455 8.02815 27.8921 7.89841C28.275 8.09205 28.6578 8.28568 29.1045 8.41477C28.7854 8.47932 28.5302 8.60841 28.2112 8.80205C28.0836 8.93114 28.1474 8.93114 28.3388 8.80205C28.5302 8.6736 28.8492 8.54386 29.2959 8.47932L29.6787 8.60841C29.6149 8.99633 29.7426 9.31906 29.934 9.70568H29.8064V9.64178ZM35.4223 12.1589C35.5499 11.9652 35.5499 11.7716 35.6137 11.7071C35.6775 11.5786 35.7413 11.5786 35.9965 11.6425C36.1879 11.7716 36.507 12.0943 36.9536 12.7398C37.1451 12.4816 37.3365 12.6107 37.5917 12.998C37.847 13.3852 37.9108 13.8377 37.847 14.3534C38.3574 14.0952 38.485 14.2243 38.3574 14.8698C38.5488 15.3216 38.7403 15.6443 38.7403 15.9025C38.8041 16.1607 38.7403 16.3543 38.6126 16.548C38.485 16.7422 38.4212 16.9352 38.485 16.9998C38.485 17.1289 38.5488 17.1289 38.6126 16.9998C38.6765 16.8707 38.8679 16.8061 39.1231 16.6771C39.2507 17.065 39.3783 17.3225 39.3145 17.3877C39.3145 17.5161 39.1869 17.7104 39.0593 17.8389C38.9317 17.968 38.8041 18.2261 38.7403 18.4843C38.7403 18.6134 38.8041 18.6134 38.8679 18.6134L39.2507 18.4843C39.4422 18.4198 39.4422 18.6134 39.2507 18.9361C39.0593 19.3241 38.9317 19.5816 38.8679 19.8398C38.7403 20.098 38.7403 20.2271 38.7403 20.4207C38.7403 20.7434 38.6765 20.8725 38.6126 20.9377C38.6765 20.5498 38.6126 20.1625 38.5488 19.7752C38.485 19.388 38.4212 18.8716 38.2936 18.3559C38.4212 18.2261 38.5488 17.968 38.7403 17.4516C38.8679 17.1934 38.8041 17.1289 38.6765 17.3225C38.5488 17.7104 38.3574 17.968 38.2298 18.0332C38.1022 17.5161 37.9108 16.9352 37.7831 16.2252C37.9746 15.9025 38.1022 15.4513 38.166 14.9989C38.166 14.6116 38.166 14.5471 38.0384 14.8698C37.9108 15.3861 37.847 15.7741 37.5917 16.0316C37.4641 15.4513 37.2089 14.9343 37.0175 14.418C37.0813 14.1604 37.1451 13.7725 37.1451 13.4498C37.1451 13.0625 37.0813 13.0625 37.0175 13.3852C37.0175 13.6434 36.9536 13.9016 36.8898 14.0952L36.4432 12.9334L36.1879 12.288C36.0603 12.0943 36.0603 12.0943 36.0603 12.288L36.3156 13.1271C36.1241 12.9334 35.9327 12.7398 35.7413 12.6107C35.6137 12.4816 35.5499 12.4816 35.6137 12.6107C35.9327 12.8695 36.1879 13.1271 36.3794 13.4498C36.507 13.8377 36.7622 14.3534 36.8898 14.8059C36.3794 14.418 35.9965 14.1604 35.8051 14.0952C35.5499 13.9661 35.5499 14.0307 35.8051 14.2243C36.1879 14.418 36.5708 14.8698 37.0813 15.3861C37.2089 15.838 37.4003 16.2898 37.5279 16.7422C37.2727 16.6125 36.9536 16.2898 36.6346 15.838C36.507 15.7089 36.507 15.7089 36.6346 15.9671C36.9536 16.4195 37.2727 16.8061 37.6555 17.1289L37.9746 18.3559C37.6555 18.0332 37.2727 17.7104 36.826 17.4516C36.6346 17.3225 36.6346 17.3225 36.7622 17.5807C37.1451 17.9034 37.6555 18.3559 38.1022 18.9361C38.2298 19.3241 38.2936 20.0334 38.2298 21.0016C38.2298 21.2604 38.0384 21.4534 37.6555 21.5832V21.6471L37.5917 22.0989C37.3365 22.0989 37.2089 21.9698 37.2089 21.5832C37.2089 21.1952 37.2089 20.9377 37.1451 20.7434C37.0175 20.4852 36.9536 20.3561 36.826 20.3561C36.6984 20.2922 36.4432 19.7107 36.1241 18.3559H36.507C36.826 19.5171 37.0813 20.0334 37.2089 20.1625C37.4003 20.2922 37.4641 20.3561 37.4641 20.4852C37.4641 20.615 37.4641 20.8725 37.5917 21.1952C37.847 21.1307 37.9746 20.8725 37.9746 20.5498C37.9746 20.2271 37.9108 19.9043 37.6555 19.7752C37.4003 19.6468 37.2089 19.4525 37.2089 19.3241C37.0813 19.1298 37.2089 18.9361 37.4641 18.9361C37.5917 18.8071 37.2727 18.5489 36.3794 17.968C35.9327 17.6452 35.8051 17.3877 35.9965 17.1289C36.0603 16.9998 36.1879 16.9998 36.3794 17.1289C36.5708 17.258 36.6984 17.258 36.7622 17.258C36.8898 17.065 36.7622 16.9352 36.5708 16.8707C36.3156 16.8061 36.1879 16.7422 36.1879 16.6125V15.7741C36.2518 15.6443 36.1879 15.4513 36.1241 15.2571C35.9965 15.0634 35.7413 15.0634 35.2946 15.3216C35.4223 15.1286 35.4223 14.8698 35.3584 14.6761C35.2946 14.4832 35.2308 14.2889 35.0394 14.0307L34.848 13.3852C34.7842 13.1922 34.9118 12.998 35.2308 12.9334C35.3584 12.6752 35.3584 12.4171 35.4223 12.1589ZM40.3338 23.1964C40.4614 22.4858 40.3976 22.034 40.1423 21.8403C39.8871 21.6467 39.5681 21.7113 39.1852 21.9694C38.9938 21.8403 38.6748 21.9694 38.2919 22.3567C38.3557 22.2283 38.3557 22.034 38.2919 21.9055C38.6748 21.7758 38.8662 21.5176 38.93 21.3885C39.0576 21.1949 39.0576 20.8722 39.0576 20.4849C39.1214 20.2267 39.3128 19.7749 39.7595 19.1294C40.0785 18.484 39.8871 18.2258 39.1214 18.484C39.5043 18.0967 39.6957 17.8385 39.6957 17.5803C39.7595 17.3222 39.6319 16.9994 39.3766 16.6767C39.249 16.4831 39.1214 16.4192 38.9938 16.5476C39.0576 16.4192 39.1214 16.2249 39.1214 16.0964C39.1214 15.9022 38.9938 15.5149 38.7386 14.934C38.6748 14.1601 38.5471 13.7722 38.1643 13.9658C38.1005 13.5785 37.9729 13.1267 37.7814 12.804C37.4624 12.3522 37.2072 12.1585 37.0157 12.4167C36.5053 11.6422 36.0586 11.3194 35.612 11.4485C35.612 11.1258 35.4844 10.8031 35.2291 10.5449C35.1015 10.0285 34.9739 9.6419 34.7825 9.44762C34.5272 9.31917 34.3996 9.51216 34.272 9.83489C34.2082 9.51216 34.1444 9.18944 34.0168 8.93125C33.8892 8.60853 33.6339 8.47944 33.3149 8.41489C33.1873 8.41489 33.0597 8.41489 32.932 8.47944C32.7406 8.35099 32.5492 8.2858 32.4216 8.2858C31.9749 7.83398 31.5283 7.76944 31.2092 8.15671L31.1454 7.76944C31.0178 7.25307 30.7626 7.12398 30.3797 7.44671C29.7416 6.80125 29.2312 6.28489 28.7207 6.0919C28.3379 5.96216 28.0826 5.96216 27.955 6.22034C27.7636 6.02671 27.5722 5.89762 27.3169 5.83307C27.1255 5.76917 26.8703 5.70398 26.6789 5.70398C26.3598 5.70398 26.2322 5.83307 26.296 6.22034C25.8494 6.28489 25.4665 6.34944 25.3389 6.47853C25.2113 6.60762 25.1475 6.8658 25.2113 7.06008C25.3389 7.31762 25.4665 7.51125 25.7856 7.70554C25.6579 7.70554 25.6579 7.83398 25.6579 8.02826C25.6579 8.22125 25.8494 8.41489 26.296 8.54398C26.6151 8.67372 26.9341 8.67372 27.1893 8.54398C27.1255 8.86671 27.2531 9.06034 27.5084 9.12489C27.8912 9.51216 28.4017 9.6419 28.9121 9.44762L28.8483 9.83489L29.614 10.1576C29.6778 10.5449 29.8055 10.8031 30.1245 10.9328L30.4435 11.0613C30.3797 11.0613 30.0607 11.3194 30.0607 11.3194C29.9969 11.384 29.8055 11.7713 30.2521 11.8358C30.5711 11.901 30.8902 11.901 31.2092 11.901C31.2092 12.0294 31.273 12.1585 31.3368 12.2876C31.4007 12.4167 31.5283 12.6103 31.7197 12.8692C31.9111 13.1267 32.3578 13.3203 32.6768 13.5146C32.6768 13.5146 32.5492 13.8374 32.4854 14.0303C32.3578 14.3531 32.3578 14.8055 32.5492 15.0631C32.4854 15.0631 32.294 15.1922 32.2302 15.2567C31.9749 15.644 32.5492 16.1603 32.613 16.4192C32.5492 16.4192 32.4216 16.4831 32.3578 16.5476C32.1663 16.6767 32.2302 17.3222 32.7406 17.4513C32.8682 17.5158 33.4425 17.8385 33.7615 18.1613C33.8253 18.2258 33.953 18.5485 34.2082 18.8067C34.3358 18.9358 34.4634 19.2585 34.7825 19.2585C35.1015 20.1622 35.5482 21.0658 36.1224 21.9694C36.1224 22.034 36.6329 22.551 36.8243 23.0667C36.7605 23.3894 36.7605 23.7122 36.7605 23.7122C36.6967 24.3576 36.5691 24.9385 36.3777 25.4555C35.8034 25.1967 35.7396 25.5846 35.6758 25.9074C35.6758 25.9074 35.4205 25.8422 35.3567 25.9713C35.3567 25.7783 34.9739 25.5846 34.8463 25.6485C34.8463 25.6485 34.6549 25.7783 34.5272 25.8422C34.4634 25.9074 34.4634 25.6485 34.3996 25.4555C34.3996 25.3258 34.3358 25.0031 34.4634 24.8101C34.4634 24.8101 34.591 24.6158 34.6549 24.4874C34.7825 24.1646 34.7187 23.2603 34.5272 22.551C34.4634 22.3567 34.3358 22.2283 34.2082 22.1631C34.1444 22.1631 33.8254 22.1631 33.8254 22.3567C33.8254 22.2283 33.6339 22.1631 33.4425 22.0985C33.0597 21.9694 32.5492 22.8085 32.5492 23.5831C32.2302 23.3249 31.8473 23.454 31.9111 23.8419C31.9749 24.4874 32.8682 25.5194 32.932 26.0358C32.6768 25.7783 32.0387 25.7783 32.0387 26.4237C32.0387 26.6167 32.1663 26.8755 32.2302 27.0692C32.1025 27.7146 32.8682 28.1664 33.3787 28.7467C33.3787 29.0055 33.5063 29.0694 33.5063 29.1346C33.3787 29.2631 32.7406 30.3603 32.7406 30.3603C32.6768 30.3603 32.2302 30.1028 32.1025 30.2313C31.9749 30.3603 31.7835 30.6192 31.7197 30.6831L31.8473 31.3937C31.9111 31.7164 31.7197 32.0392 31.4007 32.4258C31.0816 32.8131 30.7626 33.1358 30.635 33.4585C30.5711 33.7167 30.3159 33.9755 29.8693 34.2331C29.8055 34.104 29.7416 34.0394 29.5502 33.8464C29.4864 33.7813 29.4226 33.7813 29.4226 33.7813C28.976 33.9103 28.0826 34.2983 26.7427 35.0076C26.4874 35.1374 26.1684 35.0722 25.7217 36.1055H24.9561C24.7646 35.5892 24.5094 35.7828 24.318 35.5892C24.1904 35.4601 23.8713 35.4601 23.4247 35.7176C23.0418 35.5892 22.5952 35.7176 22.2123 35.9758C21.9571 36.1055 21.7657 36.1055 21.638 36.0403L20.6809 34.9437C18.7029 34.0394 17.5543 33.7167 17.4267 33.7813C17.2353 33.9103 17.0439 34.104 16.9801 34.2983C16.7886 34.1692 16.4696 33.9103 16.0868 33.5237L15.4487 32.8131C15.002 32.2967 14.8106 31.8449 14.8744 31.3937L15.002 30.7483C15.002 30.6192 15.002 30.6192 14.9382 30.554C14.8106 30.4255 14.5554 30.2964 14.4278 30.2964C14.3639 30.2964 14.3001 30.2313 14.2363 30.6192C14.3001 30.7483 13.5982 29.7149 13.5982 29.7149C13.7259 29.5213 14.1087 28.9403 14.2363 28.2949C14.4278 27.521 14.5554 26.6813 14.5554 26.3585C14.6192 26.294 14.6192 26.294 14.6192 26.2301C14.9382 25.9713 15.3211 23.7767 15.2573 23.2603C15.1934 23.0667 15.1296 22.9376 15.1296 22.9376C15.0658 22.9376 15.002 22.9376 15.002 23.0022L15.1296 22.744C15.1934 22.6149 15.1934 22.4213 15.1296 22.3567C15.0658 22.2922 14.7468 22.2922 14.4278 22.4858C14.3639 22.0985 14.2363 21.5828 14.1087 21.4531C14.0449 21.3885 13.9811 21.4531 13.9811 21.4531C13.4068 21.8403 13.1516 22.551 12.9602 23.454L12.8326 23.5831C12.1307 24.4874 11.5564 25.5194 11.3012 26.6813C11.1735 26.4876 11.1097 26.2301 10.9821 25.8422C10.8545 25.4555 10.8545 25.2619 10.8545 25.1328C10.9821 24.9385 10.9183 24.7449 10.7269 24.6158C10.5993 24.4874 10.4079 23.9058 10.2164 22.8085C10.2164 22.551 10.344 22.0985 10.5993 21.5828C10.7907 21.0013 11.1735 20.2919 11.6202 19.5167C11.6202 19.4522 11.8116 19.2585 11.9392 19.2585C12.5773 19.1294 15.6401 15.1283 15.3849 13.2558C15.4487 13.2558 16.7248 11.0613 16.7886 10.5449L16.9163 10.4803L17.1077 10.3513C17.7458 10.0931 18.32 9.77035 18.8305 9.57671L19.66 9.18944C20.2343 8.93125 20.7447 8.60853 21.2552 8.22125C21.7657 7.76944 22.0847 7.31762 22.1485 6.80125C22.0209 6.67216 21.7657 6.60762 21.319 6.60762C21.5742 6.34944 21.7019 6.02671 21.7019 5.76917C21.5742 5.51034 21.0638 5.51034 20.1705 5.63944C19.2772 5.83307 18.5115 6.22034 17.8096 6.73735C17.1715 7.18853 16.5334 7.70554 15.9591 8.35099C15.3849 8.99644 15.002 9.6419 14.6192 10.2874L15.002 9.38307C15.1934 8.93125 15.3849 8.47944 15.6401 7.83398C15.7039 7.5758 15.7039 7.38281 15.6401 7.18853C15.5763 7.06008 15.4487 7.06008 15.2573 7.06008C15.0658 7.12398 14.6192 7.38281 14.1087 7.89853C13.4706 8.54398 12.9602 9.31917 12.4497 10.2222C12.0031 11.1258 11.684 11.901 11.4926 12.4167C11.6202 11.9649 11.6202 11.4485 11.4288 11.0613C11.365 10.9328 11.2374 10.8676 10.9821 10.9328C10.7907 11.0613 10.5993 11.3194 10.344 11.5783C10.1526 11.901 9.9612 12.1585 9.70597 12.4167C9.45074 12.6749 9.32312 13.0622 9.00408 13.5785C8.74885 14.0949 8.49362 14.6758 8.30219 15.3858C8.11077 16.0313 7.91935 16.9994 7.85554 18.0967C7.79173 18.8067 7.85554 19.5813 7.98315 20.4849C8.17458 21.324 8.366 21.9055 8.62123 22.3567C8.87646 22.8085 9.00408 23.0022 9.25931 23.0667C9.38693 23.3894 9.51454 23.8419 9.70597 24.4874C9.83358 24.8101 9.83358 25.0676 9.83358 25.1967C9.83358 25.3258 9.89739 25.4555 9.9612 25.5846C10.0888 25.6485 10.1526 25.7783 10.2164 25.9713C10.344 26.6167 10.5993 27.1983 10.9183 27.7146C10.8545 28.0374 10.7907 28.2949 10.7907 28.6176C10.1526 26.7464 9.64216 25.3903 9.25931 24.4222C8.49362 22.744 7.85554 21.9055 7.47269 22.034C7.28127 22.1631 7.08984 22.2922 7.08984 22.6149V23.5192C7.08984 24.0349 7.15365 24.5513 7.21746 25.0676C7.60031 26.8103 8.30219 28.2949 9.25931 29.5213L10.6631 31.1994C10.9821 31.5222 11.2374 31.7164 11.4926 31.8449C11.8754 32.1031 12.1307 32.1031 12.3221 32.0392C12.6411 32.5555 13.0878 33.1358 13.5344 33.7167C13.8535 34.2331 14.1725 34.4267 14.4916 34.4267C14.6192 34.7494 14.8744 34.8785 15.1296 34.8785L15.4487 34.8146C15.8315 35.2013 16.2144 35.524 16.5972 35.7828L16.2144 36.8801C15.5763 37.0085 14.9382 37.0085 14.3639 37.0085C13.8535 36.6213 13.1516 36.1055 12.1945 35.524L12.1307 34.3622C12.1307 34.0394 12.1945 33.6528 12.3859 33.394C12.4497 33.201 12.2583 33.0074 12.0031 32.7485C11.5564 32.5555 11.0459 32.4258 10.8545 32.4903C10.7269 32.5555 10.4717 32.6194 10.4717 32.6846V33.3301L8.81266 33.394C8.68504 33.394 8.62123 33.4585 8.49362 33.5876C8.366 33.7167 8.42981 33.9755 8.55743 34.3622C8.55743 34.4919 8.62123 34.621 8.55743 34.7494C8.42981 35.1374 8.23839 35.6531 7.85554 36.2985C7.79173 36.4283 7.85554 36.5574 7.91935 36.6858C8.04696 36.8801 8.30219 37.1376 8.68504 37.5894C8.81266 37.7192 9.06789 37.9767 9.45074 38.2349C9.83358 38.4937 10.4079 38.8803 11.3012 39.3967C12.3221 40.0422 13.343 40.5585 14.2363 40.9464C14.4278 40.9464 15.7677 40.8167 18.1924 40.4301V40.6237C17.4905 41.1394 17.0439 41.3983 16.8525 41.2692C16.5972 41.3331 16.4696 41.5267 16.5972 41.9146C16.7248 42.0437 16.7886 42.2374 17.0439 42.3013L17.2991 42.624L18.001 43.0758C18.2562 43.2055 18.5753 43.2055 18.7667 43.0758C19.0219 42.9467 19.1495 42.7531 19.2133 42.4303L19.341 42.3013L20.1705 41.4622L20.7447 41.0103C21.1914 40.8813 21.4466 40.7528 21.638 40.5585C21.7019 40.3649 21.7657 40.1713 21.7657 40.1713L22.4675 39.7194C22.5314 39.6555 22.7866 39.7846 23.3609 40.1074C23.6161 40.1713 23.8713 40.1713 24.0627 40.0422L24.5732 39.7194C25.0199 39.8485 25.8494 40.3649 26.9979 41.4622C26.9979 41.5919 27.0617 41.721 27.1893 41.8494C27.3169 41.9785 27.5722 42.0437 27.955 42.1722L28.2103 42.6892L28.4655 42.8176C28.8483 42.8176 29.2312 42.6892 29.614 42.3664L30.0607 42.2374C30.2521 42.1076 30.3797 41.8494 30.3797 41.721L30.2521 41.5919L29.8693 41.4622C29.4226 41.2692 28.9121 40.9464 28.4655 40.5585L28.1464 40.301C29.5502 40.5585 31.3368 40.7528 33.5063 40.9464C33.7615 41.0103 34.1444 40.8167 34.591 40.5585C35.0377 40.2358 36.3777 39.2676 38.5471 37.654C38.8662 37.2667 39.1852 36.8801 39.3128 36.4283C39.1214 36.2346 38.93 35.9758 38.8024 35.6531C38.6748 35.2664 38.5471 35.0076 38.4833 34.7494C38.4195 34.5558 38.4195 34.3622 38.4833 34.104C38.5471 33.9755 38.4833 33.7167 38.3557 33.5876C38.2919 33.4585 38.1643 33.4585 37.9091 33.4585C37.5262 33.394 37.0157 33.394 36.5053 33.4585C36.2501 33.394 36.1224 33.3301 36.0586 33.3301V32.7485C36.1224 32.5555 36.0586 32.4258 35.931 32.4903C35.3567 32.6194 35.0377 32.8131 34.8463 32.9422C34.7187 33.1358 34.7187 33.3301 34.8463 33.5876C34.9739 33.7167 35.0377 33.9103 35.0377 34.0394C34.9101 34.9437 34.9101 35.524 34.8463 35.7828C33.8892 36.5574 33.1873 37.0085 32.932 37.2028C32.6768 37.3313 32.0387 37.2667 31.0816 37.0737C30.8902 36.8801 30.6988 36.5574 30.635 36.1055C30.954 35.9119 31.273 35.6531 31.7197 35.3949C31.9749 35.3303 32.1663 35.2664 32.3578 35.2664C32.4854 35.2013 32.613 35.0722 32.613 34.8146C32.7406 34.7494 32.932 34.621 32.9958 34.3622L34.1444 32.9422C34.5272 32.6194 34.9101 32.4258 35.3567 32.3619C35.8672 32.2967 36.5691 31.974 37.3986 31.4576C37.5262 31.3285 37.5262 31.071 37.3986 30.8122C37.6538 30.6831 38.0367 30.2313 38.6109 29.5858C38.8024 29.2631 38.8662 28.9403 38.7386 28.4892C39.249 27.8437 39.5681 27.3267 39.6319 27.004C39.6957 26.6813 39.6957 26.3585 39.6319 25.9074C39.8871 25.7783 40.0147 25.5846 40.1423 25.5194C40.2699 25.3903 40.2699 25.2619 40.2699 25.0676C40.2699 24.874 40.2061 24.6803 40.0785 24.5513C40.589 24.0994 40.6528 23.6476 40.3338 23.1964Z" fill="#0066CC"/>
</g>
<path fill-rule="evenodd" clip-rule="evenodd" d="M13.0274 18.3545C12.9636 18.419 12.8997 18.4836 12.8359 18.5481C12.8997 18.4836 12.9636 18.3545 13.0274 18.3545ZM13.4102 17.9021C13.3464 18.0312 13.2826 18.0958 13.2188 18.2249C13.2188 18.0958 13.2826 18.0312 13.4102 17.9021ZM12.707 18.6779C12.6432 18.7425 12.5794 18.807 12.5156 18.8716L12.707 18.6779ZM9.83692 23.1302C9.77311 23.1302 9.77311 23.0657 9.83692 23.1302V23.1302ZM13.599 14.2236C13.5352 14.3527 13.4076 14.4818 13.3438 14.6755C13.4076 14.4818 13.5352 14.3527 13.599 14.2236ZM12.3238 32.0387C12.0685 31.9741 11.8133 31.8444 11.4305 31.5217C11.8133 31.7805 12.0685 31.9741 12.3238 32.0387ZM13.0248 26.4873H12.8333V26.6164C12.8333 26.6803 12.8333 26.6803 12.7695 26.7455L13.0248 26.6803V26.4873ZM13.7305 27.9707L13.5391 28.165V28.5523L13.7305 28.3586V27.9707ZM13.7305 27.6486V27.4556C13.6667 27.3259 13.6029 27.1975 13.5391 27.0684V27.5847L13.7305 27.9714V27.6486ZM12.3894 24.6156L11.3685 25.1965L11.4323 25.3256C11.4961 25.4547 11.6876 26.1002 11.8152 26.4875C11.879 26.3577 11.9428 26.2938 11.9428 26.1002L11.6876 25.3256L12.5809 24.8093C12.5809 24.7447 12.6447 24.7447 12.6447 24.6802C12.5171 24.0993 12.4532 23.5829 12.3894 23.0665V22.9375L11.2409 22.6793V21.3238L12.3894 21.1302V21.0011C12.4532 20.4847 12.5171 19.9684 12.6447 19.3875V19.2584L12.198 19.0002L12.0704 19.1293L12.198 19.0002L12.0066 18.8711C11.9428 18.9356 11.9428 19.0002 11.879 19.0002V19.0647L12.4532 19.3875C12.3894 19.9038 12.2618 20.4202 12.2618 20.872L11.1133 21.1302V22.8084L12.2618 23.0665C12.2618 23.5829 12.3256 24.0993 12.3894 24.6156ZM14.6841 23.5827C14.6841 23.4536 14.6203 23.3891 14.6203 23.26C14.6203 23.3891 14.6203 23.5181 14.6841 23.5827ZM13.4096 17.7738L13.282 17.9029C13.4096 17.8384 13.4096 17.8384 13.4096 17.7738ZM13.7279 17.3221C13.7279 17.3866 13.6641 17.3866 13.6641 17.4512C13.6641 17.3866 13.7279 17.3221 13.7279 17.3221ZM12.8971 18.5488L12.7695 18.6779C12.7695 18.6134 12.8333 18.6134 12.8971 18.5488ZM12.58 18.8707L12.4523 18.9998L12.58 18.8707ZM13.1542 18.1611C13.0904 18.2257 13.0904 18.2902 13.0266 18.2902C13.0904 18.2902 13.1542 18.2257 13.1542 18.1611ZM9.07031 22.292C9.19793 22.6793 9.45316 22.9374 9.7722 23.0665C9.45316 22.9374 9.19793 22.6793 9.07031 22.292ZM11.3677 30.0366C11.3677 29.972 11.3677 29.972 11.3039 29.9068C11.3677 29.972 11.3677 30.0366 11.3677 30.0366ZM11.6232 30.2303H11.5594H11.6232ZM27.6412 41.9135C27.7688 42.0426 27.8326 42.0426 27.9602 41.9781L27.5774 41.5908C27.4498 41.7845 27.5136 41.8484 27.6412 41.9135Z" fill="#0066CC"/>
<path fill-rule="evenodd" clip-rule="evenodd" d="M21.4454 19.0636L23.4872 13.19L23.6149 12.8027L23.7425 13.19L25.7843 19.1282L31.9737 19.2573H32.3565L32.0375 19.5155L27.1243 23.3236L28.9109 29.3264L29.0385 29.7136L28.7195 29.52L23.6149 25.97L18.5102 29.52L18.1912 29.7136L18.3188 29.3264L20.1054 23.3236L15.1922 19.58L14.8094 19.3218H15.1922L21.4454 19.0636ZM23.614 13.5771L21.6998 19.2571L21.636 19.3862H21.5084L15.5742 19.5153L20.296 23.1299L20.3598 23.1944L20.296 23.3235L18.637 29.0681L23.4864 25.6471L23.5502 25.5832L23.614 25.6471L28.4634 29.0681L26.8044 23.3235L26.7406 23.1944L26.8044 23.1299L31.5262 19.5153L25.6559 19.3862H25.5282L25.4644 19.2571C25.4006 19.2571 23.614 13.5771 23.614 13.5771ZM37.6531 22.2914L37.4617 22.485L37.6531 22.2914ZM37.78 21.8389L37.6523 22.7425L37.78 21.8389ZM12.7019 31.5851C12.5743 31.7149 12.319 31.7149 12 31.4561C12.319 31.7149 12.5743 31.7788 12.7019 31.5851ZM13.6615 17.4502C13.5339 17.5793 13.5339 17.6438 13.4062 17.8375C13.5339 17.6438 13.5977 17.5793 13.6615 17.4502ZM13.9818 16.9336C13.8542 17.0627 13.8542 17.1918 13.7266 17.3209C13.8542 17.1918 13.918 17.0627 13.9818 16.9336ZM11.4299 30.1651C11.4299 30.1651 11.4299 30.1012 11.4299 30.1651C11.3661 30.1012 11.4299 30.1012 11.4299 30.1651ZM9.70574 22.7427C9.64193 22.7427 9.57812 22.7427 9.57812 22.6781C9.64193 22.7427 9.64193 22.7427 9.70574 22.7427ZM11.6849 30.2295H11.6211H11.6849ZM11.3641 29.9717V29.7135V29.9717ZM12.3862 18.9984L12.0672 19.3212C12.2586 19.1921 12.3224 19.1275 12.3862 18.9984Z" fill="#0066CC"/>
<path d="M49.8711 40.8001L57.5775 9.5641H67.6551L75.4071 40.8001H70.2999L68.6127 34.0969H56.6199L54.9327 40.8001H49.8711ZM61.4991 13.8049L57.6231 29.6281H67.6095L63.7791 13.8049H61.4991Z" fill="#0066CC"/>
<path d="M92.7217 28.8529V24.3841H101.614V40.2529C100.793 40.4657 99.1209 40.6937 96.5977 40.9369C94.1049 41.1801 92.2961 41.3017 91.1713 41.3017C86.4289 41.3017 83.1609 39.9945 81.3673 37.3801C79.5737 34.7657 78.6769 30.6769 78.6769 25.1137C78.6769 19.5201 79.5889 15.4465 81.4129 12.8929C83.2673 10.3393 86.4593 9.0625 90.9889 9.0625C93.6641 9.0625 96.6737 9.3665 100.018 9.9745L101.614 10.2937L101.431 14.3065C97.7529 13.8201 94.4545 13.5769 91.5361 13.5769C88.6177 13.5769 86.6113 14.3977 85.5169 16.0393C84.4529 17.6809 83.9209 20.7209 83.9209 25.1593C83.9209 29.5977 84.4225 32.6681 85.4257 34.3705C86.4593 36.0425 88.5265 36.8785 91.6273 36.8785C93.8465 36.8785 95.5033 36.7417 96.5977 36.4681V28.8529H92.7217Z" fill="#0066CC"/>
<path d="M108.595 40.8001V9.5641H113.657V40.8001H108.595Z" fill="#0066CC"/>
<path d="M132.278 40.8001H121.471V9.5641H132.278C137.081 9.5641 140.365 10.7801 142.128 13.2121C143.891 15.6441 144.773 19.4593 144.773 24.6577C144.773 27.3025 144.59 29.5521 144.225 31.4065C143.891 33.2305 143.283 34.8873 142.401 36.3769C140.669 39.3257 137.294 40.8001 132.278 40.8001ZM139.529 24.6577C139.529 20.8881 139.057 18.1673 138.115 16.4953C137.173 14.8233 135.227 13.9873 132.278 13.9873H126.533V36.3313H132.278C135.288 36.3313 137.294 35.2217 138.297 33.0025C138.784 31.8777 139.103 30.6769 139.255 29.4001C139.437 28.1233 139.529 26.5425 139.529 24.6577Z" fill="#0066CC"/>
</svg>
