<svg width="321" height="48" viewBox="0 0 321 48" fill="none" xmlns="http://www.w3.org/2000/svg">
<path d="M199.922 18.2186L203.882 3.80273H207.367L211.328 18.2186H209.744L208.635 14.575H202.457L201.348 18.2186H199.922ZM204.991 5.22848L202.773 13.1493H208.159L205.942 5.22848H204.991Z" fill="#0066CC"/>
<path d="M217.029 23.1302C215.445 23.1302 214.178 22.9718 213.544 22.4966C212.911 22.0213 212.594 21.2292 212.594 19.9619C212.594 19.3282 212.752 19.0114 212.911 18.5362C213.069 18.0609 213.544 17.7441 214.178 17.2688C213.861 16.952 213.544 16.4768 213.544 15.8431C213.544 15.6847 213.703 15.2094 214.019 14.5758L214.178 14.2589C213.069 13.7837 212.594 12.6748 212.594 11.0906C212.594 8.71438 213.861 7.60547 216.396 7.60547C217.029 7.60547 217.663 7.60547 218.297 7.76388H218.614L221.782 7.9223V9.18963H219.881C220.356 9.66487 220.515 10.2985 220.515 11.249C220.515 12.5164 220.198 13.4669 219.564 13.9421C218.93 14.4174 217.98 14.7342 216.554 14.7342C216.237 14.7342 215.92 14.7342 215.604 14.5758C215.287 15.2094 215.287 15.5263 215.287 15.6847C215.287 16.1599 215.445 16.3183 215.604 16.4768C215.92 16.6352 216.713 16.6352 217.98 16.6352C219.247 16.6352 220.198 16.7936 220.831 17.2688C221.465 17.7441 221.623 18.5362 221.623 19.6451C221.623 22.0213 220.198 23.1302 217.029 23.1302ZM214.178 19.8035C214.178 20.5956 214.336 21.0708 214.812 21.3876C215.287 21.7045 215.92 21.8629 217.029 21.8629C218.138 21.8629 218.93 21.7045 219.406 21.3876C219.881 21.0708 220.198 20.5956 220.198 19.8035C220.198 19.0114 220.039 18.6946 219.722 18.3777C219.406 18.0609 218.772 18.0609 217.663 18.0609L215.445 17.9025C214.97 18.2193 214.653 18.5362 214.495 18.6946C214.178 19.1698 214.178 19.4867 214.178 19.8035ZM214.336 11.249C214.336 12.0411 214.495 12.6748 214.812 12.9916C215.128 13.3084 215.762 13.4669 216.554 13.4669C217.346 13.4669 217.98 13.3084 218.297 12.9916C218.614 12.6748 218.772 12.0411 218.772 11.249C218.772 10.457 218.614 9.82329 218.297 9.50646C217.98 9.18963 217.346 9.03121 216.554 9.03121C215.762 9.03121 215.128 9.18963 214.812 9.50646C214.495 9.82329 214.336 10.457 214.336 11.249Z" fill="#0066CC"/>
<path d="M230.811 16.9506H231.445V18.2179C229.86 18.3763 228.593 18.5348 227.326 18.5348C225.9 18.5348 224.791 18.0595 224.158 17.2674C223.524 16.4754 223.207 15.0496 223.207 13.307C223.207 9.66347 224.633 7.9209 227.484 7.9209C228.91 7.9209 229.86 8.23773 230.653 9.02981C231.286 9.82189 231.761 11.0892 231.761 12.6734L231.603 13.7823H224.791C224.791 14.8912 224.95 15.8417 225.425 16.3169C225.9 16.7922 226.534 17.109 227.643 17.109C228.752 17.109 229.702 17.109 230.811 16.9506ZM230.177 12.515C230.177 11.2476 230.019 10.2971 229.544 9.82189C229.068 9.34664 228.435 9.02981 227.484 9.02981C226.534 9.02981 225.9 9.34664 225.425 9.82189C224.95 10.2971 224.791 11.2476 224.633 12.515H230.177Z" fill="#0066CC"/>
<path d="M235.725 18.2181H234.141V7.92111H235.725V8.71319C236.834 8.07953 237.943 7.7627 238.893 7.7627C240.319 7.7627 241.269 8.07953 241.745 8.87161C242.22 9.66369 242.537 10.931 242.537 12.832V18.3766H240.953V12.832C240.953 11.4063 240.794 10.4558 240.477 9.8221C240.16 9.34685 239.527 9.03002 238.735 9.03002C238.259 9.03002 237.784 9.03002 237.309 9.18844C236.834 9.34685 236.517 9.50527 236.2 9.50527L235.883 9.66369V18.2181H235.725Z" fill="#0066CC"/>
<path d="M244.754 9.34664V7.9209H252.516V9.34664L246.655 16.9506H252.516V18.3763H244.754V16.9506L250.615 9.34664H244.754Z" fill="#0066CC"/>
<path d="M254.734 5.54531V3.80273H256.319V5.54531H254.734ZM254.734 18.2186V7.92155H256.319V18.2186H254.734Z" fill="#0066CC"/>
<path d="M266.614 11.0906V16.4768C266.614 16.952 267.09 17.2688 267.882 17.4273V18.6946C266.773 18.6946 265.981 18.3777 265.347 17.9025C264.08 18.3777 262.812 18.6946 261.545 18.6946C260.595 18.6946 259.802 18.3777 259.327 17.9025C258.852 17.4273 258.535 16.6352 258.535 15.5263C258.535 14.5758 258.852 13.7837 259.327 13.3084C259.802 12.8332 260.595 12.5164 261.703 12.3579L265.03 12.0411V11.0906C265.03 10.457 264.872 9.82329 264.555 9.50646C264.238 9.18963 263.763 9.03121 263.288 9.03121C262.179 9.03121 261.07 9.03121 259.802 9.18963H259.169V8.08072C260.753 7.76388 262.02 7.60547 263.288 7.60547C264.555 7.60547 265.347 7.9223 265.822 8.39755C266.456 9.03121 266.614 9.82329 266.614 11.0906ZM260.278 15.2094C260.278 16.4768 260.753 17.1104 261.862 17.1104C262.812 17.1104 263.763 16.952 264.713 16.6352L265.189 16.4768V13.15L262.179 13.4669C261.545 13.4669 261.07 13.6253 260.753 13.9421C260.436 14.2589 260.278 14.7342 260.278 15.2094Z" fill="#0066CC"/>
<path d="M274.215 22.8122V7.92111H275.799V8.71319C276.908 8.07953 277.858 7.7627 278.967 7.7627C280.235 7.7627 281.185 8.23794 281.819 9.03002C282.452 9.8221 282.769 11.2478 282.769 13.1488C282.769 15.0498 282.452 16.4756 281.66 17.2676C281.027 18.0597 279.759 18.535 278.175 18.535C277.383 18.535 276.591 18.535 275.799 18.3766V22.9706H274.215V22.8122ZM278.65 9.03002C278.175 9.03002 277.858 9.03002 277.383 9.18844C276.908 9.34685 276.591 9.50527 276.274 9.66369L275.957 9.8221V16.7924C276.908 16.9508 277.7 16.9508 278.175 16.9508C279.284 16.9508 280.076 16.634 280.551 16.0003C281.027 15.3667 281.185 14.2577 281.185 12.832C281.185 11.4063 281.027 10.2973 280.551 9.8221C280.076 9.34685 279.443 9.03002 278.65 9.03002Z" fill="#0066CC"/>
<path d="M292.28 16.9506H292.913V18.2179C291.329 18.3763 290.062 18.5348 288.795 18.5348C287.369 18.5348 286.26 18.0595 285.626 17.2674C284.993 16.4754 284.676 15.0496 284.676 13.307C284.676 9.66347 286.102 7.9209 288.953 7.9209C290.379 7.9209 291.329 8.23773 292.121 9.02981C292.755 9.82189 293.23 11.0892 293.23 12.6734L293.072 13.7823H286.26C286.26 14.8912 286.418 15.8417 286.894 16.3169C287.369 16.7922 288.003 17.109 289.111 17.109C290.22 17.109 291.171 17.109 292.28 16.9506ZM291.804 12.515C291.804 11.2476 291.646 10.2971 291.171 9.82189C290.696 9.34664 290.062 9.02981 289.111 9.02981C288.161 9.02981 287.527 9.34664 287.052 9.82189C286.577 10.2971 286.418 11.2476 286.26 12.515H291.804Z" fill="#0066CC"/>
<path d="M295.762 18.2181V7.92111H297.346V9.34685C298.613 8.55477 299.881 7.92111 301.148 7.7627V9.34685C300.514 9.50527 300.039 9.66368 299.405 9.8221C298.772 9.98052 298.296 10.2973 297.98 10.4558L297.504 10.7726V18.3766H295.762V18.2181Z" fill="#0066CC"/>
<path d="M201.031 43.0903V28.1992H202.615V43.0903H201.031Z" fill="#0066CC"/>
<path d="M205.305 32.9515L206.255 28.3574H207.839L206.572 32.9515H205.305Z" fill="#0066CC"/>
<path d="M210.379 43.0906V28.6748H211.963V43.0906H210.379Z" fill="#0066CC"/>
<path d="M220.676 34.0609H217.349V38.9717C217.349 40.2391 217.508 40.8727 217.666 41.348C217.825 41.6648 218.3 41.9816 218.933 41.9816L220.834 41.8232L220.993 43.0906C220.042 43.249 219.409 43.249 218.933 43.249C217.825 43.249 217.032 42.9321 216.716 42.4569C216.24 41.9816 216.082 40.8727 216.082 39.447V34.0609H214.656V32.6351H216.082V29.4668H217.666V32.6351H220.993V34.0609H220.676Z" fill="#0066CC"/>
<path d="M229.864 35.9609V41.1887C229.864 41.6639 230.34 41.9808 231.132 42.1392V43.4065C230.023 43.4065 229.231 43.0897 228.597 42.6144C227.33 43.0897 226.062 43.4065 224.795 43.4065C223.845 43.4065 223.052 43.0897 222.577 42.6144C222.102 42.1392 221.785 41.3471 221.785 40.2382C221.785 39.2877 222.102 38.4956 222.577 38.0204C223.052 37.5451 223.845 37.2283 224.953 37.0699L228.28 36.753V35.8025C228.28 35.1689 228.122 34.5352 227.805 34.2184C227.488 33.9015 227.013 33.7431 226.538 33.7431C225.429 33.7431 224.32 33.7431 223.052 33.9015H222.419V32.7926C224.003 32.4758 225.27 32.3174 226.538 32.3174C227.805 32.3174 228.597 32.6342 229.072 33.1095C229.548 33.9015 229.864 34.6936 229.864 35.9609ZM223.528 40.0798C223.528 41.3471 224.003 41.9808 225.112 41.9808C226.062 41.9808 227.013 41.8223 227.963 41.5055L228.439 41.3471V38.0204L225.429 38.3372C224.795 38.3372 224.32 38.4956 224.003 38.8124C223.686 39.1293 223.528 39.6045 223.528 40.0798Z" fill="#0066CC"/>
<path d="M233.027 43.0903V28.1992H234.612V43.0903H233.027Z" fill="#0066CC"/>
<path d="M237.781 30.4174V28.6748H239.365V30.4174H237.781ZM237.781 43.0906V32.7936H239.365V43.0906H237.781Z" fill="#0066CC"/>
<path d="M249.665 35.9609V41.1887C249.665 41.6639 250.14 41.9808 250.932 42.1392V43.4065C249.824 43.4065 249.031 43.0897 248.398 42.6144C247.13 43.0897 245.863 43.4065 244.596 43.4065C243.645 43.4065 242.853 43.0897 242.378 42.6144C241.903 42.1392 241.586 41.3471 241.586 40.2382C241.586 39.2877 241.903 38.4956 242.378 38.0204C242.853 37.5451 243.645 37.2283 244.754 37.0699L248.081 36.753V35.8025C248.081 35.1689 247.923 34.5352 247.606 34.2184C247.289 33.9015 246.814 33.7431 246.338 33.7431C245.23 33.7431 244.121 33.7431 242.853 33.9015H242.22V32.7926C243.804 32.4758 245.071 32.3174 246.338 32.3174C247.606 32.3174 248.398 32.6342 248.873 33.1095C249.348 33.9015 249.665 34.6936 249.665 35.9609ZM243.17 40.0798C243.17 41.3471 243.645 41.9808 244.754 41.9808C245.705 41.9808 246.655 41.8223 247.606 41.5055L248.081 41.3471V38.0204L245.071 38.3372C244.437 38.3372 243.962 38.4956 243.645 38.8124C243.329 39.1293 243.17 39.6045 243.17 40.0798Z" fill="#0066CC"/>
<path d="M262.651 43.0906H257.582V28.6748H262.651C265.028 28.6748 266.612 29.6253 267.245 31.5263C267.721 32.6352 267.879 34.0609 267.879 35.6451C267.879 39.2887 266.929 41.5065 265.186 42.457C264.552 42.9322 263.602 43.0906 262.651 43.0906ZM266.295 35.8035C266.295 33.1104 265.661 31.3679 264.394 30.7342C263.919 30.4174 263.285 30.259 262.493 30.259H259.008V41.8233H262.493C265.028 41.6649 266.295 39.7639 266.295 35.8035Z" fill="#0066CC"/>
<path d="M270.578 30.4174V28.6748H272.162V30.4174H270.578ZM270.578 43.0906V32.7936H272.162V43.0906H270.578Z" fill="#0066CC"/>
<path d="M279.127 48.0003C277.543 48.0003 276.276 47.8419 275.642 47.3667C275.008 46.8914 274.691 46.0993 274.691 44.832C274.691 44.1984 274.85 43.8815 275.008 43.4063C275.167 42.931 275.642 42.6142 276.276 42.139C275.959 41.8221 275.642 41.3469 275.642 40.7132C275.642 40.5548 275.8 40.0795 276.117 39.4459L276.276 39.1291C275.167 38.6538 274.691 37.5449 274.691 35.9607C274.691 33.5845 275.959 32.4756 278.493 32.4756C279.127 32.4756 279.761 32.4756 280.394 32.634H280.711L283.721 32.4756V33.7429H281.82C282.295 34.2182 282.454 34.8518 282.454 35.8023C282.454 37.0696 282.137 38.0201 281.503 38.4954C280.87 38.9706 279.919 39.2875 278.493 39.2875C278.177 39.2875 277.86 39.2875 277.543 39.1291C277.226 39.7627 277.226 40.0795 277.226 40.238C277.226 40.7132 277.384 40.8716 277.543 41.03C277.86 41.1885 278.652 41.1885 279.919 41.1885C281.186 41.1885 282.137 41.3469 282.771 41.8221C283.404 42.2974 283.563 43.0894 283.563 44.1984C283.721 46.8914 282.295 48.0003 279.127 48.0003ZM276.276 44.832C276.276 45.6241 276.434 46.0993 276.909 46.4162C277.384 46.733 278.018 46.8914 279.127 46.8914C280.236 46.8914 281.028 46.733 281.503 46.4162C281.979 46.0993 282.295 45.6241 282.295 44.832C282.295 44.0399 282.137 43.7231 281.82 43.4063C281.503 43.0894 280.87 43.0894 279.761 43.0894L277.543 42.931C277.068 43.2479 276.751 43.5647 276.592 43.7231C276.276 44.0399 276.276 44.3568 276.276 44.832ZM276.434 36.1191C276.434 36.9112 276.592 37.5449 276.909 37.8617C277.226 38.1786 277.86 38.337 278.652 38.337C279.444 38.337 280.078 38.1786 280.394 37.8617C280.711 37.5449 280.87 36.9112 280.87 36.1191C280.87 35.3271 280.711 34.6934 280.394 34.3766C280.078 34.0597 279.444 33.9013 278.652 33.9013C277.86 33.9013 277.226 34.0597 276.909 34.3766C276.592 34.6934 276.434 35.3271 276.434 36.1191Z" fill="#0066CC"/>
<path d="M285.781 30.4174V28.6748H287.365V30.4174H285.781ZM285.781 43.0906V32.7936H287.365V43.0906H285.781Z" fill="#0066CC"/>
<path d="M295.762 34.0609H292.435V38.9717C292.435 40.2391 292.594 40.8727 292.752 41.348C292.911 41.6648 293.386 41.9816 294.019 41.9816L295.92 41.8232L296.079 43.0906C295.128 43.249 294.495 43.249 294.019 43.249C292.91 43.249 292.118 42.9321 291.802 42.4569C291.326 41.9816 291.168 40.8727 291.168 39.447V34.0609H289.742V32.6351H291.168V29.4668H292.752V32.6351H296.079V34.0609H295.762Z" fill="#0066CC"/>
<path d="M304.95 35.9609V41.1887C304.95 41.6639 305.426 41.9808 306.218 42.1392V43.4065C305.109 43.4065 304.317 43.0897 303.683 42.6144C302.416 43.0897 301.148 43.4065 299.881 43.4065C298.93 43.4065 298.138 43.0897 297.663 42.6144C297.188 42.1392 296.871 41.3471 296.871 40.2382C296.871 39.2877 297.188 38.4956 297.663 38.0204C298.138 37.5451 298.93 37.2283 300.039 37.0699L303.366 36.753V35.8025C303.366 35.1689 303.208 34.5352 302.891 34.2184C302.574 33.9015 302.099 33.7431 301.624 33.7431C300.515 33.7431 299.406 33.7431 298.138 33.9015H297.505V32.7926C299.089 32.4758 300.356 32.3174 301.624 32.3174C302.891 32.3174 303.683 32.6342 304.158 33.1095C304.792 33.9015 304.95 34.6936 304.95 35.9609ZM298.614 40.0798C298.614 41.3471 299.089 41.9808 300.198 41.9808C301.148 41.9808 302.099 41.8223 303.049 41.5055L303.525 41.3471V38.0204L300.515 38.3372C299.881 38.3372 299.406 38.4956 299.089 38.8124C298.772 39.1293 298.614 39.6045 298.614 40.0798Z" fill="#0066CC"/>
<path d="M308.121 43.0903V28.1992H309.705V43.0903H308.121Z" fill="#0066CC"/>
<path d="M319.838 41.8227H320.472V43.09C318.888 43.2484 317.621 43.4068 316.353 43.4068C314.927 43.4068 313.819 42.9316 313.185 42.1395C312.551 41.3474 312.234 39.9217 312.234 38.1791C312.234 34.5355 313.66 32.793 316.512 32.793C317.937 32.793 318.888 33.1098 319.68 33.9019C320.314 34.694 320.789 35.9613 320.789 37.5454L320.63 38.6544H313.819C313.819 39.7633 313.977 40.7138 314.452 41.189C314.927 41.6643 315.561 41.9811 316.67 41.9811C317.779 41.9811 318.888 41.9811 319.838 41.8227ZM319.363 37.387C319.363 36.1197 319.205 35.1692 318.729 34.694C318.254 34.2187 317.621 33.9019 316.67 33.9019C315.72 33.9019 315.086 34.2187 314.611 34.694C314.135 35.1692 313.977 36.1197 313.819 37.387H319.363Z" fill="#0066CC"/>
<path d="M32.3219 11.0901L32.4803 11.4069C32.4803 11.4069 32.4803 11.5654 32.4803 11.7238C32.6387 11.8822 32.6387 12.0406 32.7971 12.199C32.7971 11.8822 32.6387 11.5654 32.4803 11.4069L32.3219 11.0901ZM32.9556 14.5753L32.6387 14.4168V14.5753C32.7971 14.5753 32.9556 14.7337 33.114 14.8921C33.114 14.7337 32.9556 14.7337 32.9556 14.5753ZM33.7476 14.8921H33.2724C33.4308 14.8921 33.4308 15.0505 33.5892 15.2089H33.9061L33.7476 14.8921ZM34.3813 14.8921H34.2229C34.2229 15.0505 34.2229 15.0505 34.0645 15.2089H34.2229C34.2229 15.0505 34.3813 14.8921 34.3813 14.8921ZM32.7971 12.9911L32.9556 12.8327C32.9556 12.6743 32.9556 12.6743 32.9556 12.5159L32.7971 12.6743C32.7971 12.8327 32.7971 12.8327 32.7971 12.9911ZM32.6387 13.3079C32.6387 13.1495 32.6387 13.1495 32.4803 12.9911C32.3219 13.1495 32.4803 13.1495 32.6387 13.3079ZM35.6486 19.4862L34.2229 19.1693C34.2229 18.5357 34.0645 17.902 33.9061 17.4267L34.6981 16.9515V16.7931C34.6981 16.6347 34.6981 16.6347 34.6981 16.4763L34.5397 16.6347C34.5397 16.7931 34.5397 16.7931 34.3813 16.9515V16.7931L33.7476 17.4267V17.5852C33.9061 18.2188 34.0645 18.8525 34.0645 19.4862V19.6446L35.4902 19.9614V21.5456L34.0645 21.8624V22.0208C34.0645 22.1792 34.0645 22.3376 34.0645 22.3376C34.0645 22.3376 34.0645 22.6545 34.0645 22.9713C34.0645 23.4466 34.0645 23.605 33.9061 23.9218C33.9061 23.9218 33.9061 24.0802 33.7476 24.0802L35.015 24.7139C35.015 24.8723 34.8566 25.1891 34.6981 25.506C34.6981 25.6644 34.6981 25.8228 34.6981 25.9812V26.1396C34.8566 25.6644 35.1734 24.8723 35.1734 24.7139V24.5555L33.9061 23.7634C34.0645 23.1297 34.2229 22.4961 34.2229 22.0208L35.6486 21.704V19.6446V19.4862ZM31.6882 10.9317L30.8962 11.2485C30.5793 10.7733 30.1041 10.298 29.6288 9.9812L30.1041 8.71388C29.7872 8.55546 28.8368 7.76338 28.5199 7.60497L27.411 8.55546C26.9358 8.23863 26.3021 7.9218 25.8268 7.76338L25.9853 6.33764H25.8268C25.51 6.17922 24.4011 5.86239 24.0843 5.70398H23.9259L23.2922 6.9713C22.6585 6.81289 22.0249 6.65447 21.5496 6.65447L21.2328 5.22873H20.1239C19.807 5.22873 19.6486 5.22873 19.4902 5.22873L18.8566 5.38714V5.07031V5.22873H19.015L18.8566 6.65447C18.2229 6.65447 17.7476 6.81289 17.114 6.9713L16.4803 5.70398C16.1635 5.70398 15.0546 6.17922 14.7377 6.33764H14.4209L14.5793 7.76338C14.1041 7.9218 13.6288 8.23863 13.1536 8.55546L12.0447 7.60497C11.8863 7.76338 11.411 8.08021 11.0942 8.23863L10.7773 8.87229C11.0942 8.55546 11.7278 8.23863 12.0447 7.9218L13.1536 8.87229C13.7872 8.55546 14.2625 8.23863 14.8962 7.9218H15.0546L14.8962 6.49606C15.213 6.33764 16.1635 6.17922 16.4803 6.02081L17.114 7.28813H17.2724C17.9061 7.12972 18.5397 6.9713 19.1734 6.9713H19.3318L19.6486 5.54556H21.2328L21.5496 6.9713H21.708C22.3417 6.9713 22.9754 7.12972 23.609 7.28813H23.7674L24.4011 6.02081C24.7179 6.17922 25.6684 6.33764 25.9853 6.49606L25.6684 7.9218H25.8268C26.4605 8.23863 27.0942 8.55546 27.5694 8.87229L28.6783 7.9218C28.9952 8.08021 29.6288 8.55546 29.9457 8.87229L29.312 10.1396C29.7872 10.6149 30.2625 11.0901 30.7377 11.5654L31.6882 11.2485C31.6882 11.0901 31.6882 11.0901 31.6882 10.9317ZM34.8566 15.5258C34.8566 15.6842 35.015 15.6842 34.8566 15.5258C34.8566 15.6842 34.8566 15.5258 34.8566 15.5258ZM35.015 16.1594L34.8566 16.4763V16.6347C35.015 16.4763 35.015 16.3178 35.015 16.1594Z" fill="#0066CC"/>
<path d="M21.8659 6.65426H21.5491L21.2322 5.22852H19.1728L18.856 6.65426H18.6976C18.6976 6.65426 18.6976 6.81267 18.6976 6.97109H19.0144L19.3313 5.54535H20.9154L21.2322 6.97109H21.3907C21.5491 6.97109 21.5491 6.97109 21.7075 6.97109C21.7075 6.81267 21.8659 6.81267 21.8659 6.65426ZM33.1134 29.1493C33.1134 29.1493 32.955 28.9909 32.955 28.8325C32.7966 29.1493 32.3214 29.783 32.0045 30.0998L30.7372 29.4661C30.4204 29.9414 29.7867 30.4166 29.3115 30.8919L29.9451 32.1592C29.6283 32.476 28.9946 32.9513 28.6778 33.1097L27.5689 32.1592C26.9352 32.476 26.46 32.7929 25.8263 33.1097H25.6679L25.8263 34.5354C25.5095 34.6939 24.559 34.8523 24.2421 35.0107L23.6085 33.7434H23.4501C22.8164 33.9018 22.1827 34.0602 21.5491 34.0602H21.3907L21.0738 35.4859H19.4897L19.0144 34.377H18.856C18.2223 34.377 17.5887 34.2186 16.955 34.0602H16.7966L16.1629 35.3275C15.8461 35.1691 14.8956 35.0107 14.5788 34.8523L14.7372 33.4265H14.5788C13.9451 33.1097 13.3115 32.7929 12.8362 32.476L11.8857 33.2681C11.5689 33.1097 10.9352 32.6345 10.6184 32.3176L11.0936 31.0503C10.6184 30.5751 10.1431 30.0998 9.66789 29.6246L8.24215 30.0998C8.24215 29.9414 8.08373 29.783 7.92532 29.6246V29.783V29.6246C7.92532 29.4661 7.7669 29.3077 7.60849 29.3077V29.6246L7.29165 29.3077C7.29165 29.1493 7.29165 28.8325 7.13324 28.6741L6.81641 28.9909C6.97482 29.3077 7.7669 30.2582 7.92532 30.575L9.50948 29.783C9.82631 30.2582 10.3016 30.5751 10.7768 31.0503L10.1431 32.3176C10.46 32.476 11.4105 33.2681 11.7273 33.4265L12.8362 32.476C13.3115 32.7929 13.9451 33.1097 14.4204 33.2681L14.262 34.8523H14.4204C14.7372 35.0107 15.8461 35.3275 16.1629 35.4859H16.3214L16.955 34.2186C17.5887 34.377 18.2223 34.5354 18.6976 34.5354L19.0144 35.9612H21.0738L21.3907 34.5354C22.0243 34.5354 22.658 34.377 23.1332 34.2186L23.7669 35.4859H23.9253C24.2421 35.4859 25.5095 35.0107 25.6679 34.8523H25.8263L25.6679 33.4265C26.3016 33.1097 26.7768 32.9513 27.2521 32.6345L28.361 33.585C28.6778 33.4265 29.6283 32.6345 29.9451 32.476L29.3115 31.2087C29.7867 30.7335 30.2619 30.4166 30.5788 29.9414L31.8461 30.575C32.3214 30.2582 32.955 29.4661 33.1134 29.1493C33.2719 29.1493 33.1134 29.1493 33.1134 29.1493ZM32.7966 26.2978C32.7966 26.4562 32.7966 26.4562 32.7966 26.2978C32.7966 26.4562 32.7966 26.6147 32.7966 26.6147V26.2978ZM34.3808 26.1394C34.3808 26.1394 34.3808 26.1394 34.2223 26.2978C34.2223 26.2978 34.2223 26.2978 34.2223 26.4562H34.3808C34.3808 26.1394 34.5392 25.981 34.3808 26.1394C34.3808 25.981 34.3808 25.981 34.3808 26.1394ZM32.4798 27.0899L32.6382 27.4067V27.2483C32.6382 27.0899 32.6382 27.0899 32.4798 27.0899ZM32.1629 27.882L32.955 28.8325C32.955 28.6741 32.955 28.5156 32.7966 28.5156C32.6382 28.3572 32.4798 28.1988 32.1629 27.882ZM33.4303 25.981C33.4303 26.1394 33.4303 26.1394 33.4303 26.2978H33.5887C33.5887 26.2978 33.5887 26.1394 33.5887 25.981H33.4303ZM30.262 15.2087L30.1035 15.0503C28.5194 12.1988 25.8263 10.1394 22.4996 9.50574H22.3412L22.658 17.4265L30.262 15.2087ZM29.7867 15.0503L22.9748 16.9513L22.8164 9.82258C25.6679 10.6147 28.2025 12.5156 29.7867 15.0503Z" fill="#0066CC"/>
<path d="M15.2107 30.8928H15.3691C16.9532 31.5265 18.379 32.0018 20.1216 32.0018C21.7057 32.0018 23.2899 31.6849 24.7156 31.0513H24.874L19.9631 24.7146L15.2107 30.8928ZM20.28 31.6849C18.6958 31.6849 17.2701 31.3681 15.8443 30.7344L20.28 25.1899L24.5572 30.7344C23.1315 31.3681 21.7057 31.6849 20.28 31.6849ZM31.5275 19.3285V19.1701L24.082 21.8631L28.5176 28.5166L28.676 28.3582C30.7354 25.982 32.0027 22.6552 31.5275 19.3285ZM28.5176 27.8829L24.5572 22.0216L31.2107 19.6453C31.5275 22.6552 30.4186 25.6651 28.5176 27.8829ZM18.2206 9.50671H18.0622C14.8938 10.1404 12.0424 12.1998 10.4582 15.0513L10.2998 15.2097L17.9037 17.4275L18.2206 9.50671ZM17.5869 16.9523L10.775 14.8928C12.3592 12.3582 14.8938 10.4572 17.9037 9.82354L17.5869 16.9523ZM9.03245 19.0117V19.1701C8.87403 20.7542 9.03245 22.18 9.34928 23.6057L9.5077 23.1305V22.9721C9.5077 22.9721 9.5077 22.9721 9.5077 23.1305L9.34928 23.4473V22.9721L9.5077 22.6552C9.34928 21.7047 9.19087 20.5958 9.34928 19.4869L16.0027 21.8631L11.8839 27.7245C10.9334 26.6156 10.1414 25.3483 9.82453 23.9226C9.82453 24.081 9.82453 24.3978 9.66611 24.5562C10.1414 25.8235 10.9334 27.0909 11.8839 28.1998L12.0424 28.5166L16.6364 21.8631L9.03245 19.0117ZM7.28987 15.2097L7.76512 14.4176L8.39879 13.3087L8.24037 13.1503C8.24037 13.3087 8.08195 13.4671 7.92354 13.6255C7.76512 14.1008 7.60671 14.576 7.28987 15.0513H7.13146C7.13146 15.0513 6.97304 15.2097 6.97304 15.3681L7.28987 15.2097ZM9.82453 11.0909C9.82453 11.0909 9.82453 11.2493 9.82453 11.4077V11.5661C10.2998 11.0909 10.775 10.6156 11.2503 10.1404L10.6166 8.87305L10.4582 9.18988L10.775 9.98196C10.6166 10.4572 10.1414 10.774 9.82453 11.0909ZM6.02255 15.0513C6.02255 14.8928 6.02255 14.8928 6.02255 15.0513L5.86413 14.8928V15.0513C5.70572 15.3681 5.38888 16.477 5.23047 16.7938V16.9523L6.02255 15.0513ZM7.60671 12.5166C7.76512 12.0414 8.24037 11.4077 8.5572 11.0909H8.71562C8.71562 11.0909 8.87403 10.9325 9.03245 10.9325L8.39879 10.774C8.24037 11.0909 7.44829 12.0414 7.28987 12.3582L7.44829 12.675C7.44829 12.5166 7.60671 12.5166 7.60671 12.5166Z" fill="#0066CC"/>
<path d="M6.33799 39.7633C6.33799 39.9217 6.33799 39.9217 6.33799 39.7633C6.65482 40.0801 6.97165 39.9217 7.13007 39.7633C7.28848 39.4464 7.28848 39.288 7.13007 39.1296C6.97165 38.9712 6.97165 38.9712 6.97165 39.1296L6.33799 39.7633ZM3.16967 37.7038C3.4865 37.8623 3.64492 38.0207 3.96175 37.7038C4.12017 37.387 4.12017 37.2286 3.96175 37.0702L3.80333 36.9118C3.80333 36.9118 3.80333 36.9118 3.64492 36.9118L3.16967 37.7038ZM7.76373 39.9217C7.76373 39.6048 7.76373 39.6048 7.76373 39.288C7.92215 39.288 8.08056 39.4464 8.08056 39.4464L8.39739 39.6048C8.39739 39.6048 8.08056 39.4464 8.08056 39.6048C8.08056 39.7633 7.92215 40.2385 7.76373 40.3969L7.60531 41.3474L8.23898 40.7138C8.39739 40.5553 8.71423 40.2385 8.87264 40.0801C9.03106 39.9217 8.87264 39.9217 8.87264 39.7633V39.6048C9.03106 39.7633 9.18947 39.7633 9.18947 39.7633C9.34789 39.7633 9.50631 39.9217 9.50631 39.9217C9.18947 39.7633 9.03106 40.0801 8.87264 40.2385L7.4469 41.5058H7.28848L7.76373 39.9217ZM6.02116 40.2385C6.02116 40.3969 5.86274 40.5553 5.86274 40.7138C5.86274 40.8722 5.86274 40.8722 6.02116 41.0306C5.86274 40.8722 5.70432 40.8722 5.70432 40.7138C5.54591 40.7138 5.38749 40.5553 5.38749 40.5553V40.3969C5.54591 40.3969 5.70432 40.5553 5.70432 40.3969C5.86274 40.3969 6.02116 40.0801 6.02116 40.0801L6.33799 39.288C6.33799 39.1296 6.4964 38.9712 6.65482 38.9712C6.65482 38.8128 6.65482 38.8128 6.4964 38.6543C6.65482 38.8128 6.81324 38.8128 6.81324 38.9712C6.97165 38.9712 7.13007 39.1296 7.13007 39.1296C7.4469 39.288 7.60531 39.6048 7.4469 40.0801C7.13007 40.5553 6.81323 40.3969 6.4964 40.2385L6.33799 40.0801L6.02116 40.2385ZM4.75383 38.3375C4.75383 38.1791 4.91225 38.0207 5.07066 38.0207C5.07066 37.8623 5.07066 37.8623 4.91224 37.7038H5.07066L6.33799 38.4959L6.02116 38.9712C6.17957 38.6543 6.02116 38.4959 5.86274 38.3375L5.38749 38.0207C5.38749 38.0207 5.38749 38.0207 5.22908 38.0207L4.75383 38.8128C5.07066 39.1296 5.22908 38.8128 5.38749 38.8128C5.22908 38.9712 5.22908 39.1296 5.07066 39.1296C4.91225 39.288 4.91224 39.4464 4.75383 39.4464C4.91224 39.1296 4.75383 38.9712 4.59541 38.8128L4.27858 39.288C4.27858 39.4464 4.12017 39.6048 4.12017 39.6048C4.12017 39.7633 4.27858 39.9217 4.437 39.9217C4.75383 40.0801 4.91225 40.0801 5.07066 39.9217L4.75383 40.3969L3.64492 39.6048C3.64492 39.6048 3.80333 39.7633 3.96175 39.6048C3.96175 39.6048 4.12017 39.288 4.27858 39.288L4.75383 38.3375ZM3.4865 39.1296C3.4865 39.288 3.4865 39.288 3.64492 39.4464L3.4865 39.288C3.4865 39.288 3.32809 39.288 3.16967 39.1296V38.8128V38.0207C3.16967 37.8623 3.16967 37.8623 3.01125 37.7038L2.69442 38.0207C2.69442 38.1791 2.53601 38.3375 2.37759 38.4959C2.37759 38.6543 2.37759 38.6543 2.53601 38.6543C2.37759 38.6543 2.21918 38.4959 2.21918 38.4959C2.06076 38.3375 1.90234 38.3375 1.90234 38.1791C2.06076 38.1791 2.06076 38.3375 2.21918 38.1791C2.37759 38.1791 2.53601 37.8623 2.53601 37.8623L3.16967 37.0702C3.16967 37.0702 3.32809 36.7534 3.4865 36.7534C3.4865 36.5949 3.4865 36.5949 3.32809 36.5949V36.4365C3.4865 36.5949 3.64492 36.5949 3.80333 36.7534C3.96175 36.7534 4.12017 36.9118 4.12017 36.9118C4.437 37.0702 4.59541 37.387 4.437 37.8623C4.12017 38.1791 3.80333 38.1791 3.64492 38.0207V39.1296H3.4865ZM19.1697 39.7633L18.6944 38.8128L18.536 39.7633H19.1697ZM12.1994 41.5058C12.1994 41.6642 12.1994 41.8227 12.3578 41.8227C12.3578 41.9811 12.5162 41.9811 12.6746 41.9811C12.833 41.9811 12.9915 41.6642 12.9915 41.3474C12.9915 41.189 12.833 41.0306 12.6746 40.8722C12.5162 40.8722 12.3578 40.8722 12.3578 40.8722H12.041L12.1994 41.5058ZM12.1994 40.8722C12.3578 40.8722 12.5162 40.8722 12.5162 40.7138C12.6746 40.5553 12.6746 40.3969 12.6746 40.2385C12.6746 39.9217 12.5162 39.9217 12.3578 39.9217H12.1994V40.0801V40.8722ZM10.4568 41.6642C10.4568 41.8227 10.4568 41.9811 10.6152 42.1395C10.6152 42.2979 10.7736 42.2979 10.932 42.1395C11.2489 42.1395 11.2489 41.8227 11.2489 41.5058C11.2489 41.3474 11.0905 41.189 10.932 41.189C10.7736 41.189 10.6152 41.189 10.4568 41.189V41.6642ZM10.2984 41.189C10.6152 41.189 10.6152 41.189 10.6152 41.0306C10.7736 40.8722 10.7736 40.7138 10.7736 40.7138C10.7736 40.3969 10.6152 40.2385 10.2984 40.3969H10.14V40.5553L10.2984 41.189ZM18.536 40.0801C18.536 40.2385 18.3776 40.5553 18.536 40.7138C18.536 40.8722 18.6944 40.8722 18.8528 40.8722V41.0306H18.536C18.3776 41.0306 18.3776 41.0306 18.2192 41.0306C18.3776 41.0306 18.3776 40.8722 18.536 40.7138C18.3776 40.3969 18.3776 40.2385 18.536 40.0801L18.6944 38.4959H18.8528L19.8033 40.0801C19.8033 40.2385 19.9618 40.3969 20.1202 40.3969C20.1202 40.3969 20.2786 40.3969 20.437 40.3969V40.5553C20.2786 40.5553 20.1202 40.5553 20.1202 40.5553C19.9618 40.5553 19.8033 40.5553 19.6449 40.5553C19.6449 40.5553 19.8033 40.5553 19.8033 40.2385V40.0801L19.4865 39.7633L18.536 40.0801ZM17.5855 38.8128L17.7439 39.4464C17.5855 39.1296 17.4271 38.8128 17.1103 38.8128C16.4766 38.8128 16.4766 39.4464 16.635 40.0801C16.7934 40.7137 16.9519 41.189 17.5855 41.0306C17.9023 40.8722 18.0608 40.5553 18.0608 40.0801L18.2192 40.8722L18.0608 40.7138C17.7439 41.189 17.4271 41.189 17.2687 41.189C16.635 41.3474 16.1598 40.8722 16.0014 40.2385C16.0014 39.6048 16.3182 38.9712 16.7934 38.8128C17.1103 38.8128 17.4271 38.8128 17.5855 38.8128ZM15.3677 39.7633C15.3677 39.6048 15.3677 39.4464 15.3677 39.288C15.2093 39.1296 15.2093 39.1296 15.0509 39.1296C15.2093 39.1296 15.3677 39.1296 15.5261 39.1296C15.6845 39.1296 15.8429 39.1296 16.0014 39.1296C16.0014 39.1296 15.8429 39.1296 15.8429 39.288C15.8429 39.4464 15.8429 39.6048 15.8429 39.7633L16.0014 40.7138C16.0014 40.8722 16.0014 41.0306 16.1598 41.189C16.1598 41.3474 16.3182 41.3474 16.4766 41.3474V41.5058H15.8429C15.6845 41.5058 15.5261 41.5058 15.3677 41.5058C15.5261 41.5058 15.5261 41.5058 15.5261 41.3474C15.5261 41.189 15.5261 41.0306 15.5261 40.8722L15.3677 39.7633ZM13.4667 40.2385C13.4667 40.0801 13.4667 39.9217 13.4667 39.7633C13.4667 39.6048 13.3083 39.6048 13.1499 39.7633V39.6048C13.3083 39.6048 13.4667 39.6048 13.6251 39.6048C13.7835 39.6048 13.9419 39.6048 14.1004 39.6048V39.7633C13.9419 39.7633 13.9419 39.7633 13.7835 39.9217C13.7835 40.0801 13.7835 40.2385 13.7835 40.3969L13.9419 41.189C13.9419 41.6642 14.1004 41.6642 14.5756 41.6642C14.734 41.6642 14.8924 41.6642 14.8924 41.5058C15.0509 41.189 15.0509 41.189 15.0509 40.8722H15.2093V41.5058H15.0509C14.5756 41.5058 14.1004 41.6642 13.4667 41.8227C13.6251 41.8227 13.6251 41.8227 13.6251 41.6642C13.6251 41.5058 13.6251 41.3474 13.6251 41.189L13.4667 40.2385ZM11.7241 40.5553C11.7241 40.3969 11.7241 40.2385 11.5657 40.0801C11.5657 39.9217 11.4073 39.9217 11.2489 39.9217C11.4073 39.9217 11.5657 39.9217 11.7241 39.9217C11.8825 39.9217 11.8825 39.9217 12.041 39.9217C12.3578 39.9217 12.6746 39.9217 12.833 40.3969C12.833 40.7138 12.6746 40.8722 12.5162 41.0306C12.6746 41.0306 12.833 41.0306 12.9915 41.189C13.1499 41.3474 13.3083 41.5058 13.3083 41.6642C13.3083 41.9811 13.1499 42.1395 13.1499 42.2979C12.9915 42.4563 12.833 42.4563 12.5162 42.4563C12.5162 42.4563 12.3578 42.4563 12.1994 42.4563C12.041 42.4563 11.8825 42.4563 11.7241 42.6147V42.4563C11.7241 42.4563 11.8825 42.4563 11.8825 42.2979C11.8825 42.1395 11.8825 41.9811 11.8825 41.8227L11.7241 40.5553ZM9.98155 40.8722C9.98155 40.7137 9.98155 40.5553 9.98155 40.3969C9.98155 40.2385 9.82314 40.2385 9.66472 40.3969V40.2385C9.82314 40.2385 9.98155 40.2385 9.98155 40.2385C10.14 40.2385 10.2984 40.2385 10.2984 40.2385C10.6152 40.2385 10.932 40.2385 11.0905 40.7138C11.0905 41.0306 10.932 41.189 10.7736 41.3474C10.932 41.3474 11.0905 41.3474 11.2489 41.3474C11.4073 41.5058 11.5657 41.6642 11.5657 41.8227C11.5657 41.9811 11.5657 42.1395 11.4073 42.4563C11.2489 42.6147 11.0905 42.6147 10.932 42.6147C10.7736 42.6147 10.6152 42.6147 10.6152 42.6147C10.4568 42.6147 10.2984 42.6147 9.98155 42.6147C10.14 42.6147 10.14 42.6147 10.2984 42.4563C10.2984 42.2979 10.2984 42.1395 10.2984 41.9811L9.98155 40.8722ZM28.1994 41.0306L28.041 40.0801L27.5657 41.0306H28.1994ZM31.8429 40.8722C31.8429 40.7137 31.8429 40.5553 31.8429 40.3969C31.8429 40.2385 31.6845 40.2385 31.5261 40.2385V40.0801H32.0014C32.1598 40.0801 32.3182 40.0801 32.4766 40.0801V40.2385C32.3182 40.2385 32.1598 40.2385 32.1598 40.3969V40.8722L32.3182 41.8227C32.3182 41.9811 32.3182 42.1395 32.3182 42.2979C32.3182 42.4563 32.4766 42.4563 32.635 42.4563H32.1598C32.0014 42.4563 31.8429 42.4563 31.6845 42.4563C31.6845 42.4563 32.0014 42.4563 32.0014 42.2979C32.0014 42.1395 32.0014 41.9811 32.0014 41.8227L31.8429 40.8722ZM29.7835 40.5553C29.7835 40.3969 29.7835 40.2385 29.7835 40.0801C29.7835 39.9217 29.6251 39.9217 29.4667 39.9217C29.6251 39.9217 29.7835 39.9217 29.7835 39.9217C29.9419 39.9217 30.1004 39.9217 30.2588 39.9217V40.0801H29.9419C29.9419 40.2385 29.9419 40.3969 29.7835 40.5553L29.6251 41.6642C29.6251 42.1395 29.6251 42.2979 29.9419 42.2979C30.1004 42.2979 30.2588 42.2979 30.4172 42.2979C30.734 42.1395 30.734 41.9811 30.734 41.8227H30.8924L30.734 42.4563H30.5756C29.9419 42.2979 29.4667 42.2979 28.9915 42.1395C29.1499 42.1395 29.1499 42.1395 29.3083 41.9811C29.3083 41.9811 29.3083 41.6642 29.4667 41.5058L29.7835 40.5553ZM27.4073 41.189C27.4073 41.3474 27.2489 41.5058 27.2489 41.6642C27.2489 41.8227 27.4073 41.8227 27.4073 41.8227C27.2489 41.8227 27.2489 41.8227 27.0905 41.8227C26.932 41.8227 26.7736 41.8227 26.7736 41.8227C26.932 41.8227 26.932 41.8227 27.0905 41.5058C27.2489 41.3474 27.2489 41.0306 27.4073 40.8722L28.041 39.6048H28.1994L28.5162 41.5058C28.5162 41.6642 28.5162 41.8227 28.6746 41.9811C28.6746 42.1395 28.833 42.1395 28.833 42.1395C28.6746 42.1395 28.5162 42.1395 28.3578 42.1395C28.1994 42.1395 28.041 42.1395 27.8825 42.1395V41.9811H28.041V41.6642V41.3474L27.4073 41.189ZM27.2489 40.0801C27.2489 39.7633 27.0905 39.6048 26.932 39.4464C26.7736 39.4464 26.6152 39.4464 26.6152 39.4464L26.2984 41.189C26.2984 41.5058 26.2984 41.5058 26.6152 41.6642C26.4568 41.6642 26.2984 41.6642 26.14 41.5058C25.9816 41.5058 25.8231 41.5058 25.6647 41.5058C25.9816 41.5058 25.9816 41.5058 26.14 41.189L26.2984 39.4464L26.14 39.288C25.8231 39.288 25.6647 39.288 25.6647 39.6048H25.3479L25.5063 38.9712L27.4073 39.288L27.2489 40.0801ZM24.3974 39.6048C24.3974 39.4464 24.3974 39.288 24.3974 39.1296C24.3974 38.9712 24.239 38.9712 24.239 38.9712V38.8128C24.3974 38.8128 24.5558 38.9712 24.7142 38.9712C24.8726 38.9712 25.0311 38.9712 25.1895 38.9712C25.1895 38.9712 25.0311 38.9712 24.8726 39.1296C24.8726 39.288 24.8726 39.4464 24.7142 39.6048L24.5558 40.7138C24.5558 40.8722 24.5558 41.0306 24.5558 41.189C24.5558 41.3474 24.7142 41.3474 24.7142 41.3474V41.5058C24.5558 41.5058 24.3974 41.5058 24.239 41.3474C24.0806 41.3474 23.9221 41.3474 23.7637 41.3474C23.9221 41.3474 23.9221 41.3474 24.0806 41.189C24.0806 41.189 24.239 40.8722 24.239 40.7138L24.3974 39.6048ZM37.7043 38.0207L36.9122 37.387L37.2291 38.3375L37.7043 38.0207ZM34.0608 40.7138L33.2687 40.0801L33.4271 41.0306L34.0608 40.7138ZM37.2291 38.6543C37.2291 38.8128 37.3875 39.1296 37.3875 39.288C37.5459 39.4464 37.5459 39.288 37.7043 39.288V39.4464C37.7043 39.4464 37.5459 39.6048 37.3875 39.6048C37.2291 39.6048 37.2291 39.6048 37.2291 39.6048V39.4464C37.3875 39.288 37.3875 39.288 37.3875 39.1296C37.2291 38.9712 37.0707 38.6543 37.2291 38.6543L36.5954 37.0702L38.1796 38.1791L38.4964 38.3375C38.6548 38.3375 38.6548 38.3375 38.8132 38.3375V38.4959C38.6548 38.4959 38.4964 38.6543 38.4964 38.6543C38.338 38.8128 38.338 38.8128 38.1796 38.9712C38.1796 38.9712 38.338 38.8128 38.338 38.6543C38.338 38.4959 38.1796 38.4959 38.1796 38.4959L37.8627 38.3375L37.2291 38.6543ZM34.536 38.9712C34.3776 38.9712 34.2192 38.9712 34.2192 38.9712V38.8128C34.3776 38.8128 34.3776 38.8128 34.3776 38.6543C34.3776 38.6543 34.536 38.6543 34.536 38.4959L36.5954 39.1296L35.9618 38.3375C35.8033 38.1791 35.8033 38.0207 35.6449 37.8623C35.4865 37.7038 35.4865 37.8623 35.3281 37.8623C35.4865 37.8623 35.4865 37.7038 35.6449 37.7038C35.6449 37.5454 35.8033 37.5454 35.8033 37.387C35.8033 37.5454 35.6449 37.5454 35.6449 37.7038C35.6449 37.8623 35.9618 38.0207 35.9618 38.3375L36.9122 39.6048C36.7538 39.6048 36.7538 39.6048 36.5954 39.4464L34.536 38.9712L35.3281 39.9217C35.3281 40.0801 35.4865 40.2385 35.6449 40.2385C35.8033 40.2385 35.8033 40.2385 35.9618 40.2385C35.9618 40.3969 35.8033 40.3969 35.6449 40.3969C35.4865 40.3969 35.4865 40.5553 35.3281 40.5553C35.4865 40.3969 35.4865 40.3969 35.4865 40.2385C35.4865 40.0801 35.3281 39.9217 35.1697 39.9217L34.536 38.9712ZM33.5855 41.189C33.5855 41.3474 33.5855 41.5058 33.7439 41.8227C33.7439 41.9811 33.9023 41.8227 34.0608 41.8227C33.9023 41.8227 33.9023 41.9811 33.7439 41.9811C33.5855 41.9811 33.5855 42.1395 33.4271 42.1395C33.5855 41.9811 33.5855 41.9811 33.5855 41.8227C33.5855 41.5058 33.4271 41.3474 33.5855 41.189L33.2687 39.6048L34.6944 40.8722L35.0113 41.189C35.1697 41.189 35.1697 41.189 35.3281 41.189L35.0113 41.3474L34.6944 41.5058V41.3474C34.8528 41.3474 35.0113 41.189 34.8528 41.189C34.6944 41.189 34.6944 41.0306 34.6944 41.0306L34.3776 40.7138L33.5855 41.189Z" fill="#0066CC"/>
<path d="M40.8713 22.0197C41.0297 21.0692 40.8713 20.594 40.5545 20.4355C40.2376 20.1187 39.9208 20.2771 39.2871 20.594C38.9703 20.4355 38.6535 20.594 38.1782 21.0692C38.1782 20.9108 38.1782 20.7524 38.1782 20.4355C38.6535 20.2771 38.8119 19.9603 38.9703 19.8019C39.1287 19.4851 39.1287 19.1682 39.1287 18.693C39.1287 18.3761 39.4455 17.7425 40.0792 17.1088C40.396 16.3167 40.2376 15.9999 39.2871 16.3167C39.7624 15.8415 39.9208 15.5247 39.9208 15.2078C39.9208 14.891 39.9208 14.5742 39.604 14.0989C39.4455 13.7821 39.2871 13.7821 39.1287 13.9405C39.1287 13.7821 39.2871 13.6237 39.2871 13.3068C39.2871 12.99 39.1287 12.6732 38.8119 11.8811C38.8119 10.9306 38.495 10.4553 38.1782 10.6138C38.1782 10.1385 37.8614 9.66327 37.703 9.18802C37.3861 8.55436 37.0693 8.39594 36.7525 8.71277C36.1188 7.76228 35.4851 7.44545 35.0099 7.44545C35.0099 7.12861 34.8515 6.65337 34.5347 6.33654C34.3762 5.70287 34.2178 5.22762 33.901 5.06921C33.5842 4.91079 33.4257 5.06921 33.2673 5.54446C33.2673 5.22762 33.1089 4.75238 32.9505 4.43555C32.7921 4.11871 32.4753 3.80188 32 3.80188C31.8416 3.80188 31.6832 3.80188 31.5248 3.80188C31.2079 3.64347 31.0495 3.48505 30.8911 3.48505C30.2574 2.85139 29.7822 2.85139 29.3069 3.32663V2.85139C29.1485 2.21772 28.8317 2.05931 28.3564 2.53456C27.5644 1.74248 26.9307 1.10881 26.297 0.950397C25.8218 0.791982 25.505 0.791982 25.3465 1.10881C25.0297 0.791982 24.8713 0.791982 24.5545 0.633566C24.2376 0.47515 23.9208 0.47515 23.7624 0.47515C23.4455 0.47515 23.1287 0.633566 23.2871 1.10881C22.6535 1.10881 22.3366 1.26723 22.0198 1.42564C22.1782 1.74248 22.1782 1.90089 22.1782 2.21772C22.3366 2.53456 22.495 2.85139 22.8119 3.0098C22.6535 3.16822 22.6535 3.32663 22.6535 3.64347C22.6535 3.9603 22.9703 4.11871 23.4455 4.27713C23.7624 4.43555 24.2376 4.43555 24.5545 4.27713C24.5545 4.59396 24.5545 4.91079 24.8713 4.91079C25.3465 5.38604 25.9802 5.54446 26.6139 5.22762V5.70287L27.5644 6.0197C27.5644 6.49495 27.8812 6.81178 28.198 6.9702L28.5149 7.12862L28.0396 7.44545C28.0396 7.44545 27.7228 8.07911 28.3564 8.07911C28.6733 8.07911 29.1485 8.07911 29.6238 8.07911C29.6238 8.23753 29.6238 8.39594 29.7822 8.55436C29.7822 8.71277 30.099 8.87119 30.2574 9.18802C30.5743 9.50485 31.0495 9.82168 31.5248 9.9801C31.5248 9.9801 31.3663 10.2969 31.2079 10.6138C31.0495 10.9306 31.0495 11.5643 31.2079 11.8811C31.2079 11.8811 30.8911 12.0395 30.8911 12.1979C30.5743 12.6732 31.2079 13.3068 31.3663 13.6237C31.3663 13.6237 31.0495 13.6237 31.0495 13.7821C30.7327 13.9405 30.8911 14.7326 31.5248 14.891C31.6832 14.891 32.4753 15.3662 32.7921 15.8415C32.7921 15.8415 33.1089 16.3167 33.4257 16.6336C33.5842 16.792 33.7426 17.2672 34.0594 17.2672C34.3762 18.3761 35.0099 19.4851 35.6436 20.594C35.6436 20.594 36.2772 21.2276 36.5941 21.8613C36.5941 22.1781 36.5941 22.6534 36.5941 22.6534C36.5941 23.4454 36.2772 24.2375 36.1188 24.7128C35.4851 24.3959 35.3267 24.8712 35.1683 25.3464H34.8515C34.8515 25.0296 34.3762 24.8712 34.2178 25.0296C34.2178 25.0296 33.901 25.188 33.901 25.3464C33.901 25.3464 33.901 25.0296 33.7426 24.8712C33.7426 24.7128 33.7426 24.2375 33.7426 24.0791C33.7426 24.0791 33.901 23.7623 34.0594 23.7623C34.2178 23.4454 34.0594 22.1781 33.901 21.386C33.901 21.0692 33.5842 21.0692 33.5842 20.9108C33.5842 20.9108 33.1089 20.9108 33.1089 21.2276C33.1089 21.0692 32.7921 20.9108 32.6337 20.9108C32.1584 20.7524 31.5248 21.8613 31.5248 22.8118C31.2079 22.495 30.5743 22.6534 30.7327 23.1286C30.7327 23.9207 32 25.188 32 25.8217C31.6832 25.5049 30.8911 25.5049 30.8911 26.2969C30.8911 26.6138 31.0495 26.9306 31.2079 27.089C31.0495 27.8811 32 28.3563 32.6337 29.1484C32.6337 29.4653 32.7921 29.4653 32.7921 29.6237C32.6337 29.7821 31.8416 31.2078 31.8416 31.2078C31.8416 31.2078 31.2079 30.891 31.0495 31.0494C30.8911 31.2078 30.7327 31.5247 30.5743 31.6831L30.7327 32.6336C30.7327 32.9504 30.5743 33.4256 30.099 33.9009C29.6238 34.3761 29.3069 34.8514 29.1485 35.1682C29.1485 35.4851 28.8317 35.8019 28.198 36.1187C28.198 35.9603 28.0396 35.8019 27.8812 35.6435H27.7228C27.0891 35.8019 26.1386 36.2771 24.396 37.2276C24.0792 37.386 23.7624 37.2276 23.1287 38.495H22.1782C21.8614 37.8613 21.5446 38.1781 21.3861 37.8613C21.2277 37.7029 20.7525 37.7029 20.2772 38.0197C19.802 37.8613 19.3267 38.0197 18.6931 38.3365C18.3762 38.495 18.0594 38.495 18.0594 38.3365L16.7921 36.4355C14.4158 35.3266 12.9901 34.8514 12.8317 35.0098C12.5149 35.1682 12.3564 35.3266 12.198 35.6435C11.8812 35.4851 11.5644 35.1682 11.0891 34.693L10.297 33.7425C9.82178 33.2672 9.50495 32.6336 9.66337 32.1583L9.82178 31.3662C9.82178 31.2078 9.82178 31.2078 9.82178 31.0494C9.66337 30.891 9.34653 30.7326 9.18812 30.7326C9.18812 30.7326 9.0297 30.7326 8.87129 31.0494C8.87129 31.3662 8.07921 30.0989 7.92079 30.0989C8.07921 29.7821 8.55446 29.1484 8.71287 28.3563C9.0297 27.4058 9.0297 26.4553 9.0297 25.9801C9.0297 25.9801 9.0297 25.9801 9.0297 25.8217C9.34653 25.5049 9.9802 22.8118 9.82178 22.1781C9.82178 21.8613 9.66337 21.8613 9.66337 21.8613H9.50495L9.66337 21.5445C9.66337 21.386 9.66337 21.2276 9.66337 21.0692C9.66337 21.0692 9.18812 21.0692 8.71287 21.2276C8.71287 20.7524 8.39604 20.1187 8.39604 19.9603H8.23762C7.60396 20.4355 7.28713 21.2276 6.9703 22.3365L6.81188 22.495C5.86139 23.6039 5.22772 24.8712 4.91089 26.2969C4.91089 26.1385 4.75248 25.8217 4.59406 25.3464C4.43564 24.8712 4.43564 24.7128 4.43564 24.3959C4.59406 24.0791 4.43564 23.9207 4.27723 23.7623C4.11881 23.6039 3.9604 22.8118 3.64356 21.5445C3.64356 21.2276 3.80198 20.594 4.11881 19.9603C4.43564 19.3266 4.75248 18.3761 5.38614 17.4256L5.70297 17.1088C6.49505 16.9504 10.297 12.0395 9.9802 9.82168C9.9802 9.82168 11.5644 7.12861 11.7228 6.49495H11.8812L12.198 6.33654C12.9901 6.0197 13.7822 5.70287 14.2574 5.38604L15.2079 4.91079C15.8416 4.59396 16.4752 4.27713 17.1089 3.64347C17.7426 3.0098 18.0594 2.53456 18.2178 1.90089C18.0594 1.74248 17.7426 1.58406 17.2673 1.58406C17.5842 1.26723 17.7426 0.950397 17.7426 0.633566C17.5842 0.316734 16.9505 0.316734 15.8416 0.47515C14.8911 1.10881 13.9406 1.58406 13.1485 2.21772C12.3564 2.85139 11.5644 3.48505 10.9307 4.11871C10.297 4.91079 9.66337 5.70287 9.34653 6.49495L9.82178 5.38604C9.9802 4.75238 10.1386 4.27713 10.4554 3.48505C10.4554 3.16822 10.4554 2.85139 10.4554 2.69297C10.4554 2.53456 10.1386 2.53456 9.9802 2.53456C9.82178 2.53456 9.18812 3.0098 8.55446 3.64347C7.76238 4.27713 7.12871 5.22762 6.49505 6.49495C6.0198 7.60386 5.54455 8.39594 5.38614 9.0296C5.54455 8.23753 5.54455 7.60386 5.38614 7.12862C5.38614 6.9702 5.06931 6.81178 4.75248 6.9702C4.43564 7.12862 4.27723 7.44545 3.9604 7.76228C3.64356 8.23753 3.48515 8.55436 3.16832 8.87119C2.85149 9.18802 2.69307 9.66327 2.37624 10.2969C2.05941 10.9306 1.74257 11.5643 1.42574 12.5148C1.26733 13.3068 0.950495 14.4157 0.950495 15.8415C0.950495 16.792 0.950495 17.7425 1.10891 18.693C1.42574 19.6435 1.58416 20.4355 1.90099 20.9108C2.21782 21.386 2.37624 21.7029 2.69307 21.8613C2.69307 22.1781 2.85149 22.8118 3.16832 23.6039C3.32673 23.9207 3.32673 24.2375 3.32673 24.5544C3.32673 24.7128 3.32673 24.8712 3.48515 25.0296C3.64356 25.0296 3.80198 25.3464 3.80198 25.5049C3.9604 26.2969 4.27723 27.089 4.75248 27.5643C4.75248 27.8811 4.59406 28.1979 4.59406 28.6732C3.80198 26.4553 3.16832 24.7128 2.69307 23.6039C1.74257 21.5445 0.950495 20.594 0.475248 20.7524C0.316832 20.7524 0 20.9108 0 21.386V22.495C0 23.1286 0 23.7623 0.158416 24.3959C0.633663 26.4553 1.42574 28.3563 2.69307 29.7821L4.43564 31.8415C4.75248 32.1583 5.06931 32.4752 5.38614 32.6336C5.70297 32.792 6.0198 32.792 6.33663 32.792C6.65347 33.4256 7.28713 34.0593 7.92079 34.8514C8.23762 35.4851 8.71287 35.8019 9.18812 35.8019C9.34653 36.1187 9.66337 36.4355 9.9802 36.4355H10.297C10.7723 36.9108 11.2475 37.386 11.7228 37.7029L11.2475 38.9702C10.4554 39.1286 9.66337 39.1286 9.0297 39.1286C8.39604 38.6534 7.44554 38.0197 6.33663 37.2276V35.8019C6.33663 35.3266 6.33663 34.8514 6.65347 34.5346C6.65347 34.2177 6.49505 34.0593 6.17822 33.7425C5.38614 33.4256 4.75248 33.2672 4.59406 33.2672C4.43564 33.2672 4.11881 33.4256 4.11881 33.5841V34.3761H2.05941C1.90099 34.3761 1.74257 34.3761 1.74257 34.693C1.58416 34.8514 1.74257 35.1682 1.74257 35.6435C1.74257 35.8019 1.74257 35.9603 1.74257 36.1187C1.58416 36.594 1.42574 37.2276 0.950495 38.0197C0.950495 38.1781 0.950495 38.3365 0.950495 38.495C1.10891 38.8118 1.42574 39.1286 1.90099 39.6039C2.05941 39.7623 2.37624 40.0791 2.85149 40.3959C3.32673 40.7128 4.11881 41.188 5.06931 41.8217C6.33663 42.6138 7.60396 43.2474 8.71287 43.7227C9.0297 43.7227 10.6139 43.5643 13.6238 43.089V43.4058C12.6733 44.0395 12.198 44.3563 12.0396 44.1979C11.7228 44.1979 11.5644 44.5148 11.7228 44.99C11.8812 45.1484 12.0396 45.3068 12.3564 45.4653L12.6733 45.7821L13.6238 46.4157C13.9406 46.5742 14.2574 46.5742 14.5743 46.4157C14.8911 46.2573 15.0495 46.0989 15.2079 45.6237L15.3663 45.4653L16.3168 44.5148L16.9505 43.8811C17.5842 43.7227 17.901 43.5643 18.0594 43.2474C18.0594 42.9306 18.2178 42.7722 18.2178 42.7722L19.1683 42.1385C19.1683 42.1385 19.4851 42.1385 20.2772 42.6138C20.5941 42.6138 20.9109 42.6138 21.2277 42.6138L21.8614 42.2969C22.4951 42.4553 23.4455 43.089 24.8713 44.3563C24.8713 44.5148 24.8713 44.6732 25.1881 44.8316C25.3465 44.99 25.6634 45.1484 26.1386 45.1484L26.4554 45.7821L26.7723 45.9405C27.2475 45.9405 27.7228 45.7821 28.198 45.3068L28.8317 45.1484C29.1485 44.99 29.1485 44.6732 29.1485 44.5148L28.9901 44.3563L28.5149 44.1979C27.8812 43.8811 27.2475 43.5643 26.7723 43.089L26.4554 42.7722C28.198 43.089 30.4158 43.4058 33.1089 43.5643C33.4257 43.5643 33.901 43.4058 34.3762 43.089C35.0099 42.7722 36.5941 41.5049 39.2871 39.6039C39.604 39.1286 40.0792 38.6534 40.2376 38.0197C39.9208 37.7029 39.7624 37.386 39.604 37.0692C39.4455 36.594 39.2871 36.2771 39.2871 35.9603C39.2871 35.6435 39.2871 35.4851 39.2871 35.1682C39.2871 35.0098 39.2871 34.693 39.1287 34.5346C39.1287 34.3761 38.8119 34.3761 38.495 34.3761C38.0198 34.3761 37.3861 34.3761 36.7525 34.3761C36.4356 34.3761 36.2772 34.2177 36.1188 34.2177V33.5841C36.1188 33.2672 36.1188 33.2672 35.9604 33.2672C35.3267 33.4256 34.8515 33.5841 34.6931 33.9009C34.5347 34.2177 34.5347 34.3761 34.6931 34.693C34.8515 34.8514 35.0099 35.0098 35.0099 35.3266C34.8515 36.4355 34.8515 37.2276 34.6931 37.386C33.4257 38.3365 32.6337 38.9702 32.3168 39.1286C32 39.287 31.2079 39.1286 30.099 38.9702C29.7822 38.6534 29.6238 38.3365 29.4653 37.7029C29.7822 37.386 30.2574 37.0692 30.7327 36.7524C31.0495 36.7524 31.3663 36.594 31.5248 36.594C31.6832 36.594 31.8416 36.2771 31.8416 35.9603C32 35.9603 32.1584 35.6435 32.3168 35.3266L33.7426 33.5841C34.2178 33.2672 34.6931 32.9504 35.3267 32.9504C35.9604 32.9504 36.9109 32.4752 37.8614 31.8415C38.0198 31.6831 38.0198 31.3662 37.8614 31.0494C38.1782 30.891 38.6535 30.4157 39.4455 29.4653C39.7624 29.1484 39.7624 28.6732 39.604 28.1979C40.2376 27.4058 40.5545 26.7722 40.7129 26.2969C40.7129 25.9801 40.7129 25.5049 40.7129 25.0296C41.0297 24.8712 41.1881 24.7128 41.3465 24.5544C41.505 24.3959 41.505 24.2375 41.505 23.9207C41.505 23.6039 41.505 23.4454 41.1881 23.287C41.1881 23.1286 41.1881 22.495 40.8713 22.0197ZM34.8515 8.55436C35.0099 8.23753 35.0099 8.07911 35.1683 7.92069C35.1683 7.76228 35.3267 7.76228 35.6436 7.92069C35.9604 8.07911 36.2772 8.55436 36.9109 9.18802C37.2277 8.87119 37.3861 9.02961 37.703 9.50485C38.0198 9.9801 38.0198 10.4553 38.0198 11.089C38.6535 10.7722 38.8119 10.9306 38.6535 11.7227C38.9703 12.3563 39.1287 12.6732 39.1287 12.99C39.1287 13.3068 39.1287 13.6237 38.9703 13.7821C38.8119 14.0989 38.6535 14.2573 38.8119 14.4157C38.8119 14.5742 38.8119 14.5742 38.9703 14.4157C39.1287 14.2573 39.2871 14.0989 39.604 14.0989C39.604 14.5742 39.7624 14.891 39.604 14.891C39.604 15.0494 39.4455 15.2078 39.2871 15.5247C39.1287 15.6831 38.9703 15.9999 38.9703 16.3167C38.9703 16.4751 38.9703 16.4751 39.1287 16.4751L39.604 16.3167C39.9208 16.3167 39.9208 16.4751 39.604 16.9504C39.2871 17.4256 39.2871 17.7425 39.1287 18.0593C38.9703 18.3761 38.9703 18.5346 38.9703 18.693C38.9703 19.0098 38.9703 19.3266 38.8119 19.3266C38.8119 18.8514 38.8119 18.3761 38.8119 17.9009C38.8119 17.4256 38.6535 16.792 38.495 16.1583C38.6535 15.9999 38.8119 15.6831 39.1287 15.0494C39.2871 14.7326 39.1287 14.7326 39.1287 14.891C38.9703 15.3662 38.8119 15.6831 38.495 15.8415C38.3366 15.2078 38.1782 14.5742 37.8614 13.6237C38.0198 13.1484 38.0198 12.6732 38.1782 12.0395C38.1782 11.5643 38.1782 11.4058 38.0198 11.8811C37.8614 12.5148 37.703 12.99 37.3861 13.3068C37.2277 12.6732 36.9109 12.0395 36.7525 11.4058C36.7525 11.089 36.9109 10.6138 36.9109 10.1385C36.9109 9.66327 36.9109 9.66327 36.7525 10.1385C36.7525 10.4553 36.7525 10.7722 36.5941 11.089L35.9604 9.66327L35.6436 8.87119C35.4851 8.55436 35.4851 8.55436 35.4851 8.87119L35.802 9.82168C35.4851 9.50485 35.3267 9.34644 35.1683 9.18802C35.0099 9.02961 34.8515 9.02961 35.0099 9.18802C35.3267 9.50485 35.6436 9.82168 35.9604 10.1385C36.1188 10.6138 36.4356 11.2474 36.5941 11.7227C36.1188 11.4058 35.6436 11.089 35.3267 11.089C35.0099 10.9306 35.0099 11.089 35.3267 11.2474C35.802 11.5643 36.2772 12.0395 36.9109 12.6732C37.0693 13.3068 37.2277 13.7821 37.5446 14.2573C37.2277 14.0989 36.9109 13.6237 36.4356 13.1484C36.2772 12.99 36.2772 12.99 36.4356 13.3068C36.7525 13.9405 37.2277 14.2573 37.703 14.7326L38.0198 16.3167C37.703 15.9999 37.0693 15.5247 36.5941 15.2078C36.2772 15.0494 36.2772 15.0494 36.5941 15.3662C37.0693 15.6831 37.703 16.3167 38.1782 16.9504C38.3366 17.4256 38.4951 18.2177 38.3366 19.4851C38.3366 19.8019 38.0198 20.1187 37.703 20.1187V20.7524C37.3861 20.7524 37.2277 20.594 37.2277 20.1187C37.2277 19.6435 37.2277 19.3266 37.2277 19.1682C37.0693 18.8514 36.9109 18.693 36.9109 18.693C36.7525 18.693 36.4356 17.9009 35.9604 16.3167H36.4356C36.7525 17.7425 37.0693 18.3761 37.3861 18.5346C37.703 18.693 37.703 18.8514 37.703 18.8514C37.703 18.8514 37.703 19.3266 37.8614 19.8019C38.1782 19.8019 38.3366 19.4851 38.3366 19.0098C38.3366 18.5346 38.3366 18.2177 38.0198 18.0593C37.703 17.9009 37.3861 17.7425 37.3861 17.4256C37.2277 17.1088 37.3861 16.9504 37.703 16.9504C37.8614 16.792 37.3861 16.4751 36.4356 15.6831C35.802 15.3662 35.802 15.0494 35.9604 14.7326C35.9604 14.5742 36.2772 14.5742 36.4356 14.7326C36.5941 14.891 36.7525 14.891 36.9109 14.891C37.0693 14.5742 36.9109 14.5742 36.5941 14.4157C36.2772 14.4157 36.1188 14.2573 36.1188 14.0989V12.8316C36.1188 12.6732 36.1188 12.5148 36.1188 12.1979C35.9604 11.8811 35.6436 11.8811 35.1683 12.1979C34.8515 12.0395 34.8515 11.7227 34.8515 11.5643C34.8515 11.2474 34.6931 11.089 34.5347 10.7722L34.2178 9.9801C34.2178 9.66327 34.2178 9.50485 34.6931 9.34644C34.6931 9.18802 34.6931 8.87119 34.8515 8.55436ZM27.8812 5.54446L27.0891 5.22762V4.59396L26.7723 4.75238C26.297 4.91079 25.8218 4.75238 25.505 4.43555C25.1881 4.43555 25.0297 4.43555 25.1881 4.11871C25.3465 3.80188 25.1881 3.80188 25.0297 3.80188H24.396C23.9208 3.80188 23.604 3.64347 23.4455 3.48505C23.2871 3.32664 23.4455 3.16822 23.604 2.85139C23.1287 2.69297 22.9703 2.53456 22.8119 2.21772C22.6535 2.05931 22.8119 1.90089 22.9703 1.74248C23.1287 1.58406 23.604 1.58406 24.2376 1.58406C24.0792 1.42564 24.0792 1.26723 24.0792 0.950397C24.0792 0.791982 24.5545 0.950397 25.3465 1.26723L25.8218 1.58406C25.9802 1.26723 26.1386 1.26723 26.4554 1.42564C26.7723 1.58406 27.0891 1.74248 27.5644 2.05931C27.8812 2.37614 28.198 2.69297 28.6733 3.16822C28.9901 2.85139 29.3069 3.0098 29.4653 3.32663V3.9603C29.1485 3.64347 28.6733 3.64347 28.198 3.9603L27.8812 3.80188C27.4059 3.16822 27.0891 2.69297 26.9307 2.37614C26.7723 2.05931 26.7723 2.05931 26.7723 2.21772C26.7723 2.53456 26.9307 3.0098 27.4059 3.48505C26.7723 3.16822 26.1386 3.0098 25.8218 2.53456C25.5049 2.05931 25.1881 1.90089 25.0297 1.58406C24.8713 1.26723 24.7129 1.26723 24.8713 1.58406C25.0297 1.90089 25.3465 2.21772 25.6634 2.53456C25.3465 2.37614 25.1881 2.21772 24.8713 2.21772C24.2376 1.90089 23.7624 1.90089 23.4455 1.90089C23.2871 1.90089 23.2871 1.90089 23.4455 2.05931C24.0792 2.21772 24.5545 2.37614 24.8713 2.53456C25.1881 2.69297 25.3465 2.85139 25.505 2.85139C25.0297 3.0098 24.5545 3.16822 24.0792 3.16822H23.604C23.604 3.16822 23.7624 3.16822 23.9208 3.32663C24.5545 3.32663 25.1881 3.32664 25.6634 3.16822C26.1386 3.48505 26.6139 3.64347 27.2475 3.80188C26.9307 3.80188 26.6139 4.11871 26.1386 4.27713C25.9802 4.43555 26.1386 4.43555 26.297 4.27713C26.6139 4.11871 26.9307 3.9603 27.5644 3.9603L28.0396 4.11871C28.0396 4.59396 28.0396 5.06921 28.3564 5.38604H27.8812V5.54446ZM29.7822 7.76228C28.8317 7.76228 28.6733 7.76228 28.6733 7.60386C28.6733 7.44545 28.6733 7.44545 28.9901 7.28703L29.1485 6.9702C28.6733 6.65337 28.198 6.49495 28.0396 5.70287H28.5149C28.6733 5.38604 28.6733 5.38604 28.5149 5.22762C28.3564 5.06921 28.198 4.75238 28.198 4.27713C28.3564 3.9603 28.8317 3.9603 29.4653 4.27713C29.7822 3.64347 30.099 3.48505 30.5743 3.64347C30.099 3.64347 29.7822 3.80188 29.7822 4.27713C29.7822 4.59396 29.7822 4.91079 29.7822 5.22762C29.6238 4.91079 29.4653 4.75238 29.1485 4.59396C28.6733 4.27713 28.6733 4.43555 28.8317 4.59396C28.9901 4.75238 29.3069 5.22762 29.6238 5.54446C29.3069 5.86129 28.8317 6.0197 28.3564 5.86129C28.198 5.86129 28.198 6.0197 28.3564 6.0197C28.5149 6.0197 28.8317 6.0197 28.9901 6.0197C28.9901 6.33654 28.9901 6.65337 29.1485 6.9702C29.3069 7.28703 29.4653 7.44545 29.7822 7.60386C30.099 7.60386 29.9406 7.60386 29.7822 7.76228ZM30.4158 8.23753C30.4158 8.07911 30.5743 7.92069 30.8911 7.92069C31.2079 7.92069 31.3663 7.76228 31.0495 7.60386C30.5743 7.44545 30.099 7.12862 29.7822 6.81178C29.6238 6.49495 29.6238 6.33654 29.7822 6.17812L30.099 6.0197L30.2574 5.86129L30.099 4.91079C30.099 4.43555 30.099 4.11871 30.4158 3.9603C30.8911 3.9603 31.3663 3.9603 31.6832 4.27713C31.6832 3.9603 31.8416 3.9603 32.1584 4.11871C32.4752 4.11871 32.7921 4.75238 32.9505 6.0197L33.2673 6.17812C33.4257 5.86129 33.5842 5.70287 33.5842 5.70287C33.7426 5.70287 33.901 6.0197 33.901 6.49495C34.2178 6.81178 34.3762 7.28703 34.3762 7.92069C34.2178 8.23753 34.0594 8.55436 34.0594 8.87119L33.901 8.39594C33.7426 7.92069 33.7426 7.44545 33.7426 6.81178C33.7426 6.49495 33.7426 6.49495 33.7426 6.81178C33.7426 7.28703 33.7426 7.76228 33.7426 8.07911C33.2673 7.44545 32.7921 6.9702 32.3168 6.49495C32.1584 6.17812 32.1584 5.70287 32.1584 5.22762C32.1584 4.91079 32.1584 4.75238 32 4.91079C32 5.38604 32 5.86129 32 6.33654C31.6832 6.0197 31.2079 5.38604 30.7327 4.75238C30.5743 4.43555 30.5743 4.43555 30.5743 4.59396C30.8911 5.22762 31.2079 5.70287 31.5248 6.0197C31.8416 6.33654 32.1584 6.65337 32.3168 6.9702C31.8416 6.81178 31.5248 6.81178 31.2079 6.65337C30.8911 6.65337 30.5743 6.49495 30.2574 6.33654C29.9406 6.33654 29.9406 6.33654 30.2574 6.49495C30.4158 6.65337 30.7327 6.65337 31.2079 6.81178C31.6832 6.81178 32.1584 6.9702 32.4752 7.28703C32.6337 7.44545 32.9505 7.76228 33.4257 8.23753L33.7426 8.87119C33.2673 8.55436 32.7921 8.39594 32.1584 8.39594C32 8.71277 31.6832 8.71277 31.6832 8.55436C31.2079 8.39594 31.2079 8.39594 31.5248 8.55436C31.6832 8.71277 32 8.71277 32.4752 8.87119C33.1089 9.02961 33.7426 9.18802 34.2178 9.50485V9.66327C34.0594 9.82168 34.0594 9.9801 34.0594 10.2969L34.2178 10.7722C34.0594 10.6138 33.901 10.6138 33.5842 11.089C33.7426 10.9306 33.5842 10.7722 33.5842 10.4553C33.2673 10.1385 32.7921 9.82168 32 9.34644L31.8416 9.66327C31.0495 9.34644 30.5743 8.87119 30.4158 8.23753ZM36.2772 20.4355C36.1188 20.1187 35.802 19.8019 35.4851 19.3266C35.1683 18.8514 34.8515 18.3761 34.8515 18.0593C34.6931 17.7425 34.6931 17.4256 34.8515 17.1088C35.0099 16.792 35.0099 16.4751 35.1683 16.3167C35.1683 16.1583 35.1683 16.1583 35.1683 16.1583C35.0099 16.4751 34.8515 16.792 34.6931 17.1088L34.2178 15.6831C34.2178 15.0494 34.5347 14.4157 35.1683 13.6237C35.3267 13.3068 35.3267 13.3068 35.1683 13.6237C34.6931 14.2573 34.3762 14.891 34.2178 15.5247L33.2673 13.7821C33.2673 13.4652 33.4257 12.8316 33.901 12.0395C34.0594 11.5643 34.0594 11.5643 33.7426 12.0395C33.4257 12.5148 33.2673 12.99 33.1089 13.4652C32.7921 12.5148 32.6337 11.7227 32.4752 11.089H32.3168L32.4752 11.4058C32.6337 12.1979 32.7921 12.99 33.1089 13.4652C32.7921 13.1484 32.4753 12.99 32 12.8316C31.8416 12.6732 31.8416 12.8316 32 12.8316C32.4753 13.1484 32.7921 13.4652 33.1089 13.6237C33.2673 14.0989 33.4257 14.5742 33.7426 14.891C33.4257 14.7326 32.9505 14.4157 32.1584 14.0989C31.8416 14.0989 31.8416 14.0989 32.1584 14.2573C33.1089 14.5742 33.5842 14.891 33.7426 15.3662L34.2178 16.6336C34.0594 16.6336 33.7426 16.3167 33.5842 15.8415C33.2673 15.3662 32.6337 14.891 31.6832 14.4157C31.5248 14.4157 31.3663 14.0989 31.3663 13.9405C31.3663 13.7821 31.5248 13.6237 32 13.7821C31.8416 13.4652 31.8416 13.3068 31.6832 13.1484L31.5248 12.8316C31.2079 12.1979 31.3663 12.0395 32 12.0395C31.6832 11.7227 31.6832 11.4058 31.6832 11.2474C31.6832 10.9306 31.6832 10.6138 31.8416 10.2969C32 10.1385 32 9.9801 32 9.66327C32.3168 9.82168 32.6337 9.9801 32.7921 10.1385C33.2673 10.4553 33.2673 10.6138 33.2673 10.9306V11.7227C33.2673 11.8811 33.4257 11.8811 33.5842 11.5643C33.7426 11.2474 33.901 11.089 34.0594 11.089C34.2178 11.089 34.3762 11.4058 34.5347 11.5643C34.6931 11.8811 34.6931 12.5148 34.3762 13.3068L34.0594 13.9405C34.6931 13.1484 35.0099 12.8316 35.3267 12.8316C35.4851 12.8316 35.4851 13.1484 35.4851 13.3068C35.4851 13.6237 35.4851 13.7821 35.4851 14.0989C35.4851 14.4157 35.4851 14.5742 35.1683 14.7326C35.0099 15.0494 35.0099 15.3662 34.8515 15.8415C35.3267 15.5247 35.6436 15.5247 35.4851 15.9999L35.1683 17.1088C35.1683 17.5841 35.1683 17.9009 35.4851 17.7425C35.802 17.7425 35.802 17.7425 35.9604 17.9009C35.9604 18.0593 35.9604 18.2177 35.9604 18.3761C35.802 18.693 35.802 19.0098 35.802 19.0098C35.802 19.0098 35.802 19.1682 35.9604 19.3266C36.1188 19.4851 36.2772 19.3266 36.4356 19.3266C36.7525 19.1682 36.7525 19.3266 36.7525 19.4851V20.2771C36.7525 20.594 36.7525 20.7524 37.0693 20.9108C37.2277 21.0692 37.3861 21.2276 37.5446 21.2276L37.8614 20.9108V21.5445H37.2277C36.7525 21.0692 36.5941 20.594 36.2772 20.4355ZM37.0693 21.5445C37.2277 21.5445 37.3861 21.5445 37.5446 21.5445C37.2277 22.8118 37.0693 24.0791 36.9109 25.0296L36.5941 24.8712C36.9109 23.6039 37.0693 22.3365 37.0693 21.5445ZM32.7921 28.5148C32.7921 28.5148 32.4753 28.1979 32 27.8811C31.6832 27.5643 31.3663 27.2474 31.6832 26.9306C31.5248 26.7722 31.5248 26.6138 31.3663 26.4554C31.3663 26.2969 31.3663 26.1385 31.3663 25.8217C31.5248 25.6633 31.8416 25.6633 32.3168 26.1385C32.3168 25.8217 32.3168 25.5049 32.3168 25.3464C32.3168 25.0296 32.1584 24.8712 32 24.5544C31.8416 24.2375 31.5248 23.9207 31.3663 23.6039C31.2079 23.287 31.2079 22.9702 31.2079 22.9702C31.3663 22.9702 31.5248 22.9702 31.6832 23.1286C32 22.6534 32.3168 22.495 32.4752 22.8118C32.6337 23.1286 32.7921 23.287 32.7921 23.7623C32.7921 24.2375 32.7921 24.7128 32.7921 25.188L32.6337 25.3464L32.7921 25.5049C32.7921 25.6633 32.7921 25.9801 32.6337 26.6138C32.6337 26.7722 32.6337 26.9306 32.7921 26.9306C32.7921 26.7722 32.7921 26.6138 32.7921 26.4554C32.7921 26.4554 32.7921 26.1385 32.9505 25.8217C32.9505 25.5049 33.1089 25.3464 33.1089 25.3464C33.1089 25.3464 33.1089 25.3464 32.9505 25.3464C33.1089 25.3464 33.1089 25.188 33.1089 25.188C33.1089 25.188 33.1089 25.0296 33.1089 24.8712C33.1089 24.8712 33.1089 24.5544 33.1089 24.0791C33.1089 23.6039 33.1089 23.287 32.9505 23.1286C32.7921 22.9702 32.7921 22.8118 32.7921 22.6534C32.7921 22.495 32.6337 22.495 32.4752 22.495C32.3168 22.495 32 22.6534 31.6832 23.1286C31.8416 22.495 32 21.8613 32.1584 21.7029C32.3168 21.386 32.4752 21.386 32.6337 21.5445C32.7921 21.7029 32.9505 21.7029 32.9505 21.8613C32.9505 22.0197 33.1089 21.8613 33.1089 21.8613C33.2673 21.7029 33.2673 21.7029 33.4257 21.7029C33.4257 21.7029 33.5842 21.8613 33.5842 22.0197C33.5842 22.1781 33.7426 22.3365 33.7426 22.495C33.7426 22.6534 33.7426 22.9702 33.7426 23.4454C33.7426 23.9207 33.7426 24.0791 33.5842 24.3959C33.4257 24.5544 33.4257 24.7128 33.4257 25.0296C33.4257 25.8217 33.5842 26.2969 33.5842 26.2969C33.7426 26.2969 33.7426 26.2969 33.901 26.1385C34.0594 25.9801 34.2178 25.9801 34.2178 25.9801C34.3762 25.9801 34.3762 26.2969 34.3762 26.6138C34.3762 27.089 34.3762 27.089 34.5347 26.7722C34.6931 26.4553 34.6931 26.2969 34.8515 26.2969C35.0099 26.2969 35.0099 26.7722 35.0099 27.7227C34.3762 28.3563 33.901 28.8316 33.5842 29.1484C33.4257 28.8316 33.4257 28.5148 33.5842 28.1979C33.5842 28.0395 33.7426 27.8811 33.901 27.5643L34.0594 26.9306C34.2178 26.6138 34.2178 26.4553 34.0594 26.7722C33.901 26.9306 33.901 27.089 33.7426 27.2474C33.7426 27.4058 33.5842 27.5643 33.4257 27.7227C33.4257 27.4058 33.2673 27.089 33.1089 26.2969C32.9505 25.8217 32.9505 25.8217 32.9505 26.2969C33.1089 27.089 33.1089 27.8811 33.2673 28.5148C32.9505 28.1979 32.6337 27.8811 32.4752 27.7227C32.1584 27.5643 32 27.2474 31.6832 27.089C31.5248 26.9306 31.5248 26.9306 31.5248 27.089C31.6832 27.4058 32 27.7227 32.4752 28.0395C32.9505 28.3563 33.1089 28.6732 33.1089 28.6732C33.1089 28.8316 33.2673 28.8316 33.2673 28.99C33.1089 29.1484 32.9505 29.3068 32.7921 29.6237C32.6337 29.6237 32.6337 29.4653 32.6337 29.3068C32.9505 28.6732 32.9505 28.5148 32.7921 28.5148ZM31.3663 30.891C31.5248 30.891 31.8416 31.0494 31.8416 31.2078C31.8416 31.3662 31.6832 31.6831 31.5248 31.6831C31.3663 31.6831 31.0495 31.5247 31.0495 31.2078C31.0495 31.0494 31.2079 30.891 31.3663 30.891ZM24.0792 37.386C24.2376 37.0692 24.5545 36.9108 24.8713 36.7524C26.297 36.1187 27.2475 35.6435 27.5644 35.4851H27.7228L27.8812 35.8019L27.5644 35.9603C27.4059 36.1187 27.2475 36.1187 26.9307 36.1187C26.7723 36.1187 26.4554 36.1187 25.9802 36.2771C25.6634 36.4355 25.3465 36.594 25.3465 36.9108C25.3465 37.0692 25.1881 37.2276 25.0297 37.2276C24.7129 37.386 24.396 37.5445 24.0792 37.7029H23.2871L24.0792 37.386ZM25.9802 37.5445C25.9802 37.2276 25.9802 37.0692 26.297 36.9108C26.6139 36.7524 26.9307 36.594 27.2475 36.594C27.4059 36.594 27.4059 36.9108 27.2475 37.2276C27.2475 37.386 26.7723 37.7029 26.1386 37.8613L25.9802 37.5445ZM26.1386 38.0197C25.9802 38.0197 25.8218 38.0197 25.8218 38.1781L24.8713 38.0197L25.8218 37.5445L26.1386 38.0197ZM12.9901 35.4851C13.1485 35.4851 13.3069 35.4851 13.4653 35.4851L14.7327 36.1187L16.7921 36.9108C17.2673 37.386 17.5842 37.8613 17.7426 38.0197C17.4257 38.0197 16.9505 38.0197 16.4752 38.1781L15.3663 37.386C14.7327 36.9108 14.4158 36.4355 14.2574 36.2771C14.099 35.9603 13.9406 35.9603 13.6238 35.8019C13.4653 35.6435 13.3069 35.6435 12.9901 35.4851C12.9901 35.6435 12.8317 35.8019 12.6733 36.1187C12.8317 35.6435 12.8317 35.6435 12.9901 35.4851ZM14.099 36.594C13.7822 36.7524 13.6238 36.7524 13.4653 36.594L13.1485 36.2771C13.3069 35.9603 13.4653 35.8019 13.6238 35.9603L13.9406 36.2771L14.099 36.594ZM9.9802 22.8118C9.9802 23.6039 9.82178 24.3959 9.50495 25.5049C9.50495 24.5544 9.50495 23.9207 9.34653 23.6039L9.50495 23.1286C9.50495 22.9702 9.50495 22.9702 9.34653 23.1286L9.18812 23.4454V22.9702L9.50495 22.495C9.82178 22.1781 9.9802 22.3365 9.9802 22.8118ZM9.50495 21.5445C9.66337 21.5445 9.82178 21.5445 9.66337 21.8613L9.18812 22.495C9.18812 22.1781 9.18812 22.0197 9.0297 21.8613C9.18812 21.7029 9.50495 21.5445 9.50495 21.5445ZM7.60396 22.6534C7.92079 21.386 8.39604 20.594 8.55446 20.4355C8.71287 20.9108 8.87129 21.7029 9.0297 23.1286C9.18812 24.3959 9.18812 25.5049 9.0297 26.6138C8.87129 27.8811 8.71287 28.8316 8.39604 29.3068L8.07921 29.9405C8.07921 28.99 8.07921 28.0395 8.07921 27.5643C8.07921 26.9306 8.07921 26.1385 8.07921 25.0296C8.07921 23.9207 8.07921 22.8118 8.23762 21.386C8.23762 21.0692 8.23762 21.0692 8.23762 21.2276C8.07921 22.495 7.92079 24.2375 7.92079 26.2969V27.7227V29.6237L7.60396 29.3068C7.28713 28.1979 7.28713 26.9306 7.28713 25.6633C7.28713 24.7128 7.44554 23.7623 7.60396 22.6534ZM5.54455 26.7722C5.86139 25.5049 6.49505 24.3959 7.44554 23.1286C7.28713 23.7623 7.12871 24.2375 7.12871 24.7128C6.49505 25.9801 5.86139 27.089 5.54455 28.3563C5.38614 28.6732 5.38614 29.1484 5.22772 29.6237C5.06931 28.8316 5.22772 27.8811 5.54455 26.7722ZM7.12871 28.6732L6.49505 28.0395L6.81188 27.089C6.9703 27.7227 6.9703 28.1979 7.12871 28.6732ZM18.2178 2.53456C18.2178 2.85139 18.0594 3.16822 17.5842 3.48505C16.9505 3.9603 16.1584 4.43555 15.3663 4.91079C14.4158 5.38604 13.3069 5.86129 12.0396 6.49495C13.9406 5.22762 15.3663 4.27713 16.6337 3.48505C16.9505 3.16822 16.9505 3.16822 16.6337 3.32663C16.1584 3.64347 15.6832 3.9603 15.0495 4.27713L12.198 6.0197V5.70287C14.099 4.11871 15.5248 3.0098 16.7921 2.53456C17.4257 2.37614 17.7426 2.37614 18.2178 2.53456ZM12.6733 3.0098C13.6238 2.21772 14.5743 1.74248 15.8416 1.26723C16.4752 1.10881 16.9505 0.950397 17.4257 1.10881C17.5842 1.10881 17.7426 1.26723 17.5842 1.42564L16.9505 2.05931C16.4752 2.05931 15.8416 2.37614 15.0495 2.85139C14.2574 3.48505 13.4653 4.11871 12.5149 4.91079L12.198 5.22762C12.0396 5.06921 11.7228 5.22762 11.2475 5.38604C12.8317 4.11871 13.9406 3.16822 15.2079 2.53456C15.8416 2.21772 16.3168 1.90089 16.4752 1.74248C16.1584 1.90089 15.5248 2.05931 14.8911 2.37614C14.2574 2.69297 13.1485 3.48505 11.7228 4.59396L10.297 6.0197C10.9307 4.75238 11.7228 3.80188 12.6733 3.0098ZM11.2475 5.86129C11.5644 5.70287 11.7228 5.70287 11.8812 5.70287C11.8812 5.86129 11.8812 6.0197 11.8812 6.33654C11.8812 6.65337 11.5644 7.28703 11.2475 8.07911L10.297 9.82168C9.66337 9.82168 9.0297 10.1385 8.39604 10.7722C8.87129 10.1385 9.18812 9.66327 9.50495 9.0296C9.9802 8.39594 10.6139 7.44545 11.4059 6.17812C11.5644 5.86129 11.5644 5.86129 11.4059 6.0197C11.2475 6.17812 10.9307 6.49495 10.297 7.28703C9.66337 8.07911 9.0297 9.34644 7.92079 11.089C7.92079 11.2474 7.76238 11.4058 7.60396 11.5643C7.28713 12.1979 6.65347 12.99 6.0198 14.2573C6.0198 14.2573 5.70297 14.4157 5.22772 14.4157L4.43564 16.792C4.43564 16.9504 4.75248 16.792 5.06931 16.6336C4.91089 16.9504 4.75248 17.1088 4.27723 17.1088L4.11881 16.9504L3.9604 16.6336V16.4751H4.11881L5.06931 14.2573L4.59406 13.6237L4.75248 13.3068C4.91089 13.6237 5.06931 13.7821 5.22772 13.9405C5.54455 13.4652 5.86139 12.99 6.17822 12.1979C6.49505 11.4058 7.12871 10.6138 7.76238 9.82168V9.50485C7.76238 9.34644 7.76238 9.34644 7.92079 9.50485L9.18812 7.76228L7.92079 9.50485C8.07921 9.66327 7.92079 9.82168 7.76238 9.82168C6.65347 11.2474 6.0198 12.6732 5.38614 13.9405H5.70297C5.86139 13.9405 6.0198 13.9405 6.17822 13.7821L7.76238 11.089L9.18812 8.39594C9.50495 7.44545 10.297 6.49495 11.2475 5.86129ZM5.86139 14.5742C5.54455 15.2078 5.22772 15.8415 5.06931 16.3167H4.91089L5.38614 14.7326L5.86139 14.5742ZM4.75248 17.2672L4.27723 18.5346L3.9604 19.6435L4.11881 18.693L4.27723 18.0593L4.43564 17.4256L4.75248 17.2672ZM3.9604 15.9999C4.11881 15.2078 4.27723 14.5742 4.43564 13.9405L4.59406 14.2573L3.9604 15.9999ZM7.60396 7.28703C7.92079 6.65337 8.23762 6.0197 8.87129 5.38604C9.0297 5.06921 8.87129 5.06921 8.55446 5.38604C7.60396 6.33654 6.81188 7.92069 5.70297 10.1385L6.17822 8.87119C6.17822 8.55436 6.49505 8.07911 6.9703 7.12862C7.44554 6.17812 7.92079 5.54446 8.23762 4.91079C8.55445 4.27713 8.87129 3.9603 9.18812 3.80188C9.66337 3.32663 9.9802 3.0098 10.1386 3.16822C10.1386 3.16822 10.297 3.32664 10.1386 3.48505L9.0297 6.49495C8.23762 8.07911 7.12871 9.50485 6.0198 11.2474C5.38614 11.8811 5.06931 12.1979 4.91089 12.3563C4.75248 12.5148 4.59406 12.6732 4.59406 12.8316L4.75248 12.3563L5.22772 11.5643C5.86139 10.7722 6.65347 9.18802 7.60396 7.28703ZM4.27723 25.0296C4.27723 24.7128 4.27723 24.5544 4.11881 24.3959C4.11881 24.3959 3.9604 24.0791 3.9604 23.9207L3.64356 22.9702C3.48515 22.495 3.32673 22.1781 3.32673 21.8613C3.32673 21.8613 3.32673 21.8613 3.16832 21.8613C2.85149 21.7029 2.53465 21.386 2.21782 20.9108C1.90099 20.4355 1.90099 19.8019 1.58416 19.0098C1.58416 18.3761 1.58416 17.4256 1.58416 16.4751C1.58416 15.2078 1.90099 14.0989 2.21782 12.8316C2.53465 11.2474 3.48515 9.66327 4.59406 8.23753C4.91089 7.92069 5.06931 7.76228 5.06931 7.92069C5.06931 8.55436 5.06931 9.18802 5.06931 9.82168C5.06931 10.4553 4.91089 11.089 4.59406 11.8811C3.9604 13.9405 3.64356 15.3662 3.48515 16.1583C3.16832 17.1088 3.0099 18.0593 2.69307 19.4851C2.53465 18.8514 2.69307 17.4256 3.0099 15.2078C3.32673 12.99 3.64356 11.5643 4.11881 10.6138C4.27723 10.1385 4.27723 9.9801 4.11881 10.4553C3.16832 12.1979 2.53465 14.5742 2.37624 17.9009C2.37624 19.0098 2.37624 19.9603 2.53465 20.4355C2.69307 20.9108 2.85149 21.2276 3.16832 21.386H3.32673H3.48515C3.64356 20.7524 3.64356 20.2771 3.64356 19.8019C3.64356 19.4851 3.64356 19.0098 3.80198 18.5346C3.80198 18.0593 3.9604 17.5841 4.11881 17.2672V17.4256C3.9604 18.2177 3.80198 18.693 3.80198 19.0098C3.80198 19.3266 3.80198 19.6435 3.80198 19.9603C3.80198 20.2771 3.80198 20.9108 3.64356 21.7029C3.80198 21.0692 3.9604 20.4355 4.27723 19.8019L5.06931 17.4256L6.0198 15.0494C6.65347 13.9405 7.28713 12.8316 8.23762 11.4058C8.87129 10.7722 9.34653 10.4553 9.82178 10.2969C9.9802 10.4553 9.9802 10.7722 9.82178 11.2474C9.66337 11.7227 9.66337 12.1979 9.34653 12.8316H9.50495C8.87129 13.3068 9.18812 13.4652 9.0297 13.6237L8.87129 13.7821C8.71287 13.9405 8.55446 14.0989 8.55446 14.2573C8.55446 14.2573 8.55446 14.2573 8.39604 14.4157C8.23762 14.5742 8.23762 14.7326 8.07921 14.891C8.07921 14.891 8.07921 14.891 8.07921 15.0494C7.92079 15.0494 7.92079 15.2078 7.76238 15.3662L7.60396 15.5247C7.60396 15.6831 7.44554 15.8415 7.28713 15.8415C7.28713 15.8415 7.28713 15.9999 7.12871 15.9999C7.12871 16.1583 6.9703 16.1583 6.81188 16.3167L6.65347 16.4751C6.65347 16.4751 6.49505 16.6336 6.33663 16.792L6.17822 16.9504L5.86139 17.2672L7.60396 14.5742L8.39604 13.1484C8.71287 12.5148 8.71287 12.3563 8.55446 12.5148C6.9703 14.891 5.86139 16.4751 5.54455 17.1088C5.22772 17.7425 5.22772 18.3761 4.91089 19.0098C4.59406 19.6435 4.43564 19.9603 4.27723 20.2771C4.11881 20.594 3.9604 21.2276 3.64356 21.8613C3.64356 22.0197 3.80198 22.495 3.9604 23.1286C4.11881 23.7623 4.27723 24.2375 4.43564 24.3959C4.59406 24.5544 4.59406 24.7128 4.43564 24.7128C4.43564 24.8712 4.43564 25.0296 4.59406 25.5049C4.59406 25.8217 4.91089 26.4553 5.22772 27.089V27.4058C4.75248 26.6138 4.59406 25.8217 4.27723 25.0296ZM3.48515 17.9009C3.32673 19.1682 3.16832 20.2771 3.0099 20.9108L2.85149 20.7524C2.85149 20.594 3.0099 19.4851 3.48515 17.9009ZM11.2475 36.1187L10.9307 35.6435C10.7723 35.4851 10.6139 35.4851 10.6139 35.6435C10.4554 35.6435 10.297 35.6435 10.297 35.3266C9.82178 35.6435 9.34653 35.4851 9.0297 35.0098L7.92079 34.0593L7.12871 32.792L6.81188 32.6336C6.65347 32.792 6.49505 32.792 6.33663 32.792C6.0198 32.792 5.70297 32.4752 5.22772 32.1583C4.91089 31.9999 4.59406 31.0494 3.80198 29.6237C2.85149 27.7227 2.21782 26.2969 1.74257 25.3464C1.42574 24.5544 1.26733 24.0791 1.26733 23.7623C1.26733 23.6039 1.10891 23.6039 1.10891 23.7623C1.10891 23.9207 1.26733 24.3959 1.42574 25.188C1.74257 25.8217 2.05941 26.9306 2.69307 28.1979C3.32673 29.3068 3.80198 30.2573 4.27723 31.2078C3.0099 29.9405 2.21782 28.6732 1.74257 27.5643C1.10891 26.4553 0.792079 25.5049 0.633663 24.3959C0.633663 24.0791 0.475248 23.4454 0.475248 22.8118V21.5445C0.475248 21.2276 0.633663 21.2276 0.792079 21.2276C0.950495 21.2276 1.10891 21.5445 1.42574 21.8613C1.74257 22.3365 2.21782 23.4454 2.85149 25.0296C3.48515 26.6138 3.80198 27.7227 3.9604 28.1979C4.11881 28.6732 4.27723 29.1484 4.43564 29.4653C4.59406 29.7821 4.75248 30.2573 4.91089 30.5742C5.22772 31.2078 5.54455 31.5247 5.86139 31.8415C6.17822 32.1583 6.49505 32.1583 6.81188 31.9999L5.86139 30.4157C5.86139 30.4157 5.70297 30.4157 5.54455 30.4157C5.54455 30.4157 5.54455 30.4157 5.54455 30.2573V29.9405C5.54455 29.6237 5.70297 29.1484 5.86139 28.3563C6.17822 27.089 6.81188 25.9801 7.44554 24.7128C7.44554 25.188 7.28713 25.6633 7.28713 25.9801C6.65347 27.2474 6.17822 28.3563 6.0198 29.3068C5.86139 29.9405 5.86139 30.2573 6.0198 30.2573L6.17822 30.0989L6.0198 29.7821L6.17822 29.4653V30.0989L6.33663 29.9405L6.49505 30.0989L6.33663 30.4157L7.44554 31.9999L7.76238 31.6831L7.92079 31.9999C7.60396 32.3167 7.44554 32.6336 7.60396 32.6336C7.92079 33.2672 8.23762 33.5841 8.39604 33.9009C8.87129 34.5346 9.18812 34.8514 9.50495 34.5346C9.66337 34.5346 9.66337 34.5346 9.82178 34.5346C9.9802 34.693 10.1386 34.8514 10.297 35.3266V34.693L9.50495 33.9009L9.0297 32.9504C8.55445 32.3167 8.39604 31.8415 8.07921 31.5247C7.76238 31.2078 7.76238 30.891 7.44554 30.2573C7.12871 29.7821 6.81188 29.3068 6.49505 28.6732V28.3563L7.28713 29.3068C7.92079 30.2573 8.55446 30.891 8.71287 31.3662C9.0297 31.8415 9.18812 31.9999 9.18812 31.6831L9.34653 31.2078L9.50495 31.5247V32.4752V32.792C9.50495 33.1088 9.50495 33.1088 9.66337 33.1088C9.82178 33.1088 9.82178 33.2672 9.9802 33.5841C9.9802 33.7425 10.297 34.0593 10.7723 34.5346C11.2475 35.0098 11.7228 35.4851 12.198 35.8019C12.6733 36.1187 13.1485 36.4355 13.4653 36.7524C13.7822 36.9108 13.9406 37.2276 13.9406 37.386L14.4158 37.5445L14.2574 36.9108H14.5743C14.7327 37.0692 14.8911 37.2276 14.8911 37.5445C15.3663 37.8613 15.6832 38.1781 16 38.3365L14.8911 38.495L12.9901 37.386L11.2475 36.1187ZM6.65347 30.4157L7.44554 31.3662V31.5247L6.65347 30.4157ZM7.92079 32.6336L8.23762 32.3167L8.71287 33.2672L9.0297 33.9009L9.18812 34.2177C8.87129 34.0593 8.71287 33.9009 8.55446 33.7425L8.23762 33.2672L7.92079 32.6336ZM13.4653 38.495L12.0396 38.8118L12.3564 37.8613L13.4653 38.495ZM16.9505 43.089C16.3168 43.7227 15.5248 44.3563 14.5743 44.99L14.2574 44.8316C14.7327 44.5148 15.5248 44.0395 16.3168 43.2474L16.7921 42.7722H16.6337C16.3168 43.089 16 43.4058 15.5248 43.5643C15.2079 44.0395 14.7327 44.3563 14.2574 44.5148L13.6238 44.8316L13.7822 44.99H14.4158C14.7327 45.1484 14.8911 45.3068 14.7327 45.6237C14.4158 45.9405 14.099 45.9405 13.7822 45.7821L13.1485 45.4653C12.9901 45.3068 12.6733 45.1484 12.5149 44.99L12.198 44.8316L12.3564 44.5148L13.1485 44.8316H13.3069L13.1485 44.5148L14.2574 43.8811C14.5743 43.8811 14.5743 43.7227 14.5743 43.5643V43.089C14.8911 43.089 15.3663 43.089 15.8416 42.9306C16.3168 42.7722 16.7921 42.6138 17.1089 42.6138C17.2673 42.6138 17.2673 42.9306 16.9505 43.089ZM16.3168 42.1385C15.5248 42.2969 14.7327 42.4553 14.099 42.6138C12.3564 42.9306 10.7723 43.2474 9.0297 43.4058C8.55445 43.2474 7.44554 42.6138 5.38614 41.5049C3.9604 40.5544 3.0099 39.9207 2.37624 39.4454C1.74257 38.6534 1.58416 38.3365 1.58416 38.1781C2.05941 37.5445 2.21782 36.9108 2.53465 36.2771C2.53465 35.9603 2.53465 35.9603 2.53465 35.6435C2.37624 35.0098 2.53465 34.8514 2.85149 34.693C3.9604 34.693 4.75248 34.693 5.06931 34.693C5.22772 34.693 5.38614 34.693 5.38614 34.5346L5.70297 33.7425L5.54455 33.5841L5.22772 34.0593V33.4256C5.22772 33.4256 5.22772 33.2672 5.38614 33.4256C6.0198 33.5841 6.33663 33.7425 6.33663 34.0593C6.17822 34.3761 6.0198 34.8514 6.0198 35.3266V36.594C5.06931 35.9603 4.27723 35.4851 3.32673 35.0098C3.48515 35.0098 3.64356 35.0098 3.64356 35.0098C3.80198 35.0098 3.9604 35.0098 3.9604 34.8514C3.9604 34.693 3.9604 34.693 3.64356 34.693C3.16832 34.693 2.85149 34.693 2.69307 34.8514C2.53465 35.0098 2.69307 35.1682 2.69307 35.3266C3.9604 35.9603 4.91089 36.594 5.70297 37.0692C7.12871 38.0197 8.23762 38.6534 9.0297 39.287C9.82178 39.287 10.9307 39.1286 12.198 38.9702L14.2574 38.6534C15.2079 38.495 16 38.3365 16.9505 38.1781C17.2673 38.1781 17.7426 38.1781 18.2178 38.0197C18.6931 38.0197 19.1683 38.0197 19.6436 37.8613C20.1188 38.6534 20.2772 39.4454 20.4356 39.9207C20.4356 40.2375 20.4356 40.3959 20.2772 40.3959C18.5347 41.5049 17.2673 41.9801 16.3168 42.1385ZM22.495 41.3464L22.3366 41.0296L21.703 41.8217L21.0693 42.1385C20.7525 42.2969 20.5941 42.4553 20.2772 42.4553L19.3267 41.9801L19.802 41.8217L19.9604 41.9801C19.9604 42.2969 19.9604 42.1385 20.2772 41.8217L21.0693 41.0296C21.0693 40.5544 21.0693 40.0791 20.7525 39.287C20.4356 38.495 20.2772 38.1781 20.1188 38.0197C20.1188 37.8613 19.802 37.8613 19.0099 37.8613C19.4851 37.7029 19.9604 37.5445 20.5941 37.8613L21.2277 38.1781L21.5446 38.0197L20.9109 37.7029H21.2277L21.5446 38.0197L21.703 38.1781C22.495 39.1286 22.9703 39.7623 23.1287 40.0791C23.2871 40.3959 23.2871 40.7128 23.1287 41.0296C22.9703 41.3464 22.6535 41.5049 22.495 41.3464ZM25.1881 44.8316C25.0297 44.6732 25.0297 44.5148 25.0297 44.5148L25.505 44.99C25.505 44.8316 25.3465 44.8316 25.1881 44.8316ZM28.3564 44.8316H28.6733L28.5149 44.99L27.8812 45.1484C27.5644 45.4652 27.2475 45.4652 26.9307 45.6237H26.4554L26.297 45.3068C26.4554 45.1484 26.6139 44.99 26.6139 44.99C26.7723 44.99 26.9307 44.8316 27.2475 44.8316L27.8812 44.99L28.3564 44.8316ZM27.4059 44.6732C26.9307 44.6732 26.7723 44.99 26.6139 44.99H26.297C25.8218 44.3563 25.5049 44.3563 25.1881 44.0395L24.0792 43.089C24.2376 42.9306 24.7129 43.089 25.505 43.2474L27.4059 44.6732ZM31.0495 39.6039C31.5248 39.6039 31.8416 39.6039 32.1584 39.6039C32.6337 39.4454 33.4257 38.8118 34.8515 37.5445C36.1188 36.594 37.2277 35.8019 38.1782 35.4851C38.495 35.3266 38.495 35.1682 38.1782 35.1682C37.8614 35.1682 37.5446 35.0098 37.0693 35.0098C36.9109 35.1682 36.9109 35.3266 37.0693 35.3266C37.3861 35.3266 37.3861 35.3266 37.5446 35.3266C36.4356 35.9603 35.4851 36.4355 34.8515 37.0692C34.8515 36.7524 35.0099 36.1187 35.0099 35.1682C35.0099 34.8514 34.8515 34.5346 34.6931 34.3761C34.5347 34.2177 34.6931 34.0593 35.0099 33.9009L35.3267 33.7425V34.3761L35.0099 34.2177L35.1683 34.5346C35.3267 34.693 35.4851 34.8514 35.802 34.8514H37.0693H37.703C38.3366 34.8514 38.6535 35.0098 38.6535 35.3266C38.6535 35.6435 38.6535 35.9603 38.6535 36.2771C38.8119 36.9108 38.9703 37.7029 39.4455 38.3365C39.2871 38.6534 39.1287 38.9702 38.8119 39.287L37.5446 40.0791C36.4356 40.8712 35.0099 41.9801 33.1089 43.089C31.8416 43.089 30.099 43.089 28.3564 42.7722C27.0891 42.6138 25.505 42.2969 23.7624 41.8217L23.4455 41.6633L23.604 41.5049C23.9208 41.188 24.0792 40.8712 24.0792 40.8712C24.0792 40.7128 24.0792 40.5544 23.9208 40.0791C23.7624 39.6039 22.9703 39.1286 22.9703 38.495V38.3365H23.4455C24.396 38.3365 25.3465 38.495 26.1386 38.6534C26.9307 38.8118 27.8812 38.9702 28.9901 39.287C29.7822 39.4454 30.4158 39.6039 31.0495 39.6039ZM29.1485 38.9702C28.6733 38.9702 28.0396 38.8118 27.0891 38.6534L28.0396 38.3365C28.5149 38.495 28.6733 38.3365 28.8317 38.0197C28.8317 38.3365 28.9901 38.6534 29.1485 38.9702ZM34.2178 31.6831C33.901 31.9999 33.7426 32.4752 33.901 32.792C33.4257 33.1088 32.9505 33.4256 32.6337 33.9009C32.1584 34.3761 31.8416 34.8514 31.6832 35.1682C31.5248 35.4851 31.2079 35.6435 31.0495 35.8019C30.7327 35.9603 30.4158 35.8019 30.099 35.6435L29.9406 36.2771L28.3564 37.2276L27.5644 37.5445C27.5644 37.386 27.7228 37.0692 27.7228 36.7524L28.0396 36.4355C29.1485 35.8019 29.7822 35.3266 29.9406 34.8514C30.2574 34.5346 30.4158 34.0593 30.7327 33.9009C31.0495 33.5841 31.2079 33.2672 31.3663 32.9504V32.3167V31.6831C31.6832 31.9999 31.8416 31.9999 32 31.8415C32.3168 31.2078 32.6337 30.5742 33.1089 30.0989C33.4257 29.4653 33.901 28.99 34.3762 28.5148C34.8515 28.0395 35.1683 27.5643 35.4851 27.2474V27.8811C34.5347 29.1484 33.901 29.9405 33.5842 30.2573C32.6337 31.6831 32 32.6336 31.6832 33.2672C31.5248 33.5841 31.2079 34.0593 30.8911 34.2177C30.5743 34.3761 30.4158 34.5346 30.2574 34.693C30.099 34.8514 30.2574 35.0098 30.4158 34.8514C30.5743 34.693 30.7327 34.5346 31.0495 34.5346C31.3663 34.3761 32.1584 33.5841 33.2673 31.9999V31.0494L33.5842 30.5742C33.5842 31.0494 33.5842 31.3662 33.7426 31.3662C33.901 31.3662 34.0594 31.3662 34.0594 31.0494C34.2178 30.7326 34.6931 29.7821 35.3267 28.3563C35.1683 28.8316 35.1683 29.1484 35.3267 29.4653C35.0099 29.7821 34.8515 30.2573 35.0099 30.891L34.2178 31.6831ZM39.7624 26.2969C39.7624 26.6138 39.604 27.089 39.4455 27.4058C38.8119 28.1979 38.495 28.6732 38.6535 28.8316C38.8119 29.1484 38.8119 29.4653 38.495 29.9405C38.1782 30.4157 37.703 30.891 37.0693 31.3662C37.2277 31.6831 37.0693 31.9999 36.7525 32.1583C36.2772 32.4752 35.802 32.6336 35.1683 32.792C36.2772 31.9999 36.9109 31.2078 37.0693 30.2573C37.3861 29.9405 37.703 29.7821 38.0198 29.6237C38.3366 29.4653 38.3366 29.4653 38.1782 29.4653C37.8614 29.6237 37.5446 29.7821 37.2277 30.0989C37.5446 29.4653 37.703 28.8316 37.8614 28.0395C38.495 27.4058 38.8119 26.9306 39.1287 26.6138C39.4455 26.2969 39.4455 26.1385 39.1287 26.4554C38.8119 26.7722 38.495 27.2474 38.0198 27.7227C38.3366 27.089 38.495 26.2969 38.6535 25.3464C38.6535 24.8712 38.6535 24.7128 38.6535 25.0296L38.0198 25.9801C37.8614 25.6633 37.703 25.3464 37.703 25.188L38.0198 26.1385C38.0198 26.4553 37.8614 27.089 37.5446 27.8811C37.2277 27.2474 37.0693 26.6138 36.5941 26.1385C36.2772 25.6633 36.2772 25.6633 36.4356 26.1385C36.7525 26.7722 37.0693 27.4058 37.3861 28.1979C37.2277 28.99 36.9109 29.6237 36.7525 30.0989C36.5941 29.7821 36.4356 29.6237 36.1188 29.4653C35.9604 29.4653 35.9604 29.4653 36.1188 29.6237C36.2772 29.7821 36.4356 30.0989 36.5941 30.2573C36.4356 30.7326 36.1188 31.2078 35.802 31.5247C35.4851 31.8415 35.1683 32.1583 34.8515 32.4752C35.1683 31.8415 35.3267 31.2078 35.1683 30.4157C35.1683 30.2573 35.3267 30.0989 35.4851 30.0989C35.6436 30.0989 35.802 29.9405 35.6436 29.7821C35.4851 29.4652 35.3267 29.1484 35.3267 28.8316C35.4851 28.8316 35.6436 28.8316 35.9604 28.8316C36.1188 28.6732 36.1188 28.5148 35.9604 28.1979C35.6436 27.8811 35.4851 27.5643 35.4851 27.089C35.4851 26.7722 35.6436 26.7722 36.1188 26.7722C36.2772 26.7722 36.2772 26.4553 36.1188 26.1385L35.6436 25.5049C35.3267 24.8712 35.4851 24.5544 35.9604 24.8712L36.5941 25.188C37.0693 25.3464 37.2277 25.0296 37.2277 24.2375C37.2277 24.0791 37.3861 24.0791 37.5446 24.0791C37.8614 24.0791 38.0198 23.9207 38.1782 23.4454C38.3366 23.1286 38.495 23.4454 38.6535 24.0791C38.6535 25.0296 38.8119 25.3464 39.2871 25.3464C39.7624 25.6633 39.7624 25.9801 39.7624 26.2969ZM40.396 24.2375C40.396 24.3959 40.396 24.5544 40.2376 24.5544C40.0792 24.7128 39.9208 24.7128 39.604 24.8712L39.2871 24.3959C39.2871 24.0791 39.1287 23.6039 38.9703 23.287C39.1287 23.1286 39.2871 23.1286 39.604 22.9702C39.7624 22.9702 39.7624 22.6534 39.4455 22.6534C39.1287 22.6534 38.9703 22.6534 38.8119 22.6534C38.9703 22.0197 39.1287 21.8613 39.4455 21.386C39.4455 21.2276 39.4455 21.2276 39.2871 21.5445C38.9703 21.8613 38.8119 22.3365 38.495 22.8118C38.3366 22.6534 38.3366 22.495 38.3366 22.3365C38.3366 22.0197 38.1782 22.0197 38.1782 22.3365C38.1782 22.6534 38.3366 22.9702 38.3366 23.1286C38.0198 23.7623 37.703 23.9207 37.3861 23.7623C37.5446 22.9702 37.703 22.1781 37.8614 21.386C38.1782 21.0692 38.495 20.9108 38.8119 21.0692C39.1287 20.7524 39.4455 20.7524 39.7624 20.9108C39.9208 21.2276 39.9208 21.386 39.9208 21.5445C39.9208 21.8613 39.7624 22.0197 39.604 22.3365C39.9208 22.3365 40.0792 22.495 40.0792 22.6534C39.9208 23.287 39.7624 23.6039 39.2871 23.9207C40.2376 24.0791 40.396 24.0791 40.396 24.2375Z" fill="#0066CC"/>
<path d="M25.1908 44.8324C25.3492 44.9908 25.5076 44.9908 25.5076 44.8324L25.0324 44.3572C25.0324 44.5156 25.0324 44.674 25.1908 44.8324ZM2.37891 20.9116C2.53732 21.3869 2.85415 21.7037 3.3294 21.8621C2.85415 21.7037 2.53732 21.3869 2.37891 20.9116ZM7.2898 15.8423C7.2898 15.8423 7.2898 16.0007 7.2898 15.8423C7.2898 16.0007 7.2898 15.8423 7.2898 15.8423ZM6.65613 16.7928L6.49772 16.9512C6.49772 16.7928 6.65613 16.7928 6.65613 16.7928ZM6.97297 16.3176L6.81455 16.476C6.97297 16.476 6.97297 16.3176 6.97297 16.3176ZM7.76505 15.3671C7.60663 15.5255 7.76505 15.3671 7.76505 15.3671V15.3671ZM9.19079 22.4958C9.19079 22.3374 9.19079 22.179 9.19079 22.179C9.19079 22.179 9.19079 22.3374 9.19079 22.4958ZM6.49772 23.7631L5.23039 24.3968V24.5552C5.23039 24.7136 5.54722 25.5057 5.70564 25.9809C5.70564 25.8225 5.86405 25.6641 5.86405 25.5057L5.54722 24.5552L6.65613 23.9215C6.65613 23.9215 6.65613 23.9215 6.65613 23.7631C6.49772 23.1294 6.3393 22.4958 6.3393 21.8621V21.7037L4.91356 21.3869V19.8027L6.3393 19.4859V19.3275C6.3393 18.6938 6.49772 18.0601 6.65613 17.4265V17.2681L6.02247 16.9512L5.86405 17.1096L6.02247 16.9512L5.70564 16.7928C5.70564 16.7928 5.70564 16.9512 5.54722 16.9512L6.49772 17.4265C6.3393 18.0601 6.3393 18.5354 6.3393 19.1691L4.91356 19.4859V21.5453L6.3393 21.8621C6.3393 22.4958 6.3393 23.1294 6.49772 23.7631ZM8.08188 27.4067V27.0898C8.08188 26.9314 7.92346 26.773 7.76505 26.6146V27.2483C7.76505 27.4067 7.92346 27.5651 8.08188 27.7235V27.4067ZM8.08188 27.7235L7.92346 28.0403V28.5156L8.24029 28.1988V27.7235H8.08188ZM7.2898 25.9809H6.97297V26.1393C6.97297 26.1393 6.97297 26.1393 6.97297 26.2978H7.2898V25.9809ZM6.3393 32.6344C6.02247 32.6344 5.70564 32.3176 5.23039 32.0007C5.70564 32.476 6.02247 32.6344 6.3393 32.6344ZM7.92346 11.0898C7.92346 11.2483 7.76504 11.4067 7.60663 11.5651C7.76504 11.4067 7.92346 11.2483 7.92346 11.0898ZM3.3294 21.8621C3.17099 21.8621 3.17099 21.8621 3.3294 21.8621V21.8621ZM6.81455 16.476C6.81455 16.476 6.65613 16.6344 6.49772 16.7928L6.81455 16.476ZM7.60663 15.5255C7.60663 15.6839 7.44821 15.8423 7.2898 15.8423C7.44821 15.6839 7.60663 15.6839 7.60663 15.5255ZM7.2898 16.0007C7.2898 16.1592 7.13138 16.1592 6.97297 16.3176C7.13138 16.1592 7.13138 16.1592 7.2898 16.0007Z" fill="#0066CC"/>
<path d="M6.49687 16.7932L6.18004 17.11C6.33845 17.11 6.33845 16.9516 6.49687 16.7932ZM5.22954 30.2586V29.9417V30.2586ZM3.17013 21.3873H3.01172C3.01172 21.3873 3.01172 21.3873 3.17013 21.3873ZM8.39786 14.417C8.23944 14.5754 8.23944 14.7338 8.08103 14.8922C8.23944 14.7338 8.23944 14.5754 8.39786 14.417ZM8.08103 14.8922C7.92261 15.0506 7.92261 15.209 7.76419 15.3675C7.92261 15.209 7.92261 15.0506 8.08103 14.8922ZM6.8137 32.1595C6.65528 32.318 6.33845 32.318 5.8632 32.0011C6.33845 32.318 6.65528 32.318 6.8137 32.1595ZM37.7048 20.2783L37.5464 21.3873L37.7048 20.2783ZM37.5464 20.912L37.2295 21.2288L37.5464 20.912ZM20.279 10.2982L17.9028 17.2684V17.4269H17.7444H10.2988L16.1602 21.8625V22.0209L14.1008 28.9912L20.1206 24.8724L26.1404 28.9912L24.081 22.0209V21.8625L29.9424 17.4269L22.6553 17.2684H22.4969V17.11L20.279 10.2982ZM17.586 16.9516L20.1206 9.8229L20.279 9.34766L20.4375 9.8229L22.9721 17.11L30.5761 17.2684H31.0513L30.5761 17.4269L24.5563 22.1793L26.7741 29.4665L26.9325 29.9417L26.6157 29.6249L20.279 25.3477L13.9424 29.6249L13.6256 29.9417L13.784 29.4665L15.8434 22.1793L9.8236 17.5853L9.50677 17.2684H9.98202L17.586 16.9516Z" fill="#0066CC"/>
<path d="M51.4844 43.407L60.9893 1.42676H77.1477L86.6527 43.407H78.0982L76.3557 35.803H61.623L59.8804 43.407H51.4844ZM67.4844 8.39706L63.2071 28.3575H74.7715L70.4943 8.39706H67.4844Z" fill="#0066CC"/>
<path d="M108.989 28.3563V20.9108H121.187V42.7722C115.325 43.7227 110.573 44.1979 106.929 44.1979C100.434 44.1979 95.8401 42.4554 93.4639 38.9702C91.0876 35.4851 89.8203 29.9405 89.8203 22.3365C89.8203 14.7326 91.0876 9.18803 93.6223 5.8613C96.1569 2.53457 100.593 0.791992 106.612 0.791992C110.414 0.791992 114.533 1.26724 118.969 2.05932L121.187 2.53457L120.87 9.18803C115.959 8.71278 111.84 8.39595 108.672 8.39595C105.503 8.39595 103.286 8.71278 102.018 9.50486C100.751 10.2969 99.8005 11.5643 99.1668 13.6237C98.5332 15.6831 98.2164 19.0098 98.2164 23.9207C98.2164 28.8316 98.85 32.1583 99.9589 34.0593C101.226 35.9603 103.602 36.9108 107.404 36.9108L112.474 36.594V28.5148H108.989V28.3563Z" fill="#0066CC"/>
<path d="M129.27 43.407V1.42676H137.824V43.407H129.27Z" fill="#0066CC"/>
<path d="M161.111 43.407H147.012V1.42676H161.111C164.754 1.42676 167.764 1.74359 170.14 2.53567C172.517 3.32775 174.259 4.59507 175.527 6.33765C176.794 8.08022 177.744 10.1396 178.22 12.5159C178.695 14.8921 179.012 17.902 179.012 21.704C179.012 25.506 178.853 28.6743 178.378 31.0505C177.903 33.5852 177.111 35.803 175.843 37.704C174.576 39.605 172.834 41.0307 170.457 41.9812C167.764 42.9317 164.754 43.407 161.111 43.407ZM169.982 26.7733C170.14 25.506 170.14 23.605 170.14 21.3872C170.14 19.0109 169.982 17.2683 169.824 15.8426C169.665 14.4169 169.19 13.1495 168.715 12.0406C168.081 10.9317 167.131 10.1396 166.022 9.66438C164.754 9.18913 163.17 9.03072 161.111 9.03072H155.566V36.2782H161.111C164.121 36.2782 166.497 35.4862 167.764 33.902C169.032 32.3178 169.665 30.1 169.982 26.7733Z" fill="#0066CC"/>
<path d="M189.309 0V43.5644" stroke="#0066CC" stroke-width="0.6548"/>
</svg>
