<svg width="186" height="131" viewBox="0 0 186 131" fill="none" xmlns="http://www.w3.org/2000/svg">
<g clip-path="url(#clip0_17495_384074)">
<path d="M156.234 112.064H23.4727C20.7983 112.064 18.6016 109.867 18.6016 107.193V9.86621C18.6016 7.19189 20.7983 4.99512 23.4727 4.99512H156.234C158.908 4.99512 161.105 7.19189 161.105 9.86621V107.193C161.105 109.962 158.908 112.064 156.234 112.064Z" fill="#EAF4FE"/>
<path d="M161.105 15.2149H18.5059V9.86621C18.5059 7.19189 20.7026 4.99512 23.377 4.99512H156.138C158.813 4.99512 161.009 7.19189 161.009 9.86621V15.2149H161.105Z" fill="#9AC7F7"/>
<path d="M25.9558 10.152C25.9558 11.2981 25.0007 12.1577 23.9501 12.1577C22.8039 12.1577 21.9443 11.2026 21.9443 10.152C21.9443 9.00585 22.8995 8.14624 23.9501 8.14624C25.0962 8.05073 25.9558 9.00585 25.9558 10.152Z" fill="#387BFF"/>
<path d="M32.4509 10.152C32.4509 11.2981 31.4958 12.1577 30.4452 12.1577C29.2991 12.1577 28.4395 11.2026 28.4395 10.152C28.4395 9.00585 29.3946 8.14624 30.4452 8.14624C31.5913 8.05073 32.4509 9.00585 32.4509 10.152Z" fill="#FBD260"/>
<path d="M38.9451 10.152C38.9451 11.2981 37.99 12.1577 36.9393 12.1577C35.7932 12.1577 34.9336 11.2026 34.9336 10.152C34.9336 9.00585 35.8887 8.14624 36.9393 8.14624C38.0855 8.05073 38.9451 9.00585 38.9451 10.152Z" fill="#EAF4FE"/>
<path d="M26.876 101.23C19.6491 105.912 17.5324 113.467 19.142 117.629C21.3839 123.471 26.3967 119.652 23.9769 115.338C18.12 104.865 7.30344 105.818 -3.99995 113.175" stroke="#5A5A5A" stroke-width="0.704345" stroke-miterlimit="10" stroke-dasharray="3.52 3.52"/>
<path d="M15.218 100.643L48.4213 81.9994L23.1851 100.48L15.218 100.643Z" fill="#F4E398"/>
<path d="M26.5132 106.858L48.4206 81.9994L23.1844 100.48L26.5132 106.858Z" fill="#FFBF0D"/>
<path d="M15.3568 100.621L30.576 95.0583L23.4983 100.215L15.3568 100.621Z" fill="#FFDD55"/>
<path d="M15.2179 100.644L30.1817 95.2659L23.104 100.422L15.2179 100.644Z" fill="#D98F00"/>
<path d="M26.5134 106.859L31.7065 100.655L30.5756 95.0589L23.1846 100.481L26.5134 106.859Z" fill="#FECB2E"/>
<path d="M26.5136 106.858L48.421 81.9995L28.9959 101.098L26.5136 106.858Z" fill="#FFDD55"/>
<path d="M41.0204 107.836L48.4215 81.9992L28.9964 101.098L41.0204 107.836Z" fill="#FECE40"/>
<path d="M41.0196 107.836L33.7442 96.5372L29.1927 100.994L41.0196 107.836Z" fill="#FFDD55"/>
<path d="M41.0198 107.835L33.5586 96.7101L29.0072 101.167L41.0198 107.835Z" fill="#D98F00"/>
<path d="M126.053 28.877H53.4639V88.0942H126.053V28.877Z" fill="white"/>
<path d="M126.053 28.877H53.4639V34.6077H126.053V28.877Z" fill="#9AC7F7"/>
<path d="M115.546 55.6201H62.6328V57.9124H115.546V55.6201Z" fill="#C5E1F9"/>
<path d="M115.546 60.874H62.6328V63.1663H115.546V60.874Z" fill="#C5E1F9"/>
<path d="M115.546 66.0303H62.6328V68.3226H115.546V66.0303Z" fill="#C5E1F9"/>
<path d="M119.367 82.3633H59.1943V82.8408H119.367V82.3633Z" fill="#C5E1F9"/>
<path d="M114.592 84.082H63.9707V84.5596H114.592V84.082Z" fill="#C5E1F9"/>
<path d="M103.13 85.9932H75.4316V86.4707H103.13V85.9932Z" fill="#C5E1F9"/>
<path d="M98.4496 73.2891H81.0664C80.7799 73.2891 80.5889 73.4801 80.5889 73.7666V77.9691C80.5889 78.2557 80.7799 78.4467 81.0664 78.4467H98.4496C98.7361 78.4467 98.9271 78.2557 98.9271 77.9691V73.7666C98.9271 73.4801 98.7361 73.2891 98.4496 73.2891Z" fill="#2A66C4"/>
<path d="M126.053 34.6064H53.4639V47.023H126.053V34.6064Z" fill="#2A66C4"/>
<path d="M63.9706 37.2803H57.0938V44.1571H63.9706V37.2803Z" fill="white"/>
<path d="M58.717 40.0508C58.6215 40.0508 58.6215 40.0508 58.526 40.0508C58.4305 40.0508 58.4305 40.1463 58.4305 40.1463C58.335 40.2418 58.335 40.3373 58.335 40.4328C58.335 40.5283 58.335 40.6239 58.4305 40.7194L58.526 40.8149C58.6215 40.8149 58.6215 40.8149 58.717 40.8149C58.8125 40.8149 58.8125 40.8149 58.908 40.8149C59.0035 40.8149 59.0035 40.7194 59.0035 40.7194C59.0991 40.6239 59.0991 40.5283 59.0991 40.4328C59.0991 40.3373 59.0991 40.2418 59.0035 40.1463L58.908 40.0508C58.8125 40.0508 58.717 40.0508 58.717 40.0508Z" fill="#2A66C4"/>
<path d="M61.1047 41.4819H60.5317V42.5326H59.7676V38.8076H61.1047C61.9643 38.8076 62.4419 39.1897 62.4419 40.0493C62.4419 40.5268 62.3464 40.8134 62.0599 41.0044C61.8688 41.3864 61.5823 41.4819 61.1047 41.4819ZM60.5317 40.8134H61.1047C61.4868 40.8134 61.6778 40.6223 61.6778 40.1448C61.6778 39.9538 61.6778 39.7627 61.5823 39.6672C61.4868 39.5717 61.4868 39.5717 61.3913 39.5717C61.2958 39.5717 61.2003 39.5717 61.2003 39.5717H60.6272V40.8134H60.5317Z" fill="#2A66C4"/>
<path d="M77.82 39.3838H65.9766V41.6761H77.82V39.3838Z" fill="#C5E1F9"/>
<path d="M114.974 42.9146C114.878 42.9146 114.878 42.9146 114.783 42.9146L114.687 42.8191L114.592 42.7236C114.592 42.7236 114.592 42.6281 114.592 42.5326V39.1897C114.592 39.0942 114.592 39.0941 114.592 38.9986C114.592 38.9031 114.687 38.9031 114.687 38.9031L114.783 38.8076C114.783 38.8076 114.878 38.8076 114.974 38.8076H119.94C120.036 38.8076 120.131 38.8076 120.227 38.9031C120.322 38.9986 120.322 39.0942 120.322 39.1897V42.5326C120.322 42.6281 120.322 42.7236 120.227 42.8191C120.131 42.9146 120.036 42.9146 119.94 42.9146H114.974Z" fill="#C5E1F9"/>
<path d="M114.974 42.9146C114.878 42.9146 114.878 42.9146 114.783 42.9146L114.687 42.8191L114.592 42.7236C114.592 42.7236 114.592 42.6281 114.592 42.5326V39.1897C114.592 39.0942 114.592 39.0941 114.592 38.9986C114.592 38.9031 114.687 38.9031 114.687 38.9031L114.783 38.8076C114.783 38.8076 114.878 38.8076 114.974 38.8076H119.94C120.036 38.8076 120.131 38.8076 120.227 38.9031C120.322 38.9986 120.322 39.0942 120.322 39.1897V42.5326C120.322 42.6281 120.322 42.7236 120.227 42.8191C120.131 42.9146 120.036 42.9146 119.94 42.9146H114.974Z" fill="#9AC7F7"/>
<path d="M119.94 38.7129H114.974C114.878 38.7129 114.878 38.7129 114.783 38.7129L114.687 38.8084L114.592 38.9039C114.592 38.9039 114.592 38.9994 114.592 39.0949V39.286L119.176 42.8199H119.94C120.036 42.8199 120.131 42.8199 120.227 42.7244C120.322 42.6289 120.322 42.5334 120.322 42.4378V39.0949C120.322 38.9994 120.322 38.9039 120.227 38.8084C120.131 38.8084 120.036 38.7129 119.94 38.7129Z" fill="#67ACF5"/>
<path d="M117.457 41.2917L120.322 39.286V39.0949C120.322 38.9994 120.322 38.9039 120.227 38.8084C120.131 38.7129 120.036 38.7129 119.94 38.7129H114.974C114.878 38.7129 114.878 38.7129 114.783 38.7129L114.687 38.8084L114.592 38.9039C114.592 38.9039 114.592 38.9994 114.592 39.0949V39.3815L117.457 41.2917Z" fill="#C5E1F9"/>
<path d="M90.6328 88.6862L90.2031 89.4307L97.5654 93.6792L97.9951 92.9347L90.6328 88.6862Z" fill="#84B5F4"/>
<path d="M97.5862 105.776L90.2256 110.028L90.6556 110.773L98.0162 106.521L97.5862 105.776Z" fill="#84B5F4"/>
<path d="M109.242 112.544H108.383V121.044H109.242V112.544Z" fill="#84B5F4"/>
<path d="M109.242 80.0703H108.383V88.5709H109.242V80.0703Z" fill="#84B5F4"/>
<path d="M127.09 88.7051L119.729 92.957L120.159 93.7014L127.52 89.4494L127.09 88.7051Z" fill="#84B5F4"/>
<path d="M138.374 108.341L126.435 104.425L114.592 100.604L118.412 112.448L122.328 124.387L126.435 116.268L132.835 122.572L136.559 118.847L130.16 112.543L138.374 108.341Z" fill="#8AB3F5"/>
<path d="M126.435 104.425L114.592 100.604L114.687 100.987L134.554 120.853L136.559 118.847L130.16 112.543L138.374 108.341L126.435 104.425Z" fill="#497FDE"/>
</g>
<defs>
<clipPath id="clip0_17495_384074">
<rect width="161" height="126" fill="white" transform="translate(0 5)"/>
</clipPath>
</defs>
</svg>
