<svg width="284" height="284" viewBox="0 0 284 284" fill="none" xmlns="http://www.w3.org/2000/svg">
<path d="M278.244 238.385H0" stroke="#5A5A5A" stroke-width="1.65116" stroke-miterlimit="10"/>
<path d="M36.3076 225.467C62.5793 137.641 190.266 44.7547 214.838 112.543C218.812 123.507 205.7 130.393 202.781 116.063C200.702 105.857 208.441 89.1856 226.876 81.1074" stroke="#5A5A5A" stroke-width="1.65116" stroke-miterlimit="10" stroke-dasharray="8.26 8.26"/>
<path d="M200.128 75.1639L283.999 44.5801L218.474 77.6977L200.128 75.1639Z" fill="#EAF4FE"/>
<path d="M223.833 93.7768L284 44.5801L218.475 77.6977L223.833 93.7768Z" fill="#9AC7F7"/>
<path d="M200.338 75.1233L237.672 68.0039L219.417 77.2597L200.338 75.1233Z" fill="#003C77"/>
<path d="M200.128 75.1634L236.729 68.4395L218.474 77.6972L200.128 75.1634Z" fill="#0058B0"/>
<path d="M223.833 93.7762L238.183 81.4232L237.673 68.0039L218.475 77.6971L223.833 93.7762Z" fill="#003C77"/>
<path d="M223.833 93.7768L284 44.5801L231.755 81.4633L223.833 93.7768Z" fill="#0561FC"/>
<path d="M257.086 101.519L283.999 44.5801L231.755 81.4633L257.086 101.519Z" fill="#C5E1F9"/>
<path d="M257.085 101.519L244.502 72.5576L232.23 81.0902L257.085 101.519Z" fill="#003C77"/>
<path d="M257.086 101.519L244.025 72.9307L231.755 81.4633L257.086 101.519Z" fill="#0058B0"/>
<path d="M197.523 137.785L125.163 68.6781C124.475 67.9153 123.73 67.2052 122.935 66.5539L122.225 65.875C122.225 65.875 122.197 65.8848 122.147 65.9029C118.644 63.2325 114.362 61.7861 109.958 61.7861C105.553 61.7861 101.271 63.2325 97.7684 65.9029C97.7184 65.8848 97.6907 65.875 97.6907 65.875L96.9799 66.5539C96.1851 67.2053 95.4402 67.9154 94.7514 68.6781L22.3919 137.785C21.6314 138.546 21.0285 139.449 20.6181 140.443C20.2076 141.437 19.9975 142.502 20 143.578V225.347C20.0002 228.601 21.2927 231.721 23.5932 234.021C25.8936 236.322 29.0136 237.614 32.2669 237.614H187.648C190.902 237.614 194.022 236.322 196.322 234.021C198.623 231.721 199.915 228.601 199.915 225.347V143.578C199.918 142.502 199.708 141.437 199.297 140.443C198.887 139.449 198.284 138.546 197.523 137.785Z" fill="#D98F00"/>
<path d="M138.87 188.837C154.839 172.869 154.839 146.979 138.87 131.01C122.902 115.042 97.0119 115.042 81.0434 131.01C65.0749 146.979 65.0749 172.869 81.0434 188.837C97.0119 204.806 122.902 204.806 138.87 188.837Z" stroke="#2094F1" stroke-width="0.128427" stroke-miterlimit="10"/>
<path d="M187.649 213.078V119.032L142.67 74.0527H44.5345C41.2812 74.053 38.1612 75.3454 35.8607 77.6459C33.5603 79.9463 32.2678 83.0664 32.2676 86.3197V213.078H187.649Z" fill="#EAF4FE"/>
<path d="M187.648 237.615H32.2669C29.0136 237.615 25.8936 236.322 23.5931 234.022C21.2927 231.721 20.0002 228.601 20 225.348V143.568L187.648 237.615Z" fill="#FFBF0D"/>
<path d="M32.2676 237.615H187.649C190.902 237.615 194.022 236.322 196.323 234.022C198.623 231.721 199.916 228.601 199.916 225.348V143.568L32.2676 237.615Z" fill="#FECE40"/>
<path d="M142.67 74.0527V106.765C142.67 108.376 142.987 109.971 143.604 111.459C144.22 112.947 145.124 114.3 146.263 115.439C147.402 116.578 148.754 117.481 150.242 118.098C151.731 118.714 153.326 119.032 154.937 119.032H187.649L142.67 74.0527Z" fill="#2A66C4"/>
<path d="M163.466 127.139H92.4658V135.394H163.466V127.139Z" fill="#C5E1F9"/>
<path d="M163.115 143.565H60.8906V151.743H163.115V143.565Z" fill="#C5E1F9"/>
<path d="M135.396 110.627H92.4658V118.883H135.396V110.627Z" fill="#C5E1F9"/>
<path fill-rule="evenodd" clip-rule="evenodd" d="M85.8612 110.627H61.0938V135.394H85.8612V110.627Z" fill="#2A66C4"/>
<path fill-rule="evenodd" clip-rule="evenodd" d="M66.8694 120.497C66.6599 120.49 66.4513 120.527 66.2574 120.607C66.0635 120.686 65.8887 120.806 65.7445 120.958C65.4564 121.275 65.3045 121.693 65.3216 122.121C65.3098 122.555 65.4692 122.975 65.7655 123.292C65.9088 123.446 66.0836 123.568 66.2776 123.648C66.4716 123.729 66.6803 123.768 66.8904 123.762C67.0974 123.769 67.3038 123.732 67.495 123.652C67.6862 123.573 67.8578 123.453 67.9984 123.301C68.2835 122.983 68.435 122.568 68.4213 122.142C68.4344 121.712 68.2832 121.293 67.9984 120.971C67.8592 120.815 67.6876 120.692 67.4954 120.61C67.3032 120.528 67.0951 120.489 66.8863 120.497" fill="white"/>
<path d="M75.6475 125.862H73.47V129.71H70.7891V116.487H75.6475C78.7852 116.487 80.3539 118.017 80.3539 121.075C80.3539 122.62 79.9524 123.807 79.1489 124.636C78.3455 125.465 77.1783 125.874 75.6475 125.862ZM73.47 123.566H75.6306C76.9668 123.566 77.6309 122.72 77.6309 121.075C77.6905 120.452 77.5171 119.828 77.1445 119.325C76.9465 119.13 76.7087 118.98 76.4474 118.886C76.1861 118.792 75.9073 118.755 75.6306 118.779H73.47V123.566Z" fill="white"/>
<path d="M176.208 237.614C175.419 237.614 174.639 237.459 173.91 237.157C173.182 236.855 172.521 236.413 171.963 235.855C171.406 235.297 170.964 234.636 170.663 233.907C170.362 233.179 170.207 232.398 170.207 231.61V179.59C170.207 178.802 170.362 178.021 170.663 177.293C170.964 176.565 171.406 175.903 171.964 175.346C172.521 174.788 173.183 174.346 173.911 174.044C174.639 173.743 175.419 173.588 176.208 173.588H252.237C253.829 173.588 255.356 174.22 256.482 175.345C257.609 176.471 258.242 177.998 258.243 179.59V231.61C258.242 233.202 257.609 234.729 256.483 235.855C255.356 236.981 253.829 237.614 252.237 237.614H176.208Z" fill="#C5E1F9"/>
<path d="M176.208 237.614C175.419 237.614 174.639 237.459 173.91 237.157C173.182 236.855 172.521 236.413 171.963 235.855C171.406 235.297 170.964 234.636 170.663 233.907C170.362 233.179 170.207 232.398 170.207 231.61V179.59C170.207 178.802 170.362 178.021 170.663 177.293C170.964 176.565 171.406 175.903 171.964 175.346C172.521 174.788 173.183 174.346 173.911 174.044C174.639 173.743 175.419 173.588 176.208 173.588H252.237C253.829 173.588 255.356 174.22 256.482 175.345C257.609 176.471 258.242 177.998 258.243 179.59V231.61C258.242 233.202 257.609 234.729 256.483 235.855C255.356 236.981 253.829 237.614 252.237 237.614H176.208Z" fill="#9AC7F7"/>
<path d="M252.237 173.588H176.208C175.419 173.588 174.639 173.743 173.911 174.044C173.183 174.346 172.521 174.788 171.964 175.346C171.406 175.903 170.964 176.565 170.663 177.293C170.362 178.021 170.207 178.802 170.207 179.59V182.734L240.051 237.614H252.237C253.829 237.614 255.356 236.981 256.483 235.855C257.609 234.729 258.242 233.202 258.243 231.61V179.59C258.242 177.998 257.609 176.471 256.482 175.345C255.356 174.22 253.829 173.588 252.237 173.588Z" fill="#67ACF5"/>
<path d="M214.221 213.604L258.243 182.984V179.59C258.242 177.998 257.609 176.471 256.482 175.345C255.356 174.22 253.829 173.588 252.237 173.588H176.208C175.419 173.588 174.639 173.743 173.911 174.044C173.183 174.346 172.521 174.788 171.964 175.346C171.406 175.903 170.964 176.565 170.663 177.293C170.362 178.021 170.207 178.802 170.207 179.59V182.984L214.221 213.604Z" fill="#C5E1F9"/>
</svg>
