<svg width="284" height="196" viewBox="0 0 284 196" fill="none" xmlns="http://www.w3.org/2000/svg">
<path d="M278.244 194.387H0" stroke="#5A5A5A" stroke-width="1.65116" stroke-miterlimit="10"/>
<path d="M36.3076 181.469C62.5793 93.6433 190.266 0.756665 214.838 68.545C218.812 79.5087 205.7 86.3946 202.781 72.0651C200.702 61.8589 208.441 45.1876 226.876 37.1094" stroke="#5A5A5A" stroke-width="1.65116" stroke-miterlimit="10" stroke-dasharray="8.26 8.26"/>
<path d="M200.128 31.1669L283.999 0.583008L218.474 33.7006L200.128 31.1669Z" fill="#EAF4FE"/>
<path d="M223.833 49.7797L284 0.583008L218.475 33.7006L223.833 49.7797Z" fill="#9AC7F7"/>
<path d="M200.338 31.1262L237.672 24.0068L219.417 33.2626L200.338 31.1262Z" fill="#003C77"/>
<path d="M200.128 31.1663L236.729 24.4424L218.474 33.7001L200.128 31.1663Z" fill="#0058B0"/>
<path d="M223.833 49.7792L238.183 37.4261L237.673 24.0068L218.475 33.7001L223.833 49.7792Z" fill="#003C77"/>
<path d="M223.833 49.7797L284 0.583008L231.755 37.4662L223.833 49.7797Z" fill="#0561FC"/>
<path d="M257.086 57.522L283.999 0.583008L231.755 37.4662L257.086 57.522Z" fill="#C5E1F9"/>
<path d="M257.085 57.5216L244.502 28.5605L232.23 37.0932L257.085 57.5216Z" fill="#003C77"/>
<path d="M257.086 57.522L244.025 28.9336L231.755 37.4662L257.086 57.522Z" fill="#0058B0"/>
<path d="M197.523 93.7884L125.163 24.681C124.475 23.9182 123.73 23.2081 122.935 22.5568L122.225 21.878C122.225 21.878 122.197 21.8878 122.147 21.9058C118.644 19.2354 114.362 17.7891 109.958 17.7891C105.553 17.7891 101.271 19.2354 97.7684 21.9058C97.7184 21.8878 97.6907 21.878 97.6907 21.878L96.9799 22.5568C96.1851 23.2082 95.4402 23.9183 94.7514 24.681L22.3919 93.7884C21.6314 94.5488 21.0285 95.4519 20.6181 96.4459C20.2076 97.4399 19.9975 98.5052 20 99.5806V181.35C20.0002 184.604 21.2927 187.724 23.5932 190.024C25.8936 192.325 29.0136 193.617 32.2669 193.617H187.648C190.902 193.617 194.022 192.325 196.322 190.024C198.623 187.724 199.915 184.604 199.915 181.35V99.5806C199.918 98.5052 199.708 97.4399 199.297 96.4459C198.887 95.4519 198.284 94.5488 197.523 93.7884Z" fill="#D98F00"/>
<path d="M138.87 144.84C154.839 128.872 154.839 102.982 138.87 87.0132C122.902 71.0447 97.0119 71.0447 81.0434 87.0132C65.0749 102.982 65.0749 128.872 81.0434 144.84C97.0119 160.809 122.902 160.809 138.87 144.84Z" stroke="#2094F1" stroke-width="0.128427" stroke-miterlimit="10"/>
<path d="M187.649 169.08V75.0335L142.67 30.0547H44.5345C41.2812 30.0549 38.1612 31.3474 35.8607 33.6478C33.5603 35.9483 32.2678 39.0683 32.2676 42.3216V169.08H187.649Z" fill="#EAF4FE"/>
<path d="M187.648 193.618H32.2669C29.0136 193.618 25.8936 192.325 23.5931 190.025C21.2927 187.724 20.0002 184.604 20 181.351V99.5713L187.648 193.618Z" fill="#FFBF0D"/>
<path d="M32.2676 193.618H187.649C190.902 193.618 194.022 192.325 196.323 190.025C198.623 187.724 199.916 184.604 199.916 181.351V99.5713L32.2676 193.618Z" fill="#FECE40"/>
<path d="M142.67 30.0547V62.7665C142.67 64.3775 142.987 65.9726 143.604 67.461C144.22 68.9493 145.124 70.3016 146.263 71.4407C147.402 72.5798 148.754 73.4834 150.242 74.0999C151.731 74.7163 153.326 75.0336 154.937 75.0335H187.649L142.67 30.0547Z" fill="#2A66C4"/>
<path d="M163.466 83.1406H92.4658V91.3964H163.466V83.1406Z" fill="#C5E1F9"/>
<path d="M163.115 99.5684H60.8906V107.746H163.115V99.5684Z" fill="#C5E1F9"/>
<path d="M135.396 66.6289H92.4658V74.8847H135.396V66.6289Z" fill="#C5E1F9"/>
<path fill-rule="evenodd" clip-rule="evenodd" d="M85.8612 66.6289H61.0938V91.3962H85.8612V66.6289Z" fill="#2A66C4"/>
<path fill-rule="evenodd" clip-rule="evenodd" d="M66.8694 76.498C66.6599 76.4908 66.4513 76.5282 66.2574 76.6077C66.0635 76.6872 65.8887 76.8069 65.7445 76.959C65.4564 77.2761 65.3045 77.6937 65.3216 78.1219C65.3098 78.5555 65.4692 78.9763 65.7655 79.2932C65.9088 79.447 66.0836 79.5685 66.2776 79.6494C66.4716 79.7304 66.6803 79.769 66.8904 79.7626C67.0974 79.7701 67.3038 79.7328 67.495 79.6532C67.6862 79.5737 67.8578 79.4537 67.9984 79.3016C68.2835 78.9844 68.435 78.5693 68.4213 78.143C68.4344 77.713 68.2832 77.2941 67.9984 76.9716C67.8592 76.8158 67.6876 76.6925 67.4954 76.6107C67.3032 76.5288 67.0951 76.4903 66.8863 76.498" fill="white"/>
<path d="M75.6475 81.8652H73.47V85.7133H70.7891V72.4902H75.6475C78.7852 72.4902 80.3539 74.0196 80.3539 77.0783C80.3539 78.6232 79.9524 79.8101 79.1489 80.6389C78.3455 81.4677 77.1783 81.8765 75.6475 81.8652ZM73.47 79.569H75.6306C76.9668 79.569 77.6309 78.7233 77.6309 77.0783C77.6905 76.4548 77.5171 75.8312 77.1445 75.3277C76.9465 75.1329 76.7087 74.9832 76.4474 74.8891C76.1861 74.7949 75.9073 74.7584 75.6306 74.7822H73.47V79.569Z" fill="white"/>
<path d="M176.208 193.617C175.419 193.617 174.639 193.462 173.91 193.16C173.182 192.858 172.521 192.416 171.963 191.858C171.406 191.3 170.964 190.639 170.663 189.91C170.362 189.182 170.207 188.401 170.207 187.613V135.593C170.207 134.805 170.362 134.024 170.663 133.296C170.964 132.568 171.406 131.906 171.964 131.348C172.521 130.791 173.183 130.349 173.911 130.047C174.639 129.746 175.419 129.591 176.208 129.591H252.237C253.829 129.591 255.356 130.223 256.482 131.348C257.609 132.474 258.242 134.001 258.243 135.593V187.613C258.242 189.205 257.609 190.732 256.483 191.858C255.356 192.984 253.829 193.617 252.237 193.617H176.208Z" fill="#C5E1F9"/>
<path d="M176.208 193.617C175.419 193.617 174.639 193.462 173.91 193.16C173.182 192.858 172.521 192.416 171.963 191.858C171.406 191.3 170.964 190.639 170.663 189.91C170.362 189.182 170.207 188.401 170.207 187.613V135.593C170.207 134.805 170.362 134.024 170.663 133.296C170.964 132.568 171.406 131.906 171.964 131.348C172.521 130.791 173.183 130.349 173.911 130.047C174.639 129.746 175.419 129.591 176.208 129.591H252.237C253.829 129.591 255.356 130.223 256.482 131.348C257.609 132.474 258.242 134.001 258.243 135.593V187.613C258.242 189.205 257.609 190.732 256.483 191.858C255.356 192.984 253.829 193.617 252.237 193.617H176.208Z" fill="#9AC7F7"/>
<path d="M252.237 129.591H176.208C175.419 129.591 174.639 129.746 173.911 130.047C173.183 130.349 172.521 130.791 171.964 131.348C171.406 131.906 170.964 132.568 170.663 133.296C170.362 134.024 170.207 134.805 170.207 135.593V138.737L240.051 193.617H252.237C253.829 193.617 255.356 192.984 256.483 191.858C257.609 190.732 258.242 189.205 258.243 187.613V135.593C258.242 134.001 257.609 132.474 256.482 131.348C255.356 130.223 253.829 129.591 252.237 129.591Z" fill="#67ACF5"/>
<path d="M214.221 169.607L258.243 138.987V135.593C258.242 134.001 257.609 132.474 256.482 131.348C255.356 130.223 253.829 129.591 252.237 129.591H176.208C175.419 129.591 174.639 129.746 173.911 130.047C173.183 130.349 172.521 130.791 171.964 131.348C171.406 131.906 170.964 132.568 170.663 133.296C170.362 134.024 170.207 134.805 170.207 135.593V138.987L214.221 169.607Z" fill="#C5E1F9"/>
</svg>
