<svg width="48" height="48" viewBox="0 0 48 48" fill="none" xmlns="http://www.w3.org/2000/svg">
<path d="M12.1406 37.3774V27.4946L16.5879 29.4712V39.354L12.1406 37.3774Z" fill="#0066CC"/>
<path d="M41.859 25.0344V34.9808L24.655 43.5828L6.37634 34.9808V25.1356" stroke="#505050" stroke-linecap="round" stroke-linejoin="round"/>
<path d="M6.37634 15.6257L24.655 23.1525L41.859 15.6257" stroke="#505050" stroke-linecap="round" stroke-linejoin="round"/>
<path d="M24.6552 23.1526V43.5821" stroke="#505050" stroke-linecap="round" stroke-linejoin="round"/>
<path d="M24.6549 23.1525L19.2793 31.2169L1 22.6149L6.37625 15.6257" stroke="#505050" stroke-linecap="round" stroke-linejoin="round"/>
<path d="M41.8589 15.6257L46.6975 22.6149L30.5688 30.6792L24.6549 23.1525" stroke="#505050" stroke-linecap="round" stroke-linejoin="round"/>
<path d="M24.1177 13.1396V20.2492" stroke="#505050" stroke-linecap="round" stroke-linejoin="round" stroke-dasharray="1 3"/>
<path d="M24.1172 9.71205L18.9767 4L1.23511 9.91388L6.37618 15.6259" stroke="#505050" stroke-linecap="round" stroke-linejoin="round"/>
<path d="M24.1174 9.71205L29.2585 4L47.0001 9.91388L41.859 15.6259L24.1174 9.71205ZM24.1174 9.71205L6.37634 15.6259" stroke="#505050" stroke-linecap="round" stroke-linejoin="round"/>
</svg>
