<svg width="100" height="107" viewBox="0 0 100 107" fill="none" xmlns="http://www.w3.org/2000/svg">
<path d="M31.3345 34.0173H54.9359V43.7678H31.3345V34.0173Z" fill="#27D1D6"/>
<path d="M31.3345 46.718H71.5337V49.9774H31.3345V46.718Z" fill="#0073E6"/>
<path d="M8.51855 14.2688H31.3343V17.5282H8.51855V14.2688Z" fill="#0073E6"/>
<path d="M8.51855 19.7012H23.7291V22.9606H8.51855V19.7012Z" fill="#0073E6"/>
<path d="M8.51855 25.1335H16.1238V28.3929H8.51855V25.1335Z" fill="#0073E6"/>
<path d="M31.3345 53.2368H71.5337V56.4962H31.3345V53.2368Z" fill="#0073E6"/>
<path fill-rule="evenodd" clip-rule="evenodd" d="M29.9192 25.845C17.355 37.2635 16.4262 56.7053 27.8447 69.2695C39.2632 81.8338 58.705 82.7626 71.2692 71.3441C83.8334 59.9256 84.7622 40.4837 73.3437 27.9195C61.9252 15.3553 42.4834 14.4265 29.9192 25.845ZM25.9946 70.9509C13.6475 57.3649 14.6518 36.342 28.2378 23.9949C41.8238 11.6478 62.8467 12.6521 75.1938 26.2381C87.5409 39.8241 86.5366 60.8471 72.9506 73.1942C59.3646 85.5413 38.3417 84.5369 25.9946 70.9509Z" fill="#505050"/>
<path fill-rule="evenodd" clip-rule="evenodd" d="M69.8998 77.9857C70.4148 77.5259 71.2123 77.564 71.6812 78.0707L87.372 95.0294C88.7081 96.4735 90.9811 96.582 92.4488 95.2718C93.9165 93.9616 94.0231 91.7287 92.687 90.2846L76.9962 73.3259C76.5273 72.8192 76.5647 72.0357 77.0797 71.5759C77.5947 71.1162 78.3923 71.1543 78.8611 71.661L94.5519 88.6196C96.8258 91.0772 96.6443 94.8771 94.1467 97.1068C91.649 99.3366 87.7809 99.1519 85.507 96.6943L69.8162 79.7356C69.3474 79.2289 69.3848 78.4454 69.8998 77.9857Z" fill="#505050"/>
<path d="M83.8613 90.3635L88.2915 86.4086L91.5579 89.9381C92.6718 91.1418 92.5831 93.0031 91.3596 94.0953L-nan -nanL91.3596 94.0953C90.1363 95.1874 88.2419 95.097 87.1282 93.8935L83.8613 90.3635Z" fill="#0066CC"/>
<path fill-rule="evenodd" clip-rule="evenodd" d="M0.75 5.5843C0.75 3.68996 2.28566 2.1543 4.18 2.1543H55.2298C57.1241 2.1543 58.6598 3.68996 58.6598 5.5843V13.1825C58.6598 13.8728 58.1001 14.4325 57.4098 14.4325C56.7194 14.4325 56.1598 13.8728 56.1598 13.1825V5.5843C56.1598 5.07067 55.7434 4.6543 55.2298 4.6543H4.18C3.66638 4.6543 3.25 5.07067 3.25 5.5843V59.3201C3.25 59.8337 3.66638 60.2501 4.18 60.2501H16C16.6904 60.2501 17.25 60.8098 17.25 61.5001C17.25 62.1905 16.6904 62.7501 16 62.7501H4.18C2.28566 62.7501 0.75 61.2145 0.75 59.3201V5.5843Z" fill="#505050"/>
</svg>
