<svg width="369" height="303" viewBox="0 0 369 303" fill="none" xmlns="http://www.w3.org/2000/svg">
<g clip-path="url(#clip0_14195_311194)">
<path d="M262.407 202.952V199.572C264.604 199.57 266.71 198.698 268.263 197.147C269.816 195.596 270.69 193.494 270.692 191.301H274.077H270.692H274.077C274.075 194.39 272.845 197.352 270.657 199.537C268.469 201.721 265.502 202.95 262.407 202.952Z" fill="#C5E1F9"/>
<path d="M284.48 208.43H281.086V187.85C281.086 186.922 280.718 186.031 280.061 185.374C279.404 184.716 278.512 184.346 277.582 184.344C276.653 184.348 275.763 184.719 275.106 185.376C274.45 186.033 274.08 186.923 274.078 187.85V192.228H270.693V187.85C270.693 186.026 271.419 184.275 272.71 182.984C274.002 181.693 275.755 180.966 277.582 180.964C279.411 180.966 281.164 181.693 282.457 182.984C283.75 184.274 284.477 186.025 284.48 187.85V208.43Z" fill="#C5E1F9"/>
<path d="M285.663 215.743C284.455 215.741 283.297 215.261 282.442 214.408C281.588 213.555 281.107 212.398 281.105 211.192V199.81H284.49V211.192C284.492 211.502 284.617 211.799 284.836 212.018C285.056 212.237 285.353 212.361 285.663 212.363C285.975 212.363 286.273 212.24 286.493 212.02C286.713 211.801 286.837 211.503 286.837 211.192L287.011 131.985H290.373L290.206 211.192C290.202 212.395 289.723 213.548 288.872 214.4C288.021 215.252 286.868 215.735 285.663 215.743Z" fill="#C5E1F9"/>
<path d="M262.625 202.952C259.53 202.95 256.562 201.722 254.373 199.538C252.184 197.354 250.952 194.391 250.948 191.301V185.927H254.341V191.301C254.343 193.494 255.216 195.597 256.77 197.148C258.323 198.698 260.429 199.57 262.625 199.572V202.952Z" fill="#C5E1F9"/>
<path d="M290.373 131.985H286.988C286.999 128.894 288.236 125.934 290.43 123.752C292.623 121.571 295.594 120.348 298.69 120.35H307.458V123.73H298.69C296.491 123.725 294.38 124.592 292.821 126.14C291.262 127.688 290.382 129.79 290.373 131.985Z" fill="#C5E1F9"/>
<path d="M254.346 186.94H250.961V176.492C250.957 174.298 250.081 172.195 248.527 170.645C246.972 169.094 244.866 168.223 242.668 168.22H210.394V164.833H242.668C245.764 164.837 248.732 166.067 250.921 168.252C253.11 170.438 254.342 173.401 254.346 176.492V186.94Z" fill="#C5E1F9"/>
<path d="M312.568 155.968C308.86 153.195 305.736 149.721 303.373 145.744C301.011 141.766 299.456 137.363 298.798 132.785C298.14 128.208 298.391 123.546 299.538 119.065C300.684 114.585 302.703 110.373 305.48 106.672C308.253 102.966 311.729 99.8421 315.711 97.4783C319.694 95.1144 324.104 93.5572 328.689 92.8957C333.274 92.2341 337.945 92.4811 342.435 93.6226C346.924 94.7641 351.145 96.7778 354.855 99.5484C358.566 102.318 361.694 105.79 364.061 109.767C366.428 113.743 367.988 118.146 368.65 122.725C369.313 127.303 369.066 131.967 367.923 136.45C366.78 140.933 364.764 145.147 361.99 148.852C359.214 152.56 355.733 155.686 351.746 158.051C347.759 160.416 343.345 161.974 338.755 162.634C334.166 163.295 329.49 163.047 324.997 161.903C320.504 160.759 316.28 158.742 312.568 155.968Z" fill="#FFCC00"/>
<path d="M111.249 189.259V185.879C113.446 185.875 115.552 185.001 117.105 183.449C118.658 181.897 119.531 179.793 119.534 177.599V172.589H122.919V177.631C122.906 180.715 121.672 183.669 119.485 185.847C117.299 188.026 114.338 189.252 111.249 189.259Z" fill="#C5E1F9"/>
<path d="M133.313 205.659H129.928V169.035C129.928 168.107 129.559 167.216 128.902 166.559C128.245 165.901 127.354 165.531 126.424 165.529C125.494 165.531 124.603 165.901 123.946 166.559C123.289 167.216 122.92 168.107 122.92 169.035V175.106H119.535V169.035C119.535 167.21 120.26 165.46 121.552 164.169C122.844 162.878 124.596 162.151 126.424 162.149C128.252 162.151 130.004 162.878 131.296 164.169C132.588 165.46 133.313 167.21 133.313 169.035V205.659Z" fill="#C5E1F9"/>
<path d="M152.023 183.077H148.63V157.25C148.63 155.975 148.123 154.752 147.221 153.85C146.319 152.948 145.095 152.44 143.818 152.438C142.54 152.44 141.315 152.947 140.412 153.849C139.508 154.751 139 155.974 138.998 157.25V183.077H135.612V157.25C135.614 155.078 136.48 152.995 138.018 151.459C139.556 149.924 141.642 149.06 143.818 149.058C145.993 149.06 148.079 149.924 149.617 151.459C151.156 152.995 152.021 155.078 152.023 157.25V183.077Z" fill="#C5E1F9"/>
<path d="M134.502 212.957C133.291 212.957 132.13 212.477 131.274 211.622C130.417 210.767 129.936 209.607 129.936 208.398V181.011H133.329V208.398C133.329 208.709 133.453 209.006 133.673 209.226C133.893 209.446 134.191 209.569 134.502 209.569C134.657 209.569 134.809 209.539 134.951 209.48C135.094 209.421 135.223 209.335 135.332 209.226C135.441 209.117 135.527 208.988 135.586 208.846C135.645 208.704 135.676 208.552 135.676 208.398V181.011H139.061V208.398C139.061 209.606 138.581 210.764 137.726 211.619C136.872 212.474 135.712 212.955 134.502 212.957Z" fill="#C5E1F9"/>
<path d="M111.456 189.26C108.361 189.255 105.394 188.025 103.206 185.84C101.019 183.654 99.7887 180.691 99.7866 177.601V167.153H103.172V177.601C103.174 179.794 104.047 181.898 105.6 183.45C107.153 185.002 109.259 185.876 111.456 185.88V189.26Z" fill="#C5E1F9"/>
<path d="M103.178 168.173H99.7932V157.717C99.7911 155.524 98.9177 153.422 97.3645 151.871C95.8113 150.32 93.7053 149.448 91.5087 149.446H43.1094V146.066H91.5087C94.6031 146.068 97.5701 147.297 99.7581 149.481C101.946 151.666 103.176 154.628 103.178 157.717V168.173Z" fill="#C5E1F9"/>
<path d="M45.2918 149.493H39.56C36.4655 149.489 33.4989 148.26 31.31 146.076C29.1211 143.893 27.8886 140.931 27.8823 137.842V112.838H31.2675V137.842C31.2717 140.036 32.1469 142.138 33.7014 143.689C35.2559 145.239 37.3627 146.111 39.56 146.113H45.2918V149.493Z" fill="#C5E1F9"/>
<path d="M160.167 204.717V201.338C162.365 201.336 164.471 200.464 166.026 198.913C167.58 197.363 168.456 195.26 168.46 193.066V55.62H171.845V193.066C171.841 196.157 170.609 199.119 168.419 201.303C166.23 203.487 163.262 204.715 160.167 204.717Z" fill="#C5E1F9"/>
<path d="M160.354 204.716C157.26 204.714 154.293 203.486 152.105 201.302C149.917 199.117 148.687 196.155 148.685 193.065V168.069H152.07V193.065C152.072 195.258 152.945 197.361 154.499 198.912C156.052 200.463 158.158 201.335 160.354 201.337V204.716Z" fill="#C5E1F9"/>
<path d="M55.9376 117.816C53.4922 121.076 50.4276 123.823 46.9188 125.901C43.41 127.978 39.5257 129.345 35.4878 129.923C31.4499 130.502 27.3375 130.28 23.3852 129.272C19.433 128.263 15.7183 126.488 12.4535 124.046C9.18725 121.605 6.43456 118.547 4.35247 115.044C2.27039 111.541 0.89974 107.663 0.318888 103.632C-0.261963 99.6004 -0.0416513 95.4941 0.967184 91.5476C1.97602 87.6011 3.75366 83.8916 6.19855 80.6311C11.1374 74.0481 18.4926 69.693 26.647 68.5234C34.8014 67.3538 43.0873 69.4653 49.6826 74.3939C52.9491 76.835 55.702 79.8945 57.7842 83.3978C59.8664 86.9011 61.237 90.7796 61.8179 94.8117C62.3987 98.8439 62.1784 102.951 61.1695 106.898C60.1605 110.845 58.3828 114.555 55.9376 117.816Z" fill="#C7DEFF"/>
<path d="M268.652 249.529H87.2628C85.6356 249.529 84.075 248.884 82.9244 247.735C81.7738 246.586 81.1274 245.028 81.1274 243.404V89.5596C81.1274 87.8761 81.7968 86.2614 82.9884 85.0702C84.18 83.879 85.7965 83.2087 87.4827 83.2067H268.432C270.118 83.2087 271.734 83.879 272.926 85.0702C274.118 86.2614 274.787 87.8761 274.787 89.5596V243.404C274.787 245.028 274.141 246.586 272.99 247.735C271.839 248.884 270.279 249.529 268.652 249.529Z" fill="#F0F6FC"/>
<path d="M81.1274 89.8554C81.129 86.8471 82.3251 83.9624 84.4531 81.8351C86.581 79.7079 89.4666 78.5122 92.476 78.5106H263.187C266.196 78.5122 269.082 79.7079 271.21 81.8351C273.338 83.9624 274.534 86.8471 274.535 89.8554H81.1274Z" fill="#9AC7F7"/>
<path d="M260.107 86.6994C260.605 86.6994 261.092 86.5518 261.506 86.2752C261.92 85.9987 262.243 85.6057 262.433 85.1458C262.624 84.686 262.674 84.18 262.576 83.6919C262.479 83.2037 262.24 82.7553 261.888 82.4033C261.535 82.0514 261.087 81.8117 260.599 81.7146C260.11 81.6175 259.604 81.6674 259.144 81.8578C258.684 82.0483 258.291 82.3708 258.014 82.7847C257.738 83.1985 257.59 83.6851 257.59 84.1828C257.59 84.8502 257.855 85.4903 258.327 85.9623C258.8 86.4342 259.44 86.6994 260.107 86.6994Z" fill="white"/>
<path d="M251.352 86.6994C251.849 86.6994 252.336 86.5518 252.75 86.2752C253.164 85.9987 253.487 85.6057 253.677 85.1458C253.868 84.686 253.918 84.18 253.821 83.6919C253.723 83.2037 253.484 82.7553 253.132 82.4033C252.78 82.0514 252.331 81.8117 251.843 81.7146C251.354 81.6175 250.848 81.6674 250.388 81.8578C249.928 82.0483 249.535 82.3708 249.258 82.7847C248.982 83.1985 248.834 83.6851 248.834 84.1828C248.834 84.8502 249.099 85.4903 249.572 85.9623C250.044 86.4342 250.684 86.6994 251.352 86.6994Z" fill="#0450CF"/>
<path d="M242.601 86.6994C243.099 86.6994 243.585 86.5518 243.999 86.2752C244.413 85.9987 244.736 85.6057 244.927 85.1458C245.117 84.686 245.167 84.18 245.07 83.6919C244.973 83.2037 244.733 82.7553 244.381 82.4033C244.029 82.0514 243.58 81.8117 243.092 81.7146C242.604 81.6175 242.098 81.6674 241.638 81.8578C241.178 82.0483 240.784 82.3708 240.508 82.7847C240.231 83.1985 240.083 83.6851 240.083 84.1828C240.083 84.8502 240.349 85.4903 240.821 85.9623C241.293 86.4342 241.933 86.6994 242.601 86.6994Z" fill="#003E99"/>
<path d="M114.874 107.844H93.4692V128.186H114.874V107.844Z" fill="#2A66C4"/>
<path d="M98.4417 115.949C98.2606 115.942 98.0798 115.972 97.9105 116.036C97.7436 116.102 97.5923 116.201 97.4666 116.329C97.3437 116.454 97.2479 116.603 97.1852 116.766C97.1224 116.929 97.0941 117.104 97.1018 117.279C97.0963 117.457 97.1272 117.635 97.1926 117.801C97.258 117.967 97.3566 118.118 97.4824 118.244C97.6102 118.37 97.7609 118.469 97.9264 118.537C98.0962 118.601 98.2762 118.633 98.4576 118.632C98.6363 118.633 98.8136 118.601 98.9807 118.537C99.1459 118.477 99.2951 118.379 99.4168 118.252C99.5381 118.126 99.633 117.977 99.6956 117.814C99.7583 117.651 99.7874 117.477 99.7815 117.303C99.7882 117.125 99.7594 116.949 99.6968 116.783C99.6342 116.617 99.539 116.465 99.4168 116.337C99.2953 116.208 99.1463 116.108 98.9807 116.044C98.8131 115.973 98.6316 115.94 98.4496 115.949" fill="white"/>
<path d="M106.033 120.349H104.146V123.515H101.831V112.656H106.033C108.749 112.656 110.108 113.912 110.108 116.423C110.14 116.955 110.065 117.488 109.887 117.99C109.708 118.491 109.43 118.952 109.069 119.344C108.655 119.704 108.173 119.979 107.652 120.151C107.131 120.324 106.58 120.391 106.033 120.349ZM104.146 118.458H106.017C107.174 118.458 107.753 117.769 107.753 116.416C107.8 115.9 107.65 115.385 107.333 114.975C107.158 114.818 106.953 114.697 106.73 114.619C106.502 114.539 106.258 114.509 106.017 114.532H104.146V118.458Z" fill="white"/>
<path d="M254.934 107.844H123.634V112.205H254.934V107.844Z" fill="#9AC7F7"/>
<path d="M254.934 115.831H123.634V120.192H254.934V115.831Z" fill="#9AC7F7"/>
<path d="M254.934 123.809H123.634V128.17H254.934V123.809Z" fill="#9AC7F7"/>
<path d="M254.935 145.821H115.08V148.647H254.935V145.821Z" fill="#9AC7F7"/>
<path d="M217.452 153.839L115.072 153.783L115.08 150.95L217.46 151.005L217.452 153.839Z" fill="#9AC7F7"/>
<path d="M250.876 165.83L115.064 165.767L115.072 162.941L250.876 163.012V165.83Z" fill="#9AC7F7"/>
<path d="M151.326 170.943L115.064 170.935V168.101L151.326 168.125V170.943Z" fill="#9AC7F7"/>
<path d="M199.844 180.117H115.064V182.943H199.844V180.117Z" fill="#9AC7F7"/>
<path d="M186.185 197.269H115.057V200.087H186.185V197.269Z" fill="#9AC7F7"/>
<path d="M254.894 202.454H115.039V205.279H254.894V202.454Z" fill="#9AC7F7"/>
<path d="M225.077 214.429H115.039V217.247H225.077V214.429Z" fill="#9AC7F7"/>
<path d="M188.187 230.062H115.029V232.88H188.187V230.062Z" fill="#9AC7F7"/>
<path d="M94.2358 144.705V154.797H104.344V144.705H94.2358ZM102.695 153.166H95.877V146.351H102.711L102.695 153.166Z" fill="#9AC7F7"/>
<path d="M94.2358 161.612V171.703H104.352V161.604L94.2358 161.612ZM102.687 170.065H95.877V163.258H102.695L102.687 170.065Z" fill="#9AC7F7"/>
<path d="M94.2305 178.51V188.602H104.346V178.51H94.2305ZM102.682 186.971H95.8716V180.164H102.689L102.682 186.971Z" fill="#9AC7F7"/>
<path d="M94.2153 195.409V205.509H104.315V195.417L94.2153 195.409ZM102.674 203.87H95.8564V197.063H102.674V203.87Z" fill="#9AC7F7"/>
<path d="M94.2153 212.316V222.408H104.323V212.324L94.2153 212.316ZM102.658 220.777H95.8485V213.97H102.666L102.658 220.777Z" fill="#9AC7F7"/>
<path d="M104.298 239.314L104.306 229.223H94.1979L94.1899 239.306" fill="#9AC7F7"/>
<path d="M95.8306 237.676L95.8385 230.853L102.656 230.869L102.648 237.676" fill="#9AC7F7"/>
<path d="M97.0826 170.706C96.9221 170.707 96.7631 170.675 96.6148 170.614C96.4665 170.553 96.3318 170.463 96.2185 170.35C95.9943 170.123 95.8687 169.817 95.8687 169.499C95.8687 169.18 95.9943 168.875 96.2185 168.648L101.657 163.218C101.769 163.105 101.902 163.016 102.049 162.954C102.196 162.893 102.354 162.862 102.513 162.862C102.672 162.862 102.83 162.893 102.977 162.954C103.124 163.016 103.257 163.105 103.369 163.218C103.483 163.33 103.572 163.463 103.634 163.61C103.695 163.757 103.726 163.914 103.726 164.073C103.726 164.232 103.695 164.389 103.634 164.536C103.572 164.683 103.483 164.816 103.369 164.928L97.9309 170.35C97.7065 170.576 97.4014 170.704 97.0826 170.706Z" fill="#2A66C4"/>
<path d="M102.484 170.705C102.323 170.706 102.164 170.675 102.016 170.614C101.867 170.553 101.733 170.463 101.62 170.349L96.189 164.919C95.9643 164.692 95.8384 164.384 95.8384 164.065C95.8384 163.745 95.9643 163.438 96.189 163.21C96.4174 162.986 96.7248 162.86 97.0452 162.86C97.3655 162.86 97.673 162.986 97.9013 163.21L103.332 168.647C103.556 168.874 103.682 169.18 103.682 169.498C103.682 169.817 103.556 170.123 103.332 170.349C103.107 170.575 102.802 170.703 102.484 170.705Z" fill="#2A66C4"/>
<path d="M100.144 152.413C99.9789 152.412 99.8161 152.378 99.6649 152.313C99.5138 152.247 99.3772 152.153 99.2635 152.034L96.7425 149.374C96.6317 149.26 96.5448 149.125 96.487 148.978C96.4293 148.83 96.4018 148.672 96.4062 148.513C96.4107 148.354 96.4469 148.198 96.5129 148.054C96.5788 147.909 96.673 147.78 96.79 147.672C96.904 147.562 97.0391 147.475 97.1872 147.417C97.3353 147.36 97.4935 147.332 97.6524 147.337C97.8113 147.341 97.9677 147.377 98.1124 147.443C98.257 147.509 98.3869 147.603 98.4945 147.72L100.08 149.382L104.837 143.636C104.937 143.513 105.06 143.411 105.2 143.335C105.339 143.26 105.492 143.214 105.65 143.198C105.808 143.183 105.967 143.199 106.119 143.245C106.271 143.292 106.411 143.368 106.533 143.469C106.782 143.672 106.94 143.965 106.973 144.284C107.006 144.603 106.91 144.922 106.708 145.171L101.103 151.97C100.994 152.102 100.859 152.209 100.706 152.285C100.553 152.362 100.386 152.405 100.215 152.413H100.144Z" fill="#2A66C4"/>
<path d="M100.628 186.212C100.467 186.212 100.306 186.179 100.158 186.115C100.009 186.051 99.8753 185.958 99.7642 185.84L97.2273 183.189C97.1157 183.075 97.0281 182.94 96.9696 182.791C96.9111 182.643 96.8829 182.485 96.8866 182.325C96.8902 182.166 96.9257 182.009 96.9911 181.864C97.0564 181.718 97.1503 181.588 97.267 181.479C97.3789 181.367 97.5117 181.278 97.6579 181.218C97.8042 181.157 97.9609 181.126 98.1192 181.126C98.2775 181.126 98.4342 181.157 98.5804 181.218C98.7266 181.278 98.8595 181.367 98.9714 181.479L100.557 183.149L105.314 177.41C105.413 177.287 105.536 177.184 105.675 177.108C105.815 177.033 105.968 176.985 106.125 176.969C106.283 176.953 106.443 176.968 106.595 177.014C106.747 177.06 106.888 177.135 107.01 177.236C107.257 177.44 107.414 177.733 107.447 178.052C107.479 178.37 107.385 178.688 107.185 178.938L101.596 185.729C101.487 185.862 101.352 185.969 101.199 186.046C101.046 186.122 100.879 186.165 100.708 186.173L100.628 186.212Z" fill="#2A66C4"/>
<path d="M97.5923 203.364C97.4285 203.365 97.2662 203.331 97.116 203.266C96.9658 203.2 96.831 203.104 96.7203 202.984L94.1914 200.332C94.0813 200.217 93.9951 200.082 93.9378 199.933C93.8806 199.785 93.8535 199.626 93.8579 199.467C93.8623 199.308 93.8983 199.152 93.9637 199.007C94.0291 198.862 94.1226 198.731 94.2389 198.622C94.3539 198.514 94.4892 198.429 94.6371 198.372C94.785 198.316 94.9427 198.289 95.101 198.293C95.2593 198.298 95.4152 198.333 95.5598 198.398C95.7043 198.463 95.8346 198.555 95.9434 198.67L97.529 200.332L102.286 194.586C102.386 194.462 102.51 194.36 102.65 194.285C102.791 194.21 102.945 194.163 103.103 194.148C103.262 194.132 103.422 194.148 103.574 194.195C103.726 194.242 103.868 194.318 103.99 194.419C104.238 194.623 104.394 194.917 104.426 195.236C104.457 195.555 104.36 195.873 104.157 196.121L98.6071 202.92C98.4988 203.053 98.3637 203.16 98.2106 203.237C98.0576 203.313 97.8902 203.356 97.7192 203.364H97.5923Z" fill="#2A66C4"/>
<path d="M203.077 215.086H198.876V225.977H203.077V215.086Z" fill="#0066CC"/>
<path d="M185.628 235.91L176.115 230.472L178.216 226.887L187.729 232.316L185.628 235.91Z" fill="#0066CC"/>
<path d="M185.628 248.653L176.115 254.107L178.216 257.7L187.729 252.247L185.628 248.653Z" fill="#0066CC"/>
<path d="M203.077 258.62H198.876V269.488H203.077V258.62Z" fill="#0066CC"/>
<path d="M223.777 226.887L214.263 232.324L216.364 235.926L225.878 230.48L223.777 226.887Z" fill="#0066CC"/>
<path d="M263.369 260.495L231.848 250.372L200.327 240.248L210.578 271.394L220.805 302.541L231.904 281.225L248.735 297.847L258.644 288.032L241.814 271.41L263.369 260.495Z" fill="#D68D21"/>
<path d="M231.848 250.372L200.327 240.248L200.66 241.293L253.325 293.319L258.629 288.056L241.798 271.434L263.369 260.495L231.848 250.372Z" fill="#FDCA2F"/>
<path d="M195.135 50.0153C192.669 53.3017 189.579 56.071 186.042 58.1651C182.504 60.2592 178.588 61.6369 174.517 62.2198C170.446 62.8026 166.299 62.5792 162.315 61.5621C158.33 60.545 154.585 58.7541 151.294 56.2919C147.998 53.8357 145.218 50.7549 143.115 47.2256C141.012 43.6962 139.626 39.7875 139.037 35.7231C138.448 31.6587 138.668 27.5182 139.682 23.5384C140.697 19.5586 142.488 15.8176 144.952 12.5292C147.414 9.23939 150.501 6.46593 154.037 4.36729C157.573 2.26864 161.488 0.885918 165.559 0.297927C169.63 -0.290064 173.777 -0.0718266 177.763 0.940356C181.75 1.95254 185.498 3.73882 188.793 6.19708C192.094 8.65634 194.876 11.7412 196.982 15.2753C199.088 18.8094 200.475 22.7234 201.064 26.7933C201.653 30.8631 201.432 35.0089 200.415 38.9936C199.398 42.9783 197.603 46.7236 195.135 50.0153Z" fill="#7EB3FF"/>
<path d="M338.068 133.045C343.716 133.045 348.295 128.474 348.295 122.834C348.295 117.195 343.716 112.624 338.068 112.624C332.42 112.624 327.841 117.195 327.841 122.834C327.841 128.474 332.42 133.045 338.068 133.045Z" fill="#EAF4FF"/>
<path d="M164.612 37.0587C164.612 39.0971 163.801 41.0519 162.357 42.4932C160.914 43.9346 158.956 44.7443 156.914 44.7443C154.873 44.7443 152.915 43.9346 151.471 42.4932C150.027 41.0519 149.216 39.0971 149.216 37.0587C149.216 35.0204 150.027 33.0656 151.471 31.6242C152.915 30.1829 154.873 29.3732 156.914 29.3732C158.956 29.3732 160.914 30.1829 162.357 31.6242C163.801 33.0656 164.612 35.0204 164.612 37.0587Z" fill="#C5E1F9"/>
<path d="M192.068 35.8793C192.077 38.1842 191.184 40.4015 189.578 42.0578C187.972 43.714 185.782 44.6781 183.474 44.7442C181.166 44.6781 178.976 43.714 177.37 42.0578C175.765 40.4015 174.871 38.1842 174.88 35.8793C174.88 33.6037 175.786 31.4214 177.397 29.8123C179.009 28.2032 181.195 27.2992 183.474 27.2992C185.753 27.2992 187.939 28.2032 189.551 29.8123C191.163 31.4214 192.068 33.6037 192.068 35.8793Z" fill="#C5E1F9"/>
<path d="M183.448 27.2992C181.169 27.2992 178.983 28.2032 177.372 29.8123C175.76 31.4214 174.855 33.6037 174.855 35.8793C174.855 37.0474 175.095 38.203 175.56 39.2748C177.128 40.6672 179.154 41.4362 181.252 41.4357C183.532 41.4357 185.718 40.5317 187.329 38.9226C188.941 37.3136 189.846 35.1312 189.846 32.8557C189.847 31.6875 189.607 30.5317 189.141 29.4601C187.575 28.0645 185.548 27.295 183.448 27.2992Z" fill="#EAF4FE"/>
<path d="M183.925 44.7439C184.559 43.4379 185.582 41.9815 185.582 40.4381C185.583 39.1364 185.327 37.8473 184.829 36.6445C184.33 35.4417 183.599 34.3489 182.677 33.4285C181.755 32.5081 180.661 31.7782 179.456 31.2805C178.251 30.7829 176.96 30.5273 175.657 30.5283C170.17 30.5283 162.243 34.9608 162.243 40.4381C162.243 42.0211 156.281 43.4379 156.915 44.7439H183.925Z" fill="#C5E1F9"/>
<path d="M181.245 29.3254C181.245 32.6632 179.917 35.8643 177.553 38.2245C175.189 40.5846 171.983 41.9105 168.64 41.9105C165.297 41.9105 162.091 40.5846 159.727 38.2245C157.363 35.8643 156.035 32.6632 156.035 29.3254C156.035 25.9869 157.362 22.785 159.726 20.4236C162.09 18.0622 165.296 16.7345 168.64 16.7324C170.296 16.7324 171.936 17.0582 173.466 17.6912C174.995 18.3241 176.385 19.2518 177.556 20.4213C178.727 21.5908 179.655 22.9791 180.288 24.5069C180.921 26.0347 181.246 27.6721 181.245 29.3254Z" fill="#C5E1F9"/>
<path d="M165.064 37.5414C166.72 37.5414 168.36 37.2156 169.89 36.5826C171.419 35.9497 172.809 35.022 173.98 33.8525C175.151 32.683 176.079 31.2947 176.712 29.7669C177.345 28.2391 177.67 26.6017 177.669 24.9484C177.673 23.0284 177.237 21.133 176.393 19.4078C174.181 17.6763 171.45 16.7369 168.639 16.7404C165.296 16.7425 162.089 18.0701 159.726 20.4316C157.362 22.793 156.034 25.9949 156.034 29.3334V29.4125C154.158 29.628 152.427 30.5245 151.17 31.9314C149.913 33.3383 149.218 35.1574 149.216 37.0427C149.226 38.1988 149.497 39.3378 150.009 40.375C150.758 40.7083 151.568 40.8809 152.387 40.8815C153.86 40.88 155.279 40.3298 156.367 39.3388C157.455 38.3477 158.134 36.987 158.27 35.523C160.292 36.8361 162.652 37.5371 165.064 37.5414Z" fill="#EAF4FE"/>
<path d="M172.415 31.7874V29.492C172.413 28.6306 172.069 27.8053 171.458 27.1969C170.847 26.5885 170.02 26.2468 169.157 26.2468H168.673C167.81 26.2468 166.983 26.5885 166.372 27.1969C165.761 27.8053 165.417 28.6306 165.415 29.492V31.7874H164.693V39.2514H173.137V31.7874H172.415ZM166.866 29.492C166.868 29.0148 167.059 28.5578 167.398 28.2211C167.737 27.8843 168.195 27.6953 168.673 27.6953H169.157C169.635 27.6953 170.093 27.8843 170.432 28.2211C170.771 28.5578 170.962 29.0148 170.964 29.492V31.7874H166.866V29.492ZM169.743 36.9877H168.086L168.467 35.5867C168.302 35.5064 168.164 35.3813 168.067 35.2259C167.97 35.0706 167.919 34.8911 167.92 34.7082C167.92 34.5776 167.946 34.4482 167.996 34.3277C168.047 34.2071 168.12 34.0977 168.213 34.0057C168.306 33.9137 168.416 33.841 168.537 33.7917C168.658 33.7425 168.788 33.7177 168.919 33.7188C169.182 33.7188 169.434 33.823 169.62 34.0085C169.806 34.1941 169.91 34.4458 169.91 34.7082C169.911 34.8911 169.86 35.0706 169.763 35.2259C169.666 35.3813 169.528 35.5064 169.363 35.5867L169.743 36.9877Z" fill="#2A66C4"/>
<path d="M346.974 131.257C349.014 129.344 350.297 126.762 350.589 123.983C350.868 121.22 350.133 118.449 348.52 116.187C346.854 113.876 344.449 112.201 341.702 111.438C338.912 110.639 335.936 110.78 333.235 111.841C330.582 112.87 328.365 114.779 326.956 117.247C325.598 119.649 325.159 122.462 325.719 125.162C326.305 127.908 327.851 130.355 330.08 132.065C332.366 133.826 335.175 134.778 338.063 134.771C339.715 134.773 341.353 134.464 342.891 133.861C344.409 133.267 345.796 132.382 346.974 131.257ZM330.833 129.674C329.175 128.121 328.128 126.026 327.884 123.769C327.658 121.526 328.252 119.278 329.556 117.437C330.906 115.543 332.864 114.169 335.106 113.543C337.373 112.893 339.79 113.005 341.987 113.86C344.145 114.696 345.95 116.247 347.101 118.253C348.209 120.216 348.566 122.513 348.108 124.719C347.63 126.95 346.374 128.939 344.564 130.331C342.706 131.761 340.425 132.535 338.079 132.531C336.739 132.534 335.41 132.284 334.163 131.795C332.932 131.314 331.807 130.599 330.849 129.69L330.833 129.674Z" fill="#0058B0"/>
<path opacity="0.2" d="M339.926 114.761C339.228 114.082 338.404 113.544 337.5 113.178C336.595 112.807 335.625 112.616 334.646 112.616C333.667 112.618 332.697 112.811 331.792 113.186C330.906 113.558 330.099 114.095 329.414 114.769C328.738 115.452 328.2 116.258 327.829 117.144C327.457 118.045 327.265 119.01 327.266 119.985C327.27 120.961 327.467 121.927 327.844 122.827C328.211 123.715 328.75 124.522 329.43 125.201C330.112 125.878 330.92 126.416 331.808 126.784C332.714 127.156 333.683 127.347 334.662 127.346C335.641 127.341 336.61 127.147 337.516 126.776C338.404 126.407 339.211 125.869 339.895 125.193C340.573 124.512 341.111 123.706 341.48 122.819C341.853 121.915 342.044 120.947 342.043 119.969C342.041 118.997 341.847 118.034 341.472 117.136C341.1 116.251 340.562 115.445 339.887 114.761H339.926Z" fill="white"/>
<path d="M327.229 122.811C327.233 121.448 327.517 120.1 328.062 118.85C328.608 117.601 329.403 116.476 330.401 115.545C332.473 113.6 335.214 112.523 338.059 112.537C340.903 112.523 343.645 113.6 345.717 115.545C346.711 116.477 347.504 117.601 348.049 118.849C348.594 120.096 348.88 121.442 348.888 122.803H349.943C349.933 121.307 349.618 119.829 349.017 118.458C348.416 117.088 347.541 115.854 346.446 114.832C344.164 112.706 341.156 111.529 338.035 111.54C334.912 111.532 331.905 112.719 329.632 114.856C328.538 115.879 327.667 117.115 327.069 118.487C326.472 119.859 326.163 121.339 326.159 122.835L327.229 122.811Z" fill="#606060"/>
<path d="M327.689 129.111L313.657 142.512L317.296 145.963L331.328 132.562L327.689 129.111Z" fill="#0058B0"/>
<path d="M316.422 146.795C315.944 146.796 315.471 146.707 315.026 146.533C314.587 146.362 314.186 146.106 313.845 145.781C313.508 145.466 313.239 145.087 313.052 144.665C312.87 144.248 312.776 143.798 312.775 143.344L313.655 142.552L317.294 146.003L316.422 146.795Z" fill="#C5E1F9"/>
<path d="M316.098 146.47L314.513 144.942L315.305 144.23L316.891 145.758L316.098 146.47Z" fill="#EAF4FE"/>
<path d="M39.2005 101.82C38.8299 102.997 38.2046 104.078 37.3691 104.986L43.6163 113.693C46.8432 110.947 49.0586 107.202 49.9109 103.055L39.2005 101.82Z" fill="#D98F00"/>
<path d="M32.8203 90.8019C34.6082 91.1759 36.2291 92.1113 37.446 93.4715C38.6628 94.8317 39.4117 96.5451 39.5828 98.3608L50.2853 99.5401C50.2853 99.4214 50.2853 99.3027 50.2853 99.1761C50.2774 94.4028 48.4848 89.8045 45.2586 86.2819C42.0324 82.7593 37.6052 80.5661 32.8441 80.1322L32.8203 90.8019Z" fill="#0058B0"/>
<path d="M24.7264 93.4376C25.9422 92.0967 27.5516 91.1741 29.3245 90.8019V80.1322C26.5829 80.3844 23.9276 81.2217 21.5381 82.5872C19.1487 83.9528 17.0809 85.8148 15.4746 88.0473L24.7264 93.4376Z" fill="#80B4FB"/>
<path d="M34.5407 106.989C33.4489 107.479 32.2654 107.733 31.0683 107.733C29.9412 107.735 28.8247 107.515 27.7826 107.086C26.7406 106.657 25.7935 106.028 24.9954 105.233C24.1973 104.438 23.5639 103.495 23.1313 102.455C22.6988 101.416 22.4756 100.302 22.4745 99.1768C22.4876 98.2432 22.6536 97.3182 22.966 96.4382L13.6985 91.0162C12.4711 93.5621 11.8343 96.3514 11.8355 99.1768C11.846 104.26 13.8776 109.132 17.484 112.721C21.0904 116.31 25.9765 118.322 31.0683 118.316C34.4839 118.316 37.8373 117.403 40.7799 115.672L34.5407 106.989Z" fill="#003E99"/>
</g>
<defs>
<clipPath id="clip0_14195_311194">
<rect width="369" height="302.54" fill="white"/>
</clipPath>
</defs>
</svg>
