<svg width="10" height="24" viewBox="0 0 10 24" fill="none" xmlns="http://www.w3.org/2000/svg">
<path d="M3.52305 0.00214767C2.57947 -0.0317326 1.66452 0.336626 0.99689 1.01918C0.329264 1.70173 -0.0310393 2.63714 0.00209993 3.60183V19.2004C0.00209993 21.8512 2.10394 24 4.6967 24C7.28946 24 9.3913 21.8512 9.3913 19.2004V7.2015H8.21765V19.2004C8.21765 21.1885 6.64127 22.8001 4.6967 22.8001C2.75213 22.8001 1.17575 21.1885 1.17575 19.2004V3.60183C1.17575 2.27646 2.22667 1.20204 3.52305 1.20204C4.81943 1.20204 5.87035 2.27646 5.87035 3.60183V16.8006C5.87035 17.4633 5.34489 18.0005 4.6967 18.0005C4.04851 18.0005 3.52305 17.4633 3.52305 16.8006V7.2015H2.3494V16.8006C2.3494 18.126 3.40032 19.2004 4.6967 19.2004C5.99308 19.2004 7.044 18.126 7.044 16.8006V3.60183C7.07714 2.63714 6.71684 1.70173 6.04921 1.01918C5.38159 0.336626 4.46664 -0.0317326 3.52305 0.00214767Z" fill="#0066CC"/>
</svg>
