<svg width="345" height="418" viewBox="0 0 345 418" fill="none" xmlns="http://www.w3.org/2000/svg">
<g clip-path="url(#clip0_1495:67069)">
<path d="M175.5 386.86C268.56 386.86 344 311.42 344 218.36C344 125.3 268.56 49.8599 175.5 49.8599C82.44 49.8599 7 125.3 7 218.36C7 311.42 82.44 386.86 175.5 386.86Z" stroke="#457FE5" stroke-miterlimit="10" stroke-dasharray="7 7"/>
<path d="M98.4176 265.902C96.9101 265.9 95.4651 265.3 94.3993 264.234C93.3336 263.168 92.7341 261.723 92.7324 260.215V154.687C92.7339 153.179 93.3332 151.734 94.3991 150.668C95.4649 149.602 96.9101 149.002 98.4176 149H252.625C254.132 149.002 255.577 149.602 256.643 150.668C257.708 151.734 258.307 153.18 258.308 154.687V260.215C258.307 261.722 257.708 263.168 256.642 264.234C255.577 265.3 254.132 265.9 252.625 265.902H98.4176Z" fill="#EAF4FE"/>
<path d="M257.772 260.216C257.772 261.582 257.23 262.893 256.264 263.86C255.298 264.826 253.988 265.37 252.622 265.371H98.4145C97.7375 265.371 97.0672 265.238 96.4417 264.978C95.8163 264.719 95.248 264.34 94.7693 263.861C94.2907 263.382 93.911 262.814 93.652 262.189C93.393 261.563 93.2597 260.893 93.2598 260.216V154.688C93.2595 154.011 93.3926 153.34 93.6515 152.715C93.9105 152.089 94.2901 151.521 94.7689 151.042C95.2476 150.563 95.816 150.184 96.4415 149.925C97.067 149.666 97.7375 149.533 98.4145 149.533H252.622C253.298 149.533 253.968 149.667 254.593 149.926C255.218 150.185 255.786 150.565 256.265 151.043C256.743 151.522 257.122 152.09 257.381 152.716C257.639 153.341 257.772 154.011 257.772 154.688V260.216Z" fill="#01478E"/>
<path d="M249.705 156.926H101.324V251.635H249.705V156.926Z" fill="#2A66C4"/>
<path fill-rule="evenodd" clip-rule="evenodd" d="M205.088 174.851H146.518V233.421H205.088V174.851Z" fill="#2A66C4"/>
<path fill-rule="evenodd" clip-rule="evenodd" d="M160.177 198.191C159.682 198.174 159.188 198.262 158.73 198.45C158.271 198.638 157.858 198.921 157.517 199.281C156.835 200.031 156.476 201.018 156.517 202.031C156.489 203.056 156.866 204.051 157.567 204.801C157.905 205.165 158.319 205.452 158.778 205.643C159.236 205.835 159.73 205.926 160.227 205.911C160.716 205.929 161.204 205.84 161.656 205.652C162.109 205.464 162.514 205.18 162.847 204.821C163.521 204.071 163.879 203.089 163.847 202.081C163.878 201.064 163.52 200.073 162.847 199.311C162.518 198.942 162.112 198.651 161.657 198.457C161.203 198.264 160.711 198.173 160.217 198.191" fill="white"/>
<path d="M180.937 210.88H175.787V219.98H169.447V188.71H180.937C188.357 188.71 192.066 192.327 192.066 199.56C192.066 203.214 191.117 206.02 189.217 207.98C187.317 209.94 184.557 210.907 180.937 210.88ZM175.787 205.45H180.896C184.056 205.45 185.627 203.45 185.627 199.56C185.768 198.086 185.358 196.611 184.477 195.42C184.008 194.96 183.446 194.606 182.828 194.383C182.21 194.161 181.551 194.074 180.896 194.13H175.787V205.45Z" fill="white"/>
<path d="M169.502 156.927L172.368 149.533H148.758L145.893 156.927H169.502Z" fill="#02509E"/>
<path d="M109.178 251.634L103.854 265.369H127.465L132.788 251.634H109.178Z" fill="#02509E"/>
<path d="M184.667 156.927L187.536 149.533H179.945L177.08 156.927H184.667Z" fill="#02509E"/>
<path d="M140.372 251.634L135.049 265.369H142.638L147.96 251.634H140.372Z" fill="#02509E"/>
<path d="M286.034 259.532H65V265.999H286.034V259.532Z" fill="#C5E1F9"/>
<path d="M65.3203 265.999C67.9336 268.764 72.7385 269.85 76.0535 269.85H274.973C278.289 269.85 283.098 268.764 285.71 265.999H65.3203Z" fill="#9AC7F7"/>
<path d="M160.502 259.532V260.225C160.502 260.528 160.561 260.829 160.677 261.109C160.793 261.389 160.963 261.644 161.177 261.859C161.391 262.073 161.646 262.244 161.926 262.36C162.206 262.476 162.507 262.536 162.81 262.537H188.222C188.525 262.537 188.826 262.477 189.106 262.361C189.387 262.244 189.641 262.074 189.856 261.859C190.07 261.645 190.24 261.39 190.356 261.109C190.472 260.829 190.532 260.528 190.532 260.225V259.532H160.502Z" fill="#9AC7F7"/>
<path d="M64.8198 99.4502C69.2271 99.4502 72.7998 95.8775 72.7998 91.4702C72.7998 87.063 69.2271 83.4902 64.8198 83.4902C60.4126 83.4902 56.8398 87.063 56.8398 91.4702C56.8398 95.8775 60.4126 99.4502 64.8198 99.4502Z" fill="#457FE5"/>
<path d="M336 177.39C340.407 177.39 343.98 173.817 343.98 169.41C343.98 165.003 340.407 161.43 336 161.43C331.592 161.43 328.02 165.003 328.02 169.41C328.02 173.817 331.592 177.39 336 177.39Z" fill="#B0CCF5"/>
<path d="M7.98 249.8C12.3872 249.8 15.96 246.227 15.96 241.82C15.96 237.413 12.3872 233.84 7.98 233.84C3.57277 233.84 0 237.413 0 241.82C0 246.227 3.57277 249.8 7.98 249.8Z" fill="#F7B000"/>
<path d="M223.119 109.34C253.175 109.34 277.539 84.9753 277.539 54.92C277.539 24.8647 253.175 0.5 223.119 0.5C193.064 0.5 168.699 24.8647 168.699 54.92C168.699 84.9753 193.064 109.34 223.119 109.34Z" fill="#FCEDAE" stroke="white" stroke-miterlimit="10"/>
<path d="M86.1207 417.3C118.236 417.3 144.271 391.265 144.271 359.15C144.271 327.035 118.236 301 86.1207 301C54.0053 301 27.9707 327.035 27.9707 359.15C27.9707 391.265 54.0053 417.3 86.1207 417.3Z" fill="#D2E3F8"/>
<path d="M253.53 375.46C257.783 375.46 261.23 372.013 261.23 367.76C261.23 363.507 257.783 360.06 253.53 360.06C249.277 360.06 245.83 363.507 245.83 367.76C245.83 372.013 249.277 375.46 253.53 375.46Z" fill="#F3D22D"/>
<path d="M246.14 74.6899H199.25V79.5899H246.14V74.6899Z" fill="#F6CC46"/>
<path d="M200.891 74.6899V79.5899" stroke="#F2AA3C" stroke-width="0.5" stroke-miterlimit="10"/>
<path d="M203 74.6899V79.5899" stroke="#F2AA3C" stroke-width="0.5" stroke-miterlimit="10"/>
<path d="M207.59 74.6899V79.5899" stroke="#F2AA3C" stroke-width="0.5" stroke-miterlimit="10"/>
<path d="M244.5 74.6899V79.5899" stroke="#F2AA3C" stroke-width="0.5" stroke-miterlimit="10"/>
<path d="M242.381 74.6899V79.5899" stroke="#F2AA3C" stroke-width="0.5" stroke-miterlimit="10"/>
<path d="M237.789 74.6899V79.5899" stroke="#F2AA3C" stroke-width="0.5" stroke-miterlimit="10"/>
<path d="M222.689 74.6899V79.5899" stroke="#F2AA3C" stroke-width="0.5" stroke-miterlimit="10"/>
<path d="M250.74 68.5898H203.85V73.4898H250.74V68.5898Z" fill="#F6CC46"/>
<path d="M205.5 68.5898V73.4898" stroke="#F2AA3C" stroke-width="0.5" stroke-miterlimit="10"/>
<path d="M207.609 68.5898V73.4898" stroke="#F2AA3C" stroke-width="0.5" stroke-miterlimit="10"/>
<path d="M212.199 68.5898V73.4898" stroke="#F2AA3C" stroke-width="0.5" stroke-miterlimit="10"/>
<path d="M246.99 68.5898V73.4898" stroke="#F2AA3C" stroke-width="0.5" stroke-miterlimit="10"/>
<path d="M242.4 68.5898V73.4898" stroke="#F2AA3C" stroke-width="0.5" stroke-miterlimit="10"/>
<path d="M227.301 68.5898V73.4898" stroke="#F2AA3C" stroke-width="0.5" stroke-miterlimit="10"/>
<path d="M245.99 62.5898H199.1V67.4898H245.99V62.5898Z" fill="#F6CC46"/>
<path d="M200.75 62.5898V67.4898" stroke="#F2AA3C" stroke-width="0.5" stroke-miterlimit="10"/>
<path d="M202.859 62.5898V67.4898" stroke="#F2AA3C" stroke-width="0.5" stroke-miterlimit="10"/>
<path d="M207.449 62.5898V67.4898" stroke="#F2AA3C" stroke-width="0.5" stroke-miterlimit="10"/>
<path d="M244.35 62.5898V67.4898" stroke="#F2AA3C" stroke-width="0.5" stroke-miterlimit="10"/>
<path d="M242.24 62.5898V67.4898" stroke="#F2AA3C" stroke-width="0.5" stroke-miterlimit="10"/>
<path d="M237.65 62.5898V67.4898" stroke="#F2AA3C" stroke-width="0.5" stroke-miterlimit="10"/>
<path d="M222.551 62.5898V67.4898" stroke="#F2AA3C" stroke-width="0.5" stroke-miterlimit="10"/>
<path d="M244.87 41.3601C244.869 45.5576 243.623 49.6604 241.29 53.1501C238.96 56.6409 235.648 59.3623 231.771 60.9701C227.894 62.5793 223.627 63.0005 219.511 62.1801C215.393 61.361 211.61 59.3391 208.641 56.3701C205.672 53.4011 203.65 49.6183 202.83 45.5001C202.01 41.3838 202.431 37.1166 204.04 33.2401C205.648 29.3633 208.37 26.0503 211.861 23.7201C215.348 21.3831 219.452 20.1369 223.651 20.1401C226.437 20.1409 229.196 20.6905 231.77 21.7578C234.344 22.825 236.682 24.3889 238.651 26.3601C240.622 28.3293 242.186 30.6675 243.253 33.2413C244.32 35.815 244.87 38.5739 244.87 41.3601Z" fill="#F2AA3C"/>
<path d="M240.36 41.3599C240.358 44.6626 239.381 47.891 237.55 50.64C235.711 53.3872 233.102 55.5302 230.05 56.7999C226.994 58.0596 223.633 58.39 220.39 57.7499C217.148 57.1046 214.169 55.5145 211.829 53.1799C209.495 50.84 207.905 47.8617 207.26 44.6199C206.61 41.377 206.941 38.0141 208.21 34.9599C209.477 31.9058 211.62 29.2959 214.369 27.4599C217.118 25.6277 220.347 24.65 223.65 24.6499C228.081 24.652 232.332 26.4104 235.47 29.5399C238.599 32.6779 240.357 36.9282 240.36 41.3599Z" fill="#F6CC46"/>
<path d="M215.31 38.8401H217.149C217.267 37.8404 217.541 36.8654 217.96 35.9502C218.345 35.0887 218.875 34.3003 219.529 33.6201C220.18 32.9568 220.959 32.4328 221.819 32.0801C222.773 31.7009 223.793 31.5173 224.819 31.5401C226.591 31.4515 228.332 32.0294 229.699 33.1601C230.988 34.3792 231.759 36.0482 231.85 37.8202H228.479C228.406 36.8353 227.989 35.9076 227.3 35.2002C226.615 34.5799 225.713 34.2532 224.789 34.2901C224.251 34.2618 223.715 34.3576 223.22 34.5702C222.723 34.7796 222.284 35.1054 221.939 35.5201C221.212 36.4849 220.772 37.6359 220.67 38.8401H226.18L225.859 40.5201H220.59V42.3601H225.479L225.18 44.0501H220.64C220.727 45.2291 221.174 46.3529 221.92 47.2701C222.281 47.6584 222.725 47.9593 223.22 48.1501C223.714 48.3501 224.247 48.4388 224.779 48.4101C227.009 48.4101 228.299 47.1101 228.659 44.5301H231.979C231.853 46.39 231.057 48.1411 229.739 49.4601C228.366 50.6759 226.571 51.3043 224.739 51.2101C223.714 51.2342 222.694 51.0541 221.739 50.6801C220.891 50.3392 220.12 49.8327 219.47 49.1902C218.81 48.5416 218.277 47.775 217.899 46.9301C217.488 46.0171 217.221 45.0454 217.109 44.0501H215.27V42.3601H217.029V40.5401H215.27L215.31 38.8401Z" fill="#F2AA3C"/>
<path d="M191.721 79.5898H253.83" stroke="#F7B000" stroke-miterlimit="10"/>
<path d="M120.442 383.217L62.0566 324.832C60.9632 323.739 59.1897 323.738 58.0963 324.831L51.8172 331.111C50.7237 332.204 50.7242 333.977 51.8177 335.071L110.203 393.456C111.296 394.55 113.07 394.55 114.163 393.457L120.443 387.178C121.536 386.084 121.535 384.311 120.442 383.217Z" fill="#EEF4FD"/>
<path d="M63.0498 325.83L60.5898 328.29" stroke="#B0CCF5" stroke-miterlimit="10"/>
<path d="M65.3995 328.18L62.9395 330.64" stroke="#B0CCF5" stroke-miterlimit="10"/>
<path d="M67.7491 330.53L65.2891 332.99" stroke="#B0CCF5" stroke-miterlimit="10"/>
<path d="M70.1006 332.88L67.6406 335.34" stroke="#B0CCF5" stroke-miterlimit="10"/>
<path d="M72.4495 335.23L67.7695 339.91" stroke="#457FE5" stroke-miterlimit="10"/>
<path d="M74.7999 337.58L72.3398 340.04" stroke="#B0CCF5" stroke-miterlimit="10"/>
<path d="M77.1495 339.93L74.6895 342.38" stroke="#B0CCF5" stroke-miterlimit="10"/>
<path d="M79.4991 342.28L77.0391 344.73" stroke="#B0CCF5" stroke-miterlimit="10"/>
<path d="M81.8506 344.63L79.3906 347.08" stroke="#B0CCF5" stroke-miterlimit="10"/>
<path d="M84.1995 346.98L79.5195 351.65" stroke="#457FE5" stroke-miterlimit="10"/>
<path d="M86.5499 349.33L84.0898 351.78" stroke="#B0CCF5" stroke-miterlimit="10"/>
<path d="M88.8995 351.68L86.4395 354.13" stroke="#B0CCF5" stroke-miterlimit="10"/>
<path d="M91.2391 354.03L88.7891 356.48" stroke="#B0CCF5" stroke-miterlimit="10"/>
<path d="M93.5906 356.38L91.1406 358.83" stroke="#B0CCF5" stroke-miterlimit="10"/>
<path d="M95.9395 358.73L91.2695 363.4" stroke="#457FE5" stroke-miterlimit="10"/>
<path d="M98.2898 361.07L95.8398 363.53" stroke="#B0CCF5" stroke-miterlimit="10"/>
<path d="M100.639 363.42L98.1895 365.88" stroke="#B0CCF5" stroke-miterlimit="10"/>
<path d="M102.989 365.77L100.539 368.23" stroke="#B0CCF5" stroke-miterlimit="10"/>
<path d="M105.341 368.12L102.891 370.58" stroke="#B0CCF5" stroke-miterlimit="10"/>
<path d="M107.69 370.47L103.02 375.15" stroke="#457FE5" stroke-miterlimit="10"/>
<path d="M110.04 372.82L107.59 375.28" stroke="#B0CCF5" stroke-miterlimit="10"/>
<path d="M112.39 375.17L109.93 377.63" stroke="#B0CCF5" stroke-miterlimit="10"/>
<path d="M114.739 377.52L112.279 379.98" stroke="#B0CCF5" stroke-miterlimit="10"/>
<path d="M117.091 379.87L114.631 382.33" stroke="#B0CCF5" stroke-miterlimit="10"/>
<path d="M119.44 382.22L114.76 386.9" stroke="#457FE5" stroke-miterlimit="10"/>
<path d="M113.936 340.975L104.305 331.344L58.3286 377.32L67.9595 386.951L113.936 340.975Z" fill="#EEF4FD"/>
<path d="M104.296 331.342L58.3203 377.317L59.982 378.979L105.958 333.003L104.296 331.342Z" fill="#457FE5"/>
<path d="M112.267 339.312L66.291 385.288L67.9527 386.949L113.928 340.974L112.267 339.312Z" fill="#457FE5"/>
<path d="M109.111 336.16L106.871 333.91L60.8906 379.89L63.1306 382.14L65.3806 384.38L111.361 338.4L109.111 336.16Z" fill="#457FE5"/>
<path d="M114.908 325.543L119.737 330.373C120.373 331.009 120.73 331.871 120.73 332.77C120.73 333.669 120.373 334.532 119.738 335.168L115.403 339.502L105.772 329.871L110.107 325.537C110.422 325.221 110.797 324.971 111.209 324.801C111.621 324.63 112.063 324.543 112.509 324.544C112.955 324.544 113.396 324.633 113.808 324.805C114.22 324.976 114.593 325.227 114.908 325.543Z" fill="#EEF4FD"/>
<path d="M56.8506 378.79L66.4806 388.42L55.8906 389.38L56.8506 378.79Z" fill="#EEF4FD"/>
<path d="M56.1906 386.01L59.2606 389.08L55.8906 389.38L56.1906 386.01Z" fill="#234580"/>
<path d="M258.941 247.75L225.481 236.88L192.021 226L202.901 259.47L213.762 292.93L225.531 270.04L243.392 287.91L253.941 277.37L236.081 259.51L258.941 247.75Z" fill="#4B82E9"/>
<path d="M225.46 236.88L192 226L192.36 227.12L248.261 283.02L253.891 277.37L236.03 259.51L258.94 247.75L225.46 236.88Z" fill="#88B2F8"/>
</g>
<defs>
<clipPath id="clip0_1495:67069">
<rect width="344.12" height="417.3" fill="white"/>
</clipPath>
</defs>
</svg>
