<svg width="707" height="339" viewBox="0 0 707 339" fill="none" xmlns="http://www.w3.org/2000/svg">
<path d="M525.027 127.113H226.784C215.834 127.113 206.957 136.688 206.957 148.499V316.51C206.957 328.321 215.834 337.896 226.784 337.896H525.027C535.977 337.896 544.853 328.321 544.853 316.51V148.499C544.853 136.688 535.977 127.113 525.027 127.113Z" fill="white" stroke="#EEF4FD" stroke-width="0.784106" stroke-miterlimit="10"/>
<path d="M38.0078 337.897H190.061" stroke="#F6F8F9" stroke-width="0.784106" stroke-miterlimit="10"/>
<path d="M557.725 337.897L628.522 337.897" stroke="#F6F8F9" stroke-width="0.784106" stroke-miterlimit="10"/>
<path d="M7.43555 337.897H31.571" stroke="#F6F8F9" stroke-width="0.784106" stroke-miterlimit="10"/>
<path d="M57.3162 299.28C65.314 299.28 71.7975 292.797 71.7975 284.799C71.7975 276.801 65.314 270.318 57.3162 270.318C49.3184 270.318 42.835 276.801 42.835 284.799C42.835 292.797 49.3184 299.28 57.3162 299.28Z" stroke="#F6F8F9" stroke-width="0.784106" stroke-miterlimit="10"/>
<path d="M91.9099 313.761C97.6861 313.761 102.369 309.439 102.369 304.107C102.369 298.775 97.6861 294.453 91.9099 294.453C86.1337 294.453 81.4512 298.775 81.4512 304.107C81.4512 309.439 86.1337 313.761 91.9099 313.761Z" stroke="#F6F8F9" stroke-width="0.784106" stroke-miterlimit="10"/>
<path d="M77.4293 288.017C88.5373 288.017 97.5422 279.012 97.5422 267.904C97.5422 256.796 88.5373 247.791 77.4293 247.791C66.3213 247.791 57.3164 256.796 57.3164 267.904C57.3164 279.012 66.3213 288.017 77.4293 288.017Z" stroke="#F6F8F9" stroke-width="0.784106" stroke-miterlimit="10"/>
<path d="M78.2344 337.897V268.708" stroke="#F6F8F9" stroke-width="0.784106" stroke-miterlimit="10"/>
<path d="M57.3164 284.799L78.2338 312.152" stroke="#F6F8F9" stroke-width="0.784106" stroke-miterlimit="10"/>
<path d="M78.2344 323.416L92.7157 304.107" stroke="#F6F8F9" stroke-width="0.784106" stroke-miterlimit="10"/>
<path d="M141.789 336.288C146.677 336.288 150.639 332.326 150.639 327.438C150.639 322.551 146.677 318.589 141.789 318.589C136.902 318.589 132.939 322.551 132.939 327.438C132.939 332.326 136.902 336.288 141.789 336.288Z" stroke="#F6F8F9" stroke-width="0.784106" stroke-miterlimit="10"/>
<path d="M111.219 336.288C116.106 336.288 120.068 332.326 120.068 327.438C120.068 322.551 116.106 318.589 111.219 318.589C106.331 318.589 102.369 322.551 102.369 327.438C102.369 332.326 106.331 336.288 111.219 336.288Z" stroke="#F6F8F9" stroke-width="0.784106" stroke-miterlimit="10"/>
<path d="M126.498 326.634L134.546 312.152L142.595 326.634H126.498ZM126.498 326.634L118.463 312.152L110.414 326.634" stroke="#F6F8F9" stroke-width="0.784106" stroke-miterlimit="10"/>
<path d="M134.551 312.152L137.769 307.325" stroke="#F6F8F9" stroke-width="0.784106" stroke-miterlimit="10"/>
<path d="M118.405 311.827L120.827 307H116.521C116.425 306.999 116.331 307.027 116.249 307.08C116.167 307.133 116.101 307.209 116.057 307.301C116.013 307.393 115.994 307.496 116.002 307.598C116.009 307.701 116.043 307.799 116.099 307.882L117.106 309.42" stroke="#F6F8F9" stroke-width="0.784106" stroke-miterlimit="10"/>
<path d="M134.549 312.152H118.459" stroke="#F6F8F9" stroke-width="0.784106" stroke-miterlimit="10"/>
<path d="M140.985 307.325H132.939" stroke="#F6F8F9" stroke-width="0.784106" stroke-miterlimit="10"/>
<path d="M141.79 329.852C143.123 329.852 144.204 328.771 144.204 327.438C144.204 326.105 143.123 325.025 141.79 325.025C140.458 325.025 139.377 326.105 139.377 327.438C139.377 328.771 140.458 329.852 141.79 329.852Z" fill="#0066CC" stroke="#F6F8F9" stroke-width="0.784106" stroke-miterlimit="10"/>
<path d="M126.504 329.852C127.392 329.852 128.113 328.771 128.113 327.438C128.113 326.105 127.392 325.025 126.504 325.025C125.615 325.025 124.895 326.105 124.895 327.438C124.895 328.771 125.615 329.852 126.504 329.852Z" fill="white" stroke="#F6F8F9" stroke-width="0.784106" stroke-miterlimit="10"/>
<path d="M111.218 329.852C112.551 329.852 113.632 328.771 113.632 327.438C113.632 326.105 112.551 325.025 111.218 325.025C109.885 325.025 108.805 326.105 108.805 327.438C108.805 328.771 109.885 329.852 111.218 329.852Z" fill="#0066CC" stroke="#F6F8F9" stroke-width="0.784106" stroke-miterlimit="10"/>
<path d="M600.916 307.325L599.559 307.859L601.168 308.934" stroke="white" stroke-width="0.784106" stroke-miterlimit="10"/>
<path d="M597.951 306.989L599.224 306.777L598.518 305.716" stroke="white" stroke-width="0.784106" stroke-miterlimit="10"/>
<path d="M601.441 279.972L602.777 283.551L601.168 284.799" stroke="white" stroke-width="0.784106" stroke-miterlimit="10"/>
<path d="M601.979 328.243H614.042L601.979 251.009L589.906 328.243H601.979Z" stroke="#F6F8F9" stroke-width="0.784106" stroke-miterlimit="10"/>
<path d="M589.906 307.325L591.515 306.789L590.623 304.107" stroke="#F6F8F9" stroke-width="0.784106" stroke-miterlimit="10"/>
<path d="M610.812 286.408L609.213 289.626H612.431" stroke="#F6F8F9" stroke-width="0.784106" stroke-miterlimit="10"/>
<path d="M599.361 315.37L601.169 320.197H597.951" stroke="#F6F8F9" stroke-width="0.784106" stroke-miterlimit="10"/>
<path d="M602.777 328.243V337.897" stroke="#F6F8F9" stroke-width="0.784106" stroke-miterlimit="10"/>
<path d="M597.047 263.881L597.951 267.099H596.342" stroke="#F6F8F9" stroke-width="0.784106" stroke-miterlimit="10"/>
<path d="M17.09 222.047C17.09 222.9 16.73 223.719 16.0896 224.322C15.4492 224.926 14.5807 225.265 13.675 225.265H7.63276C7.18433 225.265 6.73993 225.181 6.32564 225.02C5.91134 224.858 5.53527 224.621 5.21819 224.322C4.9011 224.024 4.64943 223.668 4.47783 223.278C4.30622 222.887 4.21777 222.469 4.21777 222.047" stroke="#F6F8F9" stroke-width="0.784106" stroke-miterlimit="10"/>
<path d="M7.4528 215.611H13.8556C15.567 215.611 17.2083 216.289 18.4184 217.496C19.6285 218.703 20.3084 220.34 20.3084 222.047V222.047H1C1 220.34 1.67985 218.703 2.88998 217.496C4.10011 216.289 5.74141 215.611 7.4528 215.611V215.611Z" stroke="#F6F8F9" stroke-width="0.784106" stroke-miterlimit="10"/>
<path d="M20.3086 218.829H31.5718V296.42H28.0859L26.4499 305.578V333.09H23.6687V337.897" stroke="#F6F8F9" stroke-width="0.784106" stroke-miterlimit="10"/>
<path d="M47.6621 222.047C47.6621 222.469 47.7391 222.887 47.8884 223.278C48.0378 223.668 48.2568 224.024 48.5327 224.322C48.8087 224.621 49.136 224.858 49.4965 225.02C49.8571 225.181 50.2438 225.265 50.6341 225.265H55.9414C56.3327 225.266 56.7206 225.184 57.0826 225.023C57.4445 224.862 57.7733 224.626 58.0505 224.327C58.3278 224.028 58.5477 223.673 58.6978 223.281C58.8479 222.89 58.9253 222.47 58.9253 222.047V222.047" stroke="#F6F8F9" stroke-width="0.784106" stroke-miterlimit="10"/>
<path d="M63.752 222.047H42.8346C42.8346 220.34 43.5709 218.703 44.8819 217.496C46.1929 216.289 47.9706 215.611 49.8247 215.611H56.7612C58.6152 215.611 60.393 216.289 61.7039 217.496C63.0149 218.703 63.752 220.34 63.752 222.047Z" stroke="#F6F8F9" stroke-width="0.784106" stroke-miterlimit="10"/>
<path d="M42.8345 218.829H31.5713V296.42H35.0533L36.6875 305.578V333.09H39.4782V337.897" stroke="#F6F8F9" stroke-width="0.784106" stroke-miterlimit="10"/>
<path d="M26.7441 333.07H36.3983" stroke="#F6F8F9" stroke-width="0.784106" stroke-miterlimit="10"/>
<path d="M423.083 256.624C423.083 258.427 422.727 260.212 422.036 261.877C421.344 263.542 420.331 265.055 419.053 266.33C417.776 267.604 416.26 268.614 414.591 269.303C412.922 269.992 411.134 270.346 409.328 270.344" stroke="#0066CC" stroke-width="0.784106" stroke-miterlimit="10"/>
<path d="M436.831 270.344C433.185 270.344 429.689 268.899 427.111 266.326C424.534 263.753 423.086 260.263 423.086 256.624V337.676" stroke="#0066CC" stroke-width="0.784106" stroke-miterlimit="10"/>
<path d="M423.083 270.852C423.083 274.493 421.634 277.986 419.054 280.561C416.475 283.136 412.976 284.582 409.328 284.582" stroke="#0066CC" stroke-width="0.784106" stroke-miterlimit="10"/>
<path d="M423.086 270.852C423.085 272.654 423.439 274.44 424.129 276.106C424.819 277.771 425.831 279.285 427.108 280.56C428.384 281.835 429.9 282.847 431.568 283.537C433.237 284.227 435.025 284.582 436.831 284.582" stroke="#0066CC" stroke-width="0.784106" stroke-miterlimit="10"/>
<path d="M423.083 285.088C423.083 286.891 422.727 288.676 422.036 290.341C421.344 292.007 420.331 293.52 419.053 294.794C417.776 296.068 416.26 297.079 414.591 297.768C412.922 298.456 411.134 298.81 409.328 298.809" stroke="#0066CC" stroke-width="0.784106" stroke-miterlimit="10"/>
<path d="M423.086 285.088C423.086 288.727 424.534 292.217 427.111 294.79C429.689 297.363 433.185 298.809 436.831 298.809" stroke="#0066CC" stroke-width="0.784106" stroke-miterlimit="10"/>
<path d="M358.635 321.538V338" stroke="#D2E3F8" stroke-width="0.784106" stroke-miterlimit="10"/>
<path d="M379.459 321.538V338" stroke="#D2E3F8" stroke-width="0.784106" stroke-miterlimit="10"/>
<path d="M382.918 323.875H355.184V327.246H382.918V323.875Z" fill="#0066CC"/>
<path d="M382.918 328.841H355.184V332.212H382.918V328.841Z" fill="#0066CC"/>
<path d="M206.5 145.884C206.5 143.365 207.014 140.872 208.011 138.545C209.009 136.218 210.472 134.103 212.315 132.323C214.159 130.542 216.348 129.129 218.757 128.165C221.165 127.201 223.747 126.705 226.354 126.705H524.194C526.801 126.705 530.335 127.201 532.743 128.165C535.152 129.129 536.656 130.219 538.5 132C540.344 133.781 542.49 136.218 543.488 138.545C544.486 140.872 545 143.365 545 145.884H206.5Z" fill="#9AC7F7"/>
<path d="M504.141 140.404C506.411 140.404 508.251 138.564 508.251 136.294C508.251 134.025 506.411 132.185 504.141 132.185C501.871 132.185 500.031 134.025 500.031 136.294C500.031 138.564 501.871 140.404 504.141 140.404Z" fill="white"/>
<path d="M518.11 140.404C520.379 140.404 522.219 138.564 522.219 136.294C522.219 134.025 520.379 132.185 518.11 132.185C515.84 132.185 514 134.025 514 136.294C514 138.564 515.84 140.404 518.11 140.404Z" fill="white"/>
<path d="M489.071 140.404C491.34 140.404 493.18 138.564 493.18 136.294C493.18 134.025 491.34 132.185 489.071 132.185C486.801 132.185 484.961 134.025 484.961 136.294C484.961 138.564 486.801 140.404 489.071 140.404Z" fill="white"/>
<path d="M315.18 336.965V250.642L227.195 267.46V336.965" fill="#B0CCF5"/>
<path d="M242.607 306.112H252.293V298.912H242.607V306.112Z" fill="#F3D22D" stroke="#B0CCF5" stroke-width="0.784106" stroke-miterlimit="10"/>
<path d="M245.865 302.516H258.715V295.316H245.865V302.516Z" fill="#2A71D5" stroke="#B0CCF5" stroke-width="0.784106" stroke-miterlimit="10"/>
<path d="M258.715 336.975V292.544" stroke="#D2E3F8" stroke-width="0.784106" stroke-miterlimit="10"/>
<path d="M251.615 287.865H261.301V280.664H251.615V287.865Z" fill="#F3D22D" stroke="#B0CCF5" stroke-width="0.784106" stroke-miterlimit="10"/>
<path d="M254.877 284.267H267.727V277.067H254.877V284.267Z" fill="#2A71D5" stroke="#B0CCF5" stroke-width="0.784106" stroke-miterlimit="10"/>
<path d="M272.103 226.94H281.789V219.739H272.103V226.94Z" fill="#F3D22D" stroke="white" stroke-width="0.784106" stroke-miterlimit="10"/>
<path d="M275.361 223.344H288.211V216.144H275.361V223.344Z" fill="#2A71D5" stroke="white" stroke-width="0.784106" stroke-miterlimit="10"/>
<path d="M267.719 336.974V274.294" stroke="#D2E3F8" stroke-width="0.784106" stroke-miterlimit="10"/>
<path d="M234.562 323.722H244.248V316.522H234.562V323.722Z" fill="#F3D22D" stroke="#B0CCF5" stroke-width="0.784106" stroke-miterlimit="10"/>
<path d="M237.818 320.117H250.668V312.917H237.818V320.117Z" fill="#2A71D5" stroke="#B0CCF5" stroke-width="0.784106" stroke-miterlimit="10"/>
<path d="M250.668 336.977V310.146" stroke="#D2E3F8" stroke-width="0.784106" stroke-miterlimit="10"/>
<path d="M332.396 336.967V219.71L288.211 229.571V336.967" fill="#3563B5"/>
<path d="M288.211 229.578V212.029" stroke="#D2E3F8" stroke-width="0.784106" stroke-miterlimit="10"/>
<path d="M323.763 235.247H296.711V242.691H323.763V235.247Z" fill="#B0CCF5"/>
<path d="M323.763 246.559H296.711V254.003H323.763V246.559Z" fill="#B0CCF5"/>
<path d="M323.763 257.862H296.711V265.306H323.763V257.862Z" fill="#B0CCF5"/>
<path d="M323.763 269.177H296.711V276.621H323.763V269.177Z" fill="#B0CCF5"/>
<path d="M323.763 280.551H296.711V287.995H323.763V280.551Z" fill="#B0CCF5"/>
<path d="M323.763 291.925H296.711V299.369H323.763V291.925Z" fill="#B0CCF5"/>
<path d="M323.763 303.298H296.711V310.742H323.763V303.298Z" fill="#B0CCF5"/>
<path d="M323.767 336.966V326.638H298.434V336.966" fill="#B0CCF5"/>
<path d="M346.005 336.967V226.941L332.393 219.71V336.967H346.005Z" fill="#234580"/>
<path d="M322.888 235.247V241.878H296.711V242.691H323.763V235.247H322.888Z" fill="#8BB6EA"/>
<path d="M322.888 246.559V253.18H296.711V254.003H323.763V246.559H322.888Z" fill="#8BB6EA"/>
<path d="M322.888 257.862V264.483H296.711V265.306H323.763V257.862H322.888Z" fill="#8BB6EA"/>
<path d="M322.888 269.177V275.798H296.711V276.611H323.763V269.177H322.888Z" fill="#8BB6EA"/>
<path d="M322.888 280.551V287.172H296.711V287.995H323.763V280.551H322.888Z" fill="#8BB6EA"/>
<path d="M322.888 291.925V298.546H296.711V299.369H323.763V291.925H322.888Z" fill="#8BB6EA"/>
<path d="M322.888 303.298V309.92H296.711V310.742H323.763V303.298H322.888Z" fill="#8BB6EA"/>
<path d="M322.943 336.966V327.46H298.434V326.638H323.767V336.966H322.943Z" fill="#8BB6EA"/>
<g opacity="0.75">
<path opacity="0.75" d="M307.81 280.55H304.473L302.621 287.994H305.948L307.81 280.55Z" fill="#D2E3F8"/>
<path opacity="0.75" d="M304.974 291.924H301.637L299.785 299.368H303.112L304.974 291.924Z" fill="#D2E3F8"/>
<path opacity="0.75" d="M319.127 235.246H315.79L313.928 242.69H317.265L319.127 235.246Z" fill="#D2E3F8"/>
<path opacity="0.75" d="M316.298 246.558H312.961L311.109 254.002H314.446L316.298 246.558Z" fill="#D2E3F8"/>
<path opacity="0.75" d="M298.797 303.299L296.936 310.743H300.273L302.134 303.299H298.797Z" fill="#D2E3F8"/>
<path opacity="0.75" d="M313.476 257.863H310.139L308.277 265.307H311.614L313.476 257.863Z" fill="#D2E3F8"/>
<path opacity="0.75" d="M310.652 269.177H307.325L305.463 276.61H308.8L310.652 269.177Z" fill="#D2E3F8"/>
<path opacity="0.75" d="M309.623 276.61H310.345L312.207 269.177H311.475L309.623 276.61Z" fill="#D2E3F8"/>
<path opacity="0.75" d="M319.95 235.246L318.088 242.69H318.82L320.682 235.246H319.95Z" fill="#D2E3F8"/>
<path opacity="0.75" d="M301.096 310.743H301.828L303.69 303.299H302.958L301.096 310.743Z" fill="#D2E3F8"/>
<path opacity="0.75" d="M312.441 265.307H313.174L315.036 257.863H314.303L312.441 265.307Z" fill="#D2E3F8"/>
<path opacity="0.75" d="M315.27 254.002H315.992L317.854 246.558H317.121L315.27 254.002Z" fill="#D2E3F8"/>
<path opacity="0.75" d="M303.936 299.368H304.668L306.53 291.924H305.797L303.936 299.368Z" fill="#D2E3F8"/>
<path opacity="0.75" d="M306.771 287.994H307.504L309.366 280.55H308.633L306.771 287.994Z" fill="#D2E3F8"/>
</g>
<path d="M372.462 305.401C378.923 305.401 384.162 300.173 384.162 293.722C384.162 287.272 378.923 282.043 372.462 282.043C366 282.043 360.762 287.272 360.762 293.722C360.762 300.173 366 305.401 372.462 305.401Z" fill="#B0CCF5"/>
<path d="M400.893 317.822C405.495 317.822 409.225 314.098 409.225 309.505C409.225 304.911 405.495 301.187 400.893 301.187C396.291 301.187 392.561 304.911 392.561 309.505C392.561 314.098 396.291 317.822 400.893 317.822Z" fill="#B0CCF5"/>
<path d="M388.902 296.312C397.982 296.312 405.343 288.964 405.343 279.9C405.343 270.836 397.982 263.489 388.902 263.489C379.822 263.489 372.461 270.836 372.461 279.9C372.461 288.964 379.822 296.312 388.902 296.312Z" fill="#B0CCF5"/>
<path d="M388.9 336.844V279.902V296.313" stroke="#B0CCF5" stroke-width="0.784106" stroke-miterlimit="10"/>
<path d="M372.459 293.723L388.9 316.156" stroke="#B0CCF5" stroke-width="0.784106" stroke-miterlimit="10"/>
<path d="M388.9 324.798L400.896 309.503" stroke="#B0CCF5" stroke-width="0.784106" stroke-miterlimit="10"/>
<path d="M388.9 279.902V295.846" stroke="#F0F6FC" stroke-width="0.784106" stroke-miterlimit="10"/>
<path d="M372.459 293.723L379.072 302.741" stroke="#F0F6FC" stroke-width="0.784106" stroke-miterlimit="10"/>
<path d="M400.896 309.503L396.043 315.688" stroke="#F0F6FC" stroke-width="0.784106" stroke-miterlimit="10"/>
<path d="M527.133 242.64L501.76 267.968H442.934C442.873 267.968 439.77 267.897 439.811 267.846L465.185 242.518H527.062C527.078 242.511 527.096 242.51 527.113 242.516C527.129 242.521 527.143 242.533 527.152 242.548C527.161 242.563 527.164 242.58 527.16 242.597C527.157 242.614 527.147 242.629 527.133 242.64Z" fill="#3D71CE"/>
<path d="M501.758 337.442V267.968L527.254 242.518L527.152 267.968V337.442H501.758Z" fill="#234580"/>
<path d="M521.316 242.517L495.82 267.967H494.375L519.871 242.517H521.316Z" fill="#4F80C9"/>
<path d="M513.411 242.518L487.915 267.968H486.471L511.977 242.518H513.411Z" fill="#4F80C9"/>
<path d="M505.503 242.518L480.007 267.968H478.562L504.069 242.518H505.503Z" fill="#4F80C9"/>
<path d="M497.599 242.517L472.103 267.967H470.658L496.164 242.517H497.599Z" fill="#4F80C9"/>
<path d="M489.706 242.517L464.2 267.967H462.766L488.262 242.517H489.706Z" fill="#4F80C9"/>
<path d="M481.796 242.517L456.29 267.967H454.855L480.351 242.517H481.796Z" fill="#4F80C9"/>
<path d="M472.449 242.517H473.894L448.388 267.967H446.953L472.449 242.517Z" fill="#4F80C9"/>
<path d="M463.251 267.966H491.809V245.584H463.251V267.966Z" fill="#234580"/>
<path d="M459.716 267.967V245.594H488.264V267.967H501.755V337.442H439.826V267.967H459.716Z" fill="#3563B5"/>
<path d="M465.034 286.726H474.984V277.088H465.034V286.726Z" fill="#B0CCF5"/>
<path d="M445.794 286.726H455.744V277.088H445.794V286.726Z" fill="#B0CCF5"/>
<path d="M465.034 299.756H474.984V290.118H465.034V299.756Z" fill="#B0CCF5"/>
<path d="M445.794 299.756H455.744V290.118H445.794V299.756Z" fill="#B0CCF5"/>
<path d="M465.034 312.561H474.984V302.923H465.034V312.561Z" fill="#B0CCF5"/>
<path d="M485.066 286.726H495.016V277.088H485.066V286.726Z" fill="#B0CCF5"/>
<path d="M485.066 299.756H495.016V290.118H485.066V299.756Z" fill="#B0CCF5"/>
<path d="M485.066 312.561H495.016V302.923H485.066V312.561Z" fill="#B0CCF5"/>
<path d="M445.794 312.561H455.744V302.923H445.794V312.561Z" fill="#B0CCF5"/>
<path d="M473.172 265.194H470.67V259.162H464.738V254.399H470.67V248.366H473.172H475.675V254.399H481.607V259.162H475.675V265.194H473.172Z" fill="#F3D22D"/>
<path d="M445.805 286.726V285.853H454.849V277.088H455.745V286.726H445.805Z" fill="#8BB6EA"/>
<path d="M465.045 286.726V285.853H474.09V277.088H474.985V286.726H465.045Z" fill="#8BB6EA"/>
<path d="M485.076 286.726V285.853H494.121V277.088H495.016V286.726H485.076Z" fill="#8BB6EA"/>
<path d="M445.805 299.753V298.88H454.849V290.116H455.745V299.753H445.805Z" fill="#8BB6EA"/>
<path d="M465.045 299.753V298.88H474.09V290.116H474.985V299.753H465.045Z" fill="#8BB6EA"/>
<path d="M485.076 299.753V298.88H494.121V290.116H495.016V299.753H485.076Z" fill="#8BB6EA"/>
<path d="M445.805 312.55V311.676H454.849V302.912H455.745V312.55H445.805Z" fill="#8BB6EA"/>
<path d="M465.045 312.55V311.676H474.09V302.912H474.985V312.55H465.045Z" fill="#8BB6EA"/>
<path d="M485.076 312.55V311.676H494.121V302.912H495.016V312.55H485.076Z" fill="#8BB6EA"/>
<path d="M490.589 322.878H479.123V324.036H490.589V322.878Z" fill="#234580"/>
<path d="M446.948 322.878H439.826V324.036H446.948V322.878Z" fill="#234580"/>
<path d="M479.123 322.878H446.953V337.502H479.123V322.878Z" fill="#B0CCF5"/>
<path d="M478.085 336.974V323.995H446.953V322.878H479.123V336.974H478.085Z" fill="#8BB6EA"/>
<path d="M434.604 322.878H485.066V320.299H434.604V322.878Z" fill="#D2E3F8"/>
<path d="M485.061 322.878H490.596V320.299H485.061V322.878Z" fill="#B0CCF5"/>
<path d="M661.708 235.719H654.564V241.698H661.708V235.719Z" fill="#7AD3D9" stroke="#7AD3D9" stroke-width="0.784106" stroke-miterlimit="10"/>
<path d="M659.301 232.73H649.834V238.71H659.301V232.73Z" fill="#FFCC00" stroke="#FFCC00" stroke-width="0.784106" stroke-miterlimit="10"/>
<path d="M649.834 249.512V230.417" stroke="#F6F8F9" stroke-width="0.784106" stroke-miterlimit="10"/>
<path d="M649.308 249.617L670.17 273.127H718.518C718.518 273.127 757.276 273.045 757.245 273.01L736.373 249.512H649.35C649.338 249.508 649.325 249.51 649.314 249.516C649.304 249.522 649.295 249.532 649.29 249.545C649.285 249.557 649.284 249.571 649.287 249.585C649.291 249.598 649.298 249.609 649.308 249.617Z" stroke="#F6F8F9" stroke-width="0.784106" stroke-miterlimit="10"/>
<path d="M670.17 273.126H757.245V337.571H670.17" stroke="#F6F8F9" stroke-width="0.784106" stroke-miterlimit="10"/>
<path d="M649.202 337.57H670.167V273.125L649.202 249.51L628.236 273.125V337.57H649.202Z" stroke="#F6F8F9" stroke-width="0.784106" stroke-miterlimit="10"/>
<path d="M654.688 249.51L675.653 273.125" stroke="#F6F8F9" stroke-width="0.784106" stroke-miterlimit="10"/>
<path d="M661.178 249.51L682.143 273.125" stroke="#F6F8F9" stroke-width="0.784106" stroke-miterlimit="10"/>
<path d="M667.682 249.51L688.647 273.125" stroke="#F6F8F9" stroke-width="0.784106" stroke-miterlimit="10"/>
<path d="M674.18 249.51L695.145 273.125" stroke="#F6F8F9" stroke-width="0.784106" stroke-miterlimit="10"/>
<path d="M680.666 249.51L701.642 273.125" stroke="#F6F8F9" stroke-width="0.784106" stroke-miterlimit="10"/>
<path d="M687.172 249.51L708.137 273.125" stroke="#F6F8F9" stroke-width="0.784106" stroke-miterlimit="10"/>
<path d="M693.672 249.51L714.637 273.125" stroke="#F6F8F9" stroke-width="0.784106" stroke-miterlimit="10"/>
<path d="M700.641 249.51L721.606 273.125" stroke="white" stroke-width="0.784106" stroke-miterlimit="10"/>
<path d="M684.831 280.929H676.65V293.133H684.831V280.929Z" stroke="#F6F8F9" stroke-width="0.784106" stroke-miterlimit="10"/>
<path d="M700.64 280.929H692.459V293.133H700.64V280.929Z" stroke="#F6F8F9" stroke-width="0.784106" stroke-miterlimit="10"/>
<path d="M684.831 297.138H676.65V309.343H684.831V297.138Z" stroke="#F6F8F9" stroke-width="0.784106" stroke-miterlimit="10"/>
<path d="M745.031 314.026H676.65V326.231H745.031V314.026Z" stroke="#F6F8F9" stroke-width="0.784106" stroke-miterlimit="10"/>
<path d="M700.64 297.138H692.459V309.343H700.64V297.138Z" stroke="#F6F8F9" stroke-width="0.784106" stroke-miterlimit="10"/>
<path d="M648.291 282.213C652.746 282.213 656.358 278.145 656.358 273.127C656.358 268.109 652.746 264.041 648.291 264.041C643.836 264.041 640.225 268.109 640.225 273.127C640.225 278.145 643.836 282.213 648.291 282.213Z" stroke="#F6F8F9" stroke-width="0.784106" stroke-miterlimit="10"/>
<path d="M648.291 268.549V273.127H651.661" stroke="#F6F8F9" stroke-width="0.784106" stroke-miterlimit="10"/>
<path d="M662.681 313.432H621.984V317.893H662.681V313.432Z" stroke="#F6F8F9" stroke-width="0.784106" stroke-miterlimit="10"/>
<path d="M656.361 317.892V337.676" stroke="#F6F8F9" stroke-width="0.784106" stroke-miterlimit="10"/>
<path opacity="0.5" d="M487.563 10.5684V0M471.898 16.9986L464.36 9.52764M465.423 32.5104H454.746M471.898 48.0347L464.36 55.5056M487.563 54.4649V65.0333M503.215 48.0347L510.766 55.5056M509.704 32.5104H520.368M503.215 16.9986L510.766 9.52764M612.638 212.392C615.325 212.392 615.326 216.877 618.014 216.877C620.702 216.877 620.701 212.392 623.389 212.392C626.077 212.392 626.077 216.877 628.765 216.877C631.453 216.877 631.465 212.392 634.153 212.392C636.841 212.392 636.841 216.877 639.529 216.877C642.217 216.877 642.23 212.392 644.917 212.392C647.605 212.392 647.617 216.877 650.305 216.877M557.916 60.7657C560.604 60.7657 560.604 65.2388 563.292 65.2388C565.98 65.2388 565.98 60.7657 568.667 60.7657C571.355 60.7657 571.356 65.2388 574.044 65.2388C576.731 65.2388 576.744 60.7657 579.432 60.7657C582.12 60.7657 582.119 65.2388 584.807 65.2388C587.495 65.2388 587.508 60.7657 590.196 60.7657C592.884 60.7657 592.896 65.2388 595.584 65.2388M501.578 32.5104C501.578 40.181 495.303 46.3992 487.563 46.3992C479.823 46.3992 473.549 40.181 473.549 32.5104C473.549 24.8399 479.823 18.6216 487.563 18.6216C495.303 18.6216 501.578 24.8399 501.578 32.5104Z" stroke="white" stroke-opacity="0.5" stroke-linejoin="round"/>
<g opacity="0.25">
<path opacity="0.25" d="M572.297 185.809H564.107V186.824H572.297V185.809Z" fill="#5A5A5A"/>
</g>
<path d="M297.47 185.393L302.281 186.426L305.006 173.807L300.194 172.774L297.47 185.393Z" fill="#C5E1F9"/>
<path d="M322.698 165.545L332.281 174.193L328.972 177.837L319.392 169.189L322.698 165.545Z" fill="#C5E1F9"/>
<path d="M325.879 150.795L338.178 146.825L336.665 142.151L324.366 146.121L325.879 150.795Z" fill="#C5E1F9"/>
<path d="M308.355 134.958L313.166 135.991L315.886 123.392L311.075 122.359L308.355 134.958Z" fill="#C5E1F9"/>
<path d="M276.687 166.617L288.992 162.661L287.483 157.978L275.178 161.933L276.687 166.617Z" fill="#C5E1F9"/>
<path d="M239.68 117.923L273.29 137.415L306.895 156.909L302.947 118.28L299.008 79.6666L280.964 101.633L265.835 78.2046L252.014 87.1405L267.15 110.551L239.68 117.923Z" fill="#D98F00"/>
<path d="M273.291 137.418L306.896 156.913L306.776 155.619L259.411 82.3458L252.014 87.1409L267.15 110.552L239.679 117.925L273.291 137.418Z" fill="#FFCC00"/>
</svg>
