<svg width="579" height="310" viewBox="0 0 579 310" fill="none" xmlns="http://www.w3.org/2000/svg">
<g clip-path="url(#clip0_1452:34000)">
<path d="M434.461 102H140.539C129.748 102 121 111.403 121 123.002V287.998C121 299.597 129.748 309 140.539 309H434.461C445.252 309 454 299.597 454 287.998V123.002C454 111.403 445.252 102 434.461 102Z" fill="#EEF4FD" stroke="#EEF4FD" stroke-miterlimit="10"/>
<path d="M28.9609 308.859H128.041" stroke="#5A5A5A" stroke-miterlimit="10"/>
<path d="M457.08 308.859H556.16" stroke="#5A5A5A" stroke-miterlimit="10"/>
<path d="M5.64844 308.86H24.8884" stroke="#5A5A5A" stroke-miterlimit="10"/>
<path d="M45.0719 278.74C51.2299 278.74 56.2219 273.748 56.2219 267.59C56.2219 261.432 51.2299 256.44 45.0719 256.44C38.9139 256.44 33.9219 261.432 33.9219 267.59C33.9219 273.748 38.9139 278.74 45.0719 278.74Z" fill="white" stroke="#5A5A5A" stroke-miterlimit="10"/>
<path d="M72.1805 290.621C76.5711 290.621 80.1305 287.061 80.1305 282.671C80.1305 278.28 76.5711 274.721 72.1805 274.721C67.7898 274.721 64.2305 278.28 64.2305 282.671C64.2305 287.061 67.7898 290.621 72.1805 290.621Z" fill="white" stroke="#5A5A5A" stroke-miterlimit="10"/>
<path d="M60.7481 270.07C69.4024 270.07 76.4181 263.055 76.4181 254.4C76.4181 245.746 69.4024 238.73 60.7481 238.73C52.0938 238.73 45.0781 245.746 45.0781 254.4C45.0781 263.055 52.0938 270.07 60.7481 270.07Z" fill="white" stroke="#5A5A5A" stroke-miterlimit="10"/>
<path d="M60.75 308.78V254.4" stroke="#5A5A5A" stroke-miterlimit="10"/>
<path d="M45.0703 267.59L60.7503 289.02" stroke="#5A5A5A" stroke-miterlimit="10"/>
<path d="M60.75 297.27L72.18 282.67" stroke="#5A5A5A" stroke-miterlimit="10"/>
<path d="M111.5 307.761C115.422 307.761 118.6 304.582 118.6 300.661C118.6 296.739 115.422 293.561 111.5 293.561C107.579 293.561 104.4 296.739 104.4 300.661C104.4 304.582 107.579 307.761 111.5 307.761Z" fill="white" stroke="#5A5A5A" stroke-miterlimit="10"/>
<path d="M87.2309 307.761C91.1521 307.761 94.3309 304.582 94.3309 300.661C94.3309 296.739 91.1521 293.561 87.2309 293.561C83.3096 293.561 80.1309 296.739 80.1309 300.661C80.1309 304.582 83.3096 307.761 87.2309 307.761Z" stroke="#5A5A5A" stroke-miterlimit="10"/>
<path d="M99.3605 300.66L105.43 289.42L111.5 300.66H99.3605ZM99.3605 300.66L93.3005 289.42L87.2305 300.66" stroke="#5A5A5A" stroke-miterlimit="10"/>
<path d="M105.43 289.42L107.5 285.59" stroke="#5A5A5A" stroke-miterlimit="10"/>
<path d="M93.2992 289.42L95.369 285.59H91.6893C91.6076 285.589 91.5269 285.611 91.4569 285.653C91.3869 285.696 91.3302 285.756 91.2929 285.829C91.2555 285.901 91.2391 285.983 91.2455 286.064C91.2519 286.146 91.2807 286.224 91.329 286.29L92.1893 287.51" stroke="#5A5A5A" stroke-miterlimit="10"/>
<path d="M105.431 289.42H93.3008" stroke="#5A5A5A" stroke-miterlimit="10"/>
<path d="M110.259 285.59H104.779" stroke="#5A5A5A" stroke-miterlimit="10"/>
<path d="M111.5 302.42C112.472 302.42 113.26 301.632 113.26 300.66C113.26 299.688 112.472 298.9 111.5 298.9C110.528 298.9 109.74 299.688 109.74 300.66C109.74 301.632 110.528 302.42 111.5 302.42Z" fill="white" stroke="#5A5A5A" stroke-miterlimit="10"/>
<path d="M99.3596 302.42C100.332 302.42 101.12 301.632 101.12 300.66C101.12 299.688 100.332 298.9 99.3596 298.9C98.3876 298.9 97.5996 299.688 97.5996 300.66C97.5996 301.632 98.3876 302.42 99.3596 302.42Z" fill="white" stroke="#5A5A5A" stroke-miterlimit="10"/>
<path d="M87.2307 302.42C88.2027 302.42 88.9907 301.632 88.9907 300.66C88.9907 299.688 88.2027 298.9 87.2307 298.9C86.2587 298.9 85.4707 299.688 85.4707 300.66C85.4707 301.632 86.2587 302.42 87.2307 302.42Z" fill="white" stroke="#5A5A5A" stroke-miterlimit="10"/>
<path d="M482.891 285.51L481.811 286.29L483.091 287.86" stroke="#5A5A5A" stroke-miterlimit="10"/>
<path d="M463.211 282.86L464.491 282.48L463.781 280.58" stroke="#5A5A5A" stroke-miterlimit="10"/>
<path d="M468.229 249.391L470.039 252.261L467.859 253.261" stroke="#5A5A5A" stroke-miterlimit="10"/>
<path d="M473.05 301.32H484.35L473.05 234.5L461.74 301.32H473.05Z" fill="white" stroke="#5A5A5A" stroke-miterlimit="10"/>
<path d="M473.051 301.32V308.99" stroke="#5A5A5A" stroke-miterlimit="10"/>
<path d="M476.02 267.91L475.17 270.69H476.88" stroke="#5A5A5A" stroke-miterlimit="10"/>
<path d="M467.86 288.689L468.95 291.509H467.01" stroke="#5A5A5A" stroke-miterlimit="10"/>
<path d="M12.7617 217.72C12.7617 218.364 12.5055 218.982 12.0498 219.438C11.5941 219.894 10.976 220.149 10.3315 220.149H6.03174C5.71263 220.149 5.39638 220.086 5.10156 219.964C4.80674 219.842 4.53912 219.664 4.31348 219.438C4.08783 219.212 3.90874 218.944 3.78662 218.649C3.6645 218.355 3.60156 218.039 3.60156 217.72" fill="white"/>
<path d="M12.7617 217.72C12.7617 218.364 12.5055 218.982 12.0498 219.438C11.5941 219.894 10.976 220.149 10.3315 220.149H6.03174C5.71263 220.149 5.39638 220.086 5.10156 219.964C4.80674 219.842 4.53912 219.664 4.31348 219.438C4.08783 219.212 3.90874 218.944 3.78662 218.649C3.6645 218.355 3.60156 218.039 3.60156 217.72" stroke="#5A5A5A" stroke-miterlimit="10"/>
<path d="M5.66 212.561H10.78C12.1485 212.561 13.461 213.104 14.4287 214.072C15.3964 215.04 15.94 216.352 15.94 217.721H0.5C0.5 216.352 1.04364 215.04 2.01133 214.072C2.97902 213.104 4.29148 212.561 5.66 212.561Z" fill="white" stroke="#5A5A5A" stroke-miterlimit="10"/>
<path d="M15.9414 215.14H24.8914V276.48H22.1214L20.8214 283.72V305.47H18.6114V309.27" stroke="#5A5A5A" stroke-miterlimit="10"/>
<path d="M36.9883 217.72C36.9883 218.039 37.0512 218.355 37.1733 218.649C37.2955 218.944 37.4745 219.212 37.7002 219.438C37.9258 219.664 38.1935 219.842 38.4883 219.964C38.7831 220.086 39.0993 220.149 39.4185 220.149H43.7583C44.0783 220.151 44.3954 220.089 44.6914 219.967C44.9874 219.846 45.2562 219.667 45.4829 219.441C45.7096 219.216 45.8895 218.947 46.0122 218.652C46.135 218.356 46.1982 218.04 46.1982 217.72" fill="white"/>
<path d="M36.9883 217.72C36.9883 218.039 37.0512 218.355 37.1733 218.649C37.2955 218.944 37.4745 219.212 37.7002 219.438C37.9258 219.664 38.1935 219.842 38.4883 219.964C38.7831 220.086 39.0993 220.149 39.4185 220.149H43.7583C44.0783 220.151 44.3954 220.089 44.6914 219.967C44.9874 219.846 45.2562 219.667 45.4829 219.441C45.7096 219.216 45.8895 218.947 46.0122 218.652C46.135 218.356 46.1982 218.04 46.1982 217.72V217.72" stroke="#5A5A5A" stroke-miterlimit="10"/>
<path d="M49.2812 217.72H33.8413C33.8413 216.351 34.3849 215.039 35.3525 214.071C36.3202 213.104 37.6325 212.56 39.001 212.56H44.1211C45.4896 212.56 46.8018 213.104 47.7695 214.071C48.7372 215.039 49.2813 216.351 49.2812 217.72Z" fill="white" stroke="#5A5A5A" stroke-miterlimit="10"/>
<path d="M33.8506 215.141H24.8906V276.481H27.6606L28.9606 283.721V305.471H31.1806V309.271" stroke="#5A5A5A" stroke-miterlimit="10"/>
<path d="M20.8203 305.471H28.9603" stroke="#5A5A5A" stroke-miterlimit="10"/>
<path d="M334.25 229.141C334.25 230.916 333.9 232.673 333.221 234.313C332.541 235.953 331.545 237.443 330.29 238.697C329.034 239.952 327.544 240.947 325.903 241.625C324.263 242.303 322.505 242.652 320.73 242.65" stroke="#0066CC" stroke-miterlimit="10"/>
<path d="M347.76 242.65C344.177 242.65 340.74 241.227 338.207 238.693C335.673 236.16 334.25 232.724 334.25 229.141V308.951" stroke="#0066CC" stroke-miterlimit="10"/>
<path d="M334.25 243.15C334.25 246.736 332.826 250.175 330.291 252.71C327.755 255.246 324.316 256.67 320.73 256.67" stroke="#0066CC" stroke-miterlimit="10"/>
<path d="M334.25 243.15C334.249 244.925 334.597 246.683 335.275 248.324C335.954 249.964 336.948 251.454 338.203 252.71C339.458 253.966 340.948 254.962 342.587 255.641C344.227 256.321 345.985 256.67 347.76 256.67" stroke="#0066CC" stroke-miterlimit="10"/>
<path d="M334.25 257.17C334.25 258.945 333.9 260.703 333.221 262.342C332.541 263.982 331.545 265.472 330.29 266.727C329.034 267.981 327.544 268.976 325.903 269.655C324.263 270.333 322.505 270.681 320.73 270.68" stroke="#0066CC" stroke-miterlimit="10"/>
<path d="M334.25 257.17C334.25 260.753 335.673 264.19 338.207 266.723C340.74 269.257 344.177 270.68 347.76 270.68" stroke="#0066CC" stroke-miterlimit="10"/>
<path d="M270.9 293.061V309.271" stroke="#D2E3F8" stroke-miterlimit="10"/>
<path d="M291.369 293.061V309.271" stroke="#D2E3F8" stroke-miterlimit="10"/>
<path d="M294.77 295.359H267.51V298.679H294.77V295.359Z" fill="#0066CC"/>
<path d="M294.77 300.25H267.51V303.57H294.77V300.25Z" fill="#0066CC"/>
<path d="M121.33 121.52C121.33 118.957 121.835 116.419 122.816 114.05C123.797 111.682 125.235 109.53 127.047 107.717C128.86 105.905 131.012 104.467 133.38 103.486C135.749 102.505 138.287 102 140.85 102H434.48C437.044 102 439.582 102.505 441.95 103.486C444.318 104.467 446.471 105.905 448.283 107.717C450.096 109.53 451.533 111.682 452.514 114.05C453.495 116.419 454 118.957 454 121.52H121.33Z" fill="#0066CC"/>
<path d="M429.18 116.09C431.571 116.09 433.51 114.152 433.51 111.76C433.51 109.369 431.571 107.43 429.18 107.43C426.788 107.43 424.85 109.369 424.85 111.76C424.85 114.152 426.788 116.09 429.18 116.09Z" fill="white"/>
<path d="M414.119 116.09C416.51 116.09 418.449 114.152 418.449 111.76C418.449 109.369 416.51 107.43 414.119 107.43C411.728 107.43 409.789 109.369 409.789 111.76C409.789 114.152 411.728 116.09 414.119 116.09Z" fill="white"/>
<path d="M399.07 116.09C401.462 116.09 403.4 114.152 403.4 111.76C403.4 109.369 401.462 107.43 399.07 107.43C396.679 107.43 394.74 109.369 394.74 111.76C394.74 114.152 396.679 116.09 399.07 116.09Z" fill="white"/>
<path d="M228.191 308.25V223.25L141.711 239.81V308.25" fill="#B0CCF5"/>
<path d="M156.859 277.87H166.379V270.78H156.859V277.87Z" fill="#F3D22D" stroke="#B0CCF5" stroke-miterlimit="10"/>
<path d="M160.06 274.33H172.689V267.24H160.06V274.33Z" fill="#2A71D5" stroke="#B0CCF5" stroke-miterlimit="10"/>
<path d="M172.689 308.26V264.51" stroke="#D2E3F8" stroke-miterlimit="10"/>
<path d="M165.71 259.9H175.23V252.81H165.71V259.9Z" fill="#F3D22D" stroke="#B0CCF5" stroke-miterlimit="10"/>
<path d="M168.921 256.359H181.551V249.27H168.921V256.359Z" fill="#2A71D5" stroke="#B0CCF5" stroke-miterlimit="10"/>
<path d="M185.851 199.91H195.371V192.82H185.851V199.91Z" fill="#F3D22D" stroke="#EEF4FD" stroke-miterlimit="10"/>
<path d="M189.049 196.369H201.68V189.279H189.049V196.369Z" fill="#2A71D5" stroke="#EEF4FD" stroke-miterlimit="10"/>
<path d="M181.539 308.26V246.54" stroke="#D2E3F8" stroke-miterlimit="10"/>
<path d="M148.951 295.21H158.471V288.12H148.951V295.21Z" fill="#F3D22D" stroke="#B0CCF5" stroke-miterlimit="10"/>
<path d="M152.149 291.66H164.779V284.57H152.149V291.66Z" fill="#2A71D5" stroke="#B0CCF5" stroke-miterlimit="10"/>
<path d="M164.779 308.26V281.84" stroke="#D2E3F8" stroke-miterlimit="10"/>
<path d="M245.11 308.25V192.79L201.68 202.5V308.25" fill="#3563B5"/>
<path d="M201.68 202.51V185.23" stroke="#D2E3F8" stroke-miterlimit="10"/>
<path d="M236.629 208.09H210.039V215.42H236.629V208.09Z" fill="#B0CCF5"/>
<path d="M236.629 219.23H210.039V226.56H236.629V219.23Z" fill="#B0CCF5"/>
<path d="M236.629 230.359H210.039V237.689H236.629V230.359Z" fill="#B0CCF5"/>
<path d="M236.629 241.5H210.039V248.83H236.629V241.5Z" fill="#B0CCF5"/>
<path d="M236.629 252.7H210.039V260.03H236.629V252.7Z" fill="#B0CCF5"/>
<path d="M236.629 263.9H210.039V271.23H236.629V263.9Z" fill="#B0CCF5"/>
<path d="M236.629 275.1H210.039V282.43H236.629V275.1Z" fill="#B0CCF5"/>
<path d="M236.63 308.25V298.08H211.73V308.25" fill="#B0CCF5"/>
<path d="M258.489 308.25V199.91L245.109 192.79V308.25H258.489Z" fill="#234580"/>
<path d="M235.769 208.09V214.62H210.039V215.42H236.629V208.09H235.769Z" fill="#8BB6EA"/>
<path d="M235.769 219.23V225.75H210.039V226.56H236.629V219.23H235.769Z" fill="#8BB6EA"/>
<path d="M235.769 230.359V236.879H210.039V237.689H236.629V230.359H235.769Z" fill="#8BB6EA"/>
<path d="M235.769 241.5V248.02H210.039V248.82H236.629V241.5H235.769Z" fill="#8BB6EA"/>
<path d="M235.769 252.7V259.22H210.039V260.03H236.629V252.7H235.769Z" fill="#8BB6EA"/>
<path d="M235.769 263.9V270.42H210.039V271.23H236.629V263.9H235.769Z" fill="#8BB6EA"/>
<path d="M235.769 275.1V281.62H210.039V282.43H236.629V275.1H235.769Z" fill="#8BB6EA"/>
<path d="M235.82 308.25V298.89H211.73V298.08H236.63V308.25H235.82Z" fill="#8BB6EA"/>
<g opacity="0.75">
<path opacity="0.75" d="M220.95 252.7H217.67L215.85 260.03H219.12L220.95 252.7Z" fill="#D2E3F8"/>
<path opacity="0.75" d="M218.161 263.899H214.881L213.061 271.229H216.331L218.161 263.899Z" fill="#D2E3F8"/>
<path opacity="0.75" d="M232.069 208.09H228.789L226.959 215.42H230.239L232.069 208.09Z" fill="#D2E3F8"/>
<path opacity="0.75" d="M229.289 219.229H226.009L224.189 226.559H227.469L229.289 219.229Z" fill="#D2E3F8"/>
<path opacity="0.75" d="M212.09 275.1L210.26 282.43H213.54L215.37 275.1H212.09Z" fill="#D2E3F8"/>
<path opacity="0.75" d="M226.52 230.359H223.24L221.41 237.689H224.69L226.52 230.359Z" fill="#D2E3F8"/>
<path opacity="0.75" d="M223.741 241.5H220.471L218.641 248.82H221.921L223.741 241.5Z" fill="#D2E3F8"/>
<path opacity="0.75" d="M222.73 248.82H223.44L225.27 241.5H224.55L222.73 248.82Z" fill="#D2E3F8"/>
<path opacity="0.75" d="M232.879 208.09L231.049 215.42H231.769L233.599 208.09H232.879Z" fill="#D2E3F8"/>
<path opacity="0.75" d="M214.35 282.43H215.07L216.9 275.1H216.18L214.35 282.43Z" fill="#D2E3F8"/>
<path opacity="0.75" d="M225.5 237.689H226.22L228.05 230.359H227.33L225.5 237.689Z" fill="#D2E3F8"/>
<path opacity="0.75" d="M228.279 226.559H228.989L230.819 219.229H230.099L228.279 226.559Z" fill="#D2E3F8"/>
<path opacity="0.75" d="M217.141 271.229H217.861L219.691 263.899H218.971L217.141 271.229Z" fill="#D2E3F8"/>
<path opacity="0.75" d="M219.93 260.03H220.65L222.48 252.7H221.76L219.93 260.03Z" fill="#D2E3F8"/>
</g>
<path d="M284.49 277.17C290.842 277.17 295.99 272.021 295.99 265.67C295.99 259.319 290.842 254.17 284.49 254.17C278.139 254.17 272.99 259.319 272.99 265.67C272.99 272.021 278.139 277.17 284.49 277.17Z" fill="#B0CCF5"/>
<path d="M312.44 289.4C316.963 289.4 320.63 285.733 320.63 281.21C320.63 276.686 316.963 273.02 312.44 273.02C307.917 273.02 304.25 276.686 304.25 281.21C304.25 285.733 307.917 289.4 312.44 289.4Z" fill="#B0CCF5"/>
<path d="M300.65 268.22C309.575 268.22 316.81 260.985 316.81 252.06C316.81 243.135 309.575 235.9 300.65 235.9C291.725 235.9 284.49 243.135 284.49 252.06C284.49 260.985 291.725 268.22 300.65 268.22Z" fill="#B0CCF5"/>
<path d="M300.65 308.131V252.061V268.221" stroke="#B0CCF5" stroke-miterlimit="10"/>
<path d="M284.49 265.67L300.65 287.76" stroke="#B0CCF5" stroke-miterlimit="10"/>
<path d="M300.65 296.27L312.44 281.21" stroke="#B0CCF5" stroke-miterlimit="10"/>
<path d="M300.65 252.061V267.761" stroke="white" stroke-miterlimit="10"/>
<path d="M284.49 265.67L290.99 274.55" stroke="white" stroke-miterlimit="10"/>
<path d="M312.44 281.21L307.67 287.3" stroke="white" stroke-miterlimit="10"/>
<path d="M436.519 215.37L411.579 240.31H353.76C353.7 240.31 350.65 240.24 350.69 240.19L375.63 215.25H436.45C436.465 215.243 436.483 215.242 436.499 215.248C436.515 215.253 436.529 215.264 436.537 215.279C436.546 215.294 436.549 215.311 436.546 215.328C436.542 215.345 436.533 215.359 436.519 215.37Z" fill="#3D71CE"/>
<path d="M411.58 308.72V240.31L436.64 215.25L436.54 240.31V308.72H411.58Z" fill="#234580"/>
<path d="M430.8 215.25L405.74 240.31H404.32L429.38 215.25H430.8Z" fill="#4F80C9"/>
<path d="M423.031 215.25L397.971 240.31H396.551L421.621 215.25H423.031Z" fill="#4F80C9"/>
<path d="M415.259 215.25L390.199 240.31H388.779L413.849 215.25H415.259Z" fill="#4F80C9"/>
<path d="M407.49 215.25L382.43 240.31H381.01L406.08 215.25H407.49Z" fill="#4F80C9"/>
<path d="M399.73 215.25L374.66 240.31H373.25L398.31 215.25H399.73Z" fill="#4F80C9"/>
<path d="M391.96 215.25L366.89 240.31H365.48L390.54 215.25H391.96Z" fill="#4F80C9"/>
<path d="M382.771 215.25H384.191L359.121 240.31H357.711L382.771 215.25Z" fill="#4F80C9"/>
<path d="M373.731 240.31H401.801V218.27H373.731V240.31Z" fill="#234580"/>
<path d="M370.261 240.309V218.279H398.321V240.309H411.581V308.719H350.711V240.309H370.261Z" fill="#3563B5"/>
<path d="M375.48 258.779H385.26V249.289H375.48V258.779Z" fill="#B0CCF5"/>
<path d="M356.569 258.779H366.35V249.289H356.569V258.779Z" fill="#B0CCF5"/>
<path d="M375.48 271.61H385.26V262.12H375.48V271.61Z" fill="#B0CCF5"/>
<path d="M356.569 271.61H366.35V262.12H356.569V271.61Z" fill="#B0CCF5"/>
<path d="M375.48 284.221H385.26V274.73H375.48V284.221Z" fill="#B0CCF5"/>
<path d="M395.169 258.779H404.949V249.289H395.169V258.779Z" fill="#B0CCF5"/>
<path d="M395.169 271.61H404.949V262.12H395.169V271.61Z" fill="#B0CCF5"/>
<path d="M395.169 284.221H404.949V274.73H395.169V284.221Z" fill="#B0CCF5"/>
<path d="M356.569 284.221H366.35V274.73H356.569V284.221Z" fill="#B0CCF5"/>
<path d="M383.479 237.58H381.019V231.64H375.189V226.95H381.019V221.01H383.479H385.939V226.95H391.769V231.64H385.939V237.58H383.479Z" fill="#F3D22D"/>
<path d="M356.58 258.78V257.92H365.47V249.29H366.35V258.78H356.58Z" fill="#8BB6EA"/>
<path d="M375.49 258.78V257.92H384.38V249.29H385.26V258.78H375.49Z" fill="#8BB6EA"/>
<path d="M395.18 258.78V257.92H404.07V249.29H404.95V258.78H395.18Z" fill="#8BB6EA"/>
<path d="M356.58 271.61V270.75H365.47V262.12H366.35V271.61H356.58Z" fill="#8BB6EA"/>
<path d="M375.49 271.61V270.75H384.38V262.12H385.26V271.61H375.49Z" fill="#8BB6EA"/>
<path d="M395.18 271.61V270.75H404.07V262.12H404.95V271.61H395.18Z" fill="#8BB6EA"/>
<path d="M356.58 284.211V283.351H365.47V274.721H366.35V284.211H356.58Z" fill="#8BB6EA"/>
<path d="M375.49 284.211V283.351H384.38V274.721H385.26V284.211H375.49Z" fill="#8BB6EA"/>
<path d="M395.18 284.211V283.351H404.07V274.721H404.95V284.211H395.18Z" fill="#8BB6EA"/>
<path d="M400.6 294.38H389.33V295.52H400.6V294.38Z" fill="#234580"/>
<path d="M357.711 294.38H350.711V295.52H357.711V294.38Z" fill="#234580"/>
<path d="M389.331 294.38H357.711V308.78H389.331V294.38Z" fill="#B0CCF5"/>
<path d="M388.311 308.26V295.48H357.711V294.38H389.331V308.26H388.311Z" fill="#8BB6EA"/>
<path d="M345.57 294.38H395.17V291.84H345.57V294.38Z" fill="#D2E3F8"/>
<path d="M395.169 294.38H400.609V291.84H395.169V294.38Z" fill="#B0CCF5"/>
<path d="M529.767 221.65H522.9V226.77H529.767V221.65Z" fill="white" stroke="#7AD3D9" stroke-miterlimit="10"/>
<path d="M527.454 219.09H518.355V224.21H527.454V219.09Z" fill="white" stroke="#3D71CE" stroke-miterlimit="10"/>
<path d="M518.355 233.46V217.11" stroke="#5A5A5A" stroke-miterlimit="10"/>
<path d="M517.849 233.55L537.899 253.68H584.368C584.368 253.68 621.618 253.61 621.588 253.58L601.528 233.459H517.888C517.877 233.457 517.865 233.458 517.854 233.463C517.844 233.468 517.835 233.477 517.831 233.488C517.826 233.498 517.825 233.511 517.828 233.522C517.831 233.533 517.839 233.543 517.849 233.55Z" fill="white" stroke="#5A5A5A" stroke-miterlimit="10"/>
<path d="M537.9 253.68H621.59V308.86H537.9" fill="white"/>
<path d="M537.9 253.68H621.59V308.86H537.9" stroke="#5A5A5A" stroke-miterlimit="10"/>
<path d="M517.748 308.86H537.898V253.68L517.748 233.46L497.598 253.68V308.86H517.748Z" fill="white" stroke="#5A5A5A" stroke-miterlimit="10"/>
<path d="M523.021 233.46L543.172 253.68" stroke="#5A5A5A" stroke-miterlimit="10"/>
<path d="M529.26 233.46L549.41 253.68" stroke="#5A5A5A" stroke-miterlimit="10"/>
<path d="M535.508 233.46L555.658 253.68" stroke="#5A5A5A" stroke-miterlimit="10"/>
<path d="M541.756 233.46L561.906 253.68" stroke="#5A5A5A" stroke-miterlimit="10"/>
<path d="M547.994 233.46L568.154 253.68" stroke="#5A5A5A" stroke-miterlimit="10"/>
<path d="M554.244 233.46L574.394 253.68" stroke="#5A5A5A" stroke-miterlimit="10"/>
<path d="M560.492 233.46L580.642 253.68" stroke="#5A5A5A" stroke-miterlimit="10"/>
<path d="M567.188 233.46L587.338 253.68" stroke="#5A5A5A" stroke-miterlimit="10"/>
<path d="M573.885 233.46L594.045 253.68" stroke="#5A5A5A" stroke-miterlimit="10"/>
<path d="M551.992 260.36H544.129V270.81H551.992V260.36Z" stroke="#5A5A5A" stroke-miterlimit="10"/>
<path d="M567.189 260.36H559.326V270.81H567.189V260.36Z" stroke="#5A5A5A" stroke-miterlimit="10"/>
<path d="M551.992 274.24H544.129V284.69H551.992V274.24Z" stroke="#5A5A5A" stroke-miterlimit="10"/>
<path d="M609.851 288.7H544.129V299.15H609.851V288.7Z" stroke="#5A5A5A" stroke-miterlimit="10"/>
<path d="M567.189 274.24H559.326V284.69H567.189V274.24Z" stroke="#5A5A5A" stroke-miterlimit="10"/>
<path d="M582.255 260.36H574.393V270.81H582.255V260.36Z" stroke="#5A5A5A" stroke-miterlimit="10"/>
<path d="M582.255 274.24H574.393V284.69H582.255V274.24Z" stroke="#5A5A5A" stroke-miterlimit="10"/>
<path d="M516.872 261.46C521.154 261.46 524.625 257.977 524.625 253.68C524.625 249.384 521.154 245.9 516.872 245.9C512.59 245.9 509.119 249.384 509.119 253.68C509.119 257.977 512.59 261.46 516.872 261.46Z" stroke="#5A5A5A" stroke-miterlimit="10"/>
<path d="M516.873 249.76V253.68H520.112" stroke="#5A5A5A" stroke-miterlimit="10"/>
<path d="M530.704 288.19H491.59V292.01H530.704V288.19Z" fill="white" stroke="#5A5A5A" stroke-miterlimit="10"/>
<path d="M524.625 292.01V308.95" stroke="#5A5A5A" stroke-miterlimit="10"/>
<path opacity="0.2" d="M327.479 68.7603C329.46 67.871 331.142 66.4287 332.323 64.6069C333.505 62.7852 334.135 60.6615 334.139 58.4902C334.137 55.5011 332.949 52.6351 330.836 50.5205C328.723 48.406 325.858 47.2153 322.869 47.21C320.943 47.2134 319.049 47.7082 317.368 48.6479C315.686 49.5877 314.272 50.9412 313.259 52.5801C312.297 52.2358 311.281 52.0629 310.259 52.0698C308.325 52.078 306.447 52.7162 304.908 53.8872C303.369 55.0582 302.253 56.6984 301.729 58.5601C301.105 57.867 300.341 57.3131 299.488 56.9341C298.636 56.5551 297.712 56.3593 296.779 56.3599C295.295 56.3509 293.85 56.8383 292.674 57.7441C291.499 58.65 290.659 59.9224 290.289 61.3599C289.907 61.2434 289.509 61.1861 289.109 61.1899C287.98 61.1899 286.896 61.6391 286.097 62.438C285.298 63.2369 284.849 64.3204 284.849 65.4502C284.85 66.0758 284.99 66.6934 285.258 67.2588C285.526 67.8241 285.916 68.3233 286.399 68.7202H280.609V69.7202H314.329V68.7202H289.109C288.244 68.7176 287.415 68.3717 286.804 67.7588C286.193 67.1458 285.849 66.3157 285.849 65.4502C285.849 64.5856 286.193 63.7564 286.804 63.145C287.416 62.5337 288.245 62.1899 289.109 62.1899C289.575 62.1906 290.035 62.2895 290.459 62.48C290.528 62.5143 290.603 62.5322 290.679 62.5322C290.756 62.5322 290.831 62.5143 290.899 62.48C290.968 62.4447 291.027 62.3936 291.072 62.3311C291.117 62.2685 291.147 62.1964 291.159 62.1201C291.372 60.7839 292.055 59.5675 293.085 58.6909C294.116 57.8143 295.426 57.335 296.779 57.3398C297.737 57.3404 298.679 57.5829 299.518 58.0444C300.357 58.5059 301.066 59.1716 301.579 59.98C301.634 60.0638 301.714 60.1293 301.806 60.1685C301.899 60.2076 302 60.2188 302.099 60.2002C302.199 60.1786 302.291 60.1264 302.36 60.0513C302.43 59.9761 302.475 59.8818 302.489 59.7803C302.765 57.9142 303.7 56.2086 305.126 54.9736C306.552 53.7387 308.373 53.0564 310.259 53.0503C311.288 53.0484 312.308 53.2487 313.259 53.6401C313.372 53.6883 313.498 53.6935 313.614 53.6548C313.73 53.6161 313.828 53.5362 313.889 53.4302C314.783 51.8425 316.083 50.5208 317.656 49.6001C319.228 48.6794 321.017 48.1927 322.839 48.1899C325.563 48.1952 328.174 49.2805 330.099 51.2075C332.024 53.1345 333.107 55.7463 333.109 58.4702C333.104 61.1924 332.02 63.8012 330.095 65.7261C328.17 67.6509 325.562 68.7349 322.839 68.7402H318.529V69.7402H352.239V68.7402L327.479 68.7603Z" fill="#5A5A5A"/>
<path opacity="0.2" d="M94.2607 177.68C94.7431 177.284 95.132 176.786 95.3999 176.223C95.6678 175.659 95.808 175.043 95.8105 174.419C95.8105 173.289 95.3621 172.204 94.5635 171.404C93.7649 170.603 92.6815 170.152 91.5508 170.149C91.1514 170.15 90.754 170.208 90.3706 170.319C89.9975 168.884 89.1575 167.613 87.9824 166.708C86.8073 165.803 85.3642 165.314 83.8809 165.319C82.9477 165.319 82.0246 165.515 81.1719 165.894C80.3191 166.273 79.5556 166.827 78.9307 167.52C78.407 165.658 77.2915 164.018 75.7524 162.847C74.2134 161.676 72.3347 161.038 70.4009 161.03C69.3787 161.023 68.3633 161.195 67.4009 161.54C66.3878 159.902 64.9733 158.55 63.2915 157.612C61.6098 156.674 59.7162 156.181 57.7905 156.18C54.8023 156.182 51.9377 157.37 49.8247 159.483C47.7117 161.596 46.5232 164.462 46.5205 167.45C46.5245 169.621 47.1551 171.745 48.3364 173.566C49.5178 175.388 51.1999 176.83 53.1807 177.72H28.3906V178.72H62.1006V177.72H57.7905C55.0684 177.714 52.4595 176.63 50.5347 174.706C48.6098 172.781 47.5258 170.172 47.5205 167.45C47.5232 164.727 48.6063 162.116 50.5317 160.19C52.4572 158.265 55.0676 157.182 57.7905 157.18C59.6198 157.175 61.4174 157.656 62.999 158.575C64.5806 159.494 65.8892 160.818 66.7905 162.41C66.8498 162.515 66.9461 162.595 67.0605 162.633C67.175 162.672 67.2996 162.667 67.4106 162.62C68.3623 162.228 69.3816 162.028 70.4106 162.03C72.2969 162.036 74.1187 162.718 75.5444 163.953C76.9702 165.188 77.9054 166.894 78.1807 168.76C78.1948 168.861 78.2398 168.956 78.3096 169.031C78.3793 169.106 78.4706 169.158 78.5708 169.18C78.6696 169.201 78.7726 169.191 78.8657 169.152C78.9588 169.112 79.0374 169.045 79.0908 168.959C79.6041 168.151 80.3133 167.485 81.1523 167.024C81.9914 166.562 82.933 166.32 83.8906 166.319C85.2451 166.315 86.5565 166.796 87.5874 167.674C88.6183 168.553 89.3005 169.771 89.5107 171.109C89.5255 171.185 89.5562 171.256 89.6011 171.318C89.646 171.38 89.7037 171.432 89.7705 171.47C89.8388 171.504 89.9143 171.522 89.9907 171.522C90.0671 171.522 90.1427 171.504 90.2109 171.47C90.6355 171.279 91.0952 171.18 91.5605 171.18C91.9895 171.18 92.4144 171.264 92.8105 171.429C93.2067 171.593 93.5668 171.834 93.8696 172.138C94.1725 172.441 94.4124 172.802 94.5757 173.199C94.7389 173.595 94.8221 174.021 94.8208 174.45C94.8208 175.314 94.4771 176.144 93.8657 176.755C93.2544 177.366 92.4252 177.709 91.5605 177.709H66.3408V178.709H100.061V177.709L94.2607 177.68Z" fill="#5A5A5A"/>
<path opacity="0.2" d="M544.431 159.41C546.41 158.516 548.089 157.071 549.269 155.248C550.448 153.425 551.077 151.301 551.081 149.129C551.078 146.141 549.89 143.277 547.777 141.164C545.664 139.051 542.799 137.862 539.811 137.859C537.885 137.863 535.993 138.358 534.313 139.298C532.633 140.238 531.221 141.591 530.211 143.229C529.248 142.886 528.233 142.714 527.211 142.72C525.278 142.728 523.401 143.367 521.864 144.538C520.326 145.709 519.213 147.349 518.691 149.209C518.061 148.51 517.289 147.952 516.427 147.572C515.565 147.193 514.633 147.002 513.691 147.01C512.208 147.001 510.764 147.489 509.59 148.395C508.416 149.3 507.579 150.573 507.211 152.01C506.827 151.899 506.43 151.841 506.031 151.839C505.47 151.839 504.915 151.95 504.396 152.165C503.878 152.379 503.408 152.694 503.011 153.09C502.615 153.487 502.301 153.958 502.086 154.476C501.871 154.994 501.761 155.549 501.761 156.109C501.762 156.736 501.903 157.354 502.173 157.92C502.443 158.485 502.835 158.984 503.321 159.379H488.381V160.379H518.511V159.379H506.031C505.164 159.377 504.334 159.032 503.721 158.419C503.109 157.806 502.763 156.976 502.761 156.109C502.763 155.243 503.109 154.413 503.721 153.8C504.334 153.188 505.164 152.842 506.031 152.839C506.494 152.84 506.951 152.942 507.371 153.14C507.439 153.172 507.515 153.188 507.591 153.188C507.667 153.188 507.742 153.172 507.811 153.14C507.88 153.105 507.94 153.054 507.985 152.991C508.03 152.929 508.06 152.856 508.071 152.78C508.298 151.443 508.997 150.231 510.041 149.365C511.085 148.499 512.405 148.036 513.761 148.06C514.718 148.058 515.659 148.299 516.499 148.758C517.338 149.218 518.047 149.882 518.561 150.689C518.613 150.778 518.694 150.848 518.789 150.888C518.885 150.927 518.991 150.935 519.091 150.91C519.19 150.889 519.28 150.838 519.349 150.765C519.419 150.692 519.465 150.599 519.481 150.5C519.752 148.633 520.685 146.927 522.109 145.691C523.534 144.456 525.355 143.774 527.241 143.77C528.27 143.767 529.289 143.967 530.241 144.359C530.355 144.405 530.481 144.407 530.597 144.367C530.712 144.326 530.81 144.246 530.871 144.14C531.765 142.553 533.066 141.233 534.638 140.314C536.211 139.395 537.999 138.91 539.821 138.91C542.543 138.915 545.152 139.998 547.077 141.923C549.002 143.848 550.086 146.458 550.091 149.18C550.088 151.904 549.006 154.515 547.081 156.442C545.155 158.369 542.545 159.454 539.821 159.459H533.141V160.459H563.271V159.459L544.431 159.41Z" fill="#5A5A5A"/>
<path opacity="0.2" d="M388.631 14.53V6M376.101 19.72L370.071 13.69M370.921 32.24H362.381M376.101 44.77L370.071 50.8M388.631 49.96V58.49M401.151 44.77L407.191 50.8M406.341 32.24H414.871M401.151 19.72L407.191 13.69M467.391 190.69C469.541 190.69 469.541 194.31 471.691 194.31C473.841 194.31 473.841 190.69 475.991 190.69C478.141 190.69 478.141 194.31 480.291 194.31C482.441 194.31 482.451 190.69 484.601 190.69C486.751 190.69 486.751 194.31 488.901 194.31C491.051 194.31 491.061 190.69 493.211 190.69C495.361 190.69 495.371 194.31 497.521 194.31M429.461 70.6298C431.611 70.6298 431.611 74.2402 433.761 74.2402C435.911 74.2402 435.911 70.6298 438.061 70.6298C440.211 70.6298 440.211 74.2402 442.361 74.2402C444.511 74.2402 444.521 70.6298 446.671 70.6298C448.821 70.6298 448.821 74.2402 450.971 74.2402C453.121 74.2402 453.131 70.6298 455.281 70.6298C457.431 70.6298 457.441 74.2402 459.591 74.2402M399.841 32.24C399.841 38.4311 394.822 43.45 388.631 43.45C382.44 43.45 377.421 38.4311 377.421 32.24C377.421 26.0489 382.44 21.03 388.631 21.03C394.822 21.03 399.841 26.0489 399.841 32.24Z" stroke="#5A5A5A" stroke-linejoin="round"/>
<g opacity="0.25">
<path opacity="0.25" d="M480.909 159.41H472.859V160.41H480.909V159.41Z" fill="#5A5A5A"/>
</g>
<path d="M210.788 160.42L215.52 161.438L218.195 149.014L213.463 147.996L210.788 160.42Z" fill="#C5E1F9"/>
<path d="M235.581 140.879L245.005 149.396L241.753 152.981L232.332 144.465L235.581 140.879Z" fill="#C5E1F9"/>
<path d="M238.71 126.352L250.797 122.446L249.309 117.841L237.222 121.747L238.71 126.352Z" fill="#C5E1F9"/>
<path d="M221.481 110.758L226.213 111.776L228.884 99.3713L224.152 98.3524L221.481 110.758Z" fill="#C5E1F9"/>
<path d="M204.088 118.898L207.336 115.312L197.923 106.788L194.676 110.374L204.088 118.898Z" fill="#C5E1F9"/>
<path d="M190.362 141.933L202.455 138.041L200.97 133.427L188.877 137.319L190.362 141.933Z" fill="#C5E1F9"/>
<path d="M153.973 93.9739L187.023 113.175L220.066 132.377L216.173 94.3463L212.288 56.3318L194.555 77.9513L179.674 54.8814L166.089 63.6739L180.977 86.7252L153.973 93.9739Z" fill="#FFA800"/>
<path d="M187.023 113.175L220.066 132.377L219.948 131.103L173.36 58.956L166.089 63.6739L180.977 86.7252L153.973 93.9739L187.023 113.175Z" fill="#FFCC00"/>
</g>
<defs>
<clipPath id="clip0_1452:34000">
<rect width="579" height="310" fill="white"/>
</clipPath>
</defs>
</svg>
