<svg width="48" height="58" viewBox="0 0 48 58" fill="none" xmlns="http://www.w3.org/2000/svg">
<path d="M42.8311 5.97559H5.16875C2.86641 5.97559 1 8.20618 1 10.9578V39.4166C1 42.1681 2.86641 44.3987 5.16875 44.3987H42.8311C45.1334 44.3987 46.9998 42.1681 46.9998 39.4166V10.9578C46.9998 8.20618 45.1334 5.97559 42.8311 5.97559Z" stroke="#505050" stroke-linecap="round" stroke-linejoin="round"/>
<path d="M22.6875 41.041H25.3131" stroke="#505050" stroke-linecap="round" stroke-linejoin="round"/>
<path d="M1 37.9814H46.9998" stroke="#505050" stroke-linecap="round" stroke-linejoin="round"/>
<path d="M19.5801 50.5455L20.0578 44.3799" stroke="#505050" stroke-linecap="round" stroke-linejoin="round"/>
<path d="M27.9414 44.3799L28.4192 50.5455" stroke="#505050" stroke-linecap="round" stroke-linejoin="round"/>
<path d="M15.0469 50.5459H32.9532" stroke="#505050" stroke-linecap="round" stroke-linejoin="round"/>
<path d="M37.1891 20.1678C37.1891 21.5468 36.3472 22.814 35.3087 22.814C34.2703 22.814 33.4284 21.5468 33.4284 20.1678C33.4006 19.8528 33.4285 19.5343 33.5103 19.2331C33.5921 18.9318 33.726 18.6544 33.9033 18.419C34.0806 18.1835 34.2974 17.9952 34.5395 17.8664C34.7816 17.7375 35.0437 17.6709 35.3088 17.6709C35.5738 17.6709 35.8359 17.7375 36.078 17.8664C36.3201 17.9952 36.5369 18.1835 36.7142 18.419C36.8915 18.6544 37.0254 18.9318 37.1072 19.2331C37.189 19.5343 37.2169 19.8528 37.1891 20.1678Z" stroke="#505050" stroke-linecap="round" stroke-linejoin="round"/>
<path d="M31.4941 28.3838C31.4941 27.1748 31.896 26.0153 32.6113 25.1604C33.3266 24.3055 34.2968 23.8252 35.3085 23.8252H35.3085C36.3201 23.8252 37.2903 24.3055 38.0057 25.1604C38.721 26.0153 39.1228 27.1748 39.1228 28.3838" stroke="#505050" stroke-linecap="round" stroke-linejoin="round"/>
<rect x="8" y="15.5361" width="10" height="3.58537" fill="#27D1D6"/>
<rect x="8" y="23.9023" width="10" height="3.58537" fill="#27D1D6"/>
<rect x="8" y="20.3174" width="19" height="1.19512" fill="#0073E6"/>
<rect x="8" y="28.6826" width="19" height="1.19512" fill="#0073E6"/>
</svg>
