<svg width="195" height="48" viewBox="0 0 195 48" fill="none" xmlns="http://www.w3.org/2000/svg">
<path d="M68.1359 38.4481C61.5851 43.768 53.6064 47.0868 45.1758 47.9986H75.5976V30.4678C75.4479 30.5375 75.3039 30.6058 75.1557 30.6714C73.219 33.593 70.8532 36.2139 68.1359 38.4481" fill="#222F5C"/>
<path d="M63.6961 4.69101C63.6112 8.69669 61.9221 12.5058 58.9988 15.2837C56.0755 18.0616 52.1565 19.5818 48.1004 19.511C44.0446 19.5819 40.1257 18.0618 37.2028 15.2838C34.2799 12.5057 32.5914 8.69651 32.5075 4.69101C32.5062 3.09515 32.7764 1.51041 33.3066 0.00292969H22.4973C22.4309 0.662496 22.3984 1.33601 22.3984 2.01649C22.4793 7.95602 24.9417 13.6215 29.2459 17.7705C33.55 21.9194 39.3444 24.2133 45.3585 24.1489C51.3724 24.2134 57.1668 21.9196 61.4707 17.7705C65.7746 13.6215 68.2367 7.95594 68.317 2.01649C68.317 1.33601 68.2803 0.662496 68.221 0.00292969H62.8926C63.4249 1.51 63.6966 3.09485 63.6961 4.69101Z" fill="#222F5C"/>
<path d="M0 23.2266V48H33.5504C25.1207 47.086 17.1429 43.7669 10.5918 38.4482C5.66133 34.4779 1.9857 29.1956 0 23.2266Z" fill="#222F5C"/>
<path d="M75.4573 0.000976562H69.4849C69.5428 0.664726 69.5753 1.33684 69.5753 2.01454C69.4637 8.28501 66.8633 14.2614 62.3339 18.6568C57.8046 23.0523 51.7086 25.5151 45.3587 25.5151C39.0088 25.5151 32.9128 23.0523 28.3835 18.6568C23.8541 14.2614 21.2537 8.28501 21.1421 2.01454C21.1421 1.33684 21.1747 0.664726 21.2353 0.000976562H15.8955C15.8885 0.256158 15.8828 0.505761 15.8828 0.759548C15.8828 19.0629 33.8731 33.9512 55.9873 33.9512C59.2577 33.9543 62.5196 33.6225 65.7207 32.9612C70.052 29.6832 73.4541 25.3573 75.5983 20.4015V0.239452L75.4573 0.000976562Z" fill="#222F5C"/>
<path d="M0 20.8231C3.59182 36.0949 19.8793 47.6589 39.3646 47.6589C54.1342 47.6589 67.0557 41.0158 74.0164 31.1558C71.7984 32.0663 69.5099 32.7994 67.173 33.3478C59.9733 39.1054 50.9661 42.2032 41.7027 42.1077C32.093 42.2157 22.7704 38.8745 15.4672 32.705C12.0807 29.9018 9.34955 26.407 7.46181 22.4613C5.57408 18.5156 4.57458 14.2127 4.53214 9.84888C4.53132 6.48985 5.12575 3.15661 6.28852 0L0 0V20.8231Z" fill="#222F5C"/>
<path d="M75.5996 23.1396C73.7687 26.612 71.3157 29.7278 68.3594 32.3359C70.5396 31.7495 72.6715 31.0004 74.7368 30.0951C75.0376 29.6335 75.3252 29.165 75.5996 28.6895L75.5996 23.1396Z" fill="#222F5C"/>
<path d="M27.2164 24.7428C19.5048 18.3424 15.2563 9.82517 15.2563 0.759966C15.2563 0.506179 15.2591 0.253787 15.2662 0H7.52492C6.29676 3.14154 5.66592 6.4799 5.66406 9.84748C5.66406 26.9586 21.8314 40.8764 41.7051 40.8764C49.8295 40.9341 57.7716 38.4994 64.435 33.9084C61.6462 34.3942 58.8196 34.6377 55.9877 34.6363C45.5191 34.7744 35.3347 31.2723 27.2165 24.7428" fill="#222F5C"/>
<path d="M60.1621 0.000976562H54.1446C54.1588 0.126446 54.1659 0.252611 54.1657 0.378868C54.1657 3.11753 51.5382 5.33747 48.298 5.33747C45.0549 5.33747 42.4274 3.11753 42.4274 0.378868C42.4279 0.25263 42.435 0.126502 42.4485 0.000976562H36.0442C35.3695 1.47393 35.0214 3.07236 35.0234 4.68906C35.0234 11.3544 40.8885 16.776 48.1003 16.776C55.315 16.776 61.1843 11.3544 61.1843 4.68906C61.1858 3.07227 60.8373 1.47386 60.1621 0.000976562Z" fill="#222F5C"/>
<path d="M44.8633 0.0488051C44.8633 1.4516 46.4022 2.59086 48.2998 2.59086C50.2002 2.59086 51.7363 1.4516 51.7363 0.0488051V0H44.8633V0.0488051Z" fill="#222F5C"/>
<path d="M184.863 29.5403C184.04 29.5358 183.226 29.3803 182.461 29.0816V18.3249C183.156 18.1434 183.872 18.0534 184.591 18.0572C187.617 18.0572 189.979 19.8546 189.979 23.6823C189.979 27.2046 188.121 29.5403 184.863 29.5403H184.863ZM184.942 14.2699C182.511 14.2651 180.098 14.6794 177.812 15.4942V42.4179H178.023C179.187 42.4157 180.304 41.9626 181.133 41.1562C181.962 40.3497 182.438 39.2542 182.458 38.1049H182.461V32.7545C183.311 33.033 184.2 33.1747 185.096 33.1742C186.393 33.2122 187.685 32.9858 188.891 32.5092C190.096 32.0326 191.189 31.3159 192.101 30.4038C193.014 29.4917 193.727 28.4038 194.195 27.2078C194.663 26.0119 194.877 24.7334 194.823 23.4522C194.823 17.8257 191.452 14.2699 184.942 14.2699H184.942ZM170.604 6.34534C170.052 6.36382 169.517 6.54267 169.067 6.85953C168.618 7.17639 168.272 7.61719 168.075 8.12684C167.877 8.63649 167.836 9.19236 167.956 9.72496C168.077 10.2576 168.354 10.7433 168.752 11.1213C169.151 11.4994 169.653 11.7531 170.197 11.8506C170.74 11.9482 171.301 11.8853 171.809 11.6698C172.317 11.4544 172.749 11.0959 173.051 10.6392C173.354 10.1825 173.513 9.64786 173.51 9.10213C173.503 8.7326 173.422 8.36808 173.272 8.02946C173.122 7.69083 172.906 7.38473 172.636 7.12867C172.366 6.87262 172.047 6.67164 171.699 6.53723C171.35 6.40281 170.978 6.33761 170.604 6.34534ZM168.277 33.3011H168.489C169.666 33.2996 170.795 32.8368 171.627 32.0143C172.459 31.1919 172.927 30.077 172.928 28.9142V14.6882H168.277L168.277 33.3011ZM155.759 19.3944C155.759 18.3249 156.729 17.8257 158.359 17.8257C160.15 17.8901 161.912 18.2934 163.549 19.0138V15.1874C161.833 14.5314 160.003 14.2195 158.164 14.2699C153.743 14.2699 151.226 16.4884 151.226 19.6259C151.226 25.7865 159.675 24.5636 159.675 27.8182C159.675 29.0425 158.436 29.7314 156.536 29.7314C154.77 29.6903 153.057 29.1306 151.614 28.1236L150.105 31.4911C152.161 32.6683 154.511 33.2514 156.886 33.1742C160.759 33.1742 164.364 31.6069 164.364 27.5491C164.364 21.309 155.759 22.267 155.759 19.3944H155.759ZM141.54 14.2699C139.244 14.3198 137.037 15.1586 135.299 16.6418V14.6882H130.649V33.3011H130.861C132.036 33.2999 133.162 32.8393 133.993 32.0201C134.825 31.2008 135.294 30.0896 135.298 28.9296V20.1251C136.602 19.0126 138.233 18.3417 139.951 18.2106C142.315 18.2106 142.661 20.2771 142.661 22.1526V33.3011H142.876C144.04 33.2994 145.157 32.8461 145.986 32.0389C146.816 31.2317 147.291 30.1351 147.309 28.9853H147.312V20.7763C147.312 15.9139 144.33 14.2699 141.54 14.2699H141.54ZM117.978 29.6156C115.148 29.6156 113.482 27.2437 113.482 23.7228C113.482 20.3538 114.916 17.9038 117.86 17.9038C120.731 17.9038 122.36 20.2381 122.36 23.7228C122.36 27.128 120.886 29.6156 117.978 29.6156H117.978ZM117.938 14.2699C116.734 14.2436 115.538 14.4569 114.42 14.897C113.302 15.3371 112.284 15.995 111.429 16.8315C109.639 18.7282 108.679 21.2455 108.756 23.8371C108.706 25.1462 108.932 26.4513 109.418 27.6698C109.905 28.8884 110.643 29.994 111.584 30.9166C113.32 32.4389 115.58 33.2468 117.9 33.1742C119.126 33.2105 120.346 32.9984 121.486 32.5509C122.626 32.1034 123.661 31.43 124.527 30.5722C125.398 29.6495 126.076 28.5658 126.522 27.3833C126.967 26.2008 127.171 24.943 127.122 23.6823C127.216 21.1885 126.344 18.7531 124.684 16.8719C123.798 16.007 122.743 15.3301 121.583 14.8826C120.423 14.4352 119.182 14.2266 117.938 14.2699H117.938ZM101.468 29.4622C97.827 29.4622 96.123 26.7068 96.123 23.6084C96.0637 22.8715 96.1584 22.1304 96.4014 21.4312C96.6444 20.7319 97.0304 20.0896 97.5355 19.5439C98.0405 18.9983 98.6538 18.5611 99.3372 18.2595C100.021 17.958 100.759 17.7984 101.508 17.7908C103.173 17.749 104.802 18.276 106.119 19.2829L106.197 15.5319C104.607 14.6344 102.794 14.197 100.964 14.2699C99.6944 14.2453 98.4328 14.4775 97.257 14.9521C96.0812 15.4267 95.0161 16.1337 94.1271 17.0297C93.2382 17.9257 92.5441 18.9918 92.0875 20.1625C91.631 21.3331 91.4216 22.5836 91.4723 23.8371C91.4723 28.9268 94.5332 33.1742 100.498 33.1742C102.8 33.1411 105.044 32.4647 106.972 31.2234L105.809 28.2003C104.508 29.0106 103.006 29.4475 101.468 29.4622" fill="#888C8E"/>
</svg>
