<svg width="262" height="48" viewBox="0 0 262 48" fill="none" xmlns="http://www.w3.org/2000/svg">
<path d="M65.0307 12.2629C66.094 12.2629 66.9682 12.1359 67.6534 11.8819C68.3386 11.6279 68.8614 11.2203 69.2217 10.6591C69.5821 10.098 69.8272 9.46 69.9571 8.74526C70.0871 8.03052 70.1521 7.12971 70.1521 6.04283C70.1521 4.95594 70.0812 4.07285 69.9394 3.39355C69.7977 2.71425 69.5407 2.12355 69.1686 1.62146C68.7964 1.11937 68.2737 0.759045 67.6003 0.540487C66.9269 0.32193 66.0704 0.212651 65.0307 0.212651H60.9727V12.2629H65.0307ZM65.0307 10.1364H63.4181V2.33916H65.0307C65.6214 2.33916 66.091 2.40118 66.4396 2.52523C66.7881 2.64927 67.0509 2.87669 67.2281 3.20748C67.4053 3.53827 67.5176 3.9045 67.5648 4.30618C67.6121 4.70785 67.6357 5.24243 67.6357 5.90992C67.6357 6.57741 67.6239 7.10017 67.6003 7.47822C67.5176 8.43515 67.3049 9.09673 66.9623 9.46296C66.5606 9.91189 65.9168 10.1364 65.0307 10.1364ZM74.7241 12.2629V0.212651H72.2786V12.2629H74.7241ZM79.7922 12.2629V8.75412H81.777C83.1828 8.75412 84.249 8.37903 84.9756 7.62885C85.7022 6.87866 86.0654 5.80064 86.0654 4.39478C86.0654 1.60669 84.636 0.212651 81.777 0.212651H77.3468V12.2629H79.7922ZM81.7593 6.66306H79.7922V2.30372H81.7593C82.3854 2.30372 82.8461 2.46616 83.1415 2.79104C83.4368 3.11592 83.5845 3.6505 83.5845 4.39478C83.5845 5.90697 82.9761 6.66306 81.7593 6.66306ZM89.2198 12.2629L89.6982 10.0832H93.9158L94.3943 12.2629H96.8397L94.1285 0.212651H89.4856L86.7743 12.2629H89.2198ZM93.4551 7.95668H90.159L91.3817 2.23283H92.2323L93.4551 7.95668ZM100.898 12.2629V8.2225H103.255L104.655 12.2629H107.331L105.612 7.65543C106.793 6.91115 107.384 5.75338 107.384 4.18213C107.384 1.53581 105.966 0.212651 103.131 0.212651H98.4523V12.2629H100.898ZM103.166 6.13143H100.898V2.30372H103.131C103.698 2.30372 104.132 2.47502 104.433 2.81762C104.734 3.16023 104.885 3.62097 104.885 4.19985C104.885 4.77873 104.743 5.24538 104.46 5.5998C104.176 5.95422 103.745 6.13143 103.166 6.13143ZM114.029 12.2629V2.3746H117.219V0.212651H108.358V2.3746H111.584V12.2629H114.029ZM121.206 12.2629V0.212651H118.76V12.2629H121.206ZM126.274 12.2629V2.94167H126.54L128.897 11.7312H131.342L133.699 2.94167H133.965V12.2629H136.41V0.212651H132.246L130.12 9.00221L127.993 0.212651H123.829V12.2629H126.274ZM146.83 12.2629V10.1364H141.479V7.24785H145.767V5.15678H141.479V2.33916H146.83V0.212651H139.033V12.2629H146.83ZM151.296 12.2629V2.33916H151.473L154.486 12.2629H158.508V0.212651H156.063V10.1364H155.886L152.98 0.212651H148.851V12.2629H151.296ZM165.721 12.2629V2.3746H168.911V0.212651H160.05V2.3746H163.275V12.2629H165.721ZM174.918 12.4755C176.749 12.4755 178.037 11.9793 178.781 10.987C179.537 9.98277 179.915 8.41743 179.915 6.29092C179.915 4.16441 179.54 2.5843 178.79 1.55058C178.04 0.516859 176.749 0 174.918 0C173.087 0 171.796 0.516859 171.046 1.55058C170.296 2.5843 169.921 4.16441 169.921 6.29092C169.921 8.41743 170.296 9.97982 171.046 10.9781C171.796 11.9764 173.087 12.4755 174.918 12.4755ZM174.918 10.349C173.961 10.349 173.305 10.0418 172.951 9.42752C172.608 8.80138 172.437 7.7588 172.437 6.29978C172.437 4.84076 172.614 3.78046 172.969 3.11888C173.323 2.4573 173.973 2.12651 174.918 2.12651C175.863 2.12651 176.513 2.4573 176.867 3.11888C177.222 3.78046 177.399 4.84076 177.399 6.29978C177.399 7.7588 177.225 8.79842 176.876 9.41866C176.528 10.0389 175.875 10.349 174.918 10.349ZM62.3017 29.9838V25.6953H65.7041C68.2559 25.6953 69.5318 24.319 69.5318 21.5663C69.5318 20.2432 69.2217 19.2626 68.6015 18.6247C67.9813 17.9867 67.0155 17.6677 65.7041 17.6677H61.203V29.9838H62.3017ZM65.7041 24.7206H62.3017V18.6424H65.7041C66.6493 18.6424 67.3345 18.8787 67.7598 19.3512C68.1851 19.8238 68.3977 20.5621 68.3977 21.5663C68.3977 23.6692 67.4999 24.7206 65.7041 24.7206ZM79.1011 29.9838V29.0091H72.8102V24.2067H78.0379V23.2321H72.8102V18.6601H79.1011V17.6677H71.7115V29.9838H79.1011ZM82.5922 29.9838V25.1282H86.349L88.7767 29.9838H89.9995L87.4654 24.9156C89.0485 24.4903 89.84 23.2912 89.84 21.3182C89.84 20.0541 89.524 19.1297 88.8919 18.5449C88.2599 17.9601 87.3 17.6677 86.0123 17.6677H81.4935V29.9838H82.5922ZM86.0123 24.1536H82.5922V18.6424H86.0123C86.9338 18.6424 87.6131 18.8609 88.0502 19.2981C88.4873 19.7352 88.7059 20.4145 88.7059 21.336C88.7059 23.2144 87.808 24.1536 86.0123 24.1536ZM103.024 29.9838V28.9914H97.3891V17.6677H96.2904V29.9838H103.024ZM104.796 29.9838L105.771 26.5813H111.265L112.257 29.9838H113.338L109.811 17.6677H107.242L103.698 29.9838H104.796ZM110.999 25.6067H106.037L108.039 18.6247H108.996L110.999 25.6067ZM122.907 29.9838V18.6601H126.77V17.6677H117.91V18.6601H121.808V29.9838H122.907ZM129.641 29.9838V25.1282H133.398L135.826 29.9838H137.048L134.514 24.9156C136.097 24.4903 136.889 23.2912 136.889 21.3182C136.889 20.0541 136.573 19.1297 135.941 18.5449C135.309 17.9601 134.349 17.6677 133.061 17.6677H128.542V29.9838H129.641ZM133.061 24.1536H129.641V18.6424H133.061C133.983 18.6424 134.662 18.8609 135.099 19.2981C135.536 19.7352 135.755 20.4145 135.755 21.336C135.755 23.2144 134.857 24.1536 133.061 24.1536ZM139.441 29.9838L140.415 26.5813H145.909L146.901 29.9838H147.982L144.456 17.6677H141.886L138.342 29.9838H139.441ZM145.643 25.6067H140.681L142.684 18.6247H143.641L145.643 25.6067ZM153.263 30.1255C154.527 30.1255 155.487 29.8331 156.143 29.2483C156.798 28.6635 157.126 27.7096 157.126 26.3864C157.126 25.3586 156.857 24.6261 156.32 24.189C155.782 23.7519 154.885 23.4093 153.626 23.1612C152.368 22.9131 151.523 22.6414 151.092 22.3461C150.661 22.0507 150.445 21.4777 150.445 20.6271C150.445 19.174 151.396 18.4475 153.299 18.4475C153.984 18.4475 155.141 18.5479 156.772 18.7487L156.86 17.8095L156.276 17.7209C155.023 17.5555 154.007 17.4728 153.228 17.4728C150.629 17.4728 149.329 18.5479 149.329 20.698C149.329 21.3005 149.406 21.7997 149.559 22.1954C149.713 22.5912 149.97 22.9161 150.33 23.1701C150.691 23.4241 151.077 23.619 151.491 23.7549C151.904 23.8907 152.557 24.0413 153.449 24.2067C154.341 24.3721 154.991 24.6055 155.398 24.9067C155.806 25.208 156.01 25.775 156.01 26.6079C156.01 27.4408 155.779 28.0729 155.319 28.5041C154.858 28.9353 154.185 29.1509 153.299 29.1509C152.412 29.1509 151.16 29.0505 149.542 28.8496L149.418 29.7888L150.056 29.8774C151.272 30.0428 152.342 30.1255 153.263 30.1255ZM160.653 29.9838V24.7206H165.898V23.746H160.653V18.6601H166.82V17.6677H159.554V29.9838H160.653ZM173.19 30.161C175.015 30.161 176.274 29.6707 176.965 28.6901C177.656 27.7096 178.001 26.1206 178.001 23.9232C178.001 21.7258 177.65 20.1044 176.947 19.0588C176.244 18.0133 174.989 17.4905 173.181 17.4905C171.374 17.4905 170.122 18.0162 169.425 19.0677C168.728 20.1191 168.379 21.7288 168.379 23.8966C168.379 26.0645 168.725 27.6505 169.416 28.6547C170.107 29.6589 171.365 30.161 173.19 30.161ZM173.19 29.1686C171.731 29.1686 170.754 28.7581 170.257 27.937C169.761 27.1159 169.513 25.7662 169.513 23.8878C169.513 22.9663 169.563 22.1925 169.664 21.5663C169.764 20.9402 169.95 20.3849 170.222 19.9006C170.73 18.9555 171.716 18.4829 173.181 18.4829C174.599 18.4829 175.568 18.92 176.088 19.7942C176.607 20.6685 176.867 22.0477 176.867 23.9321C176.867 25.8164 176.619 27.1602 176.123 27.9636C175.627 28.7669 174.649 29.1686 173.19 29.1686ZM181.687 29.9838V25.1282H185.444L187.872 29.9838H189.095L186.561 24.9156C188.144 24.4903 188.935 23.2912 188.935 21.3182C188.935 20.0541 188.619 19.1297 187.987 18.5449C187.355 17.9601 186.395 17.6677 185.108 17.6677H180.589V29.9838H181.687ZM185.108 24.1536H181.687V18.6424H185.108C186.029 18.6424 186.708 18.8609 187.145 19.2981C187.583 19.7352 187.801 20.4145 187.801 21.336C187.801 23.2144 186.903 24.1536 185.108 24.1536ZM192.586 29.9838V18.8019H192.834L196.697 29.5762H197.991L201.854 18.8019H202.102V29.9838H203.201V17.6677H201.145L197.353 28.442L193.543 17.6677H191.487V29.9838H192.586ZM206.284 29.9838L207.259 26.5813H212.752L213.744 29.9838H214.825L211.299 17.6677H208.729L205.185 29.9838H206.284ZM212.486 25.6067H207.524L209.527 18.6247H210.484L212.486 25.6067ZM224.005 30.0015V29.0091H217.253V28.637L224.005 19.1386V17.6677H216.03V18.6601H222.782V19.05L216.03 28.5484V30.0015H224.005ZM227.425 29.9838V17.6677H226.326V29.9838H227.425ZM234.841 30.161C236.666 30.161 237.925 29.6707 238.616 28.6901C239.307 27.7096 239.652 26.1206 239.652 23.9232C239.652 21.7258 239.301 20.1044 238.598 19.0588C237.895 18.0133 236.64 17.4905 234.832 17.4905C233.025 17.4905 231.773 18.0162 231.076 19.0677C230.379 20.1191 230.03 21.7288 230.03 23.8966C230.03 26.0645 230.376 27.6505 231.067 28.6547C231.758 29.6589 233.016 30.161 234.841 30.161ZM234.841 29.1686C233.382 29.1686 232.405 28.7581 231.908 27.937C231.412 27.1159 231.164 25.7662 231.164 23.8878C231.164 22.9663 231.214 22.1925 231.315 21.5663C231.415 20.9402 231.601 20.3849 231.873 19.9006C232.381 18.9555 233.367 18.4829 234.832 18.4829C236.25 18.4829 237.219 18.92 237.739 19.7942C238.258 20.6685 238.518 22.0477 238.518 23.9321C238.518 25.8164 238.27 27.1602 237.774 27.9636C237.278 28.7669 236.3 29.1686 234.841 29.1686ZM243.338 29.9838V18.6601H243.728L248.92 29.9838H251.047V17.6677H249.966V29.0091H249.558L244.402 17.6677H242.24V29.9838H243.338ZM261.538 29.9838V29.0091H255.247V24.2067H260.474V23.2321H255.247V18.6601H261.538V17.6677H254.148V29.9838H261.538ZM65.6864 47.7047C68.6045 47.7047 70.0635 45.5959 70.0635 41.3783C70.0635 37.3852 68.6045 35.3886 65.6864 35.3886H61.203V47.7047H65.6864ZM65.6864 46.73H62.3017V36.381H65.6864C67.8484 36.381 68.9293 38.0468 68.9293 41.3783C68.9293 44.9461 67.8484 46.73 65.6864 46.73ZM73.7494 47.7047V35.3886H72.6507V47.7047H73.7494ZM81.0682 47.8819C81.6352 47.8819 82.35 47.8257 83.2124 47.7135C84.0748 47.6013 84.6773 47.5097 85.0199 47.4388V41.4846H81.6707V42.4593H83.9389V46.606C82.8993 46.795 81.9601 46.8895 81.1213 46.8895C79.7036 46.8895 78.7438 46.4701 78.2417 45.6313C77.7396 44.7925 77.4885 43.4398 77.4885 41.5732C77.4885 39.7066 77.7396 38.3451 78.2417 37.4886C78.7438 36.632 79.7095 36.2038 81.139 36.2038C82.2141 36.2038 83.49 36.3396 84.9667 36.6114L85.0199 35.6722L84.4351 35.5481C83.2892 35.3237 82.1609 35.2114 81.0504 35.2114C79.2311 35.2114 77.9847 35.7785 77.3113 36.9126C76.9569 37.4915 76.7088 38.1531 76.567 38.8974C76.4253 39.6416 76.3544 40.5395 76.3544 41.5909C76.3544 43.7056 76.697 45.2828 77.3822 46.3224C78.0674 47.362 79.2961 47.8819 81.0682 47.8819ZM88.8653 47.7047V35.3886H87.7667V47.7047H88.8653ZM95.6347 47.7047V36.381H99.4979V35.3886H90.6374V36.381H94.536V47.7047H95.6347ZM101.27 47.7047L102.245 44.3022H107.738L108.73 47.7047H109.811L106.285 35.3886H103.715L100.171 47.7047H101.27ZM107.472 43.3276H102.51L104.513 36.3456H105.47L107.472 43.3276ZM118.53 47.7047V46.7123H112.895V35.3886H111.796V47.7047H118.53ZM127.692 47.7047V46.73H121.401V41.9276H126.629V40.953H121.401V36.381H127.692V35.3886H120.302V47.7047H127.692Z" fill="#0066CC"/>
<path d="M47.8464 0.154297V48.0007H0V0.154297H47.8464ZM28.4598 12.6771H20.3436V36.7775H28.4598C30.5863 36.7775 32.3347 36.5235 33.7051 36.0155C35.0756 35.5075 36.1211 34.6923 36.8417 33.57C37.5624 32.4477 38.0527 31.1718 38.3126 29.7423C38.5725 28.3128 38.7024 26.5112 38.7024 24.3374C38.7024 22.1637 38.5607 20.3975 38.2771 19.0389C37.9936 17.6803 37.4797 16.4989 36.7354 15.4947C35.9911 14.4905 34.9456 13.7699 33.5988 13.3327C32.3001 12.9112 30.6609 12.693 28.6811 12.6779L28.4598 12.6771ZM28.4598 16.9301C29.6412 16.9301 30.5804 17.0541 31.2774 17.3022C31.9744 17.5503 32.5001 18.0051 32.8545 18.6667C33.209 19.3283 33.4334 20.0608 33.5279 20.8641C33.6224 21.6675 33.6697 22.7366 33.6697 24.0716C33.6697 25.4066 33.6461 26.4521 33.5988 27.2082C33.4334 29.1221 33.0081 30.4452 32.3229 31.1777C31.5196 32.0755 30.2318 32.5245 28.4598 32.5245H25.2346V16.9301H28.4598ZM11.8356 18.7612C10.9682 18.7612 10.2537 19.0388 9.69682 19.5974C9.13996 20.1578 8.86045 20.8568 8.86045 21.6992C8.86045 22.5419 9.14365 23.2472 9.70452 23.8156C10.2642 24.3835 10.9774 24.6682 11.843 24.6682C12.7068 24.6682 13.4099 24.3889 13.9535 23.8321C14.4938 23.2726 14.7674 22.5756 14.7674 21.7356C14.7674 20.8968 14.4938 20.1906 13.9535 19.6201C13.4099 19.0468 12.7037 18.7612 11.8356 18.7612Z" fill="#0066CC"/>
</svg>
