<svg width="48" height="48" viewBox="0 0 48 48" fill="none" xmlns="http://www.w3.org/2000/svg">
<path d="M48 0V48H0V0H48ZM28.5511 12.563H20.4089V36.7407H28.5511C30.6844 36.7407 32.4385 36.4859 33.8133 35.9763C35.1881 35.4667 36.237 34.6489 36.96 33.523C37.683 32.397 38.1748 31.117 38.4356 29.683C38.6963 28.2489 38.8267 26.4415 38.8267 24.2607C38.8267 22.08 38.6844 20.3081 38.4 18.9452C38.1156 17.5822 37.6 16.397 36.8533 15.3896C36.1067 14.3822 35.0578 13.6593 33.7067 13.2207C32.4038 12.7979 30.7593 12.5789 28.7732 12.5638L28.5511 12.563ZM28.5511 16.8296C29.7363 16.8296 30.6785 16.9541 31.3778 17.203C32.077 17.4519 32.6044 17.9081 32.96 18.5719C33.3156 19.2356 33.5407 19.9704 33.6356 20.7763C33.7304 21.5822 33.7778 22.6548 33.7778 23.9941C33.7778 25.3333 33.7541 26.3822 33.7067 27.1407C33.5407 29.0607 33.1141 30.3881 32.4267 31.123C31.6207 32.0237 30.3289 32.4741 28.5511 32.4741H25.3156V16.8296H28.5511ZM11.8736 18.6667C11.0034 18.6667 10.2866 18.9451 9.72795 19.5055C9.1693 20.0677 8.88889 20.7689 8.88889 21.614C8.88889 22.4595 9.173 23.167 9.73567 23.7373C10.2971 24.307 11.0126 24.5926 11.881 24.5926C12.7476 24.5926 13.4529 24.3124 13.9983 23.7538C14.5403 23.1925 14.8148 22.4933 14.8148 21.6506C14.8148 20.8091 14.5403 20.1007 13.9983 19.5283C13.4529 18.9532 12.7445 18.6667 11.8736 18.6667Z" fill="#0066CC"/>
</svg>
