<svg width="186" height="123" viewBox="0 0 186 123" fill="none" xmlns="http://www.w3.org/2000/svg">
<path d="M161.423 96.4217H42.3899C39.9921 96.4217 38.0225 94.4434 38.0225 92.035V4.38671C38.0225 1.97832 39.9921 0 42.3899 0H161.423C163.821 0 165.79 1.97832 165.79 4.38671V92.035C165.79 94.5294 163.906 96.4217 161.423 96.4217Z" fill="#EAF4FE"/>
<path d="M165.79 9.2035H38.0225V4.38671C38.0225 1.97832 39.9921 0 42.3899 0H161.423C163.821 0 165.79 1.97832 165.79 4.38671V9.2035Z" fill="#9AC7F7"/>
<path d="M44.7022 4.64426C44.7022 5.67643 43.8458 6.45056 42.9038 6.45056C41.8762 6.45056 41.1055 5.59042 41.1055 4.64426C41.1055 3.6121 41.9618 2.83797 42.9038 2.83797C43.9314 2.75196 44.7022 3.6121 44.7022 4.64426Z" fill="#387BFF"/>
<path d="M50.5254 4.64426C50.5254 5.67643 49.669 6.45056 48.7271 6.45056C47.6994 6.45056 46.9287 5.59042 46.9287 4.64426C46.9287 3.6121 47.7851 2.83797 48.7271 2.83797C49.669 2.75196 50.5254 3.6121 50.5254 4.64426Z" fill="#FBD260"/>
<path d="M56.3486 4.64426C56.3486 5.67643 55.4923 6.45056 54.5503 6.45056C53.5227 6.45056 52.752 5.59042 52.752 4.64426C52.752 3.6121 53.6083 2.83797 54.5503 2.83797C55.4923 2.75196 56.3486 3.6121 56.3486 4.64426Z" fill="#EAF4FE"/>
<path d="M166.047 59.3496L175.981 68.037L185.915 76.7244H166.047H146.18L156.113 68.037L166.047 59.3496Z" fill="#0D5AAD"/>
<path d="M181.633 72.8535L185.915 76.7241V102.098C185.915 103.561 184.716 104.679 183.345 104.679H148.749C147.293 104.679 146.18 103.475 146.18 102.098V76.7241L150.461 73.1976" fill="#9AC7F7"/>
<path d="M181.633 72.8537L185.915 76.7244V102.099C185.915 103.561 184.716 104.679 183.345 104.679H148.749C147.293 104.679 146.18 103.475 146.18 102.099V76.7244L150.89 72.5957" fill="#0D5AAD"/>
<path d="M161.337 89.541L146.351 102.959C146.693 103.905 147.635 104.679 148.748 104.679H183.345C184.458 104.679 185.4 103.991 185.743 102.959L170.757 89.541H161.337Z" fill="#9AC7F7"/>
<path d="M170.843 89.6267L185.743 103.045C185.658 103.217 185.658 103.303 185.572 103.389C185.829 103.045 185.915 102.529 185.915 102.099V76.7246L170.843 89.6267Z" fill="#ADCBFE"/>
<path d="M146.351 103.045L161.252 89.6267L146.18 76.7246V102.099C146.18 102.615 146.265 103.045 146.522 103.389C146.437 103.217 146.351 103.131 146.351 103.045Z" fill="#ADCBFE"/>
<path d="M103 80C117.912 80 130 67.9117 130 53C130 38.0883 117.912 26 103 26C88.0883 26 76 38.0883 76 53C76 67.9117 88.0883 80 103 80Z" fill="#F99B0F"/>
<path d="M103 76C115.703 76 126 65.7025 126 53C126 40.2974 115.703 30 103 30C90.2975 30 80 40.2974 80 53C80 65.7025 90.2975 76 103 76Z" fill="#FFC910"/>
<path d="M106.481 41.5657C106.481 42.0412 106.481 42.7543 106.27 43.7052C106.059 44.656 105.848 45.6069 105.637 46.7955C105.426 47.9841 105.004 49.4103 104.793 51.0744C104.372 52.7384 104.161 54.8778 103.739 57.255H102.473C102.052 54.6401 101.841 52.7384 101.419 51.0744C101.208 49.4103 100.786 47.9841 100.575 46.7955C100.364 45.8446 100.153 44.656 99.9424 43.7052C99.7315 42.7543 99.7314 42.0412 99.7314 41.5657C99.7314 40.6149 100.153 39.664 100.786 38.9509C101.419 38.2377 102.262 38 103.106 38C103.95 38 104.793 38.4754 105.426 39.1886C106.059 39.664 106.481 40.6149 106.481 41.5657ZM106.27 63.4356C106.27 64.3864 105.848 65.3373 105.215 66.0504C104.583 66.7636 103.739 67.0013 102.895 67.0013C102.052 67.0013 101.208 66.5259 100.575 65.8127C99.9423 65.0996 99.5205 64.1487 99.5205 63.1979C99.5205 62.247 99.9423 61.2961 100.575 60.583C101.208 59.8698 102.052 59.3944 102.895 59.3944C103.739 59.3944 104.583 59.8698 105.215 60.583C105.848 61.5338 106.27 62.4847 106.27 63.4356Z" fill="#0D5AAD"/>
<path d="M129.632 90.8516L123.031 94.6777L123.416 95.3482L130.017 91.5221L129.632 90.8516Z" fill="#84B5F4"/>
<path d="M123.373 106.191L122.987 106.861L129.587 110.69L129.972 110.02L123.373 106.191Z" fill="#84B5F4"/>
<path d="M113.638 112.334H112.867V119.989H113.638V112.334Z" fill="#84B5F4"/>
<path d="M113.638 83.0898H112.867V90.7451H113.638V83.0898Z" fill="#84B5F4"/>
<path d="M96.9002 90.8902L96.5146 91.5605L103.114 95.3897L103.5 94.7194L96.9002 90.8902Z" fill="#84B5F4"/>
<path d="M86.834 108.549L97.5384 105.023L108.157 101.582L104.732 112.248L101.221 123L97.4528 115.688L91.8008 121.365L88.4611 118.011L94.113 112.334L86.834 108.549Z" fill="#8AB3F5"/>
<path d="M97.5384 105.023L108.157 101.582L108.072 101.926L90.2594 119.817L88.4611 118.011L94.113 112.334L86.834 108.549L97.5384 105.023Z" fill="#497FDE"/>
<path d="M58.2322 35.8672L60.0306 33.2008L58.8317 31.9106C59.003 31.4805 59.0886 31.0504 59.2599 30.5343L60.9726 30.2763L61.2295 27.0078L59.3455 26.4917C59.2599 26.0616 59.1742 25.7175 59.0886 25.2875L60.63 24.0833L59.2599 21.1588L57.2046 21.6749C56.9477 21.4169 56.6908 21.0728 56.4339 20.8148L57.2046 18.9224L54.4643 17.2022L52.9228 18.6644C52.5803 18.4924 52.2378 18.4064 51.8952 18.3203L51.6383 16.342L48.3842 16.084L47.8704 18.0623C47.4422 18.1483 47.0996 18.1483 46.7571 18.2343L45.5582 16.6861L42.6466 18.0623L43.0748 19.9546C42.7322 20.2127 42.3897 20.4707 42.0472 20.8148L40.3345 20.1266L38.5361 22.7931L39.735 23.9973C39.5637 24.4273 39.3925 24.9434 39.2212 25.3735L37.6798 25.7175L37.4229 28.9861L38.8787 29.4162C38.9643 29.9322 39.0499 30.5343 39.1356 31.0504L38.0223 31.9106L39.3925 34.835L40.7626 34.491C41.1052 35.0071 41.4477 35.4371 41.8759 35.7812L41.5333 36.9854L44.188 38.7917L45.13 37.8455C45.6438 38.1036 46.2433 38.2756 46.8427 38.3616L47.014 39.6518L50.2682 39.9099L50.6963 38.5336C51.2958 38.4476 51.8096 38.3616 52.3234 38.1896L53.1798 39.3078L56.0914 37.9315L55.6632 36.3833C56.0914 36.0392 56.4339 35.6952 56.7764 35.3511L58.2322 35.8672ZM48.898 32.7707C46.5002 32.5987 44.6162 30.4483 44.7875 28.0399C44.9588 25.6315 47.0996 23.7392 49.4974 23.9113C51.8952 24.0833 53.7792 26.2336 53.6079 28.642C53.4367 31.1364 51.2958 32.9427 48.898 32.7707Z" fill="#9AC7F7"/>
<path d="M49.6683 21.5026C45.9003 21.2446 42.6462 24.083 42.3893 27.8677C42.1324 31.6523 44.9583 34.9208 48.7263 35.1788C52.4942 35.4369 55.7484 32.5984 56.0053 28.8138C56.2622 25.0292 53.4362 21.7607 49.6683 21.5026ZM48.8119 33.7166C45.8147 33.5446 43.5882 30.8781 43.7594 27.8677C43.9307 24.8572 46.5854 22.6208 49.5826 22.7928C52.5799 22.9649 54.8064 25.6313 54.6351 28.6418C54.3782 31.7383 51.8091 33.9746 48.8119 33.7166Z" fill="#497FDE"/>
<path d="M40.163 52.3818L41.7901 46.8769L39.0497 45.3286C39.0497 44.5545 39.0497 43.6944 38.9641 42.8342L41.7901 41.458L40.5055 35.8671L37.0801 35.9531C36.7376 35.265 36.395 34.6629 35.9668 34.0608L37.9365 31.2223L33.9972 27.0937L30.8287 29.072C30.3149 28.7279 29.7155 28.3839 29.116 28.0398L29.3729 24.4272L23.8923 22.793L22.0939 26.0615C21.4945 25.9755 20.8094 25.9755 20.1243 26.0615L18.5829 22.793L13.0166 24.0832L13.1022 27.6958C12.5028 27.9538 11.9033 28.2979 11.3039 28.6419L8.39226 26.6636L4.28177 30.6202L6.08011 33.5447C5.65193 34.1468 5.22376 34.8349 4.88122 35.523L1.62707 35.265L0 40.7699L2.6547 42.2321C2.56906 43.0923 2.48343 43.9524 2.56906 44.8125L0 46.0167L1.28453 51.6076H4.02486C4.3674 52.5538 4.88122 53.4139 5.39503 54.1881L3.93923 56.2524L7.87845 60.3811L10.0193 59.0909C10.8757 59.693 11.732 60.209 12.674 60.7251L12.5028 63.0475L17.9834 64.6818L19.0967 62.5314C20.1243 62.6174 21.1519 62.6174 22.2652 62.5314L23.2928 64.6818L28.8591 63.3916L28.7735 60.8972C29.7155 60.4671 30.5718 59.951 31.3425 59.3489L33.3978 60.7251L37.5083 56.7685L36.0525 54.3601C36.5663 53.586 36.9945 52.8118 37.4226 51.9517L40.163 52.3818ZM22.6077 52.0377C18.4116 53.0699 14.2155 50.4035 13.1878 46.1888C12.1602 41.9741 14.8149 37.7594 19.011 36.7272C23.2072 35.6951 27.4033 38.3615 28.4309 42.5762C29.4586 46.7909 26.8039 51.0916 22.6077 52.0377Z" fill="#1376E3"/>
<path d="M17.9836 32.5979C11.4754 34.1461 7.45049 40.6832 8.99192 47.2203C10.5334 53.7573 17.0416 57.8 23.5499 56.2517C30.0582 54.7035 34.0831 48.1664 32.5417 41.6293C31.0002 35.0923 24.4919 31.0496 17.9836 32.5979ZM23.0361 53.7573C17.898 54.9615 12.7599 51.779 11.4753 46.6182C10.2765 41.4573 13.445 36.2965 18.5831 35.0063C23.7212 33.8021 28.8593 36.9846 30.1439 42.1454C31.3428 47.3923 28.1742 52.5531 23.0361 53.7573Z" fill="#0063CB"/>
</svg>
