<svg width="48" height="32" viewBox="0 0 48 32" fill="none" xmlns="http://www.w3.org/2000/svg">
<path fill-rule="evenodd" clip-rule="evenodd" d="M0.90625 31.0767H46.2047V0.877441H0.90625V31.0767Z" fill="#003399"/>
<path fill-rule="evenodd" clip-rule="evenodd" d="M22.5909 7.45712L23.5466 6.7596L24.5026 7.45712L24.1388 6.32914L25.1097 5.63146H23.9129L23.5466 4.48975L23.1804 5.63274L21.9844 5.63146L22.9545 6.32914L22.5909 7.45712Z" fill="#FFCC00"/>
<path fill-rule="evenodd" clip-rule="evenodd" d="M17.6423 8.78604L18.5981 8.08852L19.5534 8.78604L19.1902 7.65806L20.1605 6.96038H18.9637L18.5974 5.81738L18.2313 6.96165L17.0352 6.96038L18.0053 7.65806L17.6423 8.78604Z" fill="#FFCC00"/>
<path fill-rule="evenodd" clip-rule="evenodd" d="M14.9802 9.44531L14.614 10.5896L13.418 10.5883L14.3881 11.2858L14.0244 12.414L14.9802 11.7164L15.936 12.414L15.5723 11.2858L16.5425 10.5883H15.3465L14.9802 9.44531Z" fill="#FFCC00"/>
<path fill-rule="evenodd" clip-rule="evenodd" d="M13.6528 16.6564L14.6079 17.3539L14.2449 16.2259L15.215 15.5284H14.019L13.6528 14.3853L13.2865 15.5308L12.0898 15.5284L13.0607 16.2259L12.697 17.3539L13.6528 16.6564Z" fill="#FFCC00"/>
<path fill-rule="evenodd" clip-rule="evenodd" d="M15.3465 20.4838L14.9802 19.3408L14.614 20.4851L13.418 20.4838L14.3881 21.1813L14.0244 22.3095L14.9802 21.6107L15.936 22.3095L15.5723 21.1813L16.5425 20.4838H15.3465Z" fill="#FFCC00"/>
<path fill-rule="evenodd" clip-rule="evenodd" d="M18.9715 24.11L18.6052 22.9683L18.2396 24.1113L17.043 24.11L18.0131 24.8075L17.6501 25.9356L18.6059 25.238L19.561 25.9356L19.198 24.8075L20.1682 24.11H18.9715Z" fill="#FFCC00"/>
<path fill-rule="evenodd" clip-rule="evenodd" d="M23.9129 25.4238L23.5466 24.2808L23.181 25.425L21.9844 25.4238L22.9545 26.1213L22.5915 27.2494L23.5473 26.5517L24.5024 27.2494L24.1387 26.1213L25.1096 25.4238H23.9129Z" fill="#FFCC00"/>
<path fill-rule="evenodd" clip-rule="evenodd" d="M28.8537 24.11L28.4881 22.9683L28.1212 24.1113L26.9258 24.11L27.8953 24.8075L27.5323 25.9356L28.4881 25.238L29.4439 25.9356L29.0795 24.8075L30.0503 24.11H28.8537Z" fill="#FFCC00"/>
<path fill-rule="evenodd" clip-rule="evenodd" d="M32.4799 20.4838L32.1131 19.3408L31.7462 20.4851L30.5508 20.4838L31.5216 21.1813L31.1573 22.3095L32.1131 21.6107L33.069 22.3095L32.7045 21.1813L33.6753 20.4838H32.4799Z" fill="#FFCC00"/>
<path fill-rule="evenodd" clip-rule="evenodd" d="M34.9891 15.5146H33.7924L33.4256 14.3716L33.0599 15.5159L31.8633 15.5146L32.8341 16.2121L32.4709 17.3402L33.4256 16.6414L34.3814 17.3402L34.0183 16.2121L34.9891 15.5146Z" fill="#FFCC00"/>
<path fill-rule="evenodd" clip-rule="evenodd" d="M31.1573 12.3985L32.113 11.701L33.069 12.3985L32.7047 11.2705L33.6755 10.5741H32.4799L32.113 9.43115L31.7463 10.5754L30.5508 10.5741L31.5216 11.2705L31.1573 12.3985Z" fill="#FFCC00"/>
<path fill-rule="evenodd" clip-rule="evenodd" d="M28.4998 5.81885L28.1342 6.96312L26.9375 6.96056L27.907 7.65936L27.544 8.7875L28.5011 8.0887L29.4556 8.7875L29.0925 7.65936L30.0633 6.96056H28.8654L28.4998 5.81885Z" fill="#FFCC00"/>
</svg>
