<svg width="24" height="24" viewBox="0 0 24 24" fill="none" xmlns="http://www.w3.org/2000/svg">
<path fill-rule="evenodd" clip-rule="evenodd" d="M19 3.99927H13.5C13.2239 3.99927 13 4.22313 13 4.49927C13 4.77541 13.2239 4.99927 13.5 4.99927H18.1992L9.83012 13.3684C9.63485 13.5636 9.63485 13.8802 9.83012 14.0755C10.0254 14.2707 10.342 14.2707 10.5372 14.0755L19 5.6127V10.4993C19 10.7754 19.2239 10.9993 19.5 10.9993C19.7761 10.9993 20 10.7754 20 10.4993V4.99927C20 4.44698 19.5523 3.99927 19 3.99927ZM17.01 12.4993C17.01 12.2231 17.2339 11.9993 17.51 11.9993C17.7784 12.0046 17.9947 12.2209 18 12.4893V17.9993C18 19.6561 16.6569 20.9993 15 20.9993H6C4.34315 20.9993 3 19.6561 3 17.9993V8.99927C3 7.34241 4.34315 5.99927 6 5.99927H11C11.2739 6.00459 11.4947 6.22536 11.5 6.49927C11.5 6.77541 11.2761 6.99927 11 6.99927H6C4.89543 6.99927 4 7.8947 4 8.99927V17.9993C4 19.1038 4.89543 19.9993 6 19.9993H15.01C16.1146 19.9993 17.01 19.1038 17.01 17.9993V12.4993Z" fill="#0073E6"/>
</svg>
