<svg width="104" height="104" viewBox="0 0 104 104" fill="none" xmlns="http://www.w3.org/2000/svg">
<circle cx="52" cy="52" r="52" fill="#F0F6FC"/>
<path d="M17.119 88.126C16.437 88.1251 15.7832 87.8536 15.301 87.3713C14.8188 86.889 14.5476 86.2352 14.5469 85.5532V37.8102C14.5475 37.1282 14.8187 36.4742 15.3009 35.9919C15.7831 35.5096 16.4369 35.2382 17.119 35.2373H86.8853C87.5672 35.2381 88.221 35.5095 88.7031 35.9919C89.1851 36.4743 89.456 37.1282 89.4564 37.8102V85.5532C89.4559 86.2351 89.185 86.889 88.7029 87.3713C88.2209 87.8537 87.5672 88.1251 86.8853 88.126H17.119Z" fill="#EAF4FE"/>
<path d="M89.2136 85.5535C89.2138 86.1717 88.9685 86.7647 88.5315 87.2021C88.0946 87.6394 87.5018 87.8853 86.8836 87.8857H17.1172C16.811 87.8857 16.5077 87.8254 16.2247 87.7082C15.9418 87.591 15.6847 87.4192 15.4681 87.2026C15.2516 86.986 15.0798 86.7289 14.9626 86.446C14.8454 86.163 14.7851 85.8597 14.7852 85.5535V37.8105C14.785 37.5042 14.8452 37.2009 14.9624 36.9179C15.0795 36.6349 15.2513 36.3777 15.4679 36.1612C15.6845 35.9446 15.9416 35.7728 16.2246 35.6557C16.5076 35.5386 16.811 35.4784 17.1172 35.4785H86.8836C87.1897 35.4785 87.4928 35.5389 87.7756 35.6561C88.0584 35.7734 88.3154 35.9452 88.5317 36.1617C88.7481 36.3783 88.9197 36.6354 89.0367 36.9183C89.1537 37.2012 89.2138 37.5043 89.2136 37.8105V85.5535Z" fill="#0058B0"/>
<path d="M85.5637 38.8232H18.4336V81.6713H85.5637V38.8232Z" fill="#003E99"/>
<mask id="mask0_971:16293" style="mask-type:alpha" maskUnits="userSpaceOnUse" x="18" y="38" width="68" height="44">
<path d="M85.5637 38.8232H18.4336V81.6713H85.5637V38.8232Z" fill="#003C77"/>
</mask>
<g mask="url(#mask0_971:16293)">
<path d="M95.629 61.5432L95.6293 57.9628L93.7425 57.5596C93.6345 57.0384 93.4898 56.5254 93.3096 56.0246L94.697 54.7726L92.9068 51.6714L91.0681 52.2654C90.714 51.8694 90.3327 51.4987 89.9269 51.1559L90.5037 49.3722L87.4033 47.5819L86.1087 49.0146C85.604 48.8489 85.0884 48.7186 84.5656 48.6246L84.173 46.793H80.5929L80.1886 48.68C79.6675 48.7878 79.1546 48.9325 78.654 49.1129L77.4004 47.725L74.3005 49.5151L74.8943 51.3541C74.499 51.7084 74.1283 52.0893 73.785 52.4942L72.0017 51.918L70.2109 55.0191L71.6438 56.3135C71.4783 56.8182 71.348 57.3338 71.254 57.8566L69.4225 58.2499L69.4219 61.8298L71.3088 62.2339C71.4169 62.7547 71.5615 63.2673 71.7414 63.7678L70.354 65.0223L72.1442 68.1221L73.9836 67.5281C74.3376 67.9238 74.7186 68.2945 75.1238 68.6375L74.5475 70.4212L77.6482 72.2106L78.942 70.778C79.4467 70.9437 79.9623 71.0741 80.4852 71.1682L80.8785 73H84.4583L84.8627 71.1133C85.3839 71.0053 85.8969 70.8609 86.3979 70.6809L87.6506 72.0674L90.7514 70.2787L90.1574 68.4389C90.5529 68.0848 90.9236 67.7039 91.2668 67.2989L93.0498 67.8747L94.8398 64.7742L93.4075 63.4802C93.5734 62.9752 93.7038 62.4593 93.798 61.9361L95.629 61.5432ZM88.5403 59.897C88.5403 61.0866 88.1875 62.2494 87.5266 63.2385C86.8657 64.2275 85.9264 64.9984 84.8273 65.4536C83.7283 65.9088 82.519 66.0279 81.3523 65.7958C80.1856 65.5637 79.1139 64.9909 78.2728 64.1498C77.4316 63.3086 76.8588 62.2369 76.6268 61.0702C76.3947 59.9035 76.5138 58.6942 76.969 57.5952C77.4242 56.4962 78.1951 55.5568 79.1842 54.8959C80.1733 54.2351 81.3361 53.8823 82.5257 53.8823C83.3155 53.8823 84.0977 54.0378 84.8274 54.3401C85.5571 54.6424 86.2202 55.0854 86.7787 55.6439C87.3372 56.2025 87.7803 56.8655 88.0825 57.5953C88.3848 58.325 88.5403 59.1071 88.5403 59.897H88.5403Z" fill="#7EB3FF"/>
<path d="M90.8065 59.9857C90.8066 61.5717 90.3364 63.1221 89.4552 64.4409C88.5741 65.7596 87.3217 66.7874 85.8565 67.3944C84.3912 68.0013 82.7788 68.16 81.2233 67.8505C79.6677 67.541 78.2389 66.7772 77.1176 65.6556C75.9962 64.534 75.2326 63.1051 74.9234 61.5495C74.6142 59.9939 74.7732 58.3816 75.3804 56.9164C75.9876 55.4512 77.0157 54.199 78.3346 53.3182C79.6536 52.4373 81.2041 51.9674 82.7901 51.9678C83.8429 51.9678 84.8855 52.1751 85.8582 52.5781C86.8309 52.981 87.7147 53.5717 88.4591 54.3162C89.2035 55.0608 89.794 55.9447 90.1967 56.9174C90.5995 57.8902 90.8067 58.9328 90.8065 59.9857V59.9857Z" fill="#FFCC00"/>
<path d="M90.564 59.9865C90.5643 61.5243 90.1086 63.0275 89.2545 64.3062C88.4003 65.5849 87.1862 66.5816 85.7656 67.1702C84.3449 67.7588 82.7816 67.9129 81.2734 67.6129C79.7653 67.313 78.3799 66.5725 77.2926 65.4852C76.2052 64.3978 75.4648 63.0124 75.1649 61.5042C74.865 59.996 75.0191 58.4327 75.6078 57.0121C76.1964 55.5915 77.1931 54.3774 78.4719 53.5233C79.7506 52.6692 81.2539 52.2135 82.7916 52.2139C84.8529 52.2142 86.8297 53.0332 88.2873 54.4908C89.7448 55.9484 90.5638 57.9252 90.564 59.9865V59.9865Z" fill="#FFA800"/>
<path d="M88.9119 59.9855C88.912 61.1963 88.5531 62.3801 87.8804 63.3869C87.2078 64.3938 86.2517 65.1786 85.1331 65.642C84.0144 66.1055 82.7834 66.2268 81.5958 65.9906C80.4082 65.7544 79.3173 65.1713 78.4611 64.3151C77.6049 63.4589 77.0218 62.3681 76.7856 61.1805C76.5494 59.9929 76.6706 58.7619 77.1341 57.6432C77.5975 56.5245 78.3822 55.5684 79.3891 54.8958C80.3959 54.2231 81.5796 53.8641 82.7905 53.8643C84.4138 53.8646 85.9706 54.5097 87.1185 55.6575C88.2664 56.8054 88.9114 58.3621 88.9119 59.9855V59.9855Z" fill="#FFCC00"/>
<path d="M79.7344 59.059H80.4105C80.4523 58.6931 80.5516 58.336 80.7047 58.001C80.8469 57.6858 81.0424 57.3974 81.2827 57.1487C81.5201 56.9053 81.805 56.7134 82.1199 56.585C82.464 56.4472 82.832 56.3789 83.2026 56.3841C83.8519 56.3516 84.4898 56.5632 84.9909 56.9773C85.4634 57.4248 85.7457 58.0368 85.7794 58.6867H84.5548C84.5287 58.3259 84.376 57.9858 84.1235 57.7268C83.8725 57.4985 83.5415 57.3787 83.2026 57.3935C83.0056 57.3824 82.8087 57.4173 82.6276 57.4955C82.4464 57.5737 82.286 57.693 82.1589 57.844C81.893 58.1973 81.7319 58.6184 81.6941 59.059H83.7121L83.5949 59.6761H81.6646V60.3427H83.4673L83.3596 60.9598H81.6941C81.7271 61.3917 81.8909 61.8033 82.1637 62.1398C82.2974 62.2817 82.4605 62.3926 82.6417 62.4647C82.8228 62.5367 83.0176 62.5682 83.2122 62.5568C84.0286 62.5568 84.5022 62.0832 84.633 61.136H85.848C85.801 61.8171 85.5107 62.4586 85.03 62.9435C84.5255 63.3899 83.8658 63.6204 83.1931 63.5853C82.8212 63.5914 82.4518 63.5248 82.1055 63.3891C81.7946 63.2647 81.5115 63.0799 81.2724 62.8454C81.0327 62.6066 80.8385 62.3261 80.6991 62.0178C80.5481 61.6824 80.4507 61.3254 80.4105 60.9598H79.7344V60.3427H80.381V59.6761H79.7344L79.7344 59.059Z" fill="#FFA800"/>
</g>
<path d="M51.9184 37.1005C51.9188 37.1419 51.911 37.1829 51.8955 37.2212C51.88 37.2595 51.857 37.2943 51.8279 37.3237C51.7988 37.3531 51.7642 37.3764 51.7261 37.3923C51.6879 37.4082 51.647 37.4164 51.6057 37.4164C51.5643 37.4164 51.5234 37.4082 51.4853 37.3923C51.4471 37.3764 51.4125 37.3531 51.3834 37.3237C51.3544 37.2943 51.3314 37.2595 51.3159 37.2212C51.3003 37.1829 51.2926 37.1419 51.293 37.1005C51.2938 37.0182 51.3271 36.9394 51.3857 36.8815C51.4442 36.8235 51.5233 36.791 51.6057 36.791C51.6881 36.791 51.7671 36.8235 51.8257 36.8815C51.8842 36.9394 51.9175 37.0182 51.9184 37.1005Z" fill="#C5E1F9"/>
<path d="M49.2788 38.8237L50.5755 35.4785H39.894L38.5977 38.8237H49.2788Z" fill="#0561FC"/>
<path d="M21.9872 81.6709L19.5781 87.8848H30.2606L32.6686 81.6709H21.9872Z" fill="#0561FC"/>
<path d="M56.1393 38.8237L57.4376 35.4785H54.0034L52.707 38.8237H56.1393Z" fill="#0561FC"/>
<path d="M36.0998 81.6709L33.6914 87.8848H37.1247L39.5327 81.6709H36.0998Z" fill="#0561FC"/>
<path d="M102 85.2441H2V88.1697H102V85.2441Z" fill="#C5E1F9"/>
<path d="M2.14453 88.1699C3.32684 89.4206 5.50069 89.9123 7.00042 89.9123H96.9953C98.4957 89.9123 100.671 89.4206 101.853 88.1699H2.14453Z" fill="#9AC7F7"/>
<path d="M45.207 85.2441V85.5574C45.2069 85.6947 45.2338 85.8306 45.2862 85.9575C45.3386 86.0843 45.4155 86.1996 45.5125 86.2967C45.6095 86.3938 45.7246 86.4709 45.8514 86.5235C45.9781 86.5762 46.114 86.6033 46.2513 86.6034H57.7481C57.8854 86.6034 58.0213 86.5763 58.1482 86.5237C58.275 86.4711 58.3903 86.3941 58.4873 86.2969C58.5844 86.1998 58.6613 86.0845 58.7138 85.9576C58.7662 85.8307 58.7932 85.6947 58.7931 85.5574V85.2441H45.207Z" fill="#9AC7F7"/>
<path d="M21.4453 46.2051H54.3546V71.3316H48.2015V77.998L41.5351 71.3316H21.4453V46.2051Z" fill="white"/>
<path d="M46 34H0V65H46V34Z" fill="#7EB3FF"/>
<path d="M7.66797 73.9392V59.0586H22.5486L7.66797 73.9392Z" fill="#7EB3FF"/>
<path d="M38.7842 43.1484H6.99219V45.178H38.7842V43.1484Z" fill="#0066CC"/>
<path d="M38.7842 48.5615H6.99219V50.5906H38.7842V48.5615Z" fill="#0066CC"/>
<path d="M38.7842 53.9707H6.99219V56.0001H38.7842V53.9707Z" fill="#0066CC"/>
<path d="M53.5394 57.4971H52.6719V59.7749H53.5394V57.4971Z" fill="#C5E1F9"/>
<path d="M49.9334 61.8564L47.9609 60.7196L48.3955 59.9688L50.3674 61.1055L49.9334 61.8564Z" fill="#C5E1F9"/>
<path d="M49.9353 64.5197L47.9648 65.6602L48.3993 66.4108L50.3698 65.2704L49.9353 64.5197Z" fill="#C5E1F9"/>
<path d="M53.5394 66.6025H52.6719V68.8769H53.5394V66.6025Z" fill="#C5E1F9"/>
<path d="M56.2814 64.5196L55.8477 65.2705L57.8185 66.409L58.2522 65.6581L56.2814 64.5196Z" fill="#C5E1F9"/>
<path d="M57.8158 59.9653L55.8438 61.1035L56.278 61.8559L58.2501 60.7177L57.8158 59.9653Z" fill="#C5E1F9"/>
<path d="M65.998 66.9951L59.4829 64.8777L52.9688 62.7598L55.0857 69.2764L57.2006 75.7906L59.4919 71.3335L62.9697 74.8143L65.0183 72.7612L61.54 69.284L65.998 66.9951Z" fill="#3683F2"/>
<path d="M59.4829 64.8777L52.9688 62.7598L53.0376 62.9784L63.9223 73.8622L65.0183 72.7612L61.54 69.284L65.998 66.9951L59.4829 64.8777Z" fill="#7EB3FF"/>
<path d="M85.6853 31.3963L85.6857 26.931L83.3325 26.428C83.1977 25.778 83.0173 25.1382 82.7926 24.5136L84.5229 22.9521L82.2902 19.0843L79.997 19.8252C79.5554 19.3313 79.0798 18.869 78.5737 18.4414L79.2931 16.2168L75.4263 13.9839L73.8117 15.7708C73.1822 15.5642 72.5391 15.4016 71.8871 15.2844L71.3975 13H66.9324L66.4282 15.3535C65.7782 15.488 65.1386 15.6684 64.5142 15.8934L62.9508 14.1624L59.0845 16.3951L59.8251 18.6886C59.3321 19.1305 58.8699 19.6056 58.4416 20.1105L56.2176 19.3919L53.9841 23.2596L55.7712 24.8739C55.5647 25.5034 55.4023 26.1464 55.285 26.7984L53.0008 27.289L53 31.7538L55.3534 32.2578C55.4882 32.9073 55.6685 33.5466 55.8929 34.1709L54.1626 35.7355L56.3953 39.6016L58.6893 38.8606C59.1308 39.3542 59.606 39.8165 60.1114 40.2443L59.3926 42.4689L63.2598 44.7007L64.8734 42.914C65.5029 43.1206 66.146 43.2832 66.798 43.4006L67.2886 45.6852H71.7533L72.2577 43.3321C72.9078 43.1975 73.5476 43.0173 74.1723 42.7928L75.7347 44.5221L79.602 42.2912L78.8611 39.9966C79.3544 39.555 79.8168 39.0799 80.2449 38.5749L82.4685 39.2929L84.701 35.4261L82.9147 33.8122C83.1215 33.1823 83.2842 32.5389 83.4017 31.8864L85.6853 31.3963ZM76.8444 29.3432C76.8443 30.8268 76.4043 32.2771 75.5801 33.5107C74.7558 34.7442 73.5842 35.7057 72.2136 36.2734C70.8429 36.8411 69.3346 36.9897 67.8795 36.7002C66.4244 36.4107 65.0878 35.6963 64.0388 34.6472C62.9897 33.5982 62.2753 32.2616 61.9859 30.8065C61.6964 29.3514 61.845 27.8431 62.4127 26.4724C62.9805 25.1018 63.9419 23.9302 65.1755 23.106C66.409 22.2817 67.8593 21.8417 69.3429 21.8417C70.328 21.8417 71.3035 22.0358 72.2136 22.4127C73.1237 22.7897 73.9507 23.3423 74.6473 24.0389C75.3439 24.7354 75.8964 25.5624 76.2734 26.4725C76.6504 27.3827 76.8444 28.3581 76.8444 29.3432H76.8444Z" fill="#7EB3FF"/>
<path d="M79.6691 29.4539C79.6692 31.432 79.0828 33.3657 77.9839 35.0104C76.885 36.6552 75.323 37.9371 73.4955 38.694C71.668 39.451 69.657 39.649 67.717 39.263C65.777 38.877 63.995 37.9243 62.5964 36.5255C61.1978 35.1266 60.2455 33.3445 59.8599 31.4043C59.4742 29.4642 59.6726 27.4533 60.4299 25.626C61.1872 23.7986 62.4694 22.2369 64.1143 21.1383C65.7593 20.0397 67.6931 19.4536 69.6711 19.4541C70.9843 19.4541 72.2845 19.7127 73.4977 20.2153C74.7108 20.7178 75.8131 21.4545 76.7415 22.3831C77.6699 23.3117 78.4063 24.4141 78.9086 25.6273C79.411 26.8405 79.6694 28.1408 79.6691 29.4539V29.4539Z" fill="#FFCC00"/>
<path d="M79.3645 29.4547C79.3649 31.3726 78.7965 33.2475 77.7312 34.8422C76.666 36.437 75.1517 37.6801 73.3799 38.4142C71.6081 39.1483 69.6584 39.3404 67.7774 38.9663C65.8963 38.5923 64.1685 37.6687 62.8124 36.3126C61.4563 34.9565 60.5329 33.2286 60.1588 31.3476C59.7848 29.4666 59.977 27.5169 60.7112 25.7451C61.4453 23.9733 62.6884 22.4591 64.2832 21.3939C65.8781 20.3286 67.753 19.7603 69.6708 19.7607C72.2417 19.7611 74.7071 20.7826 76.525 22.6005C78.3428 24.4184 79.3642 26.8839 79.3645 29.4547V29.4547Z" fill="#FFA800"/>
<path d="M77.3057 29.4537C77.3058 30.9639 76.8582 32.4402 76.0193 33.6959C75.1804 34.9517 73.9879 35.9304 72.5928 36.5084C71.1976 37.0864 69.6623 37.2377 68.1811 36.9432C66.7 36.6486 65.3394 35.9214 64.2715 34.8536C63.2037 33.7857 62.4765 32.4252 62.1818 30.944C61.8872 29.4629 62.0385 27.9276 62.6165 26.5324C63.1944 25.1372 64.1732 23.9448 65.4289 23.1058C66.6846 22.2669 68.1609 21.8192 69.6711 21.8193C71.6957 21.8198 73.6373 22.6243 75.0689 24.0559C76.5006 25.4875 77.3051 27.4291 77.3057 29.4537V29.4537Z" fill="#FFCC00"/>
<path d="M65.8594 28.2982H66.7026C66.7548 27.8418 66.8786 27.3965 67.0695 26.9787C67.2469 26.5855 67.4908 26.2259 67.7905 25.9157C68.0865 25.6121 68.4419 25.3727 68.8345 25.2127C69.2637 25.0407 69.7227 24.9555 70.1849 24.9621C70.9947 24.9215 71.7903 25.1855 72.4153 25.7019C73.0045 26.26 73.3566 27.0233 73.3987 27.8338H71.8714C71.8389 27.3838 71.6483 26.9597 71.3334 26.6366C71.0204 26.3519 70.6076 26.2025 70.1849 26.221C69.9392 26.2071 69.6937 26.2507 69.4678 26.3482C69.2418 26.4457 69.0417 26.5945 68.8833 26.7828C68.5516 27.2235 68.3507 27.7487 68.3035 28.2982H70.8203L70.6741 29.0679H68.2667V29.8992H70.515L70.3808 30.6688H68.3036C68.3447 31.2075 68.549 31.7208 68.8893 32.1405C69.0559 32.3175 69.2594 32.4559 69.4853 32.5457C69.7112 32.6356 69.9541 32.6748 70.1969 32.6605C71.2151 32.6605 71.8058 32.0699 71.9688 30.8886H73.4843C73.4256 31.738 73.0635 32.5381 72.464 33.1428C71.8348 33.6996 71.0121 33.9871 70.173 33.9433C69.7093 33.9509 69.2485 33.8678 68.8167 33.6987C68.4289 33.5435 68.0757 33.313 67.7776 33.0205C67.4786 32.7226 67.2364 32.3729 67.0626 31.9883C66.8742 31.5701 66.7527 31.1248 66.7026 30.6688H65.8594V29.8992H66.6658V29.0679H65.8594L65.8594 28.2982Z" fill="#FFA800"/>
<circle cx="16" cy="16" r="15.5" fill="#0066CC" stroke="#0066CC"/>
<path d="M18.4879 11.12V23H16.0039V13.928L13.4299 15.584L12.2959 13.73L16.2199 11.12H18.4879Z" fill="white"/>
</svg>
