<svg width="19" height="23" viewBox="0 0 19 23" fill="none" xmlns="http://www.w3.org/2000/svg">
<path fill-rule="evenodd" clip-rule="evenodd" d="M13.6187 6.27432L14.9635 1.32452C15.0756 0.992201 15.0361 0.744085 14.845 0.580164C14.6538 0.416244 14.3907 0.395072 14.0558 0.516646L1.68725 5.00552L1.46166 4.38751C1.31126 3.97551 1.02993 3.84432 0.617641 3.99395C0.205355 4.14358 0.0744123 4.42439 0.224807 4.8364L6.63159 22.3878C6.78199 22.7998 7.06332 22.931 7.47561 22.7814C7.8879 22.6318 8.01884 22.351 7.86845 21.9389L5.29671 14.8937L17.6652 10.4048C18.0002 10.2832 18.1881 10.0984 18.2288 9.85029C18.2696 9.6022 18.1399 9.38682 17.8398 9.20413L13.6187 6.27432ZM4.83687 13.6598L2.13672 6.24121L13.3419 2.16284L12.1032 6.8144L16.0421 9.58147L4.83687 13.6598Z" fill="white"/>
</svg>
