<svg width="358" height="244" viewBox="0 0 358 244" fill="none" xmlns="http://www.w3.org/2000/svg">
<g clip-path="url(#clip0_13303_300003)">
<path d="M357.012 195.873V182.837L349.76 181.347C349.353 179.446 348.804 177.579 348.117 175.76L353.441 171.203L346.562 159.898L339.507 162.089C338.142 160.637 336.678 159.282 335.125 158.035L337.316 151.462L325.419 144.889L320.467 150.126C318.521 149.52 316.538 149.044 314.529 148.702L313.039 142.019H299.302L297.747 148.899C295.749 149.293 293.78 149.82 291.853 150.476L287.055 145.415L275.158 151.988L277.349 158.693C275.836 159.979 274.416 161.37 273.098 162.855L266.24 160.664L259.404 172.101L264.904 176.812C264.267 178.649 263.769 180.531 263.414 182.443L256.381 183.867V197.013L263.611 198.481C264.023 200.383 264.579 202.251 265.276 204.068L259.952 208.647L266.81 219.952L273.865 217.761C275.229 219.213 276.693 220.567 278.247 221.815L276.056 228.388L287.953 234.96L292.926 229.746C294.866 230.344 296.842 230.82 298.842 231.17L300.354 237.743H314.179L315.734 230.885C317.725 230.494 319.687 229.967 321.606 229.308L326.426 234.347L338.323 227.774L336.089 221.004C337.596 219.712 339.016 218.321 340.339 216.841L347.175 219.032L354.055 207.727L348.555 203.016C349.19 201.178 349.688 199.296 350.045 197.385L357.012 195.873ZM329.822 189.87C329.814 194.237 328.452 198.493 325.922 202.052C323.334 205.704 319.731 208.515 315.559 210.137C311.324 211.795 306.708 212.228 302.238 211.386C297.807 210.558 293.708 208.474 290.429 205.382C287.225 202.375 285.016 198.461 284.097 194.164C283.222 189.901 283.681 185.472 285.411 181.479C287.209 177.43 290.167 174.006 293.912 171.641C297.75 169.224 302.195 167.948 306.729 167.96C309.73 167.955 312.704 168.52 315.493 169.626C318.275 170.711 320.82 172.326 322.987 174.38C325.109 176.389 326.807 178.803 327.982 181.479C329.143 184.124 329.747 186.981 329.757 189.87H329.822Z" fill="#7EB3FF"/>
<path d="M338.497 190.199C338.489 196.014 336.683 201.685 333.327 206.434C329.872 211.303 325.065 215.051 319.501 217.214C313.852 219.424 307.695 220.001 301.733 218.879C295.826 217.771 290.36 214.996 285.98 210.882C281.72 206.855 278.786 201.628 277.566 195.895C276.386 190.219 276.999 184.316 279.319 179.003C281.693 173.586 285.639 169.006 290.646 165.857C295.76 162.626 301.687 160.916 307.736 160.927C311.767 160.915 315.766 161.658 319.523 163.118C323.224 164.566 326.609 166.716 329.492 169.45C332.295 172.142 334.53 175.368 336.065 178.937C337.614 182.459 338.413 186.264 338.41 190.111L338.497 190.199Z" fill="#FFCC00"/>
<path d="M337.555 190.199C337.551 195.842 335.798 201.346 332.538 205.952C329.198 210.669 324.542 214.297 319.151 216.381C313.678 218.532 307.708 219.094 301.93 218.002C296.178 216.946 290.852 214.253 286.593 210.246C282.463 206.354 279.619 201.294 278.443 195.742C277.285 190.237 277.875 184.507 280.13 179.353C282.434 174.121 286.249 169.696 291.085 166.646C296.043 163.519 301.786 161.862 307.648 161.869C315.484 161.841 323.033 164.812 328.747 170.173C331.495 172.739 333.689 175.838 335.196 179.281C336.703 182.725 337.491 186.44 337.511 190.199H337.555Z" fill="#D98F00"/>
<path d="M331.223 190.199C331.214 194.639 329.837 198.969 327.279 202.599C324.649 206.313 320.984 209.171 316.741 210.816C312.424 212.514 307.714 212.954 303.157 212.086C298.641 211.253 294.463 209.13 291.128 205.974C287.875 202.912 285.635 198.929 284.709 194.559C283.808 190.222 284.275 185.714 286.045 181.654C287.891 177.51 290.946 174.02 294.809 171.641C298.711 169.18 303.232 167.88 307.845 167.894C314.019 167.877 319.963 170.23 324.453 174.467C326.612 176.491 328.336 178.933 329.519 181.646C330.702 184.358 331.319 187.283 331.333 190.242L331.223 190.199Z" fill="#FFCC00"/>
<path d="M296.013 186.825H298.62C298.773 185.486 299.151 184.182 299.738 182.969C300.277 181.809 301.019 180.756 301.929 179.857C302.862 178.973 303.955 178.274 305.149 177.798C306.471 177.297 307.877 177.051 309.29 177.075C311.773 176.951 314.216 177.729 316.17 179.266C317.958 180.861 319.045 183.097 319.194 185.488H314.483C314.384 184.158 313.799 182.91 312.84 181.983C311.856 181.14 310.585 180.708 309.29 180.778C308.542 180.737 307.793 180.864 307.099 181.15C306.41 181.429 305.795 181.864 305.303 182.421C304.295 183.678 303.671 185.2 303.506 186.803H311.262L310.802 188.994H303.397V191.426H310.32L309.904 193.617H303.506C303.631 195.234 304.268 196.769 305.325 197.999C305.843 198.514 306.462 198.917 307.143 199.182C307.843 199.443 308.589 199.555 309.334 199.511C312.475 199.511 314.293 197.78 314.79 194.318H319.456C319.26 196.825 318.135 199.169 316.301 200.891C314.342 202.541 311.826 203.38 309.269 203.235C307.841 203.259 306.421 203.014 305.084 202.512C303.899 202.071 302.812 201.401 301.885 200.54C300.983 199.669 300.241 198.645 299.694 197.517C299.124 196.298 298.754 194.996 298.598 193.661H295.991V191.47H298.467V189.038H295.991L296.013 186.825Z" fill="#D98F00"/>
<path d="M273.009 226.416V80.9348L236.376 46.1201H134.167V226.416H273.009Z" fill="#EAF4FE"/>
<path d="M236.375 80.9348H273.008L236.375 46.1201V80.9348Z" fill="#7EB3FF"/>
<path d="M273.008 80.9348H236.375L273.008 115.837V80.9348Z" fill="#C5E1F9"/>
<path d="M286.528 222.34C286.525 223.094 286.368 223.84 286.068 224.531C285.763 225.237 285.316 225.871 284.753 226.394C284.182 226.932 283.512 227.356 282.781 227.643C282.042 227.933 281.254 228.082 280.459 228.081H78.1442C77.3495 228.082 76.5616 227.933 75.8218 227.643C75.0868 227.364 74.4159 226.939 73.8499 226.394C73.2874 225.871 72.8398 225.237 72.5353 224.531C72.2351 223.84 72.0786 223.094 72.0752 222.34V97.4547C72.0761 96.7005 72.2328 95.9546 72.5353 95.2638C72.8398 94.5586 73.2874 93.9245 73.8499 93.4015C74.4207 92.8567 75.0899 92.4254 75.8218 92.1307C76.5616 91.8402 77.3495 91.6915 78.1442 91.6925H280.459C281.256 91.6884 282.046 91.8449 282.781 92.1526C283.516 92.4311 284.187 92.856 284.753 93.4015C285.316 93.9245 285.763 94.5586 286.068 95.2638C286.37 95.9546 286.527 96.7005 286.528 97.4547V222.34Z" fill="#D98F00"/>
<path d="M83.665 235.639H273.426V103.721H83.665V235.639Z" fill="#9AC7F7"/>
<path d="M267.51 109.264H89.6025V229.921H267.51V109.264Z" fill="#74B8DC"/>
<path d="M83.665 236.823H273.426V104.882H83.665V236.823Z" fill="#C5E1F9"/>
<path d="M267.51 110.557H89.6025V231.192H267.51V110.557Z" fill="#67ACF5"/>
<path d="M273.009 226.416V80.9348L236.376 46.1201H134.167V226.416H273.009Z" fill="white"/>
<path d="M252.983 131.853H155.2V134.044H252.983V131.853Z" fill="#C5E1F9"/>
<path d="M255.503 137.33H155.2V139.631H255.503V137.33Z" fill="#C5E1F9"/>
<path d="M253.4 142.808H155.2V145.108H253.4V142.808Z" fill="#C5E1F9"/>
<path d="M241.875 148.307H155.2V150.498H241.875V148.307Z" fill="#C5E1F9"/>
<path d="M252.983 89.1292H155.2V91.4296H252.983V89.1292Z" fill="#C5E1F9"/>
<path d="M255.503 94.6284H155.2V96.8194H255.503V94.6284Z" fill="#C5E1F9"/>
<path d="M253.4 100.106H155.2V102.297H253.4V100.106Z" fill="#C5E1F9"/>
<path d="M204.629 105.583H155.2V107.884H204.629V105.583Z" fill="#C5E1F9"/>
<path d="M252.983 115.355H155.2V117.546H252.983V115.355Z" fill="#C5E1F9"/>
<path d="M255.503 120.832H155.2V123.133H255.503V120.832Z" fill="#C5E1F9"/>
<path d="M253.4 126.31H155.2V128.61H253.4V126.31Z" fill="#C5E1F9"/>
<path d="M252.983 158.386H155.2V160.686H252.983V158.386Z" fill="#C5E1F9"/>
<path d="M255.503 163.863H155.2V166.23H255.503V163.863Z" fill="#C5E1F9"/>
<path d="M253.4 169.341H155.2V171.641H253.4V169.341Z" fill="#C5E1F9"/>
<path d="M214.619 174.84H155.2V177.031H214.619V174.84Z" fill="#C5E1F9"/>
<path d="M252.983 184.59H155.2V186.89H252.983V184.59Z" fill="#C5E1F9"/>
<path d="M255.503 190.067H155.2V192.368H255.503V190.067Z" fill="#C5E1F9"/>
<path d="M187.386 195.567H155.2V197.758H187.386V195.567Z" fill="#C5E1F9"/>
<path d="M201.759 78.218H155.048V81.9427H201.759V78.218Z" fill="#9AC7F7"/>
<path d="M236.375 80.9348H273.008L236.375 46.1201V80.9348Z" fill="#67ACF5"/>
<path d="M273.008 80.9348H236.375L273.008 115.837V80.9348Z" fill="#C5DFF5"/>
<path d="M301.71 139.675C301.707 138.921 301.55 138.176 301.25 137.484C300.938 136.783 300.491 136.151 299.936 135.622C299.36 135.088 298.692 134.665 297.964 134.373C297.222 134.088 296.436 133.939 295.641 133.935H193.038L184.274 147.387H65.9614C64.3373 147.36 62.7662 147.965 61.5794 149.074C60.5508 150.152 59.9914 151.594 60.0238 153.084L72.1618 234.785C72.1651 235.553 72.3242 236.312 72.6293 237.016C72.9343 237.72 73.3789 238.355 73.9364 238.882C75.1232 239.991 76.6943 240.596 78.3184 240.569H280.633C281.428 240.57 282.216 240.422 282.956 240.131C283.688 239.837 284.357 239.405 284.928 238.861C285.49 238.338 285.938 237.703 286.242 236.998C286.545 236.307 286.701 235.561 286.702 234.807L301.71 139.675Z" fill="#FECE40"/>
<path d="M301.711 142.567C301.71 141.813 301.553 141.067 301.25 140.376C300.938 139.675 300.492 139.042 299.936 138.513C299.366 137.973 298.696 137.548 297.964 137.265C297.227 136.961 296.438 136.804 295.642 136.804H193.038L184.274 150.279H65.9616C65.1659 150.267 64.376 150.416 63.6392 150.717C62.9041 150.996 62.2332 151.42 61.6673 151.966C61.1048 152.489 60.6572 153.123 60.3527 153.828C60.0502 154.519 59.8935 155.265 59.8926 156.019L72.0305 237.721C72.0318 238.485 72.19 239.242 72.4952 239.942C72.8005 240.643 73.2463 241.274 73.8052 241.796C74.992 242.905 76.5631 243.51 78.1872 243.483H280.502C281.297 243.484 282.085 243.335 282.824 243.045C283.555 242.758 284.225 242.334 284.796 241.796C285.359 241.273 285.806 240.639 286.111 239.934C286.411 239.242 286.568 238.497 286.571 237.743L301.711 142.567Z" fill="#FFBF0D"/>
<path d="M84.2764 72.85H124.503V124.206L92.4487 114.04L84.2764 72.85Z" fill="#D98F00"/>
<path d="M84.2764 83.5859H124.503V134.942L92.4487 124.798L84.2764 83.5859Z" fill="#C5E1F9"/>
<path d="M84.2764 87.1791H124.503V138.536L92.4487 128.369L84.2764 87.1791Z" fill="#67ACF5"/>
<path d="M153.687 134.504C189.86 134.504 219.197 106.307 219.197 71.5357C219.18 57.6374 214.428 44.1598 205.723 33.3251H117.689V124.119C128.461 130.925 140.946 134.526 153.687 134.504Z" fill="white"/>
<path d="M206.535 100.763H132.523V102.954H206.535V100.763Z" fill="#C5E1F9"/>
<path d="M204.628 106.24H132.523V108.541H204.628V106.24Z" fill="#C5E1F9"/>
<path d="M199.94 111.718H132.523V114.019H199.94V111.718Z" fill="#C5E1F9"/>
<path d="M194.55 117.217H132.523V119.408H194.55V117.217Z" fill="#C5E1F9"/>
<path d="M210.982 58.0391H161.006V60.23H210.982V58.0391Z" fill="#C5E1F9"/>
<path d="M212.275 63.5164H161.006V65.7073H212.275V63.5164Z" fill="#C5E1F9"/>
<path d="M211.201 69.0157H161.006V71.2067H211.201V69.0157Z" fill="#C5E1F9"/>
<path d="M191.943 74.4932H132.523V76.6841H191.943V74.4932Z" fill="#C5E1F9"/>
<path d="M214.817 84.2432H132.523V86.4341H214.817V84.2432Z" fill="#C5E1F9"/>
<path d="M213.151 89.7426H132.523V91.9335H213.151V89.7426Z" fill="#C5E1F9"/>
<path d="M211.399 95.2201H132.523V97.411H211.399V95.2201Z" fill="#C5E1F9"/>
<path d="M178.183 127.296H132.523V129.487H178.183V127.296Z" fill="#C5E1F9"/>
<path d="M188.591 47.7634H160.94V51.3567H188.591V47.7634Z" fill="#9AC7F7"/>
<path d="M197.726 118.028C209.489 106.921 216.901 91.9809 218.628 75.8956C220.226 59.8895 215.968 43.8465 206.643 30.7395C197.036 17.2852 183.123 7.51496 167.206 3.04565C151.079 -1.58195 133.876 -0.765712 118.259 5.36808C102.923 11.2916 90.0942 22.3171 81.933 36.5895C74.0431 50.5496 71.4968 66.9018 74.7685 82.6C78.1859 98.4714 87.1216 112.616 99.9867 122.52C113.197 132.731 129.432 138.25 146.129 138.207C155.673 138.219 165.135 136.436 174.02 132.949C182.812 129.555 190.863 124.488 197.726 118.028ZM104.434 109.001C94.8438 99.9982 88.7964 87.8569 87.3885 74.7782C86.0544 61.7716 89.4879 48.723 97.0508 38.0574C104.829 27.1133 116.117 19.1582 129.039 15.5123C142.144 11.7366 156.127 12.3833 168.827 17.3527C181.292 22.1832 191.713 31.158 198.34 42.7681C204.771 54.125 206.851 67.4342 204.189 80.2118C201.418 93.1128 194.169 104.616 183.726 112.682C172.984 120.977 159.788 125.463 146.216 125.434C138.461 125.41 130.777 123.939 123.562 121.095C116.454 118.305 109.952 114.169 104.412 108.914L104.434 109.001Z" fill="#0058B0"/>
<path opacity="0.2" d="M156.974 22.4138C152.95 18.4325 148.186 15.2767 142.951 13.1241C137.716 10.9766 132.112 9.87499 126.453 9.8815C120.798 9.89926 115.201 11.0232 109.977 13.1899C104.748 15.359 99.9976 18.5381 95.9986 22.5453C92.0121 26.544 88.8486 31.2856 86.6869 36.5018C84.5455 41.7232 83.4441 47.3125 83.4443 52.956C83.4696 58.6056 84.6011 64.1955 86.7747 69.4103C88.9608 74.6163 92.1467 79.343 96.152 83.3229C100.17 87.3113 104.935 90.4683 110.174 92.6128C115.403 94.7814 121.012 95.8838 126.672 95.8554C132.334 95.8537 137.94 94.7369 143.17 92.5689C148.393 90.3993 153.136 87.22 157.127 83.2134C161.121 79.2126 164.286 74.4622 166.439 69.235C168.594 64.0178 169.696 58.4257 169.681 52.7807C169.668 47.137 168.537 41.5518 166.351 36.3484C164.165 31.1356 160.979 26.4016 156.974 22.4138Z" fill="white"/>
<path d="M156.8 47.5005H133.159V69.958H156.8V47.5005Z" fill="#2A66C4"/>
<path d="M138.659 56.4396C138.464 56.4317 138.269 56.4692 138.09 56.5492C137.903 56.6168 137.732 56.7211 137.586 56.8559C137.32 57.1403 137.178 57.5186 137.191 57.9075C137.183 58.3063 137.333 58.6922 137.608 58.9811C137.758 59.1155 137.928 59.2264 138.112 59.3098C138.299 59.3537 138.494 59.3537 138.681 59.3098C138.876 59.3526 139.078 59.3526 139.273 59.3098C139.458 59.2422 139.624 59.1292 139.755 58.9811C139.887 58.841 139.991 58.6758 140.058 58.4951C140.126 58.3145 140.157 58.1222 140.149 57.9295C140.162 57.5405 140.02 57.1623 139.755 56.8779C139.624 56.7298 139.458 56.6167 139.273 56.5492C139.083 56.4812 138.883 56.4442 138.681 56.4396" fill="white"/>
<path d="M147.049 61.3035H144.858V64.8091H142.404V52.8025H147.049C150.051 52.8025 151.431 54.2048 151.431 56.9654C151.467 57.5563 151.382 58.1483 151.183 58.7056C150.983 59.2629 150.673 59.774 150.27 60.208C149.833 60.5961 149.323 60.893 148.77 61.0811C148.217 61.2692 147.632 61.3448 147.049 61.3035ZM144.858 59.1125H146.918C148.188 59.1125 148.824 58.3457 148.824 56.9215C148.881 56.3559 148.716 55.7903 148.364 55.3441C148.181 55.1599 147.955 55.0243 147.707 54.9497C147.454 54.86 147.185 54.8226 146.918 54.8401H144.858V59.1125Z" fill="white"/>
<path opacity="0.2" d="M99.4604 43.5348C107.572 35.8919 117.71 30.7429 128.666 28.7019C139.692 26.618 151.081 27.6811 161.531 31.7693C171.829 35.766 180.733 42.6891 187.143 51.6852C193.398 60.4646 196.781 70.9657 196.827 81.7455C196.842 87.3001 195.954 92.8203 194.198 98.0901C200.041 89.4968 203.156 79.3414 203.137 68.9501C203.047 55.9004 198.121 43.3479 189.312 33.7193C180.234 23.8035 167.986 17.3582 154.673 15.4903C141.265 13.5203 127.587 16.1788 115.893 23.0273C104.475 29.676 95.8458 40.2274 91.5947 52.7369C93.8674 49.3875 96.5055 46.3011 99.4604 43.5348Z" fill="white"/>
<path d="M83.5779 69.0159C83.6179 61.1274 85.2668 53.3301 88.4238 46.1008C91.5807 38.8714 96.1793 32.3621 101.938 26.971C113.906 15.6822 129.745 9.40937 146.196 9.44323C162.636 9.37488 178.479 15.5992 190.476 26.8396C196.233 32.2328 200.833 38.742 203.993 45.9705C207.153 53.199 208.809 60.9954 208.858 68.8844H214.949V68.753C214.896 60.0925 213.077 51.5339 209.604 43.6002C206.13 35.6666 201.075 28.5246 194.748 22.611C181.573 10.2782 164.177 3.45751 146.13 3.5495C128.085 3.50283 110.706 10.3621 97.5564 22.7205C91.2491 28.6713 86.222 35.8462 82.7825 43.8063C79.3431 51.7664 77.5635 60.3445 77.5527 69.0159H83.6655H83.5779Z" fill="#003C77"/>
<path d="M92.3406 132.576L104.238 121.621C105.107 120.832 105.801 119.869 106.275 118.795C106.736 117.745 106.974 116.611 106.976 115.465C105.293 114.152 103.676 112.756 102.134 111.28C100.532 109.769 99.0109 108.175 97.5771 106.503C96.3692 106.508 95.173 106.739 94.0496 107.183C92.9495 107.62 91.9448 108.268 91.0917 109.089L79.1072 120.153C75.3606 123.703 76.6313 127.909 80.4217 131.415C84.1244 134.92 88.6379 136.125 92.3406 132.576Z" fill="#0058B0"/>
<path d="M75.9734 115.837L5.11719 183.166L26.1724 203.147L97.0067 135.841L75.9734 115.837Z" fill="#0058B0"/>
<path d="M86.6443 125.893L15.7881 193.2L24.552 201.46L95.3863 134.153L86.6443 125.893Z" fill="#003C77"/>
<path d="M75.975 115.837L70.9795 120.548L92.0347 140.551L97.074 135.753L75.975 115.837Z" fill="#C5E1F9"/>
<path d="M84.6076 126.156L81.124 129.443L90.4137 138.207L93.8975 134.92L84.6076 126.156Z" fill="#EAF4FE"/>
<path d="M21.1124 207.858C18.3539 207.863 15.619 207.35 13.0497 206.346C10.5171 205.338 8.20339 203.85 6.23576 201.964C4.29243 200.1 2.74275 197.865 1.6785 195.391C0.619515 192.981 0.0748224 190.377 0.0791269 187.745C1.74427 186.123 3.43129 184.546 5.11835 182.947L26.1736 202.928L21.1124 207.858Z" fill="#C5E1F9"/>
<path d="M19.2282 205.93L9.93848 197.166L14.3204 193.047L23.6101 201.811L19.2282 205.93Z" fill="#EAF4FE"/>
</g>
<defs>
<clipPath id="clip0_13303_300003">
<rect width="356.932" height="243.483" fill="white" transform="translate(0.0791016)"/>
</clipPath>
</defs>
</svg>
