<svg width="180" height="180" viewBox="0 0 180 180" fill="none" xmlns="http://www.w3.org/2000/svg">
<circle cx="90" cy="90" r="90" fill="#F0F6FC"/>
<path d="M29.6275 152.526C28.4471 152.525 27.3156 152.055 26.481 151.22C25.6465 150.385 25.1771 149.254 25.1758 148.073V65.4414C25.1769 64.2609 25.6462 63.1291 26.4808 62.2943C27.3154 61.4595 28.447 60.9898 29.6275 60.9883H150.377C151.557 60.9897 152.689 61.4594 153.523 62.2943C154.357 63.1292 154.826 64.261 154.827 65.4414V148.073C154.826 149.254 154.357 150.385 153.523 151.22C152.689 152.055 151.557 152.525 150.377 152.526H29.6275Z" fill="#EAF4FE"/>
<path d="M154.408 148.074C154.409 149.144 153.984 150.171 153.228 150.928C152.472 151.685 151.446 152.11 150.376 152.111H29.6261C29.0961 152.111 28.5712 152.007 28.0814 151.804C27.5917 151.601 27.1467 151.304 26.7719 150.929C26.3971 150.554 26.0998 150.109 25.8969 149.619C25.6941 149.129 25.5898 148.604 25.5898 148.074V65.4423C25.5896 64.9122 25.6938 64.3872 25.8966 63.8974C26.0994 63.4076 26.3967 62.9626 26.7715 62.5878C27.1464 62.2129 27.5914 61.9156 28.0812 61.7129C28.5711 61.5102 29.096 61.406 29.6261 61.4063H150.376C150.905 61.4063 151.43 61.5108 151.92 61.7137C152.409 61.9165 152.854 62.2139 153.228 62.5887C153.603 62.9635 153.9 63.4085 154.102 63.8981C154.305 64.3877 154.409 64.9125 154.408 65.4423V148.074Z" fill="#0058B0"/>
<path d="M148.093 67.1953H31.9062V141.355H148.093V67.1953Z" fill="#003E99"/>
<mask id="mask0_4477_209333" style="mask-type:alpha" maskUnits="userSpaceOnUse" x="31" y="67" width="118" height="75">
<path d="M148.093 67.1953H31.9062V141.355H148.093V67.1953Z" fill="#003C77"/>
</mask>
<g mask="url(#mask0_4477_209333)">
<path d="M165.515 106.518L165.515 100.322L162.25 99.6238C162.063 98.7217 161.812 97.8339 161.5 96.967L163.902 94.8001L160.803 89.4327L157.621 90.4607C157.008 89.7754 156.348 89.1338 155.646 88.5405L156.644 85.4533L151.278 82.3547L149.037 84.8344C148.164 84.5477 147.271 84.3221 146.366 84.1593L145.687 80.9893H139.491L138.791 84.2553C137.889 84.4419 137.001 84.6923 136.135 85.0046L133.965 82.6024L128.6 85.7007L129.628 88.8835C128.944 89.4967 128.302 90.156 127.708 90.8567L124.621 89.8595L121.522 95.2269L124.002 97.4671C123.715 98.3406 123.49 99.233 123.327 100.138L120.157 100.819L120.156 107.015L123.422 107.714C123.609 108.615 123.859 109.502 124.171 110.369L121.77 112.54L124.868 117.905L128.052 116.877C128.664 117.562 129.324 118.203 130.025 118.797L129.027 121.884L134.394 124.981L136.633 122.502C137.507 122.789 138.399 123.014 139.304 123.177L139.985 126.348H146.181L146.881 123.082C147.783 122.895 148.671 122.645 149.538 122.334L151.706 124.733L157.073 121.638L156.045 118.453C156.729 117.841 157.371 117.181 157.965 116.48L161.051 117.477L164.149 112.111L161.67 109.871C161.957 108.997 162.183 108.104 162.346 107.199L165.515 106.518ZM153.246 103.669C153.246 105.728 152.635 107.741 151.491 109.453C150.348 111.164 148.722 112.499 146.82 113.287C144.917 114.074 142.824 114.28 140.805 113.879C138.786 113.477 136.931 112.486 135.475 111.03C134.019 109.574 133.028 107.719 132.626 105.7C132.225 103.681 132.431 101.588 133.219 99.6854C134.006 97.7833 135.341 96.1575 137.053 95.0136C138.764 93.8698 140.777 93.2592 142.836 93.2592C144.203 93.2592 145.557 93.5285 146.82 94.0516C148.083 94.5748 149.23 95.3416 150.197 96.3083C151.164 97.2749 151.93 98.4225 152.454 99.6855C152.977 100.949 153.246 102.302 153.246 103.669H153.246Z" fill="#7EB3FF"/>
<path d="M157.166 103.822C157.167 106.567 156.353 109.251 154.828 111.533C153.303 113.816 151.135 115.595 148.599 116.645C146.063 117.696 143.272 117.97 140.58 117.435C137.888 116.899 135.415 115.577 133.474 113.636C131.533 111.695 130.212 109.221 129.676 106.529C129.141 103.837 129.417 101.046 130.468 98.5102C131.518 95.9743 133.298 93.8071 135.581 92.2825C137.863 90.758 140.547 89.9446 143.292 89.9453C145.114 89.9453 146.919 90.3042 148.602 91.0016C150.286 91.699 151.815 92.7213 153.104 94.0099C154.392 95.2986 155.414 96.8284 156.111 98.512C156.808 100.196 157.167 102 157.166 103.822Z" fill="#FFCC00"/>
<path d="M156.747 103.824C156.747 106.485 155.958 109.087 154.48 111.3C153.002 113.513 150.9 115.238 148.442 116.257C145.983 117.276 143.277 117.542 140.667 117.023C138.056 116.504 135.659 115.223 133.777 113.341C131.895 111.459 130.613 109.061 130.094 106.451C129.575 103.84 129.842 101.135 130.861 98.6758C131.88 96.217 133.605 94.1157 135.818 92.6374C138.031 91.1592 140.633 90.3705 143.294 90.3711C146.862 90.3716 150.283 91.7892 152.806 94.3119C155.329 96.8347 156.746 100.256 156.747 103.824Z" fill="#FFA800"/>
<path d="M153.887 103.822C153.887 105.918 153.266 107.966 152.102 109.709C150.937 111.452 149.283 112.81 147.346 113.612C145.41 114.414 143.28 114.624 141.224 114.215C139.169 113.807 137.281 112.797 135.799 111.316C134.317 109.834 133.308 107.946 132.899 105.89C132.49 103.835 132.7 101.704 133.502 99.768C134.304 97.8319 135.662 96.1771 137.405 95.0129C139.148 93.8486 141.196 93.2273 143.292 93.2275C146.102 93.2282 148.796 94.3446 150.783 96.3313C152.769 98.318 153.886 101.012 153.887 103.822Z" fill="#FFCC00"/>
<path d="M138.004 102.219H139.174C139.246 101.586 139.418 100.968 139.683 100.388C139.929 99.8425 140.268 99.3435 140.684 98.913C141.095 98.4916 141.588 98.1595 142.133 97.9374C142.728 97.6988 143.365 97.5806 144.007 97.5896C145.13 97.5334 146.234 97.8996 147.102 98.6163C147.919 99.3909 148.408 100.45 148.467 101.575H146.347C146.302 100.95 146.037 100.362 145.6 99.9134C145.166 99.5183 144.593 99.311 144.007 99.3366C143.666 99.3174 143.325 99.3779 143.011 99.5132C142.698 99.6485 142.42 99.855 142.2 100.116C141.74 100.728 141.461 101.457 141.396 102.219H144.888L144.686 103.287H141.345V104.441H144.465L144.278 105.509H141.396C141.453 106.257 141.736 106.969 142.209 107.551C142.44 107.797 142.722 107.989 143.036 108.114C143.349 108.238 143.686 108.293 144.023 108.273C145.436 108.273 146.256 107.453 146.482 105.814H148.585C148.504 106.993 148.001 108.103 147.169 108.942C146.296 109.715 145.154 110.114 143.99 110.053C143.347 110.064 142.707 109.948 142.108 109.714C141.57 109.498 141.08 109.178 140.666 108.773C140.251 108.359 139.915 107.874 139.674 107.34C139.412 106.76 139.244 106.142 139.174 105.509H138.004V104.441H139.123V103.287H138.004L138.004 102.219Z" fill="#FFA800"/>
</g>
<path d="M89.8559 64.2134C89.8566 64.285 89.8431 64.3559 89.8163 64.4222C89.7894 64.4885 89.7496 64.5489 89.6993 64.5997C89.649 64.6506 89.5891 64.6909 89.5231 64.7185C89.457 64.746 89.3862 64.7602 89.3147 64.7602C89.2431 64.7602 89.1723 64.746 89.1063 64.7185C89.0403 64.6909 88.9803 64.6506 88.93 64.5997C88.8797 64.5489 88.8399 64.4885 88.8131 64.4222C88.7862 64.3559 88.7727 64.285 88.7735 64.2134C88.7749 64.0709 88.8326 63.9346 88.9339 63.8343C89.0352 63.734 89.1721 63.6777 89.3147 63.6777C89.4573 63.6777 89.5941 63.734 89.6954 63.8343C89.7967 63.9346 89.8544 64.0709 89.8559 64.2134Z" fill="#C5E1F9"/>
<path d="M85.2874 67.196L87.5317 61.4062H69.0445L66.8008 67.196H85.2874Z" fill="#0561FC"/>
<path d="M38.0523 141.354L33.8828 152.109H52.3717L56.5395 141.354H38.0523Z" fill="#0561FC"/>
<path d="M97.1671 67.196L99.4141 61.4062H93.4702L91.2266 67.196H97.1671Z" fill="#0561FC"/>
<path d="M62.4808 141.354L58.3125 152.109H64.2547L68.4225 141.354H62.4808Z" fill="#0561FC"/>
<path d="M176.538 147.539H3.46094V152.603H176.538V147.539Z" fill="#C5E1F9"/>
<path d="M3.71094 152.603C5.75725 154.767 9.51967 155.618 12.1154 155.618H167.876C170.473 155.618 174.238 154.767 176.283 152.603H3.71094Z" fill="#9AC7F7"/>
<path d="M78.2422 147.539V148.081C78.242 148.319 78.2885 148.554 78.3793 148.774C78.47 148.993 78.603 149.193 78.7709 149.361C78.9387 149.529 79.138 149.662 79.3574 149.753C79.5768 149.844 79.812 149.891 80.0495 149.892H99.9478C100.185 149.892 100.421 149.845 100.64 149.754C100.86 149.663 101.059 149.529 101.227 149.361C101.395 149.193 101.528 148.994 101.619 148.774C101.71 148.554 101.757 148.319 101.757 148.081V147.539H78.2422Z" fill="#9AC7F7"/>
<path d="M37.1172 79.9697H94.0755V123.458H83.426V134.996L71.8881 123.458H37.1172V79.9697Z" fill="white"/>
<path d="M79.6154 58.8457H0V112.5H79.6154V58.8457Z" fill="#7EB3FF"/>
<path d="M13.2734 127.972V102.217H39.0284L13.2734 127.972Z" fill="#7EB3FF"/>
<path d="M67.1262 74.6797H12.1016V78.1924H67.1262V74.6797Z" fill="#0066CC"/>
<path d="M67.1262 84.0488H12.1016V87.5607H67.1262V84.0488Z" fill="#0066CC"/>
<path d="M67.1262 93.4102H12.1016V96.9226H67.1262V93.4102Z" fill="#0066CC"/>
<path d="M92.6656 99.5137H91.1641V103.456H92.6656V99.5137Z" fill="#C5E1F9"/>
<path d="M86.4217 107.059L83.0078 105.092L83.76 103.792L87.1728 105.759L86.4217 107.059Z" fill="#C5E1F9"/>
<path d="M86.426 111.668L83.0156 113.642L83.7676 114.941L87.178 112.967L86.426 111.668Z" fill="#C5E1F9"/>
<path d="M92.6617 115.273H91.1602V119.21H92.6617V115.273Z" fill="#C5E1F9"/>
<path d="M97.407 111.668L96.6562 112.968L100.067 114.938L100.818 113.639L97.407 111.668Z" fill="#C5E1F9"/>
<path d="M100.066 103.786L96.6523 105.756L97.404 107.058L100.817 105.088L100.066 103.786Z" fill="#C5E1F9"/>
<path d="M114.226 115.952L102.95 112.288L91.6758 108.622L95.3397 119.901L99.0001 131.175L102.966 123.461L108.985 129.486L112.531 125.932L106.511 119.914L114.226 115.952Z" fill="#3683F2"/>
<path d="M102.95 112.288L91.6758 108.622L91.795 109.001L110.634 127.838L112.531 125.932L106.511 119.914L114.226 115.952L102.95 112.288Z" fill="#7EB3FF"/>
<path d="M148.301 54.3398L148.302 46.6113L144.229 45.7408C143.996 44.6157 143.684 43.5085 143.295 42.4274L146.289 39.7247L142.425 33.0305L138.456 34.3128C137.692 33.458 136.869 32.6578 135.993 31.9179L137.238 28.0675L130.545 24.2029L127.751 27.2956C126.661 26.938 125.548 26.6567 124.42 26.4537L123.572 22.5H115.844L114.972 26.5734C113.847 26.8061 112.74 27.1184 111.659 27.5079L108.953 24.5119L102.261 28.3761L103.543 32.3457C102.69 33.1105 101.89 33.9327 101.149 34.8066L97.2993 33.5629L93.4337 40.257L96.5268 43.051C96.1694 44.1404 95.8882 45.2534 95.6853 46.3819L91.7318 47.2309L91.7305 54.9585L95.8037 55.8307C96.037 56.955 96.349 58.0614 96.7375 59.1419L93.7426 61.8499L97.6069 68.5412L101.577 67.2588C102.342 68.113 103.164 68.9132 104.039 69.6536L102.795 73.5039L109.488 77.3666L112.281 74.2742C113.37 74.6318 114.483 74.9133 115.612 75.1165L116.461 79.0705H124.188L125.061 74.9978C126.186 74.7648 127.294 74.453 128.375 74.0645L131.079 77.0574L137.772 73.1963L136.49 69.225C137.344 68.4606 138.144 67.6384 138.885 66.7642L142.734 68.007L146.598 61.3143L143.506 58.5211C143.864 57.431 144.145 56.3173 144.349 55.1881L148.301 54.3398ZM133 50.7864C132.999 53.3542 132.238 55.8643 130.811 57.9993C129.385 60.1343 127.357 61.7983 124.985 62.7809C122.612 63.7635 120.002 64.0205 117.483 63.5196C114.965 63.0186 112.652 61.7821 110.836 59.9664C109.02 58.1507 107.784 55.8373 107.283 53.3189C106.782 50.8004 107.039 48.19 108.022 45.8177C109.004 43.4454 110.668 41.4177 112.803 39.9911C114.938 38.5645 117.449 37.803 120.016 37.803C121.721 37.803 123.41 38.1388 124.985 38.7913C126.56 39.4438 127.991 40.4001 129.197 41.6057C130.403 42.8114 131.359 44.2426 132.011 45.8179C132.664 47.3931 133 49.0814 133 50.7864H133Z" fill="#7EB3FF"/>
<path d="M137.891 50.9773C137.891 54.4009 136.876 57.7477 134.974 60.5943C133.072 63.441 130.369 65.6597 127.206 66.9698C124.043 68.2799 120.562 68.6226 117.204 67.9545C113.847 67.2864 110.762 65.6376 108.342 63.2165C105.921 60.7954 104.273 57.7109 103.606 54.353C102.938 50.9951 103.281 47.5147 104.592 44.352C105.903 41.1893 108.122 38.4863 110.969 36.5849C113.816 34.6834 117.163 33.669 120.587 33.6699C122.859 33.6699 125.11 34.1176 127.209 34.9874C129.309 35.8572 131.217 37.1321 132.824 38.7393C134.431 40.3465 135.705 42.2545 136.575 44.3543C137.444 46.4541 137.891 48.7046 137.891 50.9773Z" fill="#FFCC00"/>
<path d="M137.364 50.9783C137.364 54.2976 136.381 57.5426 134.537 60.3028C132.693 63.063 130.072 65.2144 127.006 66.485C123.939 67.7555 120.565 68.0881 117.309 67.4406C114.053 66.7932 111.063 65.1948 108.716 62.8476C106.369 60.5005 104.77 57.5099 104.123 54.2543C103.476 50.9987 103.808 47.6243 105.079 44.5577C106.35 41.4912 108.501 38.8704 111.261 37.0267C114.022 35.1831 117.267 34.1994 120.586 34.2002C125.036 34.2009 129.303 35.9688 132.449 39.1152C135.595 42.2615 137.363 46.5287 137.364 50.9783Z" fill="#FFA800"/>
<path d="M133.801 50.977C133.801 53.5907 133.026 56.1459 131.574 58.3193C130.122 60.4927 128.059 62.1867 125.644 63.1871C123.229 64.1875 120.572 64.4494 118.008 63.9396C115.445 63.4297 113.09 62.1711 111.242 60.323C109.394 58.4748 108.135 56.12 107.625 53.5564C107.115 50.9929 107.377 48.3357 108.377 45.9209C109.378 43.5062 111.072 41.4423 113.245 39.9903C115.418 38.5383 117.973 37.7634 120.587 37.7637C124.091 37.7645 127.452 39.1569 129.93 41.6346C132.407 44.1124 133.8 47.4728 133.801 50.977Z" fill="#FFCC00"/>
<path d="M113.988 48.9784H115.448C115.538 48.1884 115.752 47.4177 116.083 46.6946C116.39 46.0141 116.812 45.3917 117.331 44.8548C117.843 44.3293 118.458 43.9151 119.138 43.638C119.88 43.3404 120.675 43.193 121.475 43.2043C122.876 43.1342 124.253 43.5909 125.335 44.4848C126.355 45.4508 126.964 46.7719 127.037 48.1747H124.394C124.337 47.3957 124.008 46.6618 123.463 46.1025C122.921 45.6098 122.206 45.3512 121.475 45.3831C121.05 45.3592 120.625 45.4346 120.234 45.6034C119.843 45.7721 119.496 46.0297 119.222 46.3555C118.648 47.1183 118.3 48.0272 118.219 48.9784H122.575L122.322 50.3105H118.155V51.7493H122.046L121.814 53.0813H118.219C118.29 54.0137 118.643 54.9022 119.232 55.6285C119.521 55.9349 119.873 56.1743 120.264 56.3298C120.655 56.4854 121.075 56.5532 121.495 56.5286C123.258 56.5286 124.28 55.5063 124.562 53.4617H127.185C127.084 54.9319 126.457 56.3167 125.419 57.3633C124.33 58.327 122.906 58.8245 121.454 58.7487C120.652 58.762 119.854 58.6181 119.107 58.3253C118.436 58.0567 117.824 57.6578 117.308 57.1516C116.791 56.6361 116.372 56.0307 116.071 55.3652C115.745 54.6412 115.534 53.8706 115.448 53.0813H113.988V51.7493H115.384V50.3105H113.988L113.988 48.9784Z" fill="#FFA800"/>
</svg>
