<svg width="134" height="135" viewBox="0 0 134 135" fill="none" xmlns="http://www.w3.org/2000/svg">
<mask id="mask0_14528_326573" style="mask-type:alpha" maskUnits="userSpaceOnUse" x="0" y="0" width="134" height="135">
<rect width="134" height="135" fill="#C4C4C4"/>
</mask>
<g mask="url(#mask0_14528_326573)">
<path fill-rule="evenodd" clip-rule="evenodd" d="M20.8979 28.4695C20.8979 27.7791 21.4576 27.2195 22.1479 27.2195H36.6175C37.3079 27.2195 37.8675 27.7791 37.8675 28.4695V40.713C37.8675 41.4033 37.3079 41.963 36.6175 41.963H22.1479C21.4576 41.963 20.8979 41.4033 20.8979 40.713V28.4695ZM23.3979 29.7195V39.463H35.3675V29.7195H23.3979Z" fill="#505050"/>
<path d="M48.8608 29.2646H75.2803V37.1905H48.8608V29.2646Z" fill="#27D1D6"/>
<path d="M48.8608 72.9912H56.7867V80.9171H48.8608V72.9912Z" fill="#27D1D6"/>
<path d="M48.8608 86.2012H56.7867V94.127H48.8608V86.2012Z" fill="#27D1D6"/>
<path d="M48.8608 51.0972H75.2803V59.023H48.8608V51.0972Z" fill="#27D1D6"/>
<path d="M48.8608 39.832H99.0579V42.474H48.8608V39.832Z" fill="#0073E6"/>
<path d="M48.8608 61.6653H99.0579V64.3072H48.8608V61.6653Z" fill="#0073E6"/>
<path d="M59.4287 78.2749H77.9224V80.9169H59.4287V78.2749Z" fill="#0073E6"/>
<path d="M59.4287 91.4849H77.9224V94.1268H59.4287V91.4849Z" fill="#0073E6"/>
<path fill-rule="evenodd" clip-rule="evenodd" d="M12.6 15.25C6.90734 15.25 2.25 19.9652 2.25 25.8345V93.435C2.25 99.3044 6.90734 104.02 12.6 104.02H117.4C123.093 104.02 127.75 99.3044 127.75 93.435V25.8345C127.75 19.9652 123.093 15.25 117.4 15.25H12.6ZM-0.25 25.8345C-0.25 18.6318 5.47969 12.75 12.6 12.75H117.4C124.52 12.75 130.25 18.6318 130.25 25.8345V93.435C130.25 100.638 124.52 106.52 117.4 106.52H12.6C5.47969 106.52 -0.25 100.638 -0.25 93.435V25.8345Z" fill="#505050"/>
<path d="M39.8535 28.2042L33.3128 34.1185C33.1682 34.2492 32.9721 34.3227 32.7675 34.3227C32.563 34.3227 32.3668 34.2492 32.2222 34.1185L29.147 31.3378C29.0024 31.207 28.8062 31.1336 28.6017 31.1336C28.3972 31.1336 28.2011 31.207 28.0564 31.3378L25.2258 33.8973C25.0813 34.028 25.0001 34.2052 25 34.3901C24.9999 34.5749 25.081 34.7522 25.2254 34.883L31.4252 40.4988C31.6005 40.6576 31.8087 40.7836 32.0379 40.8696C32.2671 40.9556 32.5128 40.9999 32.7609 41C33.0091 41.0001 33.2548 40.956 33.4841 40.8702C33.7134 40.7843 33.9217 40.6585 34.0971 40.4998L43.7741 31.7495C43.9188 31.6187 44 31.4413 44 31.2564C44 31.0715 43.9188 30.8941 43.7741 30.7633L40.9441 28.2042C40.7995 28.0735 40.6033 28 40.3988 28C40.1943 28 39.9981 28.0735 39.8535 28.2042Z" fill="#0073E6"/>
<path fill-rule="evenodd" clip-rule="evenodd" d="M29.147 31.3378L32.2222 34.1185C32.3668 34.2492 32.563 34.3227 32.7675 34.3227C32.9721 34.3227 33.1682 34.2492 33.3128 34.1185L39.8535 28.2042C39.9981 28.0735 40.1943 28 40.3988 28C40.6033 28 40.7995 28.0735 40.9441 28.2042L43.7741 30.7633C43.9188 30.8941 44 31.0715 44 31.2564C44 31.4413 43.9188 31.6187 43.7741 31.7495L34.0971 40.4998C33.9217 40.6585 33.7134 40.7843 33.4841 40.8702C33.2548 40.956 33.0091 41.0001 32.7609 41C32.5128 40.9999 32.2671 40.9556 32.0379 40.8696C31.8087 40.7836 31.6005 40.6576 31.4252 40.4988L25.2254 34.883C25.081 34.7522 24.9999 34.5749 25 34.3901C25.0001 34.2052 25.0813 34.028 25.2258 33.8973L28.0564 31.3378C28.2011 31.207 28.3972 31.1336 28.6017 31.1336C28.8062 31.1336 29.0024 31.207 29.147 31.3378ZM24.5541 35.6242C24.5541 35.6242 24.5541 35.6242 24.5541 35.6242C24.2131 35.3153 23.9998 34.8738 24 34.3896C24.0002 33.9054 24.2139 33.4642 24.5551 33.1556L27.3857 30.5961C27.7238 30.2904 28.1627 30.1336 28.6017 30.1336C29.0408 30.1336 29.4796 30.2903 29.8177 30.596L32.7675 33.2634L39.1828 27.4625C39.5209 27.1568 39.9597 27 40.3988 27C40.8378 27 41.2767 27.1568 41.6147 27.4625L44.4449 30.0216C44.7863 30.3303 45 30.7719 45 31.2564C45 31.7409 44.7863 32.1824 44.4449 32.4912L34.7678 41.2416C34.4956 41.4877 34.1778 41.6783 33.8346 41.8067C33.4916 41.9351 33.1269 42.0001 32.7605 42C32.3942 41.9999 32.0295 41.9345 31.6866 41.8058C31.3436 41.6771 31.0258 41.4863 30.7539 41.2399" fill="#F7FAFD"/>
<path fill-rule="evenodd" clip-rule="evenodd" d="M20.8979 51.8435C20.8979 51.1531 21.4576 50.5935 22.1479 50.5935H36.6175C37.3079 50.5935 37.8675 51.1531 37.8675 51.8435V64.087C37.8675 64.7773 37.3079 65.337 36.6175 65.337H22.1479C21.4576 65.337 20.8979 64.7773 20.8979 64.087V51.8435ZM23.3979 53.0935V62.837H35.3675V53.0935H23.3979Z" fill="#505050"/>
<path fill-rule="evenodd" clip-rule="evenodd" d="M20.8979 74.1042C20.8979 73.4139 21.4576 72.8542 22.1479 72.8542H36.6175C37.3079 72.8542 37.8675 73.4139 37.8675 74.1042V86.3477C37.8675 87.0381 37.3079 87.5977 36.6175 87.5977H22.1479C21.4576 87.5977 20.8979 87.0381 20.8979 86.3477V74.1042ZM23.3979 75.3542V85.0977H35.3675V75.3542H23.3979Z" fill="#505050"/>
</g>
</svg>
