<svg width="330" height="160" viewBox="0 0 330 160" fill="none" xmlns="http://www.w3.org/2000/svg">
<path d="M-1.48709e-06 93.9794L1.86099e-06 3.99999C1.94319e-06 1.79086 1.79086 -7.82813e-08 4 -1.74846e-07L326 1.00888e-06C328.209 9.12312e-07 330 1.79086 330 4L330 93.9794C330 93.9794 273.866 128 165 128C56.134 128 -1.48709e-06 93.9794 -1.48709e-06 93.9794Z" fill="#F0F6FC"/>
<path d="M262.003 132.625L262.003 125.12L258.048 124.275C257.822 123.183 257.519 122.107 257.141 121.058L260.049 118.433L256.297 111.933L252.443 113.178C251.701 112.348 250.901 111.571 250.051 110.853L251.26 107.114L244.761 103.362L242.048 106.365C240.99 106.017 239.909 105.744 238.813 105.547L237.991 101.708H230.487L229.639 105.663C228.547 105.889 227.472 106.193 226.423 106.571L223.795 103.662L217.298 107.414L218.542 111.268C217.714 112.011 216.937 112.809 216.217 113.658L212.479 112.45L208.726 118.95L211.729 121.663C211.382 122.721 211.109 123.802 210.912 124.898L207.073 125.722L207.072 133.226L211.027 134.072C211.254 135.164 211.557 136.238 211.934 137.288L209.026 139.917L212.778 146.414L216.633 145.169C217.375 145.999 218.174 146.776 219.023 147.495L217.815 151.233L224.314 154.984L227.026 151.981C228.084 152.328 229.165 152.602 230.261 152.799L231.085 156.638H238.589L239.436 152.684C240.529 152.458 241.604 152.155 242.654 151.778L245.28 154.684L251.779 150.935L250.534 147.078C251.363 146.336 252.14 145.538 252.859 144.689L256.596 145.896L260.348 139.397L257.346 136.685C257.694 135.626 257.967 134.545 258.165 133.448L262.003 132.625ZM247.145 129.174C247.144 131.668 246.405 134.105 245.02 136.178C243.635 138.251 241.666 139.867 239.362 140.821C237.058 141.775 234.524 142.025 232.078 141.538C229.633 141.052 227.387 139.851 225.624 138.088C223.861 136.325 222.66 134.079 222.173 131.633C221.687 129.188 221.937 126.653 222.891 124.35C223.845 122.046 225.461 120.077 227.534 118.692C229.607 117.307 232.044 116.567 234.538 116.567C236.193 116.567 237.833 116.893 239.362 117.527C240.892 118.161 242.281 119.089 243.452 120.26C244.623 121.43 245.551 122.82 246.185 124.35C246.818 125.879 247.145 127.519 247.145 129.174H247.145Z" fill="#7EB3FF"/>
<path d="M251.893 129.361C251.893 132.686 250.907 135.935 249.061 138.699C247.214 141.464 244.589 143.618 241.517 144.89C238.446 146.162 235.067 146.495 231.806 145.846C228.546 145.198 225.551 143.597 223.201 141.246C220.85 138.895 219.25 135.9 218.602 132.639C217.953 129.379 218.287 125.999 219.56 122.928C220.832 119.857 222.987 117.232 225.752 115.386C228.516 113.54 231.766 112.555 235.09 112.556C237.297 112.556 239.482 112.99 241.521 113.835C243.56 114.679 245.412 115.917 246.973 117.478C248.533 119.039 249.771 120.891 250.615 122.93C251.459 124.969 251.893 127.155 251.893 129.361Z" fill="#FFCC00"/>
<path d="M251.382 129.363C251.382 132.586 250.427 135.737 248.637 138.417C246.846 141.097 244.302 143.186 241.324 144.42C238.346 145.654 235.07 145.977 231.908 145.348C228.747 144.719 225.843 143.167 223.564 140.888C221.285 138.609 219.733 135.705 219.105 132.544C218.476 129.383 218.799 126.106 220.033 123.129C221.267 120.151 223.356 117.606 226.036 115.816C228.716 114.026 231.867 113.071 235.09 113.071C239.411 113.072 243.554 114.789 246.61 117.844C249.665 120.899 251.381 125.042 251.382 129.363Z" fill="#D98F00"/>
<path d="M247.921 129.361C247.921 131.899 247.169 134.381 245.759 136.491C244.349 138.601 242.345 140.246 240.001 141.218C237.656 142.189 235.076 142.443 232.587 141.948C230.097 141.453 227.811 140.231 226.016 138.436C224.221 136.642 222.999 134.355 222.504 131.866C222.009 129.377 222.263 126.797 223.235 124.452C224.206 122.107 225.851 120.103 227.961 118.693C230.072 117.283 232.553 116.531 235.091 116.531C238.493 116.532 241.756 117.884 244.162 120.29C246.568 122.696 247.92 125.959 247.921 129.361Z" fill="#FFCC00"/>
<path d="M228.683 127.419H230.1C230.188 126.652 230.396 125.904 230.717 125.202C231.015 124.541 231.425 123.936 231.929 123.415C232.426 122.905 233.024 122.503 233.683 122.234C234.405 121.945 235.176 121.802 235.953 121.812C237.314 121.744 238.651 122.188 239.701 123.056C240.691 123.994 241.283 125.277 241.354 126.639H238.787C238.732 125.882 238.412 125.17 237.883 124.627C237.357 124.148 236.663 123.897 235.953 123.928C235.54 123.905 235.127 123.978 234.748 124.142C234.368 124.306 234.032 124.556 233.765 124.872C233.208 125.613 232.87 126.496 232.791 127.419H237.021L236.775 128.713H232.729V130.11H236.508L236.282 131.403H232.791C232.86 132.308 233.204 133.171 233.775 133.876C234.055 134.174 234.397 134.406 234.777 134.557C235.157 134.709 235.565 134.774 235.973 134.75C237.684 134.75 238.677 133.758 238.951 131.773H241.498C241.399 133.2 240.791 134.545 239.783 135.561C238.726 136.497 237.343 136.98 235.933 136.906C235.153 136.919 234.379 136.779 233.653 136.495C233.002 136.234 232.408 135.847 231.907 135.355C231.405 134.855 230.998 134.267 230.705 133.621C230.389 132.918 230.185 132.17 230.101 131.403H228.683V130.11H230.039V128.713H228.683L228.683 127.419Z" fill="#D98F00"/>
<path d="M216.112 150.184V94.4701V66.537L196.099 46.5166H140.264V67.1973V94.4701V150.184H216.112Z" fill="#EAF4FE"/>
<path d="M196.099 66.537H216.112L196.099 46.5166V66.537Z" fill="#7EB3FF"/>
<path d="M216.113 66.5371H196.1L216.113 86.5543V66.5371Z" fill="#C5E1F9"/>
<path d="M223.498 147.839C223.498 148.275 223.413 148.706 223.247 149.108C223.081 149.511 222.837 149.876 222.529 150.185C222.221 150.493 221.856 150.737 221.454 150.904C221.052 151.071 220.621 151.157 220.185 151.157H109.65C109.214 151.157 108.783 151.071 108.381 150.904C107.978 150.737 107.612 150.493 107.304 150.185C106.996 149.877 106.752 149.511 106.585 149.109C106.418 148.706 106.333 148.275 106.333 147.839V75.992C106.333 75.5565 106.419 75.1251 106.585 74.7227C106.752 74.3203 106.996 73.9547 107.304 73.6468C107.613 73.3388 107.978 73.0946 108.381 72.928C108.783 72.7614 109.214 72.6757 109.65 72.6758H220.185C220.621 72.6758 221.052 72.7615 221.454 72.9282C221.856 73.0949 222.221 73.3393 222.529 73.6473C222.837 73.9553 223.08 74.3209 223.247 74.7232C223.413 75.1255 223.498 75.5567 223.498 75.992V147.839Z" fill="#D98F00"/>
<path d="M112.676 155.483H168.393H216.342V135.467V79.6338H195.661H168.393H112.676V155.483Z" fill="#9AC7F7"/>
<path d="M213.103 82.8711H115.913V152.244H213.103V82.8711Z" fill="#74B8DC"/>
<path d="M112.675 156.174H168.392H216.342V136.158V80.3242H195.661H168.392H112.675V156.174Z" fill="#C5E1F9"/>
<path d="M213.102 83.5625H115.913V152.935H213.102V83.5625Z" fill="#67ACF5"/>
<path d="M216.111 150.185V94.471V66.538L196.097 46.5176H140.263V67.1983V94.471V150.185H216.111Z" fill="white"/>
<path d="M205.178 95.8105H151.754V97.1286H205.178V95.8105Z" fill="#C5E1F9"/>
<path d="M206.551 98.9629H151.754V100.283H206.551V98.9629Z" fill="#C5E1F9"/>
<path d="M205.405 102.117H151.754V103.432H205.405V102.117Z" fill="#C5E1F9"/>
<path d="M199.094 105.271H151.754V106.587H199.094V105.271Z" fill="#C5E1F9"/>
<path d="M205.178 71.2529H151.754V72.5713H205.178V71.2529Z" fill="#C5E1F9"/>
<path d="M206.551 74.4043H151.754V75.7237H206.551V74.4043Z" fill="#C5E1F9"/>
<path d="M205.405 77.5596H151.754V78.8735H205.405V77.5596Z" fill="#C5E1F9"/>
<path d="M178.718 80.7109H151.754V82.0279H178.718V80.7109Z" fill="#C5E1F9"/>
<path d="M205.178 86.3223H151.754V87.6399H205.178V86.3223Z" fill="#C5E1F9"/>
<path d="M206.551 89.4746H151.754V90.7932H206.551V89.4746Z" fill="#C5E1F9"/>
<path d="M205.405 92.6289H151.754V93.9428H205.405V92.6289Z" fill="#C5E1F9"/>
<path d="M205.178 111.069H151.754V112.386H205.178V111.069Z" fill="#C5E1F9"/>
<path d="M206.551 114.224H151.754V115.539H206.551V114.224Z" fill="#C5E1F9"/>
<path d="M205.405 117.375H151.754V118.691H205.405V117.375Z" fill="#C5E1F9"/>
<path d="M184.212 120.527H151.754V121.844H184.212V120.527Z" fill="#C5E1F9"/>
<path d="M205.178 126.143H151.754V127.456H205.178V126.143Z" fill="#C5E1F9"/>
<path d="M206.551 129.29H151.754V130.606H206.551V129.29Z" fill="#C5E1F9"/>
<path d="M169.337 132.443H151.754V133.761H169.337V132.443Z" fill="#C5E1F9"/>
<path d="M177.187 64.9736H151.668V67.115H177.187V64.9736Z" fill="#9AC7F7"/>
<path d="M196.095 66.538H216.108L196.095 46.5176V66.538Z" fill="#67ACF5"/>
<path d="M216.108 66.5391H196.095L216.108 86.5562V66.5391Z" fill="#C5DFF5"/>
<path d="M231.79 100.31C231.79 99.8747 231.704 99.4435 231.538 99.0413C231.371 98.639 231.127 98.2735 230.819 97.9656C230.511 97.6578 230.146 97.4136 229.744 97.2471C229.341 97.0806 228.91 96.9949 228.475 96.9951H172.42L167.648 104.732H103.018C102.138 104.732 101.295 105.081 100.673 105.703C100.05 106.325 99.7007 107.168 99.7002 108.048L106.333 155.026C106.333 155.906 106.683 156.75 107.305 157.371C107.927 157.993 108.77 158.343 109.65 158.343H220.185C220.62 158.343 221.051 158.257 221.454 158.09C221.856 157.923 222.221 157.679 222.529 157.371C222.836 157.063 223.08 156.697 223.246 156.295C223.413 155.893 223.498 155.462 223.498 155.026L231.79 100.31Z" fill="#FECE40"/>
<path d="M231.79 101.968C231.79 101.533 231.704 101.102 231.538 100.7C231.371 100.297 231.127 99.9319 230.819 99.6241C230.511 99.3162 230.146 99.0721 229.743 98.9055C229.341 98.7389 228.91 98.6533 228.475 98.6533H172.42L167.648 106.391H103.018C102.582 106.39 102.151 106.476 101.748 106.643C101.346 106.809 100.98 107.053 100.672 107.361C100.364 107.669 100.12 108.035 99.9529 108.437C99.7861 108.84 99.7002 109.271 99.7002 109.707L106.333 156.684C106.333 157.564 106.683 158.408 107.305 159.029C107.927 159.651 108.77 160 109.65 160H220.185C220.62 160 221.051 159.914 221.454 159.748C221.856 159.581 222.221 159.337 222.529 159.029C222.836 158.721 223.08 158.355 223.246 157.953C223.413 157.551 223.498 157.12 223.498 156.684L231.79 101.968Z" fill="#FFBF0D"/>
<path d="M113.004 61.8848H134.976V91.4099L117.467 85.5735L113.004 61.8848Z" fill="#D98F00"/>
<path d="M113.004 68.0645H134.976V97.5896L117.467 91.7532L113.004 68.0645Z" fill="#C5E1F9"/>
<path d="M113.004 70.125H134.976V99.6501L117.467 93.8137L113.004 70.125Z" fill="#67ACF5"/>
<path d="M150.927 97.3311C170.691 97.3311 186.712 81.1253 186.712 61.1344C186.727 53.2032 184.144 45.4853 179.357 39.1611H131.26V91.3696C137.08 95.2624 143.925 97.3374 150.927 97.3311Z" fill="white"/>
<path d="M179.799 77.9316H139.361V79.2497H179.799V77.9316Z" fill="#C5E1F9"/>
<path d="M178.731 81.083H139.361V82.4035H178.731V81.083Z" fill="#C5E1F9"/>
<path d="M176.189 84.2373H139.361V85.5522H176.189V84.2373Z" fill="#C5E1F9"/>
<path d="M173.253 87.3906H139.361V88.7066H173.253V87.3906Z" fill="#C5E1F9"/>
<path d="M182.232 53.374H154.926V54.6924H182.232V53.374Z" fill="#C5E1F9"/>
<path d="M182.934 56.5234H154.926V57.8429H182.934V56.5234Z" fill="#C5E1F9"/>
<path d="M182.348 59.6797H154.926V60.9936H182.348V59.6797Z" fill="#C5E1F9"/>
<path d="M171.819 62.832H139.361V64.149H171.819V62.832Z" fill="#C5E1F9"/>
<path d="M184.32 68.4434H139.361V69.761H184.32V68.4434Z" fill="#C5E1F9"/>
<path d="M183.415 71.5947H139.361V72.9133H183.415V71.5947Z" fill="#C5E1F9"/>
<path d="M182.451 74.75H139.361V76.0639H182.451V74.75Z" fill="#C5E1F9"/>
<path d="M164.308 93.1904H139.361V94.5075H164.308V93.1904Z" fill="#C5E1F9"/>
<path d="M169.996 47.4648H154.89V49.5247H169.996V47.4648Z" fill="#9AC7F7"/>
<path d="M174.986 87.8138C181.477 81.303 185.511 72.7432 186.4 63.5923C187.288 54.4414 184.978 45.2652 179.861 37.6267C174.744 29.9882 167.137 24.3597 158.336 21.6998C149.536 19.0399 140.085 19.5131 131.594 23.0388C123.103 26.5646 116.096 32.9247 111.768 41.0361C107.44 49.1476 106.057 58.5086 107.856 67.5249C109.654 76.5413 114.523 84.6554 121.632 90.4852C128.741 96.3151 137.652 99.5002 146.846 99.4981C152.076 99.507 157.255 98.479 162.086 96.4734C166.916 94.4679 171.3 91.5246 174.986 87.8138ZM124.012 82.6161C118.726 77.3345 115.435 70.3835 114.7 62.9475C113.965 55.5114 115.831 48.0506 119.98 41.8363C124.13 35.622 130.306 31.0388 137.456 28.8678C144.606 26.6967 152.287 27.0721 159.191 29.9299C166.095 32.7878 171.795 37.9513 175.319 44.5406C178.842 51.1298 179.972 58.7371 178.516 66.066C177.059 73.3949 173.106 79.992 167.33 84.733C161.555 89.4741 154.314 92.0657 146.842 92.0663C142.601 92.0738 138.401 91.2428 134.483 89.6209C130.565 87.9991 127.006 85.6185 124.012 82.6161H124.012Z" fill="#0058B0"/>
<path opacity="0.2" d="M169.592 36.8288C166.591 33.8379 163.031 31.4676 159.113 29.8534C155.196 28.2391 150.999 27.4126 146.762 27.421C142.525 27.4293 138.332 28.2725 134.421 29.9022C130.51 31.5319 126.959 33.9162 123.97 36.9189C120.981 39.9217 118.613 43.4839 117.001 47.4022C115.389 51.3204 114.565 55.5179 114.576 59.7547C114.587 63.9915 115.433 68.1846 117.065 72.0944C118.697 76.0042 121.084 79.5541 124.089 82.5412C127.089 85.5333 130.65 87.9046 134.568 89.5197C138.485 91.1349 142.683 91.9621 146.92 91.9542C151.157 91.9463 155.352 91.1034 159.263 89.4737C163.175 87.844 166.727 85.4594 169.716 82.4563C172.706 79.4531 175.074 75.8902 176.686 71.9713C178.297 68.0524 179.121 63.8543 179.11 59.6168C179.098 55.3794 178.252 51.1858 176.619 47.2757C174.985 43.3656 172.598 39.8157 169.592 36.8288Z" fill="white"/>
<path fill-rule="evenodd" clip-rule="evenodd" d="M152.623 47.3066H139.707V60.2227H152.623V47.3066Z" fill="#2A66C4"/>
<path fill-rule="evenodd" clip-rule="evenodd" d="M142.719 52.4536C142.61 52.4499 142.501 52.4694 142.4 52.5108C142.299 52.5523 142.208 52.6147 142.133 52.694C141.982 52.8594 141.903 53.0772 141.912 53.3004C141.906 53.5266 141.989 53.7461 142.144 53.9113C142.218 53.9915 142.309 54.0548 142.411 54.0971C142.512 54.1393 142.621 54.1594 142.73 54.1561C142.838 54.16 142.946 54.1405 143.045 54.099C143.145 54.0576 143.235 53.995 143.308 53.9157C143.457 53.7503 143.536 53.5338 143.529 53.3115C143.535 53.0872 143.457 52.8688 143.308 52.7006C143.235 52.6193 143.146 52.5551 143.046 52.5124C142.945 52.4697 142.837 52.4496 142.728 52.4536" fill="white"/>
<path d="M147.299 55.2513H146.163V57.2581H144.765V50.3623H147.299C148.935 50.3623 149.753 51.1599 149.753 52.755C149.753 53.5606 149.544 54.1796 149.125 54.6118C148.706 55.044 148.097 55.2572 147.299 55.2513ZM146.163 54.0539H147.29C147.987 54.0539 148.333 53.6128 148.333 52.755C148.364 52.4298 148.274 52.1046 148.08 51.842C147.976 51.7404 147.852 51.6624 147.716 51.6133C147.58 51.5642 147.435 51.5452 147.29 51.5575H146.163V54.0539Z" fill="white"/>
<path opacity="0.2" d="M121.338 45.0008C125.697 40.6465 131.247 37.6802 137.289 36.4762C143.331 35.2722 149.595 35.8844 155.29 38.2355C160.984 40.5866 165.855 44.5713 169.288 49.6872C172.722 54.8031 174.563 60.821 174.58 66.9819L174.583 67.0256C174.588 70.213 174.103 73.3822 173.145 76.4219C176.348 71.4206 178.044 65.6027 178.03 59.6632L178.028 59.6227C178.005 52.1828 175.325 44.9959 170.469 39.3584C165.614 33.7209 158.905 30.004 151.55 28.878C144.196 27.752 136.681 29.2912 130.362 33.2178C124.043 37.1444 119.334 43.2 117.087 50.2923C118.308 48.3801 119.734 46.6059 121.338 45.0008Z" fill="white"/>
<path d="M112.619 59.6787C112.627 50.6094 116.235 41.9142 122.65 35.5035C129.065 29.0928 137.763 25.4908 146.832 25.489C155.902 25.4872 164.601 29.0857 171.019 35.4939C177.437 41.9021 181.048 50.5958 181.06 59.6651L184.396 59.6668C184.394 59.6423 184.395 59.6176 184.397 59.5931C184.378 49.637 180.406 40.0959 173.355 33.067C166.304 26.0381 156.75 22.0964 146.794 22.1084C136.838 22.1204 127.294 26.0851 120.26 33.131C113.226 40.1769 109.277 49.7274 109.282 59.6836L112.622 59.6889L112.619 59.6787Z" fill="#003C77"/>
<path d="M117.41 96.2318C119.575 94.1211 121.743 92.0094 123.915 89.8967C124.386 89.4335 124.761 88.881 125.017 88.2716C125.272 87.6622 125.404 87.008 125.405 86.3472C124.483 85.593 123.6 84.7932 122.759 83.9507C121.882 83.0766 121.051 82.1583 120.268 81.1992C119.608 81.2016 118.956 81.334 118.348 81.5888C117.74 81.8437 117.188 82.2159 116.723 82.6843C114.548 84.7973 112.369 86.9179 110.185 89.0462C108.13 91.0943 108.829 93.5074 110.897 95.5186L110.907 95.5305C112.958 97.5737 115.388 98.2703 117.41 96.2318Z" fill="#0058B0"/>
<path d="M108.464 86.5558L69.7566 125.264L81.2547 136.762L119.963 98.0539L108.464 86.5558Z" fill="#0058B0"/>
<path d="M114.292 92.381L75.5842 131.089L80.3343 135.839L119.042 97.131L114.292 92.381Z" fill="#003C77"/>
<path d="M108.464 86.5543L105.705 89.3145L117.206 100.812L119.965 98.0515L108.464 86.5543Z" fill="#C5E1F9"/>
<path d="M113.18 92.5339L111.283 94.4316L116.363 99.5095L118.26 97.6118L113.18 92.5339Z" fill="#EAF4FE"/>
<path d="M78.4966 139.516C76.9867 139.516 75.4916 139.219 74.0967 138.641C72.7017 138.064 71.4343 137.217 70.3666 136.149C69.299 135.082 68.4522 133.814 67.8746 132.419C67.2969 131.024 66.9997 129.529 67 128.019C67.9201 127.099 68.8366 126.183 69.7586 125.264C73.5945 129.1 77.4272 132.932 81.2568 136.762C80.3346 137.681 79.4182 138.597 78.4966 139.516Z" fill="#C5E1F9"/>
<path d="M77.4659 138.404L72.3867 133.325L74.7611 130.958L79.8366 136.033L77.4659 138.404Z" fill="#EAF4FE"/>
</svg>
