<svg width="330" height="160" viewBox="0 0 330 160" fill="none" xmlns="http://www.w3.org/2000/svg">
<path d="M-1.48709e-06 93.9794L1.86099e-06 3.99999C1.94319e-06 1.79086 1.79086 -7.82813e-08 4 -1.74846e-07L326 1.00888e-06C328.209 9.12312e-07 330 1.79086 330 4L330 93.9794C330 93.9794 273.866 128 165 128C56.134 128 -1.48709e-06 93.9794 -1.48709e-06 93.9794Z" fill="#F0F6FC"/>
<g clip-path="url(#clip0_2127:27640)">
<path d="M237.573 115.431V40.8402C237.571 39.9097 237.201 39.0179 236.543 38.3601C235.884 37.7022 234.993 37.3319 234.062 37.3301H112.933C112.003 37.3312 111.11 37.7013 110.452 38.3593C109.794 39.0173 109.424 39.9095 109.422 40.8402V115.431H237.573Z" fill="#0058B0"/>
<path d="M109.168 115.571V126.358C109.169 127.356 109.567 128.312 110.273 129.017C110.979 129.722 111.936 130.118 112.934 130.117H234.062C235.059 130.117 236.015 129.721 236.72 129.016C237.425 128.311 237.821 127.355 237.822 126.358V115.571H109.168Z" fill="#C5E1F9"/>
<path d="M195.656 146.002C195.656 146.002 194.723 145.546 193.651 145.142C192.509 144.711 191.135 144.174 190.324 143.786C188.91 143.105 188.787 142.658 188.257 140.339C187.679 137.802 187.134 132.451 186.916 130.117H160.085C159.863 132.451 159.318 137.802 158.742 140.339C158.212 142.658 158.092 143.105 156.674 143.786C155.868 144.172 154.521 144.701 153.384 145.131C152.296 145.538 151.409 145.854 151.409 145.854C151.409 145.854 150.542 146.334 151.93 146.402H195.069C196.37 146.428 195.656 146.002 195.656 146.002Z" fill="#C5E1F9"/>
<path d="M187.199 132.937C187.079 131.826 186.978 130.83 186.915 130.117H160.078C160.013 130.83 159.914 131.826 159.796 132.937H187.199Z" fill="#9AC7F7"/>
<path d="M132.438 115.431H159.111L207.859 37.3301H181.194L132.438 115.431Z" fill="#1F62B2"/>
<path d="M166.731 115.431H176.466L225.213 37.3301H215.479L166.731 115.431Z" fill="#1F62B2"/>
<path d="M231.637 43.0996H115.399V108.552H231.637V43.0996Z" fill="#C5E1F9"/>
<path d="M250.5 123.657L250.5 118.206L247.628 117.592C247.463 116.799 247.243 116.018 246.968 115.255L249.081 113.349L246.355 108.628L243.556 109.532C243.017 108.929 242.436 108.365 241.818 107.843L242.697 105.127L237.976 102.401L236.005 104.583C235.237 104.33 234.452 104.132 233.656 103.989L233.058 101.2H227.607L226.992 104.073C226.198 104.237 225.418 104.458 224.655 104.732L222.747 102.619L218.027 105.345L218.931 108.145C218.329 108.684 217.765 109.264 217.242 109.88L214.527 109.003L211.801 113.724L213.982 115.695C213.73 116.464 213.532 117.249 213.389 118.044L210.601 118.643L210.6 124.094L213.472 124.709C213.637 125.502 213.857 126.282 214.131 127.044L212.019 128.954L214.744 133.674L217.545 132.769C218.084 133.372 218.664 133.936 219.281 134.458L218.403 137.174L223.124 139.898L225.094 137.717C225.862 137.97 226.647 138.168 227.443 138.311L228.042 141.1H233.492L234.108 138.228C234.902 138.063 235.683 137.843 236.445 137.569L238.353 139.68L243.074 136.957L242.169 134.156C242.771 133.617 243.336 133.037 243.858 132.42L246.573 133.297L249.298 128.577L247.118 126.606C247.37 125.838 247.569 125.052 247.712 124.256L250.5 123.657ZM239.707 121.151C239.707 122.962 239.17 124.732 238.164 126.238C237.158 127.744 235.728 128.918 234.054 129.611C232.381 130.304 230.54 130.485 228.764 130.132C226.987 129.779 225.356 128.906 224.075 127.626C222.794 126.345 221.922 124.713 221.569 122.937C221.216 121.161 221.397 119.32 222.09 117.646C222.783 115.973 223.957 114.543 225.463 113.537C226.969 112.531 228.739 111.994 230.55 111.994C231.753 111.994 232.943 112.23 234.054 112.691C235.165 113.151 236.175 113.825 237.025 114.676C237.876 115.526 238.55 116.536 239.01 117.647C239.47 118.758 239.707 119.948 239.707 121.151H239.707Z" fill="#7EB3FF"/>
<path d="M243.156 121.286C243.156 123.701 242.44 126.061 241.098 128.069C239.757 130.077 237.85 131.642 235.619 132.566C233.388 133.49 230.934 133.732 228.565 133.26C226.197 132.789 224.022 131.626 222.314 129.919C220.607 128.211 219.445 126.036 218.974 123.667C218.503 121.299 218.745 118.844 219.67 116.613C220.594 114.383 222.159 112.476 224.167 111.135C226.175 109.794 228.536 109.078 230.951 109.079C232.554 109.079 234.141 109.395 235.622 110.008C237.103 110.622 238.448 111.521 239.582 112.655C240.715 113.788 241.614 115.134 242.227 116.615C242.841 118.096 243.156 119.683 243.156 121.286Z" fill="#FFCC00"/>
<path d="M242.784 121.287C242.785 123.628 242.091 125.917 240.79 127.864C239.49 129.811 237.641 131.328 235.478 132.224C233.316 133.12 230.936 133.355 228.639 132.898C226.343 132.442 224.234 131.314 222.578 129.659C220.923 128.003 219.796 125.894 219.339 123.598C218.883 121.301 219.117 118.921 220.013 116.758C220.91 114.596 222.427 112.747 224.374 111.447C226.321 110.146 228.61 109.453 230.951 109.453C234.089 109.454 237.099 110.701 239.318 112.92C241.537 115.139 242.784 118.149 242.784 121.287Z" fill="#D98F00"/>
<path d="M240.271 121.285C240.271 123.129 239.724 124.931 238.7 126.464C237.676 127.997 236.221 129.192 234.517 129.897C232.814 130.603 230.94 130.788 229.132 130.428C227.324 130.068 225.663 129.181 224.359 127.877C223.056 126.574 222.168 124.913 221.808 123.105C221.449 121.297 221.633 119.422 222.339 117.719C223.045 116.016 224.239 114.56 225.772 113.536C227.305 112.512 229.107 111.966 230.951 111.966C233.422 111.966 235.793 112.948 237.54 114.696C239.288 116.444 240.27 118.814 240.271 121.285Z" fill="#FFCC00"/>
<path d="M226.298 119.875H227.327C227.391 119.318 227.542 118.775 227.775 118.265C227.991 117.785 228.289 117.346 228.655 116.967C229.016 116.596 229.45 116.304 229.93 116.109C230.453 115.899 231.014 115.795 231.578 115.803C232.566 115.753 233.538 116.075 234.301 116.706C235.02 117.387 235.45 118.319 235.501 119.308H233.637C233.597 118.759 233.364 118.241 232.98 117.847C232.598 117.499 232.094 117.317 231.578 117.34C231.278 117.323 230.978 117.376 230.702 117.495C230.427 117.614 230.182 117.796 229.989 118.025C229.584 118.563 229.339 119.204 229.281 119.875H232.354L232.175 120.815H229.236V121.83H231.981L231.817 122.769H229.281C229.332 123.427 229.581 124.053 229.996 124.566C230.2 124.782 230.448 124.951 230.724 125.06C231 125.17 231.296 125.218 231.593 125.201C232.836 125.201 233.557 124.48 233.756 123.037H235.606C235.534 124.074 235.092 125.051 234.36 125.789C233.592 126.469 232.588 126.82 231.563 126.767C230.997 126.776 230.435 126.674 229.908 126.468C229.434 126.278 229.003 125.997 228.639 125.64C228.274 125.276 227.979 124.849 227.766 124.38C227.536 123.869 227.388 123.326 227.327 122.769H226.298V121.83H227.282V120.815H226.298L226.298 119.875Z" fill="#D98F00"/>
<mask id="mask0_2127:27640" style="mask-type:alpha" maskUnits="userSpaceOnUse" x="115" y="43" width="117" height="66">
<path d="M231.638 43.1006H115.4V108.553H231.638V43.1006Z" fill="#C5E1F9"/>
</mask>
<g mask="url(#mask0_2127:27640)">
<path d="M238.738 51.8418H175.829V99.0976H238.738V51.8418Z" fill="#EAF4FE"/>
<path d="M238.738 51.8418H175.829V56.3563H238.738V51.8418Z" fill="#0058B0"/>
<path d="M236.029 52.9717H198.706V55.2289H236.029V52.9717Z" fill="white"/>
<path d="M179.14 54.1003C179.14 54.2789 179.087 54.4535 178.988 54.602C178.889 54.7505 178.748 54.8663 178.583 54.9347C178.418 55.0031 178.237 55.0211 178.061 54.9863C177.886 54.9516 177.725 54.8657 177.599 54.7395C177.473 54.6133 177.386 54.4524 177.351 54.2773C177.316 54.1022 177.334 53.9206 177.402 53.7555C177.471 53.5905 177.586 53.4493 177.735 53.35C177.883 53.2506 178.058 53.1975 178.236 53.1973C178.476 53.1972 178.706 53.2923 178.875 53.4616C179.045 53.6309 179.14 53.8607 179.14 54.1003Z" fill="#D98F00"/>
<path d="M182 54.1003C182 54.2787 181.947 54.4531 181.848 54.6015C181.749 54.7498 181.608 54.8654 181.443 54.9337C181.278 55.002 181.097 55.0199 180.922 54.9851C180.747 54.9504 180.586 54.8645 180.46 54.7384C180.333 54.6124 180.247 54.4517 180.212 54.2767C180.177 54.1017 180.195 53.9203 180.263 53.7554C180.331 53.5905 180.447 53.4495 180.595 53.3501C180.743 53.2508 180.917 53.1976 181.096 53.1973C181.335 53.1973 181.565 53.2924 181.735 53.4618C181.904 53.6311 182 53.8607 182 54.1003Z" fill="#FFCC00"/>
<path d="M184.859 54.1003C184.859 54.2789 184.806 54.4536 184.707 54.6021C184.608 54.7507 184.467 54.8664 184.302 54.9348C184.137 55.0032 183.955 55.0211 183.78 54.9863C183.605 54.9514 183.444 54.8654 183.317 54.7391C183.191 54.6128 183.105 54.4519 183.07 54.2767C183.035 54.1015 183.053 53.9199 183.121 53.7548C183.19 53.5898 183.306 53.4487 183.454 53.3495C183.603 53.2502 183.777 53.1973 183.956 53.1973C184.195 53.1976 184.425 53.2928 184.594 53.4621C184.763 53.6314 184.859 53.8609 184.859 54.1003Z" fill="#7EB3FF"/>
<path d="M237.441 84.9531H181.365V85.0895H237.441V84.9531Z" fill="#9AC7F7"/>
<path d="M237.441 76.8047H181.365V76.9423H237.441V76.8047Z" fill="#9AC7F7"/>
<path d="M237.441 68.6562H181.365V68.7945H237.441V68.6562Z" fill="#9AC7F7"/>
<path d="M237.432 71.0412L230.539 67.3147L223.318 70.1647L216.365 65.2789L210.964 69.9334L204.827 70.3273L200.805 64.0046L196.117 61.8412L191.244 65.9646L186.511 65.7746L181.481 70.2462L181.105 69.8216L186.305 65.1969L191.047 65.3878L196.026 61.1729L201.194 63.5574L205.128 69.7391L210.738 69.3773L216.328 64.5578L223.394 69.5246L230.576 66.6905L237.703 70.5418L237.432 71.0412Z" fill="#0561FC"/>
<path d="M179.838 84.7373H177.197V85.3046H179.838V84.7373Z" fill="#9AC7F7"/>
<path d="M179.838 76.5879H177.197V77.1561H179.838V76.5879Z" fill="#9AC7F7"/>
<path d="M179.838 68.4404H177.197V69.0093H179.838V68.4404Z" fill="#9AC7F7"/>
<path d="M217.524 81.8832L211.701 81.2911L206.067 79.2251L199.931 79.4175L196.314 75.6065L189.99 74.7035L187.17 80.9063L181.329 81.6855L181.254 81.1217L186.784 80.3843L189.647 74.0812L196.588 75.072L200.169 78.8418L206.161 78.6537L211.863 80.7446L217.442 81.3041L221.095 79.8416L225.244 74.3077L229.148 79.1896L231.174 78.6815L236.995 73.2363L237.383 73.6523L231.455 79.1978L228.933 79.8292L225.259 75.2356L221.452 80.3104L217.524 81.8832Z" fill="#D98F00"/>
<path d="M191.912 79.5044L186.928 75.4785L181.212 77.8751L180.991 77.3521L187.021 74.8221L191.89 78.756L200.369 71.0294L206.598 73.5598L213.017 77.7719L215.606 72.8396L218.593 70.5976L222.301 64.5469L226.782 66.8072L230.467 70.6743L234.193 69.9642L237.163 66.4401L237.596 66.8072L234.498 70.4843L230.268 71.2904L226.404 67.2352L222.513 65.2901L218.978 71.0207L215.999 73.2556L213.231 78.5928L206.335 74.0607L200.489 71.692L191.912 79.5044Z" fill="#7EB3FF"/>
<path d="M187.83 75.1026C187.83 75.2617 187.782 75.4173 187.694 75.5496C187.606 75.6819 187.48 75.7851 187.333 75.846C187.186 75.907 187.024 75.923 186.868 75.8921C186.712 75.8612 186.569 75.7847 186.456 75.6723C186.344 75.5599 186.267 75.4166 186.236 75.2606C186.204 75.1046 186.22 74.9428 186.281 74.7958C186.341 74.6487 186.444 74.5229 186.576 74.4342C186.709 74.3456 186.864 74.2982 187.023 74.2979C187.237 74.2978 187.442 74.3825 187.593 74.5334C187.744 74.6843 187.829 74.889 187.83 75.1026Z" fill="#7EB3FF"/>
<path d="M192.66 79.0344C192.66 79.1935 192.613 79.349 192.524 79.4812C192.436 79.6134 192.31 79.7165 192.163 79.7773C192.016 79.8381 191.855 79.854 191.699 79.8229C191.542 79.7918 191.399 79.7151 191.287 79.6026C191.174 79.4901 191.098 79.3467 191.067 79.1907C191.036 79.0347 191.052 78.8729 191.113 78.726C191.173 78.579 191.277 78.4534 191.409 78.365C191.541 78.2767 191.697 78.2295 191.856 78.2295C191.961 78.2294 192.066 78.2501 192.164 78.2905C192.262 78.3309 192.35 78.3902 192.425 78.465C192.5 78.5398 192.559 78.6286 192.599 78.7263C192.64 78.824 192.66 78.9287 192.66 79.0344Z" fill="#7EB3FF"/>
<path d="M201.283 71.4094C201.283 71.5688 201.235 71.7247 201.147 71.8572C201.058 71.9898 200.932 72.0931 200.785 72.154C200.638 72.215 200.476 72.231 200.319 72.1998C200.163 72.1687 200.019 72.0919 199.907 71.9791C199.794 71.8664 199.717 71.7227 199.686 71.5664C199.655 71.41 199.671 71.2479 199.732 71.1007C199.793 70.9534 199.897 70.8276 200.029 70.7391C200.162 70.6506 200.318 70.6034 200.477 70.6035C200.691 70.6038 200.895 70.6888 201.046 70.8399C201.197 70.991 201.282 71.1958 201.283 71.4094Z" fill="#7EB3FF"/>
<path d="M207.345 73.729C207.345 73.8882 207.298 74.0437 207.209 74.1761C207.121 74.3084 206.995 74.4115 206.848 74.4724C206.701 74.5333 206.539 74.5493 206.383 74.5182C206.227 74.4872 206.084 74.4105 205.971 74.298C205.859 74.1855 205.782 74.0421 205.751 73.886C205.72 73.7299 205.736 73.5681 205.797 73.421C205.857 73.2739 205.96 73.1482 206.093 73.0597C206.225 72.9712 206.381 72.9239 206.54 72.9238C206.646 72.9237 206.75 72.9444 206.848 72.9848C206.946 73.0252 207.035 73.0845 207.11 73.1593C207.184 73.2341 207.244 73.3229 207.284 73.4207C207.325 73.5184 207.345 73.6232 207.345 73.729Z" fill="#7EB3FF"/>
<path d="M213.883 78.1349C213.883 78.2942 213.836 78.45 213.748 78.5825C213.659 78.715 213.534 78.8183 213.386 78.8794C213.239 78.9405 213.077 78.9565 212.921 78.9255C212.765 78.8945 212.621 78.8178 212.509 78.7052C212.396 78.5926 212.319 78.4491 212.288 78.2928C212.257 78.1366 212.273 77.9746 212.334 77.8274C212.395 77.6802 212.498 77.5544 212.63 77.4659C212.763 77.3773 212.919 77.3301 213.078 77.3301C213.291 77.3301 213.496 77.4149 213.647 77.5658C213.798 77.7167 213.883 77.9214 213.883 78.1349Z" fill="#7EB3FF"/>
<path d="M216.535 73.0659C216.535 73.2254 216.488 73.3814 216.4 73.514C216.311 73.6467 216.185 73.7501 216.038 73.8111C215.89 73.8722 215.728 73.8882 215.572 73.8571C215.416 73.8259 215.272 73.7491 215.159 73.6363C215.046 73.5234 214.97 73.3797 214.939 73.2233C214.908 73.0668 214.924 72.9047 214.985 72.7574C215.046 72.6101 215.15 72.4843 215.282 72.3959C215.415 72.3075 215.571 72.2605 215.731 72.2607C215.836 72.2607 215.941 72.2815 216.039 72.3219C216.136 72.3624 216.225 72.4217 216.3 72.4965C216.375 72.5713 216.434 72.6601 216.474 72.7578C216.515 72.8555 216.535 72.9602 216.535 73.0659Z" fill="#7EB3FF"/>
<path d="M219.708 70.7448C219.708 70.904 219.661 71.0596 219.573 71.1918C219.484 71.3241 219.358 71.4272 219.211 71.4881C219.064 71.549 218.903 71.5649 218.746 71.5338C218.59 71.5027 218.447 71.4261 218.334 71.3135C218.222 71.201 218.145 71.0576 218.114 70.9015C218.083 70.7454 218.099 70.5836 218.16 70.4366C218.221 70.2895 218.324 70.1638 218.456 70.0753C218.588 69.9868 218.744 69.9396 218.903 69.9395C219.009 69.9393 219.114 69.96 219.211 70.0004C219.309 70.0408 219.398 70.1001 219.473 70.1749C219.548 70.2497 219.607 70.3386 219.648 70.4364C219.688 70.5342 219.709 70.639 219.708 70.7448Z" fill="#7EB3FF"/>
<path d="M223.119 65.0123C223.119 65.1714 223.071 65.3269 222.983 65.4592C222.895 65.5914 222.769 65.6945 222.622 65.7554C222.475 65.8163 222.314 65.8322 222.157 65.8012C222.001 65.7702 221.858 65.6936 221.746 65.5811C221.633 65.4686 221.557 65.3253 221.525 65.1693C221.494 65.0133 221.51 64.8516 221.571 64.7046C221.632 64.5576 221.735 64.432 221.867 64.3436C222 64.2552 222.155 64.208 222.314 64.208C222.42 64.2079 222.524 64.2287 222.622 64.2691C222.72 64.3095 222.808 64.3688 222.883 64.4434C222.958 64.5181 223.017 64.6068 223.058 64.7044C223.098 64.802 223.119 64.9067 223.119 65.0123Z" fill="#7EB3FF"/>
<path d="M227.573 67.0017C227.573 67.1609 227.526 67.3165 227.438 67.4489C227.349 67.5813 227.224 67.6846 227.077 67.7456C226.93 67.8066 226.768 67.8227 226.612 67.7918C226.455 67.7608 226.312 67.6843 226.199 67.5719C226.087 67.4594 226.01 67.3161 225.978 67.16C225.947 67.0039 225.963 66.842 226.023 66.6948C226.084 66.5476 226.187 66.4217 226.319 66.333C226.451 66.2442 226.607 66.1967 226.766 66.1963C226.98 66.1961 227.185 66.2808 227.337 66.4318C227.488 66.5829 227.573 66.7878 227.573 67.0017Z" fill="#7EB3FF"/>
<path d="M231.171 70.9828C231.171 71.1421 231.124 71.2978 231.035 71.4302C230.947 71.5626 230.821 71.6657 230.673 71.7265C230.526 71.7874 230.364 71.8032 230.208 71.7719C230.052 71.7407 229.908 71.6638 229.796 71.5511C229.683 71.4383 229.607 71.2947 229.576 71.1384C229.545 70.9822 229.561 70.8202 229.622 70.6731C229.683 70.526 229.787 70.4003 229.919 70.312C230.052 70.2236 230.208 70.1766 230.367 70.1768C230.473 70.1765 230.578 70.1971 230.675 70.2376C230.773 70.278 230.862 70.3374 230.937 70.4123C231.012 70.4872 231.071 70.5762 231.111 70.6741C231.151 70.772 231.172 70.8769 231.171 70.9828Z" fill="#7EB3FF"/>
<path d="M197.161 89.3613H185.357V89.9672H197.161V89.3613Z" fill="#9AC7F7"/>
<path d="M197.161 91.1406H185.357V91.7452H197.161V91.1406Z" fill="#9AC7F7"/>
<path d="M193.827 92.918H185.357V93.5228H193.827V92.918Z" fill="#9AC7F7"/>
<path d="M213.491 89.3613H201.686V89.9672H213.491V89.3613Z" fill="#9AC7F7"/>
<path d="M213.491 91.1406H201.686V91.7452H213.491V91.1406Z" fill="#9AC7F7"/>
<path d="M210.156 92.918H201.686V93.5228H210.156V92.918Z" fill="#9AC7F7"/>
<path d="M200.997 89.0889H199.615V90.2403H200.997V89.0889Z" fill="#7EB3FF"/>
<path d="M184.196 89.0889H182.815V90.2403H184.196V89.0889Z" fill="#7EB3FF"/>
<path d="M229.819 89.3613H218.016V89.9672H229.819V89.3613Z" fill="#9AC7F7"/>
<path d="M229.819 91.1406H218.016V91.7452H229.819V91.1406Z" fill="#9AC7F7"/>
<path d="M226.485 92.918H218.016V93.5228H226.485V92.918Z" fill="#9AC7F7"/>
<path d="M217.325 89.0889H215.944V90.2403H217.325V89.0889Z" fill="#0561FC"/>
</g>
<path d="M137.741 93.2604H144.067C145.609 93.2604 147.088 92.6477 148.179 91.5571C149.269 90.4666 149.882 88.9874 149.882 87.4451C149.882 85.9028 149.269 84.4237 148.179 83.3331C147.088 82.2426 145.609 81.6299 144.067 81.6299H137.741V93.2604Z" fill="#D98F00"/>
<path d="M144.067 93.26H78.7429V93.2781L77.7709 93.26C76.3445 93.2638 74.969 93.7908 73.9054 94.7412C72.8417 95.6916 72.1637 96.9992 72 98.4162C72 99.997 72.01 149.958 72 152.546C72.1642 151.13 72.8428 149.825 73.9068 148.877C74.9708 147.929 76.346 147.405 77.7709 147.405H79.0985V147.384H144.067C145.491 147.384 146.866 146.861 147.93 145.914C148.994 144.967 149.673 143.662 149.838 142.248C149.838 140.664 149.829 90.705 149.838 88.1182C149.673 89.5335 148.994 90.8391 147.93 91.787C146.866 92.7348 145.491 93.259 144.067 93.26Z" fill="#EAF4FE"/>
<path d="M141.52 120.914H79.5266V122.017H141.52V120.914Z" fill="#0066CC"/>
<path d="M82.5608 121.465C82.5608 122.333 82.3033 123.181 81.8211 123.903C81.3389 124.625 80.6535 125.187 79.8516 125.519C79.0497 125.852 78.1673 125.939 77.316 125.769C76.4647 125.6 75.6827 125.182 75.0689 124.568C74.4552 123.954 74.0372 123.173 73.8678 122.321C73.6984 121.47 73.7853 120.588 74.1174 119.786C74.4495 118.984 75.012 118.298 75.7336 117.816C76.4553 117.334 77.3037 117.076 78.1717 117.076C78.7481 117.076 79.3189 117.189 79.8515 117.41C80.3841 117.63 80.868 117.954 81.2756 118.361C81.6832 118.769 82.0065 119.253 82.2271 119.785C82.4476 120.318 82.561 120.889 82.5608 121.465Z" fill="#EAF4FE"/>
<path d="M78.1714 126.404C77.1945 126.404 76.2395 126.114 75.4274 125.571C74.6152 125.028 73.9824 124.256 73.6088 123.353C73.2352 122.45 73.1377 121.457 73.3286 120.499C73.5195 119.541 73.9902 118.661 74.6813 117.97C75.3723 117.28 76.2526 116.809 77.2108 116.619C78.1691 116.429 79.1623 116.527 80.0648 116.901C80.9673 117.275 81.7387 117.908 82.2813 118.721C82.8239 119.533 83.1134 120.488 83.1132 121.465C83.1115 122.775 82.5902 124.031 81.6638 124.957C80.7373 125.883 79.4813 126.403 78.1714 126.404ZM78.1714 117.627C77.4126 117.627 76.6709 117.852 76.0401 118.274C75.4092 118.695 74.9175 119.295 74.6272 119.996C74.3368 120.697 74.2608 121.468 74.4089 122.212C74.5569 122.957 74.9222 123.64 75.4587 124.177C75.9952 124.713 76.6788 125.079 77.423 125.227C78.1671 125.375 78.9385 125.299 79.6396 125.009C80.3407 124.719 80.94 124.227 81.3618 123.596C81.7835 122.966 82.0088 122.224 82.0091 121.465C82.0083 120.448 81.6038 119.472 80.8843 118.752C80.1648 118.033 79.1891 117.628 78.1714 117.627Z" fill="#0066CC"/>
<path d="M134.679 121.465C134.679 122.333 134.421 123.182 133.939 123.903C133.457 124.625 132.771 125.187 131.969 125.52C131.167 125.852 130.285 125.939 129.434 125.769C128.582 125.6 127.8 125.182 127.187 124.568C126.573 123.954 126.155 123.172 125.986 122.321C125.816 121.469 125.903 120.587 126.236 119.785C126.568 118.983 127.13 118.298 127.852 117.816C128.574 117.333 129.423 117.076 130.291 117.076C130.867 117.076 131.438 117.19 131.97 117.41C132.502 117.631 132.986 117.954 133.394 118.362C133.801 118.769 134.124 119.253 134.345 119.786C134.565 120.318 134.679 120.889 134.679 121.465Z" fill="#EAF4FE"/>
<path d="M130.29 126.404C129.313 126.404 128.358 126.114 127.546 125.572C126.734 125.029 126.1 124.257 125.727 123.355C125.353 122.452 125.255 121.459 125.446 120.5C125.636 119.542 126.107 118.662 126.798 117.971C127.489 117.28 128.369 116.81 129.327 116.619C130.286 116.429 131.279 116.527 132.182 116.901C133.084 117.275 133.856 117.908 134.398 118.721C134.941 119.533 135.231 120.488 135.23 121.465C135.228 122.775 134.707 124.03 133.781 124.956C132.855 125.882 131.6 126.403 130.29 126.404ZM130.29 117.627C129.532 117.627 128.79 117.852 128.159 118.273C127.528 118.695 127.036 119.294 126.745 119.995C126.455 120.696 126.379 121.467 126.527 122.212C126.675 122.956 127.04 123.64 127.576 124.176C128.113 124.713 128.796 125.079 129.54 125.227C130.285 125.375 131.056 125.299 131.757 125.009C132.458 124.719 133.058 124.227 133.48 123.597C133.901 122.966 134.127 122.224 134.127 121.465C134.126 120.448 133.722 119.472 133.002 118.753C132.283 118.033 131.308 117.628 130.29 117.627Z" fill="#0066CC"/>
<path d="M117.881 117.83H102.333V125.101H117.881V117.83Z" fill="#EAF4FE"/>
<path d="M118.433 125.651H101.781V117.277H118.433V125.651ZM102.884 124.548H117.329V118.38H102.884V124.548Z" fill="#0066CC"/>
<path d="M146.836 117.829H139.561V125.1H146.836V117.829Z" fill="#EAF4FE"/>
<path d="M146.687 125.651H138.309V117.277H146.687V125.651ZM139.412 124.548H145.584V118.38H139.412V124.548Z" fill="#0066CC"/>
<path fill-rule="evenodd" clip-rule="evenodd" d="M147.306 116.601H137.8V126.106H147.306V116.601Z" fill="#2A66C4"/>
<path fill-rule="evenodd" clip-rule="evenodd" d="M140.017 120.388C139.937 120.385 139.857 120.4 139.782 120.43C139.708 120.461 139.641 120.507 139.585 120.565C139.475 120.687 139.417 120.847 139.423 121.011C139.419 121.178 139.48 121.339 139.593 121.461C139.648 121.52 139.716 121.566 139.79 121.598C139.864 121.629 139.945 121.643 140.025 121.641C140.105 121.644 140.184 121.63 140.257 121.599C140.331 121.568 140.396 121.522 140.45 121.464C140.56 121.342 140.618 121.183 140.613 121.019C140.618 120.854 140.56 120.694 140.45 120.57C140.397 120.51 140.331 120.463 140.257 120.431C140.184 120.4 140.104 120.385 140.024 120.388" fill="white"/>
<path d="M143.386 122.448H142.55V123.925H141.521V118.85H143.386C144.59 118.85 145.192 119.437 145.192 120.61C145.192 121.203 145.038 121.659 144.73 121.977C144.422 122.295 143.974 122.452 143.386 122.448ZM142.55 121.566H143.38C143.892 121.566 144.147 121.242 144.147 120.61C144.17 120.371 144.104 120.132 143.961 119.939C143.885 119.864 143.793 119.806 143.693 119.77C143.593 119.734 143.486 119.72 143.38 119.729H142.55V121.566Z" fill="white"/>
<path d="M91.15 115.225L84.9114 121.464L91.1503 127.703L97.389 121.464L91.15 115.225Z" fill="#EAF4FE"/>
<path d="M91.1498 128.483L84.1313 121.465L91.1498 114.445L98.1689 121.465L91.1498 128.483ZM85.6912 121.465L91.1498 126.923L96.609 121.465L91.1498 116.004L85.6912 121.465Z" fill="#0066CC"/>
<path d="M103.311 132.697H90.4878V127.883H91.5918V131.594H103.311V132.697Z" fill="#0066CC"/>
<path d="M91.5918 115.048H90.4878V110.232H103.311V111.336H91.5918V115.048Z" fill="#0066CC"/>
<path d="M131.162 132.697H118.34V131.594H130.059V125.676H131.162V132.697Z" fill="#0066CC"/>
<path d="M131.162 117.255H130.059V111.336H118.34V110.232H131.162V117.255Z" fill="#0066CC"/>
<path d="M117.881 107.533H102.333V114.806H117.881V107.533Z" fill="#EAF4FE"/>
<path d="M118.433 115.357H101.781V106.982H118.433V115.357ZM102.884 114.254H117.329V108.086H102.884V114.254Z" fill="#0066CC"/>
<path d="M117.881 128.123H102.333V135.394H117.881V128.123Z" fill="#EAF4FE"/>
<path d="M118.433 135.946H101.781V127.572H118.433V135.946ZM102.884 134.843H117.329V128.676H102.884V134.843Z" fill="#0066CC"/>
<path d="M80.6942 103.996H77.7709C76.346 103.997 74.9707 103.473 73.9067 102.525C72.8427 101.578 72.1641 100.272 72 98.8564C72.01 101.44 72 151.402 72 152.983C72.1641 154.398 72.8427 155.704 73.9068 156.651C74.9708 157.599 76.3461 158.122 77.7709 158.122H80.6942V103.996Z" fill="#FFCC00"/>
<path d="M148.653 79.0251H164.158C164.42 79.0251 164.671 78.921 164.857 78.7357C165.042 78.5504 165.146 78.2991 165.146 78.037C165.146 77.7749 165.042 77.5236 164.857 77.3383C164.671 77.1529 164.42 77.0488 164.158 77.0488H148.653C148.391 77.0488 148.139 77.1529 147.954 77.3383C147.769 77.5236 147.665 77.7749 147.665 78.037C147.665 78.2991 147.769 78.5504 147.954 78.7357C148.139 78.921 148.391 79.0251 148.653 79.0251Z" fill="#0058B0"/>
<path d="M137.101 39.3048C137.104 34.1863 139.139 29.2783 142.759 25.6599C146.379 22.0414 151.288 20.0088 156.407 20.0088C161.525 20.0088 166.434 22.0414 170.054 25.6599C173.675 29.2783 175.71 34.1863 175.712 39.3048C175.712 39.9355 175.246 48.8559 167.973 58.2229C165.845 61.0501 166.196 66.7308 166.215 66.7308H146.546C146.564 66.7308 146.957 61.0501 144.835 58.2229C137.555 48.8498 137.101 39.9355 137.101 39.3048Z" fill="#D98F00"/>
<path d="M150.213 64.2131C150.08 61.7843 149.485 57.2059 147.98 55.2014C141.064 46.2962 140.754 37.8693 140.75 37.7862C140.752 33.3337 142.521 29.064 145.67 25.9163C148.82 22.7686 153.09 21.0009 157.543 21.002C161.995 21.003 166.265 22.7728 169.413 25.9219C172.56 29.0711 174.328 33.3416 174.327 37.7942C174.325 37.8672 174.007 46.3002 167.12 55.1696C165.593 57.197 164.976 61.7782 164.832 64.2131H150.213Z" fill="#FFCC00"/>
<path d="M171.612 40.8102C171.413 40.8105 171.216 40.7717 171.033 40.6959C170.849 40.6202 170.682 40.509 170.541 40.3687C170.401 40.2283 170.289 40.0617 170.213 39.8782C170.136 39.6947 170.097 39.498 170.097 39.2993C170.092 35.6695 168.648 32.1897 166.081 29.6237C163.514 27.0576 160.033 25.615 156.403 25.6123C156.003 25.6123 155.619 25.4532 155.336 25.1701C155.053 24.887 154.894 24.503 154.894 24.1025C154.894 23.7021 155.053 23.3181 155.336 23.035C155.619 22.7518 156.003 22.5928 156.403 22.5928C160.834 22.5965 165.082 24.3576 168.215 27.4897C171.349 30.6217 173.112 34.8689 173.117 39.2993C173.118 39.6992 172.959 40.0829 172.677 40.3661C172.395 40.6493 172.012 40.809 171.612 40.8102Z" fill="#FFDD55"/>
<path d="M151.462 68.2242L148.957 48.3257L149.966 48.0234L152.469 67.9219L151.462 68.2242Z" fill="#0058B0"/>
<path d="M161.292 68.2242L163.798 48.3257L162.789 48.0234L160.284 67.9219L161.292 68.2242Z" fill="#0058B0"/>
<path d="M162.975 50.8175C162.28 50.8175 161.982 50.1407 161.762 49.6452C161.669 49.4428 161.479 49.0143 161.371 49.0143C161.261 49.0143 161.073 49.4428 160.982 49.6452C160.765 50.1407 160.462 50.8175 159.771 50.8175C159.078 50.8175 158.776 50.1407 158.557 49.6452C158.508 49.5351 158.429 49.3568 158.35 49.2167C157.995 49.8724 157.351 50.8175 156.567 50.8175C155.873 50.8175 155.572 50.1407 155.354 49.6452C155.262 49.4409 155.073 49.0143 154.965 49.0143C154.856 49.0143 154.665 49.4409 154.575 49.6452C154.355 50.1407 154.056 50.8175 153.363 50.8175C152.668 50.8175 152.367 50.1407 152.146 49.6452C152.056 49.4428 151.867 49.0143 151.757 49.0143C151.646 49.0143 151.457 49.4409 151.363 49.6452C151.147 50.1407 150.846 50.8175 150.152 50.8175V49.9144C150.259 49.9144 150.451 49.488 150.542 49.2816C150.764 48.788 151.065 48.1133 151.757 48.1133C152.451 48.1133 152.75 48.788 152.969 49.2816C153.063 49.488 153.254 49.9144 153.363 49.9144C153.468 49.9144 153.661 49.488 153.752 49.2816C153.969 48.788 154.271 48.1133 154.965 48.1133C155.656 48.1133 155.958 48.788 156.177 49.2816C156.267 49.488 156.457 49.9144 156.567 49.9144C156.832 49.9144 157.398 49.1837 157.757 48.3796C157.793 48.3003 157.85 48.233 157.923 48.1857C157.996 48.1385 158.081 48.1133 158.168 48.1133C158.862 48.1133 159.162 48.788 159.381 49.2816C159.471 49.488 159.661 49.9144 159.771 49.9144C159.876 49.9144 160.068 49.488 160.159 49.2828C160.376 48.788 160.68 48.1133 161.371 48.1133C162.066 48.1133 162.365 48.788 162.582 49.2828C162.677 49.488 162.867 49.9144 162.975 49.9144V50.8175Z" fill="#0058B0"/>
<path d="M166.235 66.8359V76.9277C166.235 77.2601 166.103 77.5789 165.869 77.8143C165.634 78.0497 165.316 78.1824 164.983 78.1832H147.85C147.518 78.1826 147.199 78.05 146.964 77.8147C146.729 77.5793 146.597 77.2603 146.597 76.9277V66.8359H166.235Z" fill="#0058B0"/>
<path d="M166.63 68.7986H146.182C146.052 68.7992 145.923 68.774 145.802 68.7246C145.682 68.6751 145.572 68.6024 145.48 68.5106C145.388 68.4187 145.315 68.3095 145.265 68.1893C145.215 68.0691 145.189 67.9401 145.189 67.8099C145.189 67.6797 145.215 67.5508 145.265 67.4306C145.315 67.3104 145.388 67.2012 145.48 67.1093C145.572 67.0175 145.682 66.9447 145.802 66.8953C145.923 66.8459 146.052 66.8207 146.182 66.8213H166.63C166.892 66.8213 167.144 66.9255 167.329 67.1109C167.514 67.2963 167.619 67.5477 167.619 67.8099C167.619 68.0721 167.514 68.3236 167.329 68.509C167.144 68.6944 166.892 68.7986 166.63 68.7986Z" fill="#0058B0"/>
<path d="M157.591 68.2966H146.244C146.172 68.2969 146.1 68.283 146.033 68.2555C145.967 68.2281 145.906 68.1878 145.855 68.1369C145.804 68.0859 145.763 68.0254 145.735 67.9587C145.708 67.8921 145.693 67.8206 145.693 67.7484C145.693 67.6762 145.708 67.6047 145.735 67.5381C145.763 67.4714 145.804 67.4109 145.855 67.36C145.906 67.309 145.967 67.2687 146.033 67.2413C146.1 67.2139 146.172 67.1999 146.244 67.2002H157.591C157.737 67.2002 157.876 67.258 157.979 67.3608C158.082 67.4636 158.139 67.603 158.139 67.7484C158.139 67.8938 158.082 68.0332 157.979 68.1361C157.876 68.2389 157.737 68.2966 157.591 68.2966Z" fill="#4B96E1"/>
<path d="M166.63 72.0983H146.182C146.052 72.0989 145.923 72.0737 145.802 72.0242C145.682 71.9748 145.572 71.902 145.48 71.81C145.387 71.7181 145.314 71.6088 145.264 71.4884C145.214 71.3681 145.188 71.239 145.188 71.1087C145.188 70.9784 145.214 70.8494 145.264 70.729C145.314 70.6087 145.387 70.4994 145.48 70.4074C145.572 70.3155 145.682 70.2427 145.802 70.1932C145.923 70.1437 146.052 70.1186 146.182 70.1192H166.63C166.893 70.1192 167.144 70.2234 167.33 70.409C167.515 70.5946 167.62 70.8463 167.62 71.1087C167.62 71.3712 167.515 71.6229 167.33 71.8085C167.144 71.994 166.893 72.0983 166.63 72.0983Z" fill="#0058B0"/>
<path d="M166.63 75.3966H146.182C146.051 75.3975 145.922 75.3725 145.801 75.3232C145.68 75.2738 145.57 75.201 145.477 75.109C145.384 75.0169 145.311 74.9075 145.261 74.7869C145.21 74.6663 145.185 74.5369 145.185 74.4063C145.185 74.2757 145.21 74.1463 145.261 74.0257C145.311 73.9052 145.384 73.7957 145.477 73.7036C145.57 73.6116 145.68 73.5388 145.801 73.4894C145.922 73.4401 146.051 73.4151 146.182 73.416H166.63C166.891 73.4179 167.141 73.523 167.325 73.7085C167.51 73.894 167.613 74.1449 167.613 74.4063C167.613 74.6678 167.51 74.9186 167.325 75.1041C167.141 75.2896 166.891 75.3948 166.63 75.3966Z" fill="#0058B0"/>
<path d="M157.591 71.4428H146.244C146.171 71.4431 146.1 71.4291 146.033 71.4017C145.966 71.3743 145.906 71.3339 145.854 71.2829C145.803 71.232 145.763 71.1714 145.735 71.1047C145.707 71.038 145.693 70.9665 145.693 70.8943C145.693 70.822 145.707 70.7505 145.735 70.6838C145.763 70.6171 145.803 70.5565 145.854 70.5056C145.906 70.4546 145.966 70.4142 146.033 70.3868C146.1 70.3594 146.171 70.3454 146.244 70.3457H157.591C157.737 70.3457 157.876 70.4035 157.979 70.5064C158.082 70.6092 158.14 70.7488 158.14 70.8943C158.14 71.0397 158.082 71.1793 157.979 71.2821C157.876 71.385 157.737 71.4428 157.591 71.4428Z" fill="#4B96E1"/>
<path d="M157.591 74.778H146.244C146.098 74.778 145.959 74.7201 145.856 74.6171C145.753 74.5142 145.695 74.3745 145.695 74.2288C145.695 74.0832 145.753 73.9435 145.856 73.8405C145.959 73.7375 146.098 73.6797 146.244 73.6797H157.591C157.737 73.6797 157.877 73.7375 157.98 73.8405C158.083 73.9435 158.14 74.0832 158.14 74.2288C158.14 74.3745 158.083 74.5142 157.98 74.6171C157.877 74.7201 157.737 74.778 157.591 74.778Z" fill="#4B96E1"/>
<path d="M158.963 68.8066H149.273V69.8129H158.963V68.8066Z" fill="#1569BE"/>
<path d="M158.963 72.0166H149.273V73.0228H158.963V72.0166Z" fill="#1569BE"/>
<path d="M158.963 75.2246H149.273V76.232H158.963V75.2246Z" fill="#1569BE"/>
<path d="M111.794 159.946H114.145V155.789H111.794C111.735 155.79 111.676 155.802 111.622 155.825C111.567 155.848 111.517 155.882 111.476 155.924C111.434 155.966 111.401 156.016 111.379 156.071C111.357 156.126 111.345 156.185 111.346 156.244V159.489C111.345 159.609 111.392 159.725 111.476 159.81C111.56 159.896 111.674 159.945 111.794 159.946Z" fill="#FF876C"/>
<path d="M111.838 159.378H114.145V157.612H111.838C111.78 157.614 111.724 157.639 111.683 157.681C111.642 157.723 111.62 157.78 111.62 157.839V159.152C111.62 159.181 111.625 159.21 111.635 159.237C111.646 159.265 111.662 159.289 111.682 159.31C111.702 159.331 111.727 159.348 111.753 159.36C111.78 159.372 111.809 159.378 111.838 159.378Z" fill="#FFA38F"/>
<path d="M114.145 156.761V155.789H111.794C111.735 155.79 111.676 155.802 111.622 155.825C111.567 155.848 111.517 155.882 111.476 155.924C111.434 155.966 111.401 156.016 111.379 156.071C111.357 156.126 111.345 156.185 111.346 156.244V156.761H114.145Z" fill="#E36E54"/>
<path d="M122.088 160H188.141C188.111 159.757 188.002 159.53 187.832 159.354C187.662 159.178 187.439 159.063 187.197 159.025H122.088V160Z" fill="#0058B0"/>
<path d="M122.088 156.709V159.025H187.197L187.209 159.02L187.197 159.018C187.466 158.969 187.71 158.826 187.885 158.616C188.06 158.405 188.156 158.14 188.156 157.866C188.156 157.592 188.06 157.327 187.885 157.116C187.71 156.906 187.466 156.763 187.197 156.714L187.209 156.711L187.197 156.709H122.088Z" fill="#0066CC"/>
<path d="M187.197 156.709C187.438 156.671 187.661 156.555 187.831 156.38C188.002 156.204 188.11 155.978 188.141 155.735H122.088V156.709H187.197Z" fill="#0058B0"/>
<path d="M188.141 155.732C188.111 155.976 188.002 156.202 187.832 156.378C187.662 156.554 187.439 156.67 187.197 156.709L187.209 156.711L187.197 156.714C187.466 156.763 187.71 156.906 187.885 157.116C188.06 157.327 188.156 157.592 188.156 157.866C188.156 158.14 188.06 158.405 187.885 158.616C187.71 158.826 187.466 158.969 187.197 159.018L187.209 159.02L187.197 159.025C187.439 159.063 187.662 159.179 187.832 159.355C188.002 159.53 188.111 159.757 188.141 160L196.89 157.865L188.141 155.732Z" fill="#C5E1F9"/>
<path d="M188.141 155.732C188.111 155.976 188.002 156.202 187.832 156.378C187.662 156.554 187.439 156.67 187.197 156.709L187.209 156.711L187.197 156.714C187.736 156.787 196.89 157.865 196.89 157.865L188.141 155.732Z" fill="#9AC7F7"/>
<path d="M122.088 155.763H114.059V159.977H122.088V155.763Z" fill="#D98F00"/>
<path d="M122.089 157.715H114.061V158.579H122.089V157.715Z" fill="#F4DA80"/>
<path d="M194.251 157.224C194.223 157.425 194.208 157.627 194.205 157.83C194.206 158.058 194.225 158.285 194.263 158.509L196.89 157.866L194.251 157.224Z" fill="#0450CF"/>
<path d="M121.246 159.597H120.094V159.87H121.246V159.597Z" fill="#F4DA80"/>
<path d="M121.246 158.977H120.094V159.248H121.246V158.977Z" fill="#F4DA80"/>
<path d="M121.246 158.355H120.094V158.626H121.246V158.355Z" fill="#D98F00"/>
<path d="M121.246 157.737H120.094V158.01H121.246V157.737Z" fill="#D98F00"/>
<path d="M121.246 157.117H120.094V157.387H121.246V157.117Z" fill="#F4DA80"/>
<path d="M121.246 156.496H120.094V156.766H121.246V156.496Z" fill="#F4DA80"/>
<path d="M121.246 155.878H120.094V156.148H121.246V155.878Z" fill="#F4DA80"/>
<path d="M116.328 159.597H115.17V159.87H116.328V159.597Z" fill="#F4DA80"/>
<path d="M116.328 158.977H115.17V159.248H116.328V158.977Z" fill="#F4DA80"/>
<path d="M116.328 158.355H115.17V158.626H116.328V158.355Z" fill="#D98F00"/>
<path d="M116.328 157.737H115.17V158.01H116.328V157.737Z" fill="#D98F00"/>
<path d="M116.328 157.117H115.17V157.387H116.328V157.117Z" fill="#F4DA80"/>
<path d="M116.328 156.496H115.17V156.766H116.328V156.496Z" fill="#F4DA80"/>
<path d="M116.328 155.878H115.17V156.148H116.328V155.878Z" fill="#F4DA80"/>
</g>
<defs>
<clipPath id="clip0_2127:27640">
<rect width="185.163" height="140" fill="white" transform="translate(72 20)"/>
</clipPath>
</defs>
</svg>
