<svg width="320" height="388" viewBox="0 0 320 388" fill="none" xmlns="http://www.w3.org/2000/svg">
<rect width="220" height="388" fill="white"/>
<path d="M120 0H316C318.209 0 320 1.79086 320 4V384C320 386.209 318.209 388 316 388H120C120 388 80 322 80 194C80 66 120 0 120 0Z" fill="#F0F6FC"/>
<path d="M284 256.027L284.001 245.097L278.242 243.866C277.912 242.275 277.47 240.709 276.92 239.181L281.155 235.359L275.691 225.892L270.078 227.705C268.997 226.496 267.833 225.365 266.594 224.318L268.355 218.873L258.89 213.408L254.939 217.782C253.398 217.276 251.824 216.878 250.228 216.591L249.03 211H238.101L236.867 216.76C235.276 217.09 233.71 217.531 232.182 218.082L228.355 213.845L218.892 219.31L220.705 224.923C219.498 226.005 218.367 227.168 217.319 228.404L211.875 226.645L206.409 236.111L210.783 240.062C210.277 241.603 209.88 243.177 209.593 244.773L204.002 245.974L204 256.902L209.76 258.135C210.09 259.725 210.531 261.29 211.081 262.818L206.846 266.647L212.31 276.11L217.925 274.296C219.006 275.504 220.169 276.636 221.406 277.683L219.646 283.128L229.112 288.59L233.061 284.217C234.602 284.723 236.176 285.121 237.772 285.408L238.973 291H249.901L251.135 285.241C252.726 284.911 254.292 284.47 255.821 283.921L259.645 288.153L269.111 282.693L267.298 277.077C268.505 275.996 269.636 274.833 270.684 273.597L276.127 275.354L281.591 265.89L277.219 261.94C277.725 260.398 278.123 258.823 278.411 257.226L284 256.027ZM262.361 251.002C262.361 254.633 261.284 258.183 259.267 261.202C257.249 264.221 254.382 266.574 251.027 267.964C247.672 269.353 243.98 269.717 240.419 269.008C236.858 268.3 233.586 266.551 231.018 263.984C228.451 261.416 226.702 258.144 225.994 254.583C225.285 251.021 225.649 247.33 227.038 243.975C228.428 240.62 230.781 237.753 233.801 235.735C236.82 233.718 240.37 232.641 244.001 232.641C246.412 232.641 248.8 233.116 251.027 234.039C253.255 234.961 255.279 236.314 256.984 238.019C258.689 239.724 260.041 241.748 260.964 243.975C261.886 246.203 262.361 248.59 262.361 251.002H262.361Z" fill="#7EB3FF"/>
<path d="M269.275 251.272C269.275 256.114 267.84 260.847 265.15 264.872C262.46 268.898 258.637 272.036 254.164 273.888C249.691 275.741 244.769 276.226 240.021 275.281C235.273 274.336 230.911 272.004 227.488 268.581C224.065 265.157 221.734 260.795 220.79 256.046C219.846 251.298 220.332 246.376 222.185 241.903C224.039 237.43 227.177 233.608 231.203 230.919C235.229 228.23 239.963 226.796 244.804 226.797C248.018 226.797 251.2 227.43 254.17 228.66C257.139 229.89 259.837 231.693 262.109 233.966C264.382 236.239 266.184 238.937 267.414 241.906C268.643 244.876 269.276 248.058 269.275 251.272V251.272Z" fill="#FFCC00"/>
<path d="M268.53 251.274C268.531 255.968 267.139 260.557 264.532 264.461C261.925 268.364 258.218 271.407 253.882 273.203C249.545 275 244.773 275.47 240.169 274.555C235.565 273.639 231.336 271.379 228.017 268.06C224.698 264.74 222.438 260.511 221.522 255.907C220.607 251.303 221.077 246.531 222.874 242.195C224.671 237.858 227.713 234.152 231.617 231.545C235.52 228.937 240.109 227.546 244.804 227.547C251.096 227.548 257.13 230.048 261.58 234.498C266.029 238.947 268.529 244.982 268.53 251.274V251.274Z" fill="#D98F00"/>
<path d="M263.489 251.272C263.49 254.968 262.394 258.581 260.341 261.655C258.287 264.729 255.369 267.124 251.954 268.539C248.539 269.954 244.781 270.324 241.156 269.603C237.531 268.882 234.201 267.102 231.587 264.488C228.973 261.875 227.193 258.545 226.472 254.92C225.751 251.294 226.121 247.537 227.536 244.122C228.951 240.707 231.346 237.788 234.42 235.735C237.493 233.681 241.107 232.586 244.803 232.586C249.758 232.587 254.511 234.556 258.015 238.06C261.519 241.564 263.488 246.316 263.489 251.272V251.272Z" fill="#FFCC00"/>
<path d="M235.475 248.444H237.539C237.666 247.327 237.969 246.237 238.437 245.214C238.871 244.252 239.468 243.372 240.201 242.613C240.926 241.869 241.796 241.284 242.757 240.892C243.807 240.471 244.93 240.263 246.062 240.278C248.044 240.179 249.991 240.825 251.521 242.089C252.963 243.455 253.825 245.324 253.928 247.307H250.19C250.11 246.206 249.644 245.168 248.873 244.377C248.107 243.68 247.096 243.315 246.062 243.36C245.46 243.326 244.859 243.432 244.306 243.671C243.753 243.91 243.264 244.274 242.876 244.735C242.064 245.813 241.572 247.099 241.457 248.444H247.617L247.259 250.328H241.367V252.362H246.87L246.541 254.246H241.457C241.558 255.565 242.058 256.821 242.891 257.848C243.298 258.282 243.796 258.62 244.349 258.84C244.902 259.06 245.497 259.156 246.091 259.121C248.583 259.121 250.029 257.676 250.428 254.784H254.137C253.994 256.863 253.107 258.822 251.64 260.302C250.1 261.664 248.086 262.368 246.033 262.261C244.898 262.28 243.77 262.076 242.713 261.662C241.764 261.282 240.899 260.718 240.17 260.002C239.438 259.273 238.845 258.417 238.42 257.476C237.958 256.452 237.661 255.362 237.539 254.246H235.475V252.362H237.449V250.328H235.475L235.475 248.444Z" fill="#D98F00"/>
<path d="M217.165 281.6V200.458V159.777L188.018 130.619H106.701V160.738V200.458V281.6H217.165Z" fill="#EAF4FE"/>
<path d="M188.018 159.777H217.165L188.018 130.619V159.777Z" fill="#7EB3FF"/>
<path d="M217.165 159.777H188.018L217.165 188.93V159.777Z" fill="#C5E1F9"/>
<path d="M227.925 278.183C227.926 278.817 227.801 279.445 227.559 280.031C227.317 280.617 226.962 281.15 226.514 281.599C226.066 282.047 225.534 282.403 224.948 282.646C224.362 282.889 223.735 283.014 223.1 283.014H62.1183C61.4839 283.014 60.8556 282.889 60.2694 282.647C59.6833 282.404 59.1506 282.048 58.702 281.599C58.2534 281.151 57.8975 280.618 57.6547 280.032C57.412 279.446 57.287 278.818 57.2871 278.183V173.546C57.2871 172.911 57.4121 172.283 57.655 171.697C57.8978 171.111 58.2537 170.578 58.7023 170.13C59.1509 169.681 59.6835 169.326 60.2697 169.083C60.8558 168.84 61.484 168.716 62.1183 168.716H223.1C223.734 168.716 224.362 168.841 224.948 169.084C225.534 169.326 226.066 169.682 226.514 170.131C226.962 170.579 227.317 171.112 227.559 171.698C227.801 172.284 227.926 172.912 227.925 173.546V278.183Z" fill="#D98F00"/>
<path d="M66.5215 289.314H147.667H217.5V260.163V178.849H187.381H147.667H66.5215V289.314Z" fill="#9AC7F7"/>
<path d="M212.784 183.565H71.2383V284.599H212.784V183.565Z" fill="#74B8DC"/>
<path d="M66.5215 290.322H147.667H217.5V261.17V179.855H187.381H147.667H66.5215V290.322Z" fill="#C5E1F9"/>
<path d="M212.784 184.572H71.2383V285.605H212.784V184.572Z" fill="#67ACF5"/>
<path d="M217.165 281.6V200.458V159.777L188.018 130.619H106.701V160.738V200.458V281.6H217.165Z" fill="white"/>
<path d="M201.242 202.408H123.436V204.327H201.242V202.408Z" fill="#C5E1F9"/>
<path d="M203.241 206.999H123.436V208.922H203.241V206.999Z" fill="#C5E1F9"/>
<path d="M201.573 211.594H123.436V213.509H201.573V211.594Z" fill="#C5E1F9"/>
<path d="M192.381 216.186H123.436V218.102H192.381V216.186Z" fill="#C5E1F9"/>
<path d="M201.242 166.643H123.436V168.563H201.242V166.643Z" fill="#C5E1F9"/>
<path d="M203.241 171.232H123.436V173.154H203.241V171.232Z" fill="#C5E1F9"/>
<path d="M201.573 175.827H123.436V177.741H201.573V175.827Z" fill="#C5E1F9"/>
<path d="M162.706 180.417H123.436V182.335H162.706V180.417Z" fill="#C5E1F9"/>
<path d="M201.242 188.589H123.436V190.508H201.242V188.589Z" fill="#C5E1F9"/>
<path d="M203.241 193.18H123.436V195.101H203.241V193.18Z" fill="#C5E1F9"/>
<path d="M201.573 197.775H123.436V199.689H201.573V197.775Z" fill="#C5E1F9"/>
<path d="M201.242 224.631H123.436V226.549H201.242V224.631Z" fill="#C5E1F9"/>
<path d="M203.241 229.223H123.436V231.138H203.241V229.223Z" fill="#C5E1F9"/>
<path d="M201.573 233.812H123.436V235.729H201.573V233.812Z" fill="#C5E1F9"/>
<path d="M170.707 238.405H123.436V240.322H170.707V238.405Z" fill="#C5E1F9"/>
<path d="M201.242 246.582H123.436V248.496H201.242V246.582Z" fill="#C5E1F9"/>
<path d="M203.241 251.168H123.436V253.085H203.241V251.168Z" fill="#C5E1F9"/>
<path d="M149.043 255.761H123.436V257.68H149.043V255.761Z" fill="#C5E1F9"/>
<path d="M160.476 157.497H123.311V160.616H160.476V157.497Z" fill="#9AC7F7"/>
<path d="M188.018 159.777H217.165L188.018 130.619V159.777Z" fill="#67ACF5"/>
<path d="M217.165 159.777H188.018L217.165 188.93V159.777Z" fill="#C5DFF5"/>
<path d="M240.001 208.963C240.001 208.329 239.876 207.701 239.634 207.115C239.391 206.529 239.035 205.997 238.587 205.548C238.139 205.1 237.606 204.744 237.02 204.502C236.435 204.259 235.807 204.135 235.173 204.135H153.535L146.585 215.403H52.459C51.178 215.403 49.9494 215.911 49.0432 216.817C48.1371 217.722 47.6276 218.95 47.627 220.231L57.2864 288.651C57.2869 289.932 57.796 291.16 58.702 292.066C59.6079 292.972 60.8365 293.481 62.1177 293.481H223.1C223.734 293.481 224.361 293.356 224.947 293.113C225.533 292.87 226.065 292.514 226.513 292.065C226.961 291.617 227.316 291.084 227.558 290.499C227.8 289.913 227.925 289.285 227.924 288.651L240.001 208.963Z" fill="#FECE40"/>
<path d="M240.001 211.377C240.001 210.743 239.876 210.115 239.633 209.529C239.391 208.943 239.035 208.411 238.587 207.963C238.138 207.514 237.606 207.159 237.02 206.916C236.434 206.674 235.807 206.549 235.173 206.549H153.535L146.585 217.817H52.459C51.8245 217.817 51.1963 217.942 50.6101 218.184C50.0239 218.427 49.4912 218.783 49.0425 219.231C48.5938 219.68 48.2378 220.212 47.9949 220.798C47.752 221.384 47.627 222.012 47.627 222.647L57.2864 291.065C57.2868 292.346 57.796 293.574 58.702 294.48C59.608 295.385 60.8366 295.894 62.1177 295.894H223.1C223.734 295.894 224.361 295.769 224.947 295.526C225.533 295.283 226.065 294.928 226.513 294.479C226.961 294.031 227.316 293.498 227.558 292.912C227.8 292.326 227.925 291.699 227.924 291.065L240.001 211.377Z" fill="#FFBF0D"/>
<path d="M67 153H99V196L73.5 187.5L67 153Z" fill="#D98F00"/>
<path d="M67 162H99V205L73.5 196.5L67 162Z" fill="#C5E1F9"/>
<path d="M67 165H99V208L73.5 199.5L67 165Z" fill="#67ACF5"/>
<path d="M122.232 204.624C151.015 204.624 174.348 181.022 174.348 151.907C174.37 140.356 170.608 129.116 163.637 119.906H93.5879V195.942C102.064 201.611 112.034 204.633 122.232 204.624Z" fill="white"/>
<path d="M164.278 176.371H105.385V178.29H164.278V176.371Z" fill="#C5E1F9"/>
<path d="M162.723 180.961H105.385V182.884H162.723V180.961Z" fill="#C5E1F9"/>
<path d="M159.022 185.557H105.385V187.472H159.022V185.557Z" fill="#C5E1F9"/>
<path d="M154.745 190.148H105.385V192.065H154.745V190.148Z" fill="#C5E1F9"/>
<path d="M167.821 140.605H128.053V142.525H167.821V140.605Z" fill="#C5E1F9"/>
<path d="M168.843 145.195H128.053V147.116H168.843V145.195Z" fill="#C5E1F9"/>
<path d="M167.99 149.79H128.053V151.704H167.99V149.79Z" fill="#C5E1F9"/>
<path d="M152.657 154.38H105.385V156.298H152.657V154.38Z" fill="#C5E1F9"/>
<path d="M170.863 162.552H105.385V164.471H170.863V162.552Z" fill="#C5E1F9"/>
<path d="M169.545 167.143H105.385V169.063H169.545V167.143Z" fill="#C5E1F9"/>
<path d="M168.141 171.738H105.385V173.652H168.141V171.738Z" fill="#C5E1F9"/>
<path d="M141.718 198.594H105.385V200.512H141.718V198.594Z" fill="#C5E1F9"/>
<path d="M150 132H128V135H150V132Z" fill="#9AC7F7"/>
<path d="M157.268 190.763C166.722 181.281 172.597 168.815 173.892 155.487C175.186 142.16 171.821 128.796 164.369 117.671C156.917 106.547 145.838 98.3495 133.021 94.4756C120.204 90.6018 106.44 91.2909 94.0733 96.4257C81.7069 101.561 71.503 110.823 65.1993 122.637C58.8956 134.45 56.882 148.083 59.5014 161.215C62.1208 174.346 69.2113 186.163 79.5652 194.654C89.9191 203.144 102.896 207.783 116.286 207.78C123.903 207.793 131.447 206.296 138.481 203.375C145.516 200.454 151.901 196.167 157.268 190.763V190.763ZM83.0307 183.193C75.3326 175.501 70.5398 165.378 69.4693 154.548C68.3987 143.718 71.1166 132.853 77.1597 123.802C83.2028 114.752 92.1973 108.077 102.61 104.915C113.023 101.753 124.211 102.3 134.266 106.462C144.321 110.624 152.622 118.144 157.754 127.741C162.885 137.337 164.531 148.416 162.409 159.09C160.288 169.764 154.531 179.372 146.12 186.276C137.708 193.181 127.163 196.956 116.28 196.956C110.104 196.967 103.987 195.757 98.2811 193.395C92.5749 191.033 87.392 187.566 83.0307 183.193H83.0307Z" fill="#0058B0"/>
<path opacity="0.2" d="M149.414 116.509C145.043 112.153 139.857 108.701 134.152 106.35C128.447 103.999 122.335 102.795 116.165 102.807C109.994 102.819 103.887 104.047 98.1909 106.421C92.4952 108.794 87.323 112.267 82.9698 116.64C78.6166 121.013 75.1678 126.201 72.8205 131.908C70.4731 137.614 69.2732 143.727 69.2892 149.898C69.3053 156.068 70.537 162.175 72.9141 167.869C75.2912 173.563 78.7669 178.733 83.1428 183.084V183.084C87.5129 187.441 92.6988 190.895 98.4043 193.247C104.11 195.599 110.223 196.804 116.394 196.793C122.565 196.781 128.674 195.554 134.371 193.18C140.067 190.807 145.24 187.334 149.594 182.96C153.948 178.586 157.397 173.397 159.745 167.69C162.092 161.982 163.292 155.868 163.275 149.697C163.258 143.526 162.025 137.418 159.647 131.723C157.268 126.029 153.791 120.859 149.414 116.509V116.509Z" fill="white"/>
<path fill-rule="evenodd" clip-rule="evenodd" d="M124.701 131.769H105.891V150.579H124.701V131.769Z" fill="#2A66C4"/>
<path fill-rule="evenodd" clip-rule="evenodd" d="M110.278 139.265C110.119 139.259 109.961 139.288 109.813 139.348C109.666 139.409 109.533 139.499 109.424 139.615C109.205 139.856 109.09 140.173 109.103 140.498C109.094 140.828 109.215 141.147 109.44 141.388C109.549 141.505 109.681 141.597 109.829 141.658C109.976 141.72 110.134 141.749 110.294 141.744C110.451 141.75 110.608 141.722 110.753 141.661C110.898 141.601 111.029 141.51 111.136 141.394C111.352 141.153 111.467 140.838 111.457 140.514C111.467 140.188 111.352 139.87 111.136 139.625C111.03 139.506 110.9 139.413 110.754 139.35C110.608 139.288 110.45 139.259 110.291 139.265" fill="white"/>
<path d="M116.946 143.34H115.292V146.263H113.256V136.22H116.946C119.329 136.22 120.52 137.381 120.52 139.704C120.52 140.878 120.215 141.779 119.605 142.409C118.995 143.038 118.108 143.349 116.946 143.34ZM115.292 141.596H116.933C117.948 141.596 118.452 140.954 118.452 139.704C118.497 139.231 118.366 138.757 118.083 138.375C117.932 138.227 117.752 138.113 117.553 138.042C117.355 137.97 117.143 137.942 116.933 137.96H115.292V141.596Z" fill="white"/>
<path opacity="0.2" d="M79.1369 128.411C85.4847 122.069 93.5682 117.749 102.368 115.996C111.168 114.242 120.29 115.134 128.584 118.558C136.877 121.982 143.972 127.785 148.971 135.236C153.971 142.687 156.653 151.451 156.678 160.424L156.682 160.487C156.69 165.129 155.983 169.745 154.587 174.172C159.253 166.888 161.723 158.415 161.703 149.765L161.7 149.706C161.666 138.871 157.762 128.404 150.691 120.193C143.62 111.983 133.848 106.57 123.138 104.93C112.427 103.29 101.483 105.531 92.2794 111.25C83.0759 116.969 76.2189 125.788 72.9453 136.117C74.7247 133.332 76.8007 130.748 79.1369 128.411Z" fill="white"/>
<path d="M66.4397 149.787C66.4517 136.578 71.7064 123.915 81.0496 114.578C90.3927 105.242 103.06 99.996 116.268 99.9933C129.477 99.9907 142.146 105.231 151.493 114.564C160.84 123.897 166.1 136.559 166.117 149.767L170.976 149.769C170.973 149.734 170.974 149.698 170.978 149.662C170.949 135.162 165.165 121.267 154.896 111.03C144.627 100.793 130.713 95.0524 116.213 95.0699C101.713 95.0873 87.8133 100.861 77.5688 111.123C67.3243 121.385 61.5734 135.294 61.5801 149.794L66.4454 149.802L66.4397 149.787Z" fill="#003C77"/>
<path d="M73.4162 203.023C76.5686 199.949 79.7265 196.873 82.8898 193.796C83.5763 193.122 84.1217 192.317 84.4942 191.43C84.8666 190.542 85.0588 189.589 85.0594 188.627C83.7175 187.528 82.4315 186.364 81.2061 185.137C79.9293 183.864 78.7184 182.526 77.5783 181.129C76.6179 181.133 75.6676 181.326 74.7818 181.697C73.896 182.068 73.0921 182.61 72.4161 183.292C69.2482 186.37 66.074 189.458 62.8934 192.558C59.9015 195.54 60.9182 199.055 63.9307 201.984L63.9459 202.001C66.9329 204.977 70.4706 205.992 73.4162 203.023Z" fill="#0058B0"/>
<path d="M60.3893 188.929L4.01562 245.303L20.7614 262.048L77.1351 205.675L60.3893 188.929Z" fill="#0058B0"/>
<path d="M68.8757 197.415L12.502 253.789L19.4199 260.707L75.7936 204.333L68.8757 197.415Z" fill="#003C77"/>
<path d="M60.3878 188.929L56.3691 192.949L73.1184 209.693L77.1371 205.673L60.3878 188.929Z" fill="#C5E1F9"/>
<path d="M67.2551 197.637L64.4922 200.401L71.8902 207.796L74.6531 205.032L67.2551 197.637Z" fill="#EAF4FE"/>
<path d="M16.7434 266.06C14.5445 266.061 12.3671 265.628 10.3355 264.787C8.30394 263.945 6.45799 262.712 4.90314 261.157C3.34829 259.602 2.11499 257.756 1.27369 255.725C0.432401 253.693 -0.000404354 251.516 2.83465e-07 249.317C1.34009 247.977 2.67476 246.642 4.01752 245.304C9.60408 250.89 15.186 256.472 20.7634 262.05C19.4204 263.388 18.0857 264.722 16.7434 266.06Z" fill="#C5E1F9"/>
<path d="M15.243 264.442L7.8457 257.046L11.3037 253.598L18.6956 260.989L15.243 264.442Z" fill="#EAF4FE"/>
</svg>
