<svg width="330" height="161" viewBox="0 0 330 161" fill="none" xmlns="http://www.w3.org/2000/svg">
<path d="M-1.48709e-06 93.9794L1.86099e-06 3.99999C1.94319e-06 1.79086 1.79086 -7.82813e-08 4 -1.74846e-07L326 1.00888e-06C328.209 9.12312e-07 330 1.79086 330 4L330 93.9794C330 93.9794 273.866 128 165 128C56.134 128 -1.48709e-06 93.9794 -1.48709e-06 93.9794Z" fill="#F0F6FC"/>
<path d="M156.478 43.4208L156.479 37.7359L153.483 37.0955C153.311 36.268 153.082 35.4535 152.795 34.6582L154.998 32.6702L152.156 27.7461L149.236 28.6893C148.674 28.0606 148.069 27.4719 147.424 26.9276L148.34 24.0954L143.417 21.2526L141.362 23.5276C140.56 23.2645 139.741 23.0576 138.911 22.9083L138.288 20H132.603L131.962 22.9963C131.134 23.1675 130.32 23.3972 129.525 23.6837L127.534 21.4799L122.612 24.3224L123.555 27.2423C122.927 27.8049 122.339 28.4097 121.794 29.0526L118.962 28.1377L116.119 33.0618L118.394 35.117C118.131 35.9183 117.924 36.737 117.775 37.5671L114.867 38.1917L114.866 43.876L117.862 44.5175C118.034 45.3445 118.263 46.1584 118.549 46.9532L116.346 48.9451L119.188 53.8671L122.109 52.9238C122.671 53.5521 123.276 54.1408 123.919 54.6854L123.004 57.5176L127.928 60.3589L129.982 58.0842C130.783 58.3473 131.602 58.5544 132.432 58.7038L133.057 61.6123H138.741L139.383 58.6165C140.211 58.4451 141.025 58.2157 141.821 57.93L143.81 60.1316L148.733 57.2913L147.79 54.3701C148.418 53.8078 149.007 53.203 149.552 52.56L152.383 53.4742L155.225 48.5512L152.951 46.4965C153.214 45.6947 153.421 44.8754 153.571 44.0448L156.478 43.4208ZM145.223 40.807C145.223 42.6958 144.662 44.5422 143.613 46.1127C142.564 47.6831 141.072 48.9072 139.327 49.6299C137.582 50.3527 135.662 50.5418 133.809 50.1733C131.957 49.8048 130.255 48.8952 128.919 47.5596C127.584 46.224 126.674 44.5224 126.306 42.6699C125.937 40.8173 126.126 38.8971 126.849 37.1521C127.572 35.4071 128.796 33.9155 130.367 32.8662C131.937 31.8168 133.783 31.2566 135.672 31.2566C136.926 31.2566 138.168 31.5036 139.327 31.9836C140.486 32.4635 141.539 33.167 142.425 34.0539C143.312 34.9407 144.016 35.9935 144.496 37.1522C144.976 38.3109 145.223 39.5528 145.223 40.807H145.223Z" fill="#7EB3FF"/>
<path d="M148.819 40.9479C148.82 43.4662 148.073 45.928 146.674 48.0219C145.275 50.1159 143.286 51.7479 140.96 52.7116C138.633 53.6753 136.073 53.9274 133.603 53.436C131.133 52.9445 128.864 51.7317 127.084 49.9508C125.303 48.1699 124.091 45.901 123.6 43.431C123.109 40.9609 123.361 38.4008 124.326 36.0744C125.29 33.7479 126.922 31.7596 129.016 30.361C131.11 28.9623 133.572 28.2161 136.091 28.2168C137.763 28.2168 139.418 28.5461 140.962 29.1859C142.507 29.8257 143.91 30.7635 145.092 31.9457C146.274 33.1279 147.212 34.5314 147.851 36.076C148.491 37.6206 148.82 39.2761 148.819 40.9479Z" fill="#FFCC00"/>
<path d="M148.432 40.9491C148.433 43.3908 147.709 45.7778 146.353 47.8081C144.997 49.8385 143.069 51.4211 140.813 52.3556C138.557 53.2902 136.075 53.5349 133.681 53.0586C131.286 52.5824 129.086 51.4066 127.36 49.6801C125.633 47.9535 124.457 45.7537 123.981 43.359C123.505 40.9642 123.75 38.482 124.684 36.2263C125.619 33.9706 127.202 32.0427 129.232 30.6866C131.262 29.3304 133.649 28.6069 136.091 28.6074C139.364 28.6079 142.503 29.9084 144.817 32.2228C147.132 34.5372 148.432 37.6761 148.432 40.9491Z" fill="#D98F00"/>
<path d="M145.81 40.947C145.811 42.8697 145.241 44.7492 144.173 46.3479C143.105 47.9466 141.587 49.1927 139.81 49.9286C138.034 50.6645 136.079 50.8571 134.194 50.4821C132.308 50.1071 130.576 49.1813 129.216 47.8218C127.857 46.4623 126.931 44.7302 126.556 42.8445C126.181 40.9587 126.373 39.0042 127.109 37.2279C127.845 35.4516 129.091 33.9335 130.69 32.8654C132.288 31.7973 134.168 31.2274 136.091 31.2275C138.668 31.2282 141.14 32.2524 142.963 34.075C144.785 35.8976 145.81 38.3694 145.81 40.947Z" fill="#FFCC00"/>
<path d="M131.237 39.4771H132.31C132.377 38.896 132.534 38.3291 132.778 37.7972C133.003 37.2966 133.314 36.8388 133.695 36.4438C134.072 36.0573 134.525 35.7526 135.025 35.5488C135.571 35.3299 136.155 35.2215 136.744 35.2298C137.775 35.1782 138.788 35.5142 139.583 36.1717C140.333 36.8823 140.782 37.854 140.835 38.8859H138.891C138.849 38.3129 138.607 37.7731 138.206 37.3617C137.808 36.9992 137.282 36.809 136.744 36.8325C136.431 36.8149 136.118 36.8703 135.831 36.9945C135.543 37.1186 135.288 37.3081 135.087 37.5478C134.664 38.1088 134.409 38.7775 134.349 39.4771H137.553L137.367 40.457H134.302V41.5153H137.164L136.993 42.4952H134.349C134.401 43.181 134.661 43.8345 135.094 44.3688C135.306 44.5942 135.565 44.7703 135.853 44.8847C136.141 44.9991 136.45 45.049 136.759 45.0309C138.055 45.0309 138.807 44.2789 139.015 42.7749H140.944C140.87 43.8564 140.409 44.875 139.645 45.6449C138.844 46.3538 137.797 46.7198 136.729 46.664C136.138 46.6737 135.552 46.5679 135.002 46.3526C134.508 46.155 134.059 45.8615 133.679 45.4892C133.298 45.11 132.99 44.6647 132.769 44.1751C132.529 43.6426 132.374 43.0757 132.31 42.4952H131.237V41.5153H132.264V40.457H131.237L131.237 39.4771Z" fill="#D98F00"/>
<path d="M202.829 47.2266H85V113.577H202.829V47.2266Z" fill="#003C77"/>
<path d="M202.875 47.2109H85.0464V48.9303H202.875V47.2109Z" fill="#EAF4FE"/>
<path d="M89.9676 48.0029H87.1301V48.1669H89.9676V48.0029Z" fill="#0450CF"/>
<path d="M93.6093 48.0029H90.7732V48.1669H93.6093V48.0029Z" fill="#0450CF"/>
<path d="M97.25 48.0029H94.4143V48.1669H97.25V48.0029Z" fill="#0450CF"/>
<path d="M100.893 48.0029H98.0574V48.1669H100.893V48.0029Z" fill="#0450CF"/>
<path d="M104.536 48.0029H101.7V48.1669H104.536V48.0029Z" fill="#0450CF"/>
<path d="M108.177 48.0029H105.341V48.1669H108.177V48.0029Z" fill="#0450CF"/>
<path d="M111.818 48.0029H108.982V48.1669H111.818V48.0029Z" fill="#0450CF"/>
<path d="M115.461 48.0029H112.623V48.1669H115.461V48.0029Z" fill="#0450CF"/>
<path d="M86.4069 47.7939H85.8723V48.3761H86.4069V47.7939Z" fill="#0450CF"/>
<path d="M202.875 48.7412H85.0461V50.7962H202.875V48.7412Z" fill="#0450CF"/>
<path d="M202.874 50.6475H85.0457V50.7855H202.874V50.6475Z" fill="#003E99"/>
<path d="M202.447 49.1914H194.97V50.4862H202.447V49.1914Z" fill="#9AC7F7"/>
<path d="M194.003 49.7061H193.712V49.9717H194.003V49.7061Z" fill="#003E99"/>
<path d="M193.101 49.7041H189.165V49.9712H193.101V49.7041Z" fill="#9AC7F7"/>
<path d="M88.1947 49.4951H87.6602V50.0791H88.1947V49.4951Z" fill="#003E99"/>
<path d="M86.4069 49.4951H85.8723V50.0791H86.4069V49.4951Z" fill="#9AC7F7"/>
<path d="M89.3683 49.4951H88.8337V50.0791H89.3683V49.4951Z" fill="#003E99"/>
<path d="M124.669 52.1426H100.038V52.9312H124.669V52.1426Z" fill="#6D5CBB"/>
<path d="M106.147 55.0439H102.074V55.8326H106.147V55.0439Z" fill="#FF876C"/>
<path d="M106.147 57.9473H102.074V58.7359H106.147V57.9473Z" fill="#FF876C"/>
<path d="M106.147 60.8486H102.074V61.6373H106.147V60.8486Z" fill="#FF876C"/>
<path d="M126.612 55.0439H114.112V55.8326H126.612V55.0439Z" fill="#7EC896"/>
<path d="M126.612 57.9473H114.112V58.7359H126.612V57.9473Z" fill="#7EC896"/>
<path d="M126.612 60.8486H114.112V61.6373H126.612V60.8486Z" fill="#7EC896"/>
<path d="M110.779 55.0439H107.909V55.8326H110.779V55.0439Z" fill="#C5E1F9"/>
<path d="M110.779 57.9473H107.909V58.7359H110.779V57.9473Z" fill="#C5E1F9"/>
<path d="M110.779 60.8486H107.909V61.6373H110.779V60.8486Z" fill="#C5E1F9"/>
<path d="M112.781 55.0439H112.017V55.8326H112.781V55.0439Z" fill="#D98F00"/>
<path d="M112.781 57.9473H112.017V58.7359H112.781V57.9473Z" fill="#D98F00"/>
<path d="M112.781 60.8486H112.017V61.6373H112.781V60.8486Z" fill="#D98F00"/>
<path d="M100.895 55.0439H100.131V55.8326H100.895V55.0439Z" fill="#D98F00"/>
<path d="M100.895 57.9473H100.131V58.7359H100.895V57.9473Z" fill="#D98F00"/>
<path d="M100.895 60.8486H100.131V61.6373H100.895V60.8486Z" fill="#D98F00"/>
<path d="M108.37 66.6504H102.074V67.4391H108.37V66.6504Z" fill="#FF876C"/>
<path d="M126.612 66.6504H117.075V67.4391H126.612V66.6504Z" fill="#7EC896"/>
<path d="M113.74 66.6504H110.13V67.4391H113.74V66.6504Z" fill="#C5E1F9"/>
<path d="M115.743 66.6504H114.98V67.4391H115.743V66.6504Z" fill="#D98F00"/>
<path d="M156.521 72.4541H126.982V73.2428H156.521V72.4541Z" fill="#6D5CBB"/>
<path d="M124.668 72.4541H110.5V73.2428H124.668V72.4541Z" fill="#C5E1F9"/>
<path d="M147.262 66.6504H137.724V67.4391H147.262V66.6504Z" fill="#7EC896"/>
<path d="M134.389 66.6504H129.298V67.4391H134.389V66.6504Z" fill="#C5E1F9"/>
<path d="M136.393 66.6504H135.629V67.4391H136.393V66.6504Z" fill="#D98F00"/>
<path d="M148.985 66.6504H148.222V67.4391H148.985V66.6504Z" fill="#D98F00"/>
<path d="M100.895 66.6504H100.131V67.4391H100.895V66.6504Z" fill="#D98F00"/>
<path d="M108.37 78.2568H102.074V79.0455H108.37V78.2568Z" fill="#FF876C"/>
<path d="M100.895 78.2568H100.131V79.0455H100.895V78.2568Z" fill="#C5E1F9"/>
<path d="M110.339 78.2568H109.575V79.0455H110.339V78.2568Z" fill="#C5E1F9"/>
<path d="M103.555 89.8633H97.2595V90.6519H103.555V89.8633Z" fill="#FF876C"/>
<path d="M96.0783 89.8633H95.3159V90.6519H96.0783V89.8633Z" fill="#C5E1F9"/>
<path d="M105.524 89.8633H104.76V90.6519H105.524V89.8633Z" fill="#C5E1F9"/>
<path d="M106.172 75.3555H105.408V76.1442H106.172V75.3555Z" fill="#D98F00"/>
<path d="M109.111 69.5527H105.408V70.3414H109.111V69.5527Z" fill="#FF876C"/>
<path d="M124.94 69.5527H110.5V70.3414H124.94V69.5527Z" fill="#D98F00"/>
<path d="M147.907 55.0439H135.408V55.8326H147.907V55.0439Z" fill="#7EC896"/>
<path d="M147.907 57.9473H135.408V58.7359H147.907V57.9473Z" fill="#7EC896"/>
<path d="M147.907 60.8486H135.408V61.6373H147.907V60.8486Z" fill="#7EC896"/>
<path d="M170.41 55.0439H148.557V55.8326H170.41V55.0439Z" fill="#7EC896"/>
<path d="M178.465 57.9473H148.557V58.7359H178.465V57.9473Z" fill="#7EC896"/>
<path d="M183.835 60.8486H148.557V61.6373H183.835V60.8486Z" fill="#7EC896"/>
<path d="M132.077 55.0439H129.206V55.8326H132.077V55.0439Z" fill="#C5E1F9"/>
<path d="M132.077 57.9473H129.206V58.7359H132.077V57.9473Z" fill="#C5E1F9"/>
<path d="M132.077 60.8486H129.206V61.6373H132.077V60.8486Z" fill="#C5E1F9"/>
<path d="M134.078 55.0439H133.315V55.8326H134.078V55.0439Z" fill="#D98F00"/>
<path d="M134.078 57.9473H133.315V58.7359H134.078V57.9473Z" fill="#D98F00"/>
<path d="M134.078 60.8486H133.315V61.6373H134.078V60.8486Z" fill="#D98F00"/>
<path d="M174.044 55.0439H173.28V55.8326H174.044V55.0439Z" fill="#D98F00"/>
<path d="M181.393 57.9473H180.631V58.7359H181.393V57.9473Z" fill="#D98F00"/>
<path d="M186.392 60.8486H185.628V61.6373H186.392V60.8486Z" fill="#D98F00"/>
<path d="M124.669 63.75H100.038V64.5387H124.669V63.75Z" fill="#7EB3FF"/>
<path d="M101.149 96.0342H97.0745V96.8228H101.149V96.0342Z" fill="#FF876C"/>
<path d="M110.685 101.836H106.611V102.625H110.685V101.836Z" fill="#FF876C"/>
<path d="M145.687 101.836H118.649V102.625H145.687V101.836Z" fill="#7EC896"/>
<path d="M139.947 98.9365H100.316V99.7252H139.947V98.9365Z" fill="#C5E1F9"/>
<path d="M115.316 101.836H112.446V102.625H115.316V101.836Z" fill="#C5E1F9"/>
<path d="M117.318 101.836H116.554V102.625H117.318V101.836Z" fill="#D98F00"/>
<path d="M95.8928 96.0342H95.1287V96.8228H95.8928V96.0342Z" fill="#D98F00"/>
<path d="M102.838 96.0342H102.074V96.8228H102.838V96.0342Z" fill="#D98F00"/>
<path d="M113.927 104.738H112.073V105.527H113.927V104.738Z" fill="#FF876C"/>
<path d="M110.895 104.738H110.13V105.527H110.895V104.738Z" fill="#D98F00"/>
<path d="M115.616 104.738H114.852V105.527H115.616V104.738Z" fill="#D98F00"/>
<path d="M119.113 110.541H117.26V111.33H119.113V110.541Z" fill="#FF876C"/>
<path d="M116.079 110.541H115.315V111.33H116.079V110.541Z" fill="#D98F00"/>
<path d="M120.801 110.541H120.037V111.33H120.801V110.541Z" fill="#D98F00"/>
<path d="M105.431 101.836H104.667V102.625H105.431V101.836Z" fill="#D98F00"/>
<path d="M176.706 107.642H115.407V108.43H176.706V107.642Z" fill="#C5E1F9"/>
<path d="M147.377 101.836H146.613V102.625H147.377V101.836Z" fill="#D98F00"/>
<path d="M133.928 81.1582H100.038V81.9469H133.928V81.1582Z" fill="#7EB3FF"/>
<path d="M150.224 84.0605H100.038V84.8493H150.224V84.0605Z" fill="#7EB3FF"/>
<path d="M117.076 86.9609H100.038V87.7496H117.076V86.9609Z" fill="#7EB3FF"/>
<path d="M88.3683 52.1436H86.5166V52.9322H88.3683V52.1436Z" fill="#D98F00"/>
<path d="M88.3692 55.0439H86.5176V55.8326H88.3692V55.0439Z" fill="#D98F00"/>
<path d="M88.3692 57.9473H86.5176V58.7359H88.3692V57.9473Z" fill="#D98F00"/>
<path d="M88.3692 60.8486H86.5176V61.6373H88.3692V60.8486Z" fill="#D98F00"/>
<path d="M88.3692 63.75H86.5176V64.5387H88.3692V63.75Z" fill="#D98F00"/>
<path d="M88.3692 66.6504H86.5176V67.4391H88.3692V66.6504Z" fill="#D98F00"/>
<path d="M88.3692 69.5527H86.5176V70.3414H88.3692V69.5527Z" fill="#D98F00"/>
<path d="M88.3692 72.4541H86.5176V73.2428H88.3692V72.4541Z" fill="#D98F00"/>
<path d="M88.3692 75.3555H86.5176V76.1442H88.3692V75.3555Z" fill="#D98F00"/>
<path d="M88.3692 78.2568H86.5176V79.0455H88.3692V78.2568Z" fill="#D98F00"/>
<path d="M88.3692 81.1582H86.5176V81.9469H88.3692V81.1582Z" fill="#D98F00"/>
<path d="M88.3692 84.0605H86.5176V84.8493H88.3692V84.0605Z" fill="#D98F00"/>
<path d="M88.3692 86.9609H86.5176V87.7496H88.3692V86.9609Z" fill="#D98F00"/>
<path d="M88.3692 89.8633H86.5176V90.6519H88.3692V89.8633Z" fill="#D98F00"/>
<path d="M88.3692 92.7646H86.5176V93.5533H88.3692V92.7646Z" fill="#D98F00"/>
<path d="M88.3692 95.667H86.5176V96.4557H88.3692V95.667Z" fill="#D98F00"/>
<path d="M88.3692 98.5674H86.5176V99.3561H88.3692V98.5674Z" fill="#D98F00"/>
<path d="M119.542 130.62L120.539 118.453L121.539 106.285L111.107 112.633L100.676 118.974L109.346 121.119L104.739 128.578L109.141 131.299L113.744 123.84L119.542 130.62Z" fill="#4B82E9"/>
<path d="M120.537 118.446L121.538 106.278L121.188 106.489L106.779 129.832L109.137 131.282L113.74 123.824L119.542 130.62L120.537 118.446Z" fill="#88B2F8"/>
<path d="M156.619 134.219H154.279C153.043 134.218 151.858 133.727 150.983 132.853C150.109 131.979 149.617 130.794 149.616 129.558V113.693H150.804V129.558C150.805 130.479 151.172 131.362 151.823 132.013C152.475 132.664 153.358 133.031 154.279 133.031H156.619V134.219Z" fill="#0058B0"/>
<path d="M180.818 153.689V152.501C181.739 152.5 182.622 152.134 183.273 151.482C183.924 150.831 184.29 149.948 184.291 149.027V146.968H185.479V149.027C185.478 150.263 184.986 151.448 184.113 152.322C183.239 153.196 182.054 153.688 180.818 153.689Z" fill="#0058B0"/>
<path d="M189.719 153.949H188.531V145.529C188.531 145.124 188.37 144.736 188.084 144.45C187.798 144.164 187.41 144.003 187.006 144.003C186.601 144.003 186.213 144.164 185.927 144.45C185.641 144.736 185.48 145.124 185.48 145.529V148.009H184.292V145.529C184.292 144.809 184.578 144.119 185.087 143.61C185.596 143.101 186.286 142.815 187.006 142.815C187.725 142.815 188.415 143.101 188.924 143.61C189.433 144.119 189.719 144.809 189.719 145.529V153.949Z" fill="#0058B0"/>
<path d="M197.341 151.265H196.153V140.716C196.153 140.17 195.936 139.646 195.55 139.26C195.164 138.874 194.64 138.657 194.094 138.657C193.548 138.657 193.024 138.874 192.638 139.26C192.252 139.646 192.035 140.17 192.035 140.716V151.265H190.847V140.716C190.847 139.855 191.189 139.029 191.798 138.42C192.407 137.811 193.233 137.469 194.094 137.469C194.955 137.469 195.781 137.811 196.39 138.42C196.999 139.029 197.341 139.855 197.341 140.716V151.265Z" fill="#0058B0"/>
<path d="M190.295 156.84C189.828 156.839 189.38 156.653 189.049 156.322C188.719 155.991 188.533 155.543 188.533 155.075V150.428H189.721V155.075C189.721 155.151 189.735 155.226 189.764 155.296C189.793 155.366 189.835 155.429 189.889 155.483C189.942 155.536 190.006 155.579 190.075 155.608C190.145 155.637 190.22 155.652 190.296 155.652C190.371 155.652 190.446 155.637 190.516 155.608C190.586 155.579 190.65 155.536 190.703 155.483C190.756 155.429 190.799 155.366 190.827 155.296C190.856 155.226 190.871 155.151 190.871 155.075V150.428H192.059V155.075C192.058 155.543 191.873 155.992 191.542 156.322C191.211 156.653 190.763 156.839 190.295 156.84Z" fill="#0058B0"/>
<path d="M180.902 153.687C179.666 153.686 178.481 153.194 177.607 152.32C176.734 151.446 176.242 150.261 176.241 149.025V144.759H177.429V149.025C177.43 149.946 177.796 150.829 178.447 151.48C179.098 152.131 179.981 152.498 180.902 152.499V153.687Z" fill="#0058B0"/>
<path d="M177.432 145.173H176.244V140.906C176.243 139.985 175.877 139.102 175.226 138.451C174.575 137.8 173.692 137.433 172.771 137.432H171.592V136.244H172.771C174.007 136.246 175.192 136.737 176.066 137.611C176.94 138.485 177.431 139.67 177.432 140.906V145.173Z" fill="#0058B0"/>
<path d="M200.758 160.002V158.814C201.679 158.813 202.562 158.446 203.214 157.795C203.865 157.143 204.231 156.26 204.232 155.339V126.272H205.42V155.339C205.419 156.575 204.927 157.76 204.053 158.635C203.179 159.509 201.994 160.001 200.758 160.002Z" fill="#0058B0"/>
<path d="M200.847 160.003C199.611 160.001 198.425 159.509 197.551 158.635C196.677 157.761 196.186 156.575 196.185 155.339V145.134H197.373V155.339C197.374 156.26 197.74 157.144 198.391 157.795C199.042 158.447 199.926 158.813 200.847 158.815V160.003Z" fill="#0058B0"/>
<path d="M215.76 139.845C238.845 139.845 257.56 121.422 257.56 98.6957C257.56 75.9693 238.845 57.5459 215.76 57.5459C192.674 57.5459 173.959 75.9693 173.959 98.6957C173.959 121.422 192.674 139.845 215.76 139.845Z" fill="#9AC7F7"/>
<mask id="mask0_2127:27797" style="mask-type:alpha" maskUnits="userSpaceOnUse" x="173" y="57" width="85" height="83">
<path d="M215.76 139.845C238.845 139.845 257.56 121.422 257.56 98.6957C257.56 75.9693 238.845 57.5459 215.76 57.5459C192.674 57.5459 173.959 75.9693 173.959 98.6957C173.959 121.422 192.674 139.845 215.76 139.845Z" fill="white"/>
</mask>
<g mask="url(#mask0_2127:27797)">
<path d="M214.198 87.9209L218.433 107.537L222.671 143.863H214.198H205.728L209.963 107.537L214.198 87.9209Z" fill="#D98F00"/>
<path d="M214.198 87.9209L217.15 107.537L220.102 143.863H214.198H208.294L211.247 107.537L214.198 87.9209Z" fill="#FFCC00"/>
<path d="M214.197 87.9209L215.071 107.537L215.945 143.863H214.197H212.448L213.323 107.537L214.197 87.9209Z" fill="#D98F00"/>
<path d="M239.696 140.878C240.408 139.412 240.736 137.789 240.649 136.161C240.561 134.533 240.061 132.954 239.196 131.573C238.331 130.191 237.129 129.052 235.703 128.263C234.277 127.473 232.674 127.059 231.044 127.059C229.414 127.059 227.811 127.473 226.385 128.263C224.959 129.052 223.757 130.191 222.892 131.573C222.027 132.954 221.527 134.533 221.439 136.161C221.352 137.789 221.68 139.412 222.392 140.878H239.696Z" fill="#FFCC00"/>
<path d="M234.953 141.419C235.134 139.936 234.911 138.432 234.309 137.065C233.707 135.698 232.747 134.518 231.531 133.651C230.314 132.784 228.887 132.26 227.398 132.137C225.909 132.013 224.415 132.292 223.072 132.947C222.41 130.677 220.997 128.699 219.063 127.339C217.13 125.978 214.791 125.315 212.431 125.459C210.071 125.602 207.83 126.544 206.076 128.128C204.322 129.713 203.158 131.847 202.776 134.18C200.164 134.638 197.8 136.011 196.108 138.055C195.34 137.805 194.526 137.723 193.723 137.816C192.921 137.909 192.147 138.173 191.456 138.592C190.764 139.011 190.171 139.573 189.717 140.242C189.263 140.91 188.958 141.669 188.824 142.466C188.689 143.263 188.728 144.08 188.938 144.86C189.147 145.641 189.523 146.367 190.038 146.989C190.554 147.612 191.198 148.116 191.926 148.467C192.654 148.818 193.449 149.008 194.257 149.024C194.257 149.025 194.257 149.026 194.258 149.027C194.258 149.027 194.259 149.028 194.26 149.029H234.511C234.514 149.019 234.518 149.008 234.521 148.998C234.627 149.005 234.728 149.029 234.834 149.029C235.834 149.03 236.795 148.638 237.508 147.937C238.221 147.236 238.629 146.282 238.645 145.282C238.66 144.282 238.282 143.316 237.591 142.593C236.9 141.87 235.952 141.449 234.953 141.419Z" fill="#D98F00"/>
<path d="M202.465 131.91C201.134 131.91 200.166 129.91 199.113 130.567C199.092 128.127 198.215 125.772 196.636 123.912C195.057 122.052 192.875 120.805 190.471 120.388C188.067 119.971 185.592 120.41 183.479 121.63C181.366 122.85 179.747 124.772 178.905 127.062C176.338 126.121 173.504 126.229 171.016 127.363C168.528 128.497 166.588 130.566 165.615 133.121C166.565 133.857 167.727 134.267 168.929 134.291C168.929 134.292 168.93 134.293 168.93 134.294C168.931 134.294 168.931 134.295 168.932 134.295H191.875L200.834 142.967L206.245 141.272" fill="#FFCC00"/>
<path d="M239.713 130.509C239.949 131.107 240.003 131.763 239.867 132.392C239.731 133.021 239.411 133.596 238.949 134.043C238.486 134.491 237.901 134.791 237.268 134.906C236.634 135.022 235.981 134.946 235.391 134.69C234.8 134.434 234.299 134.009 233.95 133.468C233.601 132.927 233.421 132.294 233.431 131.651C233.442 131.007 233.643 130.381 234.009 129.852C234.375 129.323 234.891 128.914 235.489 128.677C235.887 128.52 236.311 128.443 236.739 128.45C237.166 128.457 237.588 128.548 237.98 128.718C238.373 128.888 238.728 129.134 239.025 129.441C239.322 129.748 239.556 130.111 239.713 130.509Z" fill="#D98F00"/>
<path d="M249.59 129.829C249.57 128.787 249.298 127.766 248.798 126.852C248.297 125.938 247.583 125.159 246.716 124.581C245.848 124.004 244.854 123.644 243.818 123.534C242.782 123.424 241.735 123.566 240.766 123.949C239.796 124.332 238.934 124.943 238.253 125.731C237.571 126.52 237.091 127.461 236.852 128.475C236.613 129.49 236.624 130.546 236.882 131.556C237.141 132.565 237.64 133.497 238.337 134.272L249.59 129.829Z" fill="#D98F00"/>
<path d="M208.784 136.613C208.785 137.965 208.384 139.286 207.633 140.411C206.883 141.535 205.815 142.411 204.567 142.929C203.318 143.447 201.943 143.583 200.617 143.319C199.291 143.056 198.073 142.405 197.117 141.449C196.161 140.493 195.51 139.276 195.246 137.95C194.982 136.624 195.117 135.249 195.634 134C196.151 132.751 197.027 131.684 198.152 130.932C199.276 130.181 200.597 129.78 201.949 129.78C203.761 129.78 205.499 130.5 206.781 131.781C208.063 133.062 208.783 134.8 208.784 136.613Z" fill="#FFCC00"/>
<path d="M196.673 131.944C196.674 133.296 196.273 134.617 195.522 135.742C194.772 136.866 193.704 137.742 192.456 138.26C191.207 138.778 189.832 138.914 188.506 138.65C187.18 138.387 185.962 137.736 185.006 136.78C184.05 135.824 183.399 134.607 183.135 133.281C182.871 131.955 183.006 130.58 183.523 129.331C184.04 128.082 184.916 127.015 186.04 126.263C187.164 125.512 188.486 125.111 189.838 125.111C191.65 125.111 193.388 125.831 194.67 127.112C195.952 128.394 196.672 130.131 196.673 131.944Z" fill="#D98F00"/>
</g>
<path d="M214.736 97.0293C211.259 97.0293 208.44 101.711 208.44 107.485C208.44 108.2 208.485 108.913 208.573 109.622H220.9C220.989 108.913 221.034 108.2 221.033 107.485C221.033 101.711 218.214 97.0293 214.736 97.0293Z" fill="#0058B0"/>
<path d="M213.099 97.0293C210.526 97.0293 208.44 101.711 208.44 107.485C208.44 108.218 208.474 108.934 208.538 109.622H217.657C217.72 108.934 217.754 108.218 217.754 107.485C217.754 101.711 215.669 97.0293 213.099 97.0293Z" fill="#0073E6"/>
<path d="M208.793 71.9748C208.793 83.116 203.084 92.8105 194.663 97.8338C194.411 98.0688 194.161 98.298 193.919 98.5201C192.363 99.9402 192.87 106.653 192.87 106.653H208.873V67.8252C208.863 68.5701 208.815 69.314 208.728 70.0539C208.766 70.6901 208.793 71.3288 208.793 71.9748Z" fill="#0073E6"/>
<path d="M208.874 84.9756C206.301 91.4773 201.52 96.8652 195.371 100.194C195.094 100.43 194.821 100.66 194.556 100.882C193.516 101.747 193.316 104.573 193.318 106.652H208.874V84.9756Z" fill="#EAF4FE"/>
<path d="M194.722 105.864C194.457 106.076 194.243 106.345 194.098 106.652H208.873V93.8008C205.591 98.7338 201.016 102.67 195.648 105.179C195.333 105.414 195.024 105.643 194.722 105.864Z" fill="#C5E1F9"/>
<path d="M220.682 71.9748C220.682 83.116 226.389 92.8105 234.812 97.8338C235.063 98.0688 235.313 98.298 235.555 98.5201C237.11 99.9402 236.604 106.653 236.604 106.653H220.6V67.8252C220.611 68.5701 220.659 69.3139 220.745 70.0539C220.708 70.6901 220.682 71.3288 220.682 71.9748Z" fill="#0073E6"/>
<path d="M220.601 84.9756C223.174 91.4772 227.955 96.865 234.104 100.194C234.381 100.43 234.655 100.66 234.919 100.882C235.96 101.747 236.159 104.573 236.157 106.652H220.601V84.9756Z" fill="#EAF4FE"/>
<path d="M234.754 105.865C235.018 106.078 235.232 106.347 235.378 106.653H220.601V93.8018C223.884 98.7341 228.459 102.67 233.827 105.18C234.141 105.415 234.451 105.644 234.754 105.865Z" fill="#C5E1F9"/>
<path d="M221.009 106.653V66.5138C221.009 62.8397 218.278 50.9195 214.737 48.9561C211.197 50.9195 208.466 62.8397 208.466 66.5138V106.653H221.009Z" fill="#C5E1F9"/>
<path d="M214.738 48.9561C214.703 48.9755 214.669 49.0026 214.632 49.0256V106.653H221.011V66.5138C221.011 62.8397 218.28 50.9195 214.738 48.9561Z" fill="#EAF4FE"/>
<path d="M210.257 57.1528H219.22C218.095 53.4448 216.519 49.9419 214.738 48.9561C212.959 49.9419 211.385 53.4448 210.257 57.1528Z" fill="#0073E6"/>
<path d="M214.632 57.1528H219.221C218.095 53.4448 216.519 49.9419 214.738 48.9561C214.703 48.9755 214.669 49.0026 214.632 49.0256V57.1528Z" fill="#0058B0"/>
<path d="M218.596 63.8009C218.338 64.3877 217.485 64.166 216.484 63.7926C215.338 63.3442 214.065 63.3442 212.918 63.7926C211.919 64.1646 211.065 64.3877 210.808 63.8009C210.543 63.2295 211.167 61.844 212.468 61.3393C213.905 60.7788 215.499 60.7788 216.936 61.3393C218.237 61.84 218.86 63.2263 218.596 63.8009Z" fill="#0073E6"/>
<path d="M201.948 97.0293C200.426 97.0293 199.194 101.711 199.194 107.485C199.194 108.218 199.213 108.934 199.25 109.622H204.645C204.684 108.934 204.702 108.218 204.702 107.485C204.702 101.711 203.47 97.0293 201.948 97.0293Z" fill="#0073E6"/>
<path d="M201.948 97.0293C201.55 97.0293 201.175 97.3544 200.833 97.9272C202.084 98.6106 203.047 102.683 203.047 107.619C203.047 108.307 203.029 108.974 202.993 109.622H204.646C204.684 108.934 204.703 108.218 204.703 107.485C204.703 101.711 203.47 97.0293 201.948 97.0293Z" fill="#0058B0"/>
<path d="M227.526 97.0293C226.006 97.0293 224.772 101.711 224.772 107.485C224.772 108.218 224.791 108.934 224.829 109.622H230.223C230.262 108.934 230.28 108.218 230.28 107.485C230.28 101.711 229.048 97.0293 227.526 97.0293Z" fill="#0073E6"/>
<path d="M227.526 97.0293C227.13 97.0293 226.753 97.3544 226.412 97.9272C227.663 98.6106 228.624 102.683 228.624 107.619C228.624 108.307 228.606 108.974 228.57 109.622H230.223C230.262 108.934 230.28 108.218 230.28 107.485C230.28 101.711 229.048 97.0293 227.526 97.0293Z" fill="#0058B0"/>
<path d="M175.349 123.121H176.457C176.526 123.121 176.592 123.149 176.641 123.197C176.689 123.246 176.717 123.312 176.717 123.381V124.227C176.717 124.262 176.71 124.295 176.697 124.327C176.684 124.358 176.665 124.387 176.641 124.411C176.616 124.436 176.588 124.455 176.556 124.468C176.525 124.481 176.491 124.488 176.457 124.488H175.351C175.281 124.488 175.215 124.46 175.166 124.411C175.118 124.362 175.09 124.296 175.09 124.227V123.38C175.09 123.311 175.117 123.245 175.166 123.197C175.214 123.148 175.28 123.121 175.349 123.121Z" fill="#0058B0"/>
<path d="M174.283 124.811C174.313 124.828 174.339 124.851 174.359 124.878C174.38 124.905 174.395 124.937 174.404 124.97C174.412 125.003 174.414 125.037 174.409 125.071C174.405 125.105 174.393 125.138 174.376 125.167L173.828 126.123C173.792 126.182 173.735 126.226 173.668 126.243C173.602 126.261 173.53 126.252 173.47 126.218L172.737 125.795C172.708 125.778 172.682 125.755 172.661 125.728C172.641 125.701 172.626 125.67 172.617 125.637C172.608 125.604 172.606 125.57 172.61 125.536C172.615 125.503 172.626 125.47 172.643 125.441L173.195 124.483C173.229 124.424 173.286 124.38 173.352 124.362C173.418 124.345 173.489 124.354 173.549 124.388L174.283 124.811Z" fill="#0058B0"/>
<path d="M173.571 127.212C173.6 127.195 173.633 127.184 173.667 127.179C173.701 127.175 173.736 127.177 173.769 127.186C173.802 127.195 173.833 127.21 173.86 127.231C173.887 127.252 173.91 127.278 173.927 127.307L174.479 128.266C174.496 128.295 174.508 128.327 174.512 128.361C174.517 128.395 174.515 128.429 174.506 128.462C174.497 128.495 174.482 128.526 174.462 128.553C174.441 128.58 174.415 128.603 174.386 128.62L173.651 129.042C173.621 129.059 173.589 129.07 173.555 129.075C173.521 129.079 173.487 129.077 173.454 129.068C173.421 129.059 173.39 129.044 173.363 129.023C173.336 129.002 173.313 128.976 173.296 128.946L172.744 127.991C172.709 127.93 172.7 127.859 172.718 127.792C172.737 127.725 172.781 127.668 172.841 127.634L173.571 127.212Z" fill="#0058B0"/>
<path d="M175.292 129.027C175.292 128.993 175.299 128.959 175.312 128.927C175.325 128.895 175.344 128.867 175.369 128.842C175.393 128.818 175.422 128.799 175.454 128.786C175.485 128.773 175.519 128.766 175.554 128.767H176.658C176.692 128.766 176.726 128.773 176.758 128.786C176.789 128.799 176.818 128.818 176.842 128.842C176.866 128.866 176.886 128.895 176.899 128.926C176.912 128.958 176.919 128.991 176.919 129.025V129.873C176.919 129.907 176.912 129.941 176.899 129.972C176.886 130.004 176.866 130.033 176.842 130.057C176.818 130.081 176.789 130.1 176.758 130.113C176.726 130.126 176.692 130.132 176.658 130.132H175.552C175.483 130.132 175.417 130.105 175.368 130.056C175.32 130.008 175.292 129.942 175.292 129.873V129.027Z" fill="#0058B0"/>
<path d="M177.727 128.443C177.698 128.426 177.672 128.403 177.651 128.376C177.63 128.349 177.615 128.318 177.606 128.285C177.597 128.252 177.595 128.218 177.6 128.184C177.604 128.151 177.615 128.118 177.632 128.088L178.185 127.133C178.219 127.072 178.275 127.028 178.342 127.01C178.408 126.991 178.479 126.999 178.54 127.033L179.273 127.459C179.332 127.494 179.375 127.551 179.393 127.617C179.411 127.683 179.402 127.754 179.368 127.813L178.814 128.769C178.797 128.799 178.775 128.825 178.748 128.846C178.721 128.867 178.691 128.883 178.658 128.892C178.625 128.901 178.591 128.903 178.557 128.898C178.523 128.894 178.491 128.883 178.461 128.866L177.727 128.443Z" fill="#0058B0"/>
<path d="M178.439 126.041C178.41 126.058 178.377 126.069 178.343 126.074C178.31 126.079 178.275 126.077 178.242 126.068C178.209 126.059 178.178 126.044 178.151 126.023C178.124 126.003 178.102 125.977 178.085 125.947L177.531 124.99C177.497 124.93 177.487 124.859 177.505 124.793C177.523 124.726 177.566 124.669 177.626 124.635L178.359 124.211C178.419 124.177 178.489 124.168 178.556 124.186C178.622 124.204 178.678 124.247 178.713 124.306L179.268 125.265C179.302 125.325 179.311 125.396 179.292 125.462C179.274 125.529 179.23 125.586 179.171 125.62L178.439 126.041Z" fill="#0058B0"/>
<path d="M176.006 124.096C175.505 124.096 175.016 124.244 174.6 124.522C174.184 124.8 173.859 125.195 173.668 125.657C173.476 126.119 173.426 126.628 173.523 127.119C173.621 127.609 173.862 128.06 174.215 128.414C174.569 128.768 175.02 129.009 175.51 129.107C176.001 129.205 176.51 129.155 176.972 128.964C177.435 128.773 177.83 128.449 178.108 128.033C178.386 127.617 178.535 127.128 178.535 126.628C178.535 126.295 178.47 125.966 178.343 125.659C178.216 125.352 178.03 125.073 177.795 124.838C177.56 124.603 177.281 124.416 176.974 124.289C176.667 124.161 176.338 124.096 176.006 124.096ZM176.006 127.835C175.766 127.835 175.533 127.764 175.334 127.632C175.135 127.499 174.98 127.31 174.888 127.089C174.797 126.868 174.773 126.625 174.819 126.39C174.866 126.156 174.981 125.94 175.15 125.771C175.319 125.602 175.535 125.487 175.77 125.441C176.004 125.394 176.247 125.418 176.468 125.51C176.689 125.601 176.878 125.757 177.011 125.956C177.143 126.154 177.214 126.388 177.214 126.628C177.213 126.948 177.086 127.255 176.86 127.481C176.633 127.708 176.326 127.835 176.006 127.835Z" fill="#0058B0"/>
<path d="M164.167 144.631C163.024 144.643 161.904 144.315 160.948 143.689C159.991 143.063 159.243 142.167 158.797 141.115C158.351 140.062 158.229 138.901 158.444 137.779C158.66 136.656 159.204 135.623 160.008 134.811C160.811 133.999 161.838 133.443 162.958 133.216C164.078 132.988 165.241 133.099 166.298 133.534C167.355 133.968 168.259 134.707 168.895 135.656C169.531 136.606 169.871 137.723 169.871 138.866C169.878 140.386 169.281 141.847 168.211 142.928C167.142 144.009 165.688 144.621 164.167 144.631ZM164.167 134.134C163.228 134.121 162.307 134.388 161.521 134.901C160.735 135.413 160.118 136.148 159.751 137.012C159.383 137.875 159.28 138.829 159.456 139.751C159.631 140.673 160.077 141.522 160.737 142.19C161.396 142.858 162.239 143.315 163.159 143.503C164.079 143.691 165.033 143.601 165.902 143.244C166.77 142.888 167.513 142.281 168.036 141.501C168.558 140.722 168.838 139.804 168.838 138.866C168.844 137.619 168.356 136.421 167.481 135.534C166.605 134.647 165.413 134.143 164.167 134.134Z" fill="#0058B0"/>
<path d="M164.167 144.486C162.641 144.486 161.49 142.07 161.49 138.866C161.49 135.662 162.641 133.247 164.167 133.247C165.695 133.247 166.846 135.662 166.846 138.866C166.846 142.07 165.695 144.486 164.167 144.486ZM164.167 134.28C163.497 134.28 162.524 136.067 162.524 138.866C162.524 141.667 163.497 143.452 164.167 143.452C164.839 143.452 165.812 141.667 165.812 138.866C165.812 136.067 164.839 134.28 164.167 134.28Z" fill="#0058B0"/>
<path d="M169.355 139.383H158.98C158.843 139.383 158.712 139.328 158.615 139.231C158.518 139.134 158.463 139.003 158.463 138.866C158.463 138.729 158.518 138.597 158.615 138.5C158.712 138.403 158.843 138.349 158.98 138.349H169.355C169.492 138.349 169.623 138.403 169.72 138.5C169.817 138.597 169.872 138.729 169.872 138.866C169.872 139.003 169.817 139.134 169.72 139.231C169.623 139.328 169.492 139.383 169.355 139.383Z" fill="#0058B0"/>
<path d="M164.168 137.105C162.663 137.106 161.164 136.905 159.712 136.508C159.58 136.472 159.468 136.384 159.4 136.265C159.332 136.146 159.314 136.005 159.35 135.873C159.386 135.741 159.473 135.629 159.592 135.561C159.711 135.493 159.852 135.475 159.984 135.51C162.723 136.26 165.613 136.26 168.352 135.51C168.485 135.474 168.626 135.492 168.745 135.56C168.864 135.628 168.951 135.741 168.987 135.873C169.023 136.005 169.005 136.146 168.938 136.265C168.87 136.384 168.757 136.472 168.625 136.508C167.173 136.905 165.674 137.106 164.168 137.105Z" fill="#0058B0"/>
<path d="M159.847 142.238C159.722 142.238 159.601 142.192 159.507 142.11C159.413 142.028 159.352 141.914 159.336 141.79C159.319 141.666 159.348 141.54 159.417 141.436C159.486 141.332 159.591 141.257 159.711 141.224C162.629 140.424 165.708 140.424 168.626 141.224C168.758 141.26 168.87 141.347 168.938 141.467C169.006 141.586 169.023 141.727 168.987 141.859C168.951 141.991 168.863 142.104 168.744 142.171C168.625 142.239 168.484 142.257 168.351 142.22C165.613 141.47 162.722 141.47 159.984 142.22C159.939 142.232 159.893 142.238 159.847 142.238Z" fill="#0058B0"/>
<path d="M165.22 130.822L164.782 130.836L163.683 130.87L163.247 130.884L162.991 132.988L163.749 132.963L164.848 132.929L165.61 132.905L165.22 130.822Z" fill="#0058B0"/>
<path d="M161.056 131.373L160.686 131.603L159.748 132.184L159.378 132.414L160.208 134.364L160.854 133.964L161.789 133.385L162.436 132.986L161.056 131.373Z" fill="#0058B0"/>
<path d="M157.726 133.932L157.52 134.316L156.999 135.287L156.793 135.669L158.489 136.946L158.846 136.278L159.367 135.308L159.726 134.638L157.726 133.932Z" fill="#0058B0"/>
<path d="M156.122 137.815L156.135 138.25L156.169 139.352L156.185 139.787L158.289 140.045L158.266 139.287L158.231 138.184L158.207 137.425L156.122 137.815Z" fill="#0058B0"/>
<path d="M156.675 141.977L156.905 142.348L157.485 143.284L157.715 143.655L159.668 142.825L159.268 142.179L158.685 141.245L158.286 140.599L156.675 141.977Z" fill="#0058B0"/>
<path d="M159.235 145.309L159.618 145.514L160.589 146.036L160.974 146.241L162.249 144.546L161.581 144.187L160.609 143.667L159.941 143.308L159.235 145.309Z" fill="#0058B0"/>
<path d="M163.116 146.911L163.551 146.896L164.653 146.863L165.086 146.848L165.345 144.742L164.585 144.767L163.484 144.802L162.726 144.826L163.116 146.911Z" fill="#0058B0"/>
<path d="M167.278 146.361L167.647 146.13L168.585 145.55L168.955 145.32L168.125 143.369L167.481 143.769L166.544 144.349L165.9 144.748L167.278 146.361Z" fill="#0058B0"/>
<path d="M170.608 143.801L170.814 143.415L171.334 142.445L171.54 142.061L169.847 140.784L169.487 141.454L168.968 142.424L168.607 143.093L170.608 143.801Z" fill="#0058B0"/>
<path d="M172.215 139.919L172.198 139.483L172.166 138.38L172.15 137.947L170.046 137.688L170.069 138.446L170.104 139.547L170.128 140.308L172.215 139.919Z" fill="#0058B0"/>
<path d="M171.661 135.754L171.43 135.383L170.849 134.445L170.622 134.076L168.668 134.907L169.069 135.553L169.651 136.488L170.049 137.133L171.661 135.754Z" fill="#0058B0"/>
<path d="M169.1 132.425L168.718 132.22L167.745 131.699L167.361 131.493L166.085 133.188L166.754 133.546L167.726 134.066L168.396 134.425L169.1 132.425Z" fill="#0058B0"/>
<path d="M164.168 145.556C162.842 145.569 161.543 145.187 160.434 144.46C159.325 143.733 158.458 142.692 157.941 141.471C157.425 140.25 157.283 138.903 157.534 137.601C157.785 136.299 158.417 135.101 159.35 134.158C160.283 133.216 161.475 132.573 162.774 132.309C164.074 132.046 165.422 132.174 166.648 132.679C167.875 133.183 168.923 134.041 169.661 135.142C170.399 136.244 170.793 137.54 170.793 138.866C170.8 140.631 170.107 142.327 168.865 143.581C167.622 144.835 165.933 145.546 164.168 145.556ZM164.168 134.176C163.238 134.162 162.324 134.426 161.544 134.933C160.764 135.441 160.152 136.169 159.787 137.025C159.422 137.881 159.319 138.826 159.493 139.74C159.666 140.654 160.107 141.497 160.761 142.159C161.414 142.822 162.25 143.275 163.162 143.462C164.073 143.648 165.02 143.559 165.881 143.206C166.742 142.853 167.479 142.252 167.997 141.479C168.515 140.706 168.792 139.796 168.792 138.866C168.799 137.631 168.317 136.444 167.45 135.565C166.583 134.685 165.403 134.186 164.168 134.176Z" fill="#0058B0"/>
<path d="M171.756 132.65H158.549V145.849H171.756V132.65Z" fill="#EAF4FE"/>
<path d="M171.485 146.851H156.275V131.649H171.485V146.851ZM158.278 144.848H169.483V133.651H158.278V144.848Z" fill="#0066CC"/>
<path fill-rule="evenodd" clip-rule="evenodd" d="M172.607 130.421H155.352V147.676H172.607V130.421Z" fill="#2A66C4"/>
<path fill-rule="evenodd" clip-rule="evenodd" d="M159.376 137.298C159.23 137.293 159.085 137.319 158.949 137.374C158.814 137.429 158.693 137.513 158.592 137.619C158.391 137.84 158.286 138.131 158.298 138.429C158.289 138.731 158.4 139.024 158.607 139.245C158.707 139.352 158.828 139.437 158.964 139.493C159.099 139.55 159.244 139.576 159.391 139.572C159.535 139.577 159.679 139.551 159.812 139.496C159.945 139.44 160.065 139.357 160.162 139.251C160.361 139.03 160.467 138.741 160.457 138.444C160.466 138.144 160.361 137.852 160.162 137.628C160.066 137.519 159.946 137.433 159.812 137.376C159.678 137.319 159.533 137.292 159.388 137.298" fill="white"/>
<path d="M165.493 141.035H163.976V143.716H162.108V134.503H165.493C167.679 134.503 168.772 135.568 168.772 137.699C168.772 138.776 168.492 139.603 167.932 140.18C167.373 140.758 166.559 141.042 165.493 141.035ZM163.976 139.435H165.481C166.412 139.435 166.875 138.846 166.875 137.699C166.916 137.265 166.795 136.831 166.536 136.48C166.398 136.344 166.232 136.24 166.05 136.174C165.868 136.109 165.674 136.083 165.481 136.1H163.976V139.435Z" fill="white"/>
</svg>
