<svg width="320" height="388" viewBox="0 0 320 388" fill="none" xmlns="http://www.w3.org/2000/svg">
<rect width="220" height="388" fill="white"/>
<path d="M120 0H316C318.209 0 320 1.79086 320 4V384C320 386.209 318.209 388 316 388H120C120 388 80 322 80 194C80 66 120 0 120 0Z" fill="#F0F6FC"/>
<g clip-path="url(#clip0_1848_55409)">
<path d="M260.188 233.964V116.749C260.185 115.287 259.603 113.885 258.569 112.851C257.535 111.818 256.133 111.236 254.671 111.233H64.326C62.8635 111.235 61.4613 111.816 60.427 112.85C59.3927 113.884 58.8107 115.286 58.8086 116.749V233.964H260.188Z" fill="#0058B0"/>
<path d="M58.4082 234.184V251.135C58.41 252.703 59.0343 254.206 60.1439 255.314C61.2535 256.421 62.7576 257.043 64.3254 257.042H254.671C256.237 257.042 257.739 256.419 258.847 255.311C259.955 254.204 260.577 252.702 260.578 251.135V234.184H58.4082Z" fill="#C5E1F9"/>
<path d="M194.317 282.004C194.317 282.004 192.851 281.288 191.165 280.652C189.371 279.976 187.212 279.131 185.938 278.522C183.715 277.452 183.522 276.749 182.689 273.105C181.782 269.119 180.925 260.709 180.583 257.042H138.419C138.07 260.709 137.214 269.119 136.309 273.105C135.476 276.749 135.287 277.452 133.059 278.522C131.793 279.128 129.676 279.96 127.889 280.635C126.179 281.275 124.785 281.771 124.785 281.771C124.785 281.771 123.424 282.526 125.603 282.632H193.394C195.438 282.674 194.317 282.004 194.317 282.004Z" fill="#C5E1F9"/>
<path d="M181.027 261.474C180.838 259.728 180.68 258.163 180.58 257.042H138.408C138.306 258.163 138.151 259.728 137.965 261.474H181.027Z" fill="#9AC7F7"/>
<path d="M94.9746 233.964H136.889L213.494 111.233H171.591L94.9746 233.964Z" fill="#1F62B2"/>
<path d="M148.863 233.964H164.162L240.764 111.233H225.468L148.863 233.964Z" fill="#1F62B2"/>
<path d="M250.861 120.3H68.2012V223.154H250.861V120.3Z" fill="#C5E1F9"/>
<path d="M280.501 246.889L280.502 238.323L275.988 237.359C275.729 236.112 275.383 234.884 274.952 233.686L278.271 230.691L273.988 223.271L269.589 224.692C268.742 223.745 267.83 222.858 266.859 222.038L268.239 217.77L260.821 213.487L257.724 216.915C256.516 216.518 255.283 216.207 254.032 215.982L253.093 211.6H244.527L243.56 216.114C242.313 216.372 241.086 216.718 239.888 217.15L236.889 213.829L229.473 218.112L230.893 222.512C229.948 223.36 229.061 224.271 228.239 225.24L223.973 223.861L219.689 231.281L223.117 234.377C222.721 235.585 222.409 236.818 222.184 238.069L217.802 239.01L217.801 247.575L222.315 248.542C222.574 249.788 222.92 251.014 223.35 252.212L220.031 255.213L224.314 262.629L228.715 261.208C229.562 262.155 230.473 263.042 231.443 263.862L230.064 268.13L237.482 272.411L240.578 268.984C241.785 269.38 243.019 269.692 244.27 269.917L245.211 274.3H253.775L254.743 269.786C255.99 269.527 257.217 269.182 258.416 268.751L261.413 272.068L268.831 267.789L267.41 263.387C268.356 262.54 269.243 261.629 270.065 260.66L274.33 262.037L278.613 254.62L275.186 251.524C275.583 250.315 275.895 249.081 276.12 247.829L280.501 246.889ZM263.541 242.951C263.541 245.797 262.697 248.579 261.116 250.945C259.535 253.312 257.288 255.156 254.658 256.245C252.029 257.334 249.135 257.619 246.344 257.064C243.553 256.508 240.989 255.138 238.976 253.126C236.964 251.113 235.594 248.549 235.038 245.758C234.483 242.966 234.768 240.073 235.857 237.444C236.946 234.814 238.791 232.567 241.157 230.986C243.523 229.405 246.305 228.561 249.151 228.561C251.041 228.561 252.912 228.933 254.658 229.656C256.404 230.379 257.991 231.439 259.327 232.775C260.663 234.112 261.723 235.698 262.446 237.444C263.169 239.19 263.541 241.061 263.541 242.951H263.541Z" fill="#7EB3FF"/>
<path d="M268.96 243.163C268.96 246.958 267.835 250.667 265.727 253.822C263.619 256.977 260.623 259.436 257.117 260.888C253.611 262.34 249.754 262.72 246.032 261.98C242.311 261.239 238.892 259.412 236.209 256.728C233.527 254.045 231.7 250.626 230.96 246.905C230.22 243.183 230.601 239.325 232.053 235.82C233.506 232.315 235.966 229.319 239.121 227.211C242.277 225.104 245.986 223.979 249.781 223.98C252.3 223.98 254.794 224.477 257.121 225.441C259.448 226.405 261.563 227.818 263.344 229.599C265.125 231.38 266.538 233.495 267.501 235.822C268.465 238.15 268.961 240.644 268.96 243.163V243.163Z" fill="#FFCC00"/>
<path d="M268.375 243.165C268.376 246.844 267.286 250.441 265.242 253.5C263.199 256.559 260.294 258.944 256.895 260.352C253.496 261.76 249.756 262.129 246.148 261.411C242.539 260.693 239.225 258.922 236.623 256.32C234.022 253.719 232.25 250.404 231.533 246.796C230.815 243.188 231.184 239.447 232.592 236.049C234.001 232.65 236.385 229.745 239.445 227.702C242.504 225.658 246.101 224.568 249.78 224.569C254.711 224.57 259.441 226.529 262.928 230.016C266.415 233.504 268.375 238.233 268.375 243.165V243.165Z" fill="#D98F00"/>
<path d="M264.426 243.163C264.427 246.06 263.568 248.892 261.959 251.3C260.349 253.709 258.062 255.587 255.385 256.696C252.709 257.804 249.764 258.095 246.923 257.53C244.081 256.965 241.471 255.57 239.423 253.521C237.374 251.473 235.979 248.863 235.414 246.022C234.849 243.18 235.139 240.235 236.248 237.559C237.357 234.882 239.234 232.595 241.643 230.985C244.052 229.376 246.884 228.517 249.781 228.518C253.665 228.518 257.389 230.062 260.136 232.808C262.882 235.554 264.425 239.279 264.426 243.163V243.163Z" fill="#FFCC00"/>
<path d="M242.469 240.946H244.086C244.186 240.071 244.424 239.216 244.79 238.415C245.13 237.661 245.598 236.971 246.173 236.376C246.741 235.793 247.423 235.334 248.176 235.027C248.999 234.697 249.88 234.534 250.766 234.546C252.32 234.469 253.846 234.975 255.045 235.966C256.175 237.036 256.851 238.5 256.932 240.055H254.002C253.939 239.192 253.574 238.378 252.97 237.759C252.369 237.212 251.577 236.926 250.766 236.961C250.295 236.935 249.824 237.018 249.391 237.205C248.957 237.392 248.573 237.678 248.269 238.039C247.633 238.884 247.248 239.892 247.157 240.946H251.985L251.705 242.423H247.087V244.017H251.4L251.142 245.494H247.157C247.236 246.527 247.628 247.512 248.281 248.317C248.601 248.656 248.991 248.922 249.424 249.094C249.858 249.266 250.324 249.342 250.789 249.314C252.743 249.314 253.876 248.181 254.189 245.915H257.096C256.983 247.545 256.289 249.079 255.139 250.239C253.931 251.308 252.353 251.859 250.744 251.775C249.854 251.79 248.97 251.63 248.142 251.306C247.398 251.008 246.72 250.566 246.148 250.005C245.575 249.433 245.11 248.763 244.777 248.025C244.415 247.223 244.182 246.368 244.086 245.494H242.469V244.017H244.016V242.422H242.469L242.469 240.946Z" fill="#D98F00"/>
<path d="M251 134H163V208H251V134Z" fill="#EAF4FE"/>
<path d="M251 134H163V141H251V134Z" fill="#0058B0"/>
<path d="M251 136H199V139H251V136Z" fill="white"/>
<path d="M168.364 137.585C168.364 137.866 168.281 138.14 168.125 138.373C167.969 138.607 167.747 138.789 167.488 138.896C167.229 139.004 166.944 139.032 166.668 138.977C166.393 138.923 166.14 138.788 165.942 138.589C165.743 138.391 165.608 138.138 165.553 137.863C165.498 137.588 165.526 137.303 165.633 137.043C165.74 136.784 165.922 136.562 166.155 136.406C166.388 136.25 166.662 136.166 166.943 136.166C167.32 136.166 167.681 136.315 167.947 136.581C168.214 136.848 168.363 137.209 168.364 137.585V137.585Z" fill="#D98F00"/>
<path d="M172.858 137.585C172.858 137.865 172.775 138.14 172.619 138.373C172.463 138.606 172.242 138.787 171.983 138.895C171.724 139.002 171.439 139.03 171.164 138.976C170.889 138.921 170.636 138.786 170.438 138.588C170.239 138.39 170.104 138.137 170.049 137.862C169.994 137.587 170.022 137.302 170.129 137.043C170.236 136.784 170.417 136.562 170.65 136.406C170.883 136.25 171.157 136.167 171.437 136.166C171.814 136.166 172.175 136.316 172.441 136.582C172.708 136.848 172.858 137.209 172.858 137.585V137.585Z" fill="#FFCC00"/>
<path d="M177.35 137.585C177.35 137.866 177.267 138.14 177.111 138.374C176.955 138.607 176.734 138.789 176.474 138.896C176.215 139.004 175.93 139.032 175.654 138.977C175.379 138.923 175.126 138.787 174.927 138.589C174.729 138.39 174.594 138.138 174.539 137.862C174.484 137.587 174.512 137.302 174.62 137.042C174.727 136.783 174.909 136.561 175.142 136.405C175.376 136.249 175.65 136.166 175.931 136.166C176.307 136.166 176.668 136.316 176.934 136.582C177.2 136.848 177.35 137.209 177.35 137.585V137.585Z" fill="#7EB3FF"/>
<path d="M250.859 186.069H171.859V186.283H250.859V186.069Z" fill="#9AC7F7"/>
<path d="M250.859 173.263H171.859V173.479H250.859V173.263Z" fill="#9AC7F7"/>
<path d="M250.859 160.459H171.859V160.676H250.859V160.459Z" fill="#9AC7F7"/>
<path d="M251 159.5L249.131 158.351L237.784 162.83L226.857 155.152L218.371 162.466L208.727 163.085L202.405 153.15L195.038 149.75L187.381 156.23L179.944 155.931L172.04 162.958L171.449 162.291L179.621 155.023L187.072 155.323L194.896 148.7L203.018 152.447L209.199 162.161L218.015 161.592L226.8 154.019L237.903 161.824L249.189 157.37L251 158.5V159.5Z" fill="#0561FC"/>
<path d="M169.458 185.73H165.309V186.621H169.458V185.73Z" fill="#9AC7F7"/>
<path d="M169.458 172.923H165.309V173.816H169.458V172.923Z" fill="#9AC7F7"/>
<path d="M169.458 160.121H165.309V161.015H169.458V160.121Z" fill="#9AC7F7"/>
<path d="M228.678 181.245L219.528 180.314L210.675 177.068L201.033 177.37L195.348 171.381L185.41 169.962L180.979 179.709L171.801 180.934L171.684 180.048L180.373 178.889L184.873 168.984L195.779 170.541L201.407 176.465L210.823 176.17L219.783 179.455L228.55 180.335L234.29 178.036L240.81 169.34L246.946 177.012L250.129 176.213L251 175V176.213L250.571 177.025L246.608 178.017L240.833 170.798L234.851 178.773L228.678 181.245Z" fill="#D98F00"/>
<path d="M188.434 177.506L180.601 171.179L171.618 174.945L171.271 174.123L180.747 170.148L188.399 176.33L201.722 164.188L211.512 168.164L221.598 174.783L225.666 167.032L230.361 163.509L236.187 154.001L243.229 157.553L249.019 163.63L251.021 163.183V164L248.707 164.598L242.635 158.225L236.521 155.169L230.965 164.174L226.283 167.686L221.935 176.073L211.097 168.951L201.911 165.229L188.434 177.506Z" fill="#7EB3FF"/>
<path d="M182.016 170.59C182.016 170.84 181.942 171.084 181.803 171.292C181.664 171.5 181.466 171.662 181.235 171.758C181.005 171.854 180.75 171.879 180.505 171.83C180.26 171.782 180.035 171.662 179.858 171.485C179.681 171.308 179.56 171.083 179.511 170.838C179.462 170.593 179.487 170.339 179.582 170.108C179.677 169.876 179.839 169.679 180.047 169.54C180.254 169.4 180.498 169.326 180.749 169.325C181.084 169.325 181.406 169.458 181.644 169.695C181.881 169.932 182.015 170.254 182.016 170.59V170.59Z" fill="#7EB3FF"/>
<path d="M189.607 176.768C189.606 177.018 189.532 177.263 189.393 177.47C189.254 177.678 189.057 177.84 188.826 177.936C188.595 178.031 188.34 178.056 188.095 178.007C187.85 177.958 187.625 177.838 187.448 177.661C187.271 177.484 187.151 177.259 187.102 177.014C187.054 176.769 187.079 176.515 187.174 176.284C187.27 176.053 187.432 175.855 187.64 175.716C187.848 175.578 188.092 175.503 188.342 175.503C188.508 175.503 188.673 175.536 188.827 175.599C188.98 175.663 189.12 175.756 189.237 175.874C189.354 175.991 189.447 176.131 189.511 176.284C189.574 176.438 189.607 176.602 189.607 176.768V176.768Z" fill="#7EB3FF"/>
<path d="M203.156 164.785C203.156 165.036 203.082 165.281 202.943 165.489C202.803 165.697 202.605 165.86 202.374 165.956C202.143 166.051 201.888 166.076 201.642 166.028C201.396 165.979 201.171 165.858 200.994 165.681C200.817 165.504 200.696 165.278 200.647 165.032C200.599 164.786 200.624 164.532 200.72 164.3C200.816 164.069 200.978 163.871 201.186 163.732C201.395 163.593 201.64 163.519 201.89 163.519C202.226 163.52 202.548 163.653 202.785 163.891C203.022 164.128 203.156 164.45 203.156 164.785V164.785Z" fill="#7EB3FF"/>
<path d="M212.684 168.43C212.684 168.68 212.61 168.925 212.471 169.133C212.332 169.341 212.134 169.503 211.903 169.599C211.672 169.694 211.418 169.719 211.172 169.67C210.927 169.622 210.702 169.501 210.525 169.324C210.348 169.148 210.228 168.922 210.179 168.677C210.13 168.432 210.155 168.177 210.25 167.946C210.346 167.715 210.508 167.518 210.716 167.379C210.924 167.239 211.168 167.165 211.418 167.165C211.585 167.165 211.749 167.197 211.903 167.261C212.057 167.324 212.196 167.418 212.314 167.535C212.431 167.653 212.525 167.792 212.588 167.946C212.652 168.099 212.684 168.264 212.684 168.43V168.43Z" fill="#7EB3FF"/>
<path d="M222.957 175.354C222.957 175.604 222.883 175.849 222.744 176.057C222.605 176.266 222.408 176.428 222.176 176.524C221.945 176.62 221.691 176.645 221.445 176.596C221.2 176.548 220.974 176.427 220.797 176.25C220.62 176.073 220.499 175.848 220.45 175.602C220.401 175.357 220.426 175.102 220.522 174.871C220.618 174.64 220.78 174.442 220.988 174.303C221.196 174.164 221.441 174.089 221.691 174.089C222.027 174.089 222.349 174.223 222.586 174.46C222.823 174.697 222.957 175.019 222.957 175.354Z" fill="#7EB3FF"/>
<path d="M227.125 167.389C227.125 167.639 227.051 167.884 226.912 168.093C226.772 168.301 226.575 168.464 226.343 168.56C226.112 168.656 225.857 168.681 225.611 168.632C225.365 168.583 225.139 168.462 224.962 168.285C224.785 168.108 224.665 167.882 224.616 167.636C224.567 167.39 224.593 167.135 224.689 166.904C224.785 166.673 224.948 166.475 225.156 166.336C225.365 166.197 225.61 166.123 225.86 166.124C226.027 166.123 226.191 166.156 226.345 166.22C226.498 166.283 226.638 166.376 226.755 166.494C226.872 166.611 226.965 166.751 227.029 166.905C227.092 167.058 227.125 167.223 227.125 167.389V167.389Z" fill="#7EB3FF"/>
<path d="M232.114 163.742C232.114 163.992 232.039 164.236 231.9 164.444C231.761 164.652 231.564 164.814 231.333 164.91C231.101 165.005 230.847 165.03 230.602 164.981C230.357 164.933 230.131 164.812 229.954 164.635C229.778 164.459 229.657 164.233 229.608 163.988C229.559 163.743 229.584 163.488 229.68 163.257C229.776 163.026 229.938 162.829 230.146 162.69C230.354 162.551 230.598 162.476 230.848 162.476C231.014 162.476 231.179 162.508 231.333 162.572C231.486 162.635 231.626 162.729 231.744 162.846C231.861 162.964 231.954 163.103 232.018 163.257C232.081 163.411 232.114 163.575 232.114 163.742Z" fill="#7EB3FF"/>
<path d="M237.471 154.734C237.471 154.984 237.397 155.228 237.258 155.436C237.119 155.644 236.922 155.806 236.691 155.902C236.46 155.998 236.206 156.023 235.961 155.974C235.716 155.925 235.49 155.805 235.314 155.628C235.137 155.451 235.016 155.226 234.968 154.981C234.919 154.736 234.944 154.482 235.04 154.251C235.135 154.02 235.297 153.822 235.505 153.683C235.713 153.544 235.957 153.47 236.207 153.47C236.373 153.47 236.538 153.503 236.691 153.566C236.844 153.63 236.984 153.723 237.101 153.84C237.219 153.958 237.312 154.097 237.375 154.25C237.439 154.404 237.471 154.568 237.471 154.734V154.734Z" fill="#7EB3FF"/>
<path d="M244.473 157.859C244.473 158.11 244.399 158.354 244.26 158.562C244.121 158.77 243.923 158.932 243.692 159.028C243.461 159.124 243.207 159.149 242.961 159.101C242.716 159.052 242.49 158.932 242.313 158.755C242.136 158.579 242.015 158.353 241.966 158.108C241.917 157.863 241.942 157.608 242.037 157.377C242.132 157.146 242.294 156.948 242.502 156.809C242.709 156.669 242.954 156.594 243.204 156.594C243.54 156.593 243.862 156.727 244.1 156.964C244.338 157.201 244.472 157.523 244.473 157.859Z" fill="#7EB3FF"/>
<path d="M250.125 164.115C250.125 164.366 250.05 164.61 249.911 164.818C249.772 165.026 249.574 165.188 249.343 165.284C249.111 165.38 248.857 165.404 248.611 165.355C248.366 165.306 248.14 165.185 247.964 165.008C247.787 164.831 247.666 164.605 247.618 164.36C247.569 164.114 247.595 163.86 247.691 163.629C247.787 163.397 247.949 163.2 248.157 163.061C248.366 162.922 248.611 162.848 248.861 162.849C249.027 162.848 249.192 162.881 249.346 162.944C249.5 163.008 249.639 163.101 249.757 163.219C249.874 163.336 249.967 163.476 250.03 163.63C250.094 163.784 250.126 163.949 250.125 164.115V164.115Z" fill="#7EB3FF"/>
<path d="M196.683 192.995H178.135V193.947H196.683V192.995Z" fill="#9AC7F7"/>
<path d="M196.683 195.792H178.135V196.741H196.683V195.792Z" fill="#9AC7F7"/>
<path d="M191.444 198.585H178.135V199.535H191.444V198.585Z" fill="#9AC7F7"/>
<path d="M222.343 192.995H203.793V193.947H222.343V192.995Z" fill="#9AC7F7"/>
<path d="M222.343 195.792H203.793V196.741H222.343V195.792Z" fill="#9AC7F7"/>
<path d="M217.103 198.585H203.793V199.535H217.103V198.585Z" fill="#9AC7F7"/>
<path d="M202.708 192.567H200.537V194.376H202.708V192.567Z" fill="#7EB3FF"/>
<path d="M176.309 192.567H174.139V194.376H176.309V192.567Z" fill="#7EB3FF"/>
<path d="M248.001 192.995H229.453V193.947H248.001V192.995Z" fill="#9AC7F7"/>
<path d="M248.001 195.792H229.453V196.741H248.001V195.792Z" fill="#9AC7F7"/>
<path d="M242.763 198.585H229.453V199.535H242.763V198.585Z" fill="#9AC7F7"/>
<path d="M228.369 192.567H226.199V194.376H228.369V192.567Z" fill="#0561FC"/>
<path d="M103.307 199.123H113.247C115.67 199.123 117.995 198.16 119.708 196.446C121.422 194.732 122.385 192.408 122.385 189.984C122.385 187.561 121.422 185.236 119.708 183.523C117.995 181.809 115.67 180.846 113.247 180.846H103.307V199.123Z" fill="#D98F00"/>
<path d="M113.247 199.123H10.596V199.151L9.0685 199.123C6.82702 199.128 4.66563 199.957 2.99414 201.45C1.32264 202.944 0.257265 204.998 0 207.225C0 209.709 0.0157578 288.22 0 292.286C0.258007 290.062 1.32439 288.01 2.99638 286.52C4.66837 285.031 6.82938 284.208 9.0685 284.208H11.1548V284.174H113.247C115.486 284.175 117.646 283.353 119.319 281.865C120.991 280.377 122.058 278.326 122.317 276.103C122.317 273.614 122.303 195.108 122.317 191.042C122.058 193.267 120.991 195.318 119.319 196.808C117.647 198.297 115.487 199.121 113.247 199.123V199.123Z" fill="#EAF4FE"/>
<path d="M109.247 242.578H11.8281V244.312H109.247V242.578Z" fill="#0066CC"/>
<path d="M16.5938 243.445C16.5937 244.809 16.1892 246.142 15.4314 247.276C14.6736 248.411 13.5965 249.294 12.3364 249.816C11.0763 250.338 9.68965 250.475 8.3519 250.209C7.01415 249.943 5.78534 249.286 4.82085 248.321C3.85636 247.357 3.19951 246.128 2.93336 244.791C2.6672 243.453 2.8037 242.066 3.32558 240.806C3.84747 239.546 4.7313 238.469 5.86533 237.711C6.99935 236.953 8.33264 236.548 9.69659 236.548C10.6024 236.548 11.4994 236.726 12.3363 237.073C13.1733 237.419 13.9337 237.927 14.5742 238.568C15.2148 239.208 15.7228 239.969 16.0693 240.805C16.4158 241.642 16.594 242.539 16.5938 243.445Z" fill="#EAF4FE"/>
<path d="M9.69728 251.206C8.16202 251.206 6.66141 250.75 5.3852 249.896C4.10898 249.043 3.11447 247.83 2.52742 246.412C1.94038 244.993 1.78715 243.432 2.08713 241.927C2.3871 240.421 3.1268 239.038 4.2127 237.953C5.29859 236.867 6.68191 236.129 8.18775 235.829C9.69358 235.53 11.2543 235.684 12.6726 236.272C14.0908 236.86 15.3029 237.855 16.1556 239.132C17.0083 240.409 17.4632 241.91 17.4629 243.445C17.4603 245.503 16.6411 247.476 15.1852 248.931C13.7293 250.387 11.7556 251.205 9.69728 251.206V251.206ZM9.69728 237.413C8.50489 237.413 7.33934 237.767 6.34798 238.43C5.35662 239.092 4.58396 240.034 4.1277 241.135C3.67144 242.237 3.55206 243.449 3.78465 244.619C4.01724 245.788 4.59136 246.863 5.43443 247.706C6.27749 248.549 7.35165 249.123 8.52108 249.356C9.69052 249.589 10.9027 249.47 12.0045 249.014C13.1062 248.558 14.0479 247.785 14.7107 246.794C15.3734 245.803 15.7274 244.637 15.7278 243.445C15.7267 241.846 15.091 240.312 13.9603 239.181C12.8296 238.051 11.2964 237.415 9.69728 237.413V237.413Z" fill="#0066CC"/>
<path d="M98.4941 243.445C98.4941 244.809 98.0895 246.143 97.3317 247.277C96.5738 248.411 95.4967 249.295 94.2364 249.816C92.9762 250.338 91.5895 250.475 90.2518 250.209C88.914 249.943 87.6852 249.286 86.7207 248.321C85.7563 247.356 85.0996 246.128 84.8336 244.79C84.5676 243.452 84.7043 242.065 85.2264 240.805C85.7485 239.545 86.6325 238.468 87.7668 237.71C88.901 236.953 90.2344 236.548 91.5984 236.548C92.5041 236.548 93.4009 236.727 94.2376 237.073C95.0743 237.42 95.8345 237.928 96.4749 238.568C97.1152 239.209 97.6231 239.969 97.9696 240.806C98.3161 241.643 98.4943 242.539 98.4941 243.445V243.445Z" fill="#EAF4FE"/>
<path d="M91.5987 251.206C90.0633 251.206 88.5624 250.751 87.2858 249.898C86.0092 249.045 85.0142 247.832 84.4267 246.414C83.8392 244.995 83.6856 243.434 83.9852 241.928C84.2848 240.423 85.0243 239.039 86.1101 237.954C87.1959 236.868 88.5792 236.129 90.0851 235.83C91.591 235.53 93.1519 235.684 94.5703 236.272C95.9887 236.86 97.201 237.855 98.0538 239.132C98.9066 240.408 99.3617 241.909 99.3614 243.445C99.3583 245.503 98.5394 247.475 97.0842 248.93C95.6291 250.385 93.6564 251.203 91.5987 251.206V251.206ZM91.5987 237.413C90.4062 237.413 89.2405 237.766 88.2489 238.429C87.2573 239.091 86.4843 240.033 86.0278 241.134C85.5713 242.236 85.4516 243.448 85.684 244.618C85.9164 245.787 86.4904 246.862 87.3334 247.705C88.1763 248.548 89.2505 249.123 90.42 249.356C91.5895 249.589 92.8018 249.47 93.9036 249.014C95.0054 248.558 95.9473 247.785 96.6101 246.794C97.273 245.803 97.627 244.637 97.6274 243.445C97.6259 241.846 96.9903 240.313 95.8601 239.182C94.7299 238.052 93.1974 237.415 91.5987 237.413V237.413Z" fill="#0066CC"/>
<path d="M72.098 237.731H47.666V249.156H72.098V237.731Z" fill="#EAF4FE"/>
<path d="M72.9655 250.023H46.7988V236.864H72.9655V250.023ZM48.5324 248.289H71.2319V238.596H48.5324V248.289Z" fill="#0066CC"/>
<path d="M117.599 237.731H106.166V249.156H117.599V237.731Z" fill="#EAF4FE"/>
<path d="M117.366 250.023H104.199V236.864H117.366V250.023ZM105.933 248.289H115.632V238.596H105.933V248.289Z" fill="#0066CC"/>
<path fill-rule="evenodd" clip-rule="evenodd" d="M118.338 235.8H103.4V250.738H118.338V235.8Z" fill="#2A66C4"/>
<path fill-rule="evenodd" clip-rule="evenodd" d="M106.883 241.753C106.757 241.749 106.631 241.771 106.514 241.819C106.397 241.867 106.292 241.939 106.205 242.031C106.031 242.222 105.94 242.474 105.95 242.732C105.943 242.994 106.039 243.248 106.218 243.439C106.304 243.532 106.41 243.605 106.527 243.654C106.644 243.702 106.769 243.726 106.896 243.722C107.021 243.726 107.145 243.704 107.261 243.656C107.376 243.608 107.48 243.536 107.564 243.444C107.736 243.253 107.828 243.002 107.819 242.745C107.827 242.486 107.736 242.233 107.564 242.039C107.48 241.945 107.377 241.87 107.261 241.821C107.145 241.772 107.02 241.748 106.894 241.753" fill="white"/>
<path d="M112.178 244.989H110.865V247.31H109.248V239.335H112.178C114.071 239.335 115.017 240.257 115.017 242.102C115.017 243.034 114.774 243.75 114.29 244.249C113.805 244.749 113.101 244.996 112.178 244.989ZM110.865 243.604H112.168C112.974 243.604 113.374 243.094 113.374 242.102C113.41 241.726 113.306 241.35 113.081 241.046C112.962 240.929 112.818 240.838 112.661 240.782C112.503 240.725 112.335 240.703 112.168 240.717H110.865V243.604Z" fill="white"/>
<path d="M30.0907 233.64L20.2871 243.444L30.0911 253.247L39.8947 243.443L30.0907 233.64Z" fill="#EAF4FE"/>
<path d="M30.0914 254.473L19.0625 243.444L30.0914 232.414L41.1214 243.444L30.0914 254.473ZM21.5136 243.444L30.0914 252.022L38.6703 243.444L30.0914 234.864L21.5136 243.444Z" fill="#0066CC"/>
<path d="M49.2031 261.094H29.0527V253.528H30.7876V259.36H49.2031V261.094Z" fill="#0066CC"/>
<path d="M30.7876 233.36H29.0527V225.792H49.2031V227.527H30.7876V233.36Z" fill="#0066CC"/>
<path d="M92.9699 261.094H72.8203V259.36H91.2358V250.06H92.9699V261.094Z" fill="#0066CC"/>
<path d="M92.9699 236.827H91.2358V227.527H72.8203V225.792H92.9699V236.827Z" fill="#0066CC"/>
<path d="M72.098 221.551H47.666V232.98H72.098V221.551Z" fill="#EAF4FE"/>
<path d="M72.9655 233.847H46.7988V220.686H72.9655V233.847ZM48.5324 232.113H71.2319V222.42H48.5324V232.113Z" fill="#0066CC"/>
<path d="M72.098 253.907H47.666V265.334H72.098V253.907Z" fill="#EAF4FE"/>
<path d="M72.9655 266.2H46.7988V253.042H72.9655V266.2ZM48.5324 264.467H71.2319V254.775H48.5324V264.467Z" fill="#0066CC"/>
<path d="M13.6622 215.993H9.0685C6.82939 215.993 4.66829 215.171 2.99624 213.681C1.32419 212.192 0.257841 210.14 0 207.916C0.0157578 211.977 0 290.487 0 292.972C0.25784 295.196 1.32424 297.247 2.99632 298.736C4.66841 300.226 6.82951 301.048 9.0685 301.047H13.6622V215.993Z" fill="#FFCC00"/>
<path d="M120.455 176.754H144.82C145.232 176.754 145.627 176.59 145.918 176.299C146.21 176.008 146.373 175.613 146.373 175.201C146.373 174.789 146.21 174.394 145.918 174.103C145.627 173.812 145.232 173.648 144.82 173.648H120.455C120.043 173.648 119.648 173.812 119.357 174.103C119.066 174.394 118.902 174.789 118.902 175.201C118.902 175.613 119.066 176.008 119.357 176.299C119.648 176.59 120.043 176.754 120.455 176.754Z" fill="#0058B0"/>
<path d="M102.303 114.336C102.307 106.293 105.505 98.58 111.194 92.8939C116.883 87.2078 124.597 84.0137 132.64 84.0137C140.683 84.0137 148.398 87.2078 154.087 92.8939C159.775 98.58 162.973 106.293 162.977 114.336C162.977 115.327 162.244 129.345 150.816 144.064C147.471 148.507 148.023 157.434 148.054 157.434H117.144C117.173 157.434 117.79 148.507 114.456 144.064C103.015 129.335 102.303 115.327 102.303 114.336Z" fill="#D98F00"/>
<path d="M122.906 153.477C122.698 149.661 121.762 142.466 119.397 139.316C108.53 125.322 108.042 112.08 108.037 111.949C108.039 104.953 110.82 98.2431 115.769 93.2968C120.717 88.3504 127.428 85.5726 134.425 85.5742C141.422 85.5759 148.131 88.3569 153.078 93.3056C158.024 98.2543 160.802 104.965 160.8 111.962C160.797 112.077 160.297 125.329 149.476 139.266C147.075 142.452 146.106 149.651 145.879 153.477H122.906Z" fill="#FFCC00"/>
<path d="M156.533 116.702C156.221 116.703 155.912 116.642 155.623 116.523C155.334 116.403 155.072 116.229 154.851 116.008C154.63 115.788 154.454 115.526 154.335 115.238C154.215 114.949 154.153 114.64 154.153 114.328C154.146 108.624 151.876 103.156 147.842 99.1233C143.808 95.0909 138.338 92.8239 132.634 92.8197C132.005 92.8197 131.402 92.5697 130.957 92.1248C130.512 91.6799 130.262 91.0764 130.262 90.4472C130.262 89.818 130.512 89.2145 130.957 88.7696C131.402 88.3247 132.005 88.0747 132.634 88.0747C139.596 88.0806 146.272 90.848 151.196 95.7698C156.12 100.692 158.89 107.366 158.899 114.328C158.9 114.956 158.651 115.559 158.207 116.004C157.763 116.449 157.161 116.7 156.533 116.702V116.702Z" fill="#FFDD55"/>
<path d="M124.87 159.781L120.934 128.512L122.52 128.037L126.453 159.306L124.87 159.781Z" fill="#0058B0"/>
<path d="M140.318 159.781L144.256 128.512L142.671 128.037L138.734 159.306L140.318 159.781Z" fill="#0058B0"/>
<path d="M142.963 132.428C141.871 132.428 141.402 131.365 141.056 130.586C140.912 130.268 140.612 129.595 140.443 129.595C140.27 129.595 139.974 130.268 139.831 130.586C139.49 131.365 139.014 132.428 137.929 132.428C136.839 132.428 136.365 131.365 136.021 130.586C135.943 130.413 135.819 130.133 135.695 129.913C135.138 130.943 134.125 132.428 132.894 132.428C131.802 132.428 131.33 131.365 130.988 130.586C130.842 130.265 130.545 129.595 130.375 129.595C130.205 129.595 129.905 130.265 129.763 130.586C129.417 131.365 128.947 132.428 127.859 132.428C126.766 132.428 126.293 131.365 125.947 130.586C125.805 130.268 125.507 129.595 125.335 129.595C125.161 129.595 124.864 130.265 124.716 130.586C124.376 131.365 123.903 132.428 122.812 132.428V131.009C122.981 131.009 123.283 130.339 123.425 130.015C123.774 129.239 124.248 128.179 125.335 128.179C126.425 128.179 126.895 129.239 127.24 130.015C127.386 130.339 127.687 131.009 127.859 131.009C128.023 131.009 128.327 130.339 128.47 130.015C128.811 129.239 129.285 128.179 130.375 128.179C131.462 128.179 131.936 129.239 132.281 130.015C132.422 130.339 132.721 131.009 132.894 131.009C133.309 131.009 134.2 129.861 134.763 128.597C134.819 128.473 134.91 128.367 135.025 128.293C135.139 128.218 135.273 128.179 135.41 128.179C136.5 128.179 136.971 129.239 137.315 130.015C137.457 130.339 137.756 131.009 137.929 131.009C138.094 131.009 138.395 130.339 138.537 130.016C138.879 129.239 139.357 128.179 140.443 128.179C141.535 128.179 142.005 129.239 142.346 130.016C142.494 130.339 142.793 131.009 142.963 131.009V132.428Z" fill="#0058B0"/>
<path d="M148.086 157.6V173.458C148.086 173.98 147.879 174.481 147.51 174.851C147.142 175.221 146.641 175.43 146.119 175.431H119.196C118.673 175.43 118.172 175.222 117.803 174.852C117.434 174.482 117.227 173.981 117.227 173.458V157.6H148.086Z" fill="#0058B0"/>
<path d="M148.705 160.683H116.572C116.368 160.684 116.165 160.644 115.976 160.567C115.786 160.489 115.614 160.375 115.469 160.23C115.324 160.086 115.209 159.914 115.131 159.725C115.052 159.536 115.012 159.334 115.012 159.129C115.012 158.925 115.052 158.722 115.131 158.533C115.209 158.344 115.324 158.173 115.469 158.028C115.614 157.884 115.786 157.77 115.976 157.692C116.165 157.614 116.368 157.575 116.572 157.576H148.705C149.117 157.576 149.512 157.739 149.803 158.031C150.094 158.322 150.258 158.717 150.258 159.129C150.258 159.541 150.094 159.936 149.803 160.228C149.512 160.519 149.117 160.683 148.705 160.683V160.683Z" fill="#0058B0"/>
<path d="M134.501 159.895H116.67C116.556 159.895 116.444 159.873 116.339 159.83C116.234 159.787 116.139 159.724 116.058 159.644C115.978 159.564 115.914 159.469 115.871 159.364C115.827 159.259 115.805 159.147 115.805 159.033C115.805 158.92 115.827 158.808 115.871 158.703C115.914 158.598 115.978 158.503 116.058 158.423C116.139 158.343 116.234 158.28 116.339 158.236C116.444 158.193 116.556 158.171 116.67 158.172H134.501C134.73 158.172 134.949 158.263 135.11 158.424C135.272 158.586 135.363 158.805 135.363 159.033C135.363 159.262 135.272 159.481 135.11 159.643C134.949 159.804 134.73 159.895 134.501 159.895Z" fill="#4B96E1"/>
<path d="M148.704 165.868H116.572C116.367 165.869 116.164 165.829 115.974 165.752C115.785 165.674 115.613 165.559 115.468 165.415C115.323 165.27 115.207 165.099 115.129 164.91C115.05 164.72 115.01 164.518 115.01 164.313C115.01 164.108 115.05 163.905 115.129 163.716C115.207 163.527 115.323 163.355 115.468 163.211C115.613 163.066 115.785 162.952 115.974 162.874C116.164 162.796 116.367 162.757 116.572 162.758H148.704C149.117 162.758 149.512 162.922 149.804 163.213C150.095 163.505 150.259 163.9 150.259 164.313C150.259 164.725 150.095 165.121 149.804 165.412C149.512 165.704 149.117 165.868 148.704 165.868V165.868Z" fill="#0058B0"/>
<path d="M148.705 171.052H116.573C116.368 171.054 116.164 171.014 115.974 170.937C115.784 170.859 115.611 170.745 115.465 170.6C115.32 170.456 115.204 170.284 115.125 170.094C115.046 169.905 115.006 169.701 115.006 169.496C115.006 169.291 115.046 169.088 115.125 168.898C115.204 168.709 115.32 168.537 115.465 168.392C115.611 168.247 115.784 168.133 115.974 168.055C116.164 167.978 116.368 167.939 116.573 167.94H148.705C149.116 167.943 149.509 168.108 149.799 168.4C150.088 168.691 150.251 169.085 150.251 169.496C150.251 169.907 150.088 170.301 149.799 170.593C149.509 170.884 149.116 171.049 148.705 171.052Z" fill="#0058B0"/>
<path d="M134.502 164.839H116.67C116.557 164.84 116.444 164.818 116.339 164.775C116.234 164.732 116.139 164.668 116.058 164.588C115.978 164.508 115.914 164.413 115.871 164.308C115.827 164.203 115.805 164.091 115.805 163.977C115.805 163.864 115.827 163.751 115.871 163.647C115.914 163.542 115.978 163.447 116.058 163.366C116.139 163.286 116.234 163.223 116.339 163.18C116.444 163.137 116.557 163.115 116.67 163.115H134.502C134.73 163.115 134.95 163.206 135.111 163.368C135.273 163.529 135.364 163.749 135.364 163.977C135.364 164.206 135.273 164.425 135.111 164.587C134.95 164.748 134.73 164.839 134.502 164.839V164.839Z" fill="#4B96E1"/>
<path d="M134.501 170.08H116.67C116.441 170.08 116.221 169.989 116.059 169.827C115.898 169.665 115.807 169.446 115.807 169.217C115.807 168.988 115.898 168.769 116.059 168.607C116.221 168.445 116.441 168.354 116.67 168.354H134.501C134.73 168.354 134.949 168.445 135.111 168.607C135.273 168.769 135.364 168.988 135.364 169.217C135.364 169.446 135.273 169.665 135.111 169.827C134.949 169.989 134.73 170.08 134.501 170.08Z" fill="#4B96E1"/>
<path d="M136.656 160.695H121.43V162.277H136.656V160.695Z" fill="#1569BE"/>
<path d="M136.656 165.74H121.43V167.321H136.656V165.74Z" fill="#1569BE"/>
<path d="M136.656 170.782H121.43V172.365H136.656V170.782Z" fill="#1569BE"/>
<path d="M62.5347 303.915H66.2287V297.383H62.5347C62.4415 297.384 62.3493 297.403 62.2634 297.439C62.1775 297.475 62.0996 297.528 62.0342 297.595C61.9688 297.661 61.9171 297.74 61.882 297.826C61.847 297.913 61.8294 298.005 61.8301 298.098V303.197C61.8287 303.386 61.902 303.567 62.0341 303.702C62.1662 303.836 62.3462 303.913 62.5347 303.915Z" fill="#FF876C"/>
<path d="M62.6045 303.023H66.2293V300.248H62.6045C62.5123 300.251 62.4248 300.29 62.3608 300.356C62.2968 300.423 62.2612 300.511 62.2618 300.604V302.668C62.2608 302.713 62.2689 302.759 62.2857 302.802C62.3024 302.845 62.3274 302.884 62.3593 302.917C62.3911 302.95 62.4292 302.976 62.4713 302.994C62.5134 303.013 62.5587 303.022 62.6045 303.023V303.023Z" fill="#FFA38F"/>
<path d="M66.2287 298.911V297.383H62.5347C62.4415 297.384 62.3493 297.403 62.2634 297.439C62.1775 297.475 62.0996 297.528 62.0342 297.595C61.9688 297.661 61.9171 297.74 61.882 297.826C61.847 297.913 61.8294 298.005 61.8301 298.098V298.911H66.2287Z" fill="#E36E54"/>
<path d="M78.7109 304H182.508C182.461 303.618 182.29 303.262 182.022 302.986C181.755 302.71 181.404 302.528 181.024 302.469H78.7109V304Z" fill="#0058B0"/>
<path d="M78.7109 298.829V302.469H181.024L181.043 302.461L181.024 302.458C181.447 302.38 181.83 302.156 182.105 301.825C182.381 301.494 182.531 301.077 182.531 300.647C182.531 300.216 182.381 299.8 182.105 299.469C181.83 299.138 181.447 298.914 181.024 298.836L181.043 298.832L181.024 298.829H78.7109V298.829Z" fill="#0066CC"/>
<path d="M181.024 298.829C181.404 298.77 181.754 298.588 182.021 298.312C182.289 298.037 182.46 297.681 182.508 297.3H78.7109V298.829H181.024Z" fill="#0058B0"/>
<path d="M182.507 297.294C182.46 297.676 182.289 298.033 182.021 298.309C181.754 298.586 181.404 298.768 181.023 298.829V298.829L181.042 298.832L181.023 298.836C181.447 298.914 181.829 299.138 182.105 299.469C182.38 299.8 182.531 300.217 182.531 300.647C182.531 301.078 182.38 301.494 182.105 301.825C181.829 302.156 181.447 302.38 181.023 302.458L181.042 302.461L181.023 302.469C181.403 302.529 181.753 302.711 182.021 302.987C182.289 303.263 182.459 303.618 182.507 304L196.256 300.646L182.507 297.294Z" fill="#C5E1F9"/>
<path d="M182.507 297.294C182.46 297.676 182.289 298.033 182.021 298.309C181.754 298.586 181.404 298.768 181.023 298.829V298.829L181.042 298.832L181.023 298.836C181.87 298.951 196.256 300.646 196.256 300.646L182.507 297.294Z" fill="#9AC7F7"/>
<path d="M78.7112 297.342H66.0938V303.965H78.7112V297.342Z" fill="#D98F00"/>
<path d="M78.7102 300.41H66.0957V301.767H78.7102V300.41Z" fill="#F4DA80"/>
<path d="M192.11 299.638C192.066 299.954 192.042 300.272 192.037 300.591C192.039 300.949 192.069 301.305 192.128 301.658L196.257 300.646L192.11 299.638Z" fill="#0450CF"/>
<path d="M77.3887 303.366H75.5781V303.795H77.3887V303.366Z" fill="#F4DA80"/>
<path d="M77.3887 302.392H75.5781V302.819H77.3887V302.392Z" fill="#F4DA80"/>
<path d="M77.3887 301.417H75.5781V301.842H77.3887V301.417Z" fill="#D98F00"/>
<path d="M77.3887 300.445H75.5781V300.874H77.3887V300.445Z" fill="#D98F00"/>
<path d="M77.3887 299.47H75.5781V299.894H77.3887V299.47Z" fill="#F4DA80"/>
<path d="M77.3887 298.494H75.5781V298.918H77.3887V298.494Z" fill="#F4DA80"/>
<path d="M77.3887 297.523H75.5781V297.948H77.3887V297.523Z" fill="#F4DA80"/>
<path d="M69.6589 303.366H67.8398V303.795H69.6589V303.366Z" fill="#F4DA80"/>
<path d="M69.6589 302.392H67.8398V302.819H69.6589V302.392Z" fill="#F4DA80"/>
<path d="M69.6589 301.417H67.8398V301.842H69.6589V301.417Z" fill="#D98F00"/>
<path d="M69.6589 300.445H67.8398V300.874H69.6589V300.445Z" fill="#D98F00"/>
<path d="M69.6589 299.47H67.8398V299.894H69.6589V299.47Z" fill="#F4DA80"/>
<path d="M69.6589 298.494H67.8398V298.918H69.6589V298.494Z" fill="#F4DA80"/>
<path d="M69.6589 297.523H67.8398V297.948H69.6589V297.523Z" fill="#F4DA80"/>
</g>
<defs>
<clipPath id="clip0_1848_55409">
<rect width="290.97" height="220" fill="white" transform="translate(0 84)"/>
</clipPath>
</defs>
</svg>
