<svg width="382" height="313" viewBox="0 0 382 313" fill="none" xmlns="http://www.w3.org/2000/svg">
<g clip-path="url(#clip0_13545_299351)">
<path d="M358.769 0H22.3644C10.0148 0 0 10.7552 0 24.0275V212.815C0 226.087 10.0148 236.842 22.3644 236.842H358.769C371.119 236.842 381.133 226.087 381.133 212.815V24.0275C381.133 10.7552 371.119 0 358.769 0Z" fill="#EAF4FE"/>
<path d="M233.74 175.71H25.1123V236.843H233.74V175.71Z" fill="white"/>
<path d="M45.3813 213.833H37.5068V236.843H45.3813V213.833Z" fill="#9BC7F4"/>
<path d="M57.1938 205.733H49.3193V236.842H57.1938V205.733Z" fill="#FFBF0D"/>
<path d="M68.9939 211.19H61.1309V236.843H68.9939V211.19Z" fill="#80B4FB"/>
<path d="M80.8051 194.28H72.9307V236.843H80.8051V194.28Z" fill="#0058B0"/>
<path d="M211.284 203.181H96.749V206.831H211.284V203.181Z" fill="#9BC7F4"/>
<path d="M207.255 210.286H96.749V213.341H207.255V210.286Z" fill="#9BC7F4"/>
<path d="M166.646 217.014H96.749V221.396H166.646V217.014Z" fill="#9BC7F4"/>
<path d="M146.389 194.966H96.3037V198.788H146.389V194.966Z" fill="#9BC7F4"/>
<path d="M0.37793 22.3341C0.380962 16.4117 2.73577 10.7327 6.92496 6.54486C11.1141 2.35706 16.795 0.00303171 22.7194 0H358.792C364.716 0.00303171 370.397 2.35706 374.587 6.54486C378.776 10.7327 381.131 16.4117 381.134 22.3341H0.37793Z" fill="#9AC7F7"/>
<path d="M352.726 16.1214C353.707 16.1214 354.665 15.8308 355.48 15.2864C356.295 14.7421 356.93 13.9683 357.305 13.063C357.68 12.1578 357.778 11.1616 357.587 10.2006C357.396 9.23958 356.924 8.35682 356.231 7.66396C355.538 6.97109 354.655 6.49925 353.693 6.30809C352.732 6.11693 351.735 6.21504 350.83 6.59001C349.924 6.96499 349.15 7.59998 348.606 8.4147C348.061 9.22943 347.771 10.1873 347.771 11.1671C347.771 12.4811 348.293 13.7412 349.222 14.6703C350.151 15.5994 351.412 16.1214 352.726 16.1214Z" fill="white"/>
<path d="M335.489 16.1214C336.469 16.1214 337.427 15.8308 338.242 15.2864C339.057 14.7421 339.693 13.9683 340.068 13.063C340.443 12.1578 340.541 11.1616 340.35 10.2006C340.158 9.23958 339.686 8.35682 338.993 7.66396C338.3 6.97109 337.417 6.49925 336.456 6.30809C335.495 6.11693 334.498 6.21504 333.593 6.59001C332.687 6.96499 331.913 7.59998 331.368 8.4147C330.824 9.22943 330.533 10.1873 330.533 11.1671C330.533 12.4811 331.055 13.7412 331.985 14.6703C332.914 15.5994 334.175 16.1214 335.489 16.1214Z" fill="#0450CF"/>
<path d="M318.264 16.1214C319.244 16.1214 320.202 15.8308 321.017 15.2864C321.832 14.7421 322.467 13.9683 322.842 13.063C323.217 12.1578 323.315 11.1616 323.124 10.2006C322.933 9.23958 322.461 8.35682 321.768 7.66396C321.075 6.97109 320.192 6.49925 319.23 6.30809C318.269 6.11693 317.273 6.21504 316.367 6.59001C315.461 6.96499 314.687 7.59998 314.143 8.4147C313.598 9.22943 313.308 10.1873 313.308 11.1671C313.308 12.4811 313.83 13.7412 314.759 14.6703C315.689 15.5994 316.949 16.1214 318.264 16.1214Z" fill="#003E99"/>
<path d="M80.8393 127.815H41.9248V164.76H80.8393V127.815Z" fill="#2A66C4"/>
<path d="M50.9996 142.552C50.6727 142.539 50.3465 142.593 50.0414 142.711C49.7363 142.829 49.4586 143.009 49.2256 143.238C49.0062 143.468 48.8345 143.739 48.7206 144.036C48.6066 144.332 48.5527 144.648 48.5617 144.966C48.5514 145.29 48.6081 145.613 48.7282 145.914C48.8483 146.215 49.0293 146.488 49.2599 146.716C49.4868 146.952 49.7615 147.136 50.0655 147.256C50.3696 147.377 50.6959 147.431 51.0225 147.414C51.3467 147.426 51.6699 147.371 51.9725 147.254C52.2747 147.139 52.5481 146.96 52.7737 146.728C52.9941 146.499 53.1665 146.228 53.2805 145.931C53.3945 145.634 53.4479 145.318 53.4375 145C53.4508 144.353 53.2129 143.725 52.7737 143.25C52.5481 143.016 52.2752 142.832 51.9733 142.712C51.6714 142.592 51.3472 142.537 51.0225 142.552" fill="white"/>
<path d="M64.7923 150.549H61.3587V156.27H57.1582V136.568H64.7923C69.7139 136.568 72.1784 138.856 72.1861 143.433C72.2513 144.401 72.1162 145.372 71.7893 146.285C71.4624 147.198 70.9507 148.035 70.2861 148.742C69.5396 149.398 68.6681 149.896 67.724 150.207C66.7799 150.517 65.7827 150.634 64.7923 150.549ZM61.3587 147.117H64.7923C66.8983 147.117 67.9398 145.858 67.9398 143.398C68.0298 142.462 67.7551 141.528 67.173 140.79C66.8441 140.488 66.4535 140.262 66.0284 140.126C65.6168 139.985 65.1796 139.934 64.7465 139.977H61.3129L61.3587 147.117Z" fill="white"/>
<path d="M226.894 91.2014H31.9547C28.1747 91.2014 25.1104 94.2647 25.1104 98.0435V157.929C25.1104 161.708 28.1747 164.771 31.9547 164.771H226.894C230.674 164.771 233.738 161.708 233.738 157.929V98.0435C233.738 94.2647 230.674 91.2014 226.894 91.2014Z" fill="white"/>
<path d="M356.286 90.791H253.716C249.917 90.791 246.838 93.7948 246.838 97.5003V206.082C246.838 209.788 249.917 212.792 253.716 212.792H356.286C360.085 212.792 363.164 209.788 363.164 206.082V97.5003C363.164 93.7948 360.085 90.791 356.286 90.791Z" fill="white"/>
<path d="M352.726 106.854H259.801V109.966H352.726V106.854Z" fill="#9BC7F4"/>
<path d="M349.453 112.563H259.801V115.675H349.453V112.563Z" fill="#9BC7F4"/>
<path d="M352.726 136.556H259.801V139.68H352.726V136.556Z" fill="#9BC7F4"/>
<path d="M352.726 118.147H259.801V121.259H352.726V118.147Z" fill="#9BC7F4"/>
<path d="M357.864 35.4692H299.836V38.5814H357.864V35.4692Z" fill="#2A66C4"/>
<path d="M357.854 41.1786H301.874V44.2907H357.854V41.1786Z" fill="#2A66C4"/>
<path d="M357.853 46.7622H333.108V49.8743H357.853V46.7622Z" fill="#2A66C4"/>
<path d="M349.453 123.845H259.801V126.957H349.453V123.845Z" fill="#9BC7F4"/>
<path d="M352.726 129.542H259.801V132.666H352.726V129.542Z" fill="#9BC7F4"/>
<path d="M318.069 181.099C317.526 182.796 316.624 184.357 315.425 185.675L324.432 198.261C329.117 194.301 332.34 188.888 333.589 182.884L318.069 181.099Z" fill="#D98F00"/>
<path d="M308.844 165.183C311.426 165.729 313.766 167.084 315.524 169.052C317.282 171.019 318.366 173.496 318.619 176.122L334.058 177.769C334.058 177.586 334.058 177.414 334.058 177.243C334.046 170.334 331.45 163.679 326.78 158.586C322.111 153.492 315.705 150.328 308.821 149.714L308.844 165.183Z" fill="#0058B0"/>
<path d="M297.17 168.982C298.922 167.038 301.247 165.699 303.809 165.16V149.749C299.849 150.106 296.012 151.313 292.562 153.287C289.111 155.262 286.127 157.958 283.813 161.19L297.17 168.982Z" fill="#80B4FB"/>
<path d="M311.316 188.57C309.43 189.405 307.367 189.757 305.312 189.594C303.256 189.431 301.274 188.759 299.544 187.638C297.813 186.517 296.39 184.983 295.402 183.174C294.414 181.365 293.892 179.338 293.884 177.277C293.901 175.928 294.141 174.59 294.594 173.318L281.214 165.469C279.45 169.156 278.531 173.19 278.524 177.277C278.534 182.158 279.832 186.949 282.288 191.167C284.743 195.385 288.269 198.88 292.509 201.3C296.749 203.719 301.552 204.977 306.434 204.945C311.316 204.914 316.103 203.595 320.312 201.122L311.316 188.57Z" fill="#FFBF0D"/>
<path d="M61.4162 153.57C75.5503 153.57 87.0082 142.116 87.0082 127.986C87.0082 113.857 75.5503 102.403 61.4162 102.403C47.2822 102.403 35.8242 113.857 35.8242 127.986C35.8242 142.116 47.2822 153.57 61.4162 153.57Z" fill="#EAF4FF"/>
<path d="M57.2266 116.499H59.2639V114.977H57.2266V116.499Z" fill="#C6E0F6" stroke="#F1D041" stroke-width="0.72822" stroke-miterlimit="10"/>
<path d="M57.8926 115.721H60.5937V114.211H57.8926V115.721Z" fill="#0F69C8" stroke="#0F69C8" stroke-width="0.349924" stroke-miterlimit="10"/>
<path d="M66.2566 139.668V121.453L47.7607 125.034V139.703" fill="#B0CCF2"/>
<path d="M69.8173 139.668V114.966L60.5693 117.048V139.668" fill="white"/>
<path d="M69.8177 127.986L73.114 128.856V139.668L69.2568 139.588L69.8177 127.986Z" fill="#C6E0F6"/>
<path d="M69.8173 139.668V114.966L60.5693 117.048V139.668" fill="#3865B1"/>
<path d="M75.2992 141.11H45.9531" stroke="#0F69C8" stroke-width="0.349924" stroke-miterlimit="10"/>
<path d="M45.9531 141.11V139.668H75.2191V141.11" fill="#155CA9"/>
<path d="M60.5918 117.048V113.353" stroke="#155CA9" stroke-width="0.5107" stroke-miterlimit="10"/>
<path d="M67.1612 118.238H62.377V120.71H67.1612V118.238Z" fill="#B0CCF2"/>
<path d="M67.1612 121.991H62.377V124.451H67.1612V121.991Z" fill="#B0CCF2"/>
<path d="M67.1612 125.721H62.377V128.147H67.1612V125.721Z" fill="#B0CCF2"/>
<path d="M67.1612 129.474H62.377V131.934H67.1612V129.474Z" fill="#B0CCF2"/>
<path d="M69.8168 118.238H68.4434V120.71H69.8168V118.238Z" fill="#B0CCF2"/>
<path d="M69.8168 121.991H68.4434V124.451H69.8168V121.991Z" fill="#B0CCF2"/>
<path d="M69.8168 125.721H68.4434V128.147H69.8168V125.721Z" fill="#B0CCF2"/>
<path d="M69.8168 129.474H68.4434V131.934H69.8168V129.474Z" fill="#B0CCF2"/>
<path d="M68.0663 137.495H62.7441V139.668H68.0663V137.495Z" fill="#B0CCF2"/>
<path d="M51 133.17H53.0373V131.659H51V133.17Z" fill="#C6E0F6" stroke="#F1D041" stroke-width="0.72822" stroke-miterlimit="10"/>
<path d="M51.7227 132.414H54.4009V130.893H51.7227V132.414Z" fill="#0F69C8" stroke="#0F69C8" stroke-width="0.349924" stroke-miterlimit="10"/>
<path d="M54.4004 139.668V130.321" stroke="#155CA9" stroke-width="0.5107" stroke-miterlimit="10"/>
<path d="M52.8906 129.291H54.9394V127.78H52.8906V129.291Z" fill="#C6E0F6" stroke="#F1D041" stroke-width="0.72822" stroke-miterlimit="10"/>
<path d="M53.5879 128.57H56.289V127.002H53.5879V128.57Z" fill="#0F69C8" stroke="#0F69C8" stroke-width="0.349924" stroke-miterlimit="10"/>
<path d="M56.29 139.668V126.465" stroke="#155CA9" stroke-width="0.5107" stroke-miterlimit="10"/>
<path d="M49.3193 136.888H51.3452V135.366H49.3193V136.888Z" fill="#C6E0F6" stroke="#F1D041" stroke-width="0.72822" stroke-miterlimit="10"/>
<path d="M49.9932 136.156H52.6485V134.634H49.9932V136.156Z" fill="#0F69C8" stroke="#0F69C8" stroke-width="0.349924" stroke-miterlimit="10"/>
<path d="M52.6494 139.668V134.016" stroke="#155CA9" stroke-width="0.5107" stroke-miterlimit="10"/>
<path d="M60.4198 34.7483H25.4883V67.9291H60.4198V34.7483Z" fill="#2A66C4"/>
<path d="M33.6267 47.9749C33.3337 47.9691 33.0423 48.0196 32.7683 48.1237C32.497 48.2263 32.251 48.3863 32.0472 48.5928C31.8474 48.798 31.6915 49.0419 31.5891 49.3095C31.4868 49.577 31.4402 49.8627 31.4521 50.1489C31.4399 50.4368 31.4864 50.7242 31.5887 50.9937C31.691 51.2631 31.847 51.509 32.0472 51.7164C32.2548 51.9264 32.5044 52.0901 32.7798 52.1969C33.0512 52.31 33.3445 52.3608 33.6382 52.3457C33.9318 52.3596 34.2248 52.3089 34.4966 52.1969C34.763 52.0913 35.0047 51.9316 35.2062 51.7278C35.402 51.522 35.5553 51.2797 35.6575 51.0147C35.7596 50.7496 35.8085 50.4671 35.8014 50.1832C35.8114 49.6003 35.5985 49.0355 35.2062 48.6042C35.002 48.4008 34.7613 48.2378 34.4966 48.1237C34.2226 48.0196 33.9312 47.9691 33.6382 47.9749" fill="white"/>
<path d="M46.0114 55.1601H42.944V60.3203H39.167V42.6086H46.0343C50.4598 42.6086 52.6726 44.6567 52.6726 48.7528C52.7313 49.6216 52.6113 50.4932 52.3199 51.3138C52.0286 52.1344 51.5721 52.8866 50.9787 53.524C50.3036 54.1171 49.5156 54.5677 48.6621 54.8488C47.8085 55.13 46.9069 55.2359 46.0114 55.1601ZM42.944 52.0823H45.9885C47.877 52.0823 48.8155 50.9382 48.8155 48.7528C48.881 47.931 48.636 47.1145 48.1288 46.4645C47.8449 46.1969 47.507 45.9931 47.1379 45.8668C46.7687 45.7405 46.3768 45.6946 45.9885 45.7322H42.944V52.0823Z" fill="white"/>
<path d="M247.829 191.339L242.415 190.195L239.348 204.417L244.773 205.561L247.829 191.339Z" fill="#67ACF5"/>
<path d="M219.456 213.696L208.663 203.959L212.394 199.852L223.176 209.6L219.456 213.696Z" fill="#67ACF5"/>
<path d="M215.873 230.321L202.035 234.794L203.741 240.058L217.578 235.595L215.873 230.321Z" fill="#67ACF5"/>
<path d="M235.592 248.17L230.179 247.026L227.111 261.213L232.536 262.357L235.592 248.17Z" fill="#67ACF5"/>
<path d="M271.256 212.495L257.407 216.945L259.113 222.231L272.95 217.769L271.256 212.495Z" fill="#67ACF5"/>
<path d="M312.85 267.369L275.08 245.401L237.31 223.433L241.762 266.911L246.214 310.39L266.507 285.653L283.538 312.049L298.989 302.06L281.947 275.687L312.85 267.369Z" fill="#D68D21"/>
<path d="M275.022 245.401L237.252 223.433L237.389 224.886L290.714 307.438L299.034 302.037L281.992 275.664L312.895 267.369L275.022 245.401Z" fill="#FDCA2F"/>
<path d="M233.738 35.4692H69.1406V38.9475H233.738V35.4692Z" fill="#9AC7F7"/>
<path d="M192.717 40.8583H69.1406V44.3365H192.717V40.8583Z" fill="#9AC7F7"/>
<path d="M135.73 47.1399H69.1406V50.6182H135.73V47.1399Z" fill="#9AC7F7"/>
</g>
<defs>
<clipPath id="clip0_13545_299351">
<rect width="381.133" height="312.094" fill="white"/>
</clipPath>
</defs>
</svg>
