<svg width="48" height="49" viewBox="0 0 48 49" fill="none" xmlns="http://www.w3.org/2000/svg">
<g clip-path="url(#clip0_522:29338)">
<circle cx="24" cy="24.5" r="24" fill="#FFBF00"/>
<path d="M9.46621 28.5V21.65H10.5762V28.5H9.46621ZM15.2518 28.61C14.2518 28.61 13.5718 28.3333 13.2118 27.78C12.8584 27.2267 12.6818 26.3167 12.6818 25.05C12.6818 23.7833 12.8618 22.8833 13.2218 22.35C13.5818 21.81 14.2584 21.54 15.2518 21.54C15.8451 21.54 16.4984 21.6233 17.2118 21.79L17.1718 22.69C16.5718 22.5833 15.9718 22.53 15.3718 22.53C14.7718 22.53 14.3651 22.71 14.1518 23.07C13.9384 23.4233 13.8318 24.0933 13.8318 25.08C13.8318 26.06 13.9351 26.73 14.1418 27.09C14.3484 27.4433 14.7518 27.62 15.3518 27.62C15.9518 27.62 16.5584 27.57 17.1718 27.47L17.2018 28.39C16.5151 28.5367 15.8651 28.61 15.2518 28.61ZM20.3031 27.05C20.5297 27.4433 20.9631 27.64 21.6031 27.64C22.2431 27.64 22.6731 27.4467 22.8931 27.06C23.1197 26.6733 23.2331 26.0267 23.2331 25.12C23.2331 24.2067 23.1164 23.5433 22.8831 23.13C22.6564 22.7167 22.2297 22.51 21.6031 22.51C20.9764 22.51 20.5464 22.7167 20.3131 23.13C20.0797 23.5433 19.9631 24.2033 19.9631 25.11C19.9631 26.01 20.0764 26.6567 20.3031 27.05ZM23.7631 27.77C23.3564 28.33 22.6364 28.61 21.6031 28.61C20.5697 28.61 19.8464 28.33 19.4331 27.77C19.0197 27.2033 18.8131 26.3167 18.8131 25.11C18.8131 23.9033 19.0197 23.0067 19.4331 22.42C19.8531 21.8333 20.5764 21.54 21.6031 21.54C22.6297 21.54 23.3497 21.8333 23.7631 22.42C24.1764 23 24.3831 23.8967 24.3831 25.11C24.3831 26.3233 24.1764 27.21 23.7631 27.77ZM26.4756 28.5V21.65H28.4156L30.4956 27.52H30.6456V21.65H31.7556V28.5H29.8556L27.7256 22.62H27.5856V28.5H26.4756ZM33.5411 28.5L35.2311 21.65H37.4411L39.1411 28.5H38.0211L37.6511 27.03H35.0211L34.6511 28.5H33.5411ZM36.0911 22.58L35.2411 26.05H37.4311L36.5911 22.58H36.0911Z" fill="#33485C"/>
</g>
<defs>
<clipPath id="clip0_522:29338">
<rect width="48" height="48" fill="white" transform="translate(0 0.5)"/>
</clipPath>
</defs>
</svg>
