<svg width="480" height="286" viewBox="0 0 480 286" fill="none" xmlns="http://www.w3.org/2000/svg">
<g clip-path="url(#clip0_14263_310967)">
<path d="M369.338 254.304V251.511C370.409 251.511 371.469 251.3 372.458 250.89C373.447 250.479 374.346 249.878 375.102 249.12C376.631 247.591 377.491 245.518 377.493 243.356V238.519H380.286V243.356C380.281 246.258 379.129 249.041 377.08 251.097C375.024 253.146 372.241 254.299 369.338 254.304Z" fill="#0058B0"/>
<path d="M390.195 254.918H387.402V235.134C387.404 234.665 387.313 234.201 387.135 233.768C386.956 233.335 386.694 232.941 386.363 232.609C386.031 232.275 385.636 232.01 385.2 231.83C384.765 231.65 384.298 231.558 383.827 231.559C383.356 231.557 382.889 231.649 382.454 231.829C382.018 232.01 381.623 232.275 381.291 232.609C380.959 232.94 380.695 233.334 380.514 233.767C380.334 234.2 380.241 234.665 380.241 235.134V240.965H377.448V235.134C377.457 233.457 378.128 231.851 379.314 230.665C380.502 229.483 382.106 228.814 383.782 228.8C385.459 228.809 387.065 229.479 388.251 230.665C389.437 231.851 390.107 233.457 390.117 235.134L390.195 254.918Z" fill="#0058B0"/>
<path d="M408.146 248.606H405.365V223.839C405.363 222.557 404.853 221.327 403.946 220.421C403.034 219.515 401.802 219.005 400.516 219.002C399.234 219.007 398.006 219.517 397.098 220.421C396.65 220.87 396.295 221.403 396.054 221.99C395.812 222.577 395.689 223.205 395.69 223.839V248.617H392.897V223.839C392.898 222.839 393.095 221.849 393.478 220.925C393.862 220.001 394.424 219.161 395.132 218.455C396.559 217.026 398.496 216.222 400.516 216.221C401.518 216.22 402.51 216.418 403.436 216.801C404.362 217.185 405.203 217.746 405.912 218.455C406.62 219.161 407.182 220.001 407.565 220.925C407.949 221.849 408.146 222.839 408.146 223.839V248.606Z" fill="#0058B0"/>
<path d="M391.601 261.71C390.503 261.706 389.451 261.268 388.674 260.493C388.288 260.109 387.982 259.653 387.773 259.151C387.564 258.648 387.456 258.11 387.456 257.566V246.651H390.249V257.566C390.25 257.742 390.284 257.916 390.349 258.079C390.416 258.243 390.514 258.391 390.64 258.515C390.766 258.646 390.919 258.748 391.087 258.817C391.25 258.884 391.424 258.919 391.601 258.917C391.777 258.919 391.952 258.884 392.114 258.817C392.283 258.748 392.435 258.646 392.561 258.515C392.687 258.391 392.786 258.243 392.852 258.079C392.917 257.916 392.951 257.742 392.952 257.566V246.651H395.745V257.566C395.745 258.11 395.637 258.648 395.428 259.151C395.219 259.653 394.913 260.109 394.527 260.493C393.75 261.267 392.698 261.705 391.601 261.71Z" fill="#0058B0"/>
<path d="M369.538 254.304C366.638 254.301 363.858 253.148 361.807 251.097C360.789 250.082 359.98 248.875 359.428 247.547C358.876 246.219 358.591 244.794 358.59 243.356V233.302H361.383V243.356C361.385 245.518 362.245 247.591 363.773 249.12C365.303 250.649 367.376 251.509 369.538 251.511V254.304Z" fill="#0058B0"/>
<path d="M361.383 234.307H358.601V224.253C358.592 222.092 357.733 220.022 356.211 218.488C355.452 217.73 354.552 217.129 353.561 216.719C352.57 216.308 351.508 216.098 350.435 216.098H347.676V213.305H350.435C353.338 213.31 356.121 214.462 358.177 216.511C359.194 217.527 360.001 218.734 360.551 220.063C361.101 221.391 361.384 222.815 361.383 224.253V234.307Z" fill="#0058B0"/>
<path d="M347.676 216.165H299.785C298.347 216.165 296.923 215.883 295.595 215.332C294.266 214.782 293.059 213.976 292.043 212.958C291.026 211.942 290.219 210.735 289.669 209.407C289.119 208.078 288.836 206.655 288.837 205.217V167.983H291.619V205.239C291.623 207.404 292.482 209.48 294.009 211.015C295.544 212.542 297.62 213.401 299.785 213.405H347.676V216.165Z" fill="#0058B0"/>
<path d="M416.178 269.128V266.346C418.338 266.337 420.409 265.478 421.942 263.956C423.472 262.422 424.335 260.347 424.344 258.18V189.912H427.126V258.18C427.126 259.618 426.844 261.042 426.293 262.37C425.743 263.699 424.936 264.905 423.919 265.922C422.903 266.939 421.696 267.745 420.368 268.296C419.039 268.846 417.616 269.129 416.178 269.128Z" fill="#0058B0"/>
<path d="M416.378 269.128C414.941 269.129 413.517 268.846 412.188 268.296C410.86 267.746 409.653 266.939 408.637 265.922C406.588 263.866 405.435 261.083 405.431 258.18V234.207H408.223V258.18C408.223 259.253 408.434 260.315 408.844 261.306C409.255 262.297 409.856 263.197 410.614 263.956C412.149 265.476 414.218 266.334 416.378 266.346V269.128Z" fill="#0058B0"/>
<path d="M122.329 153.114H51.7043C47.342 153.114 43.1583 151.382 40.0727 148.298C36.987 145.215 35.252 141.032 35.249 136.67V101.391H40.0192V136.703C40.0251 139.8 41.2584 142.767 43.4489 144.955C45.6393 147.144 48.6081 148.374 51.7043 148.377H122.341L122.329 153.114Z" fill="#C5E1F9"/>
<path d="M376.006 39.5129V29.928L370.901 28.8109C370.629 27.4152 370.255 26.0411 369.783 24.6998L373.537 21.3484L368.7 13.037L363.718 14.6344C362.76 13.5739 361.729 12.581 360.634 11.6628L362.187 6.88159L353.797 2.08906L350.301 5.92087C348.933 5.4816 347.537 5.13445 346.123 4.88188L345.006 -0.0223389H335.309L334.192 5.02711C332.786 5.30415 331.401 5.6774 330.047 6.14425L326.696 2.42425L318.306 7.21665L319.915 12.1432C318.841 13.0903 317.837 14.1132 316.91 15.2042L312.084 13.6513L307.235 21.9629L311.112 25.4259C310.668 26.7781 310.317 28.1591 310.062 29.5593L305.102 30.6094V40.2057L310.207 41.3228C310.48 42.7145 310.854 44.0846 311.324 45.4226L307.571 48.774L312.408 57.0742L317.39 55.488C318.348 56.5485 319.378 57.5413 320.473 58.4594L318.92 63.2296L327.31 68.0333L330.807 64.1905C332.174 64.6347 333.57 64.9855 334.985 65.2405L336.102 70.1446H345.788L346.905 65.084C348.315 64.811 349.703 64.4377 351.06 63.9668L354.412 67.6758L362.801 62.8832L361.193 57.9568C362.264 57.0107 363.268 55.9917 364.198 54.907L369.024 56.4486L373.872 48.1483L369.996 44.6742C370.445 43.3227 370.799 41.9413 371.057 40.5406L376.006 39.5129ZM356.825 35.1003C356.819 38.2865 355.862 41.3985 354.077 44.0374C352.28 46.6951 349.738 48.7628 346.771 49.9806C343.791 51.1959 340.522 51.5141 337.364 50.8964C334.207 50.2588 331.309 48.7045 329.031 46.4279C326.758 44.1825 325.203 41.3134 324.562 38.1836C323.937 35.0549 324.26 31.8108 325.489 28.8667C326.733 25.9188 328.82 23.4042 331.488 21.6388C334.174 19.8684 337.32 18.9245 340.537 18.9242C342.671 18.9281 344.784 19.3455 346.759 20.1531C348.732 20.9625 350.527 22.1504 352.043 23.6497C353.552 25.1391 354.752 26.912 355.574 28.8667C356.39 30.8202 356.811 32.916 356.814 35.0332L356.825 35.1003Z" fill="#7EB3FF"/>
<path d="M362.959 35.3349C362.956 39.5886 361.68 43.7438 359.294 47.2658C356.901 50.8074 353.511 53.5599 349.553 55.1752C345.584 56.7965 341.226 57.22 337.019 56.393C332.796 55.581 328.909 53.5362 325.848 50.5169C322.823 47.5181 320.758 43.6879 319.916 39.513C319.075 35.3498 319.503 31.0302 321.144 27.1129C322.799 23.1795 325.583 19.8247 329.143 17.472C332.724 15.1104 336.919 13.8519 341.208 13.8525C344.056 13.8531 346.875 14.4109 349.508 15.4947C352.137 16.5659 354.529 18.1452 356.546 20.142C358.557 22.1337 360.156 24.5025 361.249 27.1129C362.342 29.7163 362.904 32.5116 362.903 35.3349H362.959Z" fill="#FFCC00"/>
<path d="M362.266 35.3349C362.262 39.4572 361.025 43.4841 358.714 46.8974C356.395 50.3322 353.11 53.0028 349.274 54.5719C345.426 56.1488 341.199 56.5606 337.12 55.7561C333.044 54.9591 329.294 52.9772 326.339 50.0586C323.402 47.1545 321.399 43.4396 320.586 39.39C319.77 35.3503 320.186 31.1588 321.781 27.3586C323.386 23.5479 326.084 20.2981 329.534 18.0194C333.002 15.7318 337.065 14.5121 341.219 14.5116C346.788 14.5143 352.132 16.7048 356.1 20.6111C358.051 22.535 359.601 24.8272 360.659 27.3546C361.718 29.8821 362.264 32.5947 362.266 35.3349Z" fill="#D98F00"/>
<path d="M357.797 35.3238C357.796 38.5729 356.823 41.7474 355.004 44.4394C353.172 47.1394 350.584 49.2383 347.564 50.4721C344.535 51.7223 341.204 52.0486 337.99 51.4103C334.783 50.7945 331.832 49.2391 329.511 46.9418C327.194 44.6621 325.614 41.7395 324.975 38.5521C324.337 35.3714 324.664 32.0727 325.914 29.079C327.175 26.0733 329.303 23.5106 332.025 21.717C334.758 19.9183 337.958 18.9591 341.23 18.9578C345.612 18.9564 349.819 20.6824 352.937 23.7615C354.473 25.275 355.694 27.0782 356.528 29.0668C357.362 31.0553 357.793 33.1897 357.797 35.3461V35.3238Z" fill="#FFCC00"/>
<path d="M332.986 32.8102H334.818C334.931 31.832 335.199 30.8779 335.612 29.9838C336.002 29.1553 336.531 28.3996 337.176 27.7496C337.811 27.1008 338.571 26.5877 339.41 26.2415C340.341 25.8738 341.335 25.6916 342.337 25.7053C344.09 25.6163 345.814 26.1817 347.174 27.2917C348.455 28.4816 349.221 30.1251 349.308 31.8717H345.956C345.892 30.9118 345.498 30.0037 344.839 29.3024C344.157 28.6917 343.263 28.3712 342.348 28.4088C341.815 28.377 341.283 28.4727 340.795 28.6881C340.303 28.8916 339.866 29.2094 339.522 29.6152C338.808 30.56 338.374 31.6866 338.27 32.8661H343.722L343.409 34.5195H338.181V36.3067H343.063L342.772 37.9603H338.304C338.391 39.1185 338.832 40.2218 339.566 41.1216C339.93 41.5023 340.372 41.7997 340.862 41.993C341.352 42.1854 341.878 42.2692 342.404 42.2387C344.638 42.2387 345.923 40.969 346.258 38.4294H349.542C349.407 40.2624 348.614 41.9847 347.308 43.2779C345.937 44.4744 344.154 45.091 342.337 44.998C341.329 45.009 340.329 44.8309 339.387 44.473C338.556 44.1328 337.797 43.6359 337.153 43.0095C336.503 42.3686 335.98 41.6105 335.612 40.7752C335.197 39.8786 334.933 38.9202 334.829 37.9379H332.998V36.2846H334.74V34.4971H332.998L332.986 32.8102Z" fill="#D98F00"/>
<path d="M331.522 59.7443V179.277C331.522 182.282 328.349 184.718 324.439 184.718H115.123C111.201 184.718 108.04 182.282 108.04 179.277V59.7443H331.522Z" fill="#EAF4FF"/>
<path d="M157.485 81.8969H127.322V110.607H157.485V81.8969Z" fill="#2A66C4"/>
<path d="M134.37 93.3362C134.113 93.3242 133.857 93.3701 133.621 93.4704C133.386 93.5585 133.173 93.6955 132.996 93.8724C132.824 94.0518 132.69 94.264 132.601 94.4962C132.513 94.7284 132.473 94.9762 132.482 95.2244C132.476 95.4752 132.521 95.7245 132.615 95.957C132.709 96.1895 132.85 96.4003 133.029 96.5761C133.2 96.7583 133.41 96.8994 133.643 96.9893C133.882 97.0831 134.136 97.1288 134.392 97.1235C134.645 97.1366 134.897 97.0906 135.129 96.9893C135.362 96.9037 135.572 96.7663 135.744 96.5873C136.088 96.2266 136.276 95.7449 136.269 95.2465C136.276 94.7414 136.088 94.253 135.744 93.8836C135.573 93.7015 135.363 93.5603 135.129 93.4704C134.897 93.3703 134.645 93.3243 134.392 93.3362" fill="white"/>
<path d="M145.03 99.5589H142.371V104.027H139.098V88.6669H145.03C148.85 88.6669 150.772 90.4431 150.772 93.9844C150.818 94.7373 150.711 95.4917 150.457 96.202C150.204 96.9124 149.809 97.564 149.297 98.1178C148.718 98.6305 148.042 99.0223 147.309 99.2698C146.576 99.5173 145.801 99.6155 145.03 99.5589ZM142.371 96.9003H145.007C146.638 96.9003 147.443 95.9171 147.443 94.0068C147.519 93.2811 147.307 92.5544 146.851 91.9847C146.607 91.7557 146.318 91.5806 146.002 91.4709C145.683 91.3581 145.344 91.3161 145.007 91.3479H142.371V96.9003Z" fill="white"/>
<path d="M312.284 119.835H127.265V125.99H312.284V119.835Z" fill="#9AC7F7"/>
<path d="M312.284 131.106H127.265V137.262H312.284V131.106Z" fill="#9AC7F7"/>
<path d="M312.284 142.378H127.265V148.534H312.284V142.378Z" fill="#9AC7F7"/>
<path d="M312.285 82.7794H163.383V88.9348H312.285V82.7794Z" fill="#9AC7F7"/>
<path d="M312.285 94.0513H163.383V100.207H312.285V94.0513Z" fill="#9AC7F7"/>
<path d="M312.285 105.312H163.383V111.467H312.285V105.312Z" fill="#9AC7F7"/>
<path d="M331.5 60C331.498 56.5527 330.113 53.2472 327.648 50.8096C325.184 48.372 321.842 47.0018 318.356 47L121.144 47C117.658 47.0018 114.316 48.372 111.852 50.8096C109.387 53.2472 108.002 56.5527 108 60L331.5 60Z" fill="#9AC7F7"/>
<path d="M313.44 57.1378C313.948 57.1378 314.445 56.9872 314.868 56.7049C315.29 56.4226 315.62 56.0214 315.814 55.552C316.009 55.0826 316.059 54.5661 315.96 54.0678C315.861 53.5694 315.616 53.1117 315.257 52.7524C314.898 52.3932 314.44 52.1485 313.941 52.0494C313.443 51.9502 312.926 52.0011 312.456 52.1955C311.987 52.39 311.586 52.7192 311.303 53.1417C311.021 53.5642 310.87 54.0608 310.87 54.5689C310.87 55.2502 311.141 55.9037 311.623 56.3854C312.105 56.8672 312.758 57.1378 313.44 57.1378Z" fill="white"/>
<path d="M304.501 57.1378C305.01 57.1378 305.506 56.9872 305.929 56.7049C306.352 56.4226 306.681 56.0214 306.876 55.552C307.07 55.0826 307.121 54.5661 307.022 54.0678C306.923 53.5694 306.678 53.1117 306.319 52.7524C305.959 52.3932 305.501 52.1485 305.003 52.0494C304.504 51.9502 303.988 52.0011 303.518 52.1955C303.048 52.39 302.647 52.7192 302.365 53.1417C302.082 53.5642 301.932 54.0608 301.932 54.5689C301.932 55.2502 302.202 55.9037 302.684 56.3854C303.166 56.8672 303.82 57.1378 304.501 57.1378Z" fill="#0450CF"/>
<path d="M295.57 57.1378C296.078 57.1378 296.575 56.9872 296.997 56.7049C297.42 56.4226 297.749 56.0214 297.944 55.552C298.138 55.0826 298.189 54.5661 298.09 54.0678C297.991 53.5694 297.746 53.1117 297.387 52.7524C297.027 52.3932 296.57 52.1485 296.071 52.0494C295.573 51.9502 295.056 52.0011 294.586 52.1955C294.117 52.39 293.715 52.7192 293.433 53.1417C293.151 53.5642 293 54.0608 293 54.5689C293 55.2502 293.271 55.9037 293.753 56.3854C294.235 56.8672 294.888 57.1378 295.57 57.1378Z" fill="#003E99"/>
<path d="M250.553 161.995H191.099C190.235 161.995 189.535 162.695 189.535 163.559V173.356C189.535 174.22 190.235 174.92 191.099 174.92H250.553C251.417 174.92 252.117 174.22 252.117 173.356V163.559C252.117 162.695 251.417 161.995 250.553 161.995Z" fill="#2A66C4"/>
<path d="M224.647 165.123L219.452 163.626L215.52 177.278L220.714 178.774L224.647 165.123Z" fill="#C5E0F7"/>
<path d="M195.523 185.008L185.67 174.798L189.569 171.055L199.411 181.266L195.523 185.008Z" fill="#C5E0F7"/>
<path d="M190.92 200.961L177.157 204.39L178.464 209.641L192.227 206.211L190.92 200.961Z" fill="#C5E0F7"/>
<path d="M208.928 219.662L203.734 218.165L199.812 231.783L205.007 233.279L208.928 219.662Z" fill="#C5E0F7"/>
<path d="M245.995 187.298L232.221 190.706L233.528 195.967L247.302 192.549L245.995 187.298Z" fill="#C5E0F7"/>
<path d="M282.883 243.523L247.514 219.605L212.157 195.677L213.587 238.351L215.017 281.014L236.432 258.281L251.246 285.092L267.064 276.322L252.229 249.511L282.883 243.523Z" fill="#D68D21"/>
<path d="M247.514 219.605L212.157 195.677V197.095L258.563 281.07L267.031 276.367L252.195 249.556L282.849 243.534L247.514 219.605Z" fill="#FDCA2F"/>
<path d="M181.883 140.948C190.15 133.153 195.354 122.655 196.551 111.356C197.676 100.116 194.692 88.8491 188.151 79.6401C181.408 70.1974 171.647 63.3367 160.479 60.191C149.15 56.9408 137.065 57.514 126.094 61.8219C115.326 66.005 106.328 73.7686 100.612 83.807C95.0526 93.6353 93.2654 105.153 95.5851 116.204C97.9837 127.354 104.257 137.293 113.292 144.255C122.571 151.415 133.968 155.286 145.688 155.259C152.39 155.273 159.034 154.023 165.272 151.572C171.431 149.147 177.064 145.555 181.861 140.993L181.883 140.948ZM116.352 134.592C109.622 128.271 105.375 119.752 104.377 110.574C103.451 101.441 105.864 92.2815 111.169 84.7902C116.631 77.1015 124.558 71.512 133.634 68.9494C142.832 66.2931 152.65 66.7485 161.563 70.2451C170.327 73.6367 177.651 79.9505 182.297 88.1192C186.814 96.0954 188.275 105.442 186.408 114.417C184.458 123.476 179.365 131.553 172.03 137.217C164.486 143.039 155.218 146.183 145.688 146.154C140.252 146.163 134.863 145.147 129.803 143.16C124.803 141.208 120.231 138.301 116.341 134.603L116.352 134.592Z" fill="#0058B0"/>
<path opacity="0.2" d="M153.251 73.8647C150.434 71.0634 147.093 68.8429 143.42 67.3293C139.738 65.832 135.798 65.0729 131.824 65.0951C127.852 65.098 123.919 65.8839 120.251 67.4076C116.583 68.9352 113.251 71.167 110.442 73.9765C107.641 76.7871 105.417 80.1191 103.896 83.7847C102.399 87.4545 101.639 91.3836 101.662 95.3471C101.667 99.3105 102.46 103.233 103.997 106.887C105.524 110.55 107.765 113.872 110.587 116.662C113.402 119.467 116.743 121.687 120.418 123.197C124.101 124.689 128.04 125.448 132.014 125.431C135.986 125.418 139.918 124.629 143.588 123.108C147.241 121.598 150.562 119.385 153.362 116.595C156.174 113.792 158.399 110.458 159.909 106.786C161.406 103.117 162.165 99.1878 162.143 95.2243C162.138 91.2609 161.344 87.338 159.808 83.6843C158.28 80.0216 156.04 76.699 153.217 73.9094L153.251 73.8647Z" fill="white"/>
<path d="M101.707 106.541C101.738 101.002 102.897 95.5274 105.114 90.4511C107.33 85.3749 110.557 80.8035 114.598 77.0153C123.018 69.1158 134.143 64.7388 145.688 64.7828C157.232 64.7335 168.357 69.1067 176.778 77.0041C180.823 80.7904 184.054 85.3611 186.275 90.4375C188.495 95.5138 189.658 100.989 189.692 106.53H193.982C193.971 106.501 193.971 106.469 193.982 106.44C193.944 100.358 192.666 94.348 190.224 88.7773C187.783 83.2067 184.23 78.193 179.783 74.0435C170.538 65.3713 158.319 60.5736 145.643 60.638C132.968 60.5978 120.759 65.4151 111.526 74.0995C107.096 78.2566 103.559 83.2736 101.133 88.8439C98.7074 94.4142 97.4429 100.421 97.417 106.496H101.707V106.541Z" fill="#003C77"/>
<path d="M107.862 151.226L116.23 143.484C116.829 142.926 117.311 142.253 117.648 141.507C117.973 140.763 118.14 139.961 118.14 139.15C116.975 138.23 115.856 137.254 114.789 136.223C113.661 135.164 112.591 134.045 111.582 132.872C110.737 132.879 109.9 133.041 109.114 133.352C108.339 133.663 107.63 134.118 107.025 134.692L98.6237 142.456C95.9873 144.959 96.8809 147.908 99.5397 150.366C102.143 152.868 105.326 153.717 107.862 151.226Z" fill="#0058B0"/>
<path d="M96.3879 139.407L46.6309 186.684L61.4105 200.726L111.168 153.449L96.3879 139.407Z" fill="#0058B0"/>
<path d="M103.862 146.523L54.0938 193.8L60.2044 199.609L109.961 152.321L103.862 146.523Z" fill="#003C77"/>
<path d="M57.8358 204.089C55.8978 204.078 53.9796 203.699 52.1832 202.972C50.4044 202.273 48.7772 201.237 47.3907 199.922C46.029 198.636 44.9388 197.09 44.1845 195.375C43.4492 193.679 43.069 191.85 43.0674 190.002L46.6086 186.65C51.5314 191.342 56.4581 196.023 61.3884 200.693C60.2042 201.854 59.0312 202.972 57.8358 204.089Z" fill="#C5E1F9"/>
<path d="M56.5177 202.737L49.9824 196.537L53.0433 193.644L59.5675 199.844L56.5177 202.737Z" fill="#EAF4FE"/>
<path d="M427.395 192.817C456.44 192.817 480.001 169.636 480.001 141.038C480.001 112.439 456.451 89.2477 427.395 89.2477C398.338 89.2477 374.789 112.428 374.789 141.038C374.789 169.647 398.338 192.817 427.395 192.817Z" fill="#9AC7F7"/>
<path d="M435.427 192.225C432.768 192.62 430.083 192.818 427.395 192.817C423.396 192.818 419.41 192.376 415.509 191.499L420.1 152.165L425.429 127.476L430.758 152.165L435.427 192.225Z" fill="#D98F00"/>
<path d="M432.42 192.56C430.767 192.705 429.069 192.783 427.393 192.783C424.399 192.788 421.409 192.542 418.456 192.046L421.696 152.131L425.416 127.442L429.125 152.131L432.42 192.56Z" fill="#FFCC00"/>
<path d="M427.507 192.817H427.396C426.033 192.817 424.681 192.817 423.352 192.672L424.323 152.165L425.441 127.476L426.558 152.165L427.507 192.817Z" fill="#D98F00"/>
<path d="M457.502 183.511C457.318 183.128 457.113 182.755 456.887 182.394C455.797 180.654 454.283 179.22 452.486 178.227C450.692 177.23 448.673 176.708 446.621 176.708C444.572 176.709 442.558 177.232 440.767 178.227C438.968 179.217 437.453 180.652 436.366 182.394C435.278 184.13 434.648 186.113 434.534 188.158C434.465 189.543 434.631 190.929 435.025 192.258C443.092 191.115 450.785 188.121 457.502 183.511Z" fill="#FFCC00"/>
<path d="M449.937 187.846C442.876 191.13 435.181 192.827 427.394 192.817C419.792 192.83 412.275 191.211 405.353 188.069C407.053 186.866 408.999 186.053 411.05 185.69C411.531 182.752 412.996 180.065 415.206 178.071C417.415 176.079 420.235 174.897 423.204 174.719C426.173 174.538 429.115 175.369 431.549 177.076C433.98 178.791 435.757 181.28 436.588 184.137C438.282 183.318 440.164 182.967 442.039 183.12C443.911 183.278 445.706 183.938 447.234 185.03C448.304 185.791 449.221 186.746 449.937 187.846Z" fill="#D98F00"/>
<path d="M414.011 191.13L410.66 182.83C409.882 182.722 409.158 182.37 408.593 181.824C407.845 181.232 407.163 180.707 406.437 181.143C406.413 178.071 405.309 175.105 403.321 172.764C401.339 170.413 398.595 168.832 395.568 168.296C392.541 167.773 389.426 168.326 386.765 169.86C386.042 170.278 385.362 170.764 384.731 171.312C391.916 181.095 402.259 188.096 414.011 191.13Z" fill="#FFCC00"/>
<path d="M457.746 183.332C457.891 182.583 457.817 181.807 457.534 181.098C457.335 180.595 457.039 180.135 456.663 179.746C456.29 179.362 455.846 179.055 455.356 178.841C454.862 178.625 454.33 178.511 453.792 178.506C453.253 178.493 452.717 178.588 452.217 178.785C451.465 179.087 450.82 179.604 450.362 180.271C449.898 180.925 449.641 181.704 449.625 182.506C449.61 183.318 449.84 184.116 450.284 184.796C450.722 185.477 451.352 186.013 452.094 186.337C452.253 186.405 452.417 186.461 452.585 186.505C454.365 185.547 456.088 184.488 457.746 183.332Z" fill="#D98F00"/>
<path d="M467.499 174.541C467.16 174.194 466.785 173.883 466.382 173.613C465.293 172.886 464.043 172.434 462.74 172.295C461.437 172.151 460.117 172.327 458.898 172.809C457.678 173.286 456.593 174.053 455.736 175.043C454.878 176.035 454.273 177.219 453.971 178.495C453.658 179.768 453.658 181.098 453.971 182.371C454.216 183.314 454.624 184.207 455.178 185.008C459.802 182.178 463.959 178.647 467.499 174.541Z" fill="#D98F00"/>
<path d="M417.977 191.99C418.395 190.961 418.612 189.861 418.613 188.751C418.614 187.621 418.391 186.503 417.958 185.46C417.524 184.417 416.889 183.47 416.089 182.673C414.477 181.061 412.292 180.153 410.012 180.149C408.311 180.159 406.65 180.664 405.23 181.601C403.815 182.549 402.712 183.894 402.058 185.466C401.957 185.734 401.857 186.003 401.778 186.271C406.827 189.054 412.3 190.986 417.977 191.99Z" fill="#FFCC00"/>
<path d="M402.483 186.661C403.056 185.481 403.354 184.187 403.354 182.875C403.355 180.596 402.451 178.41 400.841 176.797C399.224 175.187 397.034 174.283 394.752 174.284C393.055 174.283 391.396 174.785 389.982 175.725C389.646 175.953 389.325 176.203 389.021 176.473C392.932 180.571 397.477 184.011 402.483 186.661Z" fill="#D98F00"/>
<path d="M426.109 138.938C421.73 138.938 418.178 144.825 418.178 152.098C418.178 152.994 418.233 153.889 418.345 154.779H433.862C433.974 153.889 434.03 152.994 434.03 152.098C434.03 144.825 430.477 138.938 426.109 138.938Z" fill="#0058B0"/>
<path d="M424.043 138.938C420.803 138.938 418.178 144.825 418.178 152.098C418.178 153.014 418.178 153.918 418.301 154.779H429.785C429.863 153.918 429.896 153.014 429.896 152.098C429.896 144.825 427.282 138.938 424.043 138.938Z" fill="#0073E6"/>
<path d="M418.625 107.401C418.625 121.421 411.442 133.631 400.84 139.943C400.527 140.248 400.214 140.539 399.902 140.814C397.947 142.602 398.583 151.047 398.583 151.047H418.692V102.184C418.692 103.122 418.614 104.05 418.513 104.988C418.413 105.926 418.625 106.541 418.625 107.401Z" fill="#0073E6"/>
<path d="M418.725 123.767C415.486 131.947 409.471 138.727 401.733 142.915L400.706 143.786C399.398 144.903 399.142 148.433 399.153 151.047H418.725V123.767Z" fill="#EAF4FE"/>
<path d="M400.918 150.109C400.582 150.374 400.314 150.715 400.136 151.103H418.725V134.927C414.593 141.136 408.835 146.09 402.08 149.249L400.918 150.109Z" fill="#C5E1F9"/>
<path d="M433.583 107.401C433.583 121.421 440.766 133.62 451.367 139.943L452.306 140.814C454.261 142.602 453.624 151.047 453.624 151.047H433.516V102.184C433.529 103.121 433.592 104.057 433.705 104.988C433.616 105.781 433.583 106.541 433.583 107.401Z" fill="#0073E6"/>
<path d="M433.483 123.767C436.726 131.945 442.741 138.723 450.475 142.915L451.503 143.786C452.821 144.903 453.067 148.433 453.067 151.047H433.483V123.767Z" fill="#EAF4FE"/>
<path d="M451.302 150.109C451.631 150.38 451.897 150.719 452.084 151.103H433.483V134.927C437.617 141.134 443.375 146.087 450.129 149.249L451.302 150.109Z" fill="#C5E1F9"/>
<path d="M433.997 151.047V100.531C433.997 95.9058 430.556 80.9027 426.11 78.4338C421.642 80.9027 418.212 95.9058 418.212 100.531V151.047H433.997Z" fill="#C5E1F9"/>
<path d="M426.11 78.4338L425.965 78.523V151.047H433.997V100.531C433.997 95.9058 430.556 80.9027 426.11 78.4338Z" fill="#EAF4FE"/>
<path d="M420.469 88.7449H431.741C430.333 84.0865 428.389 79.6739 426.155 78.4338C423.865 79.7297 421.888 84.0865 420.469 88.7449Z" fill="#0073E6"/>
<path d="M425.942 88.7449H431.718C430.31 84.0865 428.367 79.6739 426.132 78.4338L425.987 78.523L425.942 88.7449Z" fill="#0058B0"/>
<path d="M430.958 97.1124C430.634 97.8608 429.562 97.5704 428.3 97.1124C426.862 96.5569 425.269 96.5569 423.831 97.1124C422.569 97.5816 421.496 97.872 421.172 97.1124C420.848 96.3527 421.619 94.6547 423.261 94.0179C425.058 93.3228 427.05 93.3228 428.847 94.0179C430.511 94.6435 431.293 96.3974 430.958 97.1124Z" fill="#0073E6"/>
<path d="M410.012 138.938C408.09 138.938 406.549 144.825 406.549 152.098C406.549 153.014 406.549 153.918 406.616 154.779H413.408C413.408 153.918 413.475 153.014 413.475 152.098C413.475 144.825 411.922 138.938 410.012 138.938Z" fill="#0073E6"/>
<path d="M410.013 138.938C409.51 138.938 409.041 139.34 408.605 140.055C410.181 140.915 411.387 146.043 411.387 152.254C411.387 153.114 411.387 153.963 411.32 154.767H413.409C413.409 153.907 413.476 153.002 413.476 152.086C413.476 144.825 411.923 138.938 410.013 138.938Z" fill="#0058B0"/>
<path d="M442.197 138.938C440.286 138.938 438.733 144.825 438.733 152.098C438.733 153.014 438.733 153.918 438.8 154.779H445.593C445.648 153.918 445.671 153.014 445.671 152.098C445.671 144.825 444.118 138.938 442.197 138.938Z" fill="#0073E6"/>
<path d="M442.195 138.938C441.704 138.938 441.223 139.34 440.799 140.055C442.374 140.915 443.58 146.043 443.58 152.254C443.58 153.114 443.58 153.963 443.513 154.767H445.591C445.647 153.907 445.67 153.002 445.67 152.086C445.67 144.825 444.117 138.938 442.195 138.938Z" fill="#0058B0"/>
<path d="M78.3687 89.8846C78.3731 95.0035 77.3688 100.073 75.4133 104.804C73.4577 109.534 70.5893 113.833 66.9718 117.455C63.3543 121.077 59.0584 123.95 54.33 125.911C49.6016 127.872 44.5332 128.882 39.4143 128.884C29.083 128.884 19.1747 124.78 11.8694 117.474C4.56401 110.169 0.459961 100.26 0.459961 89.9291C0.459961 79.5977 4.56401 69.6896 11.8694 62.3843C19.1747 55.0789 29.083 50.9749 39.4143 50.9749C49.737 50.9778 59.6367 55.0767 66.9402 62.3717C74.2436 69.6668 78.3539 79.5619 78.3687 89.8846Z" fill="#EAF4FF"/>
<path d="M50.0949 113.244V80.9028L17.1953 87.2033V113.244" fill="#B0CCF2"/>
<path d="M22.9609 101.726H26.5804V99.0337H22.9609V101.726Z" fill="#F1D041" stroke="#B0CCF2" stroke-width="0.379825" stroke-miterlimit="10"/>
<path d="M24.1777 100.374H28.9815V97.682H24.1777V100.374Z" fill="#2F74D1" stroke="#B0CCF2" stroke-width="0.379825" stroke-miterlimit="10"/>
<path d="M28.9805 113.244V96.5985" stroke="#D2E2F6" stroke-width="0.379825" stroke-miterlimit="10"/>
<path d="M26.3223 94.8892H29.9418V92.1968H26.3223V94.8892Z" fill="#F1D041" stroke="#B0CCF2" stroke-width="0.379825" stroke-miterlimit="10"/>
<path d="M27.5508 93.5374H32.3545V90.9009H27.5508V93.5374Z" fill="#2F74D1" stroke="#B0CCF2" stroke-width="0.379825" stroke-miterlimit="10"/>
<path d="M33.9844 72.0661H37.6039V69.3739H33.9844V72.0661Z" fill="#F1D041" stroke="#EDF3FC" stroke-width="0.379825" stroke-miterlimit="10"/>
<path d="M35.2031 70.7255H40.0068V68.0221H35.2031V70.7255Z" fill="#2F74D1" stroke="#EDF3FC" stroke-width="0.379825" stroke-miterlimit="10"/>
<path d="M32.3428 113.244V89.7838" stroke="#D2E2F6" stroke-width="0.379825" stroke-miterlimit="10"/>
<path d="M19.9434 108.317H23.574V105.625H19.9434V108.317Z" fill="#F1D041" stroke="#B0CCF2" stroke-width="0.379825" stroke-miterlimit="10"/>
<path d="M21.1611 106.976H25.9759V104.306H21.1611V106.976Z" fill="#2F74D1" stroke="#B0CCF2" stroke-width="0.379825" stroke-miterlimit="10"/>
<path d="M26.0088 113.244V103.189" stroke="#D2E2F6" stroke-width="0.379825" stroke-miterlimit="10"/>
<path d="M56.5291 113.244V69.318L40.0068 73.0046V113.221" fill="#3865B1"/>
<path d="M40.0068 73.0268V66.447" stroke="#D2E2F6" stroke-width="0.379825" stroke-miterlimit="10"/>
<path d="M53.3012 75.1827H43.2471V77.9644H53.3012V75.1827Z" fill="#B0CCF2"/>
<path d="M53.3012 79.4167H43.2471V82.2096H53.3012V79.4167Z" fill="#B0CCF2"/>
<path d="M53.3012 83.6509H43.2471V86.4437H53.3012V83.6509Z" fill="#B0CCF2"/>
<path d="M53.3012 87.8849H43.2471V90.6777H53.3012V87.8849Z" fill="#B0CCF2"/>
<path d="M53.3012 92.1523H43.2471V94.934H53.3012V92.1523Z" fill="#B0CCF2"/>
<path d="M53.3012 96.4083H43.2471V99.2012H53.3012V96.4083Z" fill="#B0CCF2"/>
<path d="M53.3012 100.676H43.2471V103.457H53.3012V100.676Z" fill="#B0CCF2"/>
<path d="M53.3013 113.244V109.367H43.8838V113.244" fill="#B0CCF2"/>
<path d="M61.6235 113.244V72.0216L56.5293 69.318V113.244H61.6235Z" fill="#25467E"/>
<path d="M52.9775 75.1827V77.6627H43.1914V77.9644H53.2456V75.1827H52.9775Z" fill="#8CB6E7"/>
<path d="M52.9775 79.4167V81.8967H43.1914V82.2096H53.2456V79.4167H52.9775Z" fill="#8CB6E7"/>
<path d="M52.9775 83.6509V86.1309H43.1914V86.4437H53.2456V83.6509H52.9775Z" fill="#8CB6E7"/>
<path d="M52.9775 87.8849V90.3649H43.1914V90.6777H53.2456V87.8849H52.9775Z" fill="#8CB6E7"/>
<path d="M52.9775 92.1523V94.6323H43.1914V94.934H53.2456V92.1523H52.9775Z" fill="#8CB6E7"/>
<path d="M52.9775 96.4083V98.8883H43.1914V99.2012H53.2456V96.4083H52.9775Z" fill="#8CB6E7"/>
<path d="M52.9775 100.676V103.189H43.1914V103.491H53.2456V100.709L52.9775 100.676Z" fill="#8CB6E7"/>
<path d="M52.9996 113.244V109.68H43.8838V109.367H53.357V113.244H52.9996Z" fill="#8CB6E7"/>
<g opacity="0.75">
<path opacity="0.75" d="M47.337 92.1523H46.1194L45.4268 94.934H46.6668L47.337 92.1523Z" fill="#D2E2F6"/>
<path opacity="0.75" d="M46.2748 96.4083H45.0012L44.3086 99.2012H45.5486L46.2748 96.4083Z" fill="#D2E2F6"/>
<path opacity="0.75" d="M51.5698 75.1829H50.3186L49.626 77.9645H50.8772L51.5698 75.1829Z" fill="#D2E2F6"/>
<path opacity="0.75" d="M50.5089 79.4169H49.2688L48.5762 82.2097H49.8163L50.5089 79.4169Z" fill="#D2E2F6"/>
<path opacity="0.75" d="M43.9733 100.676L43.2695 103.458H44.5207L45.2133 100.676H43.9733Z" fill="#D2E2F6"/>
<path opacity="0.75" d="M49.4702 83.6506H48.219L47.5264 86.4435H48.7775L49.4702 83.6506Z" fill="#D2E2F6"/>
<path opacity="0.75" d="M48.3525 87.8848H47.1125L46.4199 90.6776H47.6599L48.3525 87.8848Z" fill="#D2E2F6"/>
<path opacity="0.75" d="M48.0176 90.6776H48.2857L48.9784 87.8848H48.7102L48.0176 90.6776Z" fill="#D2E2F6"/>
<path opacity="0.75" d="M51.8825 75.1829L51.1787 77.9645H51.458L52.1506 75.1829H51.8825Z" fill="#D2E2F6"/>
<path opacity="0.75" d="M44.834 103.458H45.1021L45.7947 100.676H45.5266L44.834 103.458Z" fill="#D2E2F6"/>
<path opacity="0.75" d="M49.0674 86.4326H49.3467L50.0393 83.6398H49.7712L49.0674 86.4326Z" fill="#D2E2F6"/>
<path opacity="0.75" d="M50.1289 82.2097H50.397L51.0896 79.4169H50.8215L50.1289 82.2097Z" fill="#D2E2F6"/>
<path opacity="0.75" d="M45.8936 99.2012H46.1617L46.8543 96.4083H46.5862L45.8936 99.2012Z" fill="#D2E2F6"/>
<path opacity="0.75" d="M46.9561 94.934H47.2242L47.9168 92.1523H47.6487L46.9561 94.934Z" fill="#D2E2F6"/>
</g>
</g>
<defs>
<clipPath id="clip0_14263_310967">
<rect width="479.551" height="285.137" fill="white" transform="translate(0.449219)"/>
</clipPath>
</defs>
</svg>
