<svg width="120" height="120" viewBox="0 0 120 120" fill="none" xmlns="http://www.w3.org/2000/svg">
<path d="M81.0284 26.8291L66.691 34.6495V50.2902L81.0284 59.4139L95.3657 50.2902V34.6495L81.0284 26.8291Z" fill="#0073E6"/>
<path d="M100.579 52.8965L107.096 56.8067L81.0283 72.4474L54.9604 56.8067L61.4774 52.8965" stroke="#505050" stroke-width="2.5" stroke-linecap="round" stroke-linejoin="round"/>
<path d="M54.9604 26.8285L81.0283 42.4693L107.096 26.8285L81.0283 12.4912L54.9604 26.8285Z" stroke="#505050" stroke-width="2.5" stroke-linecap="round" stroke-linejoin="round"/>
<path d="M107.096 26.8291V56.8071" stroke="#505050" stroke-width="2.5" stroke-linecap="round" stroke-linejoin="round"/>
<path d="M81.0284 42.4707V72.4487" stroke="#505050" stroke-width="2.5" stroke-linecap="round" stroke-linejoin="round"/>
<path d="M81.0284 12.4912V19.0082" stroke="#505050" stroke-width="2.4982" stroke-linecap="round" stroke-linejoin="round"/>
<path d="M54.9604 26.8291V56.8071" stroke="#505050" stroke-width="2.5" stroke-linecap="round" stroke-linejoin="round"/>
<path d="M94.9317 14.9893L107.002 14.9893C112.754 14.9893 117.416 19.6302 117.416 25.3551V84.5659C117.416 90.2908 112.754 94.9317 107.002 94.9317H12.9134C7.16163 94.9317 2.49893 90.2908 2.49893 84.5659V25.3551C2.49893 19.6302 7.16163 14.9893 12.9134 14.9893L64.9532 14.9893" stroke="#505050" stroke-width="2.5" stroke-linecap="round" stroke-linejoin="round"/>
<rect x="14.9892" y="32.4766" width="19.9856" height="7.49461" fill="#27D1D6"/>
<rect x="14.9892" y="49.9639" width="19.9856" height="7.49461" fill="#27D1D6"/>
<rect x="14.9892" y="42.4697" width="29.9784" height="2.4982" fill="#0073E6"/>
<rect x="14.9892" y="59.957" width="29.9784" height="2.4982" fill="#0073E6"/>
<path d="M56.6774 88.2881H63.2366" stroke="#505050" stroke-width="2.4982" stroke-linecap="round" stroke-linejoin="round"/>
<path d="M2.4982 81.8931H117.415" stroke="#505050" stroke-width="2.5" stroke-linecap="round" stroke-linejoin="round"/>
<path d="M48.916 108.155L50.1096 95.2671" stroke="#505050" stroke-width="2.5" stroke-linecap="round" stroke-linejoin="round"/>
<path d="M69.8044 95.2671L70.998 108.155" stroke="#505050" stroke-width="2.5" stroke-linecap="round" stroke-linejoin="round"/>
<path d="M37.5902 108.155H82.3238" stroke="#505050" stroke-width="2.5" stroke-linecap="round" stroke-linejoin="round"/>
</svg>
