<svg width="142" height="120" viewBox="0 0 142 120" fill="none" xmlns="http://www.w3.org/2000/svg">
<path fill-rule="evenodd" clip-rule="evenodd" d="M21.8979 16.4695C21.8979 15.7791 22.4576 15.2195 23.1479 15.2195H37.6175C38.3079 15.2195 38.8675 15.7791 38.8675 16.4695V28.713C38.8675 29.4033 38.3079 29.963 37.6175 29.963H23.1479C22.4576 29.963 21.8979 29.4033 21.8979 28.713V16.4695ZM24.3979 17.7195V27.463H36.3675V17.7195H24.3979Z" fill="#505050"/>
<path d="M49.8608 17.2646H76.2803V25.1905H49.8608V17.2646Z" fill="#27D1D6"/>
<path d="M49.8608 39.0972H76.2803V47.023H49.8608V39.0972Z" fill="#27D1D6"/>
<path d="M49.8608 27.832H100.058V30.474H49.8608V27.832Z" fill="#0073E6"/>
<path d="M49.8608 49.6653H100.058V52.3072H49.8608V49.6653Z" fill="#0073E6"/>
<path fill-rule="evenodd" clip-rule="evenodd" d="M13.6 3.25C7.90734 3.25 3.25 7.96516 3.25 13.8345V81.435C3.25 87.3044 7.90734 92.0196 13.6 92.0196H75C75.6904 92.0196 76.25 92.5792 76.25 93.2696C76.25 93.9599 75.6904 94.5196 75 94.5196H13.6C6.47969 94.5196 0.75 88.6377 0.75 81.435V13.8345C0.75 6.63185 6.47969 0.75 13.6 0.75H118.4C125.52 0.75 131.25 6.63185 131.25 13.8345V47C131.25 47.6904 130.69 48.25 130 48.25C129.31 48.25 128.75 47.6904 128.75 47V13.8345C128.75 7.96515 124.093 3.25 118.4 3.25H13.6Z" fill="#505050"/>
<path d="M40.8535 16.2042L34.3128 22.1185C34.1682 22.2492 33.9721 22.3227 33.7675 22.3227C33.563 22.3227 33.3668 22.2492 33.2222 22.1185L30.147 19.3378C30.0024 19.207 29.8062 19.1336 29.6017 19.1336C29.3972 19.1336 29.2011 19.207 29.0564 19.3378L26.2258 21.8973C26.0813 22.028 26.0001 22.2052 26 22.3901C25.9999 22.5749 26.081 22.7522 26.2254 22.883L32.4252 28.4988C32.6005 28.6576 32.8087 28.7836 33.0379 28.8696C33.2671 28.9556 33.5128 28.9999 33.7609 29C34.0091 29.0001 34.2548 28.956 34.4841 28.8702C34.7134 28.7843 34.9217 28.6585 35.0971 28.4998L44.7741 19.7495C44.9188 19.6187 45 19.4413 45 19.2564C45 19.0715 44.9188 18.8941 44.7741 18.7633L41.9441 16.2042C41.7995 16.0735 41.6033 16 41.3988 16C41.1943 16 40.9981 16.0735 40.8535 16.2042Z" fill="#0073E6"/>
<path fill-rule="evenodd" clip-rule="evenodd" d="M30.147 19.3378L33.2222 22.1185C33.3668 22.2492 33.563 22.3227 33.7675 22.3227C33.9721 22.3227 34.1682 22.2492 34.3128 22.1185L40.8535 16.2042C40.9981 16.0735 41.1943 16 41.3988 16C41.6033 16 41.7995 16.0735 41.9441 16.2042L44.7741 18.7633C44.9188 18.8941 45 19.0715 45 19.2564C45 19.4413 44.9188 19.6187 44.7741 19.7495L35.0971 28.4998C34.9217 28.6585 34.7134 28.7843 34.4841 28.8702C34.2548 28.956 34.0091 29.0001 33.7609 29C33.5128 28.9999 33.2671 28.9556 33.0379 28.8696C32.8087 28.7836 32.6005 28.6576 32.4252 28.4988L26.2254 22.883C26.081 22.7522 25.9999 22.5749 26 22.3901C26.0001 22.2052 26.0813 22.028 26.2258 21.8973L29.0564 19.3378C29.2011 19.207 29.3972 19.1336 29.6017 19.1336C29.8062 19.1336 30.0024 19.207 30.147 19.3378ZM25.5541 23.6242C25.5541 23.6242 25.5541 23.6242 25.5541 23.6242C25.2131 23.3153 24.9998 22.8738 25 22.3896C25.0002 21.9054 25.2139 21.4642 25.5551 21.1556L28.3857 18.5961C28.7238 18.2904 29.1627 18.1336 29.6017 18.1336C30.0408 18.1336 30.4796 18.2903 30.8177 18.596L33.7675 21.2634L40.1828 15.4625C40.5209 15.1568 40.9597 15 41.3988 15C41.8378 15 42.2767 15.1568 42.6147 15.4625L45.4449 18.0216C45.7863 18.3303 46 18.7719 46 19.2564C46 19.7409 45.7863 20.1824 45.4449 20.4912L35.7678 29.2416C35.4956 29.4877 35.1778 29.6783 34.8346 29.8067C34.4916 29.9351 34.1269 30.0001 33.7605 30C33.3942 29.9999 33.0295 29.9345 32.6866 29.8058C32.3436 29.6771 32.0258 29.4863 31.7539 29.2399" fill="#F7FAFD"/>
<path fill-rule="evenodd" clip-rule="evenodd" d="M21.8979 39.8435C21.8979 39.1531 22.4576 38.5935 23.1479 38.5935H37.6175C38.3079 38.5935 38.8675 39.1531 38.8675 39.8435V52.087C38.8675 52.7773 38.3079 53.337 37.6175 53.337H23.1479C22.4576 53.337 21.8979 52.7773 21.8979 52.087V39.8435ZM24.3979 41.0935V50.837H36.3675V41.0935H24.3979Z" fill="#505050"/>
<path fill-rule="evenodd" clip-rule="evenodd" d="M21.8979 62.1042C21.8979 61.4139 22.4576 60.8542 23.1479 60.8542H37.6175C38.3079 60.8542 38.8675 61.4139 38.8675 62.1042V74.3477C38.8675 75.0381 38.3079 75.5977 37.6175 75.5977H23.1479C22.4576 75.5977 21.8979 75.0381 21.8979 74.3477V62.1042ZM24.3979 63.3542V73.0977H36.3675V63.3542H24.3979Z" fill="#505050"/>
<path fill-rule="evenodd" clip-rule="evenodd" d="M141.046 46.3153C141.399 46.8543 141.284 47.5731 140.781 47.9757L90.8183 87.9757C90.5542 88.1872 90.2156 88.2825 89.8799 88.24L68.8429 85.5733C68.3015 85.5047 67.8672 85.0928 67.77 84.5558C67.6729 84.0188 67.9353 83.4808 68.4183 83.2269L139.418 45.8935C139.988 45.5937 140.693 45.7763 141.046 46.3153ZM73.095 83.5923L89.6691 85.6933L129.033 54.1791L73.095 83.5923Z" fill="#505050"/>
<path fill-rule="evenodd" clip-rule="evenodd" d="M140.613 45.9105C141.126 46.1989 141.368 46.806 141.195 47.3684L122.695 107.368C122.566 107.786 122.229 108.106 121.805 108.212C121.381 108.319 120.933 108.197 120.622 107.89L102.122 89.6288C101.649 89.1621 101.624 88.4071 102.065 87.91L139.065 46.1709C139.455 45.7305 140.1 45.6221 140.613 45.9105ZM104.721 88.6818L120.912 104.664L137.103 52.152L104.721 88.6818Z" fill="#505050"/>
<path fill-rule="evenodd" clip-rule="evenodd" d="M140.894 46.1267C141.346 46.5889 141.371 47.3187 140.952 47.8104L105.581 89.3483L112.3 96.3238C112.613 96.6494 112.727 97.1191 112.596 97.5519C112.466 97.9848 112.112 98.3134 111.67 98.4114L99.0076 101.22C98.4772 101.338 97.9314 101.1 97.6575 100.63L89.9206 87.3803C89.6096 86.8477 89.7336 86.1678 90.2126 85.7793L139.213 46.0293C139.714 45.6224 140.443 45.6646 140.894 46.1267ZM92.6201 87.0454L99.3565 98.5822L108.953 96.4533L102.995 90.2672C102.549 89.8044 102.526 89.0789 102.943 88.5896L130.258 56.5128L92.6201 87.0454Z" fill="#505050"/>
<path fill-rule="evenodd" clip-rule="evenodd" d="M81.0547 97.3288C81.4254 97.9112 81.2537 98.6839 80.6713 99.0545L69.6713 106.054C69.0888 106.425 68.3162 106.253 67.9456 105.671C67.5749 105.089 67.7466 104.316 68.3291 103.945L79.3291 96.9453C79.9115 96.5747 80.6841 96.7464 81.0547 97.3288Z" fill="#505050"/>
<path fill-rule="evenodd" clip-rule="evenodd" d="M80.9249 107.159C81.3893 107.67 81.3517 108.461 80.8408 108.925L69.8408 118.925C69.33 119.389 68.5395 119.352 68.0751 118.841C67.6107 118.33 67.6483 117.539 68.1592 117.075L79.1592 107.075C79.67 106.611 80.4606 106.648 80.9249 107.159Z" fill="#505050"/>
<path fill-rule="evenodd" clip-rule="evenodd" d="M87.6935 100.96C88.2679 101.343 88.4231 102.119 88.0402 102.693L86.0402 105.693C85.6573 106.268 84.8812 106.423 84.3068 106.04C83.7323 105.657 83.5771 104.881 83.9601 104.307L85.9601 101.307C86.343 100.732 87.1191 100.577 87.6935 100.96Z" fill="#505050"/>
<path fill-rule="evenodd" clip-rule="evenodd" d="M93.9603 112.2C94.4023 112.73 94.3306 113.518 93.8003 113.96L87.8003 118.96C87.2699 119.402 86.4817 119.331 86.0398 118.8C85.5978 118.27 85.6695 117.482 86.1998 117.04L92.1998 112.04C92.7301 111.598 93.5184 111.669 93.9603 112.2Z" fill="#505050"/>
<path d="M40.8535 40.2042L34.3128 46.1185C34.1682 46.2492 33.9721 46.3227 33.7675 46.3227C33.563 46.3227 33.3668 46.2492 33.2222 46.1185L30.147 43.3378C30.0024 43.207 29.8062 43.1336 29.6017 43.1336C29.3972 43.1336 29.2011 43.207 29.0564 43.3378L26.2258 45.8973C26.0813 46.028 26.0001 46.2052 26 46.3901C25.9999 46.5749 26.081 46.7522 26.2254 46.883L32.4252 52.4988C32.6005 52.6576 32.8087 52.7836 33.0379 52.8696C33.2671 52.9556 33.5128 52.9999 33.7609 53C34.0091 53.0001 34.2548 52.956 34.4841 52.8702C34.7134 52.7843 34.9217 52.6585 35.0971 52.4998L44.7741 43.7495C44.9188 43.6187 45 43.4413 45 43.2564C45 43.0715 44.9188 42.8941 44.7741 42.7633L41.9441 40.2042C41.7995 40.0735 41.6033 40 41.3988 40C41.1943 40 40.9981 40.0735 40.8535 40.2042Z" fill="#0073E6"/>
<path fill-rule="evenodd" clip-rule="evenodd" d="M30.147 43.3378L33.2222 46.1185C33.3668 46.2492 33.563 46.3227 33.7675 46.3227C33.9721 46.3227 34.1682 46.2492 34.3128 46.1185L40.8535 40.2042C40.9981 40.0735 41.1943 40 41.3988 40C41.6033 40 41.7995 40.0735 41.9441 40.2042L44.7741 42.7633C44.9188 42.8941 45 43.0715 45 43.2564C45 43.4413 44.9188 43.6187 44.7741 43.7495L35.0971 52.4998C34.9217 52.6585 34.7134 52.7843 34.4841 52.8702C34.2548 52.956 34.0091 53.0001 33.7609 53C33.5128 52.9999 33.2671 52.9556 33.0379 52.8696C32.8087 52.7836 32.6005 52.6576 32.4252 52.4988L26.2254 46.883C26.081 46.7522 25.9999 46.5749 26 46.3901C26.0001 46.2052 26.0813 46.028 26.2258 45.8973L29.0564 43.3378C29.2011 43.207 29.3972 43.1336 29.6017 43.1336C29.8062 43.1336 30.0024 43.207 30.147 43.3378ZM25.5541 47.6242C25.5541 47.6242 25.5541 47.6242 25.5541 47.6242C25.2131 47.3153 24.9998 46.8738 25 46.3896C25.0002 45.9054 25.2139 45.4642 25.5551 45.1556L28.3857 42.5961C28.7238 42.2904 29.1627 42.1336 29.6017 42.1336C30.0408 42.1336 30.4796 42.2903 30.8177 42.596L33.7675 45.2634L40.1828 39.4625C40.5209 39.1568 40.9597 39 41.3988 39C41.8378 39 42.2767 39.1568 42.6147 39.4625L45.4449 42.0216C45.7863 42.3303 46 42.7719 46 43.2564C46 43.7409 45.7863 44.1824 45.4449 44.4912L35.7678 53.2416C35.4956 53.4877 35.1778 53.6783 34.8346 53.8067C34.4916 53.9351 34.1269 54.0001 33.7605 54C33.3942 53.9999 33.0295 53.9345 32.6866 53.8058C32.3436 53.6771 32.0258 53.4863 31.7539 53.2399" fill="#F7FAFD"/>
<path d="M40.8535 62.2042L34.3128 68.1185C34.1682 68.2492 33.9721 68.3227 33.7675 68.3227C33.563 68.3227 33.3668 68.2492 33.2222 68.1185L30.147 65.3378C30.0024 65.207 29.8062 65.1336 29.6017 65.1336C29.3972 65.1336 29.2011 65.207 29.0564 65.3378L26.2258 67.8973C26.0813 68.028 26.0001 68.2052 26 68.3901C25.9999 68.5749 26.081 68.7522 26.2254 68.883L32.4252 74.4988C32.6005 74.6576 32.8087 74.7836 33.0379 74.8696C33.2671 74.9556 33.5128 74.9999 33.7609 75C34.0091 75.0001 34.2548 74.956 34.4841 74.8702C34.7134 74.7843 34.9217 74.6585 35.0971 74.4998L44.7741 65.7495C44.9188 65.6187 45 65.4413 45 65.2564C45 65.0715 44.9188 64.8941 44.7741 64.7633L41.9441 62.2042C41.7995 62.0735 41.6033 62 41.3988 62C41.1943 62 40.9981 62.0735 40.8535 62.2042Z" fill="#0073E6"/>
<path fill-rule="evenodd" clip-rule="evenodd" d="M30.147 65.3378L33.2222 68.1185C33.3668 68.2492 33.563 68.3227 33.7675 68.3227C33.9721 68.3227 34.1682 68.2492 34.3128 68.1185L40.8535 62.2042C40.9981 62.0735 41.1943 62 41.3988 62C41.6033 62 41.7995 62.0735 41.9441 62.2042L44.7741 64.7633C44.9188 64.8941 45 65.0715 45 65.2564C45 65.4413 44.9188 65.6187 44.7741 65.7495L35.0971 74.4998C34.9217 74.6585 34.7134 74.7843 34.4841 74.8702C34.2548 74.956 34.0091 75.0001 33.7609 75C33.5128 74.9999 33.2671 74.9556 33.0379 74.8696C32.8087 74.7836 32.6005 74.6576 32.4252 74.4988L26.2254 68.883C26.081 68.7522 25.9999 68.5749 26 68.3901C26.0001 68.2052 26.0813 68.028 26.2258 67.8973L29.0564 65.3378C29.2011 65.207 29.3972 65.1336 29.6017 65.1336C29.8062 65.1336 30.0024 65.207 30.147 65.3378ZM25.5541 69.6242C25.5541 69.6242 25.5541 69.6242 25.5541 69.6242C25.2131 69.3153 24.9998 68.8738 25 68.3896C25.0002 67.9054 25.2139 67.4642 25.5551 67.1556L28.3857 64.5961C28.7238 64.2904 29.1627 64.1336 29.6017 64.1336C30.0408 64.1336 30.4796 64.2903 30.8177 64.596L33.7675 67.2634L40.1828 61.4625C40.5209 61.1568 40.9597 61 41.3988 61C41.8378 61 42.2767 61.1568 42.6147 61.4625L45.4449 64.0216C45.7863 64.3303 46 64.7719 46 65.2564C46 65.7409 45.7863 66.1824 45.4449 66.4912L35.7678 75.2416C35.4956 75.4877 35.1778 75.6783 34.8346 75.8067C34.4916 75.9351 34.1269 76.0001 33.7605 76C33.3942 75.9999 33.0295 75.9345 32.6866 75.8058C32.3436 75.6771 32.0258 75.4863 31.7539 75.2399" fill="#F7FAFD"/>
</svg>
