<svg width="48" height="48" viewBox="0 0 48 48" fill="none" xmlns="http://www.w3.org/2000/svg">
<path d="M29.7848 23.5C31.9469 25.2709 31.9073 24.3189 33.7375 25.0274C34.12 24.8738 33.9304 24.2907 34.5859 24.5716C36.0776 24.9514 34.2105 25.586 34.249 26.1894C35.0659 27.135 36.7337 27.4605 37.9569 27.8803C39.0468 28.8119 40.9136 28.8229 41.7473 30.0274C42.2108 30.6167 43.6599 31.4356 42.8563 32.3755C42.7361 32.6579 42.8729 33.0167 42.7442 33.2617C42.2039 33.3076 41.5156 33.0211 41.4153 32.3612C41.5727 31.9651 41.2845 31.7749 41.1203 31.642C40.9531 31.3741 41.0656 31.129 40.6261 31.2301C40.1822 31.4119 39.1755 30.9841 38.9472 30.8585C38.7402 30.6959 38.8495 30.3462 38.4622 30.313C37.093 30.6025 37.2314 32.4393 36.8311 33.4869C36.7278 34.4579 38.433 34.2239 38.9067 35.2651C38.9988 35.8254 38.8514 36.1425 39.2181 36.6497C39.9269 37.6268 37.5277 36.8858 37.2564 38.1607C37.8463 39.5949 37.0693 39.6538 36.3468 40.6152C35.9934 40.8426 36.2646 41.2634 36.0294 41.5185C35.8032 41.8381 34.7748 42.0354 34.5774 41.5407C34.1283 40.6528 34.6563 40.1698 35.1457 39.4815C35.3945 39.24 34.3984 37.8227 36.0506 38.3465C36.5096 37.2112 35.6167 37.6088 35.5166 36.1446C35.5339 35.5463 35.3586 34.8426 34.6937 34.7117C34.3056 34.11 34.8349 34.3478 34.3978 33.4723C33.9926 31.8756 33.6886 32.9902 32.8081 32.7837C32.571 32.3828 31.3111 32.3785 31.5324 32.0753C31.8221 31.5311 31.5763 30.1709 30.7643 30.3023C30.3754 30.4577 28.7718 31.3719 29.7848 30.3378C29.7551 29.9462 29.3953 29.7108 28.9857 30.002C28.5965 30.0396 28.8555 29.5894 28.7158 29.5079C28.3306 29.2198 28.1123 28.3007 27.9031 27.8973C27.5397 27.5638 26.618 27.8688 26.203 27.6631C26.1098 27.724 25.5831 28.1636 25.4638 27.7936C24.7335 27.0356 24.2939 26.7133 23.2786 26.1671C22.7858 25.9756 22.7332 25.2458 22.4945 25.0884C20.8411 24.1008 19.7002 21.9283 18.1802 21.4632C17.9783 20.7479 18.3868 20.8953 17.5767 20.4931C17.6762 19.8787 17.6471 19.3064 17.2298 18.8069C16.7638 17.9618 16.8076 16.2194 15.7272 16.002C14.556 15.0524 13.4754 13.093 11.6971 13.8119C11.2578 14.1933 11.58 14.636 10.8304 14.688C10.072 15.3653 8.6994 17.4654 7.81248 16.126C7.93652 15.7568 8.78506 14.6481 7.69342 14.881C6.86302 14.8727 5.81075 14.756 5.88602 13.8408C4.79675 13.0673 5.31353 13.0167 6.0731 12.3916C6.23268 11.7883 5.63249 11.9993 5.35726 11.8458C4.46435 10.9322 5.85075 10.2178 6.36317 9.83357C6.85547 8.90155 5.51738 8.30848 5.06692 7.56581C5.05885 6.65721 6.58687 7.042 7.28384 6.98583C8.13208 6.39767 9.59505 6.7568 9.56868 5.40002C9.64955 4.9541 9.79701 4.51904 10.3536 4.64956C11.203 5.85754 12.2799 8.62345 12.4995 5.40002M22.9123 13.8408C22.9123 12.3916 22.5232 14.1806 23.6568 11.4402C23.8157 10.8415 23.1588 10.6054 22.9123 10.1625C22.945 9.68133 23.5134 8.06794 24.0845 8.89988C25.0098 8.92375 25.7215 7.94014 26.6553 7.66077C27.3382 7.64371 27.3764 7.8405 27.5418 7.24168C27.4793 6.90658 27.4058 6.35812 27.4399 6.11601C27.1828 6.19194 27.2001 5.98683 27.0986 5.74105C26.6971 5.26856 27.0399 5.07773 27.44 4.7522C28.9662 3.45083 23.0443 3.97174 22.8017 2.53484C22.6792 2.18714 22.8017 1.5 21.9995 1.5" stroke="#505050" stroke-linecap="round" stroke-linejoin="round"/>
<path d="M28.4991 41.4995C29.9906 41.3407 31.2686 41.1552 32.7294 40.727C34.4235 39.3361 33.1497 41.4935 33.5274 42.4423C33.3616 43.1837 32.5284 43.7326 32.531 44.5246C33.8177 46.2518 32.6351 47.4331 30.5 46.7272C30.0083 46.0263 29.3843 45.8357 28.5112 45.6761C27.5764 45.3436 26.0517 44.4679 25.2827 43.8856C23.949 43.8246 22.6951 43.7689 22.9991 41.9995" stroke="#505050" stroke-linecap="round" stroke-linejoin="round"/>
<path d="M12.1035 37.5035C11.8099 35.2655 13.3865 37.7743 14.0396 37.2134C14.4131 36.5904 14.0397 35.9159 14.4513 35.3742C14.4265 34.1184 14.8971 33.8559 14.4507 32.5669C15.2668 30.5993 14.5523 30.1282 13.8215 28.259C13.3807 28.1171 12.7872 28.4444 12.4425 28.6948C12.0448 28.7072 11.5192 29.1431 11.3777 29.4692C10.6612 29.9422 10.2588 29.2332 9.92592 28.9367C9.62493 29.3345 9.9227 29.5268 9.78045 29.9533C9.14244 30.6599 10.3686 30.8858 10.5062 31.4534C10.6297 32.0046 10.4761 32.8667 10.5061 33.4137C10.6591 33.6841 10.9225 34.268 10.6274 34.4784C10.5107 35.0543 10.1929 35.9957 10.1919 36.4628C10.1177 36.985 9.64419 36.4148 9.78034 36.7289C9.83478 37.5945 11.7905 38.4015 12.1035 37.5035Z" stroke="#505050" stroke-linecap="round" stroke-linejoin="round"/>
<path d="M17.6076 11C17.6076 11 14 8.16923 14 4.47293C14.0183 3.53419 14.4085 2.64112 15.085 1.99001C15.7615 1.3389 16.6688 0.983029 17.6076 1.00062C18.5463 0.983029 19.4536 1.3389 20.1301 1.99001C20.8066 2.64112 21.1969 3.53419 21.2151 4.47293C21.2151 8.16923 17.6076 11 17.6076 11Z" fill="#0073E6"/>
<path d="M26.6076 24C26.6076 24 23 21.1692 23 17.4729C23.0183 16.5342 23.4085 15.6411 24.085 14.99C24.7615 14.3389 25.6688 13.983 26.6076 14.0006C27.5463 13.983 28.4536 14.3389 29.1301 14.99C29.8066 15.6411 30.1969 16.5342 30.2151 17.4729C30.2151 21.1692 26.6076 24 26.6076 24Z" fill="#0073E6"/>
<path d="M25.6076 42C25.6076 42 22 39.1692 22 35.4729C22.0183 34.5342 22.4085 33.6411 23.085 32.99C23.7615 32.3389 24.6688 31.983 25.6076 32.0006C26.5463 31.983 27.4536 32.3389 28.1301 32.99C28.8066 33.6411 29.1969 34.5342 29.2151 35.4729C29.2151 39.1692 25.6076 42 25.6076 42Z" fill="#27D1D6"/>
</svg>
