<?xml version="1.0" encoding="utf-8"?>
<!-- Generator: Adobe Illustrator 26.1.0, SVG Export Plug-In . SVG Version: 6.00 Build 0)  -->
<svg version="1.1" id="Livello_1" xmlns="http://www.w3.org/2000/svg" xmlns:xlink="http://www.w3.org/1999/xlink" x="0px" y="0px"
	 viewBox="0 0 158 158" style="enable-background:new 0 0 158 158;" xml:space="preserve">
<style type="text/css">
	.st0{fill-rule:evenodd;clip-rule:evenodd;fill:#505050;}
	.st1{fill:#0073E6;}
	.st2{fill:#27D1D6;}
	.st3{fill-rule:evenodd;clip-rule:evenodd;fill:#27D1D6;}
	.st4{fill:#0066CC;}
	.st5{fill-rule:evenodd;clip-rule:evenodd;fill:#0066CC;}
</style>
<path class="st0" d="M37.8,98.6c-17.1-21.5-13.5-52.7,8-69.7s52.7-13.5,69.7,8c17.1,21.5,13.5,52.7-8,69.7
	C86,123.7,54.8,120.1,37.8,98.6z M44.1,26.9c-22.5,17.9-26.3,50.7-8.4,73.3c17.9,22.5,50.7,26.3,73.3,8.4
	c22.5-17.9,26.3-50.7,8.4-73.3C99.5,12.8,66.7,9,44.1,26.9z M106.4,117.2c-0.4-0.5-1.2-0.6-1.8-0.2c-0.5,0.4-0.6,1.2-0.2,1.7
	l23.1,28.6c3.1,3.8,8.7,4.5,12.6,1.4c3.9-3,4.5-8.6,1.4-12.4l-23.1-28.6c-0.4-0.5-1.2-0.6-1.8-0.2c-0.5,0.4-0.6,1.2-0.2,1.7
	l23.1,28.6c2.2,2.7,1.8,6.7-1,8.9c-2.8,2.2-6.9,1.7-9.1-1L106.4,117.2z M0,0"/>
<path class="st0" d="M107,40.6c0.3,0.2,0.5,0.6,0.5,1l1.3,58.9c0,0.7-0.5,1.3-1.2,1.3c-0.7,0-1.3-0.5-1.3-1.2L105,43.1l-26,6.4
	l1.1,51.5c0,0.7-0.5,1.3-1.2,1.3c-0.7,0-1.3-0.5-1.3-1.2l-1.2-52.5c0-0.6,0.4-1.1,0.9-1.2l28.5-7C106.3,40.3,106.7,40.3,107,40.6z"
	/>
<path class="st1" d="M90.5,76.1l-5,0.1l0.1,3l5-0.1L90.5,76.1z"/>
<path class="st1" d="M99.5,75.9l-5,0.1l0.1,3l5-0.1L99.5,75.9z"/>
<path class="st1" d="M90.7,85.1l-5,0.1l0.1,3l5-0.1L90.7,85.1z"/>
<path class="st1" d="M99.7,84.9l-5,0.1l0.1,3l5-0.1L99.7,84.9z"/>
<path class="st1" d="M90.3,67.1l-5,0.1l0.1,3l5-0.1L90.3,67.1z"/>
<path class="st1" d="M99.3,66.9l-5,0.1l0.1,3l5-0.1L99.3,66.9z"/>
<path class="st1" d="M90.1,58.1l-5,0.1l0.1,3l5-0.1L90.1,58.1z"/>
<path class="st1" d="M99.1,57.9l-5,0.1l0.1,3l5-0.1L99.1,57.9z"/>
<path class="st0" d="M105.5,64.3c0.1-0.7,0.7-1.2,1.4-1.1l16,1.9c0.7,0.1,1.2,0.7,1.1,1.4c-0.1,0.7-0.7,1.2-1.4,1.1l-16-1.9
	C105.9,65.6,105.4,65,105.5,64.3z M77.7,101.1c0-0.7,0.5-1.3,1.2-1.3l31.6-0.7c0.7,0,1.3,0.5,1.3,1.2c0,0.7-0.5,1.3-1.2,1.3
	l-31.6,0.7C78.3,102.4,77.7,101.8,77.7,101.1z"/>
<path class="st2" d="M64.6,47l8.2-0.2l-0.1-5.7l-8.2,0.2L64.6,47z"/>
<path class="st3" d="M73.4,47.4L64,47.6l-0.2-7l9.4-0.2L73.4,47.4z M72.2,46.2l-0.1-4.5l-6.9,0.2l0.1,4.5L72.2,46.2z"/>
<path class="st4" d="M67,43.7l10.6-0.2l-0.1-5.7l-10.6,0.2L67,43.7z"/>
<path class="st5" d="M78.3,44l-11.9,0.3l-0.2-7l11.9-0.3L78.3,44z M77,42.8l-0.1-4.5l-9.4,0.2l0.1,4.5L77,42.8z"/>
<path class="st0" d="M77.4,33.2c0.7,0,1.3,0.5,1.3,1.2L79,48.3c0,0.7-0.5,1.3-1.2,1.3c-0.7,0-1.3-0.5-1.3-1.2l-0.3-13.9
	C76.2,33.8,76.7,33.2,77.4,33.2z"/>
<path class="st2" d="M37.1,59.3l19.6-0.4l0.2,7.5l-19.6,0.4L37.1,59.3z"/>
<path class="st2" d="M37.4,71.9L57,71.5l0.2,7.5l-19.6,0.4L37.4,71.9z"/>
<path class="st1" d="M37.3,68.2l29.9-0.7l0.1,2.8L37.4,71L37.3,68.2z"/>
<path class="st1" d="M37.6,80.8l29.9-0.7l0.1,2.8l-29.9,0.7L37.6,80.8z"/>
<path class="st1" d="M136.4,144.2L136.4,144.2c-1.9,1.5-4.5,1.1-6-0.7l-5.6-7.1l6.7-5.3l5.6,7.1C138.5,140,138.2,142.7,136.4,144.2z
	"/>
</svg>
