<svg width="158" height="158" viewBox="0 0 158 158" fill="none" xmlns="http://www.w3.org/2000/svg">
<mask id="mask0_14528_326630" style="mask-type:alpha" maskUnits="userSpaceOnUse" x="0" y="0" width="158" height="158">
<rect width="158" height="158" fill="#C4C4C4"/>
</mask>
<g mask="url(#mask0_14528_326630)">
<path fill-rule="evenodd" clip-rule="evenodd" d="M37.7541 98.6491C20.6893 77.1928 24.2494 45.9652 45.7058 28.9004C67.1622 11.8356 98.3898 15.3957 115.455 36.8521C132.519 58.3084 128.959 89.536 107.503 106.601C86.0465 123.666 54.8189 120.106 37.7541 98.6491ZM44.1496 26.9437C21.6126 44.868 17.8732 77.6683 35.7975 100.205C53.7217 122.742 86.522 126.482 109.059 108.557C131.596 90.6332 135.335 57.8329 117.411 35.2959C99.4869 12.7589 66.6866 9.01951 44.1496 26.9437ZM106.411 117.197C105.976 116.661 105.183 116.571 104.639 116.995C104.095 117.42 104.006 118.2 104.441 118.736L127.573 147.295C130.669 151.117 136.321 151.761 140.197 148.734C144.074 145.707 144.706 140.155 141.611 136.333L118.478 107.774C118.043 107.238 117.25 107.147 116.706 107.572C116.162 107.997 116.073 108.776 116.508 109.313L139.64 137.872C141.867 140.621 141.412 144.614 138.624 146.792C135.836 148.969 131.77 148.506 129.544 145.757L106.411 117.197Z" fill="#505050"/>
<path d="M125.042 137.529L132.488 131.715L137.303 137.658C138.946 139.686 138.61 142.631 136.554 144.237L-nan -nanL136.554 144.237C134.498 145.842 131.5 145.501 129.858 143.474L125.042 137.529Z" fill="#0066CC"/>
<path fill-rule="evenodd" clip-rule="evenodd" d="M107.011 40.5637C107.312 40.7943 107.492 41.1493 107.501 41.5288L108.815 100.423C108.83 101.113 108.283 101.685 107.593 101.701C106.903 101.716 106.331 101.169 106.315 100.479L105.036 43.1452L79.05 49.5789L80.1984 101.062C80.2138 101.752 79.6668 102.324 78.9766 102.339C78.2864 102.355 77.7144 101.808 77.699 101.117L76.5283 48.634C76.5153 48.0491 76.9097 47.5334 77.4776 47.3927L105.951 40.3433C106.319 40.2521 106.709 40.3332 107.011 40.5637Z" fill="#505050"/>
<path d="M90.4893 76.1372L85.4905 76.2487L85.5574 79.248L90.5562 79.1365L90.4893 76.1372Z" fill="#0073E6"/>
<path d="M99.4873 75.9365L94.4885 76.048L94.5555 79.0473L99.5542 78.9358L99.4873 75.9365Z" fill="#0073E6"/>
<path d="M90.6899 85.135L85.6912 85.2465L85.7581 88.2458L90.7568 88.1343L90.6899 85.135Z" fill="#0073E6"/>
<path d="M99.688 84.9341L94.6892 85.0456L94.7561 88.0448L99.7549 87.9333L99.688 84.9341Z" fill="#0073E6"/>
<path d="M90.2886 67.1394L85.2898 67.2509L85.3567 70.2502L90.3555 70.1387L90.2886 67.1394Z" fill="#0073E6"/>
<path d="M99.2866 66.9387L94.2879 67.0502L94.3548 70.0495L99.3535 69.938L99.2866 66.9387Z" fill="#0073E6"/>
<path d="M90.0879 58.1416L85.0891 58.2531L85.156 61.2524L90.1548 61.1409L90.0879 58.1416Z" fill="#0073E6"/>
<path d="M99.0859 57.9409L94.0872 58.0524L94.1541 61.0517L99.1528 60.9402L99.0859 57.9409Z" fill="#0073E6"/>
<path fill-rule="evenodd" clip-rule="evenodd" d="M105.522 64.3259C105.605 63.6405 106.227 63.1522 106.913 63.2351L122.931 65.1738C123.616 65.2567 124.105 65.8796 124.022 66.5649C123.939 67.2503 123.316 67.7386 122.63 67.6557L106.612 65.717C105.927 65.6341 105.439 65.0112 105.522 64.3259ZM77.6702 101.119C77.6548 100.428 78.2018 99.8565 78.892 99.8411L110.507 99.1359C111.198 99.1205 111.77 99.6675 111.785 100.358C111.8 101.048 111.253 101.62 110.563 101.635L78.9478 102.34C78.2576 102.356 77.6856 101.809 77.6702 101.119Z" fill="#505050"/>
<path d="M64.6131 46.9855L72.7964 46.803L72.6686 41.0747L64.4853 41.2572L64.6131 46.9855Z" fill="#27D1D6"/>
<path fill-rule="evenodd" clip-rule="evenodd" d="M73.4365 47.4153L64.0006 47.6258L63.8448 40.6448L73.2808 40.4343L73.4365 47.4153ZM72.1559 46.1905L72.056 41.7149L65.1255 41.8695L65.2253 46.3451L72.1559 46.1905Z" fill="#27D1D6"/>
<path d="M66.9956 43.6577L77.6338 43.4204L77.506 37.6921L66.8678 37.9294L66.9956 43.6577Z" fill="#0066CC"/>
<path fill-rule="evenodd" clip-rule="evenodd" d="M78.2739 44.0327L66.383 44.298L66.2273 37.317L78.1182 37.0517L78.2739 44.0327ZM76.9933 42.808L76.8934 38.3324L67.5079 38.5417L67.6077 43.0173L76.9933 42.808Z" fill="#0066CC"/>
<path fill-rule="evenodd" clip-rule="evenodd" d="M77.4025 33.1685C78.0926 33.1517 78.6657 33.6975 78.6826 34.3876L79.0218 48.2929C79.0386 48.983 78.4928 49.5561 77.8026 49.573C77.1125 49.5898 76.5394 49.044 76.5225 48.3538L76.1833 34.4486C76.1665 33.7585 76.7123 33.1853 77.4025 33.1685Z" fill="#505050"/>
<path d="M37.1011 59.3237L56.6911 58.8867L56.8576 66.3496L37.2675 66.7866L37.1011 59.3237Z" fill="#27D1D6"/>
<path d="M37.3823 71.9172L56.9724 71.4802L57.1389 78.9431L37.5488 79.3801L37.3823 71.9172Z" fill="#27D1D6"/>
<path d="M37.2988 68.1863L67.1503 67.5204L67.2128 70.319L37.3613 70.9849L37.2988 68.1863Z" fill="#0073E6"/>
<path d="M37.5801 80.7793L67.4316 80.1134L67.494 82.912L37.6425 83.5779L37.5801 80.7793Z" fill="#0073E6"/>
</g>
</svg>
