<svg width="54" height="54" viewBox="0 0 54 54" fill="none" xmlns="http://www.w3.org/2000/svg">
<path fill-rule="evenodd" clip-rule="evenodd" d="M54 0.931152L28.5261 0.931152L0 0.931152L0 53.0691H28.5261L54 53.0691L54 0.931152Z" fill="#0066CC"/>
<path fill-rule="evenodd" clip-rule="evenodd" d="M12.5934 21.8887C11.5997 21.8887 10.7816 22.2121 10.1433 22.8616C9.50503 23.5147 9.18555 24.3284 9.18555 25.309C9.18555 26.2896 9.50926 27.111 10.1518 27.7724C10.7929 28.4331 11.6103 28.7655 12.6019 28.7655C13.5914 28.7655 14.3968 28.4401 15.0195 27.7912C15.638 27.1402 15.9519 26.3293 15.9519 25.3514C15.9519 24.3743 15.638 23.5529 15.0195 22.8881C14.3968 22.2218 13.5878 21.8887 12.5934 21.8887Z" fill="white"/>
<path d="M36.7408 14.5957H42.8888L36.1896 43.4277H25.3776L18.6784 14.5957H24.8264L29.8296 38.3397H31.7376L36.7408 14.5957Z" fill="white"/>
</svg>
