<svg width="134" height="135" viewBox="0 0 134 135" fill="none" xmlns="http://www.w3.org/2000/svg">
<mask id="mask0_14528_326688" style="mask-type:alpha" maskUnits="userSpaceOnUse" x="0" y="0" width="134" height="135">
<rect width="134" height="135" fill="#C4C4C4"/>
</mask>
<g mask="url(#mask0_14528_326688)">
<path fill-rule="evenodd" clip-rule="evenodd" d="M23.9612 23.4548C18.7132 23.4548 14.4589 27.7092 14.4589 32.9572L14.458 39.0835C14.4579 39.7057 13.9534 40.2101 13.3311 40.21C12.7089 40.2099 12.2045 39.7054 12.2046 39.0831L12.2054 32.9572C12.2054 32.9571 12.2054 32.9572 12.2054 32.9572C12.2055 26.4647 17.4687 21.2014 23.9612 21.2014H119.989C126.481 21.2014 131.744 26.4646 131.744 32.9572V93.6717C131.744 100.164 126.481 105.427 119.989 105.427H23.9612C17.4687 105.427 12.2054 100.164 12.2054 93.6717V78.1787C12.2054 77.5564 12.7099 77.052 13.3322 77.052C13.9544 77.052 14.4589 77.5564 14.4589 78.1787V93.6717C14.4589 98.9197 18.7132 103.174 23.9612 103.174H119.989C125.237 103.174 129.491 98.9197 129.491 93.6717V32.9572C129.491 27.7092 125.237 23.4548 119.989 23.4548H23.9612Z" fill="#505050"/>
<path fill-rule="evenodd" clip-rule="evenodd" d="M67.5 97.1384C67.5 96.5162 68.0044 96.0117 68.6267 96.0117H75.3211C75.9434 96.0117 76.4478 96.5162 76.4478 97.1384C76.4478 97.7607 75.9434 98.2652 75.3211 98.2652H68.6267C68.0044 98.2652 67.5 97.7607 67.5 97.1384Z" fill="#505050"/>
<path fill-rule="evenodd" clip-rule="evenodd" d="M12.2046 90.6111C12.2046 89.9888 12.709 89.4844 13.3313 89.4844H130.617C131.239 89.4844 131.743 89.9888 131.743 90.6111C131.743 91.2334 131.239 91.7378 130.617 91.7378H13.3313C12.709 91.7378 12.2046 91.2334 12.2046 90.6111Z" fill="#505050"/>
<path fill-rule="evenodd" clip-rule="evenodd" d="M62.0465 102.934C62.7795 103.001 63.3186 103.651 63.2507 104.384L62.0326 117.537C61.9647 118.27 61.3155 118.809 60.5825 118.742C59.8496 118.674 59.3104 118.024 59.3783 117.291L60.5965 104.138C60.6644 103.405 61.3136 102.866 62.0465 102.934Z" fill="#505050"/>
<path fill-rule="evenodd" clip-rule="evenodd" d="M81.9208 103.139C82.5405 103.081 83.0893 103.537 83.1467 104.157L84.3648 117.31C84.4222 117.93 83.9664 118.479 83.3468 118.536C82.7272 118.594 82.1784 118.138 82.121 117.518L80.9028 104.364C80.8454 103.745 81.3012 103.196 81.9208 103.139Z" fill="#505050"/>
<path fill-rule="evenodd" clip-rule="evenodd" d="M48.0195 117.414C48.0195 116.792 48.524 116.288 49.1462 116.288H94.8018C95.4241 116.288 95.9286 116.792 95.9286 117.414C95.9286 118.037 95.4241 118.541 94.8018 118.541H49.1462C48.524 118.541 48.0195 118.037 48.0195 117.414Z" fill="#505050"/>
<path fill-rule="evenodd" clip-rule="evenodd" d="M61.7076 39.8648C61.7398 39.862 61.7721 39.8606 61.8045 39.8606H95.3252C97.4232 39.8739 99.4033 40.8524 100.64 42.5173C101.866 44.1674 102.208 46.2872 101.552 48.2239L96.9035 68.9494C96.9014 68.959 96.8991 68.9684 96.8967 68.9779C95.7795 73.4156 91.7562 76.5627 87.0792 76.7575C87.0636 76.7581 87.048 76.7584 87.0323 76.7584H50.9745C48.8259 76.8679 46.7538 75.8965 45.5167 74.1621C44.2841 72.4337 44.0693 70.2074 44.9534 68.287L51.7557 47.5637C53.1673 43.2785 57.1058 40.262 61.7076 39.8648ZM61.8543 42.114C58.1284 42.4538 55.0077 44.895 53.8962 48.2679C53.8961 48.2682 53.8963 48.2677 53.8962 48.2679L47.0733 69.0542C47.0584 69.0995 47.0407 69.1438 47.0202 69.1869C46.4535 70.3781 46.5756 71.7659 47.3514 72.8536C48.131 73.9467 49.4669 74.5861 50.8813 74.5068C50.9023 74.5056 50.9234 74.505 50.9444 74.505H87.0081C90.7273 74.3406 93.8442 71.846 94.708 68.4415L99.3673 47.6696C99.3769 47.6267 99.389 47.5845 99.4035 47.5431C99.8386 46.3034 99.6304 44.9363 98.8316 43.8613C98.0305 42.7832 96.7257 42.124 95.3144 42.114H61.8543Z" fill="#505050"/>
<path d="M85.6663 62.1137L83.6671 68.1113C83.3794 68.9743 84.0218 69.8656 84.9315 69.8656H87.8972C88.4708 69.8656 88.9801 69.4985 89.1616 68.9543L91.1608 62.9567C91.4484 62.0936 90.8061 61.2024 89.8964 61.2024H86.9307C86.357 61.2024 85.8477 61.5695 85.6663 62.1137Z" fill="#0073E6"/>
<path fill-rule="evenodd" clip-rule="evenodd" d="M55.3512 42.4696C55.8152 42.055 56.5275 42.0951 56.9421 42.5592L72.7777 60.2848L98.9884 42.384C99.5023 42.0331 100.203 42.1651 100.554 42.679C100.905 43.1929 100.773 43.8939 100.259 44.2449L73.2318 62.7034C72.7646 63.0225 72.1331 62.9456 71.7562 62.5236L55.2616 44.0605C54.847 43.5964 54.8871 42.8842 55.3512 42.4696Z" fill="#505050"/>
<path fill-rule="evenodd" clip-rule="evenodd" d="M8.6665 69.8657C8.6665 68.7615 9.56158 67.8665 10.6657 67.8665H22.2166C23.3208 67.8665 24.2158 68.7615 24.2158 69.8657C24.2158 70.9698 23.3208 71.8649 22.2166 71.8649H10.6657C9.56158 71.8649 8.6665 70.9698 8.6665 69.8657Z" fill="#0073E6"/>
<path fill-rule="evenodd" clip-rule="evenodd" d="M8.6665 58.3137C8.6665 57.2095 9.56158 56.3145 10.6657 56.3145H33.7676C34.8717 56.3145 35.7668 57.2095 35.7668 58.3137C35.7668 59.4178 34.8717 60.3129 33.7676 60.3129H10.6657C9.56158 60.3129 8.6665 59.4178 8.6665 58.3137Z" fill="#27D1D6"/>
<path fill-rule="evenodd" clip-rule="evenodd" d="M8.6665 46.7616C8.6665 45.6575 9.56158 44.7625 10.6657 44.7625H45.5317C46.6359 44.7625 47.5309 45.6575 47.5309 46.7616C47.5309 47.8658 46.6359 48.7608 45.5317 48.7608H10.6657C9.56158 48.7608 8.6665 47.8658 8.6665 46.7616Z" fill="#0073E6"/>
</g>
</svg>
