<svg width="141" height="48" viewBox="0 0 141 48" fill="none" xmlns="http://www.w3.org/2000/svg">
<g clip-path="url(#clip0_1264:22221)">
<path d="M26.2111 33.1588H29.4617C31.2147 33.1588 33.0231 32.7348 34.3527 31.5485L33.8438 34.1479C33.08 34.2052 32.1476 34.2888 31.1293 34.2888H22.9609C23.583 33.3287 23.6675 31.8583 23.6675 30.586V19.9591C23.6675 18.6863 23.6675 17.2159 23.0459 16.2549H32.911L33.0231 18.4318C32.034 17.584 30.5077 17.3859 28.8401 17.3859H26.2111V24.1416C28.3876 24.1416 30.6777 24.1416 32.8541 23.9439C31.8645 25.5552 28.6702 25.5552 26.9181 25.5552H26.2111V33.1588ZM39.7177 30.586C39.7177 31.8583 39.7177 33.3287 40.3392 34.2888H36.5515C37.1731 33.3287 37.1731 31.8583 37.1731 30.586V19.9591C37.1731 18.6863 37.2299 17.2159 36.6079 16.2549H45.3716C46.0767 16.2549 46.671 16.2549 46.671 16.5093V18.715H46.5302C45.7392 17.4135 43.9584 17.3859 42.6293 17.3859H39.7177V24.6505C41.8937 24.6505 44.1833 24.6505 46.3593 24.4524C45.3716 26.0636 42.1768 26.0636 40.4242 26.0636H39.7177V30.586Z" fill="#003796"/>
<path d="M9.99779 14.6312C9.95634 14.7308 9.95392 14.8423 9.991 14.9435C10.0281 15.0448 10.1019 15.1283 10.1979 15.1775C10.2453 15.2003 10.2967 15.2135 10.3493 15.2164C10.4018 15.2192 10.4544 15.2116 10.504 15.1941C10.5536 15.1765 10.5992 15.1493 10.6383 15.1141C10.6773 15.0788 10.709 15.0362 10.7315 14.9886C10.7879 14.875 16.5491 3.61192 30.5913 3.61192C45.2415 3.61192 51.1935 15.6471 51.6723 23.7368C51.9302 28.0946 50.4486 33.496 47.6782 37.8324C45.3094 41.5405 41.0138 46.1659 33.9939 47.1405C33.7729 47.172 33.6171 47.392 33.6452 47.6212C33.6729 47.8504 33.8735 48.0243 34.0949 47.9971C45.7591 46.5694 54.6345 36.2892 54.6345 24.086C54.6345 10.828 44.1814 0.0388483 31.4178 0H31.2551C21.9805 0.0388483 13.6437 5.77189 9.9973 14.6312H9.99779Z" fill="#C4930A"/>
<path d="M9.17111 34.5897C12.2955 41.7718 19.0638 47.029 27.2705 47.9973C27.4871 48.023 27.6833 47.8603 27.71 47.6442C27.7234 47.5395 27.6954 47.4337 27.6319 47.3493C27.5684 47.265 27.4744 47.2087 27.3701 47.1926C20.524 46.2758 15.937 42.1686 13.627 38.6839C12.1882 36.5132 11.0892 34.0595 10.4094 31.6208L15.4912 19.6195C15.5753 19.3928 15.6607 19.1951 15.8584 19.1951C16.056 19.1951 16.056 19.5341 16.056 19.8167V29.202C16.056 30.785 16.056 32.8765 15.5476 34.2887H19.7024C19.0808 33.1587 18.9677 31.8582 18.8269 30.5859C18.4588 27.195 18.6006 23.6612 18.6006 20.2688C18.6006 18.8557 18.5151 17.3294 19.1663 16.2548H16.2823C15.5753 16.2548 15.3786 16.8487 15.1236 17.4421L10.2326 29.2301C10.0637 29.6254 9.97867 29.9085 9.72422 29.9085C9.49841 29.9085 9.41343 29.4278 9.27212 29.0038L5.25715 16.6792C5.14352 16.3116 4.71958 16.2548 4.38063 16.2548H0.707039C1.38543 16.6792 1.41359 17.0745 1.41359 17.8379V24.9044C1.41359 27.9579 1.29996 32.4244 0.254942 33.922L0 34.2892H3.36378C2.7422 33.3568 2.7422 31.5198 2.7422 29.3151L2.77037 20.1275C2.77037 19.7036 2.77037 19.1951 3.02434 19.1951C3.27928 19.1951 3.47692 19.873 3.7882 20.6927L9.17111 34.5897ZM74.0648 3.66406C73.754 4.17637 73.7914 4.90672 73.7914 5.58074C73.7914 7.19586 73.7253 8.87945 73.8997 10.496C73.9691 11.104 74.023 11.7227 74.3207 12.2617H72.3346C72.5793 11.5896 72.5793 10.5931 72.5793 9.83706V5.36416C72.5793 5.23013 72.5793 5.0694 72.4871 5.0694C72.3953 5.0694 72.354 5.15924 72.3113 5.26995L69.2894 12.401L66.7336 5.78178C66.5831 5.38941 66.4894 5.0694 66.3694 5.0694C66.2456 5.0694 66.2456 5.3122 66.2456 5.51276L66.2344 9.89048C66.2344 10.9438 66.2344 11.8212 66.5297 12.2617H64.9272L65.0486 12.0898C65.5487 11.3735 65.6007 9.24802 65.6007 7.78975V4.41966C65.6007 4.054 65.5852 3.86462 65.2608 3.66406H66.9332C67.0983 3.66406 67.2979 3.69466 67.3537 3.86462L69.3452 9.74188C69.4146 9.94438 69.4554 10.1775 69.5598 10.1775C69.6842 10.1775 69.7264 10.0391 69.806 9.85114L72.1384 4.23125C72.2559 3.95057 72.354 3.66406 72.6876 3.66406H74.0648ZM76.4879 3.80052L77.1095 4.70374L76.1373 5.33454L75.5177 4.45851L76.4879 3.80052ZM76.8264 6.03284V10.8097C76.8264 11.3089 76.8264 11.8853 77.0712 12.2617H75.5881C75.8251 11.8853 75.8251 11.3089 75.8251 10.8097V7.17012C75.8173 6.71026 75.8173 6.43929 75.5337 6.25039L76.8264 6.03284ZM79.8182 6.16881V6.64373C79.8182 6.75445 79.8027 6.86079 79.8998 6.86079C80.0212 6.86079 80.6127 6.03284 81.6635 6.03284C82.6765 6.03284 83.3112 6.53592 83.3112 7.78975V10.8097C83.3112 11.3089 83.3112 11.8853 83.5248 12.2617H82.3099V8.56866C82.3099 7.71351 82.1938 6.76853 81.1128 6.76853C80.0474 6.76853 79.8435 7.72128 79.8435 8.6381V10.8097C79.8435 11.3089 79.8435 11.8853 80.0853 12.2617H78.6052C78.847 11.8853 78.847 11.3089 78.847 10.8097V7.59988C78.847 7.04824 78.847 6.52038 78.5634 6.25039L79.8182 6.16881ZM85.9791 3.80052L86.5958 4.70374L85.6256 5.33454L85.003 4.45851L85.9791 3.80052ZM86.3151 6.03284V10.8097C86.3151 11.3089 86.3151 11.8853 86.554 12.2617H85.0763C85.3172 11.8853 85.3172 11.3089 85.3172 10.8097V7.17012C85.2992 6.71026 85.2992 6.43929 85.0185 6.25039L86.3151 6.03284ZM91.9199 10.5543C91.9199 11.8334 90.6787 12.4773 89.5356 12.4773C88.9961 12.4773 88.5333 12.3724 88.039 12.1825C87.8894 12.1301 87.8117 12.0771 87.8117 11.8853C87.8117 11.5639 87.8627 11.2375 87.8749 10.9005C88.2954 11.5741 88.631 11.9946 89.5196 11.9946C90.3136 11.9946 90.7841 11.6124 90.7841 10.85C90.7841 9.20335 88.1216 9.47383 88.1216 7.48091C88.1216 6.46794 88.9005 6.03284 90.1674 6.03284C90.5695 6.03284 90.9861 6.10034 91.3931 6.19746C91.4339 6.21203 91.5713 6.23728 91.5713 6.31643C91.5713 6.56312 91.5543 6.95451 91.5407 7.23665C91.0162 6.57574 90.7472 6.43929 90.1266 6.43929C89.6031 6.43929 89.1136 6.68646 89.1136 7.2619C89.1136 8.86731 91.9204 8.67695 91.9204 10.5543H91.9199ZM94.3975 4.33905V6.25039H95.5023C95.5566 6.25039 95.6222 6.25039 95.6222 6.34654C95.6222 6.63304 95.0574 6.73648 94.6252 6.73648H94.3975V10.8738C94.3975 11.3211 94.4631 11.6984 95.0026 11.6984C95.2454 11.6984 95.679 11.5226 95.8266 11.3735L95.7737 11.9553C95.7606 12.0771 95.1249 12.4773 94.6136 12.4773C93.7249 12.4773 93.4025 11.8994 93.4025 11.0783V6.73696H92.8353V6.30866L93.4025 6.25039L93.4549 4.59351L94.3975 4.33905ZM97.888 8.3817C97.8613 8.63859 97.8365 8.85468 97.8365 9.13682C97.8365 10.3877 98.3998 11.5891 99.8032 11.5891C100.463 11.5891 101.11 11.3211 101.434 10.9554V11.104C101.434 11.8212 100.299 12.4773 99.305 12.4773C97.5389 12.4773 96.7022 10.885 96.7022 9.26065C96.7022 7.50519 97.6734 6.03284 99.5163 6.03284C100.814 6.03284 101.579 6.88653 101.579 7.76353C101.579 8.3817 101.135 8.3817 100.299 8.3817H97.888ZM99.3589 7.97768C100.018 7.97768 100.367 7.97768 100.367 7.46343C100.367 6.96763 100.003 6.4388 99.3419 6.4388C98.4975 6.4388 98.1318 7.26239 97.9686 7.97768H99.3589ZM102.925 8.40744C102.925 7.44934 102.925 6.52087 102.579 6.23679C103.08 6.22514 103.546 6.16881 103.712 6.16881C103.954 6.16881 103.805 6.84525 103.954 6.84525C104.017 6.84525 104.466 6.03284 105.261 6.03284C105.73 6.03284 105.999 6.22514 105.999 6.54661C105.999 6.80058 105.867 6.98948 105.529 6.98948C105.277 6.98948 105.005 6.955 104.681 6.955C104.007 6.955 103.928 7.42506 103.928 8.01653V10.7932C103.928 11.2958 103.928 11.8713 104.166 12.2617H102.686C102.925 11.8717 102.925 11.2953 102.925 10.7932V8.40744ZM109.117 12.4778C107.256 12.4778 106.512 10.9554 106.512 9.48742C106.512 7.39836 107.671 6.03284 109.694 6.03284C111.554 6.03284 112.296 7.55861 112.296 9.0295C112.296 11.1191 111.138 12.4773 109.117 12.4773V12.4778ZM109.56 11.9941C110.826 11.9941 111.162 10.7417 111.162 9.62097C111.162 8.04275 110.676 6.52038 109.251 6.52038C107.98 6.52038 107.646 7.77616 107.646 8.89304C107.646 10.4693 108.132 11.9941 109.56 11.9941ZM69.201 28.6314L69.1413 28.1181C69.1413 28.0754 69.133 27.9943 69.0757 27.9943C68.9825 27.9943 68.4988 28.6829 67.2586 28.6829C65.6575 28.6829 64.9422 27.0959 64.9422 25.6779C64.9422 23.5219 66.3291 22.2438 68.4575 22.2438C68.6998 22.2438 68.9286 22.27 69.1592 22.2923V20.5956C69.1592 20.0435 69.1592 19.5166 68.863 19.249L70.1547 19.0349V27.0114C70.1547 27.5237 70.1547 28.1001 70.3975 28.4687L69.201 28.6314ZM69.1592 23.6957C69.1592 23.0625 69.0087 22.7269 68.3245 22.7269C66.8288 22.7269 66.0212 23.8584 66.0212 25.3977C66.0212 26.6195 66.6112 27.9821 67.9976 27.9821C68.7795 27.9821 69.1592 27.3873 69.1592 26.638V23.6957ZM72.6755 24.5873C72.6497 24.8408 72.6221 25.0603 72.6221 25.3438C72.6221 26.5938 73.1892 27.7927 74.5892 27.7927C75.2477 27.7927 75.897 27.5237 76.2189 27.161V27.3091C76.2189 28.0234 75.0855 28.6833 74.0905 28.6833C72.3234 28.6833 71.4925 27.0954 71.4925 25.4638C71.4925 23.7122 72.4599 22.2433 74.3066 22.2433C75.5983 22.2433 76.3695 23.0882 76.3695 23.9672C76.3695 24.5873 75.9246 24.5873 75.0855 24.5873H72.6755ZM74.1434 24.1813C74.8053 24.1813 75.1535 24.1813 75.1535 23.6695C75.1535 23.1708 74.7912 22.6449 74.1333 22.6449C73.2825 22.6449 72.9192 23.4636 72.7571 24.1813H74.1434ZM77.5757 28.4692C77.8224 28.0919 77.8224 27.5106 77.8224 27.0114V20.5956C77.8224 20.043 77.8224 19.5166 77.4718 19.2495L78.8252 19.0349V27.0114C78.8252 27.5106 78.8252 28.0919 79.0631 28.4692H77.5757ZM80.8288 28.4692C81.074 28.0919 81.074 27.5106 81.074 27.0114V20.5956C81.074 20.043 81.074 19.5166 80.7195 19.2495L82.0695 19.0349V27.0114C82.0695 27.5106 82.0695 28.0919 82.3099 28.4692H80.8288ZM84.4533 22.6968C84.3887 22.219 84.1969 20.4456 84.1969 20.1668C84.1969 19.926 84.3343 19.6584 84.6961 19.6584C85.0593 19.6584 85.1929 19.9255 85.1929 20.1663C85.1929 20.4456 85.0181 22.219 84.9413 22.6963C84.9282 22.7629 84.9151 23.0231 84.6961 23.0231C84.4786 23.0231 84.4693 22.7629 84.4533 22.6968ZM88.427 27.9258H89.978C90.8094 27.9258 91.6776 27.7248 92.308 27.161L92.069 28.3959C91.7029 28.4255 91.2571 28.4687 90.7715 28.4687H86.8794C87.1751 28.0069 87.2169 27.3091 87.2169 26.7016V21.6377C87.2169 21.0268 87.2169 20.3276 86.9182 19.8711H91.6213L91.6776 20.9069C91.2032 20.5033 90.4767 20.4116 89.6837 20.4116H88.427V23.6326C89.4638 23.6326 90.5603 23.6326 91.597 23.5335C91.1245 24.3022 89.6031 24.3022 88.766 24.3022H88.427V27.9258ZM97.6574 23.7681H97.5918C97.2684 23.1465 97.0285 22.7264 96.2452 22.7264C95.0434 22.7264 94.3854 23.9672 94.3854 25.4458C94.3854 26.7939 94.8831 27.9258 96.3666 27.9258C96.8644 27.9258 97.4563 27.7252 97.8365 27.3198V27.5359C97.8365 28.2361 96.893 28.6829 95.866 28.6829C94.1698 28.6829 93.1709 27.296 93.1709 25.6634C93.1709 23.7229 94.4252 22.2438 96.4196 22.2438C97.0814 22.2438 97.6574 22.3763 97.6574 22.4283V23.7681ZM101.11 28.6829C99.2506 28.6829 98.5081 27.161 98.5081 25.6901C98.5081 23.6 99.6639 22.2438 101.69 22.2438C103.546 22.2438 104.291 23.7676 104.291 25.2312C104.291 27.3203 103.131 28.6829 101.11 28.6829H101.11ZM101.554 28.1973C102.819 28.1973 103.157 26.9444 103.157 25.8251C103.157 24.2464 102.672 22.7269 101.245 22.7269C99.9761 22.7269 99.6396 23.9832 99.6396 25.0967C99.6396 26.6715 100.125 28.1968 101.554 28.1968V28.1973ZM106.495 22.3763V22.8464C106.495 22.9556 106.485 23.063 106.579 23.063C106.7 23.063 107.293 22.2438 108.344 22.2438C109.356 22.2438 109.988 22.7366 109.988 23.9953V27.0114C109.988 27.5106 109.988 28.0919 110.201 28.4687H108.995V24.7718C108.995 23.9123 108.873 22.9649 107.791 22.9649C106.725 22.9649 106.525 23.9249 106.525 24.8408V27.0114C106.525 27.5106 106.525 28.0919 106.77 28.4687H105.284C105.527 28.0919 105.527 27.5106 105.527 27.0114V23.8069C105.527 23.2509 105.527 22.7264 105.248 22.4564L106.495 22.3763ZM113.833 28.6829C111.972 28.6829 111.23 27.161 111.23 25.6901C111.23 23.6 112.391 22.2438 114.409 22.2438C116.272 22.2438 117.012 23.7637 117.012 25.2312C117.012 27.3203 115.851 28.6829 113.833 28.6829ZM114.271 28.1973C115.543 28.1973 115.877 26.9444 115.877 25.8251C115.877 24.2464 115.395 22.7269 113.966 22.7269C112.697 22.7269 112.362 23.9832 112.362 25.0967C112.362 26.6715 112.847 28.1968 114.271 28.1968V28.1973ZM118.223 23.8064C118.223 23.2504 118.223 22.7269 117.942 22.4564L119.3 22.3763V22.8464C119.3 22.9556 119.3 23.0625 119.383 23.0625C119.46 23.0625 120.189 22.2433 121.054 22.2433C122.228 22.2433 122.31 23.3043 122.494 23.3043C122.654 23.3043 123.21 22.2433 124.178 22.2433C125.083 22.2433 125.716 22.7366 125.716 23.9953V27.0114C125.716 27.5106 125.716 28.0919 125.933 28.4692H124.719V24.7718C124.719 23.9123 124.598 22.9654 123.696 22.9654C122.616 22.9654 122.469 23.8865 122.469 24.9117V27.0114C122.469 27.5106 122.469 28.0919 122.713 28.4692H121.228C121.47 28.0919 121.47 27.5106 121.47 27.0114V24.7718C121.47 23.9123 121.352 22.9654 120.448 22.9654C119.367 22.9654 119.223 23.8865 119.223 24.9117V27.0114C119.223 27.5106 119.223 28.0919 119.46 28.4692H117.982C118.223 28.0919 118.223 27.5106 118.223 27.0114V23.8064ZM128.372 20.0071L128.99 20.9064L128.022 21.5406L127.404 20.6636L128.372 20.0071ZM128.707 22.2433V27.0114C128.707 27.5106 128.707 28.0919 128.953 28.4687H127.47C127.712 28.0919 127.712 27.5106 127.712 27.0114V23.3708C127.694 22.9153 127.694 22.6453 127.415 22.4564L128.707 22.2433ZM133.791 28.5479C133.67 28.0487 133.684 27.7126 133.574 27.7126C133.518 27.7126 133.504 27.7374 133.489 27.7534C133.144 28.2633 132.862 28.6829 131.916 28.6829C130.984 28.6829 130.246 28.1705 130.246 27.1872C130.246 26.0159 131.764 25.5279 132.671 25.0972C133.438 24.7315 133.628 24.7082 133.628 23.8322C133.628 23.1567 133.371 22.6453 132.576 22.6453C131.296 22.6453 131.822 23.9346 130.944 23.9346C130.65 23.9346 130.447 23.7899 130.447 23.4636C130.447 22.5507 131.805 22.2438 132.846 22.2438C133.801 22.2438 134.626 22.4564 134.626 23.333V26.2956C134.626 27.0959 134.584 27.9137 135.003 28.4687L133.791 28.5479ZM132.412 27.9258C133.223 27.9258 133.627 27.2037 133.627 26.4331V25.0685L132.899 25.4376C131.902 25.9329 131.377 26.2019 131.377 26.973C131.377 27.6189 131.805 27.9258 132.412 27.9258ZM66.1936 40.7899C66.165 41.0473 66.1373 41.2605 66.1373 41.5407C66.1373 42.796 66.7074 43.9998 68.1079 43.9998C68.7654 43.9998 69.4142 43.7278 69.7371 43.3636V43.5127C69.7371 44.2251 68.6061 44.887 67.6096 44.887C65.8455 44.887 65.0058 43.2981 65.0058 41.6669C65.0058 39.9129 65.9795 38.4435 67.8238 38.4435C69.1145 38.4435 69.8867 39.2938 69.8867 40.1698C69.8867 40.7899 69.4428 40.7899 68.6061 40.7899H66.1936ZM67.6626 40.3859C68.325 40.3859 68.6746 40.3859 68.6746 39.8726C68.6746 39.3759 68.3118 38.8519 67.649 38.8519C66.8006 38.8519 66.4384 39.6711 66.2747 40.3859H67.6626ZM78.4313 44.8326L78.3765 44.3193C78.3765 44.2814 78.3614 44.2003 78.3085 44.2003C78.2152 44.2003 77.7267 44.8875 76.4879 44.8875C74.884 44.8875 74.1702 43.2976 74.1702 41.8816C74.1702 39.7255 75.5575 38.4435 77.6908 38.4435C77.9316 38.4435 78.1604 38.4712 78.3915 38.4979V36.8012C78.3915 36.2471 78.3915 35.7227 78.0938 35.4498L79.3855 35.2361V43.2199C79.3855 43.7278 79.3855 44.3076 79.6293 44.6723L78.4313 44.8326ZM78.3915 39.9018C78.3915 39.2671 78.2434 38.932 77.5553 38.932C76.0577 38.932 75.2477 40.0683 75.2477 41.599C75.2477 42.8266 75.8411 44.1843 77.2309 44.1843C78.0113 44.1843 78.3915 43.5899 78.3915 42.8387V39.9018ZM81.9083 40.7899C81.8811 41.0473 81.8514 41.2605 81.8514 41.5407C81.8514 42.796 82.4167 43.9998 83.8215 43.9998C84.4786 43.9998 85.1264 43.7278 85.4537 43.3636V43.5127C85.4537 44.2251 84.3164 44.887 83.3252 44.887C81.5557 44.887 80.719 43.2981 80.719 41.6669C80.719 39.9129 81.6922 38.4435 83.537 38.4435C84.8326 38.4435 85.6008 39.2938 85.6008 40.1698C85.6008 40.7899 85.155 40.7899 84.3164 40.7899H81.9083ZM83.3748 40.3859C84.0357 40.3859 84.3887 40.3859 84.3887 39.8726C84.3887 39.3759 84.0226 38.8519 83.3607 38.8519C82.5133 38.8519 82.1481 39.6711 81.9879 40.3859H83.3748ZM86.8109 44.6723C87.0566 44.2916 87.0566 43.7162 87.0566 43.2204V36.8017C87.0566 36.2471 87.0566 35.7227 86.7026 35.4498L88.0526 35.2361V43.2204C88.0526 43.7162 88.0526 44.2916 88.2944 44.6723H86.8109ZM90.0591 44.6723C90.2971 44.2916 90.2971 43.7162 90.2971 43.2204V36.8017C90.2971 36.2471 90.2971 35.7227 89.9533 35.4498L91.2969 35.2361V43.2165C91.2969 43.7167 91.2969 44.2916 91.5407 44.6723H90.0591ZM94.1435 40.7899C94.1149 41.0473 94.0853 41.2605 94.0853 41.5407C94.0853 42.796 94.6534 43.9998 96.0583 43.9998C96.7158 43.9998 97.3636 43.7278 97.687 43.3636V43.5127C97.687 44.2251 96.558 44.887 95.5566 44.887C93.7924 44.887 92.9567 43.2981 92.9567 41.6669C92.9567 39.9129 93.9279 38.4435 95.7737 38.4435C97.0683 38.4435 97.8365 39.2938 97.8365 40.1698C97.8365 40.7899 97.3898 40.7899 96.558 40.7899H94.1435ZM95.6125 40.3859C96.2714 40.3859 96.6206 40.3859 96.6206 39.8726C96.6206 39.3759 96.2564 38.8519 95.5974 38.8519C94.7476 38.8519 94.3844 39.6711 94.2232 40.3859H95.6125ZM103.834 42.9062C103.834 43.5132 103.834 44.2134 104.13 44.6723H102.32C102.62 44.2134 102.62 43.5127 102.62 42.9062V37.8404C102.62 37.2334 102.647 36.5307 102.348 36.0728H106.525C106.865 36.0728 107.147 36.0728 107.147 36.1966V37.2431H107.079C106.7 36.6278 105.853 36.6118 105.217 36.6118H103.833V40.0742C104.868 40.0742 105.96 40.0742 106.999 39.9833C106.525 40.7501 105.005 40.7501 104.165 40.7501H103.834V42.9062ZM109.422 36.2068L110.04 37.11L109.075 37.7462L108.452 36.8711L109.422 36.2068ZM109.76 38.444V43.216C109.76 43.7162 109.76 44.2916 110.003 44.6728H108.523C108.762 44.2916 108.762 43.7162 108.762 43.216V39.5779C108.75 39.1204 108.75 38.8524 108.468 38.661L109.76 38.444ZM112.751 38.579V39.0486C112.751 39.1627 112.74 39.2671 112.838 39.2671C112.954 39.2671 113.545 38.444 114.599 38.444C115.613 38.444 116.241 38.9442 116.241 40.196V43.2165C116.241 43.7167 116.241 44.2916 116.459 44.6723H115.246V40.9793C115.246 40.1149 115.123 39.1709 114.049 39.1709C112.984 39.1709 112.78 40.1319 112.78 41.0468V43.216C112.78 43.7162 112.78 44.2916 113.022 44.6728H111.543C111.783 44.2916 111.783 43.7162 111.783 43.216V40.0101C111.783 39.4584 111.783 38.932 111.501 38.661L112.751 38.579ZM121.081 44.751C120.958 44.2576 120.972 43.9197 120.867 43.9197C120.813 43.9197 120.797 43.9439 120.786 43.959C120.434 44.4718 120.151 44.8841 119.207 44.8841C118.279 44.8841 117.535 44.3756 117.535 43.3894C117.535 42.2196 119.058 41.7339 119.964 41.3061C120.73 40.939 120.919 40.9128 120.919 40.0368C120.919 39.3608 120.664 38.8519 119.868 38.8519C118.588 38.8519 119.114 40.1417 118.236 40.1417C117.942 40.1417 117.738 39.996 117.738 39.6706C117.738 38.7553 119.104 38.444 120.14 38.444C121.096 38.444 121.915 38.661 121.915 39.5356V42.5017C121.915 43.2981 121.874 44.1187 122.295 44.6723L121.081 44.751ZM119.708 44.1328C120.512 44.1328 120.919 43.402 120.919 42.6372V41.2731L120.189 41.6383C119.196 42.1385 118.668 42.407 118.668 43.1767C118.668 43.8216 119.104 44.1328 119.708 44.1328ZM124.476 38.579V39.0486C124.476 39.1627 124.46 39.2671 124.558 39.2671C124.68 39.2671 125.272 38.444 126.319 38.444C127.333 38.444 127.969 38.9442 127.969 40.196V43.2165C127.969 43.7167 127.969 44.2916 128.183 44.6723H126.969V40.9793C126.969 40.1149 126.848 39.1709 125.768 39.1709C124.707 39.1709 124.501 40.1319 124.501 41.0468V43.216C124.501 43.7162 124.501 44.2916 124.749 44.6728H123.263C123.507 44.2916 123.507 43.7162 123.507 43.216V40.0101C123.507 39.4584 123.507 38.932 123.219 38.661L124.476 38.579ZM134.353 38.661L130.448 44.026C130.419 44.0639 130.38 44.1047 130.38 44.1726C130.38 44.2406 130.434 44.2406 130.541 44.2406H132.304C133.209 44.2406 134.071 44.009 134.584 43.4977L134.382 44.6728H128.84L132.738 39.3603C132.792 39.2807 132.845 39.1986 132.845 39.1471C132.845 39.0923 132.753 39.0923 132.632 39.0923H131.105C130.406 39.0923 129.947 39.3074 129.446 39.6978L129.613 38.661H134.353ZM136.552 40.7899C136.522 41.0473 136.496 41.2605 136.496 41.5407C136.496 42.796 137.059 43.9998 138.464 43.9998C139.125 43.9998 139.772 43.7278 140.097 43.3636V43.5127C140.097 44.2251 138.965 44.8841 137.965 44.8841C136.201 44.8841 135.367 43.2981 135.367 41.6669C135.367 39.9129 136.338 38.4435 138.179 38.4435C139.474 38.4435 140.243 39.2938 140.243 40.1698C140.243 40.7899 139.799 40.7899 138.965 40.7899H136.552ZM138.019 40.3859C138.68 40.3859 139.029 40.3859 139.029 39.8726C139.029 39.3759 138.668 38.8519 138.007 38.8519C137.156 38.8519 136.797 39.6711 136.632 40.3859H138.019Z" fill="#003796"/>
</g>
<defs>
<clipPath id="clip0_1264:22221">
<rect width="140.242" height="48" fill="white"/>
</clipPath>
</defs>
</svg>
