<svg width="104" height="48" viewBox="0 0 104 48" fill="none" xmlns="http://www.w3.org/2000/svg">
<path fill-rule="evenodd" clip-rule="evenodd" d="M103.8 0H54.8334H0V48H54.8334H103.8V0Z" fill="#0066CC"/>
<path fill-rule="evenodd" clip-rule="evenodd" d="M11.7687 18.6953C10.8873 18.6953 10.1617 18.993 9.59558 19.5911C9.02946 20.1923 8.74609 20.9414 8.74609 21.8442C8.74609 22.747 9.03322 23.5032 9.60309 24.1121C10.1717 24.7203 10.8967 25.0264 11.7762 25.0264C12.6539 25.0264 13.3682 24.7267 13.9206 24.1294C14.4692 23.5301 14.7476 22.7835 14.7476 21.8833C14.7476 20.9837 14.4692 20.2275 13.9206 19.6154C13.3682 19.002 12.6507 18.6953 11.7687 18.6953Z" fill="white"/>
<path d="M20.0195 36.6003V12.5283H28.3385L32.5865 30.0867L36.8345 12.5283H45.1535V36.6003H40.2683V17.9799H39.7373L35.0291 35.5383H30.1439L25.4357 17.9799H24.9047V36.6003H20.0195Z" fill="white"/>
<path d="M50.4068 36.6003V12.5283H55.292V36.6003H50.4068Z" fill="white"/>
<path d="M58.3765 16.8471V12.5283H76.0765V16.8471H69.7045V36.6003H64.8193V16.8471H58.3765Z" fill="white"/>
<path d="M87.2759 36.6003H79.1693V12.5283H87.2759C89.3527 12.5283 91.0637 12.7525 92.4089 13.2009C93.7541 13.6257 94.7925 14.3455 95.5241 15.3603C96.2793 16.3515 96.7985 17.5315 97.0817 18.9003C97.3649 20.2455 97.5065 22.0037 97.5065 24.1749C97.5065 26.3461 97.3767 28.1515 97.1171 29.5911C96.8575 31.0071 96.3619 32.2815 95.6303 33.4143C94.9223 34.5235 93.8839 35.3377 92.5151 35.8569C91.1463 36.3525 89.3999 36.6003 87.2759 36.6003ZM92.4089 27.0423C92.4561 26.2871 92.4797 25.2487 92.4797 23.9271C92.4797 22.5819 92.4325 21.5081 92.3381 20.7057C92.2437 19.9033 92.0195 19.1717 91.6655 18.5109C91.3115 17.8501 90.7805 17.4017 90.0725 17.1657C89.3881 16.9061 88.4559 16.7763 87.2759 16.7763H84.0545V32.3523H87.2759C89.0459 32.3523 90.3321 31.9039 91.1345 31.0071C91.8189 30.2755 92.2437 28.9539 92.4089 27.0423Z" fill="white"/>
</svg>
