<svg width="353" height="48" viewBox="0 0 353 48" fill="none" xmlns="http://www.w3.org/2000/svg">
<path fill-rule="evenodd" clip-rule="evenodd" d="M42.4794 22.4548C42.6144 21.5367 42.5226 20.9589 42.1986 20.7213C41.8746 20.4837 41.4425 20.5647 40.9511 20.9535C40.6649 20.8023 40.2761 20.9535 39.7846 21.3855C39.8597 21.1984 39.8597 20.9894 39.7846 20.8023C40.1339 20.6743 40.433 20.4377 40.6379 20.1272C40.7873 19.7592 40.8537 19.3628 40.8323 18.9662C41.0283 18.3444 41.3277 17.7602 41.718 17.238C42.078 16.4064 41.8152 16.1165 40.9295 16.3686C41.1225 16.2363 41.2873 16.0669 41.4144 15.8704C41.5414 15.6738 41.628 15.454 41.6694 15.2237C41.6686 14.804 41.5343 14.3955 41.2859 14.0572C41.1671 13.7818 40.9889 13.7332 40.7459 13.9006C40.8384 13.7105 40.8864 13.5018 40.8863 13.2903C40.8148 12.7671 40.656 12.2597 40.4165 11.789C40.3697 10.7882 40.132 10.3723 39.7036 10.5415C39.6355 10.0124 39.4629 9.50213 39.196 9.04024C38.7855 8.43 38.4669 8.26799 38.2293 8.55961C37.5651 7.57134 36.9494 7.16631 36.3716 7.33372C36.3557 6.9153 36.2041 6.51343 35.9395 6.18884C35.8594 5.70501 35.6752 5.24436 35.3995 4.83875C35.0917 4.71994 34.8595 4.89275 34.7623 5.37879C34.7041 4.97224 34.5838 4.57702 34.4058 4.2069C34.3379 4.02384 34.2168 3.8653 34.058 3.75172C33.8992 3.63815 33.71 3.57473 33.5148 3.56965C33.3665 3.55378 33.2168 3.57999 33.0827 3.64526C32.8807 3.50133 32.644 3.41373 32.3969 3.39144C31.8209 2.783 31.2952 2.73259 30.82 3.24023L30.739 2.70019C30.5716 2.07375 30.2313 1.93334 29.7237 2.28977C29.1111 1.59824 28.3794 1.0221 27.5636 0.588644C27.0721 0.415832 26.7481 0.459032 26.5969 0.71285C26.3762 0.478483 26.0934 0.311776 25.7814 0.232217C25.4952 0.162012 25.2414 0.0864061 24.966 0C24.5771 0 24.4259 0.194414 24.4583 0.637245C24.0173 0.622877 23.5811 0.733322 23.2 0.95587C23.0876 1.04067 23.0082 1.16205 22.9757 1.29909C22.9432 1.43613 22.9595 1.58022 23.0218 1.70652C23.0887 1.881 23.1895 2.04051 23.3183 2.17583C23.4471 2.31116 23.6015 2.41964 23.7725 2.49498C23.6638 2.65269 23.6176 2.84516 23.6429 3.03502C23.6429 3.28884 23.9345 3.49945 24.4583 3.67226C24.8341 3.76668 25.2274 3.76668 25.6032 3.67226C25.572 3.74701 25.5581 3.82782 25.5623 3.90871C25.5666 3.9896 25.589 4.06848 25.6279 4.13953C25.6668 4.21058 25.7212 4.27197 25.787 4.31915C25.8529 4.36634 25.9285 4.39811 26.0082 4.41211C26.2367 4.65857 26.5362 4.82788 26.8652 4.89658C27.1942 4.96528 27.5364 4.92997 27.8444 4.79554L27.7688 5.27618L28.7624 5.6866C28.7664 5.90049 28.8303 6.10897 28.9467 6.28842C29.0632 6.46787 29.2276 6.6111 29.4213 6.70188L29.8101 6.86929C29.6364 6.95865 29.4822 7.08164 29.3565 7.23111C29.2814 7.33437 29.2433 7.45996 29.2485 7.58754L28.4168 8.35979C27.8809 8.04377 27.3253 7.76238 26.7535 7.51733L26.9209 6.03223L26.8183 5.98902C26.5267 5.86481 25.29 5.44899 24.966 5.38418L24.858 5.35718L24.1289 6.66407C23.5229 6.52172 22.9075 6.42247 22.2874 6.36706L21.985 4.90895H21.8715C21.6987 4.90895 21.2559 4.90895 20.9049 4.90895H19.9598H19.8464L19.5548 6.36706C18.9347 6.4227 18.3194 6.52195 17.7133 6.66407L16.9626 5.35718L16.8546 5.38418C16.5468 5.46519 15.3209 5.86481 15.0131 5.98902L14.9105 6.03223L15.0833 7.51733C14.5116 7.75911 13.9577 8.04062 13.4254 8.35979L12.3075 7.34452L12.2157 7.40393L12.0105 7.54434C12.1405 7.29672 12.2489 7.03835 12.3345 6.77208L12.5505 6.70188L12.8043 6.59927C13.6522 6.26444 14.3704 5.89722 15.0347 5.5948L16.0607 5.05476C16.7938 4.73515 17.479 4.31532 18.0967 3.80727C18.687 3.35413 19.075 2.68671 19.1768 1.94954C19.058 1.79833 18.7069 1.71192 18.1291 1.69572C18.4157 1.40582 18.5882 1.02238 18.6151 0.615643C18.3937 0.307822 17.7349 0.259219 16.6278 0.464433C15.5447 0.720238 14.519 1.17631 13.6036 1.80913C12.7135 2.3728 11.911 3.06424 11.222 3.86128C10.549 4.61835 9.97888 5.46087 9.52628 6.36706L10.0663 5.19517C10.3201 4.65514 10.6064 3.98549 10.8818 3.23483C10.9619 2.98733 10.9619 2.72088 10.8818 2.47338C10.8062 2.32217 10.6388 2.27896 10.3849 2.34376C9.83177 2.61091 9.33212 2.97695 8.91063 3.42384C8.07402 4.29801 7.37482 5.29401 6.83688 6.37785C6.35507 7.27052 5.94166 8.19845 5.6002 9.15365C5.72413 8.50398 5.70571 7.83517 5.54619 7.19331C5.46519 6.9719 5.27617 6.91249 5.00615 7.0151C4.68872 7.24573 4.41295 7.52881 4.1907 7.85216L3.40224 8.93224C3.06329 9.40802 2.75658 9.90597 2.48418 10.4227C2.10048 11.1544 1.79285 11.9235 1.56611 12.7179C1.25435 13.8661 1.05362 15.0416 0.966669 16.2282C0.885846 17.2337 0.955006 18.2456 1.17188 19.2308C1.35157 20.048 1.62521 20.8418 1.98734 21.5961C2.25736 22.1074 2.51118 22.4044 2.74879 22.4872C2.9 22.8598 3.10522 23.4809 3.35904 24.3449C3.4742 24.6412 3.53458 24.9559 3.53725 25.2738C3.51996 25.3567 3.52652 25.4428 3.55614 25.5221C3.58577 25.6014 3.63727 25.6708 3.70466 25.722C3.86086 25.8542 3.97218 26.0315 4.02328 26.2297C4.23379 27.0169 4.53271 27.7778 4.91435 28.4978C4.84541 28.8664 4.81106 29.2407 4.81174 29.6157C3.99448 27.2539 3.33203 25.4718 2.8244 24.2693C1.84153 22.084 1.06928 21.0831 0.507637 21.2667C0.364107 21.3327 0.241123 21.4363 0.151746 21.5666C0.0623684 21.6969 0.00993226 21.8489 0 22.0066C0 22.1578 0 22.5466 0 23.1784C0.0195893 23.8421 0.0791021 24.5039 0.178214 25.1604C0.596125 27.2243 1.49331 29.1611 2.7974 30.8146L4.66053 33.0017C4.97796 33.3288 5.3419 33.6072 5.74061 33.828C5.88095 33.9129 6.03678 33.9691 6.19903 33.9932C6.36128 34.0173 6.52671 34.0089 6.68567 33.9684C7.16647 34.731 7.70828 35.4535 8.30579 36.1286C8.71082 36.755 9.13745 37.052 9.57488 37.0196C9.63577 37.1955 9.74926 37.3483 9.89996 37.4575C10.0507 37.5666 10.2313 37.6268 10.4173 37.6299L10.8008 37.5759C11.2451 38.0191 11.7216 38.4289 12.2265 38.8018L11.7404 40.1734C10.9638 40.2869 10.1812 40.3555 9.39667 40.3787C8.73782 39.9034 7.80536 39.259 6.59927 38.4453L6.52366 36.917C6.47587 36.4574 6.57413 35.9945 6.80448 35.5939C6.85309 35.3023 6.69107 35.0539 6.31845 34.8055C5.96098 34.5817 5.54668 34.4654 5.12496 34.4706C5.07063 34.4943 5.02463 34.5337 4.99287 34.5838C4.96111 34.6338 4.94504 34.6922 4.94675 34.7515V35.5939L2.52738 35.6425C2.42406 35.6414 2.32182 35.6637 2.22831 35.7076C2.1348 35.7516 2.05242 35.8161 1.98734 35.8963C1.83973 36.0692 1.83973 36.4094 1.98734 36.917C2.01278 37.0762 2.01278 37.2384 1.98734 37.3977C1.79016 38.11 1.47035 38.7825 1.04227 39.385C0.97747 39.5038 1.00447 39.682 1.13408 39.925C1.40244 40.3363 1.7218 40.7119 2.08455 41.0429C2.39809 41.3421 2.73587 41.6149 3.09442 41.8584C3.54445 42.1824 4.33651 42.6756 5.47059 43.3381C6.70837 44.0806 7.99272 44.7427 9.31566 45.32C9.56768 45.32 11.2634 45.0914 14.4028 44.6342L14.4298 44.915C13.5334 45.5954 12.9555 45.8709 12.7017 45.752C12.3453 45.7898 12.2319 46.0491 12.3669 46.5405C12.4187 46.6512 12.4938 46.7495 12.587 46.8287C12.6802 46.9079 12.7893 46.9662 12.9069 46.9995L13.2363 47.383L14.1814 47.923C14.512 48.0257 14.866 48.0257 15.1967 47.923C15.3567 47.8539 15.4967 47.7453 15.6034 47.6074C15.7101 47.4695 15.7801 47.3068 15.8069 47.1345L15.9095 47.0319L16.9302 46.0113L17.6647 45.4712C17.8857 45.4578 18.101 45.3957 18.2952 45.2892C18.4895 45.1828 18.6577 45.0347 18.7879 44.8556C18.8203 44.5856 18.8959 44.4182 19.0147 44.3479L19.9058 43.7377C19.9436 43.6513 20.3054 43.7971 20.9859 44.1697C21.2794 44.2591 21.5949 44.2418 21.877 44.1211L22.5358 43.7377C23.1298 43.8727 24.1559 44.6126 25.668 45.9519C25.6724 46.0569 25.6999 46.1598 25.7484 46.2531C25.7969 46.3464 25.8653 46.4279 25.9488 46.4919C26.2254 46.7135 26.5622 46.8471 26.9155 46.8753L27.2719 47.5342L27.6284 47.6638C28.1707 47.6783 28.698 47.4851 29.1027 47.1237L29.6427 46.9455C29.9289 46.7241 30.0585 46.5027 30.0261 46.2867L29.7939 46.0545L29.3133 45.9303C28.653 45.6087 28.0301 45.2158 27.4556 44.7584L27.0451 44.4506C29.3312 44.8229 31.6347 45.0789 33.9468 45.2174C34.4535 45.2216 34.9418 45.0278 35.3077 44.6774C35.8765 44.2597 37.5939 43.0339 40.4597 40.9997C40.8872 40.536 41.2324 40.0027 41.4803 39.4228C41.1875 39.1326 40.9577 38.7851 40.8053 38.4021C40.6381 38.0452 40.513 37.6701 40.4327 37.2842C40.374 37.0284 40.374 36.7625 40.4327 36.5066C40.4545 36.3877 40.4445 36.2651 40.4038 36.1513C40.363 36.0375 40.2928 35.9365 40.2005 35.8585C40.1231 35.784 40.0317 35.7255 39.9316 35.6865C39.8315 35.6476 39.7246 35.629 39.6172 35.6317C39.0084 35.5729 38.3953 35.5729 37.7865 35.6317C37.4625 35.5993 37.2734 35.5237 37.2464 35.4049V34.7947C37.295 34.5193 37.2464 34.4004 37.0142 34.4382C36.5264 34.5036 36.0625 34.6892 35.6641 34.9783C35.6135 35.0285 35.5733 35.0882 35.5459 35.154C35.5185 35.2198 35.5044 35.2904 35.5044 35.3617C35.5044 35.433 35.5185 35.5036 35.5459 35.5694C35.5733 35.6352 35.6135 35.6949 35.6641 35.7451C35.7512 35.8155 35.8216 35.9043 35.8701 36.0052C35.9187 36.106 35.9442 36.2164 35.945 36.3284C35.8901 37.0887 35.7963 37.8458 35.6641 38.5965C34.8741 39.2656 34.0306 39.8689 33.1422 40.4003C32.7857 40.5191 31.9919 40.4705 30.7498 40.2491C30.4297 39.9152 30.2253 39.4873 30.1665 39.0286C30.6325 38.7466 31.0831 38.4401 31.5166 38.1105C31.7935 38.0719 32.0664 38.0086 32.3321 37.9215C32.5481 37.8459 32.6615 37.6353 32.6615 37.295C32.7773 37.2473 32.8808 37.1739 32.964 37.0804C33.0473 36.9868 33.1082 36.8756 33.1422 36.755L34.6219 34.9729C35.0536 34.5827 35.5945 34.3339 36.1718 34.26C37.132 34.093 38.0388 33.7007 38.818 33.1152C38.9908 32.9261 38.9908 32.6615 38.818 32.3267C39.4165 31.8755 39.9491 31.3429 40.4003 30.7444C40.5407 30.5535 40.6323 30.3312 40.6672 30.0969C40.702 29.8625 40.679 29.6231 40.6001 29.3997C41.13 28.8533 41.5224 28.1888 41.745 27.461C41.8201 27.0068 41.8201 26.5434 41.745 26.0892C41.9917 25.9382 42.2185 25.7568 42.42 25.5492C42.5543 25.3814 42.6216 25.1697 42.609 24.9552C42.6125 24.8348 42.5892 24.7151 42.5406 24.6048C42.492 24.4946 42.4194 24.3966 42.3282 24.3179C42.7926 23.6429 42.852 23.0164 42.4794 22.4548ZM36.1934 8.4786C36.2918 8.2905 36.3766 8.09559 36.4472 7.89537C36.5012 7.74415 36.6524 7.72795 36.9062 7.84676C37.3973 8.21062 37.812 8.66753 38.1267 9.19145C38.3967 8.88903 38.6667 8.99704 38.9152 9.52627C39.23 10.0339 39.3562 10.6361 39.2716 11.2274C39.9034 10.8926 40.1194 11.1194 39.9358 11.9186C40.1539 12.3325 40.3207 12.7714 40.4327 13.2255C40.4937 13.5282 40.4377 13.8428 40.2761 14.1058C40.1455 14.2904 40.0672 14.5068 40.0492 14.7322C40.0492 14.8727 40.1086 14.8727 40.2275 14.7322C40.4071 14.5373 40.6431 14.4033 40.9025 14.3488C41.0736 14.6354 41.1701 14.9604 41.1833 15.2939C41.1691 15.4135 41.1312 15.529 41.0719 15.6338C41.0125 15.7385 40.9329 15.8304 40.8377 15.9041C40.6155 16.1108 40.4755 16.3908 40.4435 16.6926C40.4387 16.7239 40.4415 16.756 40.4515 16.7861C40.4616 16.8162 40.4787 16.8434 40.5014 16.8656C40.5241 16.8877 40.5517 16.9042 40.582 16.9135C40.6123 16.9229 40.6444 16.9249 40.6757 16.9194L41.1293 16.7952C41.3669 16.7628 41.3777 16.9464 41.1563 17.3352C40.9501 17.6946 40.7696 18.0682 40.6163 18.4531C40.5228 18.6894 40.4681 18.9392 40.4543 19.193C40.4543 19.5818 40.3679 19.8086 40.2491 19.8788C40.2819 19.3657 40.2692 18.8506 40.2113 18.3397C40.1386 17.7348 40.0322 17.1344 39.8926 16.5414C40.144 16.1798 40.327 15.7753 40.4327 15.3479C40.5515 15.0077 40.5245 14.9645 40.3571 15.2183C40.2713 15.5785 40.0838 15.9065 39.817 16.1634C39.628 15.5369 39.4282 14.77 39.2068 13.8736C39.4843 13.3755 39.6484 12.8223 39.6874 12.2535C39.6874 11.7134 39.6874 11.6648 39.5902 12.1239C39.5349 12.6607 39.3495 13.176 39.0502 13.6252C38.8306 12.9051 38.5929 12.2355 38.3373 11.6162C38.4274 11.2069 38.4619 10.7873 38.4399 10.3687C38.4399 9.8935 38.3967 9.8773 38.3103 10.3201C38.3157 10.6289 38.2738 10.9367 38.1861 11.2328L37.6461 9.8071L37.2896 8.99164C37.1708 8.72162 37.1276 8.72162 37.16 8.99164L37.4949 10.0717C37.2892 9.82757 37.0491 9.61471 36.782 9.43987C36.5606 9.29946 36.5174 9.31026 36.6524 9.43987C37.0133 9.74932 37.3376 10.099 37.6191 10.4821C37.8387 11.0294 38.0601 11.591 38.2833 12.1671C37.8901 11.7849 37.4332 11.4742 36.9332 11.249C36.6092 11.1302 36.6092 11.1896 36.9332 11.4272C37.5419 11.8586 38.0872 12.373 38.5533 12.9555L39.1366 14.6836C38.6862 14.3792 38.2901 14.0013 37.9647 13.5658C37.7595 13.3606 37.7541 13.3929 37.9647 13.6684C38.3292 14.2153 38.7651 14.7111 39.2608 15.1427L39.6442 16.6926C39.1764 16.2442 38.6643 15.8443 38.1159 15.4991C37.8459 15.3317 37.8243 15.3641 38.0619 15.6017C38.7093 16.0945 39.2838 16.6763 39.7684 17.3298C39.9808 18.1875 40.0592 19.0728 40.0006 19.9544C39.979 20.2748 39.7414 20.5125 39.2878 20.6673L39.1852 21.8878L38.5479 21.9148C38.2077 21.4395 37.9485 21.0669 37.7703 20.8077C37.5921 20.5485 37.3383 20.138 37.0088 19.598C36.7406 19.1713 36.4972 18.7296 36.2798 18.2749C36.1288 17.9463 36.1019 17.5741 36.2042 17.2272C36.3068 16.8708 36.3932 16.6008 36.458 16.4172C36.5228 16.2336 36.5174 16.1958 36.458 16.3146C36.2645 16.6393 36.119 16.9904 36.026 17.3568L35.5129 15.9041C35.653 15.1077 35.9665 14.3519 36.431 13.69C36.5984 13.3876 36.5822 13.3606 36.3824 13.6144C35.9047 14.2214 35.5656 14.9254 35.3887 15.6773L34.5409 13.9546C34.6207 13.3082 34.8281 12.6841 35.1511 12.1185C35.3725 11.6432 35.3185 11.6648 34.9945 12.1725C34.7471 12.6243 34.5515 13.1025 34.4112 13.5982C34.1736 12.6315 33.9468 11.8052 33.7254 11.1302L33.5472 11.0762L33.6498 11.357C33.7547 12.1114 33.9357 12.8532 34.1898 13.5712C33.8667 13.2819 33.5028 13.0417 33.1098 12.8583C32.8883 12.7395 32.8883 12.7665 33.1098 12.9339C33.5238 13.1639 33.9007 13.4553 34.2276 13.798C34.4328 14.2732 34.6165 14.7106 34.7677 15.0995C34.2789 14.7876 33.7574 14.5304 33.2124 14.3326C32.9423 14.284 32.9423 14.3326 33.2124 14.4352C33.871 14.6287 34.4622 15.0029 34.9189 15.5153L35.4265 16.8654C35.2429 16.8654 34.9945 16.5846 34.6921 16.0229C34.4364 15.5477 33.7992 15.0905 32.7803 14.6512C32.6784 14.6075 32.5947 14.5298 32.5435 14.4313C32.4924 14.3329 32.4768 14.2198 32.4995 14.1112C32.5373 13.9222 32.7317 13.8466 33.0881 13.879C33.0063 13.633 32.886 13.4015 32.7317 13.1931L32.5265 12.8907C32.2565 12.3291 32.4185 12.0483 33.0125 12.0483C32.9192 11.9414 32.8501 11.8156 32.8101 11.6795C32.77 11.5434 32.7598 11.4002 32.7803 11.2598C32.7645 10.9306 32.8452 10.604 33.0125 10.3201C33.1093 10.1234 33.1854 9.91703 33.2394 9.70449C33.5634 9.8935 33.855 10.0501 34.1196 10.1797C34.2488 10.2433 34.3568 10.3429 34.4306 10.4665C34.5044 10.5901 34.5408 10.7325 34.5355 10.8764L34.4112 11.6648C34.4598 11.8214 34.5949 11.7674 34.8163 11.5136C34.9465 11.2899 35.1326 11.1038 35.3563 10.9736C35.5718 11.0791 35.7575 11.2369 35.8963 11.4326C36.0692 11.7566 36.0098 12.3507 35.7181 13.2147L35.4373 13.9276C36.0152 13.1607 36.485 12.7989 36.8414 12.8475C36.9602 12.9339 36.998 13.1067 36.9548 13.3876C36.9116 13.6613 36.9116 13.9401 36.9548 14.2138C36.9773 14.352 36.9621 14.4936 36.9107 14.6238C36.8594 14.7541 36.7739 14.868 36.6632 14.9537C36.3933 15.2181 36.2218 15.5668 36.1772 15.9419C36.7172 15.5369 36.9386 15.6125 36.8414 16.1741L36.5336 17.2542C36.4472 17.7943 36.5336 18.0265 36.7874 17.9941C37.0412 17.9617 37.1978 17.9941 37.2572 18.0967C37.3266 18.2682 37.3399 18.4572 37.2951 18.6367C37.1797 18.854 37.1116 19.0933 37.0952 19.3388C37.1083 19.4442 37.158 19.5417 37.2356 19.6142C37.3113 19.6952 37.4733 19.6736 37.7325 19.5656C37.9917 19.4576 38.1105 19.5332 38.1105 19.7924C38.1105 20.0516 38.1105 20.3324 38.1105 20.5593C38.1215 20.8178 38.2038 21.0682 38.3481 21.2829C38.4542 21.4385 38.6105 21.5529 38.791 21.6069L39.0394 21.3369C38.6992 21.3369 38.5425 21.1317 38.5641 20.6727C38.5961 20.3134 38.5961 19.9519 38.5641 19.5926C38.4309 19.2686 38.2959 19.0886 38.1591 19.0525C38.0223 19.0165 37.7163 18.1741 37.241 16.5252H37.7811C38.1699 17.9509 38.4885 18.7231 38.7262 18.8311C38.9638 18.9391 39.0718 19.0688 39.0556 19.2146C39.0603 19.528 39.102 19.8398 39.1798 20.1434C39.4858 20.057 39.6658 19.7762 39.7198 19.301C39.7718 19.1135 39.7632 18.9144 39.6953 18.7321C39.6274 18.5498 39.5037 18.3935 39.3418 18.2857C38.9854 18.0805 38.8018 17.8915 38.7315 17.7457C38.6289 17.4594 38.7315 17.2812 39.061 17.2056C39.2446 17.103 38.7964 16.698 37.7109 15.9851C37.1708 15.5963 36.9818 15.2453 37.2032 14.9429C37.2896 14.7862 37.4463 14.7916 37.6731 14.9429C37.8999 15.0941 38.0511 15.1427 38.1159 15.0563C38.2347 14.8187 38.1159 14.6566 37.8405 14.5594C37.5651 14.4622 37.3869 14.3596 37.4085 14.2408C37.3757 13.8815 37.3757 13.52 37.4085 13.1607C37.4412 12.9402 37.4246 12.7152 37.3599 12.5019C37.169 12.2319 36.809 12.2481 36.2798 12.5505C36.3952 12.2873 36.4254 11.9946 36.3662 11.7134C36.2993 11.423 36.1642 11.1527 35.972 10.925L35.7181 10.1365C35.6533 9.8611 35.8045 9.67749 36.1772 9.59648C36.0598 9.23217 36.0655 8.83936 36.1934 8.4786ZM35.6533 26.9317L35.3887 27.4718C35.31 27.6312 35.2198 27.7846 35.1187 27.9308C35.0394 27.4419 34.9294 26.9585 34.7893 26.4835C34.6381 26.0082 34.5949 26.0136 34.6651 26.4835C34.7963 27.2505 34.8882 28.0238 34.9405 28.8002C34.672 28.5128 34.3793 28.2491 34.0656 28.0118C33.7818 27.8025 33.5211 27.5635 33.288 27.2989C33.0989 27.1801 33.0666 27.1963 33.1854 27.3529C33.4583 27.695 33.76 28.0129 34.0872 28.3034C34.3476 28.5284 34.5913 28.7721 34.8163 29.0325C34.886 29.1224 34.9374 29.2252 34.9675 29.3349C34.7995 29.5572 34.6192 29.77 34.4274 29.9721C34.3681 29.9351 34.3185 29.8844 34.2828 29.8243C34.2471 29.7641 34.2263 29.6963 34.2222 29.6265C34.2147 29.4916 34.1569 29.3644 34.0602 29.2701L33.207 28.5734C32.7803 28.2008 32.6669 27.8606 32.7965 27.5528C32.6703 27.3863 32.565 27.205 32.4833 27.0127C32.4337 26.9188 32.4129 26.8124 32.4235 26.7067C32.434 26.6011 32.4755 26.5009 32.5427 26.4187C32.6777 26.2189 32.9963 26.3107 33.4878 26.6833C33.5688 26.4175 33.5688 26.1336 33.4878 25.8678C33.3992 25.6086 33.2964 25.3544 33.18 25.1064C32.9896 24.7459 32.7768 24.3978 32.5427 24.0641L32.4779 23.9129C32.5211 23.7455 32.5589 23.5781 32.5913 23.4053C32.7046 23.4538 32.8087 23.5214 32.8991 23.6051C33.3258 23.146 33.6066 23.0164 33.7416 23.2108C33.9141 23.5121 34.026 23.8441 34.071 24.1883C34.1559 24.6591 34.165 25.1404 34.098 25.614L33.9954 25.7166L34.098 25.8192C34.1053 26.2049 34.0617 26.5898 33.9684 26.9641C33.9714 27.1088 34.0164 27.2496 34.098 27.3691C34.0672 27.2182 34.0582 27.0636 34.071 26.9101C34.071 26.8291 34.1412 26.6293 34.2384 26.3161C34.2968 26.1393 34.3437 25.9589 34.3788 25.776C34.3788 25.7328 34.3788 25.7004 34.2438 25.6842C34.2965 25.671 34.3448 25.644 34.3836 25.606C34.4225 25.5681 34.4507 25.5205 34.4652 25.4682C34.5002 25.3779 34.5002 25.2777 34.4652 25.1874C34.425 24.9229 34.407 24.6556 34.4112 24.3881C34.4189 24.049 34.377 23.7107 34.287 23.3837C34.2251 23.2079 34.1782 23.0273 34.1466 22.8436C34.1466 22.714 34.0278 22.6438 33.8388 22.6276C33.6498 22.6114 33.3906 22.795 33.0504 23.1676C33.131 22.6579 33.2914 22.164 33.5256 21.7041C33.6822 21.4611 33.8496 21.3855 34.017 21.4881C34.1603 21.5628 34.2772 21.6797 34.3518 21.8229C34.4022 21.9418 34.4779 21.9202 34.5787 21.7581C34.6813 21.5961 34.7677 21.5421 34.8325 21.5907C34.9266 21.6759 35.0004 21.7811 35.0485 21.8986C35.1258 22.0504 35.1821 22.2121 35.2159 22.3792C35.2636 22.6868 35.2925 22.997 35.3023 23.3081C35.3583 23.6201 35.3008 23.9419 35.1403 24.2153C35.0074 24.3637 34.9343 24.5561 34.9351 24.7554C34.9675 25.641 35.0377 26.0785 35.1403 26.0676C35.2807 26.0381 35.4087 25.9665 35.5075 25.8624C35.5546 25.8088 35.6144 25.7679 35.6813 25.7434C35.7483 25.7188 35.8204 25.7115 35.8909 25.722C35.999 25.7598 36.0638 26.0028 36.08 26.4619C36.0962 26.9209 36.1394 26.9641 36.2096 26.6023C36.2798 26.2405 36.404 26.0623 36.5876 26.0623C36.7712 26.0623 36.809 26.5537 36.6902 27.5366C36.1714 27.9839 35.6942 28.4774 35.2645 29.0109C35.1645 28.7223 35.1645 28.4084 35.2645 28.1198C35.3648 27.9363 35.4497 27.7449 35.5183 27.5474C35.5939 27.3367 35.6587 27.1477 35.7073 26.9749C35.8477 26.6239 35.8207 26.6239 35.6209 26.9317H35.6533ZM34.1844 30.1989C34.1608 30.1691 34.1408 30.1364 34.125 30.1017L34.1844 30.1989ZM32.3591 31.6462C32.1781 31.8197 32.0202 32.0157 31.8893 32.2295L31.9919 33.1692C31.9969 33.4216 31.9429 33.6717 31.8342 33.8995C31.7254 34.1274 31.5649 34.3266 31.3654 34.4814C30.9598 34.8568 30.6346 35.3106 30.4096 35.8153C30.3286 36.1232 29.9937 36.4526 29.4213 36.809C29.3174 36.6234 29.1779 36.4601 29.0109 36.3284C28.9924 36.2935 28.9623 36.2662 28.9257 36.2514C28.8892 36.2366 28.8486 36.2352 28.811 36.2474C27.611 36.6674 26.4447 37.1783 25.3224 37.7757C24.805 38.137 24.363 38.5955 24.0209 39.1258H23.0326C22.7066 38.9528 22.4006 38.7445 22.12 38.5047C21.904 38.3373 21.5097 38.3967 20.9535 38.6829C20.6812 38.6273 20.4004 38.6277 20.1283 38.6844C19.8563 38.741 19.5986 38.8526 19.3712 39.0124C19.1506 39.1229 18.898 39.1516 18.6583 39.0934L17.4108 37.7433C14.8331 36.6632 13.4254 36.179 13.1877 36.2906C12.9399 36.4469 12.7502 36.6803 12.6477 36.9548C12.2198 36.6918 11.8338 36.3659 11.5028 35.9882L10.7144 35.0971C10.4616 34.8671 10.2656 34.5815 10.1419 34.2629C10.0182 33.9443 9.97017 33.6013 10.0015 33.261L10.1311 32.4725C10.1417 32.4245 10.1423 32.3748 10.133 32.3265C10.1238 32.2783 10.1047 32.2324 10.0771 32.1917C9.88634 32.0111 9.64873 31.8876 9.39127 31.8353C9.35346 31.8353 9.24546 31.7813 9.12125 32.2403C8.90612 31.9832 8.7077 31.7127 8.52721 31.4302L9.8611 30.8254C10.2553 31.2574 10.6874 31.684 11.1842 32.1323L10.5631 33.5094L10.6496 33.5796C10.898 33.7848 11.9402 34.5354 12.2157 34.7137L12.3075 34.7731L13.3876 33.7578C13.9257 34.0746 14.4831 34.3578 15.0563 34.6057L14.8835 36.1016L14.9915 36.1448C15.3047 36.2582 16.5306 36.6848 16.833 36.7442L16.9464 36.7766L17.6809 35.4643C18.2869 35.5951 18.8999 35.6907 19.517 35.7505L19.8194 37.2248H19.9598H20.9265H21.8878H22.0066L22.2982 35.7613C22.9173 35.6986 23.5322 35.5994 24.1397 35.4643L24.885 36.7712H24.993C25.3116 36.6794 26.5429 36.2798 26.8345 36.1718L26.9425 36.1286L26.7751 34.6381C27.3437 34.3895 27.8957 34.1045 28.4276 33.7848L29.5455 34.8001L29.6373 34.7407C29.9127 34.5679 30.9496 33.801 31.198 33.612L31.2952 33.5364L30.658 32.1701C31.1294 31.7625 31.5715 31.3222 31.9811 30.8524L33.3528 31.4734L33.4284 31.3816L33.4662 31.333C33.2934 31.603 33.1584 31.8191 33.153 31.8353C33.1475 31.8515 32.5319 31.4842 32.3375 31.6462H32.3591ZM33.1098 32.1269C33.0341 32.3105 32.9477 32.6183 32.7803 32.6399C32.6129 32.6615 32.2781 32.4185 32.2781 32.2025C32.278 32.1524 32.2882 32.1028 32.308 32.0568C32.3278 32.0108 32.3568 31.9693 32.3932 31.9349C32.4296 31.9005 32.4727 31.8739 32.5197 31.8568C32.5668 31.8396 32.6169 31.8323 32.6669 31.8353C32.8613 31.8353 33.1638 31.9433 33.0881 32.1269H33.1098ZM26.9803 38.7694C26.9325 38.6374 26.9378 38.4921 26.9953 38.3641C27.0528 38.2361 27.1578 38.1354 27.2881 38.0835C27.4124 37.9842 27.5552 37.9106 27.7082 37.867C27.8611 37.8235 28.0213 37.8108 28.1792 37.8297C28.3142 37.8297 28.3196 38.0889 28.1792 38.5641C28.082 38.8018 27.5798 39.1042 26.6779 39.4336L25.8408 39.331L26.7319 38.818L26.9587 39.1744H27.0883L26.9803 38.7694ZM28.1252 37.3923C27.8152 37.3972 27.5104 37.473 27.2341 37.6137C27.0804 37.6579 26.9419 37.7439 26.8342 37.8621C26.7265 37.9803 26.6537 38.1261 26.6239 38.2833C26.6076 38.3637 26.5741 38.4397 26.5256 38.5059C26.4771 38.5721 26.4148 38.627 26.3431 38.6667C25.9704 38.872 25.6302 39.0502 25.3278 39.2068L24.5393 39.1582L24.9444 38.6181C25.1711 38.3646 25.4374 38.1494 25.7328 37.9809C26.6562 37.4864 27.619 37.0691 28.6112 36.7334C28.652 36.7179 28.6968 36.717 28.7381 36.7308C28.7794 36.7446 28.8147 36.7722 28.838 36.809L29.0433 37.0682L28.7624 37.241C28.6682 37.3108 28.5605 37.3603 28.4462 37.3863C28.3318 37.4123 28.2134 37.4144 28.0982 37.3923H28.1252ZM14.1814 36.8522C13.9893 36.7145 13.7506 36.6582 13.5172 36.6956C13.3984 36.7334 13.2687 36.9008 13.1337 37.2032L13.0851 37.1546C13.0947 37.0466 13.1283 36.942 13.1834 36.8486C13.2385 36.7552 13.3138 36.6752 13.4038 36.6146C13.4924 36.5844 13.5865 36.5736 13.6796 36.5829C13.7728 36.5922 13.8629 36.6214 13.9438 36.6686L15.1643 37.2518L17.2542 38.0403C17.5979 38.3863 17.9122 38.7602 18.1939 39.1582C17.7727 39.2122 17.3136 39.2446 16.8222 39.2608L15.7421 38.4993C15.2993 37.9593 14.9807 37.5921 14.7754 37.3544C14.5986 37.1615 14.3882 37.0023 14.1544 36.8846L14.1814 36.8522ZM14.5864 37.7163C14.4768 37.7749 14.3544 37.8056 14.23 37.8056C14.1057 37.8056 13.9832 37.7749 13.8736 37.7163L13.4686 37.4085C13.6036 37.0682 13.7818 36.9602 14.0086 37.079L14.4136 37.4355L14.5864 37.7163ZM33.2988 31.0576L31.9325 30.442L31.8623 30.523C31.417 31.0412 30.9332 31.525 30.415 31.9703L30.334 32.0405L30.9604 33.396C30.6526 33.6282 29.9235 34.1628 29.6049 34.3788L28.4978 33.369L28.406 33.4284C27.82 33.7751 27.2141 34.0871 26.5915 34.3626L26.4889 34.4058L26.6563 35.8801C26.2945 36.0098 25.4358 36.2852 25.0362 36.4202L24.3017 35.1241L24.1937 35.1511C23.5299 35.3022 22.8571 35.4104 22.1794 35.4751H22.0714L21.7797 36.9278H20.1002L19.7978 35.4643H19.6898C19.0122 35.4071 18.3392 35.3043 17.6755 35.1565L17.5674 35.1295L16.8438 36.4256C16.4712 36.3122 15.6125 36.0368 15.2237 35.8855L15.3911 34.395L15.2885 34.3572C14.661 34.0885 14.0514 33.7801 13.4632 33.4338L13.3714 33.3744L12.2913 34.3842C11.9727 34.1628 11.2112 33.6336 10.9358 33.4014L11.5514 32.0351L11.4704 31.9649C10.9603 31.5148 10.477 31.0351 10.0231 30.5284L9.9475 30.4474L8.59741 31.063L8.4516 30.8632C8.77359 30.3637 9.0159 29.8171 9.16985 29.2431C9.38691 28.4574 9.51195 27.6491 9.54248 26.8345C9.56302 26.7805 9.59638 26.7323 9.63968 26.6941C9.842 26.4116 9.97687 26.0864 10.0339 25.7436C10.5467 26.9464 11.2527 28.0574 12.1239 29.0325L12.2805 29.2053L16.0607 23.7077L14.1328 30.1881L13.9978 30.658L14.3974 30.3772L19.8626 26.5969L15.7529 31.7705L15.9635 31.8677C17.5233 32.5849 19.2206 32.9535 20.9373 32.9477C22.6219 32.9458 24.2872 32.5888 25.8246 31.9001L26.0352 31.8083L21.9742 26.5429L27.515 30.3664L27.92 30.6472L27.7796 30.1773L25.8732 23.8049L29.5239 29.3133L29.6805 29.1405C30.9354 27.7903 31.8598 26.1671 32.3807 24.3989C32.7533 25.0956 33.2988 25.8678 33.3258 26.2945C32.9747 25.9812 32.1809 25.9704 32.1809 26.7319C32.2247 27.0076 32.3141 27.2741 32.4455 27.5204C32.2835 28.3304 33.2178 28.9245 33.9792 29.6805C33.964 29.8051 33.9926 29.9312 34.0602 30.0369C33.7686 30.4042 33.4608 30.847 33.2718 31.0684L33.2988 31.0576ZM8.5002 21.5799C8.19448 23.3641 8.03374 25.1702 8.01957 26.9803V28.4276L7.97097 30.415L7.64154 30.0315C7.40026 28.7993 7.29701 27.5441 7.33372 26.2891C7.39658 25.2355 7.55016 24.1894 7.79275 23.1622C8.15278 21.7509 8.4912 21.0039 8.80802 20.9211C9.06858 21.8124 9.22267 22.7315 9.26706 23.6591C9.3862 24.855 9.3862 26.0598 9.26706 27.2557C9.22451 28.2086 8.99129 29.1433 8.58121 30.0045L8.25179 30.7174C8.25179 29.6697 8.25179 28.811 8.28959 28.1468C8.32739 27.4826 8.33819 26.6077 8.36519 25.5168C8.39219 24.4259 8.4624 23.1784 8.58121 21.7851C8.61901 21.4773 8.57581 21.4017 8.4732 21.5907L8.5002 21.5799ZM7.17711 29.5725L6.63707 28.8596L7.0421 27.839C7.01166 28.4226 7.04789 29.0079 7.15011 29.5833L7.17711 29.5725ZM7.17711 25.1172C6.46358 26.3314 5.88241 27.6186 5.44359 28.9569C5.32998 29.4192 5.24521 29.8881 5.18977 30.361C5.1712 29.3777 5.28749 28.3965 5.53539 27.4447C5.89656 26.0299 6.55162 24.7069 7.45793 23.5619C7.30128 24.073 7.19103 24.5971 7.1285 25.128L7.17711 25.1172ZM4.70914 24.7338C4.53632 24.5663 4.31491 23.7995 4.04489 22.444C4.11048 21.886 4.25598 21.3404 4.47692 20.8239C4.56873 20.5809 4.69293 20.2838 4.82794 20.0192V20.0678C4.82794 20.3864 4.82794 21.6879 4.82794 22.0012V22.1146L6.30765 22.4224C6.36899 23.0393 6.46454 23.6522 6.59387 24.2585L5.28157 25.0038L5.31398 25.1172C5.36258 25.2846 5.51379 25.7598 5.6596 26.1973C5.52394 26.5632 5.41564 26.9386 5.33558 27.3205C5.17031 26.993 5.04519 26.6466 4.96295 26.2891C4.84621 26.0037 4.80169 25.6939 4.83334 25.3872C4.88913 25.2777 4.90235 25.1514 4.87043 25.0327C4.83851 24.914 4.76372 24.8113 4.66053 24.7446L4.70914 24.7338ZM6.32925 24.7338C6.13858 25.0629 5.96903 25.4038 5.82161 25.7544C5.74061 25.5114 5.6704 25.2846 5.6218 25.1334L6.32925 24.7338ZM18.2965 17.5026H18.4153L18.4531 17.3892L20.9697 10.2229L23.5025 17.4054L23.5403 17.5134H23.6591L31.252 17.6863L25.209 22.309L25.1118 22.3846L25.1496 22.498L27.3097 29.7723L21.0507 25.452L20.9535 25.3872L20.8509 25.452L14.608 29.7723L16.7682 22.4764L16.8006 22.3576L16.7196 22.3036L10.682 17.7025L18.2965 17.5026ZM18.1183 17.1624L11.0978 15.0887C11.9056 13.7443 12.9795 12.5791 14.2535 11.6644C15.5276 10.7497 16.975 10.1048 18.5071 9.76929L18.1939 17.0976V17.1624H18.1183ZM23.5619 9.79629C25.0914 10.1471 26.533 10.8072 27.7979 11.7359C29.0629 12.6647 30.1244 13.8424 30.9172 15.1967L23.8535 17.1624H23.7401V17.1138L23.5619 9.79629ZM32.0945 23.9237C31.6412 25.7125 30.7652 27.3663 29.5401 28.7462L25.4898 22.633V22.5682L25.533 22.5358L32.4293 20.0732C32.5145 21.0572 32.4746 22.0479 32.3105 23.0218C32.2564 23.0337 32.2053 23.0565 32.1604 23.0889C32.1155 23.1213 32.0777 23.1626 32.0493 23.2102C32.021 23.2577 32.0027 23.3106 31.9956 23.3655C31.9885 23.4205 31.9928 23.4763 32.0081 23.5295C32.0203 23.664 32.0494 23.7964 32.0945 23.9237ZM25.4358 31.684C23.9904 32.2962 22.4356 32.6086 20.8659 32.6021C19.2962 32.5956 17.7441 32.2704 16.3038 31.6462L20.8671 25.8948L20.9265 25.857L20.9697 25.8894L25.4358 31.684ZM16.3902 22.5412V22.5952L12.2481 28.6436C11.3605 27.6132 10.6621 26.434 10.1851 25.1604C10.3611 24.4212 10.4428 23.6627 10.4281 22.903C10.3741 22.633 10.3093 22.4926 10.2337 22.4818C10.1563 22.4773 10.0798 22.5003 10.0177 22.5466L10.1743 22.2388C10.2553 22.0228 10.2553 21.877 10.1743 21.8067C9.93274 21.7593 9.68247 21.7856 9.45607 21.8824C9.4021 21.2372 9.4021 20.5887 9.45607 19.9436L16.3308 22.5034L16.3902 22.5412ZM9.59648 23.6915L9.44527 23.9723V23.4647L9.8287 22.9786C10.0825 22.7248 10.1905 22.8598 10.1581 23.3891C10.0704 24.3505 9.90061 25.3026 9.65049 26.2351C9.65525 25.6062 9.61192 24.978 9.52087 24.3557L9.74769 23.7185C9.74229 23.4809 9.69909 23.4701 9.59648 23.6753V23.6915ZM9.74769 22.012C9.96731 21.9652 10.0105 22.0678 9.8773 22.3198L9.39127 23.0326C9.36494 22.7837 9.32346 22.5366 9.26706 22.2928C9.41775 22.1791 9.57865 22.0797 9.74769 21.9958V22.012ZM36.2744 25.1874L36.1502 25.5978C36.086 25.5399 36.006 25.5024 35.9205 25.4899C35.8349 25.4774 35.7476 25.4905 35.6695 25.5276L35.2969 25.7922C35.2537 25.83 35.2105 25.56 35.1943 25.3602C35.1701 25.1039 35.1847 24.8454 35.2375 24.5933L36.2744 25.1874ZM36.6956 25.8138C36.6956 25.8138 36.5012 25.7652 36.3824 25.8138C36.4796 25.5222 36.5552 25.2738 36.5876 25.1334V25.0254L35.3833 24.3341C35.4265 24.2693 35.4751 24.1991 35.5183 24.1235C35.6483 23.6656 35.6576 23.1819 35.5453 22.7194C35.5453 22.6276 35.5453 22.5358 35.5777 22.4494L37.052 22.1416V22.0336C37.052 21.7959 37.052 21.0291 37.052 20.5161C37.106 20.6025 37.1546 20.6889 37.214 20.7753C37.5701 21.1974 37.873 21.6618 38.1159 22.1578C38.0688 22.4198 38.0435 22.6854 38.0403 22.9516C37.9643 23.7142 37.8178 24.468 37.6029 25.2036C36.9224 24.8526 36.8036 25.3278 36.701 25.7976L36.6956 25.8138ZM38.5641 22.0336C38.7436 22.0144 38.9247 22.0144 39.1042 22.0336C38.8666 23.3189 38.5911 24.7338 38.3697 25.614L38.0133 25.4142C38.2788 24.3022 38.4629 23.1723 38.5641 22.0336ZM36.701 19.9112L35.5777 19.6844C35.5238 19.0663 35.4264 18.4527 35.2861 17.8483L35.6425 17.643C35.9218 18.4313 36.2762 19.1909 36.701 19.9112ZM32.5535 10.6172C32.4982 10.7761 32.4619 10.9411 32.4455 11.1086L31.9757 11.3246C31.562 10.8587 31.1201 10.4187 30.6526 10.0069L31.1926 8.75942C31.2844 8.87283 31.4032 9.00784 31.549 9.16985C31.9091 9.50405 32.3285 9.76782 32.7857 9.9475C32.7046 10.1671 32.6343 10.3906 32.5751 10.6172H32.5535ZM33.0666 4.2285C33.0666 3.99088 33.2394 3.92068 33.5364 4.01249C33.8334 4.1043 34.1088 4.74154 34.3626 5.90802L34.7731 6.06463C34.9081 5.7406 35.0161 5.5786 35.1025 5.5786C35.1889 5.5786 35.3725 5.85942 35.5075 6.42105C35.6935 6.62049 35.8334 6.8583 35.9173 7.11771C36.0013 7.37712 36.0273 7.6518 35.9936 7.92236C35.7621 8.23489 35.6371 8.61352 35.6371 9.00244L35.4319 8.54341C35.3109 8.01231 35.26 7.46762 35.2807 6.9233C35.2807 6.68568 35.2375 6.68568 35.2051 6.9233C35.1542 7.33716 35.1452 7.7551 35.1781 8.17078C34.7355 7.58822 34.2422 7.04605 33.7038 6.55067C33.5985 6.13457 33.5638 5.70375 33.6012 5.27618C33.5526 4.87115 33.5094 4.77934 33.4716 4.99535C33.4368 5.47112 33.4549 5.94928 33.5256 6.42105C33.0218 5.89172 32.5613 5.32286 32.1485 4.71994C32.0135 4.48232 31.9541 4.42831 31.9703 4.56332C32.2506 5.11033 32.593 5.62316 32.9909 6.09163C33.3474 6.50206 33.6336 6.82069 33.855 7.0583C33.4811 6.93946 33.0982 6.85096 32.7101 6.79368C32.4001 6.75389 32.099 6.66263 31.8191 6.52366C31.5652 6.47506 31.576 6.52366 31.8461 6.70188C32.1368 6.84919 32.4512 6.94425 32.7749 6.9827C33.2298 7.06688 33.6713 7.2122 34.0872 7.41472C34.4419 7.70692 34.7418 8.05984 34.9729 8.457L35.2807 9.14825C34.787 8.88582 34.2547 8.70353 33.7038 8.60821C33.3498 8.5749 33.0043 8.47986 32.6831 8.32739C32.2457 8.13838 32.1917 8.15458 32.5319 8.376C32.8663 8.55976 33.233 8.67712 33.612 8.72162C34.2491 8.85583 34.8578 9.10076 35.4103 9.44527L35.4589 9.60188C35.3996 9.67721 35.3573 9.76449 35.335 9.85771C35.3126 9.95093 35.3107 10.0479 35.3293 10.1419L35.5075 10.6496C35.3563 10.4659 35.1457 10.5523 34.8757 10.9088C34.9266 10.8114 34.9467 10.7009 34.9332 10.5918C34.9197 10.4828 34.8733 10.3805 34.8001 10.2985C34.3272 9.77655 33.7313 9.38112 33.0666 9.14825L32.9153 9.42907C32.5865 9.35096 32.284 9.18752 32.0384 8.95523C31.7929 8.72294 31.6129 8.43001 31.5166 8.10598C31.5166 7.90077 31.6732 7.78735 32.0567 7.76575C32.4401 7.74415 32.4941 7.63075 32.2349 7.44713C31.7524 7.2818 31.3283 6.97971 31.0144 6.57767C30.793 6.29145 30.793 6.08623 31.0144 5.96742L31.3978 5.86482L31.576 5.638L31.3492 4.74694C31.299 4.56661 31.3087 4.37485 31.3769 4.20052C31.4451 4.02618 31.568 3.8787 31.7272 3.78027C31.9729 3.75506 32.221 3.78196 32.4555 3.85919C32.69 3.93643 32.9056 4.06227 33.0881 4.2285H33.0666ZM28.0766 4.94136L28.1306 4.35811L27.6446 4.46072C27.4006 4.53044 27.1418 4.52884 26.8987 4.45611C26.6556 4.38337 26.4384 4.24255 26.2729 4.05029C25.965 4.10429 25.8408 3.98548 25.8894 3.69386C25.938 3.40224 25.9758 3.30503 25.7868 3.28883L25.047 3.36444C24.6936 3.35403 24.3575 3.20917 24.1073 2.95941C24.0047 2.7866 24.0749 2.57598 24.3125 2.32217C23.9668 2.22209 23.6657 2.00675 23.4593 1.71192C23.3459 1.49051 23.4161 1.3123 23.6645 1.17189C24.1019 1.01886 24.5737 0.992647 25.0254 1.09628C24.9532 1.01865 24.9032 0.923121 24.8804 0.819616C24.8576 0.716111 24.8629 0.608395 24.8958 0.507637C24.8958 0.307823 25.3548 0.415832 26.2189 0.842463L26.7265 1.14488C26.7927 1.02775 26.9003 0.939566 27.0282 0.897611C27.1561 0.855656 27.295 0.862953 27.4177 0.918068C27.802 1.10169 28.1644 1.32814 28.4978 1.59312C28.9169 1.92932 29.3006 2.30752 29.6427 2.7218C29.9991 2.48418 30.2584 2.53818 30.4096 2.87841L30.4852 3.48865C30.304 3.32398 30.0723 3.22574 29.8279 3.21004C29.5836 3.19434 29.3412 3.26211 29.1405 3.40224L28.7894 3.24564C28.4177 2.84963 28.1163 2.39303 27.8984 1.89554C27.7958 1.50671 27.7418 1.47431 27.7418 1.79833C27.8216 2.27842 28.0328 2.72702 28.352 3.09442C27.7444 2.92701 27.1877 2.61158 26.7319 2.17636C26.4369 1.88126 26.1592 1.56932 25.9002 1.24209C25.7094 0.936068 25.6338 0.936068 25.6734 1.24209C25.8909 1.63475 26.174 1.98727 26.5105 2.28436C26.2405 2.16556 25.9866 2.04675 25.749 1.92794C25.2832 1.70755 24.7824 1.57047 24.2693 1.52291C24.0857 1.52291 24.0749 1.55531 24.2693 1.62552C24.7618 1.73671 25.2428 1.89402 25.7058 2.09535C25.928 2.1892 26.1311 2.32279 26.3053 2.48958C25.8392 2.69238 25.3336 2.78833 24.8256 2.7704C24.5069 2.7704 24.3611 2.7704 24.3935 2.7704C24.4859 2.82994 24.5918 2.86523 24.7014 2.87301C25.3278 2.93979 25.9612 2.87165 26.5591 2.67319C27.0838 2.93649 27.6249 3.16559 28.1792 3.35904C27.7896 3.45643 27.4227 3.62886 27.0991 3.86668C26.9641 4.03949 27.0289 4.04489 27.3043 3.89368C27.6692 3.65819 28.0909 3.5257 28.5248 3.51025L28.9569 3.68846C28.9303 4.17664 29.0446 4.66217 29.2863 5.08716L29.0055 5.18977L28.0766 4.94136ZM30.0639 7.10151L30.2367 6.80988C29.6967 6.56147 29.1567 6.26985 29.1567 5.5732L29.6157 5.39499C29.8209 5.15737 29.8263 4.97916 29.6157 4.85495C29.4051 4.73074 29.3187 4.42291 29.2971 3.91528C29.4879 3.50485 29.9469 3.50485 30.6742 3.91528C30.9982 3.28883 31.387 3.09982 31.8461 3.37524C31.6471 3.34578 31.4445 3.39627 31.2826 3.51567C31.1207 3.63507 31.0126 3.81368 30.982 4.01249C30.9276 4.34148 30.9276 4.67717 30.982 5.00616C30.8118 4.77022 30.6038 4.56403 30.3664 4.39591C29.9127 4.15829 29.8263 4.1799 30.1125 4.47152C30.3932 4.74602 30.6498 5.04415 30.8794 5.36258C30.5402 5.65396 30.0996 5.79953 29.6535 5.76761C29.5023 5.83602 29.5293 5.87922 29.7345 5.89722C29.9726 5.94441 30.2191 5.92575 30.4474 5.84322C30.4278 6.18333 30.4869 6.52337 30.6202 6.83689C30.7938 7.07814 31.0054 7.28969 31.2466 7.46333C31.1885 7.47563 31.1341 7.50165 31.0881 7.53923C31.0421 7.5768 31.0057 7.62485 30.982 7.67935C30.6212 7.7132 30.2575 7.69502 29.9019 7.62535L29.8209 7.56594C29.8089 7.55366 29.7997 7.53892 29.7939 7.52274C29.7723 7.39853 29.7507 7.29592 30.0855 7.10691L30.0639 7.10151ZM31.0144 8.43L30.4096 7.97637C30.5608 7.97637 30.712 7.97637 30.8632 7.97637C30.8926 8.13855 30.9512 8.29407 31.036 8.4354L31.0144 8.43ZM12.2805 7.72255L13.3605 8.73242L13.4578 8.67842C14.0369 8.32594 14.6417 8.01726 15.2669 7.75495L15.3695 7.71175L15.2021 6.23205C15.5693 6.09704 16.4226 5.81622 16.8222 5.69201L17.5728 6.99349H17.6809C18.341 6.83427 19.0128 6.72773 19.6898 6.67487H19.7978L20.0894 5.21677H20.9319H21.7689L22.0714 6.67487H22.1848C22.8615 6.7299 23.5331 6.83641 24.1937 6.99349H24.3017L25.0308 5.69201C25.4088 5.80002 26.2729 6.08084 26.6509 6.23205L26.4403 7.72255L26.5429 7.76575C27.1724 8.03012 27.7823 8.33871 28.3682 8.68921L28.46 8.74322L29.4159 7.85756C29.4709 7.88864 29.5314 7.90881 29.5941 7.91696H29.8533C30.2097 8.17078 30.685 8.5218 30.9334 8.70002L30.3177 10.0555L30.4042 10.1257C30.9167 10.5753 31.3984 11.0588 31.8461 11.573L31.9217 11.6594L32.4617 11.4056C32.4693 11.5788 32.5275 11.7459 32.6291 11.8862C32.5751 11.8862 32.3321 12.0267 32.2457 12.1617C31.9271 12.6531 32.6129 13.3552 32.7209 13.5982C32.5978 13.6288 32.4821 13.6839 32.3807 13.7602C32.1431 13.9276 32.2241 14.7701 32.8937 14.9159C33.3711 15.1659 33.8155 15.4743 34.2168 15.8339C34.2924 15.9095 34.5084 16.32 34.8163 16.725C34.9837 16.941 35.1565 17.3028 35.5561 17.3136L34.9567 17.6539L34.9837 17.7619C35.147 18.4214 35.2554 19.0934 35.3077 19.7708V19.8842L36.7766 20.1758C36.7766 20.5593 36.7766 21.4665 36.7766 21.8554L35.4373 22.1308C35.4013 21.958 35.3581 21.7959 35.3077 21.6447C35.2823 21.5475 35.2336 21.4578 35.1659 21.3835C35.0981 21.3092 35.0134 21.2524 34.9189 21.2181C34.8141 21.1986 34.7058 21.2166 34.613 21.2689C34.5202 21.3213 34.4488 21.4046 34.4112 21.5043C34.4112 21.3423 34.1196 21.2397 33.9252 21.1965C33.3852 21.0615 32.7695 22.1308 32.8451 23.1244C32.7811 23.0748 32.7101 23.0348 32.6345 23.0056C32.8132 21.9349 32.8459 20.8449 32.7317 19.7654L32.7047 19.5386L26.4403 21.7959L31.7921 17.7025L32.1809 17.4054H31.6895L25.047 17.2542L31.4032 15.4883L31.3006 15.2831C30.4727 13.7977 29.3355 12.5074 27.9659 11.4993C26.5964 10.4913 25.0264 9.78896 23.3621 9.43987L23.1352 9.39127L23.3243 16.0499L21.0831 9.68829L20.9157 9.22925L20.7537 9.69369L18.5611 15.9635L18.8419 9.36967L18.6151 9.41827C16.9496 9.74731 15.374 10.4295 13.9944 11.4188C12.6147 12.4081 11.4631 13.6816 10.6172 15.1535L10.4983 15.3533L16.8816 17.238L10.1473 17.4H9.66129L10.0501 17.6971L15.3371 21.7203L9.15905 19.4252V19.652C9.10246 20.1269 9.07541 20.6048 9.07804 21.0831C9.03231 20.9273 8.97823 20.7741 8.91603 20.6241C8.87823 20.5431 8.76482 20.6241 8.76482 20.6241C8.05197 21.0561 7.73335 22.0012 7.47953 23.173L7.27432 23.3621C7.11771 23.5619 6.96649 23.7671 6.82068 23.9831C6.7053 23.4304 6.62236 22.8714 6.57227 22.309V22.201L5.10336 21.8986C5.10336 21.5097 5.10336 20.6025 5.10336 20.2136L6.57227 19.9112V19.8032C6.63256 19.1256 6.73719 18.4527 6.88549 17.7889V17.6863L6.62627 17.535C7.80355 16.5036 10.1635 13.2579 10.5037 11.0546C10.8097 10.7268 11.1324 10.415 11.4704 10.1203L11.5514 10.0501L11.1518 9.17525C11.3462 8.84043 11.5514 8.4624 11.7404 8.09518C11.9402 7.97637 12.1455 7.82516 12.2805 7.72255ZM4.83874 19.976C5.09256 19.436 5.37878 18.8581 5.77301 18.2155C5.88048 18.0815 6.00799 17.9649 6.15104 17.8699C6.23868 17.8405 6.32081 17.7967 6.39405 17.7403L6.57227 17.8375C6.43964 18.4449 6.34406 19.0599 6.28605 19.679L4.83874 19.976ZM10.5361 10.2121C10.5361 10.3147 10.7144 9.99611 10.9898 9.52088L11.2112 10.0069C10.9898 10.2013 10.7792 10.4065 10.5631 10.6226C10.5593 10.4843 10.5412 10.3467 10.5091 10.2121H10.5361ZM18.7609 2.14395C18.7143 2.56736 18.5029 2.95539 18.1723 3.22403C17.4993 3.81933 16.7513 4.32405 15.9473 4.72534C15.0563 5.18437 13.9006 5.72441 12.4749 6.34545V6.18884C14.005 5.02914 15.6127 3.97541 17.2866 3.03502C17.6755 2.7974 17.6377 2.7272 17.184 2.8298C16.644 3.08362 16.1039 3.39684 15.5045 3.77487C14.4856 4.43372 13.492 5.08536 12.5235 5.72981V5.42739C14.4568 3.73167 16.0427 2.63719 17.2812 2.14395C17.7557 2.00668 18.2594 2.00668 18.7339 2.14395H18.7609ZM12.9933 2.7542C13.9798 1.95859 15.1062 1.35419 16.3146 0.972071C16.8408 0.818627 17.3865 0.742229 17.9347 0.745255C18.1561 0.793859 18.2155 0.923466 18.1129 1.12328L17.5728 1.86313C16.8531 2.02147 16.1674 2.30675 15.5477 2.7056C14.5757 3.28031 13.6527 3.93417 12.7881 4.66053L12.4317 4.89275C12.2427 4.75774 11.8916 4.81714 11.411 5.07096C12.6894 3.97134 14.0527 2.97456 15.4883 2.08995C15.9585 1.8958 16.3958 1.62982 16.7844 1.30149C16.2354 1.47906 15.7068 1.7144 15.2075 2.00355C14.0422 2.6938 12.9205 3.45488 11.8484 4.28251L10.3471 5.6326C11.1071 4.56771 11.996 3.6009 12.9933 2.7542ZM11.4272 5.5624C11.6972 5.41119 11.8862 5.35178 11.9672 5.38418C12.0395 5.61093 12.0561 5.8517 12.0159 6.08623C11.8655 6.73138 11.6446 7.358 11.357 7.95476L10.4119 9.7909C9.70687 9.89566 9.05091 10.2142 8.5326 10.7036C8.83502 10.1635 9.20765 9.57488 9.63968 8.89983C10.0717 8.22478 10.7198 7.19871 11.6594 5.84322C11.816 5.5894 11.816 5.52459 11.6594 5.6542C11.242 6.11714 10.8542 6.60595 10.4983 7.11771C9.8719 7.96557 9.02944 9.27786 7.98177 11.06L7.44173 11.8646L5.82161 14.3434C5.58556 14.4657 5.31955 14.5181 5.05476 14.4946L4.2987 16.9842C4.36351 17.0814 4.57952 17.049 4.93595 16.8816C4.86531 17.0299 4.75764 17.1575 4.62331 17.2521C4.48899 17.3467 4.33255 17.4051 4.1691 17.4216L3.96928 17.265L3.86667 16.887V16.6548L4.07189 16.6818L4.96295 14.419L4.42292 13.7548L4.55252 13.3714C4.71994 13.7278 4.88195 13.9114 5.03316 13.96C5.27077 13.501 5.6164 12.8799 6.06463 12.0861C6.55378 11.2518 7.09488 10.4492 7.68474 9.68289V9.47767C7.68474 9.35886 7.74415 9.35347 7.86296 9.47767L9.13745 7.64155L8.08977 9.45067C8.26258 9.63428 8.18698 9.7639 7.86296 9.8341C6.84657 11.1593 6.0078 12.6117 5.36798 14.1544L5.6218 14.23C5.77301 14.3002 5.91882 14.23 6.05383 14.0248L7.60914 11.276L9.08344 8.52721C9.65886 7.39233 10.4558 6.38422 11.4272 5.5624ZM5.88102 14.743C5.56665 15.3167 5.29413 15.9123 5.06556 16.5252L4.86034 16.4982L5.40038 14.8457L5.88102 14.743ZM4.73613 17.5188L4.1961 18.8905L3.83967 20.0894L3.96928 19.0688L4.14749 18.3343L4.2987 17.5944L4.73613 17.5188ZM3.89368 16.2984C3.99886 15.5897 4.16141 14.8908 4.37971 14.2084L4.57952 14.4622L3.89368 16.2984ZM5.19517 11.843C6.08962 10.3258 6.90438 8.76297 7.63614 7.16091C7.99658 6.45082 8.42331 5.77637 8.91063 5.14656C9.07804 4.75774 8.98624 4.76854 8.62981 5.14656C7.49812 6.68253 6.5247 8.32903 5.72441 10.0609L6.21044 8.83503C6.45063 8.20766 6.72281 7.59301 7.0259 6.99349C7.39215 6.18723 7.84483 5.4231 8.376 4.71453C8.81343 4.17449 9.12125 3.79107 9.28866 3.63446C9.8989 3.09442 10.2553 2.86221 10.3687 2.90001C10.414 2.94027 10.4456 2.99361 10.4591 3.05265C10.4727 3.11168 10.4675 3.17347 10.4443 3.22943L9.19685 6.43726C8.28167 8.17651 7.20975 9.82867 5.99442 11.3732C5.45439 11.9834 5.08716 12.3723 4.94675 12.5451C4.82433 12.6963 4.71417 12.857 4.61733 13.0257L4.71993 12.5937L5.19517 11.843ZM4.2015 25.7382C4.22807 25.5187 4.1866 25.2962 4.08269 25.101C3.97702 24.9607 3.89995 24.8011 3.85587 24.6311C3.78027 24.4043 3.66686 24.0911 3.51025 23.6159C3.37505 23.22 3.26502 22.816 3.18083 22.4062C3.14302 22.4062 3.11062 22.363 3.07822 22.3468C2.67413 22.1402 2.35785 21.7952 2.18715 21.3747C1.93895 20.751 1.74208 20.108 1.59851 19.4522C1.40982 18.5306 1.33725 17.589 1.3825 16.6494C1.45896 15.3767 1.63957 14.1123 1.92254 12.8691C2.39416 11.0673 3.28412 9.40209 4.52012 8.00877C4.80814 7.68835 4.98816 7.61274 5.06016 7.78195C5.13057 8.43711 5.13057 9.09793 5.06016 9.75309C4.96618 10.4772 4.79973 11.19 4.56332 11.8808C3.90448 14.0842 3.50665 15.5675 3.36984 16.3308C3.11782 17.2344 2.837 18.4063 2.52738 19.8464C2.39417 19.148 2.47517 17.6845 2.7704 15.4559C2.91818 13.8185 3.3001 12.2108 3.90447 10.682C4.12589 10.1905 4.11509 10.1149 3.90447 10.4551C2.8604 12.2337 2.25556 14.8511 2.08995 18.3073C2.02379 19.1819 2.09116 20.0614 2.28976 20.9157C2.46257 21.4557 2.65699 21.7581 2.87841 21.8445L2.96481 21.8824H3.06202C3.1318 21.8762 3.19879 21.852 3.25643 21.8121C3.35904 21.1695 3.42924 20.6457 3.46164 20.246C3.49405 19.8464 3.54265 19.382 3.60205 18.8473C3.64373 18.3897 3.75104 17.9405 3.92068 17.5134L4.02328 17.6106C3.89166 18.1429 3.80139 18.6846 3.75326 19.2308C3.7478 19.5377 3.72617 19.8442 3.68846 20.1488C3.65606 20.4512 3.62366 21.0399 3.59126 21.904C3.79107 21.2073 4.01249 20.5485 4.2501 19.9166L5.03856 17.6269L6.05923 15.2075C6.74779 13.9141 7.5293 12.6723 8.39759 11.492C8.77295 10.9408 9.33491 10.5437 9.97991 10.3741C10.1068 10.71 10.1068 11.0806 9.97991 11.4164C9.84361 11.9923 9.63684 12.5491 9.36426 13.0743V13.1013C9.29406 13.2363 9.22386 13.3605 9.14825 13.4902L8.96464 13.8196C8.88903 13.9546 8.81343 14.0734 8.73782 14.203L8.55421 14.5054L8.32739 14.8619L8.14918 15.1319L7.92236 15.4613C7.86836 15.5423 7.80895 15.6341 7.74955 15.7097C7.69015 15.7853 7.59834 15.9149 7.52273 16.0121L7.34992 16.239C7.27432 16.3362 7.19331 16.428 7.11771 16.5198L6.95569 16.7088C6.86929 16.8114 6.78288 16.8978 6.69648 16.9896L6.56686 17.13C6.43185 17.265 6.30765 17.3838 6.17804 17.5026L7.93316 14.6512L8.77022 13.1229C9.09424 12.5451 9.15365 12.3399 8.94843 12.5127C7.23471 15.0869 6.20864 16.707 5.87022 17.373C5.52999 18.0373 5.20057 18.6529 4.87655 19.2308C4.62416 19.6608 4.41089 20.1127 4.2393 20.5809C4.14209 20.9049 3.92608 21.4773 3.60746 22.309C3.66839 22.7582 3.76961 23.201 3.90988 23.6321C3.99724 24.0938 4.18128 24.5318 4.44991 24.9174C4.48308 24.9403 4.51079 24.9703 4.53108 25.0052C4.55138 25.0401 4.56377 25.079 4.56738 25.1191C4.57098 25.1593 4.56572 25.1998 4.55195 25.2377C4.53819 25.2756 4.51626 25.3101 4.48772 25.3386C4.44763 25.5988 4.48325 25.865 4.59033 26.1054C4.73199 26.6822 4.92725 27.2445 5.17357 27.785L5.09796 28.0388C4.74707 27.284 4.44756 26.5064 4.2015 25.7112V25.7382ZM3.35904 18.1777C3.19163 19.5386 3.04582 20.5971 2.92701 21.3639L2.8244 21.1587C2.72719 20.9895 2.90541 19.9868 3.35904 18.1507V18.1777ZM11.4272 37.295L11.0978 36.863C11.0468 36.8041 10.9772 36.7644 10.9005 36.7507C10.8239 36.7369 10.7448 36.7499 10.6766 36.7874C10.4965 36.8522 10.3561 36.7496 10.2553 36.4796C10.0254 36.6085 9.75634 36.649 9.49871 36.5933C9.24108 36.5376 9.01272 36.3896 8.85663 36.1772L8.01957 35.1565L7.23111 33.8064L6.95029 33.6066C6.78987 33.7082 6.59743 33.7467 6.41026 33.7146C5.98586 33.6175 5.60586 33.3819 5.33018 33.0449C4.72604 32.221 4.21017 31.3359 3.79107 30.4042C3.00349 28.962 2.29851 27.4763 1.67952 25.9542C1.4095 25.1226 1.23129 24.5933 1.13948 24.3719C1.04767 24.1505 1.02067 24.1505 1.03687 24.3719C1.12423 24.8571 1.2525 25.3341 1.4203 25.7976C1.80585 26.8995 2.24746 27.981 2.7434 29.0379C3.28343 30.1935 3.85587 31.2412 4.39591 32.1917C3.3104 31.0608 2.40026 29.7739 1.69572 28.3736C1.18217 27.3474 0.806295 26.2579 0.577841 25.1334C0.475374 24.5994 0.422942 24.057 0.421229 23.5133C0.384017 23.1019 0.384017 22.688 0.421229 22.2766C0.507635 22.0228 0.626446 21.9148 0.777657 21.9472C0.928867 21.9796 1.11248 22.1902 1.4797 22.6762C2.09886 23.695 2.59725 24.7824 2.96481 25.9164C3.59665 27.6014 3.98008 28.7084 4.12589 29.2377C4.2717 29.7669 4.41211 30.2205 4.55792 30.6094C4.71567 31.0187 4.89596 31.4189 5.09796 31.8083C5.30345 32.288 5.61557 32.7147 6.01063 33.0557C6.41565 33.342 6.70728 33.3906 6.90169 33.207L5.96742 31.4842C5.873 31.4513 5.77022 31.4513 5.6758 31.4842H5.6272C5.59307 31.4873 5.55872 31.4873 5.52459 31.4842C5.25457 31.4356 5.13577 31.2196 5.19517 30.82C5.27217 30.288 5.38219 29.7614 5.52459 29.2431C5.92185 27.9385 6.46534 26.683 7.1447 25.5006C7.06627 25.9538 7.02294 26.4124 7.0151 26.8723C6.38865 28.28 5.93142 29.4177 5.6434 30.2853C5.48679 30.9118 5.49759 31.2196 5.6434 31.198L5.84862 31.1008L5.6974 30.7444L5.80001 30.4636L6.10243 31.0036L6.28064 30.874L6.43185 31.1062L6.28064 31.333L7.42553 32.9855L7.70635 32.7587L7.91156 32.9855C7.57134 33.3258 7.43633 33.5256 7.50113 33.6498C7.75102 34.1184 8.03249 34.5695 8.34359 34.9999C8.85123 35.7451 9.26706 35.9558 9.59108 35.6371C9.69369 35.5507 9.8179 35.5669 9.97451 35.6857C10.1932 35.9028 10.3659 36.1618 10.4821 36.4472V35.8639L9.54248 34.9729L9.00244 33.8928C8.66321 33.4248 8.34778 32.9399 8.05737 32.4401C7.87376 32.1053 7.64154 31.6948 7.36072 31.2196C7.0799 30.7444 6.73428 30.2097 6.32925 29.5995L6.40486 29.3187L7.22031 30.3124C7.76953 30.9947 8.28325 31.7049 8.75942 32.4401C9.05644 32.9207 9.22926 33.0395 9.29946 32.7803L9.45067 32.2997L9.67749 32.4239L9.52628 33.4176L9.47767 33.7254C9.47767 33.963 9.47767 34.1034 9.61808 34.1466C9.75849 34.1898 9.8233 34.341 9.9097 34.6165C10.1205 35.0064 10.3901 35.3616 10.709 35.6695C11.163 36.1786 11.6761 36.6318 12.2373 37.0196C12.7773 37.3869 13.2147 37.6839 13.5604 37.9107C13.906 38.1375 14.1004 38.3643 14.0572 38.5857L14.5378 38.6883L14.4136 38.0781L14.716 38.0025C14.8973 38.1379 15.0314 38.3268 15.0995 38.5425C15.5423 38.8828 15.9257 39.1528 16.2444 39.358L15.0995 39.5848L13.1877 38.4399L11.4272 37.295ZM6.74508 31.3546L6.89629 31.2034L7.60914 32.3969L7.53353 32.5535L6.74508 31.3546ZM7.94396 33.747L8.21938 33.3906L8.88363 34.3302L9.26706 35.0215L9.39127 35.3995C9.14516 35.2744 8.93511 35.0885 8.78102 34.8595L8.376 34.3194L7.94396 33.747ZM13.8196 39.8818L12.2913 40.1357L12.6477 39.1204L13.8196 39.8818ZM17.4594 44.6396C16.7097 45.3682 15.9004 46.033 15.0401 46.6269L14.7376 46.5243C15.2777 46.2003 16.0121 45.6764 16.9788 44.9474L17.4108 44.4614H17.1786C16.8347 44.7723 16.4741 45.0644 16.0985 45.3362C15.6434 45.6587 15.163 45.944 14.662 46.1895L13.9222 46.5459L14.0518 46.6971L14.5918 46.7727C14.9123 46.9779 15.0473 47.1831 14.9969 47.3884C14.8295 47.6422 14.554 47.6746 14.1814 47.4856L13.5712 47.1561C13.3848 46.9602 13.1607 46.8041 12.9123 46.6971L12.6531 46.4973L12.7557 46.2381L13.5226 46.5459H13.7494L13.6252 46.0869L14.5378 45.5468C14.7754 45.4604 14.8781 45.3146 14.8457 45.1094L14.9213 44.6558C15.3559 44.7303 15.8031 44.6621 16.1957 44.4614C16.6028 44.2636 17.0416 44.1393 17.4918 44.0941C17.7403 44.1805 17.7295 44.3749 17.4594 44.5964V44.6396ZM16.8492 43.5865L14.4568 44.1265C12.6747 44.4506 10.9178 44.7134 9.18605 44.915C7.86835 44.359 6.59393 43.7055 5.37338 42.96C4.26101 42.332 3.21205 41.5977 2.24116 40.7675C1.56071 40.0384 1.29069 39.5956 1.4257 39.4444C1.81791 38.8173 2.118 38.1371 2.31677 37.4247C2.37661 37.2513 2.39329 37.0659 2.36537 36.8846C2.18175 36.3068 2.31676 36.0098 2.7758 35.9936C3.53752 35.9341 4.302 35.9179 5.06556 35.9449C5.23297 35.9449 5.34638 35.9125 5.39498 35.7937L5.77841 35.0269L5.54619 34.9243L5.21677 35.4373V34.8487C5.21677 34.7623 5.26538 34.7407 5.36798 34.7731C6.08083 34.9621 6.41025 35.1997 6.36165 35.4859C6.1373 35.8718 6.03033 36.3147 6.05383 36.7604L6.08083 38.0835C5.15889 37.4763 4.18691 36.9488 3.17542 36.5066C3.3114 36.4851 3.44839 36.4707 3.58585 36.4634C3.64656 36.4687 3.7075 36.4562 3.76122 36.4275C3.81494 36.3987 3.85909 36.3549 3.88827 36.3014C3.94228 36.2006 3.85047 36.1412 3.61286 36.1232C3.26777 36.0969 2.92089 36.1391 2.59218 36.2474C2.47337 36.3878 2.50038 36.5282 2.66779 36.6848C3.78183 37.2329 4.86367 37.8441 5.90802 38.5155C7.38053 39.448 8.5254 40.2113 9.34266 40.8053C10.4675 40.7566 11.5888 40.6466 12.7017 40.4759L14.8619 40.0654C15.7637 39.898 16.698 39.7522 17.6647 39.6334C18.0211 39.5848 18.4693 39.5524 19.0147 39.5308C19.5171 39.5169 20.0183 39.4755 20.5161 39.4066C20.9007 40.0884 21.1759 40.8265 21.3315 41.5938C21.3819 41.9178 21.3387 42.0978 21.2019 42.1338C19.7798 42.6884 18.3264 43.159 16.8492 43.5433V43.5865ZM23.3675 42.7548L23.2379 42.3498L22.552 43.2139L22.012 43.5703C21.9104 43.6725 21.7858 43.7489 21.6486 43.7931C21.5114 43.8372 21.3656 43.8479 21.2235 43.8241L20.3324 43.3921L20.7915 43.1653L20.9157 43.2679C20.8347 43.5217 20.9157 43.4893 21.2235 43.1653L22.012 42.4038C22.0388 41.796 21.9261 41.19 21.6825 40.6325C21.528 40.1585 21.3235 39.7023 21.0723 39.2716C21.0345 39.1204 20.6457 39.0826 19.9004 39.169C20.1426 39.0583 20.4044 38.997 20.6705 38.9887C20.9366 38.9803 21.2017 39.0251 21.4503 39.1204L22.066 39.3742L22.3954 39.2284L22.3468 39.1852L21.8067 38.9152H22.1092L22.3684 39.1582L22.444 39.1906H22.417L22.5952 39.358C23.1817 39.9133 23.6757 40.5587 24.0587 41.2697C24.1678 41.5902 24.1809 41.9356 24.0965 42.2634C23.7401 42.6792 23.5025 42.825 23.3675 42.7116V42.7548ZM29.4483 46.4217L29.7291 46.4757L29.6265 46.5999L28.9623 46.8051C28.6733 47.0591 28.3235 47.2339 27.947 47.3128L27.515 47.2371L27.4123 46.9293C27.5088 46.7834 27.6458 46.6689 27.8066 46.5999C28.0099 46.5226 28.2195 46.463 28.433 46.4217L29.0433 46.5243L29.4483 46.4217ZM28.5086 46.1409C28.2097 46.1067 27.9073 46.1611 27.6392 46.2975H27.2827C26.8657 46.019 26.4752 45.7026 26.1163 45.3524L24.9174 44.4128C25.394 44.3056 25.8922 44.349 26.3431 44.537L28.5086 46.1409ZM32.1485 40.9619C32.5218 41.0137 32.9016 40.9917 33.2664 40.8971C34.2851 40.3135 35.2329 39.614 36.0908 38.8126C37.1678 37.9623 38.3382 37.2376 39.5794 36.6524C39.8656 36.485 39.8818 36.3608 39.6172 36.2852C39.2295 36.1965 38.832 36.1584 38.4345 36.1718C38.2617 36.3068 38.2779 36.4148 38.4831 36.5012C38.6542 36.4752 38.829 36.4938 38.9908 36.5552C37.9903 37.0602 37.0378 37.6548 36.1448 38.3319C36.2096 37.9431 36.269 37.2734 36.323 36.323C36.307 36.0259 36.1994 35.7411 36.0152 35.5075C35.8963 35.3401 36.0584 35.1889 36.5012 35.0485L36.8576 34.9513V35.4913L36.3716 35.3671L36.4202 35.6209C36.4799 35.7178 36.5584 35.8017 36.6512 35.8676C36.744 35.9334 36.8491 35.9799 36.9602 36.0044L38.3373 36.08H38.9476C39.6604 36.08 40.0276 36.269 39.9898 36.62C39.9731 36.9316 39.9986 37.2441 40.0654 37.5489C40.1945 38.2994 40.4897 39.0117 40.9295 39.6334C40.7783 40.031 40.555 40.3971 40.2707 40.7135L38.9476 41.5775C37.8099 42.3912 36.2654 43.4515 34.314 44.7584C32.6358 44.7765 30.9586 44.6664 29.2971 44.429C27.6525 44.1897 26.0279 43.8286 24.4367 43.3489L24.0317 43.2463L24.2099 43.0681C24.4074 42.8459 24.5662 42.5921 24.6798 42.3174C24.686 42.0241 24.6421 41.7319 24.5501 41.4533C24.3571 40.8592 24.0322 40.3164 23.5997 39.8656V39.709L23.9777 39.6604C24.9257 39.7124 25.8672 39.8479 26.7913 40.0654C27.6176 40.2707 28.595 40.4543 29.7345 40.6055C30.874 40.7567 31.6571 40.8755 32.1485 40.9187V40.9619ZM30.2205 40.2437C29.7777 40.1789 29.0649 40.0492 28.0604 39.8656L28.9515 39.5578C29.4267 39.6604 29.6967 39.5578 29.7669 39.2554C29.8422 39.6146 29.9973 39.9523 30.2205 40.2437ZM35.5399 32.7371C35.3829 32.8836 35.2692 33.0703 35.2111 33.2769C35.153 33.4836 35.1528 33.7022 35.2105 33.909C34.6902 34.199 34.2242 34.5773 33.8334 35.0269C33.4732 35.4217 33.1378 35.8383 32.8289 36.2744C32.6704 36.5594 32.413 36.7765 32.1053 36.8846C31.9375 36.9472 31.7555 36.9616 31.58 36.9263C31.4044 36.891 31.2422 36.8074 31.1116 36.6848L31.009 37.3167L29.3025 38.3643L28.4654 38.7207C28.5511 38.4389 28.5948 38.1459 28.595 37.8513L28.8975 37.5975C30.0675 36.989 30.7462 36.4292 30.9334 35.918C31.1385 35.5246 31.3965 35.1612 31.7003 34.8379C31.9757 34.5466 32.1759 34.1926 32.2835 33.8064L32.3105 33.1962L32.2295 32.5589C32.5049 32.8613 32.7695 32.9315 32.9693 32.7587C33.3125 32.1218 33.6948 31.5067 34.1142 30.9172C34.5132 30.3586 34.9479 29.8264 35.4157 29.3241C35.8693 28.8326 36.2636 28.4168 36.5822 28.0766V28.7138C35.8863 29.5254 35.2475 30.3844 34.6705 31.2844C33.9904 32.2628 33.4028 33.3024 32.9153 34.3896C32.7404 34.7971 32.4586 35.1497 32.0999 35.4103C31.8705 35.5136 31.6633 35.6603 31.4896 35.8423C31.3708 36.0638 31.441 36.1232 31.6948 36.0206C31.8483 35.8589 32.0317 35.7287 32.2349 35.6371C32.6129 35.4481 33.4068 34.557 34.6327 32.9909L34.6057 32.0999L34.8865 31.6138C34.8865 32.1053 34.8865 32.3807 35.0107 32.4293C35.1349 32.4779 35.2537 32.3429 35.4319 32.0081C35.6101 31.6732 36.0476 30.766 36.7442 29.2755C36.5991 29.6601 36.5991 30.0844 36.7442 30.469C36.3392 30.7606 36.2042 31.252 36.4148 31.9487L35.5399 32.7371ZM41.2535 27.0883C41.2035 27.4765 41.0609 27.8469 40.8377 28.1684C40.1411 28.9677 39.8494 29.4429 39.9682 29.5941C40.057 29.7649 40.0945 29.9577 40.0763 30.1493C40.0581 30.3409 39.985 30.5232 39.8656 30.6742C39.411 31.2179 38.9183 31.7286 38.3913 32.2025C38.5587 32.5427 38.4345 32.8289 38.0079 33.0665C37.489 33.3495 36.947 33.588 36.3878 33.7794C37.3515 33.1347 38.069 32.1831 38.4237 31.0792C38.6959 30.8118 39.0143 30.5959 39.3634 30.442C39.601 30.2908 39.6442 30.2205 39.493 30.2421C39.1473 30.3766 38.822 30.5583 38.5263 30.7822C38.8519 30.1231 39.0828 29.4213 39.2122 28.6976C39.7069 28.258 40.1281 27.7421 40.4597 27.1693C40.6973 26.8129 40.7027 26.7373 40.4867 26.9425C40.1603 27.4429 39.7659 27.8955 39.3148 28.2872C39.5703 27.4854 39.7831 26.6706 39.952 25.8462C40.033 25.3062 40.0114 25.2252 39.871 25.5654L39.6172 26.4565C39.5301 26.1634 39.3931 25.8875 39.2122 25.641L39.5416 26.7211C39.4268 27.3353 39.2661 27.94 39.061 28.5302C38.8348 27.8764 38.5166 27.2581 38.1159 26.6941C37.7595 26.2567 37.7001 26.2459 37.9377 26.6941C38.3816 27.3728 38.7084 28.1213 38.9044 28.9082C38.7438 29.6115 38.5046 30.2944 38.1915 30.9442C38.036 30.6835 37.8191 30.4647 37.5597 30.307C37.3869 30.2205 37.3869 30.2746 37.5597 30.4582C37.7642 30.6584 37.9454 30.8813 38.0997 31.1224C37.9087 31.5966 37.6384 32.0349 37.3004 32.4185C37.001 32.7597 36.674 33.0757 36.323 33.3636C36.7254 32.7464 36.8708 31.9964 36.728 31.2736C36.728 31.1386 36.836 31.0252 37.0466 30.9442C37.2572 30.8632 37.3328 30.766 37.2626 30.6634C37.1042 30.3908 37.0083 30.0865 36.9818 29.7723C37.1788 29.7 37.3951 29.7 37.5921 29.7723C37.8117 29.6211 37.7901 29.4051 37.5273 29.1243C37.2407 28.7825 37.0688 28.3593 37.0358 27.9146C37.0358 27.6068 37.2356 27.4988 37.6461 27.5852C37.8297 27.5852 37.8459 27.3637 37.6947 26.9209L37.2626 26.3377C36.9548 25.6572 37.0844 25.4088 37.6461 25.5978L38.3049 26.0028C38.7478 26.1757 38.9584 25.8786 38.9422 25.1118C38.9422 24.9444 39.0718 24.9066 39.3364 24.9984C39.601 25.0902 39.844 24.8958 40.06 24.4043C40.2815 24.1667 40.4543 24.4043 40.5731 25.0632C40.5191 25.965 40.7405 26.3863 41.2319 26.3377C41.3183 26.4241 41.3291 26.6617 41.2697 27.0883H41.2535ZM42.0204 24.8958C42.0345 24.9704 42.0311 25.0472 42.0105 25.1203C41.9898 25.1934 41.9526 25.2607 41.9016 25.317C41.7369 25.4649 41.5354 25.5656 41.3183 25.6086L41.0375 25.101C41.0471 24.6745 40.9034 24.2587 40.6325 23.9291C40.7961 23.8014 40.9782 23.6994 41.1725 23.6267C41.3615 23.5403 41.3291 23.5133 41.0753 23.5511C40.8538 23.5842 40.6388 23.6516 40.4381 23.7509H40.3841C40.5448 23.1975 40.7947 22.674 41.1239 22.201C41.2103 21.9796 41.1563 21.9904 40.9727 22.201C40.6809 22.6124 40.4243 23.0478 40.2059 23.5025C40.0838 23.3457 40.0056 23.1593 39.979 22.9624C39.9088 22.6384 39.8602 22.633 39.8278 22.9354C39.8474 23.2284 39.9245 23.5147 40.0546 23.7779C39.682 24.3557 39.385 24.5825 39.1636 24.4637C39.2986 23.6483 39.4768 22.795 39.7036 21.8932C40.0924 21.5043 40.4327 21.3531 40.7243 21.5151C41.1293 21.1911 41.4749 21.1317 41.7666 21.3369C41.9106 21.5601 41.9822 21.8222 41.9718 22.0876C41.9387 22.377 41.8507 22.6574 41.7126 22.9138C42.0366 22.9138 42.2094 23.038 42.2256 23.2919C42.1804 23.5439 42.0849 23.7843 41.9448 23.9986C41.8047 24.2129 41.6229 24.3968 41.4101 24.5393C41.8026 24.6113 42.0114 24.7302 42.0366 24.8958H42.0204ZM6.37785 41.1509C6.37785 41.2103 6.43726 41.2049 6.49666 41.2589C6.73428 41.4209 6.9665 41.3507 7.12311 41.0537C7.17217 41.0073 7.2095 40.9498 7.23202 40.8861C7.25455 40.8224 7.26161 40.7543 7.25265 40.6873C7.24368 40.6203 7.21894 40.5565 7.18046 40.5009C7.14198 40.4454 7.09085 40.3998 7.0313 40.3679C6.90709 40.2599 6.90709 40.2599 6.79908 40.4381L6.37785 41.1509ZM3.01341 38.9044C3.32124 39.115 3.49945 39.277 3.82347 38.8612C3.8634 38.8178 3.89427 38.767 3.91428 38.7115C3.9343 38.6561 3.94306 38.5973 3.94004 38.5384C3.93702 38.4796 3.92229 38.4219 3.89671 38.3689C3.87113 38.3158 3.83521 38.2683 3.79107 38.2293C3.73621 38.1863 3.67638 38.15 3.61286 38.1213C3.55345 38.1213 3.55885 38.1861 3.49945 38.1861L3.01341 38.9044ZM7.84135 41.2751C7.88996 41.0429 7.93316 40.8701 7.75495 40.7351L7.80895 40.6703C7.92776 40.7243 8.05197 40.8323 8.17078 40.8863C8.30325 40.9665 8.44237 41.0352 8.58661 41.0915L8.52721 41.1509C8.4732 41.0969 8.29499 41.0483 8.24099 41.1509C8.18698 41.2535 8.04657 41.853 7.99797 42.0312L7.81975 43.0195L8.54341 42.4092C8.76208 42.2007 8.96768 41.9788 9.15905 41.745C9.26166 41.5667 9.15905 41.5181 9.08344 41.4587V41.3507C9.20225 41.4533 9.32106 41.5073 9.38587 41.5614C9.49049 41.6021 9.59014 41.6547 9.68289 41.718V41.772C9.44527 41.6154 9.22926 41.9124 9.00784 42.096L7.57674 43.4407L7.45793 43.3867L7.86296 41.2967L7.84135 41.2751ZM5.99442 41.6315C5.9062 41.7781 5.83894 41.9362 5.79461 42.1014C5.74061 42.2202 5.85402 42.2742 5.97822 42.3822L5.92422 42.4416C5.79371 42.337 5.65251 42.2465 5.50299 42.1716C5.38418 42.123 5.26537 42.015 5.14656 41.9664V41.8476C5.26537 41.9016 5.38418 42.0096 5.43819 41.8908C5.57817 41.7768 5.69076 41.6329 5.76761 41.4695L6.30765 40.5785C6.3827 40.4319 6.47129 40.2927 6.57227 40.1627C6.62087 39.9898 6.50206 39.9358 6.38325 39.8872L6.43726 39.8278C6.56146 39.9358 6.73428 39.9844 6.85849 40.0924C6.98269 40.2005 7.0961 40.2491 7.21491 40.3031C7.30007 40.3353 7.37677 40.3864 7.43919 40.4527C7.50162 40.519 7.54813 40.5986 7.5752 40.6855C7.60226 40.7725 7.60917 40.8644 7.59541 40.9544C7.58164 41.0444 7.54755 41.1301 7.49573 41.2049C7.44832 41.2942 7.381 41.3715 7.29896 41.4306C7.21692 41.4897 7.12237 41.5291 7.02264 41.5458C6.9229 41.5625 6.82066 41.5561 6.72383 41.5269C6.62701 41.4978 6.53819 41.4467 6.46426 41.3777C6.40486 41.3777 6.28605 41.2697 6.28605 41.2697L6.01063 41.6315H5.99442ZM4.73074 39.5848C4.80497 39.4349 4.89553 39.2936 5.00076 39.1636C5.04936 38.9908 4.93055 38.9368 4.81174 38.8882L4.91975 38.818L6.17804 39.6172L5.85942 40.0924L5.79461 40.0438C6.01062 39.6874 5.88642 39.5794 5.5894 39.3634L5.40579 39.2554C5.35178 39.2014 5.35178 39.2014 5.23837 39.3256L4.75774 40.0978C5.11956 40.3679 5.29777 40.1843 5.44899 40.0006H5.50299C5.40038 40.1789 5.29237 40.2977 5.23837 40.4165C5.16262 40.5626 5.07407 40.7018 4.97375 40.8323L4.90895 40.7783C5.12496 40.4219 5.00075 40.3139 4.70373 40.1572L4.38511 40.6973C4.33111 40.8107 4.2231 40.9349 4.2285 41.0483C4.23363 41.1228 4.26038 41.1941 4.30547 41.2536C4.35055 41.3131 4.41201 41.3581 4.48232 41.3831C4.77934 41.5397 4.95215 41.5884 5.22757 41.2913H5.28157L4.96295 41.8314L3.52645 40.8701L3.58045 40.8107C3.61851 40.8474 3.66707 40.8712 3.71935 40.879C3.77163 40.8867 3.82502 40.878 3.87207 40.8539C3.92608 40.7945 4.08809 40.5569 4.1961 40.4381L4.73613 39.6064L4.73074 39.5848ZM3.34284 40.3733C3.34284 40.5461 3.34284 40.6055 3.47785 40.7135L3.42384 40.7729L3.24023 40.6109C3.18083 40.5569 3.06202 40.5623 3.00261 40.5083L3.04582 40.2167V39.2986C3.04582 39.1258 3.04582 39.1258 2.91621 39.0178L2.64619 39.3796C2.59218 39.493 2.43557 39.7306 2.38697 39.8494C2.33837 39.9682 2.45178 40.0168 2.57058 40.0708L2.51658 40.1302C2.39777 40.0816 2.27356 39.9736 2.16015 39.9196C2.04225 39.7999 1.89801 39.7092 1.73892 39.655L1.79293 39.5956C1.91174 39.6496 1.97114 39.6982 2.08455 39.6388C2.22284 39.5245 2.33359 39.3806 2.40857 39.2176L2.99721 38.3265C3.09936 38.1943 3.18972 38.0533 3.26723 37.9053C3.31583 37.7919 3.19703 37.7379 3.13762 37.6839V37.5705C3.31583 37.6731 3.43464 37.7865 3.61826 37.8891C3.72829 37.9446 3.8286 38.0175 3.91528 38.1051C4.2177 38.3157 4.45531 38.5911 4.1961 39.007C4.15719 39.0802 4.10339 39.1444 4.03815 39.1956C3.97292 39.2468 3.8977 39.2837 3.81733 39.304C3.73696 39.3244 3.65323 39.3277 3.57151 39.3137C3.48979 39.2998 3.41189 39.2689 3.34284 39.223V40.3733ZM19.8734 41.1347L19.3982 40.2491L19.2524 41.2103L19.8734 41.1347ZM12.4965 42.825C12.5505 42.9384 12.5559 43.1059 12.6153 43.2193C12.6747 43.3327 12.7881 43.3273 12.9015 43.3219C13.0073 43.2838 13.0944 43.2065 13.1446 43.1059C13.1949 43.0054 13.2045 42.8893 13.1715 42.7818C13.1807 42.6858 13.164 42.5891 13.1232 42.5017C13.0824 42.4144 13.0189 42.3395 12.9393 42.285C12.8097 42.2544 12.6747 42.2544 12.5451 42.285H12.4371L12.5073 42.7872L12.4965 42.825ZM12.4209 42.1554H12.4803C12.5883 42.0906 12.7017 42.0852 12.7557 42.0312C12.846 41.9004 12.8827 41.74 12.8583 41.5829C12.7935 41.3021 12.6747 41.1941 12.4533 41.1995C12.4029 41.2361 12.3427 41.2567 12.2805 41.2589V41.4263L12.4155 42.1554H12.4209ZM10.6442 43.1005C10.6628 43.2553 10.7047 43.4064 10.7684 43.5487C10.8332 43.6567 10.9412 43.6567 11.0546 43.5973C11.3354 43.5973 11.4434 43.3651 11.3786 43.0248C11.3192 42.8574 11.2544 42.69 11.087 42.636C10.9405 42.5828 10.7799 42.5828 10.6334 42.636H10.574L10.6442 43.0843V43.1005ZM10.5145 42.4848L10.628 42.4254C10.7414 42.4254 10.8494 42.4254 10.9088 42.3066C10.9544 42.2528 10.9873 42.1894 11.005 42.1212C11.0228 42.0529 11.025 41.9816 11.0114 41.9124C10.9466 41.6316 10.8278 41.4641 10.5469 41.5289C10.4856 41.5317 10.4267 41.5544 10.3795 41.5938V41.7018L10.5145 42.4848ZM19.1552 41.4911C19.1552 41.6586 19.0526 41.9448 19.112 42.0312C19.1714 42.1176 19.2848 42.1392 19.3982 42.1338V42.285H19.058C18.9537 42.3349 18.8384 42.3572 18.7231 42.3498V42.285C18.7924 42.2683 18.8553 42.2319 18.9042 42.1801C18.9531 42.1283 18.9859 42.0635 18.9985 41.9934C19.0472 41.7126 19.0418 41.4857 19.0904 41.2589L19.3388 39.736H19.4468L20.3432 41.4533C20.4027 41.5614 20.5161 41.7342 20.5809 41.8422C20.6664 41.8893 20.7653 41.9064 20.8617 41.8908V41.9988C20.7269 41.9953 20.5928 42.0192 20.4675 42.069C20.2946 42.069 20.1326 42.1338 20.0192 42.1338V42.0798C20.0732 42.0204 20.246 42.015 20.1812 41.8476C20.1812 41.7936 20.1218 41.6802 20.1218 41.6262L19.8842 41.2373L19.1498 41.3723V41.4857L19.1552 41.4911ZM18.0751 40.0546H18.1345L18.2695 40.7783H18.2101C18.0859 40.3841 17.7943 40.114 17.4594 40.1789C16.9194 40.2491 16.8546 40.9241 16.9194 41.4803C16.9842 42.0366 17.2866 42.5982 17.8537 42.528C18.2479 42.4038 18.3505 42.069 18.3397 41.6153L18.3937 41.5559L18.5287 42.3984L18.4099 42.231C18.2577 42.4214 18.0402 42.5484 17.7997 42.5874C17.1786 42.717 16.6602 42.2796 16.5252 41.5505C16.3902 40.8215 16.7736 40.1951 17.3892 40.1248C17.6213 40.0682 17.8661 40.101 18.0751 40.2167V40.0492V40.0546ZM15.7637 41.1347C15.7637 41.0213 15.6989 40.7999 15.6989 40.6919C15.6618 40.6544 15.617 40.6253 15.5676 40.6067C15.5182 40.588 15.4654 40.5803 15.4127 40.5839L15.3533 40.5299C15.5002 40.4841 15.6531 40.4604 15.8069 40.4597C15.9743 40.4597 16.1417 40.3949 16.2552 40.3949V40.4489C16.2075 40.4588 16.1628 40.4796 16.1244 40.5096C16.086 40.5395 16.055 40.5779 16.0337 40.6217C16.031 40.7754 16.0529 40.9285 16.0985 41.0753L16.2444 42.1554C16.2535 42.3102 16.2958 42.4612 16.3686 42.5982C16.428 42.7116 16.5414 42.7062 16.6548 42.7008V42.8196H16.2066C16.0613 42.8719 15.907 42.8939 15.7529 42.8844V42.825C15.8663 42.825 15.9797 42.825 15.9743 42.6522C15.9689 42.4794 15.9743 42.312 15.9743 42.204L15.7745 41.1239L15.7637 41.1347ZM13.798 41.5127C13.798 41.3993 13.7278 41.1239 13.7278 41.0051C13.7122 40.9831 13.6924 40.9644 13.6696 40.9501C13.6467 40.9357 13.6213 40.926 13.5947 40.9215C13.5682 40.917 13.5409 40.9178 13.5147 40.9238C13.4884 40.9298 13.4635 40.9409 13.4416 40.9565L13.3821 40.8485C13.5361 40.8548 13.6898 40.8329 13.8358 40.7837C13.9885 40.7923 14.1413 40.7684 14.284 40.7135L14.3434 40.8215C14.23 40.8215 14.1166 40.8215 14.0626 40.9403C14.0086 41.0591 14.1328 41.3345 14.1328 41.4479L14.2732 42.528C14.3488 42.9762 14.4622 43.0681 14.8565 43.0195C14.9645 42.96 15.1373 42.9547 15.2453 42.8358C15.2924 42.7723 15.3259 42.6996 15.3436 42.6225C15.3612 42.5453 15.3627 42.4654 15.3479 42.3876L15.4613 42.3228L15.5315 42.9979H15.3641C14.8565 43.0681 14.284 43.1977 13.7872 43.2679V43.2085C13.8952 43.1491 14.0086 43.1491 14.0086 43.0357C14.0383 42.8677 14.0383 42.6959 14.0086 42.528L13.8142 41.5235L13.798 41.5127ZM11.9943 41.8368C11.9859 41.6801 11.9435 41.5271 11.87 41.3885C11.8106 41.2805 11.6972 41.2859 11.5838 41.2859V41.2049C11.7298 41.1554 11.8833 41.1316 12.0375 41.1347C12.1509 41.1347 12.2589 41.0753 12.3777 41.0699C12.7125 41.0051 13.1121 41.0699 13.1769 41.5019C13.2471 41.8368 13.0203 42.0096 12.7989 42.1284C12.9594 42.1022 13.1238 42.139 13.2579 42.231C13.4189 42.334 13.5406 42.488 13.6036 42.6684C13.6118 42.7726 13.5972 42.8773 13.5609 42.9752C13.5245 43.0731 13.4672 43.162 13.3929 43.2355C13.3194 43.3 13.2339 43.3495 13.1412 43.381C13.0485 43.4125 12.9506 43.4254 12.8529 43.4191C12.7989 43.4785 12.6315 43.4839 12.5181 43.4893C12.3434 43.4998 12.1717 43.54 12.0105 43.6081V43.5001C12.0645 43.5001 12.2319 43.5001 12.2265 43.3273C12.2211 43.1545 12.1617 42.9871 12.1617 42.879L12.0213 41.799L11.9943 41.8368ZM10.0879 42.1662C10.0879 42.0582 10.0231 41.7774 10.0177 41.664C10.0123 41.5506 9.8449 41.556 9.73689 41.6208V41.5073C9.87166 41.5103 10.0057 41.4865 10.1311 41.4371C10.2658 41.4477 10.4011 41.4254 10.5253 41.3723C10.61 41.3407 10.7008 41.3286 10.7908 41.3369C10.8809 41.3453 10.9679 41.3739 11.0453 41.4207C11.1227 41.4674 11.1885 41.5311 11.2378 41.6069C11.2871 41.6827 11.3186 41.7687 11.33 41.8584C11.359 41.9829 11.3429 42.1136 11.2845 42.2273C11.2262 42.341 11.1294 42.4303 11.0114 42.4794C11.1625 42.4629 11.3155 42.4795 11.4596 42.528C11.5484 42.5774 11.6227 42.6493 11.6748 42.7366C11.727 42.8238 11.7552 42.9232 11.7566 43.0248C11.7765 43.1256 11.7672 43.2299 11.7299 43.3255C11.6926 43.4212 11.6288 43.5042 11.546 43.5649C11.4063 43.6848 11.2279 43.75 11.0438 43.7485C10.9091 43.738 10.7738 43.7602 10.6496 43.8133C10.4227 43.8133 10.3093 43.8835 10.0825 43.8889V43.8295C10.1959 43.7701 10.3093 43.7647 10.3633 43.6513C10.4173 43.5379 10.2931 43.2625 10.2931 43.1491L10.0933 42.1392L10.0879 42.1662ZM29.2431 42.4632L29.0703 41.4317L28.6166 42.3498L29.2431 42.4632ZM33.0827 42.2094C33.0827 42.096 33.0233 41.8098 33.0233 41.7504C32.9693 41.5775 32.8505 41.637 32.7371 41.637V41.5181H33.1962C33.3096 41.5181 33.4824 41.4641 33.6498 41.4641V41.5775C33.5418 41.5775 33.4176 41.5776 33.369 41.6964V42.2364L33.4824 43.2733C33.4727 43.4464 33.4928 43.6199 33.5418 43.7863C33.5958 43.8997 33.7092 43.8997 33.8226 43.8997V43.9051H33.369C33.2202 43.9496 33.0649 43.9679 32.9099 43.9591V43.9051C32.9693 43.9051 33.1422 43.9051 33.1422 43.7323C33.1691 43.5805 33.1691 43.4251 33.1422 43.2733L33.0827 42.1932V42.2094ZM30.8308 41.988C30.8308 41.8746 30.8902 41.5883 30.8902 41.4749C30.863 41.4222 30.822 41.3778 30.7716 41.3464C30.7212 41.3151 30.6633 41.2979 30.604 41.2967L30.6634 41.2481C30.7768 41.2481 30.9496 41.2967 31.063 41.2967C31.2371 41.3531 31.4205 41.3751 31.603 41.3615L31.549 41.4749C31.4896 41.4749 31.3168 41.4155 31.2628 41.5289C31.2088 41.6424 31.2034 41.934 31.144 42.069L30.9766 43.1491C30.9172 43.6081 30.9766 43.7215 31.3168 43.7809C31.4896 43.7809 31.6625 43.8403 31.7759 43.7809C32.0081 43.6675 32.0081 43.5487 32.0621 43.3219H32.1755L32.0081 44.0077C32.0081 43.9537 31.8893 43.9537 31.8893 43.9537C31.3168 43.8403 30.8092 43.7809 30.2367 43.6675V43.6081C30.2983 43.615 30.3606 43.6085 30.4194 43.5889C30.4781 43.5693 30.5319 43.5372 30.577 43.4947C30.5932 43.3371 30.6314 43.1826 30.6904 43.0357L30.8578 41.9988L30.8308 41.988ZM28.4438 42.582C28.3844 42.6954 28.271 42.9816 28.217 43.0951C28.163 43.2085 28.3844 43.2679 28.4438 43.3273V43.3813C28.3304 43.3813 28.217 43.3273 28.1036 43.3273C27.9902 43.3273 27.8714 43.2679 27.758 43.2679L27.812 43.2139C27.9848 43.2139 28.0388 43.1545 28.1576 42.9816C28.2764 42.8088 28.3844 42.5226 28.5032 42.2904L29.1891 40.9187L29.3025 40.9727L29.6427 42.9222C29.7021 43.041 29.7021 43.2679 29.7561 43.3813C29.8101 43.4947 29.8695 43.5001 29.9829 43.5541V43.6135C29.8695 43.6135 29.7021 43.5541 29.5293 43.5541C29.3813 43.5064 29.2253 43.488 29.0703 43.5001L29.1405 43.3651C29.1999 43.3651 29.3673 43.4245 29.3673 43.3111V42.9654L29.3133 42.5658L28.514 42.447L28.4546 42.5658L28.4438 42.582ZM28.2224 41.4047L28.163 41.3507C28.2224 41.0051 28.109 40.8863 27.8228 40.8107C27.65 40.8107 27.4771 40.7567 27.4771 40.8701L27.1963 42.6468C27.1963 42.9384 27.1963 42.9978 27.4771 43.1113V43.1653C27.292 43.1586 27.1093 43.1203 26.9371 43.0519C26.7643 43.0606 26.5912 43.0424 26.4241 42.9979V42.9384C26.7643 42.9384 26.8291 42.8844 26.8831 42.5928L27.1099 40.8107C27.1693 40.7567 26.9911 40.6973 26.8831 40.6973C26.5375 40.6433 26.4241 40.6433 26.3701 41.1023L26.2513 41.0429L26.3701 40.4651L28.3088 40.8107L28.1954 41.3885L28.2224 41.4047ZM25.3278 41.0213C25.3548 40.8677 25.3548 40.7105 25.3278 40.5569C25.3278 40.4435 25.2144 40.3841 25.101 40.3841V40.2761C25.2487 40.3317 25.403 40.368 25.56 40.3841C25.7328 40.3841 25.9002 40.4435 26.1 40.4435L26.0406 40.5029C25.9812 40.5029 25.8138 40.5029 25.7598 40.6163C25.7058 40.7297 25.7004 40.9619 25.641 41.0753L25.5276 42.1554C25.4862 42.3066 25.468 42.4632 25.4736 42.6198C25.4736 42.7872 25.587 42.7872 25.7004 42.7872V42.906C25.5276 42.8412 25.4088 42.8412 25.2414 42.7872C25.0878 42.7971 24.9337 42.777 24.7878 42.7278V42.6738C24.8958 42.6738 25.0092 42.6738 25.0686 42.5604C25.1398 42.4177 25.1786 42.2609 25.182 42.1014L25.3548 41.0213H25.3278ZM39.1204 39.2986L38.2617 38.7262L38.6019 39.7036L39.142 39.2986H39.1204ZM35.2645 42.069L34.5409 41.3615L34.7137 42.339L35.2537 42.0528L35.2645 42.069ZM38.6613 39.9088C38.6829 40.1087 38.7415 40.3028 38.8342 40.4813C38.9476 40.5947 39.061 40.4813 39.1204 40.4219L39.1744 40.5407C39.0895 40.6114 38.9949 40.6696 38.8936 40.7135C38.8342 40.7675 38.7154 40.8269 38.6613 40.9403L38.6019 40.8269C38.7154 40.7135 38.7153 40.6595 38.7153 40.4813C38.6224 40.239 38.5484 39.9898 38.4939 39.736L38.0349 38.2455L38.0889 38.1861L39.7468 39.3364C39.8489 39.4304 39.9656 39.507 40.0924 39.5632C40.2005 39.6226 40.3193 39.5632 40.4327 39.5038V39.6226C40.3069 39.6777 40.1917 39.7545 40.0924 39.8494C39.979 39.9628 39.8602 40.0222 39.7468 40.141L39.6928 40.0816C39.7468 40.0222 39.8602 39.9088 39.8062 39.79C39.7522 39.6712 39.6334 39.682 39.574 39.6226L39.2338 39.3904L38.6019 39.8494L38.6613 39.9088ZM35.8045 40.3247C35.6317 40.2653 35.5183 40.2653 35.4049 40.3841L35.3455 40.2653C35.4589 40.2058 35.5183 40.2059 35.5777 40.0924C35.6631 40.0785 35.7422 40.039 35.8045 39.979L38.0349 40.7297L37.4031 39.8602C37.2896 39.7522 37.1762 39.52 37.0628 39.4066C36.9494 39.2932 36.8306 39.3472 36.6632 39.4066L36.6038 39.3472L36.9494 39.1744C36.9938 39.0717 37.0746 38.9889 37.1762 38.9422L37.2356 39.0016C37.1762 39.1204 37.0628 39.1204 37.1222 39.2878C37.2449 39.4858 37.3783 39.6768 37.5219 39.8602L38.4345 41.1293L38.3751 41.1833C38.2544 41.1727 38.1378 41.1339 38.0349 41.0699L35.9774 40.3841L36.7172 41.4155C36.8151 41.5628 36.9313 41.697 37.0628 41.8152C37.1762 41.8746 37.2896 41.8152 37.4031 41.7558V41.8152C37.3392 41.9228 37.2399 42.0048 37.1222 42.0474C37.0114 42.1036 36.9124 42.1806 36.8306 42.2742L36.7766 42.2202C36.89 42.1014 36.9494 42.0474 36.89 41.8746C36.8131 41.7274 36.7168 41.5912 36.6038 41.4695L35.8045 40.3247ZM34.7569 42.6198C34.7715 42.8141 34.8077 43.0061 34.8649 43.1923C34.9243 43.3111 35.0917 43.2517 35.1511 43.1923L35.2051 43.2517C35.0917 43.3111 35.0377 43.3651 34.9243 43.4245C34.822 43.4698 34.7258 43.5279 34.6381 43.5973L34.5787 43.5379C34.6432 43.4967 34.6907 43.4336 34.7125 43.3602C34.7343 43.2868 34.729 43.208 34.6975 43.1383C34.6874 42.886 34.6475 42.6359 34.5787 42.393L34.2924 40.8431H34.4112L35.8909 42.1608C35.9933 42.2707 36.1095 42.3669 36.2366 42.447C36.35 42.5064 36.4634 42.447 36.5228 42.447L36.5822 42.5064C36.4355 42.5588 36.2985 42.6355 36.1772 42.7332C36.0335 42.7911 35.899 42.8693 35.7775 42.9654L35.7235 42.852C35.8369 42.852 35.9504 42.7332 35.8909 42.6198C35.8326 42.5288 35.7552 42.4514 35.6641 42.393L35.3779 42.1608L34.6975 42.5064L34.7569 42.6198Z" fill="#0066CC"/>
<path d="M163.648 12.8479V4.16406H168.12L168.795 7.48529L169.335 4.16406H173.936V12.8479H170.934V8.37636H170.788L170.037 12.7615H167.521L166.786 8.37636H166.64V12.8479H163.648Z" fill="#0066CC"/>
<path d="M175.355 12.8479V4.16406H178.358V12.8479H175.355Z" fill="#0066CC"/>
<path d="M179.762 12.8479V4.16406H182.716L184.708 7.45829H184.892V4.16406H187.911V12.8479H184.941L182.97 9.31063H182.775V12.8479H179.762Z" fill="#0066CC"/>
<path d="M189.297 12.8479V4.16406H192.305V12.8479H189.297Z" fill="#0066CC"/>
<path d="M200.33 6.66968C199.11 6.54008 198.224 6.47527 197.673 6.47527C197.35 6.45944 197.027 6.47391 196.706 6.51847C196.665 6.52959 196.63 6.55448 196.605 6.58892C196.581 6.62336 196.569 6.66524 196.571 6.70748C196.573 6.7556 196.589 6.80214 196.617 6.84145C196.645 6.88076 196.683 6.91114 196.728 6.9289C197.047 7.03798 197.374 7.12459 197.705 7.18812C198.162 7.28191 198.612 7.4009 199.056 7.54454C199.395 7.65573 199.714 7.82174 200.001 8.03598C200.261 8.22934 200.45 8.50244 200.541 8.81364C200.643 9.21757 200.688 9.63382 200.676 10.0503C200.676 11.1304 200.389 11.8865 199.822 12.3455C199.063 12.8578 198.154 13.0995 197.241 13.0313C196.183 13.0153 195.128 12.8978 194.093 12.6803L193.585 12.5669L193.715 10.2717C194.787 10.4403 195.869 10.5359 196.955 10.558C197.403 10.558 197.63 10.4554 197.63 10.2555C197.63 10.1691 197.576 10.1097 197.473 10.0719C197.196 9.99869 196.915 9.94455 196.631 9.90991C195.421 9.7155 194.595 9.42387 194.163 9.01885C193.921 8.75362 193.738 8.44074 193.624 8.10032C193.511 7.75991 193.47 7.39951 193.504 7.04231C193.504 5.87583 193.785 5.07657 194.346 4.64454C195.118 4.15475 196.027 3.92744 196.939 3.9965C197.908 4.00787 198.876 4.0909 199.833 4.24491L200.373 4.33671L200.33 6.66968Z" fill="#0066CC"/>
<path d="M201.473 6.64318V4.19141H207.953V6.64318H206.274V12.8752H203.266V6.64318H201.473Z" fill="#0066CC"/>
<path d="M212.832 10.6067H212.098V12.8479H209.09V4.16406H212.751C214.091 4.16406 215.046 4.39087 215.624 4.8337C216.202 5.27654 216.494 6.1028 216.494 7.31249C216.494 8.52217 216.175 9.37543 215.538 9.89387L216.391 12.8479H213.335L212.832 10.6067ZM212.832 8.23595C213.254 8.23595 213.47 7.95513 213.47 7.38809C213.47 6.82105 213.232 6.54023 212.757 6.54023H212.092V8.26295L212.832 8.23595Z" fill="#0066CC"/>
<path d="M225.795 8.50593C225.795 10.0882 225.471 11.2385 224.812 11.9514C224.154 12.6642 223.106 13.0315 221.669 13.0315C220.233 13.0315 219.18 12.6696 218.521 11.9514C217.862 11.2331 217.527 10.0828 217.527 8.50593C217.527 6.92902 217.857 5.80574 218.516 5.07129C219.174 4.33684 220.222 3.99121 221.664 3.99121C223.106 3.99121 224.154 4.34764 224.812 5.07129C225.471 5.79494 225.795 6.92902 225.795 8.50593ZM220.562 8.50593C220.53 9.05442 220.601 9.60414 220.773 10.126C220.855 10.2886 220.985 10.4219 221.145 10.5079C221.306 10.5939 221.489 10.6284 221.669 10.6067C221.848 10.6314 222.031 10.5987 222.19 10.5133C222.349 10.4279 222.477 10.2942 222.555 10.1315C222.728 9.60972 222.799 9.05986 222.766 8.51134C222.794 7.97267 222.726 7.43332 222.566 6.91822C222.486 6.75556 222.357 6.62216 222.197 6.53688C222.037 6.4516 221.854 6.41875 221.675 6.44299C221.493 6.41976 221.308 6.45413 221.146 6.54129C220.984 6.62845 220.854 6.76402 220.773 6.92902C220.606 7.43709 220.534 7.97179 220.562 8.50593Z" fill="#0066CC"/>
<path d="M167.643 24.9499H165.358V27.9687H164.359V19.0041H167.643C168.032 18.9718 168.424 19.0183 168.795 19.1408C169.167 19.2632 169.509 19.4592 169.803 19.7169C170.313 20.3161 170.565 21.0926 170.505 21.8771C170.505 23.9238 169.549 24.9499 167.643 24.9499ZM165.358 24.0696H167.627C168.865 24.0696 169.483 23.3496 169.479 21.9095C169.524 21.3654 169.369 20.8236 169.041 20.3866C168.853 20.2105 168.63 20.0762 168.386 19.9924C168.142 19.9087 167.883 19.8774 167.627 19.9006H165.358V24.0696Z" fill="#0066CC"/>
<path d="M171.891 27.9685V19.0039H177.345V19.8842H172.89V22.9786H176.567V23.8481H172.89V27.0883H177.345V27.9685H171.891Z" fill="#0066CC"/>
<path d="M179.901 24.5343V27.969H178.902V19.0043H182.224C183.001 18.9407 183.774 19.1764 184.384 19.6632C184.641 19.9381 184.837 20.2635 184.961 20.6188C185.084 20.974 185.133 21.3512 185.102 21.7261C185.102 23.1086 184.562 23.9763 183.482 24.3291L185.205 27.969H184.125L182.504 24.5343H179.901ZM182.234 23.6541C183.455 23.6541 184.06 23.0276 184.06 21.7693C184.06 20.5111 183.449 19.8846 182.224 19.8846H179.901V23.6649L182.234 23.6541Z" fill="#0066CC"/>
<path d="M194.393 27.9685H189.457V19.0039H190.456V27.1045H194.393V27.9685Z" fill="#0066CC"/>
<path d="M193.91 21.6336L194.483 18.793H195.509L194.677 21.6336H193.91Z" fill="#0066CC"/>
<path d="M196.973 27.9685V19.0039H197.972V27.9685H196.973Z" fill="#0066CC"/>
<path d="M200.004 27.9685V19.0039H201.872L205.307 27.1045H205.577V19.0039H206.565V27.9685H204.735L201.251 19.868H201.003V27.9685H200.004Z" fill="#0066CC"/>
<path d="M208.609 27.9685V19.0039H210.473L213.907 27.1045H214.183V19.0039H215.165V27.9685H213.34L209.851 19.868H209.608V27.9685H208.609Z" fill="#0066CC"/>
<path d="M223.942 23.5508C223.942 25.1493 223.687 26.3068 223.175 27.0232C222.668 27.7415 221.739 28.1033 220.4 28.1033C219.06 28.1033 218.126 27.7361 217.618 26.9962C217.111 26.2564 216.852 25.1061 216.852 23.5346C216.852 21.963 217.111 20.7858 217.629 20.0189C218.148 19.2521 219.071 18.874 220.389 18.874C221.707 18.874 222.635 19.2521 223.159 20.0135C223.683 20.775 223.942 21.9522 223.942 23.5508ZM217.878 23.5238C217.815 24.4993 218.001 25.4747 218.418 26.359C218.763 26.9314 219.428 27.2176 220.421 27.2176C221.415 27.2176 222.074 26.9368 222.414 26.3752C222.821 25.4923 222.998 24.5205 222.927 23.5508C222.99 22.5578 222.804 21.5648 222.387 20.6616C222.027 20.0567 221.363 19.7543 220.394 19.7543C219.422 19.7543 218.774 20.0513 218.412 20.6562C217.999 21.5527 217.815 22.5383 217.878 23.5238Z" fill="#0066CC"/>
<path d="M230.574 19.0039H231.611L229.267 27.9685H227.037L224.688 19.0039H225.714L227.777 27.1045H228.5L230.574 19.0039Z" fill="#0066CC"/>
<path d="M231.691 27.9685L234.154 19.0039H236.314L238.777 27.9685H237.81L237.162 25.6626H233.322L232.68 27.9685H231.691ZM234.905 19.868L233.544 24.7823H236.941L235.58 19.868H234.905Z" fill="#0066CC"/>
<path d="M239.508 19.8842V19.0039H245.34V20.1704L240.647 26.8291V27.0883H245.34V27.9847H239.508V26.8291L244.19 20.1704V19.8842H239.508Z" fill="#0066CC"/>
<path d="M246.848 27.9685V19.0039H247.858V27.9685H246.848Z" fill="#0066CC"/>
<path d="M256.602 23.5508C256.602 25.1493 256.347 26.3068 255.836 27.0232C255.324 27.7397 254.397 28.0997 253.054 28.1033C251.715 28.1033 250.786 27.7361 250.279 26.9962C249.771 26.2564 249.512 25.1061 249.512 23.5346C249.512 21.963 249.771 20.7858 250.289 20.0189C250.808 19.2521 251.726 18.874 253.049 18.874C254.372 18.874 255.296 19.2521 255.819 20.0135C256.343 20.775 256.602 21.9522 256.602 23.5508ZM250.554 23.5238C250.492 24.4993 250.677 25.4747 251.094 26.359C251.44 26.9314 252.104 27.2176 253.092 27.2176C254.08 27.2176 254.75 26.9368 255.09 26.3752C255.498 25.4923 255.674 24.5205 255.603 23.5508C255.668 22.5577 255.482 21.5642 255.063 20.6616C254.712 20.0567 254.048 19.7543 253.076 19.7543C252.104 19.7543 251.456 20.0513 251.094 20.6562C250.678 21.5523 250.493 22.5379 250.554 23.5238Z" fill="#0066CC"/>
<path d="M258.273 27.9685V19.0039H260.142L263.577 27.1045H263.847V19.0039H264.835V27.9685H263.004L259.521 19.868H259.273V27.9685H258.273Z" fill="#0066CC"/>
<path d="M266.883 27.9685V19.0039H272.337V19.8842H267.882V22.9786H271.56V23.8481H267.882V27.0883H272.337V27.9685H266.883Z" fill="#0066CC"/>
<path d="M275.66 19.895V19.0039H282.141V19.895H279.403V27.9955H278.42V19.895H275.66Z" fill="#0066CC"/>
<path d="M283.25 27.9685V19.0039H288.704V19.8842H284.249V22.9786H287.932V23.8481H284.249V27.0883H288.704V27.9685H283.25Z" fill="#0066CC"/>
<path d="M295.579 27.8279C294.791 28 293.987 28.0922 293.181 28.1033C292.594 28.1246 292.009 28.0235 291.463 27.8063C291.035 27.6232 290.678 27.3045 290.448 26.899C290.202 26.462 290.036 25.9848 289.957 25.4895C289.857 24.8301 289.812 24.1636 289.822 23.4968C289.812 22.8281 289.857 22.1598 289.957 21.4986C290.034 20.9961 290.2 20.5115 290.448 20.0675C290.676 19.6633 291.028 19.3433 291.453 19.1549C291.989 18.9482 292.563 18.8526 293.138 18.874C293.958 18.8874 294.776 18.9815 295.579 19.1549L295.535 20.0027C294.766 19.8551 293.985 19.7756 293.202 19.7651C292.252 19.7651 291.625 20.0513 291.318 20.613C290.947 21.5324 290.79 22.524 290.859 23.513C290.852 24.0543 290.88 24.5956 290.945 25.1331C290.991 25.5216 291.102 25.8996 291.274 26.251C291.418 26.5687 291.674 26.8224 291.993 26.9638C292.435 27.1308 292.908 27.2044 293.381 27.1798C294.106 27.1692 294.829 27.0915 295.541 26.9476L295.579 27.8279Z" fill="#0066CC"/>
<path d="M297.051 27.9685V19.0039H298.919L302.354 27.1045H302.624V19.0039H303.607V27.9685H301.782L298.293 19.868H298.077V27.9685H297.051Z" fill="#0066CC"/>
<path d="M312.384 23.5508C312.384 25.1493 312.13 26.3068 311.622 27.0232C311.082 27.7415 310.186 28.1033 308.841 28.1033C307.496 28.1033 306.567 27.7361 306.06 26.9962C305.552 26.2564 305.293 25.1061 305.293 23.5346C305.293 21.963 305.552 20.7858 306.071 20.0189C306.589 19.2521 307.513 18.874 308.836 18.874C310.159 18.874 311.077 19.2521 311.601 20.0135C312.124 20.775 312.384 21.9522 312.384 23.5508ZM306.319 23.5238C306.257 24.4993 306.442 25.4747 306.859 26.359C307.205 26.9314 307.874 27.2176 308.863 27.2176C309.851 27.2176 310.515 26.9368 310.855 26.3752C311.196 25.8135 311.395 24.8739 311.395 23.5508C311.458 22.5578 311.273 21.5648 310.855 20.6616C310.495 20.0567 309.831 19.7543 308.863 19.7543C307.891 19.7543 307.243 20.0513 306.881 20.6562C306.458 21.5503 306.265 22.536 306.319 23.5238Z" fill="#0066CC"/>
<path d="M318.995 27.9685H314.059V19.0039H315.058V27.1045H318.995V27.9685Z" fill="#0066CC"/>
<path d="M326.579 23.5508C326.579 25.1493 326.325 26.3068 325.818 27.0232C325.277 27.7415 324.381 28.1033 323.036 28.1033C321.692 28.1033 320.763 27.7361 320.255 26.9962C319.747 26.2564 319.488 25.1061 319.488 23.5346C319.488 21.963 319.748 20.7858 320.266 20.0189C320.784 19.2521 321.708 18.874 323.031 18.874C324.354 18.874 325.272 19.2521 325.796 20.0135C326.32 20.775 326.579 21.9522 326.579 23.5508ZM320.514 23.5238C320.452 24.4993 320.638 25.4747 321.054 26.359C321.4 26.9314 322.07 27.2176 323.058 27.2176C324.046 27.2176 324.71 26.9368 325.051 26.3752C325.391 25.8135 325.591 24.8739 325.591 23.5508C325.653 22.5578 325.468 21.5648 325.051 20.6616C324.691 20.0567 324.026 19.7543 323.058 19.7543C322.086 19.7543 321.438 20.0513 321.076 20.6562C320.653 21.5503 320.46 22.536 320.514 23.5238Z" fill="#0066CC"/>
<path d="M331.8 24.2744V23.3833H334.263V27.7901C333.303 27.9835 332.326 28.0883 331.347 28.1033C330.04 28.1033 329.138 27.7253 328.647 26.9746C328.155 26.2239 327.891 25.0629 327.891 23.4914C327.891 21.9198 328.139 20.7912 328.647 20.0081C329.154 19.2251 330.051 18.874 331.347 18.874C332.187 18.8777 333.024 18.9646 333.847 19.1332L334.29 19.2089L334.252 20.0405C333.333 19.8717 332.401 19.7796 331.466 19.7651C330.472 19.7651 329.802 20.0513 329.457 20.6291C329.111 21.207 328.917 22.1575 328.917 23.4914C328.917 24.8252 329.084 25.7811 329.457 26.359C329.829 26.9368 330.467 27.2176 331.449 27.2176C332.071 27.2162 332.691 27.1565 333.302 27.0394V24.2744H331.8Z" fill="#0066CC"/>
<path d="M336.078 27.9685V19.0039H337.077V27.9685H336.078Z" fill="#0066CC"/>
<path d="M344.523 27.8279C343.735 28 342.932 28.0922 342.126 28.1033C341.539 28.1235 340.954 28.0224 340.408 27.8063C339.981 27.6229 339.626 27.3041 339.398 26.899C339.15 26.4631 338.984 25.9854 338.907 25.4895C338.805 24.8303 338.758 24.1638 338.767 23.4968C338.758 22.828 338.805 22.1597 338.907 21.4986C338.982 20.9955 339.148 20.5104 339.398 20.0675C339.627 19.6633 339.979 19.3433 340.403 19.1549C340.94 18.9482 341.513 18.8526 342.088 18.874C342.907 18.8874 343.723 18.9815 344.523 19.1549L344.486 20.0027C343.716 19.8556 342.936 19.7761 342.153 19.7651C341.202 19.7651 340.57 20.0513 340.268 20.613C339.895 21.5318 339.736 22.5236 339.804 23.513C339.799 24.0543 339.828 24.5953 339.89 25.1331C339.938 25.5211 340.05 25.8987 340.219 26.251C340.366 26.5664 340.621 26.8192 340.938 26.9638C341.38 27.1304 341.853 27.2039 342.325 27.1798C343.051 27.1686 343.774 27.0908 344.486 26.9476L344.523 27.8279Z" fill="#0066CC"/>
<path d="M345.215 27.9685L347.677 19.0039H349.838L352.3 27.9685H351.317L350.669 25.6626H346.835L346.187 27.9685H345.215ZM348.455 19.868L347.094 24.7823H350.464L349.103 19.868H348.455Z" fill="#0066CC"/>
<path d="M164.359 43.0896V34.125H169.819V35.0053H165.358V38.0997H169.041V38.9691H165.358V42.2094H169.819V43.0896H164.359Z" fill="#0066CC"/>
<path d="M179.006 43.0896H174.07V34.125H175.069V42.2256H179.006V43.0896Z" fill="#0066CC"/>
<path d="M179.332 43.0896L181.795 34.125H183.955L186.417 43.0896H185.429L184.781 40.7837H180.947L180.299 43.0896H179.332ZM182.572 34.9891L181.211 39.9034H184.603L183.242 34.9891H182.572Z" fill="#0066CC"/>
<path d="M189.457 35.0161V34.125H195.937V35.0161H193.2V43.1166H192.233V35.0161H189.457Z" fill="#0066CC"/>
<path d="M198.05 39.655V43.0896H197.051V34.125H200.367C201.144 34.063 201.916 34.2985 202.527 34.7838C202.784 35.0587 202.98 35.3842 203.104 35.7394C203.228 36.0947 203.276 36.4718 203.245 36.8468C203.245 38.2293 202.696 39.0969 201.598 39.4498L203.321 43.0896H202.241L200.62 39.655H198.05ZM200.383 38.7747C201.6 38.7747 202.208 38.1465 202.208 36.89C202.208 35.6317 201.598 35.0052 200.367 35.0052H198.05V38.7855L200.383 38.7747Z" fill="#0066CC"/>
<path d="M204 43.0896L206.457 34.125H208.617L211.08 43.0896H210.092L209.444 40.7837H205.609L204.961 43.0896H204ZM207.213 34.9891L205.852 39.9034H209.249L207.888 34.9891H207.213Z" fill="#0066CC"/>
<path d="M212.355 43.0896V34.125H214.224L217.659 42.2256H217.934V34.125H218.917V43.0896H217.075L213.592 34.9891H213.344V43.0896H212.355Z" fill="#0066CC"/>
<path d="M223.437 34.8598C222.141 34.8598 221.493 35.3494 221.493 36.3287C221.471 36.5338 221.5 36.7411 221.577 36.9324C221.654 37.1236 221.777 37.2928 221.936 37.425C222.504 37.7252 223.116 37.9313 223.75 38.0352C224.448 38.1466 225.111 38.4163 225.689 38.8237C225.898 39.035 226.057 39.2898 226.156 39.5698C226.255 39.8499 226.291 40.1483 226.261 40.4438C226.261 42.2835 225.306 43.2034 223.394 43.2034C222.599 43.1878 221.807 43.1138 221.023 42.982L220.559 42.9172L220.661 42.0909C221.556 42.2241 222.457 42.3017 223.361 42.3231C224.636 42.3231 225.279 41.7237 225.279 40.5194C225.297 40.3247 225.268 40.1285 225.194 39.9471C225.121 39.7658 225.006 39.6047 224.857 39.4771C224.374 39.1909 223.837 39.0071 223.28 38.9371C222.508 38.8176 221.771 38.532 221.12 38.1C220.89 37.8812 220.713 37.6127 220.603 37.3151C220.492 37.0175 220.451 36.6986 220.483 36.3827C220.483 34.7626 221.45 33.9688 223.372 33.9688C224.132 33.9793 224.89 34.0443 225.64 34.1632L226.083 34.228L225.991 35.0704C225.144 34.956 224.292 34.8857 223.437 34.8598Z" fill="#0066CC"/>
<path d="M227.832 43.0896V34.125H228.831V43.0896H227.832Z" fill="#0066CC"/>
<path d="M230.32 35.0053V34.125H236.153V35.2915L231.46 41.9502V42.2094H236.153V43.1058H230.32V41.9502L234.997 35.2915V35.0053H230.32Z" fill="#0066CC"/>
<path d="M237.656 43.0896V34.125H238.677V43.0896H237.656Z" fill="#0066CC"/>
<path d="M247.411 38.6709C247.411 40.2694 247.157 41.4269 246.65 42.1433C246.137 42.8616 245.213 43.2234 243.868 43.2234C242.524 43.2234 241.595 42.8562 241.087 42.1163C240.58 41.3765 240.32 40.2262 240.32 38.6547C240.32 37.0832 240.58 35.9059 241.098 35.139C241.616 34.3722 242.54 33.9941 243.863 33.9941C245.186 33.9941 246.104 34.3722 246.628 35.1336C247.152 35.8951 247.411 37.0724 247.411 38.6709ZM241.373 38.6439C241.311 39.6194 241.497 40.5948 241.913 41.4791C242.259 42.0515 242.929 42.3377 243.917 42.3377C244.905 42.3377 245.57 42.0569 245.91 41.4953C246.25 40.9336 246.45 39.994 246.45 38.6709C246.513 37.6779 246.327 36.6849 245.91 35.7817C245.55 35.1768 244.885 34.8744 243.917 34.8744C242.95 34.8744 242.297 35.1714 241.935 35.7763C241.512 36.6705 241.319 37.6561 241.373 38.6439Z" fill="#0066CC"/>
<path d="M249.086 43.0896V34.125H250.949L254.384 42.2256H254.659V34.125H255.642V43.0896H253.795L250.306 34.9891H250.063V43.0896H249.086Z" fill="#0066CC"/>
<path d="M257.691 43.0896V34.125H263.151V35.0053H258.69V38.0997H262.374V38.9691H258.69V42.2094H263.151V43.0896H257.691Z" fill="#0066CC"/>
<path d="M270.601 43.0896H267.398V34.125H270.601C272.059 34.125 273.026 34.7028 273.501 35.8585C273.807 36.6967 273.948 37.586 273.917 38.4777C273.917 40.7351 273.355 42.1572 272.232 42.744C271.724 42.9883 271.164 43.1069 270.601 43.0896ZM272.891 38.4777C272.891 36.7604 272.507 35.6857 271.74 35.2645C271.389 35.0824 270.997 34.9931 270.601 35.0053H268.376V42.2094H270.579C272.124 42.2094 272.894 40.9745 272.891 38.5047V38.4777Z" fill="#0066CC"/>
<path d="M275.605 43.0896V34.125H276.605V43.0896H275.605Z" fill="#0066CC"/>
<path d="M282.184 39.3945V38.5035H284.663V42.9102C283.703 43.1036 282.726 43.2084 281.747 43.2234C280.44 43.2234 279.54 42.8472 279.047 42.0947C278.539 41.3387 278.285 40.183 278.285 38.6115C278.285 37.04 278.539 35.9113 279.047 35.1282C279.554 34.3452 280.445 33.9941 281.747 33.9941C282.587 33.9978 283.424 34.0847 284.247 34.2534L284.69 34.329L284.647 35.1606C283.727 34.9913 282.795 34.8992 281.86 34.8852C280.867 34.8852 280.197 35.1714 279.851 35.7493C279.16 37.5967 279.16 39.6317 279.851 41.4791C280.197 42.0515 280.867 42.3377 281.849 42.3377C282.471 42.3361 283.091 42.2764 283.702 42.1595V39.3945H282.184Z" fill="#0066CC"/>
<path d="M286.465 43.0896V34.125H287.464V43.0896H286.465Z" fill="#0066CC"/>
<path d="M288.562 35.0161V34.125H295.043V35.0161H292.31V43.1166H291.322V35.0161H288.562Z" fill="#0066CC"/>
<path d="M294.758 43.0896L297.22 34.125H299.381L301.843 43.0896H300.86L300.212 40.7837H296.378L295.73 43.0896H294.758ZM297.971 34.9891L296.61 39.9034H300.007L298.646 34.9891H297.971Z" fill="#0066CC"/>
<path d="M308.057 43.0896H303.121V34.125H304.12V42.2256H308.057V43.0896Z" fill="#0066CC"/>
<path d="M309.172 43.0896V34.125H314.626V35.0053H310.171V38.0997H313.849V38.9691H310.171V42.2094H314.626V43.0896H309.172Z" fill="#0066CC"/>
<path d="M150.787 3.09961H105.407H54.5898V44.5745H105.407H150.787V3.09961Z" fill="#0066CC"/>
<path d="M64.2971 18.2096C63.9494 18.1983 63.6031 18.2597 63.2804 18.3898C62.9577 18.52 62.6658 18.7161 62.4232 18.9656C62.18 19.2173 61.9897 19.5152 61.8635 19.8417C61.7374 20.1682 61.6779 20.5167 61.6887 20.8665C61.6793 21.2183 61.7399 21.5685 61.8669 21.8966C61.9939 22.2248 62.1848 22.5245 62.4286 22.7783C62.6693 23.0312 62.9606 23.2307 63.2834 23.3637C63.6063 23.4968 63.9535 23.5604 64.3025 23.5505C64.6472 23.5629 64.9906 23.5018 65.3099 23.3715C65.6292 23.2412 65.9172 23.0445 66.1549 22.7945C66.6334 22.2815 66.8897 21.6001 66.8677 20.8989C66.8893 20.193 66.6334 19.5067 66.1549 18.9872C65.9199 18.7309 65.6321 18.5287 65.3114 18.3944C64.9907 18.2601 64.6446 18.1971 64.2971 18.2096Z" fill="white"/>
<path d="M70.4805 34.805V12.7715H78.095L81.9833 28.843L85.8716 12.7715H93.4861V34.805H89.0146V17.7614H88.5447L84.2244 33.833H79.7529L75.4326 17.7614H74.9466V34.805H70.4805Z" fill="white"/>
<path d="M99.0586 34.805V12.7715H103.53V34.805H99.0586Z" fill="white"/>
<path d="M107.129 16.7246V12.7715H123.33V16.7246H117.498V34.805H113.026V16.7246H107.129Z" fill="white"/>
<path d="M134.346 34.8047H126.926V12.7711H134.346C135.933 12.7289 137.518 12.931 139.044 13.3705C140.186 13.7079 141.19 14.4002 141.912 15.3471C142.613 16.3113 143.094 17.4173 143.321 18.5873C143.612 20.1905 143.742 21.8186 143.71 23.4477C143.736 25.102 143.616 26.7554 143.354 28.389C143.14 29.6327 142.683 30.822 142.009 31.8885C141.328 32.9319 140.319 33.7187 139.141 34.1242C137.595 34.6283 135.972 34.8586 134.346 34.8047ZM139.044 26.056C139.087 25.3648 139.109 24.4089 139.109 23.1884C139.121 22.2093 139.077 21.2303 138.979 20.256C138.903 19.5535 138.694 18.8719 138.364 18.2471C138.062 17.6611 137.545 17.2142 136.922 16.9996C136.088 16.7448 135.217 16.6298 134.346 16.6594H131.397V30.9434H134.346C135.966 30.9434 137.143 30.533 137.878 29.7121C138.504 29.0245 138.893 27.8148 139.044 26.083V26.056Z" fill="white"/>
</svg>
