<?xml version="1.0" encoding="UTF-8" standalone="no"?>
<svg
   id="Layer_1"
   data-name="Layer 1"
   viewBox="0 0 652.35998 88.882573"
   version="1.1"
   sodipodi:docname="Logo-MITD_ORIZ_RGB_blu-bucato-smarginato.svg"
   width="652.35999"
   height="88.882576"
   inkscape:version="1.1.1 (3bf5ae0d25, 2021-09-20)"
   xmlns:inkscape="http://www.inkscape.org/namespaces/inkscape"
   xmlns:sodipodi="http://sodipodi.sourceforge.net/DTD/sodipodi-0.dtd"
   xmlns="http://www.w3.org/2000/svg"
   xmlns:svg="http://www.w3.org/2000/svg"
   xmlns:rdf="http://www.w3.org/1999/02/22-rdf-syntax-ns#"
   xmlns:cc="http://creativecommons.org/ns#"
   xmlns:dc="http://purl.org/dc/elements/1.1/">
  <sodipodi:namedview
     id="namedview127"
     pagecolor="#ffffff"
     bordercolor="#666666"
     borderopacity="1.0"
     inkscape:pageshadow="2"
     inkscape:pageopacity="0.0"
     inkscape:pagecheckerboard="0"
     showgrid="false"
     fit-margin-top="0"
     fit-margin-left="0"
     fit-margin-right="0"
     fit-margin-bottom="0"
     inkscape:zoom="1.72993"
     inkscape:cx="134.3985"
     inkscape:cy="44.510471"
     inkscape:window-width="1920"
     inkscape:window-height="1011"
     inkscape:window-x="0"
     inkscape:window-y="32"
     inkscape:window-maximized="1"
     inkscape:current-layer="Layer_1" />
  <defs
     id="defs4">
    <style
       id="style2">.cls-1,.cls-2{fill:#06c;}.cls-1{fill-rule:evenodd;}</style>
  </defs>
  <title
     id="title6">Logo-MITD_ORIZ_RGB_blu-bucato</title>
  <path
     class="cls-1"
     d="m 78.66,41.58 c 0.25,-1.7 0.08,-2.77 -0.52,-3.21 -0.6,-0.44 -1.4,-0.29 -2.31,0.43 -0.53,-0.28 -1.25,0 -2.16,0.8 a 1.45,1.45 0 0 0 0,-1.08 3.22,3.22 0 0 0 1.58,-1.25 5,5 0 0 0 0.36,-2.15 10.74,10.74 0 0 1 1.64,-3.2 q 1,-2.31 -1.46,-1.61 a 3.27,3.27 0 0 0 1.37,-2.12 3.66,3.66 0 0 0 -0.71,-2.16 c -0.22,-0.51 -0.55,-0.6 -1,-0.29 a 2.58,2.58 0 0 0 0.26,-1.13 8.74,8.74 0 0 0 -0.87,-2.78 q -0.13,-2.78 -1.32,-2.31 a 7.46,7.46 0 0 0 -0.94,-2.78 c -0.76,-1.13 -1.35,-1.43 -1.79,-0.89 -1.23,-1.83 -2.37,-2.58 -3.44,-2.27 a 3.57,3.57 0 0 0 -0.8,-2.12 6.27,6.27 0 0 0 -1,-2.5 c -0.57,-0.22 -1,0.1 -1.18,1 A 7.44,7.44 0 0 0 63.71,7.79 1.81,1.81 0 0 0 62.06,6.61 1.47,1.47 0 0 0 61.26,6.75 2.59,2.59 0 0 0 59.99,6.28 Q 58.39,4.59 57.07,6 L 56.92,5 C 56.61,3.84 55.98,3.58 55.04,4.24 a 14.32,14.32 0 0 0 -4,-3.15 C 50.13,0.77 49.53,0.85 49.25,1.32 A 3.14,3.14 0 0 0 47.74,0.43 C 47.21,0.3 46.74,0.16 46.23,0 c -0.72,0 -1,0.36 -0.94,1.18 a 4.34,4.34 0 0 0 -2.33,0.59 1.12,1.12 0 0 0 -0.33,1.39 2.62,2.62 0 0 0 1.39,1.46 1.43,1.43 0 0 0 -0.24,1 c 0,0.47 0.54,0.86 1.51,1.18 a 4.35,4.35 0 0 0 2.12,0 1,1 0 0 0 0.75,1.37 3,3 0 0 0 3.4,0.71 l -0.14,0.89 1.84,0.76 a 2.12,2.12 0 0 0 1.22,1.88 l 0.72,0.31 a 2.73,2.73 0 0 0 -0.84,0.67 1.05,1.05 0 0 0 -0.2,0.66 l -1.54,1.43 a 27,27 0 0 0 -3.08,-1.56 l 0.31,-2.75 -0.19,-0.08 c -0.54,-0.23 -2.83,-1 -3.43,-1.12 l -0.2,-0.05 -1.35,2.42 A 24.42,24.42 0 0 0 41.27,11.79 L 40.71,9.09 H 40.5 c -0.32,0 -1.14,0 -1.79,0 h -1.75 -0.21 l -0.54,2.7 a 24.55,24.55 0 0 0 -3.41,0.55 l -1.39,-2.42 -0.2,0.05 c -0.57,0.15 -2.84,0.89 -3.41,1.12 l -0.19,0.08 0.32,2.75 a 24.62,24.62 0 0 0 -3.07,1.56 l -2.07,-1.88 -0.17,0.11 -0.38,0.26 a 9,9 0 0 0 0.6,-1.43 l 0.4,-0.13 0.47,-0.19 c 1.57,-0.62 2.9,-1.3 4.13,-1.86 l 1.9,-1 a 16,16 0 0 0 3.77,-2.31 5.24,5.24 0 0 0 2,-3.44 C 35.29,3.33 34.64,3.17 33.57,3.14 a 3.14,3.14 0 0 0 0.9,-2 C 34.06,0.57 32.84,0.48 30.79,0.86 a 16.53,16.53 0 0 0 -5.6,2.49 19.91,19.91 0 0 0 -4.41,3.8 21.33,21.33 0 0 0 -3.14,4.64 l 1,-2.17 c 0.47,-1 1,-2.24 1.51,-3.63 a 2.29,2.29 0 0 0 0,-1.41 C 20.01,4.3 19.7,4.22 19.23,4.34 a 9.33,9.33 0 0 0 -2.73,2 22.16,22.16 0 0 0 -3.84,5.47 37.15,37.15 0 0 0 -2.29,5.14 8.47,8.47 0 0 0 -0.1,-3.63 c -0.15,-0.41 -0.5,-0.52 -1,-0.33 a 6.39,6.39 0 0 0 -1.51,1.55 l -1.46,2 a 24.23,24.23 0 0 0 -1.7,2.76 22.37,22.37 0 0 0 -1.7,4.25 34.4,34.4 0 0 0 -1.11,6.5 18.84,18.84 0 0 0 0.38,5.56 20.09,20.09 0 0 0 1.51,4.38 q 0.75,1.42 1.41,1.65 c 0.28,0.69 0.66,1.84 1.13,3.44 a 4.86,4.86 0 0 1 0.33,1.72 0.83,0.83 0 0 0 0.31,0.83 1.83,1.83 0 0 1 0.59,0.94 20,20 0 0 0 1.65,4.2 11.15,11.15 0 0 0 -0.19,2.07 Q 6.64,48.28 5.23,44.94 2.5,38.87 0.94,39.38 A 1.62,1.62 0 0 0 0,40.75 c 0,0.28 0,1 0,2.17 a 30.64,30.64 0 0 0 0.33,3.67 24.88,24.88 0 0 0 4.85,10.47 l 3.45,4.05 a 8.58,8.58 0 0 0 2,1.53 2.29,2.29 0 0 0 1.75,0.26 30.9,30.9 0 0 0 3,4 c 0.75,1.16 1.54,1.71 2.35,1.65 a 1.68,1.68 0 0 0 1.56,1.13 L 20,69.58 a 23.53,23.53 0 0 0 2.64,2.27 l -0.9,2.54 a 37.73,37.73 0 0 1 -4.34,0.38 q -1.83,-1.32 -5.18,-3.58 l -0.14,-2.83 a 4.07,4.07 0 0 1 0.52,-2.45 c 0.09,-0.54 -0.21,-1 -0.9,-1.46 A 4.07,4.07 0 0 0 9.49,63.83 0.55,0.55 0 0 0 9.16,64.35 v 1.56 L 4.68,66 a 1.27,1.27 0 0 0 -1,0.47 q -0.41,0.48 0,1.89 a 2.82,2.82 0 0 1 0,0.89 11.78,11.78 0 0 1 -1.75,3.68 c -0.12,0.22 -0.07,0.55 0.17,1 A 10.77,10.77 0 0 0 3.86,76 14.54,14.54 0 0 0 5.73,77.51 q 1.25,0.9 4.4,2.74 a 62.21,62.21 0 0 0 7.12,3.67 q 0.7,0 9.42,-1.27 l 0.05,0.52 c -1.66,1.26 -2.73,1.77 -3.2,1.55 -0.66,0.07 -0.87,0.55 -0.62,1.46 a 1.58,1.58 0 0 0 1,0.85 l 0.61,0.71 1.75,1 a 3.17,3.17 0 0 0 1.88,0 1.91,1.91 0 0 0 1.13,-1.46 l 0.19,-0.19 1.89,-1.89 1.36,-1 a 2.78,2.78 0 0 0 2.08,-1.14 c 0.06,-0.5 0.2,-0.81 0.42,-0.94 l 1.65,-1.13 c 0.07,-0.16 0.74,0.11 2,0.8 a 2.41,2.41 0 0 0 1.65,-0.09 l 1.22,-0.71 c 1.1,0.25 3,1.62 5.8,4.1 a 1.33,1.33 0 0 0 0.52,1 3.28,3.28 0 0 0 1.79,0.71 l 0.66,1.22 0.66,0.24 a 3.94,3.94 0 0 0 2.73,-1 l 1,-0.33 c 0.53,-0.41 0.77,-0.82 0.71,-1.22 l -0.43,-0.43 -0.89,-0.23 a 18.59,18.59 0 0 1 -3.44,-2.17 l -0.76,-0.57 a 126.58,126.58 0 0 0 12.78,1.42 3.6,3.6 0 0 0 2.52,-1 q 1.58,-1.16 9.54,-6.81 a 10.26,10.26 0 0 0 1.89,-2.92 5.55,5.55 0 0 1 -1.25,-1.89 9.39,9.39 0 0 1 -0.69,-2.07 3.22,3.22 0 0 1 0,-1.44 1.27,1.27 0 0 0 -0.43,-1.2 1.5,1.5 0 0 0 -1.08,-0.42 17.63,17.63 0 0 0 -3.39,0 c -0.6,-0.06 -0.95,-0.2 -1,-0.42 v -1.13 c 0.09,-0.51 0,-0.73 -0.43,-0.66 a 5.5,5.5 0 0 0 -2.5,1 1,1 0 0 0 0,1.42 1.4,1.4 0 0 1 0.52,1.08 41.41,41.41 0 0 1 -0.52,4.2 35.12,35.12 0 0 1 -4.67,3.34 c -0.66,0.22 -2.13,0.13 -4.43,-0.28 a 4,4 0 0 1 -1.08,-2.26 28.57,28.57 0 0 0 2.5,-1.7 8.7,8.7 0 0 0 1.51,-0.35 c 0.4,-0.14 0.61,-0.53 0.61,-1.16 a 1.53,1.53 0 0 0 0.89,-1 l 2.74,-3.3 a 5.28,5.28 0 0 1 2.87,-1.32 11.41,11.41 0 0 0 4.9,-2.12 c 0.32,-0.35 0.32,-0.84 0,-1.46 a 14.9,14.9 0 0 0 2.93,-2.93 2.69,2.69 0 0 0 0.37,-2.49 8.89,8.89 0 0 0 2.12,-3.59 7.78,7.78 0 0 0 0,-2.54 6.39,6.39 0 0 0 1.25,-1 1.61,1.61 0 0 0 0.35,-1.1 1.5,1.5 0 0 0 -0.52,-1.18 c 0.86,-1.25 0.97,-2.41 0.28,-3.45 z M 67.02,15.7 a 8.23,8.23 0 0 0 0.47,-1.08 c 0.1,-0.28 0.38,-0.31 0.85,-0.09 a 8.63,8.63 0 0 1 2.26,2.49 c 0.5,-0.56 1,-0.36 1.46,0.62 a 4.71,4.71 0 0 1 0.66,3.15 c 1.17,-0.62 1.57,-0.2 1.23,1.28 a 10.67,10.67 0 0 1 0.92,2.42 2.26,2.26 0 0 1 -0.29,1.63 2.33,2.33 0 0 0 -0.42,1.16 q 0,0.39 0.33,0 a 2.36,2.36 0 0 1 1.25,-0.71 3.7,3.7 0 0 1 0.52,1.75 1.68,1.68 0 0 1 -0.64,1.13 2.33,2.33 0 0 0 -0.73,1.46 0.37,0.37 0 0 0 0.43,0.42 l 0.84,-0.23 c 0.44,-0.06 0.46,0.28 0.05,1 a 16.21,16.21 0 0 0 -1,2.07 4.37,4.37 0 0 0 -0.3,1.37 c 0,0.72 -0.16,1.14 -0.38,1.27 a 16.15,16.15 0 0 0 -0.07,-2.85 30.29,30.29 0 0 0 -0.59,-3.33 6.68,6.68 0 0 0 1,-2.21 c 0.22,-0.63 0.17,-0.71 -0.14,-0.24 a 3.58,3.58 0 0 1 -1,1.75 C 73.38,28.77 73.01,27.35 72.6,25.69 a 7.17,7.17 0 0 0 0.89,-3 c 0,-1 0,-1.09 -0.18,-0.24 a 6.15,6.15 0 0 1 -1,2.78 q -0.61,-2 -1.32,-3.72 a 8.64,8.64 0 0 0 0.19,-2.31 q 0,-1.32 -0.24,-0.09 a 5.61,5.61 0 0 1 -0.23,1.69 l -1,-2.64 -0.66,-1.51 q -0.33,-0.75 -0.24,0 l 0.62,2 a 6.08,6.08 0 0 0 -1.32,-1.17 c -0.41,-0.26 -0.49,-0.24 -0.24,0 a 11.55,11.55 0 0 1 1.79,1.93 q 0.61,1.52 1.23,3.12 a 8.73,8.73 0 0 0 -2.5,-1.7 q -0.9,-0.33 0,0.33 a 14.81,14.81 0 0 1 3,2.83 l 1.08,3.2 A 9,9 0 0 1 70.3,25.12 c -0.38,-0.38 -0.39,-0.32 0,0.19 a 13.67,13.67 0 0 0 2.4,2.73 l 0.71,2.87 A 17.78,17.78 0 0 0 70.58,28.7 c -0.5,-0.31 -0.54,-0.25 -0.1,0.19 a 16,16 0 0 1 3.16,3.2 15.85,15.85 0 0 1 0.43,4.86 q -0.06,0.89 -1.32,1.32 l -0.19,2.26 -1.18,0.05 C 70.75,39.7 70.27,39.01 69.94,38.53 69.61,38.05 69.14,37.29 68.53,36.29 A 24.28,24.28 0 0 1 67.18,33.84 2.77,2.77 0 0 1 67.04,31.9 c 0.19,-0.66 0.35,-1.16 0.47,-1.5 0.12,-0.34 0.11,-0.41 0,-0.19 a 7.26,7.26 0 0 0 -0.8,1.93 l -0.95,-2.69 a 10.22,10.22 0 0 1 1.7,-4.1 c 0.31,-0.56 0.28,-0.61 -0.09,-0.14 a 9.81,9.81 0 0 0 -1.84,3.82 l -1.57,-3.19 a 9.11,9.11 0 0 1 1.13,-3.4 c 0.41,-0.88 0.31,-0.84 -0.29,0.1 a 12.69,12.69 0 0 0 -1.08,2.64 c -0.44,-1.79 -0.86,-3.32 -1.27,-4.57 l -0.33,-0.1 0.19,0.52 a 20.93,20.93 0 0 0 1,4.1 8.19,8.19 0 0 0 -2,-1.32 c -0.41,-0.22 -0.41,-0.17 0,0.14 a 8.7,8.7 0 0 1 2.07,1.6 c 0.38,0.88 0.72,1.69 1,2.41 A 14.63,14.63 0 0 0 61.5,26.54 c -0.5,-0.09 -0.5,0 0,0.19 a 6.8,6.8 0 0 1 3.16,2 l 0.94,2.5 c -0.34,0 -0.8,-0.52 -1.36,-1.56 Q 63.53,28.35 60.7,27.13 a 0.89,0.89 0 0 1 -0.52,-1 c 0.07,-0.35 0.43,-0.49 1.09,-0.43 a 4.55,4.55 0 0 0 -0.66,-1.27 l -0.38,-0.56 q -0.75,-1.56 0.9,-1.56 a 1.82,1.82 0 0 1 -0.43,-1.46 3.13,3.13 0 0 1 0.43,-1.74 5.84,5.84 0 0 0 0.42,-1.14 c 0.6,0.35 1.14,0.64 1.63,0.88 a 1.38,1.38 0 0 1 0.77,1.29 l -0.23,1.46 c 0.09,0.29 0.34,0.19 0.75,-0.28 a 2.77,2.77 0 0 1 1,-1 2.66,2.66 0 0 1 1,0.85 q 0.48,0.9 -0.33,3.3 l -0.52,1.32 c 1.07,-1.42 1.94,-2.09 2.6,-2 0.22,0.16 0.29,0.48 0.21,1 a 4.9,4.9 0 0 0 0,1.53 1.44,1.44 0 0 1 -0.54,1.37 3.07,3.07 0 0 0 -0.9,1.83 c 1,-0.75 1.41,-0.61 1.23,0.43 l -0.57,2 c -0.16,1 0,1.43 0.47,1.37 0.47,-0.06 0.76,0 0.87,0.19 a 1.62,1.62 0 0 1 0.07,1 3.23,3.23 0 0 0 -0.37,1.3 0.84,0.84 0 0 0 0.26,0.51 c 0.14,0.15 0.44,0.11 0.92,-0.09 0.48,-0.2 0.7,-0.06 0.7,0.42 0,0.48 0,1 0,1.42 a 2.6,2.6 0 0 0 0.44,1.34 1.52,1.52 0 0 0 0.82,0.6 l 0.46,-0.5 c -0.63,0 -0.92,-0.38 -0.88,-1.23 a 11.27,11.27 0 0 0 0,-2 q -0.37,-0.9 -0.75,-1 -0.38,-0.1 -1.7,-4.68 h 1 c 0.72,2.64 1.31,4.07 1.75,4.27 0.44,0.2 0.64,0.44 0.61,0.71 a 7.38,7.38 0 0 0 0.23,1.72 q 0.85,-0.24 1,-1.56 a 1.71,1.71 0 0 0 -0.7,-1.88 c -0.66,-0.38 -1,-0.73 -1.13,-1 -0.19,-0.53 0,-0.86 0.61,-1 0.34,-0.19 -0.49,-0.94 -2.5,-2.26 -1,-0.72 -1.35,-1.37 -0.94,-1.93 0.16,-0.29 0.45,-0.28 0.87,0 0.42,0.28 0.7,0.37 0.82,0.21 0.22,-0.44 0,-0.74 -0.51,-0.92 -0.51,-0.18 -0.84,-0.37 -0.8,-0.59 a 11,11 0 0 1 0,-2 2.79,2.79 0 0 0 -0.09,-1.22 q -0.53,-0.75 -2,0.09 a 2.55,2.55 0 0 0 0.16,-1.55 3.47,3.47 0 0 0 -0.73,-1.46 l -0.47,-1.46 c -0.12,-0.51 0.16,-0.85 0.85,-1 a 3.23,3.23 0 0 1 0.03,-2.07 z m -1,34.17 -0.49,1 a 6.74,6.74 0 0 1 -0.5,0.85 21.82,21.82 0 0 0 -0.61,-2.68 c -0.28,-0.88 -0.36,-0.87 -0.23,0 a 42.31,42.31 0 0 1 0.51,4.29 12.71,12.71 0 0 0 -1.62,-1.46 9.18,9.18 0 0 1 -1.44,-1.32 c -0.35,-0.22 -0.41,-0.19 -0.19,0.1 a 14.18,14.18 0 0 0 1.67,1.76 13.14,13.14 0 0 1 1.35,1.35 1.61,1.61 0 0 1 0.28,0.56 13.78,13.78 0 0 1 -1,1.18 0.81,0.81 0 0 1 -0.38,-0.64 1,1 0 0 0 -0.3,-0.66 l -1.58,-1.29 c -0.79,-0.69 -1,-1.32 -0.76,-1.89 a 4.69,4.69 0 0 1 -0.58,-1 1,1 0 0 1 0.11,-1.1 c 0.25,-0.37 0.84,-0.2 1.75,0.49 a 2.59,2.59 0 0 0 0,-1.51 13.87,13.87 0 0 0 -0.57,-1.41 18,18 0 0 0 -1.18,-1.93 l -0.12,-0.28 c 0.08,-0.31 0.15,-0.62 0.21,-0.94 a 2,2 0 0 1 0.57,0.37 c 0.79,-0.85 1.31,-1.09 1.56,-0.73 a 4.93,4.93 0 0 1 0.61,1.81 8.32,8.32 0 0 1 0.05,2.64 l -0.19,0.19 0.19,0.19 a 8.13,8.13 0 0 1 -0.24,2.12 1.38,1.38 0 0 0 0.24,0.75 3,3 0 0 1 -0.05,-0.85 c 0,-0.15 0.13,-0.52 0.31,-1.1 a 8,8 0 0 0 0.26,-1 c 0,-0.08 0,-0.14 -0.25,-0.17 a 0.57,0.57 0 0 0 0.41,-0.4 0.72,0.72 0 0 0 0,-0.52 8.9,8.9 0 0 1 -0.1,-1.48 6.46,6.46 0 0 0 -0.23,-1.86 6.13,6.13 0 0 1 -0.26,-1 c 0,-0.24 -0.22,-0.37 -0.57,-0.4 -0.35,-0.03 -0.83,0.31 -1.46,1 a 9.11,9.11 0 0 1 0.88,-2.71 c 0.29,-0.45 0.6,-0.59 0.91,-0.4 a 1.46,1.46 0 0 1 0.62,0.62 q 0.14,0.33 0.42,-0.12 c 0.19,-0.3 0.35,-0.4 0.47,-0.31 a 1.57,1.57 0 0 1 0.4,0.57 3.48,3.48 0 0 1 0.31,0.89 14.11,14.11 0 0 1 0.16,1.72 2.46,2.46 0 0 1 -0.3,1.68 1.49,1.49 0 0 0 -0.38,1 c 0.06,1.64 0.19,2.45 0.38,2.43 a 1.31,1.31 0 0 0 0.68,-0.38 0.79,0.79 0 0 1 0.71,-0.26 c 0.2,0.07 0.32,0.52 0.35,1.37 0.03,0.85 0.11,0.93 0.24,0.26 0.13,-0.67 0.36,-1 0.7,-1 0.34,0 0.41,0.91 0.19,2.73 a 21,21 0 0 0 -2.64,2.73 2.52,2.52 0 0 1 0,-1.65 7,7 0 0 0 0.47,-1.06 c 0.14,-0.39 0.26,-0.74 0.35,-1.06 0.26,-0.65 0.21,-0.65 -0.16,-0.08 z m -2.72,6.05 v 0 a 0.87,0.87 0 0 1 -0.11,-0.18 z m -3.38,2.68 a 5.4,5.4 0 0 0 -0.87,1.08 l 0.19,1.74 a 3,3 0 0 1 -1.16,2.43 7.56,7.56 0 0 0 -1.77,2.47 c -0.15,0.57 -0.77,1.18 -1.83,1.84 a 3,3 0 0 0 -0.76,-0.89 0.31,0.31 0 0 0 -0.37,-0.15 46.31,46.31 0 0 0 -6.46,2.83 9,9 0 0 0 -2.41,2.5 H 42.65 A 9.34,9.34 0 0 1 40.96,71.3 c -0.4,-0.31 -1.13,-0.2 -2.16,0.33 a 3.78,3.78 0 0 0 -2.93,0.61 1.93,1.93 0 0 1 -1.32,0.15 l -2.31,-2.5 q -7.16,-3 -7.82,-2.69 a 2.48,2.48 0 0 0 -1,1.23 9.28,9.28 0 0 1 -2.12,-1.79 l -1.46,-1.65 a 4.09,4.09 0 0 1 -1.32,-3.4 l 0.24,-1.46 a 0.67,0.67 0 0 0 -0.1,-0.52 2.6,2.6 0 0 0 -1.27,-0.66 c -0.07,0 -0.27,-0.1 -0.5,0.75 a 14.52,14.52 0 0 1 -1.1,-1.5 l 2.47,-1.12 c 0.73,0.8 1.53,1.59 2.45,2.42 l -1.15,2.55 0.16,0.13 c 0.46,0.38 2.39,1.77 2.9,2.1 l 0.17,0.11 2,-1.88 a 28,28 0 0 0 3.09,1.57 l -0.32,2.77 0.2,0.08 c 0.58,0.21 2.85,1 3.41,1.11 l 0.21,0.06 1.36,-2.43 a 29.72,29.72 0 0 0 3.4,0.53 l 0.56,2.73 h 0.26 1.79 1.78 0.22 l 0.54,-2.71 a 29.31,29.31 0 0 0 3.41,-0.55 l 1.38,2.42 h 0.2 c 0.59,-0.17 2.87,-0.91 3.41,-1.11 l 0.2,-0.08 -0.31,-2.76 a 26.7,26.7 0 0 0 3.06,-1.58 l 2.07,1.88 0.17,-0.11 c 0.51,-0.32 2.43,-1.74 2.89,-2.09 l 0.18,-0.14 -1.18,-2.53 a 24.56,24.56 0 0 0 2.45,-2.44 l 2.54,1.15 0.14,-0.17 0.07,-0.09 c -0.32,0.5 -0.57,0.9 -0.58,0.93 -0.01,0.03 -1.15,-0.65 -1.51,-0.35 z m 1.39,0.89 c -0.14,0.34 -0.3,0.91 -0.61,0.95 -0.31,0.04 -0.93,-0.41 -0.93,-0.81 a 0.68,0.68 0 0 1 0.72,-0.68 c 0.36,0 0.92,0.2 0.78,0.54 z m -11.35,12.3 a 1,1 0 0 1 0.57,-1.27 2.22,2.22 0 0 1 1.65,-0.47 c 0.25,0 0.26,0.48 0,1.36 -0.18,0.44 -1.11,1 -2.78,1.61 l -1.55,-0.19 1.65,-0.95 0.42,0.66 h 0.24 z m 2.12,-2.55 a 3.77,3.77 0 0 0 -1.65,0.41 1.6,1.6 0 0 0 -1.13,1.24 1.05,1.05 0 0 1 -0.52,0.71 c -0.69,0.38 -1.32,0.71 -1.88,1 l -1.46,-0.09 0.75,-1 a 5.84,5.84 0 0 1 1.46,-1.18 35.15,35.15 0 0 1 5.33,-2.31 0.35,0.35 0 0 1 0.42,0.14 l 0.38,0.48 -0.52,0.32 a 1.57,1.57 0 0 1 -1.23,0.28 z m -25.82,-1 a 1.66,1.66 0 0 0 -1.23,-0.29 c -0.22,0.07 -0.46,0.38 -0.71,0.94 L 24.23,68.8 a 1.35,1.35 0 0 1 0.59,-1 1.21,1.21 0 0 1 1,0.1 l 2.26,1.08 3.87,1.46 a 16.3,16.3 0 0 1 1.74,2.07 c -0.78,0.1 -1.63,0.16 -2.54,0.19 l -2,-1.41 c -0.82,-1 -1.41,-1.68 -1.79,-2.12 A 4,4 0 0 0 26.21,68.3 Z m 0.75,1.6 a 1.4,1.4 0 0 1 -1.32,0 l -0.75,-0.57 c 0.25,-0.63 0.58,-0.83 1,-0.61 l 0.75,0.66 z M 61.66,57.51 59.13,56.37 59,56.52 a 25.08,25.08 0 0 1 -2.68,2.68 l -0.15,0.13 1.16,2.51 c -0.57,0.43 -1.92,1.42 -2.51,1.82 L 52.77,61.79 52.6,61.9 a 32.16,32.16 0 0 1 -3.36,1.73 l -0.19,0.08 0.31,2.73 c -0.67,0.24 -2.26,0.75 -3,1 L 45,65.04 44.8,65.09 a 29.41,29.41 0 0 1 -3.73,0.6 h -0.2 l -0.54,2.69 h -3.11 l -0.56,-2.71 h -0.2 A 28,28 0 0 1 32.73,65.1 l -0.2,-0.05 -1.34,2.4 c -0.69,-0.21 -2.28,-0.72 -3,-1 l 0.31,-2.76 -0.19,-0.07 a 29.75,29.75 0 0 1 -3.38,-1.71 l -0.17,-0.11 -2,1.87 c -0.59,-0.41 -2,-1.39 -2.51,-1.82 l 1.14,-2.53 -0.15,-0.13 a 32.15,32.15 0 0 1 -2.68,-2.66 l -0.14,-0.15 -2.5,1.14 -0.27,-0.37 a 10.61,10.61 0 0 0 1.33,-3 19.49,19.49 0 0 0 0.69,-4.46 0.66,0.66 0 0 1 0.18,-0.26 4.21,4.21 0 0 0 0.73,-1.76 22.22,22.22 0 0 0 3.87,6.09 l 0.29,0.32 7,-10.18 -3.57,12 -0.25,0.87 0.74,-0.52 10.12,-7 -7.61,9.58 0.39,0.18 a 21.87,21.87 0 0 0 9.21,2 22.2,22.2 0 0 0 9.05,-1.94 l 0.39,-0.17 -7.52,-9.75 10.26,7.08 0.75,0.52 -0.26,-0.87 -3.53,-11.8 6.76,10.2 0.29,-0.32 a 22.05,22.05 0 0 0 5,-8.78 c 0.69,1.29 1.7,2.72 1.75,3.51 -0.65,-0.58 -2.12,-0.6 -2.12,0.81 a 4.65,4.65 0 0 0 0.49,1.46 c -0.3,1.5 1.43,2.6 2.84,4 a 1,1 0 0 0 0.15,0.66 c -0.54,0.68 -1.11,1.5 -1.46,1.91 z M 15.74,39.96 a 62.09,62.09 0 0 0 -0.89,10 v 2.68 l -0.09,3.68 -0.61,-0.71 a 31.3,31.3 0 0 1 -0.57,-6.93 34,34 0 0 1 0.85,-5.79 q 1,-3.92 1.88,-4.15 a 21.78,21.78 0 0 1 0.85,5.07 33.59,33.59 0 0 1 0,6.66 13.21,13.21 0 0 1 -1.27,5.09 l -0.61,1.32 c 0,-1.94 0,-3.53 0.07,-4.76 0.07,-1.23 0.09,-2.85 0.14,-4.87 0.05,-2.02 0.18,-4.33 0.4,-6.91 0.07,-0.57 -0.01,-0.71 -0.2,-0.36 z m -2.45,14.8 -1,-1.32 0.75,-1.89 a 14.23,14.23 0 0 0 0.2,3.23 z m 0,-8.25 a 36.45,36.45 0 0 0 -3.21,7.11 21.28,21.28 0 0 0 -0.47,2.6 19.93,19.93 0 0 1 0.64,-5.4 19.26,19.26 0 0 1 3.56,-7.19 16.47,16.47 0 0 0 -0.61,2.9 z M 8.72,45.8 C 8.4,45.49 7.99,44.07 7.49,41.56 a 10.85,10.85 0 0 1 0.8,-3 c 0.17,-0.45 0.4,-1 0.65,-1.49 v 0.09 c 0,0.59 0,3 0,3.58 v 0.21 l 2.74,0.57 a 31,31 0 0 0 0.53,3.4 l -2.43,1.38 0.06,0.21 c 0.09,0.31 0.37,1.19 0.64,2 A 14.6,14.6 0 0 0 9.88,50.59 8.44,8.44 0 0 1 9.19,48.68 3.47,3.47 0 0 1 8.95,47.01 0.92,0.92 0 0 0 8.63,45.82 Z m 3,0 a 16.62,16.62 0 0 0 -0.94,1.89 C 10.63,47.24 10.5,46.82 10.41,46.54 Z M 33.88,32.41 h 0.22 l 0.07,-0.21 4.66,-13.27 4.69,13.3 0.07,0.2 h 0.22 l 14.06,0.32 -11.19,8.56 -0.18,0.14 0.07,0.21 4,13.47 -11.59,-8 -0.18,-0.12 -0.19,0.12 -11.56,8 4,-13.51 0.06,-0.22 -0.15,-0.1 -11.18,-8.52 z m -0.33,-0.63 -13,-3.84 a 21.33,21.33 0 0 1 13.72,-9.85 l -0.58,13.57 v 0.12 z M 43.63,18.14 a 21.3,21.3 0 0 1 13.62,10 L 44.17,31.78 H 43.96 V 31.69 Z M 59.43,44.3 A 21.35,21.35 0 0 1 54.7,53.23 L 47.2,41.91 v -0.12 l 0.08,-0.06 12.77,-4.56 a 21.63,21.63 0 0 1 -0.22,5.46 0.75,0.75 0 0 0 -0.56,0.94 3,3 0 0 0 0.16,0.73 z M 47.1,58.67 A 21.47,21.47 0 0 1 30.19,58.6 l 8.45,-10.65 0.11,-0.07 0.08,0.06 z M 30.35,41.74 v 0.1 l -7.67,11.2 a 21.36,21.36 0 0 1 -3.82,-6.45 16.66,16.66 0 0 0 0.45,-4.18 q -0.15,-0.75 -0.36,-0.78 a 0.61,0.61 0 0 0 -0.4,0.12 l 0.29,-0.57 c 0.15,-0.4 0.15,-0.67 0,-0.8 a 2.27,2.27 0 0 0 -1.33,0.14 21.53,21.53 0 0 1 0,-3.59 l 12.73,4.74 z m -12.58,2.13 -0.28,0.52 v -0.94 l 0.71,-0.9 c 0.47,-0.47 0.67,-0.22 0.61,0.76 a 31.32,31.32 0 0 1 -0.94,5.27 22.84,22.84 0 0 0 -0.24,-3.48 l 0.42,-1.18 c -0.01,-0.44 -0.09,-0.46 -0.28,-0.08 z m 0.28,-3.11 q 0.61,-0.13 0.24,0.57 l -0.9,1.32 a 11.4,11.4 0 0 0 -0.23,-1.37 5.66,5.66 0 0 1 0.89,-0.55 z m 49.12,5.88 -0.23,0.76 a 0.81,0.81 0 0 0 -0.89,-0.13 l -0.69,0.49 c -0.08,0.07 -0.16,-0.43 -0.19,-0.8 a 4.75,4.75 0 0 1 0.08,-1.42 z m 0.78,1.16 c 0,0 -0.36,-0.09 -0.58,0 0.18,-0.54 0.32,-1 0.38,-1.26 v -0.2 l -2.23,-1.28 c 0.08,-0.12 0.17,-0.25 0.25,-0.39 a 5.11,5.11 0 0 0 0.05,-2.6 c 0,-0.17 0,-0.34 0.06,-0.5 L 68.61,41 v -0.2 c 0,-0.44 0,-1.86 0,-2.81 0.1,0.16 0.19,0.32 0.3,0.48 a 12.49,12.49 0 0 1 1.67,2.56 8.91,8.91 0 0 0 -0.14,1.47 23,23 0 0 1 -0.81,4.17 c -1.26,-0.65 -1.48,0.23 -1.67,1.1 z m 3.46,-7 a 4.7,4.7 0 0 1 1,0 c -0.44,2.38 -0.95,5 -1.36,6.63 l -0.66,-0.37 a 43.59,43.59 0 0 0 1.02,-6.26 z m -3.45,-3.93 -2.08,-0.42 a 24.43,24.43 0 0 0 -0.54,-3.4 L 66,32.67 a 24.14,24.14 0 0 0 1.96,4.2 z M 60.28,19.66 a 3.94,3.94 0 0 0 -0.2,0.91 l -0.87,0.4 a 28.22,28.22 0 0 0 -2.45,-2.44 l 1,-2.31 c 0.17,0.21 0.39,0.46 0.66,0.76 a 7.28,7.28 0 0 0 2.29,1.44 13.27,13.27 0 0 0 -0.39,1.24 z M 61.23,7.83 c 0,-0.44 0.32,-0.57 0.87,-0.4 0.55,0.17 1.06,1.35 1.53,3.51 l 0.76,0.29 c 0.25,-0.6 0.45,-0.9 0.61,-0.9 0.16,0 0.5,0.52 0.75,1.56 a 3.45,3.45 0 0 1 0.9,2.78 3.36,3.36 0 0 0 -0.66,2 l -0.38,-0.85 a 11.53,11.53 0 0 1 -0.28,-3 c 0,-0.44 -0.08,-0.44 -0.14,0 a 11.49,11.49 0 0 0 -0.05,2.31 22.91,22.91 0 0 0 -2.73,-3 7.1,7.1 0 0 1 -0.19,-2.36 C 62.13,9.02 62.05,8.85 61.98,9.25 a 11.94,11.94 0 0 0 0.1,2.64 25.32,25.32 0 0 1 -2.55,-3.15 C 59.28,8.3 59.17,8.2 59.2,8.45 a 14.79,14.79 0 0 0 1.89,2.83 c 0.66,0.76 1.19,1.35 1.6,1.79 a 13.51,13.51 0 0 0 -2.12,-0.49 5.2,5.2 0 0 1 -1.65,-0.5 c -0.47,-0.09 -0.45,0 0.05,0.33 a 5.15,5.15 0 0 0 1.72,0.52 9.5,9.5 0 0 1 2.43,0.8 7.18,7.18 0 0 1 1.64,1.93 l 0.57,1.28 a 9.77,9.77 0 0 0 -2.92,-1 5.64,5.64 0 0 1 -1.89,-0.52 c -0.81,-0.35 -0.91,-0.32 -0.28,0.09 a 5.48,5.48 0 0 0 2,0.64 10.31,10.31 0 0 1 3.33,1.34 l 0.09,0.29 a 1.23,1.23 0 0 0 -0.24,1 l 0.33,0.94 q -0.42,-0.51 -1.17,0.48 a 1,1 0 0 0 -0.14,-1.13 7.82,7.82 0 0 0 -3.21,-2.13 l -0.28,0.52 a 3.56,3.56 0 0 1 -2.59,-2.45 c 0,-0.38 0.29,-0.59 1,-0.63 0.71,-0.04 0.81,-0.25 0.33,-0.59 a 4.87,4.87 0 0 1 -2.26,-1.61 c -0.41,-0.53 -0.41,-0.91 0,-1.13 l 0.71,-0.19 0.33,-0.42 -0.42,-1.65 A 1.6,1.6 0 0 1 58.75,7 3.25,3.25 0 0 1 61.27,7.83 Z m -9.24,1.32 0.1,-1.08 -0.9,0.19 A 2.46,2.46 0 0 1 48.65,7.5 C 48.08,7.6 47.85,7.38 47.94,6.84 48.03,6.3 48.1,6.12 47.75,6.09 L 46.38,6.23 A 2.57,2.57 0 0 1 44.64,5.48 C 44.45,5.16 44.58,4.77 45.02,4.3 A 2.92,2.92 0 0 1 43.44,3.17 c -0.21,-0.41 -0.08,-0.74 0.38,-1 A 4.55,4.55 0 0 1 46.34,2.03 1.1,1.1 0 0 1 46.1,0.94 c 0,-0.37 0.85,-0.17 2.45,0.62 l 0.94,0.56 a 1,1 0 0 1 1.28,-0.42 10.47,10.47 0 0 1 2,1.25 14.59,14.59 0 0 1 2.12,2.09 C 55.55,4.6 56.03,4.7 56.31,5.33 l 0.14,1.13 A 2,2 0 0 0 53.96,6.3 L 53.31,6.01 A 8.83,8.83 0 0 1 51.66,3.51 C 51.47,2.79 51.37,2.73 51.37,3.33 a 4.88,4.88 0 0 0 1.13,2.4 7.06,7.06 0 0 1 -3,-1.7 20,20 0 0 1 -1.54,-1.73 q -0.53,-0.85 -0.42,0 a 7.28,7.28 0 0 0 1.55,1.93 Q 48.34,3.9 47.68,3.57 A 8.17,8.17 0 0 0 44.94,2.82 c -0.34,0 -0.36,0.06 0,0.19 a 14.9,14.9 0 0 1 2.66,0.87 3.67,3.67 0 0 1 1.11,0.73 6.31,6.31 0 0 1 -2.74,0.52 c -0.59,0 -0.86,0 -0.8,0 a 1.21,1.21 0 0 0 0.57,0.19 8.17,8.17 0 0 0 3.44,-0.37 25.21,25.21 0 0 0 3,1.27 5.72,5.72 0 0 0 -2,0.94 c -0.25,0.32 -0.13,0.33 0.38,0.05 A 4.46,4.46 0 0 1 52.82,6.5 l 0.8,0.33 a 4.72,4.72 0 0 0 0.61,2.59 l -0.52,0.19 z m 3.68,4 0.32,-0.54 c -1,-0.46 -2,-1 -2,-2.29 l 0.85,-0.33 c 0.38,-0.44 0.39,-0.77 0,-1 -0.39,-0.23 -0.55,-0.8 -0.59,-1.74 q 0.53,-1.14 2.55,0 c 0.6,-1.16 1.32,-1.51 2.17,-1 a 1.41,1.41 0 0 0 -1.6,1.18 5.64,5.64 0 0 0 0,1.84 4.89,4.89 0 0 0 -1.14,-1.13 c -0.84,-0.44 -1,-0.4 -0.47,0.14 a 12.69,12.69 0 0 1 1.42,1.65 3.14,3.14 0 0 1 -2.27,0.75 q -0.42,0.19 0.15,0.24 a 2.47,2.47 0 0 0 1.32,-0.1 4.1,4.1 0 0 0 0.32,1.84 5.1,5.1 0 0 0 1.16,1.16 0.69,0.69 0 0 0 -0.49,0.4 7,7 0 0 1 -2,-0.1 l -0.15,-0.11 a 0.22,0.22 0 0 1 -0.05,-0.08 c -0.04,-0.23 -0.08,-0.42 0.54,-0.77 z m 1.76,2.46 -1.12,-0.84 q 0.42,0 0.84,0 a 2.53,2.53 0 0 0 0.32,0.85 z m -34.69,-1.31 2,1.87 0.18,-0.1 a 25.19,25.19 0 0 1 3.35,-1.71 l 0.19,-0.08 -0.31,-2.74 c 0.68,-0.25 2.26,-0.77 3,-1 l 1.39,2.41 h 0.2 a 23.75,23.75 0 0 1 3.72,-0.59 h 0.2 l 0.54,-2.7 h 1.56 1.55 l 0.56,2.7 h 0.21 a 24.75,24.75 0 0 1 3.72,0.59 H 45 l 1.35,-2.41 c 0.7,0.2 2.3,0.72 3,1 l -0.39,2.76 0.19,0.08 a 26.79,26.79 0 0 1 3.38,1.71 l 0.17,0.1 1.77,-1.64 a 0.91,0.91 0 0 0 0.33,0.11 h 0.48 c 0.66,0.47 1.54,1.12 2,1.45 l -1.14,2.51 0.16,0.13 a 28.13,28.13 0 0 1 2.67,2.68 l 0.14,0.16 1,-0.47 a 1.64,1.64 0 0 0 0.31,0.89 c -0.1,0 -0.55,0.26 -0.71,0.51 -0.59,0.91 0.68,2.21 0.88,2.66 a 1.75,1.75 0 0 0 -0.63,0.3 c -0.44,0.31 -0.29,1.87 0.95,2.14 a 12.05,12.05 0 0 1 2.45,1.7 c 0.14,0.14 0.54,0.9 1.11,1.65 0.31,0.4 0.63,1.07 1.37,1.09 0,0 0,0 0,0 l -1.11,0.63 0.05,0.2 a 22.77,22.77 0 0 1 0.6,3.72 v 0.21 l 2.72,0.54 c 0,0.71 0,2.39 0,3.11 l -2.48,0.51 q -0.1,-0.48 -0.24,-0.9 a 1.15,1.15 0 0 0 -0.72,-0.79 0.84,0.84 0 0 0 -0.94,0.53 c 0,-0.3 -0.54,-0.49 -0.9,-0.57 -1,-0.25 -2.14,1.73 -2,3.57 a 1.54,1.54 0 0 0 -0.39,-0.22 22.24,22.24 0 0 0 0.18,-6 l -0.05,-0.42 -11.6,4.18 9.91,-7.58 0.72,-0.55 H 58.68 L 46.38,31.95 58.15,28.68 57.96,28.3 A 22,22 0 0 0 43.26,17.48 l -0.42,-0.09 0.35,12.33 -4.15,-11.78 -0.31,-0.85 -0.3,0.86 -4.06,11.61 0.52,-12.21 -0.42,0.09 A 22,22 0 0 0 19.66,28.06 l -0.22,0.37 11.82,3.49 -12.47,0.3 h -0.9 l 0.72,0.55 9.79,7.45 -11.44,-4.25 v 0.42 a 21.4,21.4 0 0 0 -0.15,2.65 8.38,8.38 0 0 0 -0.3,-0.85 c -0.07,-0.15 -0.28,0 -0.28,0 -1.32,0.8 -1.91,2.55 -2.38,4.72 l -0.38,0.35 c -0.29,0.37 -0.57,0.75 -0.84,1.15 a 26.81,26.81 0 0 1 -0.46,-3.1 v -0.2 L 9.45,40.55 c 0,-0.72 0,-2.4 0,-3.12 l 2.72,-0.56 v -0.2 a 28.83,28.83 0 0 1 0.58,-3.73 v -0.19 l -0.48,-0.28 c 2.18,-1.91 6.55,-7.92 7.18,-12 a 24.22,24.22 0 0 1 1.79,-1.73 l 0.15,-0.13 -0.74,-1.62 c 0.36,-0.62 0.74,-1.32 1.09,-2 0.37,-0.22 0.75,-0.5 1,-0.69 z M 8.96,36.99 c 0.47,-1 1,-2.07 1.73,-3.26 a 3.09,3.09 0 0 1 0.7,-0.64 1.54,1.54 0 0 0 0.45,-0.24 l 0.33,0.18 a 28.42,28.42 0 0 0 -0.53,3.41 z M 19.51,18.91 c 0,0.19 0.33,-0.4 0.84,-1.28 l 0.41,0.9 c -0.41,0.36 -0.8,0.74 -1.2,1.14 a 3.74,3.74 0 0 0 -0.1,-0.76 z M 34.74,3.97 a 3,3 0 0 1 -1.09,2 19.08,19.08 0 0 1 -4.12,2.78 c -1.65,0.85 -3.79,1.85 -6.43,3 v -0.29 a 78,78 0 0 1 8.91,-5.84 c 0.72,-0.44 0.65,-0.57 -0.19,-0.38 -1,0.47 -2,1.05 -3.11,1.75 q -2.83,1.83 -5.52,3.62 V 10.05 Q 28.56,5.34 32,3.97 a 4.84,4.84 0 0 1 2.69,0 z M 24.06,5.1 a 18.85,18.85 0 0 1 6.15,-3.3 10.51,10.51 0 0 1 3,-0.42 c 0.41,0.09 0.52,0.33 0.33,0.7 l -1,1.37 a 11.49,11.49 0 0 0 -3.75,1.56 38.05,38.05 0 0 0 -5.11,3.62 l -0.66,0.43 c -0.35,-0.25 -1,-0.14 -1.89,0.33 a 59.21,59.21 0 0 1 7.55,-5.52 9.1,9.1 0 0 0 2.4,-1.46 15.1,15.1 0 0 0 -2.92,1.3 61.32,61.32 0 0 0 -6.22,4.22 l -2.78,2.5 a 29.38,29.38 0 0 1 4.9,-5.33 z m -2.9,5.2 c 0.5,-0.28 0.85,-0.39 1,-0.33 a 2.75,2.75 0 0 1 0.09,1.3 16.7,16.7 0 0 1 -1.22,3.46 l -1.75,3.4 a 6.45,6.45 0 0 0 -3.48,1.69 c 0.56,-1 1.25,-2.09 2.05,-3.34 0.8,-1.25 2,-3.15 3.74,-5.66 0.29,-0.47 0.29,-0.59 0,-0.35 a 27.45,27.45 0 0 0 -2.15,2.71 c -1.16,1.57 -2.72,4 -4.66,7.3 l -1,1.49 -3,4.59 a 2.59,2.59 0 0 1 -1.42,0.28 l -1.4,4.61 c 0.12,0.18 0.52,0.12 1.18,-0.19 a 1.77,1.77 0 0 1 -1.42,1 L 7.35,31.97 7.16,31.27 v -0.43 l 0.38,0.05 1.65,-4.19 -1,-1.23 0.24,-0.71 c 0.31,0.66 0.61,1 0.89,1.09 0.44,-0.85 1.08,-2 1.91,-3.47 a 42.73,42.73 0 0 1 3,-4.45 v -0.38 c 0,-0.22 0.11,-0.23 0.33,0 l 2.36,-3.4 -1.94,3.35 c 0.32,0.34 0.18,0.58 -0.42,0.71 a 35.48,35.48 0 0 0 -4.62,8 l 0.47,0.14 c 0.28,0.13 0.55,0 0.8,-0.38 l 2.88,-5.09 2.73,-5.09 a 17.64,17.64 0 0 1 4.34,-5.49 z m -10.27,17 A 25.16,25.16 0 0 0 9.38,30.6 L 9,30.55 10,27.49 Z m -2.12,5.14 -1,2.54 -0.66,2.22 0.24,-1.89 0.33,-1.36 0.28,-1.37 z M 7.21,30.18 a 24.51,24.51 0 0 1 0.9,-3.87 l 0.37,0.47 z m 2.41,-8.25 a 93.86,93.86 0 0 0 4.52,-8.67 23.41,23.41 0 0 1 2.36,-3.73 c 0.31,-0.72 0.14,-0.7 -0.52,0 a 52.39,52.39 0 0 0 -5.38,9.1 l 0.9,-2.27 a 36.42,36.42 0 0 1 1.51,-3.41 22.66,22.66 0 0 1 2.5,-4.22 c 0.81,-1 1.38,-1.71 1.69,-2 1.13,-1 1.79,-1.43 2,-1.36 a 0.54,0.54 0 0 1 0.14,0.61 l -2.31,5.94 a 59.85,59.85 0 0 1 -5.93,9.14 c -1,1.13 -1.68,1.85 -1.94,2.17 a 6.77,6.77 0 0 0 -0.61,0.89 l 0.19,-0.8 z M 7.78,47.66 A 2,2 0 0 0 7.56,46.48 2.48,2.48 0 0 1 7.14,45.61 C 7,45.19 6.79,44.61 6.5,43.73 A 18.37,18.37 0 0 1 5.89,41.49 v 0 c -0.07,0 -0.13,-0.08 -0.19,-0.11 a 3.5,3.5 0 0 1 -1.65,-1.8 22.84,22.84 0 0 1 -1.09,-3.56 20.87,20.87 0 0 1 -0.4,-5.19 43.22,43.22 0 0 1 1,-7 21.93,21.93 0 0 1 4.81,-9 q 0.8,-0.89 1,-0.42 a 17.08,17.08 0 0 1 0,3.65 A 20.2,20.2 0 0 1 8.45,22 q -1.83,6.12 -2.21,8.24 -0.7,2.51 -1.56,6.51 -0.37,-1.94 0.45,-8.13 a 31.83,31.83 0 0 1 2.1,-8.84 c 0.41,-0.91 0.39,-1.05 0,-0.42 Q 4.33,24.3 3.87,33.9 a 16,16 0 0 0 0.37,4.83 c 0.32,1 0.68,1.56 1.09,1.72 l 0.16,0.07 h 0.18 a 0.75,0.75 0 0 0 0.36,-0.13 c 0.19,-1.19 0.32,-2.16 0.38,-2.9 0.06,-0.74 0.15,-1.6 0.26,-2.59 a 8.87,8.87 0 0 1 0.59,-2.47 l 0.19,0.18 a 19.7,19.7 0 0 0 -0.5,3 16.19,16.19 0 0 1 -0.12,1.7 c -0.06,0.56 -0.12,1.65 -0.18,3.25 0.37,-1.29 0.78,-2.51 1.22,-3.68 l 1.46,-4.24 1.89,-4.48 a 56.09,56.09 0 0 1 4.33,-6.88 5.12,5.12 0 0 1 2.93,-2.07 2.73,2.73 0 0 1 0,1.93 13.33,13.33 0 0 1 -1.14,3.07 v 0.05 0 c -0.13,0.25 -0.26,0.48 -0.4,0.72 l -0.34,0.61 c -0.14,0.25 -0.28,0.47 -0.42,0.71 l -0.34,0.56 -0.42,0.66 -0.33,0.5 -0.42,0.61 c -0.1,0.15 -0.21,0.32 -0.32,0.46 -0.11,0.14 -0.28,0.38 -0.42,0.56 l -0.32,0.42 c -0.14,0.18 -0.29,0.35 -0.43,0.52 l -0.3,0.35 c -0.16,0.19 -0.32,0.35 -0.48,0.52 l -0.24,0.26 c -0.25,0.25 -0.48,0.47 -0.72,0.69 l 3.25,-5.28 1.55,-2.83 c 0.6,-1.07 0.71,-1.45 0.33,-1.13 q -4.76,7.15 -5.7,9 c -0.63,1.23 -1.24,2.37 -1.84,3.44 a 15.43,15.43 0 0 0 -1.18,2.5 c -0.18,0.6 -0.58,1.66 -1.17,3.2 a 14,14 0 0 0 0.56,2.45 6.17,6.17 0 0 0 1,2.38 0.51,0.51 0 0 1 0.07,0.78 2.54,2.54 0 0 0 0.19,1.42 17.65,17.65 0 0 0 1.08,3.11 L 9.44,51.92 A 34.22,34.22 0 0 1 7.78,47.61 Z m -1.56,-14 c -0.31,2.52 -0.58,4.48 -0.8,5.9 L 5.23,39.18 Q 4.96,38.71 6.22,33.61 Z m 14.94,35.4 -0.61,-0.8 a 0.63,0.63 0 0 0 -0.78,-0.14 q -0.5,0.18 -0.78,-0.57 A 2,2 0 0 1 16.4,66.99 L 14.85,65.1 13.39,62.6 12.87,62.23 a 1.42,1.42 0 0 1 -1,0.2 3.63,3.63 0 0 1 -2,-1.24 A 27,27 0 0 1 7.02,56.3 80.31,80.31 0 0 1 3.11,48.06 c -0.5,-1.54 -0.83,-2.52 -1,-2.93 -0.17,-0.41 -0.22,-0.41 -0.19,0 a 16.18,16.18 0 0 0 0.71,2.64 63.46,63.46 0 0 0 2.45,6 c 1,2.14 2.06,4.08 3.06,5.84 a 29.09,29.09 0 0 1 -5,-7.07 24.15,24.15 0 0 1 -2.07,-6 16.19,16.19 0 0 1 -0.29,-3 12.71,12.71 0 0 1 0,-2.29 c 0.16,-0.47 0.38,-0.67 0.66,-0.61 0.28,0.06 0.62,0.45 1.3,1.35 a 28.43,28.43 0 0 1 2.75,6 c 1.17,3.12 1.88,5.17 2.15,6.15 0.27,0.98 0.53,1.82 0.8,2.54 a 22,22 0 0 0 1,2.22 6.36,6.36 0 0 0 1.69,2.31 c 0.75,0.53 1.29,0.62 1.65,0.28 L 11.05,58.3 a 0.82,0.82 0 0 0 -0.54,0 h -0.09 a 1.06,1.06 0 0 1 -0.19,0 v 0 C 9.73,58.21 9.51,57.81 9.62,57.07 a 24,24 0 0 1 0.61,-2.92 33.5,33.5 0 0 1 3,-6.93 16.55,16.55 0 0 0 -0.24,2.54 q -1.74,3.91 -2.54,6.32 c -0.29,1.16 -0.27,1.73 0,1.69 l 0.38,-0.18 -0.28,-0.66 0.19,-0.52 0.56,1 0.33,-0.24 0.28,0.43 -0.28,0.42 2.12,3.06 0.52,-0.42 0.38,0.42 c -0.63,0.63 -0.88,1 -0.76,1.23 a 21.69,21.69 0 0 0 1.56,2.5 c 0.94,1.38 1.71,1.77 2.31,1.18 0.19,-0.16 0.42,-0.13 0.71,0.09 a 4.24,4.24 0 0 1 0.94,1.41 v -1.08 l -1.74,-1.65 -1,-2 a 31.85,31.85 0 0 1 -1.75,-2.69 c -0.34,-0.62 -0.77,-1.38 -1.29,-2.26 -0.52,-0.88 -1.16,-1.87 -1.91,-3 l 0.14,-0.52 1.51,1.84 a 47.25,47.25 0 0 1 2.85,3.94 c 0.55,0.89 0.87,1.11 1,0.63 l 0.28,-0.89 0.42,0.23 -0.28,1.84 -0.09,0.57 c 0,0.44 0,0.7 0.26,0.78 0.26,0.08 0.38,0.36 0.54,0.87 a 8,8 0 0 0 1.48,1.95 15.92,15.92 0 0 0 2.83,2.5 c 1,0.68 1.81,1.23 2.45,1.65 0.64,0.42 1,0.84 0.92,1.25 l 0.89,0.19 -0.23,-1.13 0.56,-0.14 a 2,2 0 0 1 0.71,1 c 0.82,0.63 1.53,1.13 2.12,1.51 l -2.12,0.42 -3.54,-2.12 z m -8.67,-11 0.28,-0.28 1.32,2.21 -0.14,0.29 z m 2.22,4.43 0.51,-0.66 1.23,1.74 0.71,1.28 0.23,0.7 a 3,3 0 0 1 -1.13,-1 l -0.75,-1 z m 10.88,11.36 -2.83,0.47 0.66,-1.88 z m 6.74,8.81 a 34.77,34.77 0 0 1 -4.48,3.68 l -0.56,-0.19 c 1,-0.6 2.36,-1.57 4.15,-2.92 l 0.8,-0.9 h -0.43 a 23.7,23.7 0 0 1 -2,1.62 19.27,19.27 0 0 1 -2.66,1.58 l -1.37,0.66 0.24,0.28 1,0.14 q 0.89,0.57 0.75,1.14 c -0.31,0.47 -0.82,0.53 -1.51,0.18 l -1.13,-0.61 a 3.71,3.71 0 0 0 -1.22,-0.85 l -0.48,-0.37 0.19,-0.48 1.42,0.57 h 0.42 l -0.23,-0.85 1.69,-1 q 0.66,-0.24 0.57,-0.81 l 0.14,-0.84 a 3.78,3.78 0 0 0 2.36,-0.36 7.12,7.12 0 0 1 2.4,-0.68 c 0.46,0.16 0.44,0.52 -0.06,0.93 z m -1.13,-1.95 -4.43,1 q -4.95,0.9 -9.76,1.46 A 53.29,53.29 0 0 1 9.95,79.55 36.66,36.66 0 0 1 4.15,75.49 C 2.89,74.14 2.39,73.32 2.64,73.04 a 14.3,14.3 0 0 0 1.65,-3.74 2.09,2.09 0 0 0 0.09,-1 C 4.04,67.23 4.29,66.68 5.14,66.65 a 37.44,37.44 0 0 1 4.24,-0.09 c 0.31,0 0.52,-0.06 0.61,-0.28 l 0.71,-1.42 -0.43,-0.19 -0.61,0.95 v -1.09 c 0,-0.16 0.09,-0.2 0.28,-0.14 1.32,0.35 1.93,0.79 1.84,1.32 a 4.25,4.25 0 0 0 -0.57,2.36 l 0.05,2.45 A 36,36 0 0 0 5.88,67.6 7.42,7.42 0 0 1 6.64,67.52 0.58,0.58 0 0 0 7.2,67.22 Q 7.35,66.94 6.69,66.89 A 4.86,4.86 0 0 0 4.8,67.12 c -0.22,0.26 -0.17,0.52 0.14,0.81 a 60.39,60.39 0 0 1 6,3.39 q 4.09,2.59 6.36,4.24 a 57.38,57.38 0 0 0 6.22,-0.61 l 4,-0.76 c 1.67,-0.31 3.4,-0.58 5.19,-0.8 0.66,-0.09 1.49,-0.15 2.5,-0.19 a 25.4,25.4 0 0 0 2.78,-0.23 13.84,13.84 0 0 1 1.51,4.05 q 0.14,0.9 -0.24,1 a 72.23,72.23 0 0 1 -8.06,2.61 z m 12.07,-1.54 -0.24,-0.75 -1.27,1.6 -1,0.66 a 1.67,1.67 0 0 1 -1.46,0.47 l -1.65,-0.8 0.85,-0.42 0.23,0.19 c -0.15,0.47 0,0.41 0.57,-0.19 l 1.46,-1.41 a 7.38,7.38 0 0 0 -0.61,-3.28 13,13 0 0 0 -1.13,-2.52 c -0.07,-0.28 -0.79,-0.35 -2.17,-0.19 a 3.71,3.71 0 0 1 2.87,-0.09 l 1.14,0.47 0.61,-0.27 -0.09,-0.08 -1,-0.5 h 0.56 l 0.48,0.45 0.14,0.06 h -0.05 l 0.33,0.31 a 14.05,14.05 0 0 1 2.71,3.54 3.22,3.22 0 0 1 0.07,1.84 c -0.66,0.77 -1.1,1.04 -1.35,0.83 z m 11.26,6.79 0.52,0.1 -0.19,0.23 -1.23,0.38 a 4.13,4.13 0 0 1 -1.88,0.94 l -0.8,-0.14 -0.19,-0.57 a 1.66,1.66 0 0 1 0.73,-0.61 7,7 0 0 1 1.16,-0.33 l 1.13,0.19 z m -1.74,-0.52 a 2.84,2.84 0 0 0 -1.61,0.29 h -0.66 a 15.11,15.11 0 0 1 -2.16,-1.75 l -2.22,-1.74 a 4.37,4.37 0 0 1 2.64,0.23 z m 6.74,-9.59 a 5.33,5.33 0 0 0 2.07,-0.12 28.18,28.18 0 0 0 5.23,-3.86 33.44,33.44 0 0 1 6.46,-4 c 0.53,-0.31 0.56,-0.54 0.07,-0.68 a 8.53,8.53 0 0 0 -2.19,-0.21 c -0.32,0.25 -0.29,0.45 0.09,0.61 a 1.86,1.86 0 0 1 0.94,0.1 34.31,34.31 0 0 0 -5.27,3.29 q 0.18,-1.08 0.33,-3.72 a 2.67,2.67 0 0 0 -0.57,-1.51 c -0.22,-0.31 0.08,-0.59 0.9,-0.85 l 0.66,-0.18 v 1 l -0.9,-0.23 0.09,0.47 a 1.57,1.57 0 0 0 1,0.71 l 2.55,0.14 h 1.13 c 1.32,0 2,0.35 1.93,1 a 6.42,6.42 0 0 0 0.14,1.72 9.46,9.46 0 0 0 1.6,3.86 6.39,6.39 0 0 1 -1.22,2 l -2.45,1.6 q -3.16,2.26 -8.58,5.89 a 61,61 0 0 1 -9.29,-0.61 62.2,62.2 0 0 1 -9,-2 l -0.75,-0.19 0.33,-0.33 a 4.92,4.92 0 0 0 0.87,-1.39 4.78,4.78 0 0 0 -0.24,-1.6 7.67,7.67 0 0 0 -1.76,-2.94 v -0.29 l 0.7,-0.09 a 29.88,29.88 0 0 1 5.21,0.75 c 1.53,0.38 3.34,0.72 5.45,1 2.11,0.28 3.56,0.5 4.47,0.58 z m -3.57,-1.33 c -0.82,-0.12 -2.14,-0.36 -4,-0.7 l 1.65,-0.57 c 0.88,0.19 1.38,0 1.51,-0.56 a 4.54,4.54 0 0 0 0.84,1.83 z m 9.85,-13.9 a 2.17,2.17 0 0 0 -0.61,2.17 9.52,9.52 0 0 0 -2.55,2.07 24.06,24.06 0 0 0 -1.86,2.31 2.47,2.47 0 0 1 -1.34,1.13 1.78,1.78 0 0 1 -1.84,-0.37 l -0.19,1.17 -3.16,1.94 -1.55,0.66 a 5.55,5.55 0 0 0 0.24,-1.61 l 0.56,-0.47 q 3.25,-1.69 3.77,-3.11 a 9,9 0 0 1 1.42,-2 4.56,4.56 0 0 0 1.08,-1.91 l 0.05,-1.13 -0.15,-1.18 c 0.51,0.56 1,0.69 1.37,0.37 a 32.36,32.36 0 0 1 2.12,-3.41 29.41,29.41 0 0 1 2.41,-2.95 c 0.84,-0.91 1.57,-1.68 2.16,-2.31 v 1.18 a 42.8,42.8 0 0 0 -3.54,4.76 35.56,35.56 0 0 0 -3.25,5.75 4.56,4.56 0 0 1 -1.51,1.89 3.61,3.61 0 0 0 -1.13,0.8 c -0.22,0.41 -0.09,0.52 0.38,0.33 a 3.18,3.18 0 0 1 1,-0.71 c 0.7,-0.35 2.17,-2 4.44,-4.9 l -0.05,-1.65 0.52,-0.9 c 0,0.91 0,1.42 0.23,1.51 0.23,0.09 0.45,-0.16 0.78,-0.78 0.33,-0.62 1.14,-2.3 2.43,-5.06 a 3.13,3.13 0 0 0 0,2.21 c -0.75,0.54 -1,1.45 -0.61,2.74 z M 76.39,50.16 a 4.52,4.52 0 0 1 -0.77,2 c -1.29,1.48 -1.83,2.36 -1.61,2.64 a 1.85,1.85 0 0 1 -0.19,2 27.73,27.73 0 0 1 -2.73,2.83 c 0.31,0.63 0.08,1.16 -0.71,1.6 a 19.36,19.36 0 0 1 -3,1.32 9.52,9.52 0 0 0 3.77,-5 5.85,5.85 0 0 1 1.74,-1.18 c 0.44,-0.28 0.52,-0.41 0.24,-0.37 a 7.42,7.42 0 0 0 -1.79,1 14.46,14.46 0 0 0 1.27,-3.86 11.48,11.48 0 0 0 2.31,-2.83 c 0.44,-0.66 0.45,-0.8 0.05,-0.42 a 11.93,11.93 0 0 1 -2.17,2.49 43.93,43.93 0 0 0 1.18,-4.52 c 0.15,-1 0.11,-1.15 -0.15,-0.52 l -0.47,1.65 a 4.92,4.92 0 0 0 -0.75,-1.51 l 0.61,2 a 23.17,23.17 0 0 1 -0.89,3.35 13.48,13.48 0 0 0 -1.75,-3.4 c -0.66,-0.81 -0.77,-0.83 -0.33,0 a 13.41,13.41 0 0 1 1.79,4.1 17.83,17.83 0 0 1 -1.32,3.77 3.45,3.45 0 0 0 -1.17,-1.18 c -0.32,-0.16 -0.32,-0.06 0,0.28 a 7,7 0 0 1 1,1.23 8.35,8.35 0 0 1 -1.48,2.4 15.4,15.4 0 0 1 -1.81,1.75 5.23,5.23 0 0 0 0.75,-3.87 c 0,-0.25 0.2,-0.46 0.59,-0.61 0.39,-0.15 0.53,-0.33 0.4,-0.52 a 3.94,3.94 0 0 1 -0.52,-1.65 1.64,1.64 0 0 1 1.13,0 q 0.61,-0.42 -0.12,-1.2 a 3.94,3.94 0 0 1 -0.91,-2.24 c 0,-0.57 0.37,-0.77 1.13,-0.61 q 0.51,0 0.09,-1.23 L 69,48.77 c -0.57,-1.26 -0.33,-1.72 0.71,-1.37 l 1.22,0.75 c 0.82,0.32 1.21,-0.23 1.18,-1.65 0,-0.31 0.24,-0.38 0.73,-0.21 0.49,0.17 0.94,-0.19 1.34,-1.1 0.41,-0.44 0.73,0 0.95,1.22 -0.1,1.67 0.31,2.45 1.22,2.36 0.16,0.16 0.18,0.6 0.07,1.39 z m 1.42,-4.06 a 0.91,0.91 0 0 1 -0.22,0.78 2.28,2.28 0 0 1 -1.08,0.54 l -0.52,-0.94 a 3.3,3.3 0 0 0 -0.75,-2.17 3.78,3.78 0 0 1 1,-0.56 c 0.35,-0.16 0.29,-0.21 -0.18,-0.14 a 4,4 0 0 0 -1.18,0.37 h -0.1 a 9.82,9.82 0 0 1 1.37,-2.87 c 0.16,-0.41 0.06,-0.39 -0.28,0 a 16.57,16.57 0 0 0 -1.42,2.41 2.08,2.08 0 0 1 -0.42,-1 c -0.13,-0.6 -0.22,-0.61 -0.28,-0.05 a 4.14,4.14 0 0 0 0.42,1.56 c -0.69,1.07 -1.24,1.49 -1.65,1.27 0.25,-1.51 0.58,-3.09 1,-4.76 0.72,-0.72 1.35,-1 1.89,-0.7 0.75,-0.6 1.39,-0.71 1.93,-0.33 a 2.39,2.39 0 0 1 0.38,1.39 4.24,4.24 0 0 1 -0.48,1.53 c 0.6,0 0.92,0.23 0.95,0.7 a 3.53,3.53 0 0 1 -1.51,2.31 q 1.09,0.2 1.16,0.66 z m -66,30.1 c 0,0.11 0.11,0.1 0.22,0.2 0.44,0.3 0.87,0.17 1.16,-0.38 a 0.79,0.79 0 0 0 -0.17,-1.27 c -0.23,-0.2 -0.23,-0.2 -0.43,0.13 z M 5.58,72.04 c 0.57,0.39 0.9,0.69 1.5,-0.08 A 0.82,0.82 0 0 0 7.02,70.79 1.61,1.61 0 0 0 6.69,70.59 c -0.11,0 -0.1,0.12 -0.21,0.12 z m 8.94,4.39 c 0.09,-0.43 0.17,-0.75 -0.16,-1 l 0.1,-0.12 c 0.22,0.1 0.45,0.3 0.67,0.4 a 5,5 0 0 0 0.77,0.38 l -0.11,0.11 c -0.1,-0.1 -0.43,-0.19 -0.53,0 -0.1,0.19 -0.36,1.3 -0.45,1.63 l -0.33,1.83 1.34,-1.13 a 13.61,13.61 0 0 0 1.14,-1.23 c 0.19,-0.33 0,-0.42 -0.14,-0.53 v -0.2 c 0.22,0.19 0.44,0.29 0.56,0.39 a 2.74,2.74 0 0 1 0.55,0.29 v 0.1 c -0.44,-0.29 -0.84,0.26 -1.25,0.6 l -2.65,2.49 -0.22,-0.1 0.75,-3.87 z m -3.42,0.66 a 3.39,3.39 0 0 0 -0.37,0.87 c -0.1,0.22 0.11,0.32 0.34,0.52 l -0.1,0.11 a 4.4,4.4 0 0 0 -0.78,-0.5 C 9.97,78 9.75,77.8 9.53,77.71 v -0.22 c 0.22,0.1 0.44,0.3 0.54,0.08 a 2.23,2.23 0 0 0 0.61,-0.78 l 1,-1.65 a 4.89,4.89 0 0 1 0.49,-0.77 c 0.09,-0.32 -0.13,-0.42 -0.35,-0.51 l 0.1,-0.11 c 0.23,0.2 0.55,0.29 0.78,0.49 0.23,0.2 0.44,0.29 0.66,0.39 a 1.11,1.11 0 0 1 0.52,1.67 1.22,1.22 0 0 1 -1.91,0.32 c -0.11,0 -0.33,-0.2 -0.33,-0.2 l -0.51,0.67 z M 8.76,73.3 a 4.21,4.21 0 0 1 0.5,-0.78 C 9.35,72.2 9.13,72.1 8.91,72.01 l 0.2,-0.13 2.33,1.48 -0.59,0.88 -0.12,-0.09 c 0.4,-0.66 0.17,-0.86 -0.38,-1.26 l -0.34,-0.2 c -0.1,-0.1 -0.1,-0.1 -0.31,0.13 l -0.89,1.43 c 0.67,0.5 1,0.16 1.28,-0.18 h 0.1 C 10,74.4 9.8,74.62 9.7,74.84 a 5.16,5.16 0 0 1 -0.49,0.77 l -0.12,-0.1 c 0.4,-0.66 0.17,-0.86 -0.38,-1.15 l -0.59,1 c -0.1,0.21 -0.3,0.44 -0.29,0.65 a 0.71,0.71 0 0 0 0.47,0.62 c 0.55,0.29 0.87,0.38 1.38,-0.17 h 0.1 l -0.59,1 -2.66,-1.78 0.1,-0.11 a 0.47,0.47 0 0 0 0.54,0.08 c 0.1,-0.11 0.4,-0.55 0.6,-0.77 l 1,-1.54 z m -2.57,1.46 c 0,0.32 0,0.43 0.25,0.63 L 6.34,75.5 6,75.2 C 5.89,75.1 5.67,75.11 5.56,75.01 l 0.08,-0.54 v -1.7 c 0,-0.32 0,-0.32 -0.24,-0.52 l -0.5,0.67 c -0.1,0.21 -0.39,0.65 -0.48,0.87 -0.09,0.22 0.12,0.31 0.34,0.41 l -0.1,0.11 C 4.44,74.22 4.21,74.02 4,73.92 A 2,2 0 0 0 3.22,73.43 l 0.1,-0.11 c 0.22,0.1 0.33,0.19 0.54,0.08 a 2.21,2.21 0 0 0 0.6,-0.78 l 1.09,-1.65 a 5.29,5.29 0 0 0 0.5,-0.78 C 6.14,69.98 5.92,69.88 5.81,69.78 v -0.21 c 0.33,0.19 0.55,0.4 0.89,0.59 a 2.11,2.11 0 0 1 0.55,0.4 c 0.56,0.39 1,0.9 0.52,1.67 a 1.1,1.1 0 0 1 -1.58,0.4 z m 30.61,1.41 -0.88,-1.64 -0.27,1.78 z M 23.14,79.3 c 0.1,0.21 0.11,0.52 0.22,0.73 0.11,0.21 0.32,0.2 0.53,0.19 a 0.81,0.81 0 0 0 0.5,-1 1,1 0 0 0 -0.43,-0.92 1.59,1.59 0 0 0 -0.73,0 h -0.2 l 0.13,0.93 z M 23,78.06 h 0.11 c 0.2,-0.12 0.41,-0.13 0.51,-0.23 A 1.15,1.15 0 0 0 23.81,77 c -0.12,-0.52 -0.34,-0.72 -0.75,-0.71 a 0.58,0.58 0 0 1 -0.32,0.11 v 0.31 l 0.25,1.35 z m -3.29,1.75 a 2.87,2.87 0 0 0 0.23,0.83 c 0.12,0.2 0.32,0.2 0.53,0.09 0.52,0 0.72,-0.43 0.6,-1.06 -0.11,-0.31 -0.23,-0.62 -0.54,-0.72 a 1.23,1.23 0 0 0 -0.84,0 h -0.11 l 0.13,0.83 z m -0.24,-1.14 0.21,-0.11 c 0.21,0 0.41,0 0.52,-0.22 a 0.87,0.87 0 0 0 0.19,-0.73 C 20.27,77.09 20.05,76.78 19.53,76.9 a 0.52,0.52 0 0 0 -0.31,0.12 v 0.2 z m 16,-1.84 c 0,0.31 -0.19,0.84 -0.08,1 0.11,0.16 0.32,0.2 0.53,0.19 v 0.28 h -0.63 a 1.25,1.25 0 0 1 -0.62,0.12 V 78.3 a 0.68,0.68 0 0 0 0.51,-0.54 c 0.09,-0.52 0.08,-0.94 0.17,-1.36 l 0.46,-2.82 h 0.2 l 1.66,3.18 c 0.11,0.2 0.32,0.52 0.44,0.72 a 0.81,0.81 0 0 0 0.52,0.09 v 0.2 A 1.85,1.85 0 0 0 37.9,77.9 c -0.32,0 -0.62,0.12 -0.83,0.12 v -0.1 c 0.1,-0.11 0.42,-0.12 0.3,-0.43 0,-0.1 -0.11,-0.31 -0.11,-0.41 l -0.44,-0.72 -1.36,0.25 v 0.21 z m -2,-2.66 h 0.11 l 0.25,1.34 h -0.11 c -0.23,-0.73 -0.77,-1.23 -1.39,-1.11 -1,0.13 -1.12,1.38 -1,2.41 0.12,1.03 0.68,2.07 1.73,1.94 0.73,-0.23 0.92,-0.85 0.9,-1.69 l 0.1,-0.11 0.25,1.56 -0.22,-0.31 a 1.82,1.82 0 0 1 -1.13,0.66 c -1.15,0.24 -2.11,-0.57 -2.36,-1.92 -0.25,-1.35 0.46,-2.51 1.6,-2.64 a 1.76,1.76 0 0 1 1.27,0.17 v -0.31 z m -4.28,2 c 0,-0.21 -0.12,-0.62 -0.12,-0.82 a 0.68,0.68 0 0 0 -0.53,-0.2 l -0.11,-0.1 a 2.87,2.87 0 0 1 0.84,-0.13 c 0.31,0 0.62,-0.12 0.83,-0.12 v 0.1 a 0.59,0.59 0 0 0 -0.41,0.32 2.67,2.67 0 0 0 0.12,0.84 l 0.27,2 a 2,2 0 0 0 0.23,0.82 c 0.11,0.21 0.32,0.2 0.53,0.19 v 0.22 h -0.83 a 2.1,2.1 0 0 1 -0.84,0.12 V 79.3 c 0.21,0 0.42,0 0.41,-0.32 -0.01,-0.32 0,-0.63 0,-0.83 l -0.37,-2 z m -3.64,0.7 c 0,-0.21 -0.13,-0.72 -0.13,-0.94 a 0.38,0.38 0 0 0 -0.53,-0.09 l -0.11,-0.2 a 2.33,2.33 0 0 0 0.84,-0.12 2,2 0 0 0 0.83,-0.13 l 0.11,0.2 c -0.21,0 -0.42,0 -0.52,0.22 -0.1,0.22 0.13,0.73 0.13,0.94 l 0.26,2 c 0.14,0.83 0.35,1 1.08,0.91 0.2,-0.11 0.52,-0.12 0.72,-0.34 a 1.06,1.06 0 0 0 0.19,-0.83 l 0.21,-0.12 0.13,1.25 h -0.31 c -0.94,0.13 -2,0.37 -2.92,0.5 v -0.11 c 0.2,-0.11 0.41,-0.11 0.41,-0.32 a 2.7,2.7 0 0 0 0,-0.94 l -0.36,-1.86 z m -3.34,0.6 a 2,2 0 0 0 -0.23,-0.83 c -0.11,-0.2 -0.32,-0.19 -0.53,-0.19 V 76.3 a 2.46,2.46 0 0 1 0.84,-0.13 c 0.21,0 0.41,-0.11 0.63,-0.12 0.62,-0.12 1.36,0 1.48,0.8 0.13,0.62 -0.29,0.94 -0.7,1.16 a 1.17,1.17 0 0 1 0.85,0.19 1.58,1.58 0 0 1 0.64,0.81 1.33,1.33 0 0 1 -0.39,1.05 1.38,1.38 0 0 1 -1,0.34 c -0.1,0.11 -0.41,0.12 -0.62,0.13 a 2.86,2.86 0 0 0 -0.94,0.22 v -0.2 c 0.1,0 0.41,0 0.4,-0.32 -0.01,-0.32 -0.12,-0.63 -0.12,-0.83 l -0.26,-2 z m -3.53,0.61 c 0,-0.2 -0.12,-0.72 -0.13,-0.93 -0.01,-0.21 -0.32,-0.2 -0.52,-0.08 v -0.21 a 1.88,1.88 0 0 0 0.73,-0.13 1.55,1.55 0 0 0 0.73,-0.12 1.11,1.11 0 0 1 1.49,0.9 1,1 0 0 1 -0.59,1.15 1.94,1.94 0 0 1 0.83,0.09 1.07,1.07 0 0 1 0.55,0.92 1,1 0 0 1 -0.39,1 1.41,1.41 0 0 1 -0.93,0.34 1.55,1.55 0 0 0 -0.73,0.12 c -0.42,0 -0.63,0.13 -1.05,0.14 v -0.11 c 0.21,-0.11 0.42,-0.12 0.52,-0.33 0.1,-0.21 -0.13,-0.72 -0.13,-0.93 l -0.37,-1.87 z m 35.47,0.55 -0.32,-1.91 -0.84,1.7 z m 7.11,-0.47 c 0,-0.21 -0.11,-0.74 -0.11,-0.85 -0.1,-0.32 -0.32,-0.21 -0.53,-0.21 v -0.22 h 0.85 c 0.21,0 0.53,-0.1 0.84,-0.1 v 0.21 c -0.2,0 -0.43,0 -0.52,0.22 v 1 L 62,80.13 a 2.81,2.81 0 0 0 0.11,0.95 c 0.1,0.21 0.31,0.21 0.52,0.21 v 0.01 h -0.84 a 2.48,2.48 0 0 1 -0.85,0.1 v -0.1 c 0.11,0 0.43,0 0.43,-0.32 a 2.43,2.43 0 0 0 0,-0.85 l -0.11,-2 z m -4.17,-0.41 c 0,-0.21 0.11,-0.74 0.11,-0.95 a 0.61,0.61 0 0 0 -0.53,-0.33 l 0.11,-0.09 c 0.21,0 0.53,0.09 0.74,0.09 a 2.62,2.62 0 0 0 1,0.12 l -0.1,0.21 c -0.11,0 -0.43,-0.11 -0.53,0.1 -0.1,0.21 -0.11,0.75 -0.22,1 l -0.31,2 c -0.11,0.85 0,1.06 0.63,1.17 0.32,0 0.64,0.11 0.85,0 0.43,-0.21 0.43,-0.43 0.53,-0.85 h 0.21 l -0.31,1.27 c 0,-0.1 -0.22,-0.1 -0.22,-0.1 -1.06,-0.21 -2,-0.32 -3.06,-0.53 v -0.11 a 0.79,0.79 0 0 0 0.63,-0.21 3.15,3.15 0 0 1 0.21,-0.85 l 0.31,-1.92 z m -4.42,1.1 c -0.11,0.21 -0.32,0.74 -0.42,0.95 -0.1,0.21 0.31,0.32 0.42,0.43 v 0.1 c -0.21,0 -0.42,-0.1 -0.63,-0.1 -0.21,0 -0.43,-0.11 -0.64,-0.11 l 0.1,-0.1 c 0.32,0 0.42,-0.11 0.64,-0.43 0.22,-0.32 0.42,-0.85 0.64,-1.28 l 1.27,-2.54 0.21,0.1 0.63,3.61 c 0.11,0.22 0.11,0.64 0.21,0.85 0.1,0.21 0.21,0.22 0.42,0.32 v 0.11 c -0.21,0 -0.52,-0.11 -0.84,-0.11 a 2.21,2.21 0 0 0 -0.85,-0.1 l 0.13,-0.25 c 0.11,0 0.42,0.11 0.42,-0.1 v -0.64 l -0.1,-0.74 -1.48,-0.22 -0.11,0.22 z m -0.41,-2.18 -0.11,-0.1 c 0.11,-0.64 -0.1,-0.86 -0.63,-1 -0.32,0 -0.64,-0.1 -0.64,0.11 l -0.52,3.29 c 0,0.54 0,0.65 0.52,0.86 v 0.1 a 3,3 0 0 1 -1,-0.21 3.08,3.08 0 0 1 -0.95,-0.1 v -0.11 c 0.63,0 0.75,-0.1 0.85,-0.64 l 0.42,-3.3 c 0.11,-0.1 -0.22,-0.21 -0.42,-0.21 -0.64,-0.1 -0.85,-0.1 -0.95,0.75 L 48.61,76 l 0.22,-1.07 3.59,0.64 -0.21,1.07 z M 46.9,75.96 a 2.48,2.48 0 0 0 0,-0.86 c 0,-0.21 -0.21,-0.32 -0.42,-0.32 v -0.2 a 3.39,3.39 0 0 0 0.85,0.2 c 0.32,0 0.63,0.11 1,0.11 L 48.22,75 c -0.11,0 -0.42,0 -0.52,0.21 -0.1,0.21 -0.11,0.64 -0.22,0.85 l -0.21,2 a 2.87,2.87 0 0 0 -0.1,0.86 c 0,0.31 0.21,0.31 0.42,0.31 v 0.22 C 47.27,79.33 47.05,79.33 46.74,79.23 A 2.19,2.19 0 0 1 45.9,79.12 v -0.1 c 0.2,0 0.41,0 0.52,-0.21 a 2,2 0 0 0 0.21,-0.85 l 0.32,-2 z m 25.54,-3.19 -1.59,-1.06 0.63,1.81 1,-0.75 z m -7.14,5.13 -1.34,-1.31 0.32,1.81 1,-0.53 z m 6.29,-4 a 3,3 0 0 0 0.32,1.06 c 0.21,0.21 0.42,0 0.53,-0.11 l 0.1,0.22 a 2.14,2.14 0 0 1 -0.52,0.32 c -0.11,0.1 -0.33,0.21 -0.43,0.42 L 71.48,75.6 c 0.21,-0.21 0.21,-0.31 0.21,-0.64 a 9.29,9.29 0 0 1 -0.41,-1.38 l -0.85,-2.76 0.1,-0.11 3.07,2.13 a 2.35,2.35 0 0 0 0.64,0.42 c 0.2,0.11 0.42,0 0.63,-0.11 v 0.22 a 2.17,2.17 0 0 0 -0.63,0.42 C 74.03,74 73.81,74.11 73.6,74.33 l -0.1,-0.11 c 0.1,-0.11 0.31,-0.32 0.21,-0.54 -0.1,-0.22 -0.32,-0.2 -0.43,-0.31 l -0.63,-0.43 -1.17,0.85 z m -5.29,0.77 c -0.32,-0.11 -0.53,-0.11 -0.74,0.11 l -0.11,-0.22 c 0.21,-0.11 0.32,-0.11 0.43,-0.32 a 0.79,0.79 0 0 0 0.42,-0.21 l 4.13,1.39 -1.17,-1.61 c -0.21,-0.2 -0.42,-0.63 -0.63,-0.84 -0.21,-0.21 -0.43,-0.11 -0.74,0 l -0.11,-0.11 0.64,-0.32 a 0.84,0.84 0 0 1 0.42,-0.43 l 0.11,0.11 c -0.11,0.22 -0.32,0.22 -0.21,0.53 a 11.81,11.81 0 0 0 0.74,1.06 l 1.69,2.35 -0.11,0.1 a 1.43,1.43 0 0 1 -0.63,-0.21 l -3.81,-1.27 1.37,1.91 a 3.89,3.89 0 0 0 0.64,0.74 c 0.21,0.11 0.42,0 0.63,-0.11 v 0.11 a 1,1 0 0 1 -0.52,0.43 1.8,1.8 0 0 0 -0.54,0.42 l -0.1,-0.1 c 0.21,-0.22 0.32,-0.32 0.21,-0.64 a 3.45,3.45 0 0 0 -0.53,-0.75 z m -1.94,4.25 a 4.85,4.85 0 0 0 0.2,1.06 c 0.11,0.22 0.42,0.11 0.53,0 l 0.1,0.11 c -0.21,0.11 -0.31,0.21 -0.52,0.32 a 2.46,2.46 0 0 0 -0.53,0.32 L 64.03,80.62 A 0.59,0.59 0 0 0 64.25,79.88 5.93,5.93 0 0 0 64.03,78.5 L 63.5,75.63 h 0.22 l 2.74,2.44 a 3.22,3.22 0 0 0 0.64,0.53 c 0.21,0.11 0.42,0 0.53,0 l 0.11,0.11 a 2.58,2.58 0 0 0 -0.75,0.42 3,3 0 0 0 -0.74,0.43 l -0.1,-0.21 c 0.21,0 0.42,-0.22 0.31,-0.43 A 1.39,1.39 0 0 0 66.04,78.5 l -0.53,-0.43 -1.26,0.64 z"
     id="path8" />
  <path
     class="cls-2"
     d="M 303.03,23.79 V 7.71 h 8.28 l 1.25,6.15 1,-6.15 h 8.52 v 16.08 h -5.56 v -8.28 h -0.27 l -1.39,8.12 h -4.66 l -1.36,-8.12 h -0.27 v 8.28 z"
     id="path10" />
  <path
     class="cls-2"
     d="M 324.71,23.79 V 7.71 h 5.56 v 16.08 z"
     id="path12" />
  <path
     class="cls-2"
     d="M 332.87,23.79 V 7.71 h 5.47 l 3.69,6.1 h 0.34 v -6.1 h 5.59 v 16.08 h -5.5 l -3.65,-6.55 h -0.36 v 6.55 z"
     id="path14" />
  <path
     class="cls-2"
     d="M 350.53,23.79 V 7.71 h 5.57 v 16.08 z"
     id="path16" />
  <path
     class="cls-2"
     d="m 370.96,12.35 q -3.39,-0.36 -4.92,-0.36 a 9.58,9.58 0 0 0 -1.79,0.08 0.34,0.34 0 0 0 -0.25,0.35 0.46,0.46 0 0 0 0.29,0.41 13.41,13.41 0 0 0 1.81,0.48 23.36,23.36 0 0 1 2.5,0.66 6.07,6.07 0 0 1 1.75,0.91 2.75,2.75 0 0 1 1,1.44 8.29,8.29 0 0 1 0.25,2.29 c 0,2 -0.53,3.4 -1.58,4.25 a 7.54,7.54 0 0 1 -4.78,1.27 30.63,30.63 0 0 1 -5.83,-0.65 l -0.94,-0.21 0.24,-4.25 a 44.45,44.45 0 0 0 6,0.53 c 0.83,0 1.25,-0.19 1.25,-0.56 0,-0.16 -0.1,-0.27 -0.29,-0.34 a 11.57,11.57 0 0 0 -1.56,-0.3 c -2.24,-0.36 -3.77,-0.9 -4.57,-1.65 a 4.76,4.76 0 0 1 -1.22,-3.66 q 0,-3.24 1.56,-4.44 a 7.85,7.85 0 0 1 4.8,-1.2 36.44,36.44 0 0 1 5.36,0.46 l 1,0.17 z"
     id="path18" />
  <path
     class="cls-2"
     d="M 373.07,12.3 V 7.76 h 12 v 4.54 h -3.11 v 11.54 h -5.57 V 12.3 Z"
     id="path20" />
  <path
     class="cls-2"
     d="m 394.11,19.64 h -1.36 v 4.15 h -5.57 V 7.71 h 6.78 c 2.48,0 4.25,0.42 5.32,1.24 1.07,0.82 1.61,2.35 1.61,4.59 0,2.24 -0.59,3.82 -1.77,4.78 l 1.58,5.47 h -5.66 z m 0,-4.39 c 0.78,0 1.18,-0.52 1.18,-1.57 0,-1.05 -0.44,-1.57 -1.32,-1.57 h -1.23 v 3.19 z"
     id="path22" />
  <path
     class="cls-2"
     d="m 418.11,15.75 c 0,2.93 -0.6,5.06 -1.82,6.38 -1.22,1.32 -3.16,2 -5.82,2 -2.66,0 -4.61,-0.67 -5.83,-2 -1.22,-1.33 -1.84,-3.46 -1.84,-6.38 0,-2.92 0.61,-5 1.83,-6.36 1.22,-1.36 3.16,-2 5.83,-2 2.67,0 4.61,0.66 5.83,2 1.22,1.34 1.82,3.44 1.82,6.36 z m -9.69,0 a 8.06,8.06 0 0 0 0.39,3 1.64,1.64 0 0 0 1.66,0.89 1.58,1.58 0 0 0 1.64,-0.88 8,8 0 0 0 0.39,-3 8.47,8.47 0 0 0 -0.37,-2.95 1.6,1.6 0 0 0 -1.65,-0.88 1.63,1.63 0 0 0 -1.67,0.9 8,8 0 0 0 -0.39,2.92 z"
     id="path24" />
  <path
     class="cls-2"
     d="m 310.43,46.2 h -4.23 v 5.59 h -1.85 v -16.6 h 6.08 a 5.39,5.39 0 0 1 4,1.32 5.52,5.52 0 0 1 1.3,4 c 0,3.79 -1.77,5.69 -5.3,5.69 z m -4.23,-1.63 h 4.2 q 3.44,0 3.43,-4 a 4.13,4.13 0 0 0 -0.81,-2.82 3.39,3.39 0 0 0 -2.62,-0.9 h -4.2 z"
     id="path26" />
  <path
     class="cls-2"
     d="m 318.3,51.79 v -16.6 h 10.1 v 1.63 h -8.25 v 5.73 h 6.81 v 1.61 h -6.81 v 6 h 8.25 v 1.63 z"
     id="path28" />
  <path
     class="cls-2"
     d="m 333.13,45.43 v 6.36 h -1.85 v -16.6 h 6.15 a 5.67,5.67 0 0 1 4,1.22 5,5 0 0 1 1.33,3.82 q 0,3.84 -3,4.82 l 3.19,6.74 h -2 l -3,-6.36 z m 4.32,-1.63 c 2.26,0 3.38,-1.16 3.38,-3.49 0,-2.33 -1.13,-3.49 -3.4,-3.49 h -4.3 v 7 z"
     id="path30" />
  <path
     class="cls-2"
     d="m 359.96,51.79 h -9.14 v -16.6 h 1.85 v 15 h 7.29 z"
     id="path32" />
  <path
     class="cls-2"
     d="m 359.07,40.06 1.06,-5.26 h 1.9 l -1.54,5.26 z"
     id="path34" />
  <path
     class="cls-2"
     d="m 364.74,51.79 v -16.6 h 1.85 v 16.6 z"
     id="path36" />
  <path
     class="cls-2"
     d="m 370.35,51.79 v -16.6 h 3.46 l 6.36,15 h 0.5 v -15 h 1.83 v 16.6 h -3.39 l -6.45,-15 h -0.46 v 15 z"
     id="path38" />
  <path
     class="cls-2"
     d="m 386.29,51.79 v -16.6 h 3.45 l 6.36,15 h 0.51 v -15 h 1.82 v 16.6 h -3.38 l -6.46,-15 h -0.45 v 15 z"
     id="path40" />
  <path
     class="cls-2"
     d="m 414.68,43.61 q 0,4.44 -1.42,6.43 c -0.94,1.33 -2.66,2 -5.14,2 -2.48,0 -4.21,-0.68 -5.15,-2.05 -0.94,-1.37 -1.42,-3.5 -1.42,-6.41 0,-2.91 0.48,-5.09 1.44,-6.51 0.96,-1.42 2.67,-2.12 5.11,-2.12 2.44,0 4.16,0.7 5.13,2.11 0.97,1.41 1.45,3.59 1.45,6.55 z m -11.23,-0.05 a 10.71,10.71 0 0 0 1,5.25 c 0.64,1.06 1.87,1.59 3.71,1.59 1.84,0 3.06,-0.52 3.69,-1.56 a 10.63,10.63 0 0 0 0.95,-5.23 11.09,11.09 0 0 0 -1,-5.35 q -1,-1.68 -3.69,-1.68 c -1.8,0 -3,0.55 -3.67,1.67 a 11,11 0 0 0 -0.99,5.31 z"
     id="path42" />
  <path
     class="cls-2"
     d="m 426.96,35.19 h 1.92 l -4.34,16.6 h -4.13 l -4.35,-16.6 h 1.9 l 3.82,15 h 1.34 z"
     id="path44" />
  <path
     class="cls-2"
     d="m 429.03,51.79 4.56,-16.6 h 4 l 4.56,16.6 h -1.79 l -1.2,-4.27 h -7.11 l -1.19,4.27 z m 5.95,-15 -2.52,9.1 h 6.29 l -2.52,-9.1 z"
     id="path46" />
  <path
     class="cls-2"
     d="m 443.5,36.82 v -1.63 h 10.8 v 2.16 l -8.69,12.33 v 0.48 h 8.69 v 1.66 h -10.8 v -2.14 l 8.67,-12.33 v -0.53 z"
     id="path48" />
  <path
     class="cls-2"
     d="m 457.09,51.79 v -16.6 h 1.87 v 16.6 z"
     id="path50" />
  <path
     class="cls-2"
     d="m 475.16,43.61 q 0,4.44 -1.42,6.43 -1.42,1.99 -5.15,2 c -2.48,0 -4.2,-0.68 -5.14,-2.05 -0.94,-1.37 -1.42,-3.5 -1.42,-6.41 0,-2.91 0.48,-5.09 1.44,-6.51 0.96,-1.42 2.66,-2.12 5.11,-2.12 2.45,0 4.16,0.7 5.13,2.11 0.97,1.41 1.45,3.59 1.45,6.55 z m -11.2,-0.05 a 10.71,10.71 0 0 0 1,5.25 c 0.64,1.06 1.87,1.59 3.7,1.59 1.83,0 3.07,-0.52 3.7,-1.56 a 10.63,10.63 0 0 0 0.95,-5.23 11,11 0 0 0 -1,-5.35 c -0.65,-1.12 -1.88,-1.68 -3.68,-1.68 -1.8,0 -3,0.55 -3.67,1.67 a 11,11 0 0 0 -1,5.31 z"
     id="path52" />
  <path
     class="cls-2"
     d="m 478.25,51.79 v -16.6 h 3.46 l 6.36,15 h 0.5 v -15 h 1.83 v 16.6 h -3.39 l -6.45,-15 h -0.46 v 15 z"
     id="path54" />
  <path
     class="cls-2"
     d="m 494.19,51.79 v -16.6 h 10.1 v 1.63 h -8.25 v 5.73 h 6.81 v 1.61 h -6.81 v 6 h 8.25 v 1.63 z"
     id="path56" />
  <path
     class="cls-2"
     d="m 510.44,36.84 v -1.65 h 12 v 1.65 h -5.07 v 15 h -1.82 v -15 z"
     id="path58" />
  <path
     class="cls-2"
     d="m 524.5,51.79 v -16.6 h 10.1 v 1.63 h -8.25 v 5.73 h 6.82 v 1.61 h -6.82 v 6 h 8.25 v 1.63 z"
     id="path60" />
  <path
     class="cls-2"
     d="m 547.33,51.53 a 22.24,22.24 0 0 1 -4.44,0.51 7.83,7.83 0 0 1 -3.18,-0.55 3.94,3.94 0 0 1 -1.88,-1.68 7.83,7.83 0 0 1 -0.91,-2.61 22.32,22.32 0 0 1 -0.25,-3.69 22.62,22.62 0 0 1 0.25,-3.7 7.9,7.9 0 0 1 0.91,-2.65 4,4 0 0 1 1.86,-1.69 7.87,7.87 0 0 1 3.12,-0.52 23.2,23.2 0 0 1 4.52,0.52 l -0.08,1.57 a 24.69,24.69 0 0 0 -4.32,-0.44 c -1.76,0 -2.92,0.53 -3.49,1.57 a 12.12,12.12 0 0 0 -0.85,5.37 22.65,22.65 0 0 0 0.16,3 6.41,6.41 0 0 0 0.61,2.07 2.63,2.63 0 0 0 1.33,1.32 6.35,6.35 0 0 0 2.57,0.4 21.78,21.78 0 0 0 4,-0.43 z"
     id="path62" />
  <path
     class="cls-2"
     d="m 550.06,51.79 v -16.6 h 3.46 l 6.36,15 h 0.5 v -15 h 1.82 v 16.6 h -3.38 l -6.46,-15 h -0.4 v 15 z"
     id="path64" />
  <path
     class="cls-2"
     d="m 578.45,43.61 q 0,4.44 -1.41,6.43 c -1,1.33 -2.66,2 -5.15,2 -2.49,0 -4.21,-0.68 -5.15,-2.05 -0.94,-1.37 -1.42,-3.5 -1.42,-6.41 0,-2.91 0.48,-5.09 1.44,-6.51 0.96,-1.42 2.67,-2.12 5.12,-2.12 2.45,0 4.15,0.7 5.12,2.11 0.97,1.41 1.45,3.59 1.45,6.55 z m -11.23,-0.05 a 10.71,10.71 0 0 0 1,5.25 c 0.64,1.06 1.88,1.59 3.71,1.59 1.83,0 3.06,-0.52 3.69,-1.56 0.63,-1.04 1,-2.78 1,-5.23 a 11.09,11.09 0 0 0 -1,-5.35 q -1,-1.68 -3.69,-1.68 c -1.8,0 -3,0.55 -3.67,1.67 a 11,11 0 0 0 -1.04,5.31 z"
     id="path66" />
  <path
     class="cls-2"
     d="m 590.69,51.79 h -9.14 v -16.6 h 1.85 v 15 h 7.29 z"
     id="path68" />
  <path
     class="cls-2"
     d="m 604.73,43.61 q 0,4.44 -1.41,6.43 c -1,1.33 -2.66,2 -5.15,2 -2.49,0 -4.21,-0.68 -5.15,-2.05 -0.94,-1.37 -1.42,-3.5 -1.42,-6.41 0,-2.91 0.48,-5.09 1.44,-6.51 0.96,-1.42 2.67,-2.12 5.12,-2.12 2.45,0 4.15,0.7 5.12,2.11 0.97,1.41 1.45,3.59 1.45,6.55 z M 593.5,43.56 a 10.71,10.71 0 0 0 1,5.25 c 0.64,1.06 1.88,1.59 3.71,1.59 1.83,0 3.06,-0.52 3.69,-1.56 0.63,-1.04 1,-2.78 1,-5.23 a 11.09,11.09 0 0 0 -1,-5.35 q -1,-1.68 -3.69,-1.68 c -1.8,0 -3,0.55 -3.67,1.67 a 11,11 0 0 0 -1.04,5.31 z"
     id="path70" />
  <path
     class="cls-2"
     d="M 614.4,44.95 V 43.3 h 4.56 v 8.16 a 29.65,29.65 0 0 1 -5.4,0.58 c -2.42,0 -4.09,-0.7 -5,-2.09 -0.91,-1.39 -1.4,-3.54 -1.4,-6.45 0,-2.91 0.46,-5 1.4,-6.45 0.94,-1.45 2.6,-2.1 5,-2.1 a 23.57,23.57 0 0 1 4.63,0.48 l 0.82,0.14 -0.07,1.54 a 31.26,31.26 0 0 0 -5.16,-0.51 c -1.84,0 -3.08,0.53 -3.72,1.6 -0.64,1.07 -1,2.83 -1,5.3 0,2.47 0.31,4.24 1,5.31 0.69,1.07 1.87,1.59 3.69,1.59 a 18.43,18.43 0 0 0 3.43,-0.33 v -5.12 z"
     id="path72" />
  <path
     class="cls-2"
     d="m 622.32,51.79 v -16.6 h 1.85 v 16.6 z"
     id="path74" />
  <path
     class="cls-2"
     d="m 637.96,51.53 a 22.24,22.24 0 0 1 -4.44,0.51 7.9,7.9 0 0 1 -3.18,-0.55 3.92,3.92 0 0 1 -1.87,-1.68 7.62,7.62 0 0 1 -0.91,-2.61 22.19,22.19 0 0 1 -0.26,-3.69 22.49,22.49 0 0 1 0.26,-3.7 7.69,7.69 0 0 1 0.91,-2.65 4,4 0 0 1 1.86,-1.69 7.87,7.87 0 0 1 3.12,-0.52 23.1,23.1 0 0 1 4.51,0.52 l -0.07,1.57 a 24.87,24.87 0 0 0 -4.32,-0.44 c -1.76,0 -2.93,0.53 -3.49,1.57 a 12.09,12.09 0 0 0 -0.86,5.37 24.44,24.44 0 0 0 0.16,3 6.66,6.66 0 0 0 0.61,2.07 2.71,2.71 0 0 0 1.33,1.32 6.38,6.38 0 0 0 2.57,0.4 22,22 0 0 0 4,-0.43 z"
     id="path76" />
  <path
     class="cls-2"
     d="m 639.24,51.79 4.56,-16.6 h 4 l 4.56,16.6 h -1.82 l -1.2,-4.27 h -7.1 l -1.2,4.27 z m 6,-15 -2.52,9.1 h 6.24 l -2.52,-9.1 z"
     id="path78" />
  <path
     class="cls-2"
     d="m 304.35,79.79 v -16.6 h 10.11 v 1.63 h -8.26 v 5.73 h 6.82 v 1.61 h -6.82 v 6 h 8.26 v 1.63 z"
     id="path80" />
  <path
     class="cls-2"
     d="m 331.47,79.79 h -9.14 v -16.6 h 1.85 v 15 h 7.29 z"
     id="path82" />
  <path
     class="cls-2"
     d="m 332.07,79.79 4.56,-16.6 h 4 l 4.56,16.6 h -1.83 l -1.2,-4.27 h -7.1 l -1.2,4.27 z m 6,-15 -2.52,9.1 h 6.28 l -2.52,-9.1 z"
     id="path84" />
  <path
     class="cls-2"
     d="m 350.82,64.84 v -1.65 h 12 v 1.65 h -5.07 v 15 h -1.79 v -15 z"
     id="path86" />
  <path
     class="cls-2"
     d="m 366.73,73.43 v 6.36 h -1.85 v -16.6 h 6.14 a 5.7,5.7 0 0 1 4,1.22 5,5 0 0 1 1.33,3.82 q 0,3.84 -3.05,4.82 l 3.19,6.74 h -2 l -3,-6.36 z m 4.32,-1.63 q 3.38,0 3.38,-3.49 c 0,-2.33 -1.13,-3.49 -3.41,-3.49 h -4.29 v 7 z"
     id="path88" />
  <path
     class="cls-2"
     d="m 377.75,79.79 4.55,-16.6 h 4 l 4.56,16.6 h -1.83 l -1.2,-4.27 h -7.1 l -1.2,4.27 z m 5.95,-15 -2.52,9.1 h 6.29 l -2.52,-9.1 z"
     id="path90" />
  <path
     class="cls-2"
     d="m 393.22,79.79 v -16.6 h 3.46 l 6.36,15 h 0.51 v -15 h 1.82 v 16.6 h -3.41 l -6.45,-15 h -0.46 v 15 z"
     id="path92" />
  <path
     class="cls-2"
     d="m 413.74,64.55 q -3.6,0 -3.6,2.72 a 2.32,2.32 0 0 0 0.82,2.03 11,11 0 0 0 3.36,1.13 8.57,8.57 0 0 1 3.59,1.46 3.74,3.74 0 0 1 1.06,3 q 0,5.11 -5.31,5.11 a 30,30 0 0 1 -4.39,-0.41 l -0.86,-0.12 0.19,-1.53 a 40.45,40.45 0 0 0 5,0.43 c 2.36,0 3.55,-1.11 3.55,-3.34 a 2.27,2.27 0 0 0 -0.78,-1.93 7.58,7.58 0 0 0 -2.92,-1 10,10 0 0 1 -4,-1.55 3.86,3.86 0 0 1 -1.18,-3.18 c 0,-3 1.79,-4.47 5.35,-4.47 a 29.46,29.46 0 0 1 4.2,0.36 l 0.82,0.12 -0.17,1.56 a 45.67,45.67 0 0 0 -4.73,-0.39 z"
     id="path94" />
  <path
     class="cls-2"
     d="m 421.88,79.79 v -16.6 h 1.85 v 16.6 z"
     id="path96" />
  <path
     class="cls-2"
     d="m 426.49,64.82 v -1.63 h 10.8 v 2.16 l -8.69,12.33 v 0.48 h 8.69 v 1.66 h -10.8 v -2.14 l 8.66,-12.33 v -0.53 z"
     id="path98" />
  <path
     class="cls-2"
     d="m 440.07,79.79 v -16.6 h 1.89 v 16.6 z"
     id="path100" />
  <path
     class="cls-2"
     d="m 458.14,71.61 q 0,4.44 -1.41,6.43 c -0.95,1.33 -2.66,2 -5.15,2 -2.49,0 -4.21,-0.68 -5.15,-2.05 -0.94,-1.37 -1.42,-3.5 -1.42,-6.41 0,-2.91 0.48,-5.09 1.44,-6.51 0.96,-1.42 2.67,-2.12 5.12,-2.12 2.45,0 4.15,0.7 5.12,2.11 0.97,1.41 1.45,3.59 1.45,6.55 z m -11.18,-0.05 a 10.71,10.71 0 0 0 1,5.25 c 0.64,1.06 1.88,1.59 3.71,1.59 1.83,0 3.06,-0.52 3.69,-1.56 0.63,-1.04 1,-2.78 1,-5.23 a 11.09,11.09 0 0 0 -1,-5.35 q -1,-1.68 -3.69,-1.68 c -1.79,0 -3,0.55 -3.67,1.67 a 11,11 0 0 0 -1.04,5.31 z"
     id="path102" />
  <path
     class="cls-2"
     d="m 461.24,79.79 v -16.6 h 3.45 l 6.36,15 h 0.51 v -15 h 1.82 v 16.6 h -3.42 l -6.46,-15 h -0.45 v 15 z"
     id="path104" />
  <path
     class="cls-2"
     d="m 477.17,79.79 v -16.6 h 10.11 v 1.63 h -8.26 v 5.73 h 6.82 v 1.61 h -6.82 v 6 h 8.26 v 1.63 z"
     id="path106" />
  <path
     class="cls-2"
     d="m 501.08,79.79 h -5.93 v -16.6 h 5.93 q 4.05,0 5.37,3.21 a 12.85,12.85 0 0 1 0.77,4.85 q 0,6.27 -3.12,7.9 a 6.51,6.51 0 0 1 -3.02,0.64 z m 4.24,-8.54 c 0,-3.18 -0.71,-5.17 -2.13,-5.95 a 4.3,4.3 0 0 0 -2.11,-0.48 h -4.12 v 13.34 h 4.08 q 4.29,0 4.28,-6.86 z"
     id="path108" />
  <path
     class="cls-2"
     d="m 510.34,79.79 v -16.6 h 1.85 v 16.6 z"
     id="path110" />
  <path
     class="cls-2"
     d="M 522.53,72.95 V 71.3 h 4.59 v 8.16 a 29.65,29.65 0 0 1 -5.4,0.58 q -3.63,0 -5,-2.09 c -0.94,-1.4 -1.41,-3.54 -1.41,-6.45 0,-2.91 0.47,-5 1.41,-6.45 0.94,-1.45 2.59,-2.1 5,-2.1 a 23.57,23.57 0 0 1 4.63,0.48 l 0.82,0.14 -0.08,1.54 a 31.06,31.06 0 0 0 -5.16,-0.51 c -1.84,0 -3.08,0.53 -3.72,1.6 a 15.14,15.14 0 0 0 0,10.61 c 0.64,1.06 1.88,1.59 3.7,1.59 a 18.51,18.51 0 0 0 3.43,-0.33 v -5.12 z"
     id="path112" />
  <path
     class="cls-2"
     d="m 530.45,79.79 v -16.6 h 1.85 v 16.6 z"
     id="path114" />
  <path
     class="cls-2"
     d="m 534.34,64.84 v -1.65 h 12 v 1.65 h -5.06 v 15 h -1.83 v -15 z"
     id="path116" />
  <path
     class="cls-2"
     d="m 545.81,79.79 4.56,-16.6 h 4 l 4.56,16.6 h -1.82 l -1.2,-4.27 h -7.1 l -1.2,4.27 z m 5.95,-15 -2.52,9.1 h 6.29 l -2.52,-9.1 z"
     id="path118" />
  <path
     class="cls-2"
     d="m 570.43,79.79 h -9.14 v -16.6 h 1.85 v 15 h 7.29 z"
     id="path120" />
  <path
     class="cls-2"
     d="m 572.5,79.79 v -16.6 h 10.1 v 1.63 h -8.25 v 5.73 h 6.81 v 1.61 h -6.81 v 6 h 8.25 v 1.63 z"
     id="path122" />
  <path
     class="cls-2"
     d="m 101.08,5.74 v 76.8 H 279.21 V 5.74 Z m 21.42,36.47 a 4.51,4.51 0 0 1 -3.43,1.4 4.61,4.61 0 0 1 -3.47,-1.43 4.92,4.92 0 0 1 -1.37,-3.54 4.85,4.85 0 0 1 1.36,-3.52 4.63,4.63 0 0 1 3.47,-1.4 4.45,4.45 0 0 1 3.44,1.44 5,5 0 0 1 1.32,3.54 4.92,4.92 0 0 1 -1.32,3.51 z m 50.61,22.24 h -8.28 V 32.89 h -0.87 l -8,29.76 h -8.28 l -8,-29.76 h -0.9 v 31.56 h -8.28 v -40.8 h 14.1 l 7.2,29.76 7.2,-29.76 h 14.1 z m 18.6,0 h -8.28 v -40.8 h 8.28 z m 36.66,-33.48 h -10.8 v 33.48 h -8.28 V 30.97 h -10.92 v -7.32 h 30 z m 37.08,21.57 a 17.73,17.73 0 0 1 -2.49,6.48 10.37,10.37 0 0 1 -5.31,4.14 25.89,25.89 0 0 1 -8.88,1.29 h -13.74 v -40.8 h 13.74 a 28.68,28.68 0 0 1 8.7,1.11 10.37,10.37 0 0 1 5.31,3.66 15.12,15.12 0 0 1 2.61,6 45.38,45.38 0 0 1 0.72,9 52.55,52.55 0 0 1 -0.66,9.12 z m -9.24,-18.75 a 4.74,4.74 0 0 0 -2.67,-2.31 14.63,14.63 0 0 0 -4.77,-0.63 h -5.46 V 57.3 h 5.46 q 4.5,0 6.54,-2.28 1.74,-1.86 2.16,-6.72 0.12,-1.92 0.12,-5.31 a 48.63,48.63 0 0 0 -0.24,-5.43 10.37,10.37 0 0 0 -1.14,-3.77 z"
     id="path124" />
  <metadata
     id="metadata129">
    <rdf:RDF>
      <cc:Work
         rdf:about="">
        <dc:title>Logo-MITD_ORIZ_RGB_blu-bucato</dc:title>
      </cc:Work>
    </rdf:RDF>
  </metadata>
</svg>
