<svg width="48" height="48" viewBox="0 0 48 48" fill="none" xmlns="http://www.w3.org/2000/svg">
<path d="M20 23.8828V14.5L24.4473 15.9766L24.5 25.5L20 23.8828Z" fill="#0066CC"/>
<path d="M7.00001 37.3828L7 32.0234L9.96485 33.5L10 39L7.00001 37.3828Z" fill="#27D1D6"/>
<path d="M14.2675 19.2076V12.7607L31.1299 18.1813L46.9999 12.7607V32.1267L31.1299 39.1625L26.8628 37.3822" stroke="#505050" stroke-linecap="round" stroke-linejoin="round"/>
<path d="M14.2675 12.7609L30.6337 7L46.9999 12.7609" stroke="#505050" stroke-linecap="round" stroke-linejoin="round"/>
<path d="M22.3217 15.3498L38.1547 9.64722" stroke="#505050" stroke-linecap="round" stroke-linejoin="round"/>
<path d="M31.1299 18.1819V39.163" stroke="#505050" stroke-linecap="round" stroke-linejoin="round"/>
<path d="M24.4584 30.6663V36.3766L14.581 40.7575L4.08667 36.3766V30.7243" stroke="#505050" stroke-linecap="round" stroke-linejoin="round"/>
<path d="M4.08667 25.2649L14.581 29.586L24.4584 25.2649" stroke="#505050" stroke-linecap="round" stroke-linejoin="round"/>
<path d="M14.5811 29.5864V40.7579" stroke="#505050" stroke-linecap="round" stroke-linejoin="round"/>
<path d="M14.5809 29.586L11.4943 34.2159L1 29.2772L4.0866 25.2649" stroke="#505050" stroke-linecap="round" stroke-linejoin="round"/>
<path d="M24.4583 25.2649L27.2361 29.2772L17.9763 33.9077L14.5809 29.586" stroke="#505050" stroke-linecap="round" stroke-linejoin="round"/>
<path d="M24.4584 25.265L14.2722 21.8696L4.08667 25.265" stroke="#505050" stroke-linecap="round" stroke-linejoin="round"/>
<path d="M14.2725 21.8696V26.0288" stroke="#505050" stroke-linecap="round" stroke-linejoin="round"/>
</svg>
