<svg width="145" height="106" viewBox="0 0 145 106" fill="none" xmlns="http://www.w3.org/2000/svg">
<ellipse cx="32.7488" cy="55.7135" rx="8.38597" ry="8.35729" fill="#0073E6"/>
<path d="M110.275 21.9812L109.227 22.0148L110.275 21.9812ZM112.892 13.7087L113.713 14.3617L114.036 13.9555L113.909 13.4524L112.892 13.7087ZM110.49 28.6269L110.523 29.6755L111.572 29.6424L111.539 28.5933L110.49 28.6269ZM110.487 28.627L110.52 29.6756L110.52 29.6756L110.487 28.627ZM107.963 31.6797L109.012 31.6461L107.963 31.6797ZM110.678 34.5673L110.645 33.5187L110.678 34.5673ZM117.829 34.342L118.869 34.2078L118.747 33.2634L117.796 33.2934L117.829 34.342ZM121.65 37.9927L121.683 39.0413L121.683 39.0413L121.65 37.9927ZM121.65 37.9927L121.617 36.9442L121.617 36.9442L121.65 37.9927ZM125.228 34.1088L125.195 33.0602L124.242 33.0902L124.181 34.0415L125.228 34.1088ZM125.272 34.1074L125.238 33.0588L125.238 33.0588L125.272 34.1074ZM132.381 33.8836L132.414 34.9322L132.415 34.9322L132.381 33.8836ZM134.905 30.831L133.856 30.8646L134.905 30.831ZM132.19 27.9434L132.156 26.8948L132.156 26.8948L132.19 27.9434ZM132.188 27.9434L131.139 27.9771L131.173 29.0251L132.221 28.992L132.188 27.9434ZM131.973 21.2978L130.925 21.3314L131.973 21.2978ZM128.828 13.2068L128.038 13.8965L128.044 13.9036L128.051 13.9107L128.828 13.2068ZM123.405 9.9404L122.38 9.7165L122.157 10.7414L123.182 10.9653L123.405 9.9404ZM123.487 9.00423L124.536 8.9706L124.536 8.9706L123.487 9.00423ZM120.579 5.91316L120.546 4.86459L120.579 5.91316ZM117.876 9.18096L118.924 9.14733L118.924 9.14733L117.876 9.18096ZM118.056 10.1089L118.348 11.1164L119.474 10.7894L119.024 9.70677L118.056 10.1089ZM112.892 13.7084L112.059 13.0704L111.751 13.473L111.875 13.9647L112.892 13.7084ZM111.324 21.9475C111.233 19.1213 112.082 16.4133 113.713 14.3617L112.071 13.0558C110.103 15.5309 109.121 18.7368 109.227 22.0148L111.324 21.9475ZM111.539 28.5933L111.324 21.9475L109.227 22.0148L109.441 28.6606L111.539 28.5933ZM110.457 27.5784L110.453 27.5785L110.52 29.6756L110.523 29.6755L110.457 27.5784ZM110.453 27.5785C108.341 27.645 106.846 29.5968 106.915 31.7133L109.012 31.6461C108.973 30.453 109.788 29.6987 110.52 29.6756L110.453 27.5785ZM106.915 31.7133C106.981 33.7771 108.591 35.6827 110.712 35.6159L110.645 33.5187C109.922 33.5415 109.049 32.8073 109.012 31.6461L106.915 31.7133ZM110.712 35.6159L117.862 35.3905L117.796 33.2934L110.645 33.5187L110.712 35.6159ZM121.617 36.9442C120.336 36.9845 119.091 35.9215 118.869 34.2078L116.788 34.4762C117.118 37.0264 119.102 39.1226 121.683 39.0413L121.617 36.9442ZM121.617 36.9442L121.617 36.9442L121.683 39.0413L121.683 39.0413L121.617 36.9442ZM124.181 34.0415C124.071 35.7653 122.897 36.9039 121.617 36.9442L121.683 39.0413C124.265 38.96 126.111 36.7422 126.275 34.176L124.181 34.0415ZM125.261 35.1573L125.305 35.156L125.238 33.0588L125.195 33.0602L125.261 35.1573ZM125.305 35.156L132.414 34.9322L132.348 32.8351L125.238 33.0588L125.305 35.156ZM132.415 34.9322C134.536 34.8654 136.02 32.8609 135.953 30.7974L133.856 30.8646C133.894 32.0254 133.07 32.8123 132.348 32.8351L132.415 34.9322ZM135.953 30.7974C135.885 28.681 134.268 26.8283 132.156 26.8948L132.223 28.9919C132.955 28.9689 133.818 29.6712 133.856 30.8646L135.953 30.7974ZM132.156 26.8948L132.154 26.8949L132.221 28.992L132.223 28.9919L132.156 26.8948ZM130.925 21.3314L131.139 27.9771L133.236 27.9098L133.022 21.2642L130.925 21.3314ZM128.051 13.9107C129.811 15.8557 130.833 18.5051 130.925 21.3314L133.022 21.2642C132.916 17.9861 131.729 14.8487 129.606 12.5029L128.051 13.9107ZM123.182 10.9653C124.99 11.3604 126.703 12.3663 128.038 13.8965L129.619 12.5171C127.999 10.6605 125.894 9.41027 123.629 8.91548L123.182 10.9653ZM122.439 9.03785C122.446 9.25763 122.425 9.5105 122.38 9.7165L124.43 10.1643C124.516 9.77179 124.548 9.34456 124.536 8.9706L122.439 9.03785ZM120.612 6.96174C121.448 6.93542 122.397 7.75159 122.439 9.03786L124.536 8.9706C124.465 6.78054 122.778 4.79429 120.546 4.86459L120.612 6.96174ZM118.924 9.14733C118.883 7.86132 119.777 6.98804 120.612 6.96174L120.546 4.86459C118.313 4.9349 116.757 7.02426 116.827 9.21458L118.924 9.14733ZM119.024 9.70677C118.966 9.56641 118.933 9.40572 118.924 9.14733L116.827 9.21458C116.841 9.63455 116.901 10.0647 117.087 10.511L119.024 9.70677ZM113.725 14.3464C114.959 12.7345 116.605 11.6226 118.348 11.1164L117.763 9.10141C115.573 9.73724 113.555 11.117 112.059 13.0704L113.725 14.3464ZM113.909 13.4524L113.909 13.4521L111.875 13.9647L111.875 13.965L113.909 13.4524Z" fill="#505050"/>
<path d="M18.7725 84.2266H103.619V89.1426H18.7725V84.2266Z" fill="#0073E6"/>
<path d="M19.4302 72.4282H104.276V80.2939H19.4302V72.4282Z" fill="#27D1D6"/>
<path d="M41.6755 55.7135C41.6755 60.772 37.5597 64.8789 32.4751 64.8789C27.3905 64.8789 23.2747 60.772 23.2747 55.7135C23.2747 50.655 27.3905 46.5481 32.4751 46.5481C37.5597 46.5481 41.6755 50.655 41.6755 55.7135Z" stroke="#505050" stroke-width="2.09821"/>
<path d="M72.4241 55.7135C72.4241 60.772 68.3083 64.8789 63.2236 64.8789C58.139 64.8789 54.0232 60.772 54.0232 55.7135C54.0232 50.655 58.139 46.5481 63.2236 46.5481C68.3083 46.5481 72.4241 50.655 72.4241 55.7135Z" stroke="#505050" stroke-width="2.09821"/>
<path d="M101.309 55.7135C101.309 60.772 97.1935 64.8789 92.1089 64.8789C87.0243 64.8789 82.9085 60.772 82.9085 55.7135C82.9085 50.655 87.0243 46.5481 92.1089 46.5481C97.1935 46.5481 101.309 50.655 101.309 55.7135Z" stroke="#505050" stroke-width="2.09821"/>
<line x1="42.7246" y1="55.593" x2="52.9741" y2="55.593" stroke="#505050" stroke-width="2.09821"/>
<line x1="73.4731" y1="55.593" x2="83.7227" y2="55.593" stroke="#505050" stroke-width="2.09821"/>
<path d="M105.427 20.7577C106.122 20.7577 106.686 20.1941 106.686 19.4988C106.686 18.8035 106.122 18.2399 105.427 18.2399V20.7577ZM122.526 42.7135C122.526 42.0182 121.962 41.4545 121.267 41.4545C120.572 41.4545 120.008 42.0182 120.008 42.7135H122.526ZM111.196 102.741H12.0714V105.259H111.196V102.741ZM3.25892 93.9289V29.5702H0.741076V93.9289H3.25892ZM12.0714 20.7577H105.427V18.2399H12.0714V20.7577ZM120.008 42.7135V93.9289H122.526V42.7135H120.008ZM12.0714 102.741C7.20441 102.741 3.25892 98.7959 3.25892 93.9289H0.741076C0.741076 100.186 5.81384 105.259 12.0714 105.259V102.741ZM111.196 105.259C117.453 105.259 122.526 100.186 122.526 93.9289H120.008C120.008 98.7959 116.063 102.741 111.196 102.741V105.259ZM3.25892 29.5702C3.25892 24.7032 7.2044 20.7577 12.0714 20.7577V18.2399C5.81383 18.2399 0.741076 23.3126 0.741076 29.5702H3.25892Z" fill="#505050"/>
<path d="M134.012 13.0952C133.329 11.0116 131.935 9.62251 130.077 9.1731" stroke="#505050" stroke-width="1.77246" stroke-linecap="round"/>
<path d="M108.083 13.0952C108.767 11.0116 110.161 9.62251 112.019 9.1731" stroke="#505050" stroke-width="1.77246" stroke-linecap="round"/>
<path d="M137.601 11.4417C136.636 8.50007 134.668 6.539 132.044 5.90454" stroke="#505050" stroke-width="1.77246" stroke-linecap="round"/>
<path d="M104.495 11.4417C105.46 8.50007 107.428 6.539 110.051 5.90454" stroke="#505050" stroke-width="1.77246" stroke-linecap="round"/>
</svg>
