<svg width="48" height="48" viewBox="0 0 48 48" fill="none" xmlns="http://www.w3.org/2000/svg">
<path d="M38.4604 28.789L34.0503 33.1991C33.9528 33.2966 33.8205 33.3514 33.6826 33.3514C33.5447 33.3514 33.4125 33.2966 33.3149 33.1991L31.2415 31.1256C31.144 31.0281 31.0117 30.9733 30.8738 30.9733C30.7359 30.9733 30.6037 31.0281 30.5061 31.1256L28.5976 33.0342C28.5001 33.1316 28.4454 33.2638 28.4453 33.4016C28.4453 33.5395 28.4999 33.6717 28.5973 33.7692L32.7776 37.9567C32.8958 38.0751 33.0362 38.1691 33.1907 38.2332C33.3452 38.2974 33.5109 38.3304 33.6782 38.3305C33.8455 38.3306 34.0112 38.2977 34.1658 38.2337C34.3204 38.1697 34.4608 38.0758 34.5791 37.9575L41.104 31.4326C41.2015 31.3351 41.2562 31.2028 41.2562 31.0649C41.2562 30.927 41.2015 30.7948 41.104 30.6973L39.1958 28.789C39.0982 28.6915 38.966 28.6367 38.8281 28.6367C38.6902 28.6367 38.5579 28.6915 38.4604 28.789V28.789Z" fill="#0073E6"/>
<path d="M38.5434 25.663V7.3264C38.5425 6.57429 38.2434 5.85322 37.7116 5.32135C37.1799 4.78947 36.4588 4.49023 35.7067 4.48926H28.4883" stroke="#505050" stroke-linecap="round" stroke-linejoin="round"/>
<path d="M16.9219 4.48926H9.70381C8.9517 4.49023 8.23068 4.78947 7.69891 5.32135C7.16713 5.85322 6.86802 6.57429 6.86719 7.3264L6.8673 12.9113V42.9016C6.86858 44.0234 7.31477 45.0988 8.10797 45.892C8.90116 46.6852 9.97661 47.1314 11.0984 47.1327H34.3123C35.434 47.1314 36.5095 46.6852 37.3027 45.892C38.0959 45.0988 38.5421 44.0234 38.5434 42.9016V37.8072" stroke="#505050" stroke-linecap="round" stroke-linejoin="round"/>
<path d="M27.349 2.70726H25.3337V2.29105C25.3337 1.91341 25.1837 1.55124 24.9167 1.28422C24.6496 1.01719 24.2874 0.867181 23.9098 0.867188H21.4973C21.1204 0.867188 20.759 1.01689 20.4925 1.28336C20.226 1.54984 20.0763 1.91125 20.0763 2.2881L20.0763 2.70726H18.061C17.7591 2.70816 17.4699 2.82845 17.2565 3.04188C17.0431 3.25531 16.9228 3.54453 16.9219 3.84637V7.35129C16.9228 7.65313 17.0431 7.94235 17.2565 8.15578C17.4699 8.36921 17.7591 8.48951 18.061 8.4904H27.349C27.6509 8.48951 27.9401 8.36921 28.1535 8.15578C28.3669 7.94235 28.4872 7.65313 28.4881 7.35129V3.84637C28.4873 3.54453 28.367 3.25531 28.1535 3.04187C27.9401 2.82844 27.6509 2.70814 27.349 2.70726Z" stroke="#505050" stroke-linecap="round" stroke-linejoin="round"/>
<path d="M35.9149 40.3369V42.9007C35.9149 43.1111 35.8735 43.3195 35.793 43.5139C35.7124 43.7083 35.5944 43.8849 35.4456 44.0337C35.2968 44.1825 35.1201 44.3006 34.9257 44.3811C34.7313 44.4616 34.5229 44.5031 34.3125 44.5031H11.0985C10.8881 44.5031 10.6797 44.4616 10.4853 44.3811C10.2909 44.3006 10.1143 44.1825 9.96545 44.0337C9.81665 43.8849 9.69861 43.7083 9.61808 43.5139C9.53755 43.3195 9.4961 43.1111 9.49609 42.9007V12.9106C9.49612 12.4856 9.66495 12.078 9.96545 11.7775L14.1565 7.58649C14.457 7.28599 14.8646 7.11718 15.2896 7.11719H16.9221" stroke="#505050" stroke-linecap="round" stroke-linejoin="round"/>
<path d="M28.4883 7.11719H35.7064C35.7337 7.11718 35.7608 7.12257 35.7861 7.13303C35.8113 7.14349 35.8343 7.15882 35.8536 7.17815C35.873 7.19749 35.8883 7.22044 35.8988 7.2457C35.9092 7.27096 35.9146 7.29804 35.9146 7.32538V27.3969" stroke="#505050" stroke-linecap="round" stroke-linejoin="round"/>
<rect x="13" y="14" width="10" height="3" fill="#27D1D6"/>
<rect x="13" y="30" width="3" height="3" fill="#27D1D6"/>
<rect x="13" y="35" width="3" height="3" fill="#27D1D6"/>
<rect x="13" y="21" width="10" height="3" fill="#27D1D6"/>
<rect x="13" y="18" width="19" height="1" fill="#0073E6"/>
<rect x="13" y="25" width="19" height="1" fill="#0073E6"/>
<rect x="17" y="32" width="7" height="1" fill="#0073E6"/>
<rect x="17" y="37" width="7" height="1" fill="#0073E6"/>
</svg>
