<svg width="340" height="211" viewBox="0 0 340 211" fill="none" xmlns="http://www.w3.org/2000/svg">
<path fill-rule="evenodd" clip-rule="evenodd" d="M329.519 190.719C329.52 190.545 329.52 190.371 329.52 190.197C329.52 99.2021 255.755 25.4365 164.76 25.4365C73.7656 25.4365 0 99.2021 0 190.197C0 190.371 0.000270841 190.545 0.000812126 190.719H329.519Z" fill="#F0F6FC"/>
<path d="M97.8186 189.041L100.256 159.28L102.702 129.516L77.1788 145.043L51.6599 160.552L72.8713 165.8L61.6006 184.045L72.3709 190.699L83.6334 172.457L97.8186 189.041Z" fill="#4B82E9"/>
<path d="M100.252 159.261L102.698 129.497L101.843 130.014L66.5923 187.11L72.3608 190.656L83.6232 172.414L97.8181 189.039L100.252 159.261Z" fill="#88B2F8"/>
<path d="M151.464 40.4678C159.126 40.4678 165.338 34.256 165.338 26.5933C165.338 18.9306 159.126 12.7188 151.464 12.7188C143.801 12.7188 137.589 18.9306 137.589 26.5933C137.589 34.256 143.801 40.4678 151.464 40.4678Z" fill="#7EB3FF"/>
<path d="M161.87 202.337C169.532 202.337 175.744 196.125 175.744 188.462C175.744 180.8 169.532 174.588 161.87 174.588C154.207 174.588 147.995 180.8 147.995 188.462C147.995 196.125 154.207 202.337 161.87 202.337Z" fill="#7EB3FF"/>
<path d="M263.616 206.962C271.279 206.962 277.491 200.75 277.491 193.087C277.491 185.425 271.279 179.213 263.616 179.213C255.953 179.213 249.742 185.425 249.742 193.087C249.742 200.75 255.953 206.962 263.616 206.962Z" fill="#7EB3FF"/>
<path d="M258.991 31.2178C266.654 31.2178 272.866 25.006 272.866 17.3433C272.866 9.68059 266.654 3.46875 258.991 3.46875C251.329 3.46875 245.117 9.68059 245.117 17.3433C245.117 25.006 251.329 31.2178 258.991 31.2178Z" fill="#7EB3FF"/>
<path d="M197.713 94.8096H151.463C149.548 94.8096 147.995 93.2569 147.995 91.3411V40.4675C147.995 38.5516 149.548 36.999 151.463 36.999C153.379 36.999 154.932 38.5516 154.932 40.4675V87.8722H197.712C199.628 87.8722 201.181 89.4248 201.181 91.3406C201.181 93.2565 199.628 94.8096 197.713 94.8096Z" fill="#4B82E9"/>
<path d="M151.464 43.9363C161.027 43.9363 168.807 36.1563 168.807 26.5932C168.807 17.03 161.027 9.25 151.464 9.25C141.9 9.25 134.12 17.03 134.12 26.5932C134.12 36.1563 141.9 43.9363 151.464 43.9363ZM151.464 16.1874C157.202 16.1874 161.869 20.8557 161.869 26.5932C161.869 32.3306 157.202 36.999 151.464 36.999C145.726 36.999 141.058 32.3306 141.058 26.5932C141.058 20.8557 145.726 16.1874 151.464 16.1874Z" fill="#4B82E9"/>
<path d="M203.493 113.309C205.409 113.309 206.961 111.756 206.961 109.84V20.812H241.997C243.608 28.7187 250.615 34.6867 258.991 34.6867C268.554 34.6867 276.334 26.9068 276.334 17.3436C276.334 7.78044 268.555 0 258.992 0C250.616 0 243.609 5.968 241.997 13.8747H203.493C201.577 13.8747 200.024 15.4273 200.024 17.3431V109.84C200.024 111.756 201.577 113.309 203.493 113.309ZM258.992 6.93735C264.729 6.93735 269.397 11.6057 269.397 17.3431C269.397 23.0806 264.729 27.7489 258.992 27.7489C253.254 27.7489 248.586 23.0806 248.586 17.3431C248.586 11.6057 253.253 6.93735 258.992 6.93735Z" fill="#4B82E9"/>
<path d="M221.993 157.245C220.077 157.245 218.524 158.798 218.524 160.714V184.994H178.864C177.253 177.087 170.245 171.119 161.87 171.119C152.306 171.119 144.526 178.899 144.526 188.463C144.526 198.026 152.306 205.806 161.87 205.806C170.245 205.806 177.253 199.838 178.864 191.931H221.993C223.909 191.931 225.461 190.379 225.461 188.463V160.714C225.462 158.798 223.909 157.245 221.993 157.245ZM161.87 198.869C156.132 198.869 151.464 194.201 151.464 188.463C151.464 182.725 156.132 178.057 161.87 178.057C167.608 178.057 172.275 182.726 172.275 188.463C172.275 194.201 167.608 198.869 161.87 198.869Z" fill="#4B82E9"/>
<path d="M309.865 129.496H282.115C280.2 129.496 278.647 131.049 278.647 132.965C278.647 134.88 280.2 136.433 282.115 136.433H306.396V189.619H280.61C278.999 181.712 271.992 175.744 263.616 175.744C254.053 175.744 246.273 183.524 246.273 193.087C246.273 202.65 254.053 210.431 263.616 210.431C271.991 210.431 278.999 204.463 280.61 196.556H309.865C311.78 196.556 313.333 195.004 313.333 193.088V132.965C313.334 131.049 311.78 129.496 309.865 129.496ZM263.616 203.493C257.878 203.493 253.21 198.825 253.21 193.088C253.21 187.35 257.878 182.682 263.616 182.682C269.354 182.682 274.022 187.35 274.022 193.088C274.022 198.825 269.354 203.493 263.616 203.493Z" fill="#4B82E9"/>
<path d="M153.776 132.965C153.776 134.881 155.329 136.433 157.244 136.433H198.868C200.784 136.433 202.337 134.881 202.337 132.965C202.337 131.049 200.784 129.496 198.868 129.496H157.244C155.329 129.496 153.776 131.049 153.776 132.965Z" fill="#4B82E9"/>
<path d="M332.989 115.621H286.74C284.824 115.621 283.272 117.174 283.272 119.09C283.272 121.006 284.825 122.558 286.74 122.558H332.989C334.905 122.558 336.457 121.006 336.457 119.09C336.457 117.174 334.904 115.621 332.989 115.621Z" fill="#4B82E9"/>
<path d="M281.802 105.464V88.431C281.802 76.888 291.159 67.5307 302.702 67.5307C314.245 67.5307 323.602 76.888 323.602 88.431V105.464H340V87.0152C340 66.4163 323.301 49.7178 302.703 49.7178C282.104 49.7178 265.405 66.4163 265.405 87.0152V105.464H281.802Z" fill="#FFCC00"/>
<path d="M278.666 166.134H201.622C194.059 166.134 187.927 160.002 187.927 152.439V105.463H292.36V152.439C292.361 160.002 286.229 166.134 278.666 166.134Z" fill="#D98F00"/>
<path opacity="0.49" d="M281.92 105.215V142.363C281.92 150.086 275.717 156.348 268.065 156.348H191.265C190.305 156.348 189.367 156.249 188.462 156.061C190.019 162.064 195.43 166.494 201.866 166.494H278.666C286.318 166.494 292.521 160.233 292.521 152.51V105.215H281.92Z" fill="#FFCC00"/>
<path d="M240.144 146.726C238.229 146.726 236.676 145.173 236.676 143.258V128.339C236.676 126.423 238.229 124.87 240.144 124.87C242.06 124.87 243.613 126.423 243.613 128.339V143.258C243.613 145.173 242.06 146.726 240.144 146.726Z" fill="#EAF4FE"/>
<path d="M111.922 97.2217H116.78V109.814H111.922V97.2217Z" fill="#0066CC"/>
<path d="M132.097 121.299L143.096 115.012L140.667 110.866L129.668 117.144L132.097 121.299Z" fill="#0066CC"/>
<path d="M132.097 136.032L143.096 142.338L140.667 146.493L129.668 140.187L132.097 136.032Z" fill="#0066CC"/>
<path d="M111.922 147.557H116.78V160.122H111.922V147.557Z" fill="#0066CC"/>
<path d="M87.9887 110.866L98.9882 117.153L96.5591 121.317L85.5596 115.021L87.9887 110.866Z" fill="#0066CC"/>
</svg>
