<svg width="175" height="48" viewBox="0 0 175 48" fill="none" xmlns="http://www.w3.org/2000/svg">
<path opacity="0.3" fill-rule="evenodd" clip-rule="evenodd" d="M5.4976 3.43945V7.74665C8.4896 5.07065 12.4684 3.43945 16.836 3.43945C22.7292 3.43945 27.9156 6.41025 30.9232 10.9083C29.1852 13.5071 28.1744 16.6155 28.1744 19.9555C28.1744 13.8123 23.098 8.83225 16.836 8.83225C10.574 8.83225 5.4976 13.8127 5.4976 19.9555C5.4976 26.0983 10.5736 31.0787 16.836 31.0787C23.098 31.0787 28.1744 26.0987 28.1744 19.9555C28.1744 23.2955 29.1852 26.4043 30.9224 29.0031C27.916 33.5007 22.7296 36.4719 16.836 36.4719C12.468 36.4719 8.4892 34.8403 5.4972 32.1647V45.9095H0V3.43945H5.4976ZM169.049 36.4715H174.546V3.43985H169.049V7.74705C166.057 5.07105 162.077 3.43985 157.709 3.43985C151.817 3.43985 146.63 6.41065 143.623 10.9087C145.36 13.5075 146.371 16.6159 146.371 19.9559C146.371 23.2959 145.36 26.4047 143.622 29.0035C146.63 33.5015 151.817 36.4723 157.709 36.4723C162.077 36.4723 166.057 34.8407 169.049 32.1651V36.4723V36.4715ZM146.371 19.9555C146.371 13.8123 151.447 8.83225 157.709 8.83225C163.971 8.83225 169.049 13.8123 169.049 19.9555C169.049 26.0987 163.971 31.0787 157.709 31.0787C151.447 31.0787 146.371 26.0987 146.371 19.9555Z" fill="#00B2C2"/>
<path opacity="0.6" fill-rule="evenodd" clip-rule="evenodd" d="M61.8439 7.76185V3.43945H56.3463V7.74665C53.3543 5.07065 49.3755 3.43945 45.0079 3.43945C35.7099 3.43945 28.1719 10.8339 28.1719 19.9555C28.1719 29.0771 35.7099 36.4715 45.0079 36.4715C49.3755 36.4715 53.3543 34.8403 56.3463 32.1647V36.4719H61.8439V32.2299C58.4659 29.2031 56.3463 24.8427 56.3463 19.9959C56.3463 15.1491 58.4663 10.7887 61.8439 7.76185ZM33.6695 19.9555C33.6695 13.8123 38.7459 8.83225 45.0079 8.83225C51.2699 8.83225 56.3463 13.8123 56.3463 19.9555C56.3463 26.0987 51.2703 31.0787 45.0079 31.0787C38.7459 31.0787 33.6695 26.0987 33.6695 19.9555ZM118.193 3.43945L118.194 7.74585C121.186 5.07065 125.165 3.43945 129.532 3.43945C138.831 3.43945 146.368 10.8339 146.368 19.9555C146.368 29.0771 138.831 36.4715 129.532 36.4715C125.165 36.4715 121.186 34.8407 118.194 32.1655L118.194 45.9095H112.696V32.1647C116.074 29.1443 118.194 24.7927 118.194 19.9555C118.194 26.0987 123.27 31.0787 129.532 31.0787C135.794 31.0787 140.871 26.0987 140.871 19.9555C140.871 13.8123 135.795 8.83225 129.532 8.83225C123.27 8.83225 118.194 13.8123 118.194 19.9555C118.194 15.1187 116.074 10.7675 112.696 7.74625V3.43945H118.194H118.193Z" fill="#00B2C2"/>
<path fill-rule="evenodd" clip-rule="evenodd" d="M90.0197 0.0683594V7.74516L90.2509 7.54276C93.2153 4.98796 97.1025 3.43876 101.358 3.43876C110.656 3.43876 118.194 10.8336 118.194 19.9552C118.194 29.0768 110.656 36.4712 101.358 36.4712C96.9909 36.4712 93.0117 34.84 90.0197 32.1644V36.5452C90.0197 40.7516 88.3045 44.7052 85.2945 47.7132L85.0721 47.9316L81.2237 44.0728C83.2685 42.102 84.4449 39.544 84.5185 36.8184L84.5225 36.5452V32.2292C81.5305 34.9104 77.5513 36.5452 73.1837 36.5452C63.8853 36.5452 56.3477 29.1356 56.3477 19.9956C56.3477 10.8556 63.8853 3.44596 73.1837 3.44596C77.5513 3.44596 81.5305 5.08076 84.5225 7.76196V0.0683594H90.0197ZM73.1837 8.84996C66.9213 8.84996 61.8449 13.84 61.8449 19.9956C61.8449 26.1512 66.9213 31.1412 73.1837 31.1412C79.4457 31.1412 84.5221 26.1512 84.5221 19.9956C84.5221 13.8396 79.4457 8.84996 73.1837 8.84996ZM90.0197 19.9552C90.0197 13.812 95.0961 8.83196 101.358 8.83196C107.62 8.83196 112.697 13.812 112.697 19.9552C112.697 26.0984 107.62 31.0784 101.358 31.0784C95.0961 31.0784 90.0197 26.0984 90.0197 19.9552Z" fill="#00B2C2"/>
</svg>
