<svg width="180" height="180" viewBox="0 0 180 180" fill="none" xmlns="http://www.w3.org/2000/svg">
<circle cx="90" cy="90" r="90" fill="#F0F6FC"/>
<path d="M29.6235 152.691C28.4432 152.689 27.3116 152.222 26.4771 151.39C25.6426 150.559 25.1732 149.432 25.1719 148.257V65.9808C25.173 64.8054 25.6423 63.6785 26.4769 62.8473C27.3115 62.016 28.4431 61.5484 29.6235 61.5469H150.373C151.553 61.5483 152.685 62.0159 153.519 62.8472C154.353 63.6786 154.822 64.8055 154.823 65.9808V148.257C154.822 149.432 154.353 150.559 153.519 151.39C152.685 152.222 151.553 152.689 150.373 152.691H29.6235Z" fill="#EAF4FE"/>
<path d="M154.408 148.258C154.409 149.323 153.984 150.345 153.228 151.099C152.472 151.853 151.446 152.277 150.376 152.277H29.6261C29.0961 152.277 28.5712 152.173 28.0814 151.971C27.5917 151.769 27.1467 151.473 26.7719 151.1C26.3971 150.727 26.0998 150.284 25.8969 149.796C25.6941 149.308 25.5898 148.786 25.5898 148.258V65.9816C25.5896 65.4538 25.6938 64.9311 25.8966 64.4434C26.0994 63.9557 26.3967 63.5125 26.7715 63.1393C27.1464 62.7661 27.5914 62.4701 28.0812 62.2682C28.5711 62.0664 29.096 61.9626 29.6261 61.9629H150.376C150.905 61.9629 151.43 62.067 151.92 62.269C152.409 62.471 152.854 62.7671 153.228 63.1403C153.603 63.5135 153.9 63.9565 154.102 64.444C154.305 64.9315 154.409 65.454 154.408 65.9816V148.258Z" fill="#0058B0"/>
<path d="M148.093 67.7266H31.9062V141.567H148.093V67.7266Z" fill="#003C77"/>
<path d="M89.8559 64.758C89.8566 64.8292 89.8431 64.8999 89.8163 64.9659C89.7894 65.0319 89.7496 65.092 89.6993 65.1426C89.649 65.1933 89.5891 65.2334 89.5231 65.2609C89.457 65.2883 89.3862 65.3024 89.3147 65.3024C89.2431 65.3024 89.1723 65.2883 89.1063 65.2609C89.0403 65.2334 88.9803 65.1933 88.93 65.1426C88.8797 65.092 88.8399 65.0319 88.8131 64.9659C88.7862 64.8999 88.7727 64.8292 88.7735 64.758C88.7749 64.6161 88.8326 64.4804 88.9339 64.3805C89.0353 64.2806 89.1721 64.2246 89.3147 64.2246C89.4572 64.2246 89.5941 64.2806 89.6954 64.3805C89.7967 64.4804 89.8544 64.6161 89.8559 64.758Z" fill="#C5E1F9"/>
<path d="M130.284 67.7277L132.528 61.9629H114.041L111.797 67.7277H130.284Z" fill="#0561FC"/>
<path d="M41.5132 141.568L37.3438 152.277H55.8326L60.0004 141.568H41.5132Z" fill="#0561FC"/>
<path d="M142.167 67.7277L144.414 61.9629H138.47L136.227 67.7277H142.167Z" fill="#0561FC"/>
<path d="M65.9418 141.568L61.7734 152.277H67.7157L71.8834 141.568H65.9418Z" fill="#0561FC"/>
<path d="M176.538 147.727H3.46094V152.768H176.538V147.727Z" fill="#C5E1F9"/>
<path d="M3.71094 152.308C5.75725 154.463 9.51967 155.31 12.1154 155.31H167.876C170.473 155.31 174.238 154.463 176.283 152.308H3.71094Z" fill="#9AC7F7"/>
<path d="M78.2422 147.727V148.266C78.242 148.503 78.2885 148.737 78.3792 148.956C78.47 149.174 78.603 149.373 78.7708 149.54C78.9387 149.708 79.138 149.841 79.3574 149.931C79.5768 150.022 79.8119 150.069 80.0495 150.069H99.9478C100.185 150.069 100.421 150.022 100.64 149.932C100.86 149.841 101.059 149.708 101.227 149.541C101.395 149.373 101.528 149.175 101.619 148.956C101.71 148.737 101.757 148.503 101.756 148.266V147.727H78.2422Z" fill="#9AC7F7"/>
<mask id="mask0_4477_209472" style="mask-type:alpha" maskUnits="userSpaceOnUse" x="31" y="16" width="127" height="126">
<path d="M31.9297 65.0094L31.9311 141.577H143.76L157.498 16.4678L68.6579 40.2807L31.9297 65.0094Z" fill="#C4C4C4"/>
</mask>
<g mask="url(#mask0_4477_209472)">
<path d="M20.2791 89.6318L156.775 18.7734L52.1833 89.8893L20.2791 89.6318Z" fill="#C5E1F9"/>
<path d="M64.9078 116.168L156.778 18.7722L52.1863 89.8881L64.9078 116.168Z" fill="#9AC7F7"/>
<path d="M20.6321 89.5187L82.8316 69.0722L53.699 88.9358L20.6321 89.5187Z" fill="#6797DC"/>
<path d="M20.2843 89.631L81.3199 70.0234L52.1886 89.8885L20.2843 89.631Z" fill="#7EB3FF"/>
<path d="M64.9054 116.171L86.6789 91.8837L82.8302 69.072L52.1839 89.8914L64.9054 116.171Z" fill="#9AC7F7"/>
<path d="M82.7734 44.1357L90.2552 43.7434C97.6093 43.3583 104.572 50.2005 106.654 60.5506C109.023 72.3752 104.117 84.3034 95.6866 87.188L88.2083 87.5785C96.6393 84.6927 101.546 72.7671 99.1689 60.9401C97.0921 50.592 90.1284 43.7495 82.7734 44.1357Z" fill="#FFC910"/>
<path d="M92.5295 87.8109L85.0495 88.2007C86.127 88.1425 87.1912 87.9344 88.2113 87.5824L95.6895 87.1919C94.67 87.5437 93.6064 87.7521 92.5295 87.8109Z" fill="#FFC910"/>
<path d="M82.7744 44.1368L90.2561 43.7445C89.1777 43.8029 88.1125 44.0103 87.0909 44.3608L79.6131 44.7555C80.6328 44.4024 81.6969 44.1942 82.7744 44.1368Z" fill="#FFAB01"/>
<path d="M92.5304 87.8087L85.0504 88.1985C77.6939 88.583 70.7302 81.7406 68.6566 71.3951C66.2813 59.568 71.1853 47.6407 79.6161 44.7561L87.0939 44.3613C78.6662 47.2494 73.7576 59.1745 76.1341 71.0019C78.2084 81.3504 85.1717 88.1912 92.5304 87.8087Z" fill="#FFAB01"/>
<path d="M92.7665 92.376L85.2864 92.7668C76.4059 93.2299 67.9987 84.9732 65.4922 72.4798C62.6239 58.2013 68.549 43.8043 78.7263 40.3201L86.2048 39.9284C76.0303 43.4144 70.1048 57.8101 72.9719 72.0883C75.4797 84.5813 83.8852 92.8408 92.7665 92.376Z" fill="#F99B0F"/>
<path d="M86.2038 39.9246C96.3783 36.4386 106.951 45.1894 109.814 59.4656C112.682 73.7425 106.76 88.1415 96.585 91.6262C86.4108 95.1109 75.8337 86.3619 72.9709 72.0845C70.1039 57.8063 76.0293 43.4106 86.2038 39.9246ZM95.6904 87.1883C104.121 84.3037 109.027 72.3755 106.658 60.5509C104.279 48.7243 95.5208 41.4752 87.0938 44.36C78.6662 47.248 73.7576 59.1731 76.1341 71.0005C78.5063 82.8273 87.2658 90.0745 95.6904 87.1883Z" fill="#FFC910"/>
<path d="M87.093 44.3623C95.52 41.4775 104.278 48.7251 106.657 60.5517C109.026 72.3778 104.12 84.3061 95.6896 87.1907C87.265 90.0768 78.5055 82.8296 76.1333 71.0028C73.7568 59.1755 78.6654 47.2504 87.093 44.3623Z" fill="#FFAB01"/>
<path d="M82.5381 39.5713C85.0298 39.4405 87.5236 39.3105 90.0193 39.1813C88.7174 39.249 87.4315 39.4997 86.1995 39.9261L78.7211 40.3178C79.9523 39.892 81.2371 39.6407 82.5381 39.5713Z" fill="#EE8F01"/>
<path d="M87.0889 44.3631C85.6537 44.8666 84.3158 45.6131 83.1335 46.5699C84.1937 45.7844 85.367 45.1644 86.6133 44.7311C95.0416 41.846 103.801 49.0915 106.175 60.9187C108.144 70.7435 105.088 80.6312 99.1649 85.3541C105.398 80.792 108.676 70.6399 106.653 60.5525C104.274 48.7259 95.5158 41.4782 87.0889 44.3631Z" fill="#F99B0F"/>
<path d="M85.2862 92.7652L92.7663 92.3744C88.4291 92.6013 84.2064 90.7421 80.7263 87.3296L73.7183 88.1738C77.1076 91.3003 81.1412 92.9803 85.2862 92.7652Z" fill="#EE8F01"/>
<path d="M82.1002 64.1804L83.8728 63.7215C83.6553 62.4463 83.596 61.1492 83.696 59.8595C83.7767 58.7138 84.0302 57.5868 84.4478 56.5169C84.8185 55.5628 85.3955 54.7025 86.1375 53.9974C87.2037 53.0474 88.5529 52.4747 89.977 52.3679C91.401 52.2611 92.8206 52.6261 94.0165 53.4065C95.5429 54.4691 96.7426 56.263 97.6157 58.7884L94.4049 59.6196C94.0483 58.4383 93.3567 57.3857 92.4138 56.5896C92.0354 56.2935 91.5923 56.0913 91.1207 55.9994C90.6492 55.9076 90.1626 55.9287 89.7008 56.061C89.1422 56.1905 88.6296 56.4702 88.2185 56.8699C87.8074 57.2695 87.5133 57.774 87.3681 58.3287C86.9841 59.8067 86.9397 61.3525 87.2383 62.8502L92.529 61.4805L92.7748 63.6962L87.714 65.0063L88.3113 67.3135L93.0376 66.09L93.3084 68.2992L88.9416 69.4296C89.3837 70.8538 90.1697 72.1472 91.2303 73.1955C91.6422 73.5784 92.1468 73.8474 92.6944 73.9757C93.242 74.104 93.8136 74.0873 94.3528 73.9272C96.4933 73.3731 97.3106 71.4123 96.8046 68.0448L99.9904 67.2201C100.447 69.9732 100.272 72.2438 99.4654 74.0319C98.8243 75.3492 97.7593 76.4129 96.4414 77.0526C95.1234 77.6923 93.6288 77.8709 92.1973 77.5596C91.2229 77.3165 90.3119 76.8675 89.5256 76.2429C88.6501 75.5428 87.8923 74.707 87.281 73.7673C86.5729 72.686 86.0004 71.5218 85.5761 70.3009L83.8035 70.7598L83.2505 68.6237L84.9458 68.1848L84.3485 65.8776L82.6532 66.3165L82.1002 64.1804Z" fill="#F99B0F"/>
<path d="M82.8931 63.8816L84.6658 63.4227C84.4483 62.1475 84.3889 60.8504 84.489 59.5607C84.5697 58.4149 84.8231 57.288 85.2407 56.218C85.6115 55.264 86.1885 54.4037 86.9305 53.6986C87.9966 52.7485 89.3459 52.1759 90.7699 52.0691C92.194 51.9623 93.6136 52.3273 94.8095 53.1077C96.3358 54.1702 97.5356 55.9642 98.4087 58.4896L95.1979 59.3208C94.8413 58.1394 94.1496 57.0869 93.2067 56.2907C92.8284 55.9947 92.3853 55.7925 91.9137 55.7006C91.4422 55.6087 90.9555 55.6298 90.4937 55.7622C89.9351 55.8916 89.4226 56.1713 89.0115 56.571C88.6003 56.9707 88.3063 57.4752 88.1611 58.0299C87.7771 59.5079 87.7327 61.0537 88.0313 62.5514L93.322 61.1817L93.5677 63.3973L88.5069 64.7075L89.1042 67.0148L93.8306 65.7912L94.1014 68.0004L89.7346 69.1309C90.1767 70.555 90.9627 71.8484 92.0232 72.8967C92.4351 73.2797 92.9398 73.5486 93.4874 73.6769C94.035 73.8052 94.6066 73.7885 95.1458 73.6284C97.2863 73.0743 98.1036 71.1135 97.5976 67.746L100.783 66.9213C101.24 69.6744 101.065 71.945 100.258 73.7331C99.6172 75.0504 98.5523 76.1141 97.2343 76.7538C95.9164 77.3935 94.4218 77.5721 92.9902 77.2608C92.0159 77.0177 91.1049 76.5687 90.3185 75.9442C89.443 75.244 88.6853 74.4082 88.0739 73.4685C87.3659 72.3872 86.7934 71.223 86.3691 70.0021L84.5965 70.461L84.0435 68.3249L85.7388 67.886L85.1415 65.5788L83.4462 66.0177L82.8931 63.8816Z" fill="#FFC910"/>
<path d="M64.9078 116.167L156.777 18.7714L75.7102 93.3728L64.9078 116.167Z" fill="#7EB3FF"/>
<path d="M123.434 122.015L156.777 18.7717L75.7101 93.373L123.434 122.015Z" fill="#C5E1F9"/>
<path d="M123.433 122.019L95.51 75.3348L76.4405 92.6341L123.433 122.019Z" fill="#4888E6"/>
<path d="M123.434 122.019L94.7779 76.0772L75.7101 93.3768L123.434 122.019Z" fill="#559BFF"/>
<path d="M59.9296 123.282L31.4181 151.73" stroke="#C5E1F9" stroke-miterlimit="10"/>
<path d="M99.6981 115.03L71.1875 143.477" stroke="#C5E1F9" stroke-miterlimit="10"/>
<path d="M56.4244 109.726L27.9238 138.158" stroke="#C5E1F9" stroke-miterlimit="10"/>
</g>
</svg>
