<svg width="329" height="329" viewBox="0 0 329 329" fill="none" xmlns="http://www.w3.org/2000/svg">
<circle cx="164.5" cy="164.5" r="164.5" fill="#FFBF00"/>
<path d="M97.8534 169.654V159.748H99.4586V169.654H97.8534ZM102.46 169.654V159.748H105.251L107.464 167.485L109.676 159.748H112.482V169.654H110.862V161.527H110.645L108.303 169.249H106.625L104.282 161.527H104.065V169.654H102.46ZM115.47 169.654V159.748H118.261L120.474 167.485L122.686 159.748H125.492V169.654H123.872V161.527H123.655L121.312 169.249H119.635L117.292 161.527H117.075V169.654H115.47ZM127.626 169.654L130.07 159.748H133.266L135.725 169.654H134.105L133.57 167.528H129.767L129.232 169.654H127.626ZM131.314 161.093L130.085 166.111H133.252L132.037 161.093H131.314ZM141.739 165.865V164.448H144.559V169.481C144.299 169.548 143.769 169.621 142.969 169.698C142.178 169.775 141.604 169.813 141.248 169.813C139.744 169.813 138.707 169.399 138.138 168.57C137.57 167.741 137.285 166.444 137.285 164.68C137.285 162.906 137.574 161.614 138.153 160.804C138.741 159.994 139.753 159.589 141.19 159.589C142.038 159.589 142.993 159.685 144.053 159.878L144.559 159.98L144.501 161.252C143.335 161.098 142.289 161.021 141.363 161.021C140.438 161.021 139.801 161.281 139.454 161.802C139.117 162.322 138.948 163.286 138.948 164.694C138.948 166.102 139.107 167.075 139.425 167.615C139.753 168.145 140.409 168.411 141.392 168.411C142.096 168.411 142.621 168.367 142.969 168.28V165.865H141.739ZM147.297 169.654V159.748H148.902V169.654H147.297ZM151.903 169.654V159.748H154.709L157.717 168.237H157.934V159.748H159.539V169.654H156.791L153.711 161.151H153.509V169.654H151.903ZM162.541 169.654V159.748H168.788V161.151H164.146V163.956H167.92V165.345H164.146V168.237H168.788V169.654H162.541ZM178.585 169.654H175.158V159.748H178.585C180.108 159.748 181.15 160.134 181.709 160.905C182.268 161.676 182.548 162.886 182.548 164.535C182.548 165.374 182.49 166.087 182.374 166.675C182.268 167.254 182.075 167.779 181.796 168.252C181.246 169.187 180.176 169.654 178.585 169.654ZM180.884 164.535C180.884 163.339 180.735 162.477 180.436 161.946C180.137 161.416 179.52 161.151 178.585 161.151H176.763V168.237H178.585C179.54 168.237 180.176 167.885 180.494 167.181C180.648 166.825 180.749 166.444 180.798 166.039C180.856 165.634 180.884 165.133 180.884 164.535ZM184.122 169.654L186.566 159.748H189.762L192.221 169.654H190.601L190.066 167.528H186.263L185.728 169.654H184.122ZM187.81 161.093L186.581 166.111H189.748L188.533 161.093H187.81ZM198.257 169.654V159.748H204.403V161.151H199.862V164.492H203.636V165.894H199.862V169.654H198.257ZM205.4 169.654L207.844 159.748H211.04L213.498 169.654H211.878L211.343 167.528H207.54L207.005 169.654H205.4ZM209.087 161.093L207.858 166.111H211.025L209.81 161.093H209.087ZM217.238 166.126V169.654H215.633V159.748H219.393C221.63 159.748 222.748 160.799 222.748 162.901C222.748 164.308 222.208 165.263 221.128 165.764L222.763 169.654H220.998L219.567 166.126H217.238ZM221.099 162.915C221.099 161.729 220.531 161.136 219.393 161.136H217.238V164.737H219.422C220 164.737 220.425 164.573 220.695 164.246C220.965 163.908 221.099 163.465 221.099 162.915ZM225.296 169.654V159.748H231.543V161.151H226.901V163.956H230.675V165.345H226.901V168.237H231.543V169.654H225.296Z" fill="#33485C"/>
</svg>
