<svg width="347" height="272" viewBox="0 0 347 272" fill="none" xmlns="http://www.w3.org/2000/svg">
<path d="M346.099 195.941V43.2805C346.099 41.4188 345.388 39.5571 343.966 38.1608C342.544 36.7645 340.647 36.0664 338.751 36.0664H86.3242C84.428 36.0664 82.5319 36.7645 81.1097 38.1608C79.6876 39.5571 78.9766 41.4188 78.9766 43.2805V195.941H346.099Z" fill="#0058B0"/>
<path d="M78.498 196.404V218.512C78.498 220.607 79.4461 222.468 80.8683 223.865C82.2904 225.261 84.4236 226.192 86.3197 226.192H338.747C340.88 226.192 342.776 225.494 344.198 223.865C345.62 222.468 346.568 220.374 346.568 218.512V196.404H78.498Z" fill="#C5E1F9"/>
<path d="M258.88 258.541C258.88 258.541 256.984 257.61 254.614 256.679C252.243 255.748 249.399 254.585 247.74 253.887C244.896 252.49 244.422 251.56 243.474 246.905C242.289 241.786 241.103 230.848 240.629 225.961H184.692C184.218 230.848 183.033 241.786 181.848 246.905C180.663 251.56 180.426 252.49 177.582 253.887C175.923 254.585 173.078 255.748 170.708 256.679C168.338 257.61 166.679 258.076 166.679 258.076C166.679 258.076 164.783 259.006 167.864 259.239H257.695C260.302 259.472 258.88 258.541 258.88 258.541Z" fill="#C5E1F9"/>
<path d="M241.1 231.779C240.863 229.452 240.626 227.357 240.389 225.961H184.689C184.452 227.357 184.452 229.452 184.215 231.779H241.1Z" fill="#9AC7F7"/>
<path d="M127.094 195.941H182.794L284.476 36.0664H228.539L127.094 195.941Z" fill="#1F62B2"/>
<path d="M198.438 195.941H218.821L320.503 36.0664H300.119L198.438 195.941Z" fill="#1F62B2"/>
<path d="M333.778 47.9316H91.543V181.975H333.778V47.9316Z" fill="#C5E1F9"/>
<path d="M334.015 65.8555H217.164V162.199H334.015V65.8555Z" fill="#EAF4FE"/>
<path d="M334.015 65.8555H217.164V74.9312H334.015V65.8555Z" fill="#0058B0"/>
<path d="M334.02 68.4141H265.047V72.3701H334.02V68.4141Z" fill="white"/>
<path d="M224.271 70.5084C224.271 70.9739 224.271 71.2066 224.034 71.4393C223.797 71.672 223.56 71.9047 223.086 72.1374C222.612 72.3701 222.375 72.3701 221.901 72.1374C221.427 72.1374 221.19 71.9047 220.953 71.672C220.716 71.4393 220.479 70.9739 220.479 70.7411C220.479 70.2757 220.479 70.043 220.479 69.5776C220.716 69.3449 220.953 68.8795 221.19 68.6468C221.427 68.4141 221.901 68.4141 222.138 68.4141C222.612 68.4141 223.086 68.6468 223.56 68.8795C224.034 69.5776 224.271 70.043 224.271 70.5084Z" fill="#D98F00"/>
<path d="M230.431 70.5084C230.431 70.9739 230.431 71.2066 230.194 71.4393C229.957 71.672 229.72 71.9047 229.246 72.1374C229.009 72.3701 228.535 72.3701 228.061 72.1374C227.587 72.1374 227.35 71.9047 227.113 71.672C226.876 71.4393 226.639 70.9739 226.639 70.7411C226.639 70.2757 226.639 70.043 226.639 69.5776C226.639 69.1122 227.113 68.8795 227.35 68.6468C227.587 68.4141 228.061 68.4141 228.298 68.4141C228.772 68.4141 229.246 68.6468 229.72 68.8795C230.194 69.5776 230.431 70.043 230.431 70.5084Z" fill="#FFCC00"/>
<path d="M236.357 70.5084C236.357 70.9739 236.357 71.2066 236.12 71.4393C235.883 71.672 235.646 71.9047 235.172 72.1374C234.935 72.3701 234.461 72.3701 233.987 72.1374C233.513 72.1374 233.276 71.9047 233.038 71.672C232.801 71.4393 232.564 70.9739 232.564 70.7411C232.564 70.2757 232.564 70.043 232.564 69.5776C232.801 69.3449 233.038 68.8795 233.276 68.6468C233.513 68.4141 233.987 68.4141 234.224 68.4141C234.698 68.4141 235.172 68.6468 235.646 68.8795C236.12 69.5776 236.357 70.043 236.357 70.5084Z" fill="#7EB3FF"/>
<path d="M137.99 150.563H151.263C154.582 150.563 157.663 149.4 159.796 147.072C162.166 144.745 163.351 141.72 163.351 138.695C163.351 135.437 162.166 132.411 159.796 130.317C157.426 127.99 154.345 126.826 151.263 126.826H137.99V150.563Z" fill="#D98F00"/>
<path d="M151.268 150.564H14.981H12.8478C9.76655 150.564 6.9223 151.727 4.78912 153.589C2.65593 155.451 1.23381 158.244 0.759766 161.036C0.759766 164.294 0.759766 266.456 0.759766 271.808C0.996786 269.015 2.41891 266.223 4.78912 264.361C6.9223 262.499 9.76655 261.336 12.8478 261.336H15.6921H151.031C154.112 261.336 156.956 260.172 159.09 258.311C161.223 256.449 162.645 253.656 163.119 250.864C163.119 247.606 163.119 145.444 163.119 140.092C162.882 142.884 161.46 145.677 159.09 147.539C156.956 149.633 154.112 150.564 151.268 150.564Z" fill="#EAF4FE"/>
<path d="M145.827 207.346H16.6504V209.675H145.827V207.346Z" fill="#0066CC"/>
<path d="M131.596 208.271C131.596 210.133 131.122 211.762 129.936 213.158C128.988 214.554 127.566 215.718 125.907 216.416C124.248 217.114 122.352 217.347 120.693 216.882C119.033 216.649 117.374 215.718 115.952 214.322C114.53 212.925 113.819 211.529 113.345 209.667C113.108 208.038 113.108 206.177 113.819 204.548C114.53 202.919 115.715 201.522 117.137 200.592C118.559 199.661 120.456 199.195 122.115 199.195C123.3 199.195 124.485 199.428 125.67 199.893C126.855 200.359 127.803 201.057 128.751 201.755C129.699 202.686 130.173 203.617 130.648 204.78C131.359 205.944 131.596 207.108 131.596 208.271Z" fill="#EAF4FE"/>
<path d="M122.594 218.517C120.461 218.517 118.565 217.819 116.906 216.888C115.246 215.724 113.824 214.095 113.113 212.466C112.402 210.605 112.165 208.51 112.639 206.649C113.113 204.787 114.061 202.925 115.483 201.529C116.906 200.133 118.802 199.202 120.698 198.736C122.594 198.271 124.727 198.504 126.624 199.202C128.52 199.9 130.179 201.296 131.364 202.925C132.549 204.554 133.023 206.649 133.023 208.51C133.023 211.303 131.838 213.863 129.942 215.724C127.809 217.353 125.201 218.517 122.594 218.517ZM122.594 200.598C120.935 200.598 119.513 201.063 118.091 201.994C116.669 202.925 115.72 204.089 115.246 205.485C114.535 206.881 114.535 208.51 114.772 209.907C115.009 211.536 115.958 212.932 116.906 213.863C118.091 215.026 119.513 215.724 120.935 215.957C122.594 216.19 124.016 216.19 125.438 215.492C126.861 214.793 128.046 213.863 128.994 212.699C129.942 211.303 130.416 209.907 130.416 208.278C130.416 206.183 129.468 204.089 128.046 202.692C126.624 201.296 124.727 200.598 122.594 200.598Z" fill="#0066CC"/>
<path d="M96.7589 200.83H64.2871V215.724H96.7589V200.83Z" fill="#EAF4FE"/>
<path d="M97.7026 216.883H63.0977V199.662H97.7026V216.883ZM65.4679 214.556H95.5694V201.989H65.4679V214.556Z" fill="#0066CC"/>
<path d="M156.962 200.83H141.793V215.724H156.962V200.83Z" fill="#EAF4FE"/>
<path d="M156.709 216.883H139.17V199.662H156.709V216.883ZM141.54 214.556H154.339V201.989H141.54V214.556Z" fill="#0066CC"/>
<path d="M157.9 198.5H137.99V218.048H157.9V198.5Z" fill="#2A66C4"/>
<path d="M142.734 206.178C142.497 206.178 142.497 206.178 142.26 206.178C142.023 206.178 142.023 206.411 141.786 206.411C141.549 206.644 141.549 206.876 141.549 207.342C141.549 207.575 141.549 208.041 142.023 208.274C142.023 208.507 142.26 208.507 142.497 208.507C142.734 208.507 142.734 208.507 142.971 208.507C143.208 208.507 143.208 208.507 143.445 208.507C143.682 208.507 143.682 208.274 143.919 208.274C144.156 208.041 144.156 207.808 144.156 207.342C144.156 207.109 144.156 206.644 143.919 206.411C143.919 206.178 143.682 206.178 143.445 206.178C143.208 206.178 142.971 206.178 142.734 206.178Z" fill="white"/>
<path d="M149.845 210.367H148.186V213.392H146.053V202.92H149.845C152.452 202.92 153.637 204.083 153.637 206.411C153.637 207.574 153.4 208.505 152.689 209.203C151.978 210.134 151.03 210.367 149.845 210.367ZM148.186 208.505H149.845C151.03 208.505 151.504 207.807 151.504 206.643C151.504 206.178 151.504 205.712 151.03 205.247C150.793 205.014 150.793 205.014 150.556 205.014C150.319 205.014 150.082 205.014 149.845 205.014H148.186V208.505Z" fill="white"/>
<path d="M40.8174 195.475L27.7812 208.274L40.8174 221.073L53.8536 208.274L40.8174 195.475Z" fill="#EAF4FE"/>
<path d="M40.8203 222.702L26.125 208.274L40.8203 193.846L55.5156 208.274L40.8203 222.702ZM29.4433 208.274L40.8203 219.444L52.1973 208.274L40.8203 197.104L29.4433 208.274Z" fill="#0066CC"/>
<path d="M66.1693 231.309H39.623V221.535H41.9933V229.215H66.4064V231.309H66.1693Z" fill="#0066CC"/>
<path d="M41.7608 195.24H39.3906V185.467H66.1739V187.794H41.7608V195.24Z" fill="#0066CC"/>
<path d="M124.249 231.315H97.7031V228.988H122.116V216.887H124.486V231.315H124.249Z" fill="#0066CC"/>
<path d="M124.249 199.666H121.879V187.565H97.7031V185.238H124.249V199.666Z" fill="#0066CC"/>
<path d="M96.7589 179.879H64.2871V194.773H96.7589V179.879Z" fill="#EAF4FE"/>
<path d="M97.7026 195.944H63.0977V178.723H97.7026V195.944ZM65.4679 193.616H95.5694V181.05H65.4679V193.616Z" fill="#0066CC"/>
<path d="M96.7589 222.002H64.2871V236.896H96.7589V222.002Z" fill="#EAF4FE"/>
<path d="M97.7026 238.061H63.0977V220.84H97.7026V238.061ZM65.4679 235.734H95.5694V223.167H65.4679V235.734Z" fill="#0066CC"/>
<path d="M160.75 121.474H192.985C193.459 121.474 194.17 121.241 194.407 120.776C194.881 120.31 195.118 119.845 195.118 119.38C195.118 118.914 194.881 118.216 194.407 117.983C193.933 117.518 193.459 117.285 192.985 117.285H160.75C160.276 117.285 159.565 117.518 159.328 117.983C158.854 118.449 158.617 118.914 158.617 119.38C158.617 119.845 158.854 120.543 159.328 120.776C159.802 121.009 160.276 121.474 160.75 121.474Z" fill="#0058B0"/>
<path d="M136.812 40.2547C136.812 29.7826 141.079 19.7759 148.664 12.329C156.248 4.88221 166.44 0.693359 177.106 0.693359C187.772 0.693359 197.964 4.88221 205.549 12.329C213.133 19.7759 217.4 29.7826 217.4 40.2547C217.4 41.651 216.452 59.8026 201.282 78.8852C196.779 84.703 197.49 96.3387 197.727 96.3387H156.485C156.485 96.3387 157.433 84.703 152.93 78.8852C137.761 59.8026 136.812 41.4183 136.812 40.2547Z" fill="#D98F00"/>
<path d="M164.06 91.2162C163.823 86.3292 162.638 76.788 159.32 72.8318C144.861 54.6801 144.15 37.4593 144.15 37.2266C144.15 28.1507 147.943 19.3076 154.342 13.0243C160.979 6.50829 169.749 3.01758 178.992 3.01758C188.236 3.01758 197.243 6.741 203.643 13.0243C210.516 19.3076 214.309 27.918 214.309 36.9938C214.309 37.2266 213.598 54.4474 199.376 72.5991C196.295 76.788 194.873 86.0965 194.636 91.2162H164.06Z" fill="#FFCC00"/>
<path d="M208.627 43.2772C208.153 43.2772 207.916 43.2772 207.442 43.0445C206.968 42.8118 206.731 42.5791 206.494 42.3464C206.257 42.1137 206.02 41.6482 205.783 41.4155C205.546 40.9501 205.546 40.7174 205.546 40.252C205.546 32.8051 202.465 25.591 197.25 20.4713C191.799 15.1188 184.688 12.3263 177.103 12.3263C176.155 12.3263 175.444 12.0935 174.97 11.3954C174.022 10.6973 173.785 9.99911 173.785 9.06825C173.785 8.1374 174.022 7.43925 174.733 6.97383C175.207 6.5084 176.155 6.04297 176.866 6.04297C186.11 6.04297 194.88 9.7664 201.517 16.0497C208.153 22.5657 211.709 31.1761 211.709 40.252C211.709 41.1828 211.471 41.881 210.76 42.3464C210.286 43.0445 209.575 43.2772 208.627 43.2772Z" fill="#FFDD55"/>
<path d="M166.667 99.3626L161.453 58.6376L163.586 57.9395L168.801 98.6645L166.667 99.3626Z" fill="#0058B0"/>
<path d="M187.061 99.3626L192.275 58.6376L190.142 57.9395L184.928 98.6645L187.061 99.3626Z" fill="#0058B0"/>
<path d="M190.616 63.7574C189.194 63.7574 188.482 62.3611 188.008 61.4302C187.771 60.9648 187.534 60.0339 187.297 60.0339C187.06 60.0339 186.586 60.9648 186.586 61.4302C186.112 62.3611 185.401 63.7574 183.979 63.7574C182.557 63.7574 181.846 62.3611 181.372 61.4302C181.372 61.1975 181.135 60.7321 180.898 60.4994C180.187 61.8957 178.765 63.7574 177.105 63.7574C175.683 63.7574 174.972 62.3611 174.498 61.4302C174.261 60.9648 174.024 60.0339 173.787 60.0339C173.55 60.0339 173.076 60.9648 173.076 61.4302C172.602 62.3611 171.891 63.7574 170.469 63.7574C169.047 63.7574 168.335 62.3611 167.861 61.4302C167.624 60.9648 167.387 60.0339 167.15 60.0339C166.913 60.0339 166.439 60.9648 166.439 61.4302C165.965 62.3611 165.254 63.7574 163.832 63.7574V61.8957C164.069 61.8957 164.543 60.9648 164.543 60.4994C165.017 59.5685 165.728 58.1722 167.15 58.1722C168.573 58.1722 169.284 59.5685 169.758 60.4994C169.995 60.9648 170.232 61.8957 170.469 61.8957C170.706 61.8957 171.18 60.9648 171.18 60.4994C171.654 59.5685 172.365 58.1722 173.787 58.1722C175.209 58.1722 175.92 59.5685 176.394 60.4994C176.631 60.9648 176.868 61.8957 177.105 61.8957C177.579 61.8957 178.765 60.4994 179.476 58.6376C179.476 58.4049 179.713 58.4049 179.713 58.1722C179.95 58.1722 179.95 57.9395 180.187 57.9395C181.609 57.9395 182.32 59.3358 182.794 60.2666C183.031 60.7321 183.268 61.663 183.505 61.663C183.742 61.663 184.216 60.7321 184.216 60.2666C184.69 59.3358 185.401 57.9395 186.823 57.9395C188.245 57.9395 188.957 59.3358 189.431 60.2666C189.668 60.7321 189.905 61.663 190.142 61.663V63.7574H190.616Z" fill="#0058B0"/>
<path d="M197.487 96.5684V117.28C197.487 117.978 197.25 118.676 196.776 119.142C196.302 119.607 195.591 119.84 194.88 119.84H159.09C158.379 119.84 157.668 119.607 157.193 119.142C156.719 118.676 156.482 117.978 156.482 117.28V96.5684H197.487Z" fill="#0058B0"/>
<path d="M198.199 100.525H155.536C155.298 100.525 155.061 100.525 154.824 100.292C154.587 100.292 154.35 100.059 154.113 99.8265C153.876 99.5938 153.876 99.3611 153.639 99.1284C153.639 98.8957 153.402 98.663 153.402 98.4303C153.402 98.1976 153.402 97.9649 153.639 97.7322C153.639 97.4995 153.876 97.2668 154.113 97.0341C154.35 96.8014 154.587 96.8014 154.824 96.5686C155.061 96.5686 155.298 96.3359 155.536 96.3359H198.199C198.673 96.3359 199.384 96.5687 199.621 97.0341C200.095 97.4995 200.332 97.9649 200.332 98.4303C200.332 98.8957 200.095 99.5938 199.621 99.8265C199.384 100.292 198.91 100.525 198.199 100.525Z" fill="#0058B0"/>
<path d="M179.469 99.5985H155.767C155.53 99.5985 155.53 99.5985 155.293 99.5985C155.056 99.5985 155.056 99.3656 154.819 99.3656C154.819 99.3656 154.582 99.1327 154.582 98.8998C154.582 98.6669 154.582 98.6669 154.582 98.434C154.582 98.2011 154.582 98.2011 154.582 97.9682C154.582 97.7353 154.819 97.7353 154.819 97.5024C154.819 97.5024 155.056 97.2695 155.293 97.2695C155.53 97.2695 155.53 97.2695 155.767 97.2695H179.469C179.706 97.2695 180.18 97.5024 180.18 97.5024C180.417 97.7353 180.417 97.9682 180.417 98.2011C180.417 98.434 180.18 98.6669 180.18 98.8998C179.943 99.3656 179.706 99.5985 179.469 99.5985Z" fill="#4B96E1"/>
<path d="M198.199 107.275H155.536C155.298 107.275 155.061 107.275 154.824 107.042C154.587 107.042 154.35 106.809 154.113 106.577C153.876 106.344 153.876 106.111 153.639 105.879C153.639 105.646 153.402 105.413 153.402 105.18C153.402 104.948 153.402 104.715 153.639 104.482C153.639 104.25 153.876 104.017 154.113 103.784C154.35 103.551 154.587 103.551 154.824 103.319C155.061 103.319 155.298 103.086 155.536 103.086H198.199C198.673 103.086 199.384 103.319 199.621 103.784C200.095 104.25 200.332 104.715 200.332 105.18C200.332 105.646 200.095 106.344 199.621 106.577C199.147 106.809 198.91 107.275 198.199 107.275Z" fill="#0058B0"/>
<path d="M198.199 114.025H155.536C155.298 114.025 155.061 114.025 154.824 113.792C154.587 113.792 154.35 113.559 154.113 113.327C153.876 113.094 153.876 112.861 153.639 112.629C153.639 112.396 153.402 112.163 153.402 111.93C153.402 111.698 153.402 111.465 153.639 111.232C153.639 111 153.876 110.767 154.113 110.534C154.35 110.301 154.587 110.301 154.824 110.069C155.061 110.069 155.298 109.836 155.536 109.836H198.199C198.673 109.836 199.384 110.069 199.621 110.534C200.095 111 200.332 111.465 200.332 111.93C200.332 112.396 200.095 113.094 199.621 113.327C199.384 113.792 198.91 114.025 198.199 114.025Z" fill="#0058B0"/>
<path d="M179.469 105.881H155.767C155.53 105.881 155.53 105.881 155.293 105.881C155.056 105.881 155.056 105.649 154.819 105.649C154.819 105.649 154.582 105.416 154.582 105.183C154.582 104.95 154.582 104.95 154.582 104.717C154.582 104.484 154.582 104.484 154.582 104.251C154.582 104.018 154.819 104.018 154.819 103.786C154.819 103.786 155.056 103.553 155.293 103.553C155.53 103.553 155.53 103.553 155.767 103.553H179.469C179.706 103.553 180.18 103.786 180.18 103.786C180.417 104.018 180.417 104.251 180.417 104.484C180.417 104.717 180.18 104.95 180.18 105.183C179.943 105.881 179.706 105.881 179.469 105.881Z" fill="#4B96E1"/>
<path d="M179.476 112.865H155.774C155.537 112.865 155.063 112.632 155.063 112.632C154.826 112.399 154.826 112.166 154.826 111.934C154.826 111.701 155.063 111.235 155.063 111.235C155.3 111.002 155.537 111.002 155.774 111.002H179.476C179.713 111.002 180.187 111.002 180.187 111.235C180.424 111.468 180.424 111.701 180.424 111.934C180.424 112.166 180.187 112.399 180.187 112.632C179.95 112.632 179.713 112.865 179.476 112.865Z" fill="#4B96E1"/>
<path d="M182.311 100.527H162.164V102.624H182.311V100.527Z" fill="#1569BE"/>
<path d="M182.311 107.045H162.164V109.141H182.311V107.045Z" fill="#1569BE"/>
<path d="M182.311 113.793H162.164V115.889H182.311V113.793Z" fill="#1569BE"/>
<path d="M293.944 100.762L278.301 109.139V125.895L293.944 135.669L309.587 125.895V109.139L293.944 100.762Z" fill="#FFCC00"/>
<path d="M315.044 128.684L322.154 132.872L293.712 149.628L265.27 132.872L272.38 128.684" stroke="#7EB3FF" stroke-width="0.870447" stroke-linecap="round" stroke-linejoin="round"/>
<path d="M265.514 100.763L293.956 117.519L322.399 100.763L293.956 85.4043L265.514 100.763Z" stroke="#7EB3FF" stroke-width="0.870447" stroke-linecap="round" stroke-linejoin="round"/>
<path d="M293.957 117.52V149.634" stroke="#7EB3FF" stroke-width="0.870447" stroke-linecap="round" stroke-linejoin="round"/>
<path d="M293.957 85.4043V92.3857" stroke="#7EB3FF" stroke-width="0.870447" stroke-linecap="round" stroke-linejoin="round"/>
<path d="M265.514 100.762V132.877" stroke="#7EB3FF" stroke-width="0.870447" stroke-linecap="round" stroke-linejoin="round"/>
<path d="M254.369 87.2617H229.719V88.4257H254.369V87.2617Z" fill="#4B96E1"/>
<path d="M254.369 90.7539H229.719V91.9175H254.369V90.7539Z" fill="#4B96E1"/>
<path d="M247.258 94.4785H229.719V95.6419H247.258V94.4785Z" fill="#4B96E1"/>
<path d="M227.114 86.5605H224.27V88.8895H227.114V86.5605Z" fill="#4B96E1"/>
<path d="M254.369 103.318H229.719V104.482H254.369V103.318Z" fill="#4B96E1"/>
<path d="M254.369 107.045H229.719V108.209H254.369V107.045Z" fill="#4B96E1"/>
<path d="M247.258 110.535H229.719V111.699H247.258V110.535Z" fill="#4B96E1"/>
<path d="M227.114 102.852H224.27V105.18H227.114V102.852Z" fill="#4B96E1"/>
<path d="M254.369 120.076H229.719V121.24H254.369V120.076Z" fill="#4B96E1"/>
<path d="M254.369 123.568H229.719V124.734H254.369V123.568Z" fill="#4B96E1"/>
<path d="M247.258 127.293H229.719V128.457H247.258V127.293Z" fill="#4B96E1"/>
<path d="M227.114 119.377H224.27V121.706H227.114V119.377Z" fill="#4B96E1"/>
<path d="M254.369 136.133H229.719V137.296H254.369V136.133Z" fill="#4B96E1"/>
<path d="M254.369 139.859H229.719V141.023H254.369V139.859Z" fill="#4B96E1"/>
<path d="M247.258 143.35H229.719V144.513H247.258V143.35Z" fill="#4B96E1"/>
<path d="M227.114 135.666H224.27V137.995H227.114V135.666Z" fill="#4B96E1"/>
<path d="M237.074 133.342H234.467V139.858H237.074V133.342Z" fill="#C5E1F9"/>
<path d="M226.404 145.907L220.479 142.649L221.664 140.555L227.589 143.813L226.404 145.907Z" fill="#C5E1F9"/>
<path d="M226.404 153.586L220.479 156.844L221.664 158.938L227.589 155.68L226.404 153.586Z" fill="#C5E1F9"/>
<path d="M237.074 159.635H234.467V166.15H237.074V159.635Z" fill="#C5E1F9"/>
<path d="M249.867 140.555L243.941 143.813L245.127 145.907L251.052 142.649L249.867 140.555Z" fill="#C5E1F9"/>
<path d="M274.042 160.8L254.843 154.75L235.645 148.699L241.807 167.549L247.97 186.399L254.843 173.6L265.035 183.607L271.198 177.789L261.006 167.782L274.042 160.8Z" fill="#3683F2"/>
<path d="M254.843 154.75L235.645 148.699L235.882 149.397L268.116 180.814L271.435 177.556L261.243 167.549L274.516 161.033L254.843 154.75Z" fill="#7EB3FF"/>
</svg>
