<svg width="368" height="266" viewBox="0 0 368 266" fill="none" xmlns="http://www.w3.org/2000/svg">
<path d="M55.6287 194.63C53.1313 194.622 50.7378 193.629 48.969 191.866C47.1983 190.101 46.1985 187.707 46.1885 185.206V9.5394C46.1995 7.0427 47.1923 4.65053 48.9523 2.87967C50.7184 1.11048 53.1122 0.111199 55.6121 0.0993652H312.361C314.861 0.109387 317.256 1.10895 319.021 2.87967C320.781 4.65053 321.774 7.0427 321.785 9.5394V185.24C321.77 187.736 320.778 190.127 319.021 191.9C317.25 193.66 314.858 194.652 312.361 194.663L55.6287 194.63Z" fill="#EAF4FE"/>
<path d="M320.948 185.173C320.949 186.299 320.727 187.414 320.296 188.454C319.864 189.494 319.231 190.439 318.434 191.233C316.827 192.842 314.647 193.746 312.373 193.747H55.624C54.4816 193.758 53.349 193.537 52.2941 193.098C51.2478 192.667 50.2972 192.033 49.497 191.233C48.7078 190.434 48.0802 189.49 47.6489 188.453C47.2049 187.399 46.9785 186.267 46.983 185.123V9.53937C46.9785 8.3959 47.2049 7.2633 47.6489 6.20951C48.0801 5.16742 48.7076 4.21797 49.497 3.41253C50.3025 2.62311 51.252 1.99554 52.2941 1.56428C53.349 1.12561 54.4816 0.904919 55.624 0.915134H312.373C313.515 0.908086 314.647 1.12865 315.703 1.56428C316.742 1.99978 317.686 2.6333 318.483 3.4292C319.287 4.22017 319.921 5.16598 320.348 6.20951C320.779 7.26677 320.999 8.39778 320.998 9.53937L320.948 185.173Z" fill="#0058B0"/>
<path d="M307.518 13.2023H60.4751V170.888H307.518V13.2023Z" fill="#C5E1F9"/>
<path d="M173.985 13.2028L178.747 0.89917H139.438L134.676 13.2028H173.985Z" fill="#02509E"/>
<path d="M73.5391 170.888L64.6816 193.748H103.991L112.848 170.888H73.5391Z" fill="#02509E"/>
<path d="M199.229 13.2028L204.007 0.89917H191.37L186.608 13.2028H199.229Z" fill="#02509E"/>
<path d="M125.482 170.888L116.608 193.748H129.245L138.119 170.888H125.482Z" fill="#02509E"/>
<path d="M367.999 184.024H0.0493164V194.796H367.999V184.024Z" fill="#C5E1F9"/>
<path d="M0.44873 194.797C4.81085 199.409 12.8025 201.207 18.3301 201.207H349.585C355.096 201.207 363.104 199.409 367.45 194.797H0.44873Z" fill="#9AC7F7"/>
<path d="M158.999 184.024V185.189C159.001 185.691 159.097 186.188 159.282 186.654C159.478 187.119 159.761 187.543 160.115 187.903C160.469 188.264 160.894 188.547 161.363 188.735C161.832 188.935 162.336 189.037 162.845 189.035H205.234C205.738 189.036 206.236 188.934 206.699 188.735C207.171 188.551 207.597 188.267 207.948 187.903C208.313 187.552 208.597 187.126 208.781 186.654C208.979 186.191 209.081 185.693 209.08 185.189V184.024H158.999Z" fill="#9AC7F7"/>
<path d="M254.136 47.7166H113.865C111.235 47.7166 109.104 49.8484 109.104 52.4783V130.047C109.104 132.677 111.235 134.809 113.865 134.809H254.136C256.766 134.809 258.897 132.677 258.897 130.047V52.4783C258.897 49.8484 256.766 47.7166 254.136 47.7166Z" fill="white"/>
<path fill-rule="evenodd" clip-rule="evenodd" d="M121.593 71.7909C121.109 71.7733 120.626 71.8586 120.177 72.0409C119.73 72.2263 119.327 72.5043 118.995 72.8567C118.332 73.5883 117.979 74.5497 118.013 75.537C117.995 76.5408 118.364 77.5132 119.045 78.251C119.377 78.6034 119.78 78.8814 120.227 79.0668C120.673 79.2621 121.157 79.3531 121.643 79.3331C122.121 79.3514 122.598 79.2664 123.041 79.0835C123.484 78.8987 123.881 78.6204 124.207 78.2677C124.87 77.536 125.223 76.5743 125.189 75.587C125.207 74.5973 124.857 73.6364 124.207 72.89C123.885 72.5252 123.487 72.2354 123.041 72.0409C122.598 71.858 122.121 71.7726 121.643 71.7909" fill="#2A66C4"/>
<path d="M141.968 84.1952H136.973V93.0856H130.763V62.5177H141.968C149.205 62.5177 152.829 66.0527 152.84 73.1231C153.037 76.1294 152.037 79.0915 150.06 81.3644C148.979 82.3683 147.702 83.1382 146.31 83.6253C144.917 84.1123 143.439 84.3063 141.968 84.1952ZM136.973 78.8837H141.968C145.065 78.8837 146.597 76.9358 146.597 73.1231C146.728 71.6839 146.331 70.2462 145.481 69.0774C145.006 68.6233 144.438 68.2767 143.816 68.0616C143.208 67.8451 142.561 67.7601 141.918 67.8121H136.923L136.973 78.8837Z" fill="#2A66C4"/>
<path d="M238.702 62.5681H162.764V69.361H238.702V62.5681Z" fill="#9AC7F7"/>
<path d="M238.702 75.0217H162.764V81.8146H238.702V75.0217Z" fill="#9AC7F7"/>
<path d="M238.702 87.4581H162.764V94.2511H238.702V87.4581Z" fill="#9AC7F7"/>
<path d="M204.02 111.383H163.995C162.873 111.383 161.964 112.292 161.964 113.414V121.672C161.964 122.794 162.873 123.704 163.995 123.704H204.02C205.142 123.704 206.051 122.794 206.051 121.672V113.414C206.051 112.292 205.142 111.383 204.02 111.383Z" fill="#2A66C4"/>
<path d="M255.4 70.0761C233.606 69.9762 233.623 36.7775 255.4 36.7775C277.178 36.7775 277.178 69.9762 255.4 70.0761Z" fill="white"/>
<path d="M255.4 67.0965C237.502 67.0965 237.502 39.7913 255.4 39.7247C273.298 39.6581 273.348 67.0466 255.4 67.0965Z" fill="#00CF86"/>
<path d="M254.066 59.5874L248.788 54.3259L251.335 51.8452L254.066 54.5592L260.359 48.2657L262.907 50.7465L254.066 59.5874Z" fill="white"/>
<path d="M225.701 122.443L219.497 120.655L214.801 136.946L221.005 138.734L225.701 122.443Z" fill="#0066CC"/>
<path d="M190.851 146.192L179.083 133.998L183.74 129.515L195.494 141.723L190.851 146.192Z" fill="#0066CC"/>
<path d="M185.355 165.244L168.917 169.34L170.478 175.598L186.916 171.502L185.355 165.244Z" fill="#0066CC"/>
<path d="M206.861 187.579L200.657 185.792L195.974 202.055L202.178 203.843L206.861 187.579Z" fill="#0066CC"/>
<path d="M251.133 148.914L234.683 152.997L236.244 159.281L252.694 155.198L251.133 148.914Z" fill="#0066CC"/>
<path d="M295.184 216.077L252.943 187.499L210.716 158.92L212.424 209.9L214.131 260.853L239.708 233.728L257.399 265.749L276.291 255.289L258.573 223.268L295.184 216.077Z" fill="#D68D21"/>
<path d="M252.943 187.499L210.716 158.92V160.628L266.138 260.919L276.251 255.302L258.533 223.282L295.144 216.09L252.943 187.499Z" fill="#FDCA2F"/>
</svg>
