<svg width="64" height="72" viewBox="0 0 64 72" fill="none" xmlns="http://www.w3.org/2000/svg">
<path fill-rule="evenodd" clip-rule="evenodd" d="M52.0494 63.8873C52.0494 64.0579 52.1318 64.4908 52.2166 64.7448C52.3031 64.9179 52.5535 64.8289 52.64 64.7448L52.7281 64.8289C52.5535 64.9179 52.4744 65.0028 52.3031 65.0918C52.1318 65.1768 51.9613 65.2609 51.8749 65.3459L51.7868 65.2609C51.9613 65.0918 52.0494 65.0028 51.9613 64.6598C51.9613 64.3136 51.8749 63.8873 51.7868 63.5442L51.3594 61.2208H51.5339L53.7517 63.1964C53.8422 63.2846 54.0983 63.5442 54.2672 63.6259C54.4353 63.7133 54.609 63.6259 54.6954 63.6259L54.7811 63.7133C54.609 63.7983 54.3528 63.8873 54.1824 64.0579C54.0127 64.1437 53.7517 64.2295 53.5821 64.4018L53.4956 64.2295C53.6685 64.2295 53.8422 64.0579 53.7517 63.8873C53.6685 63.7983 53.5821 63.6259 53.4124 63.5442L52.985 63.1964L51.9613 63.7133L52.0494 63.8873ZM53.6183 60.4442C53.3638 60.356 53.1885 60.356 53.0204 60.5331L52.9339 60.356C53.1044 60.2718 53.1885 60.2718 53.2765 60.102C53.3638 60.102 53.5326 60.0178 53.6183 59.9296L56.9535 61.0501L56.0114 59.7549C55.841 59.5874 55.6713 59.2396 55.4984 59.0705C55.2463 58.8974 55.155 58.9831 54.9013 59.0705L54.8157 58.9831C54.9862 58.8974 55.155 58.81 55.3295 58.7251C55.4144 58.5495 55.4984 58.4686 55.6713 58.3764L55.7577 58.4686C55.6713 58.6425 55.4984 58.6425 55.5865 58.8974C55.6713 59.0705 56.0114 59.4993 56.1876 59.7549L57.5514 61.652L57.4658 61.7353C57.2953 61.7353 57.1264 61.652 56.9535 61.563L53.8744 60.5331L54.9862 62.0799C55.0758 62.2547 55.3295 62.5103 55.4984 62.6818C55.6713 62.77 55.841 62.6818 56.0114 62.592V62.6818C55.9266 62.8582 55.7578 62.9423 55.5865 63.0265C55.4144 63.1106 55.3295 63.1963 55.155 63.3703L55.0758 63.2845C55.2463 63.1106 55.3295 63.0265 55.2463 62.77C55.155 62.592 54.9862 62.338 54.8157 62.1625L53.6183 60.4442ZM57.8916 59.822C57.8916 60.0801 58.0653 60.5121 58.1525 60.6828C58.3238 60.8551 58.4943 60.6828 58.5759 60.5963L58.6632 60.7694C58.5759 60.8551 58.4087 60.9449 58.2374 61.0299C58.1525 61.1075 57.9772 61.1989 57.8916 61.3729L57.8075 61.1989C57.9772 61.0299 57.9772 60.9449 57.9772 60.6828C57.8075 60.2524 57.7203 59.9078 57.6387 59.5656L56.9535 57.3304L57.0359 57.2398L59.5196 58.9645C59.602 59.0495 59.9422 59.3092 60.031 59.3092C60.1983 59.3933 60.372 59.3092 60.5449 59.2202V59.3933C60.372 59.4815 60.1983 59.5656 60.031 59.7355C59.8614 59.9078 59.6876 59.9968 59.5196 60.1691L59.4348 60.0801C59.5196 59.9968 59.6876 59.822 59.602 59.6497C59.5196 59.5656 59.3491 59.4815 59.261 59.3933L58.7512 59.0495L57.8075 59.7355L57.8916 59.822ZM52.8118 63.0265L51.6992 61.995L51.9578 63.4601L52.8118 63.0265ZM58.5775 58.8771L57.2969 58.0164L57.8091 59.4814L58.5775 58.8771ZM37.9445 61.4553C37.9445 61.2814 38.0277 60.94 37.9445 60.7653C37.9445 60.5962 37.7757 60.5064 37.6076 60.5064V60.3381C37.8573 60.4215 38.1182 60.5064 38.2895 60.5064C38.5465 60.5064 38.7993 60.5962 39.0571 60.5962L38.9698 60.6787C38.8785 60.6787 38.6272 60.6787 38.5465 60.8527C38.4568 61.025 38.4568 61.3664 38.3744 61.5435L38.1998 63.1736C38.1182 63.3484 38.1182 63.7755 38.1182 63.8653C38.1182 64.1202 38.2895 64.1202 38.4568 64.1202V64.2949C38.1998 64.2035 38.0277 64.2035 37.7757 64.1202C37.5163 64.1202 37.3483 64.1202 37.0938 64.0328V63.9478C37.2594 63.9478 37.4274 63.9478 37.5163 63.7755C37.6076 63.6914 37.6884 63.2602 37.6884 63.0911L37.9445 61.4553ZM42.2781 62.033L42.1892 61.9496C42.2781 61.4319 42.1052 61.2571 41.6786 61.1698C41.4233 61.1698 41.1615 61.0881 41.1615 61.2571L40.7382 63.9211C40.7382 64.3548 40.7382 64.4397 41.1615 64.612V64.697C40.9094 64.697 40.6517 64.612 40.398 64.5271C40.1378 64.5271 39.8809 64.5271 39.6248 64.4397V64.3548C40.1378 64.3548 40.2291 64.2706 40.3099 63.837L40.6517 61.1698C40.7382 61.0881 40.478 60.9991 40.3099 60.9991C39.7945 60.919 39.6248 60.919 39.5432 61.601L39.3711 61.516L39.5432 60.6528L42.447 61.1698L42.2781 62.033ZM42.6051 63.7934C42.5194 63.9649 42.3506 64.3936 42.2657 64.5676C42.2657 64.8224 42.5194 64.8224 42.6051 64.9122V64.9955C42.433 64.9955 42.2657 64.9122 42.096 64.9122C41.9207 64.9122 41.7502 64.8224 41.5822 64.8224L41.6646 64.7415C41.9207 64.7415 42.0023 64.6517 42.1801 64.3936C42.3506 64.049 42.5194 63.7068 42.6939 63.363L43.7176 61.3009L43.8873 61.3818L44.3995 64.3079C44.4908 64.4794 44.4908 64.8224 44.5732 64.9955C44.6556 65.1735 44.7429 65.1735 44.9118 65.2536V65.3418C44.7429 65.3418 44.4908 65.2536 44.2299 65.2536C44.0561 65.1735 43.8041 65.1735 43.5471 65.1735L43.6328 64.9955C43.7176 64.9955 43.9729 65.0837 43.9729 64.9122V64.3936L43.8873 63.7934L42.6939 63.6194L42.6051 63.7934ZM46.1778 62.9092C46.1778 62.7336 46.2691 62.3048 46.2691 62.1366C46.1778 61.9643 46.0106 61.8736 45.8401 61.8736L45.9282 61.7952C46.0962 61.7952 46.3524 61.8736 46.5244 61.8736C46.7822 61.9643 47.0383 61.9643 47.2928 61.9643L47.2112 62.1366C47.1256 62.1366 46.8646 62.0516 46.7822 62.2207C46.6965 62.3906 46.6965 62.825 46.6085 62.9925L46.3524 64.6315C46.2691 65.3175 46.3524 65.489 46.8646 65.5772C47.1256 65.5772 47.3785 65.6613 47.5481 65.5772C47.8964 65.4033 47.8964 65.2277 47.978 64.8863H48.1517L47.8964 65.9194C47.8964 65.8345 47.7218 65.8345 47.7218 65.8345C46.8646 65.6613 46.0962 65.5772 45.2455 65.4033V65.3175C45.4119 65.3175 45.5824 65.3175 45.7545 65.1452C45.7545 65.0619 45.8401 64.6315 45.9282 64.4584L46.1778 62.9092ZM49.5438 63.2376C49.5438 63.0669 49.4581 62.6398 49.4581 62.5491C49.3757 62.2911 49.1996 62.3801 49.0315 62.3801V62.2053H49.7126C49.8823 62.2053 50.1417 62.1188 50.3986 62.1188V62.2911C50.2297 62.2911 50.0512 62.2911 49.972 62.4658V63.2376L50.1417 64.7876C50.1417 64.9599 50.1417 65.3871 50.2297 65.561C50.3146 65.7325 50.4858 65.7325 50.6531 65.7325V65.8175H49.972C49.7126 65.9016 49.5438 65.9016 49.2877 65.9016V65.8175C49.3757 65.8175 49.6326 65.8175 49.6326 65.561C49.7126 65.3871 49.6326 65.0449 49.6326 64.8726L49.5438 63.2376ZM43.8023 63.6195L43.5453 62.0719L42.8594 63.4504L43.8023 63.6195ZM15.1459 63.1745C15.1411 63.0095 15.0457 62.5896 15.0409 62.4238C14.9536 62.2571 14.7823 62.262 14.6167 62.3526L14.6127 62.1843C14.7799 62.1794 15.0344 62.173 15.2 62.0816C15.4578 62.0743 15.625 62.0702 15.7907 61.9837C16.2092 61.8882 16.8903 61.9545 16.9961 62.7085C17.0939 63.215 16.845 63.4714 16.5146 63.6437C16.7691 63.6372 17.0204 63.6308 17.19 63.7165C17.4518 63.8727 17.6255 64.1251 17.6344 64.46C17.7265 64.7973 17.5706 65.0514 17.3193 65.311C17.1537 65.4842 16.82 65.5756 16.5655 65.5821C16.3078 65.5893 16.1405 65.5934 15.9765 65.684C15.6339 65.6921 15.4707 65.7851 15.1314 65.7932L15.1289 65.7058C15.2938 65.616 15.4659 65.6112 15.5467 65.4421C15.5426 65.2771 15.4457 64.858 15.4408 64.6897L15.1459 63.1745ZM17.9956 62.6826C17.9907 62.5111 17.8962 62.0961 17.8065 62.012C17.7176 61.8486 17.5504 61.8526 17.3783 61.8575L17.3759 61.7758C17.6296 61.6819 17.7968 61.6787 18.0554 61.6714C18.2186 61.6665 18.385 61.5784 18.5603 61.5735C19.0637 61.4716 19.6567 61.5444 19.7593 62.2158C19.8603 62.719 19.5226 62.9755 19.1905 63.1591C19.4458 63.1527 19.6995 63.1454 19.8765 63.3096C20.1294 63.4682 20.3079 63.7157 20.3992 63.9641C20.4105 64.3856 20.2465 64.642 20.0833 64.8151C19.8353 65.0772 19.4976 65.0853 19.2414 65.0926C19.1623 65.1808 18.9061 65.1873 18.7405 65.1921C18.4812 65.1986 18.2315 65.286 17.9835 65.3774L17.9794 65.2123C18.0626 65.2099 18.3123 65.2034 18.305 64.9502C18.301 64.782 18.2089 64.4438 18.204 64.2788L17.9956 62.6826ZM20.6941 62.194C20.6901 62.0249 20.5923 61.6091 20.5883 61.4368C20.4978 61.2726 20.2514 61.2782 20.1641 61.364L20.0736 61.1998C20.3265 61.1925 20.5818 61.186 20.7507 61.1003C21.002 61.0938 21.2605 61.0865 21.4253 60.9951L21.5094 61.1609C21.3421 61.1658 21.1749 61.1706 21.0941 61.3389C21.0989 61.5072 21.1943 61.923 21.1991 62.0977L21.4092 63.6882C21.515 64.3629 21.6863 64.5255 22.2769 64.4252C22.4417 64.3386 22.7003 64.3314 22.8619 64.155C23.0291 63.9835 23.0227 63.7335 23.0154 63.4771L23.1818 63.3873L23.2893 64.3985C23.2093 64.4009 23.1204 64.4034 23.0412 64.405C22.2793 64.5101 21.4358 64.6986 20.678 64.8046L20.6756 64.7189C20.8444 64.6331 21.0117 64.6291 21.0068 64.4592C21.0876 64.2901 20.9915 63.8686 20.9874 63.7003L20.6941 62.194ZM23.6359 61.6318C23.6311 61.4619 23.5406 61.1302 23.5365 60.9619C23.3596 60.7977 23.194 60.8025 23.1067 60.8042L23.0194 60.7257C23.2715 60.6318 23.5276 60.6246 23.6973 60.6205C23.9486 60.6132 24.199 60.521 24.3695 60.5162L24.3719 60.6019C24.2879 60.6043 24.1182 60.6966 24.0391 60.8592C24.0439 61.0355 24.0528 61.3664 24.1401 61.5355L24.355 63.1316C24.359 63.2975 24.4552 63.7165 24.5368 63.7982C24.6281 63.9625 24.801 63.9584 24.9658 63.9536L24.9706 64.1251C24.721 64.1323 24.5457 64.1372 24.2952 64.1429C24.1288 64.2294 23.8767 64.2359 23.623 64.2424L23.6206 64.1615C23.791 64.1566 23.9575 64.1526 23.951 63.8985C24.0302 63.7278 23.9373 63.3945 23.9332 63.2295L23.6359 61.6318ZM27.0908 60.0259L27.1772 60.0234L27.38 61.1131L27.2903 61.1156C27.1045 60.5299 26.6714 60.1229 26.1681 60.2176C25.323 60.3244 25.2656 61.334 25.3714 62.1737C25.5678 63.0126 25.9249 63.8451 26.7668 63.7383C27.355 63.5547 27.5125 63.0482 27.4947 62.3727L27.5771 62.2854L27.7791 63.5433L27.6038 63.2974C27.3574 63.6388 27.0221 63.7318 26.6844 63.8257C25.7617 64.0198 24.9804 63.3662 24.7824 62.2781C24.6669 61.186 25.1525 60.2443 26.0752 60.1383C26.5009 60.0412 26.7571 60.1205 27.0972 60.2766L27.0908 60.0259ZM28.6689 62.1763C28.6753 62.4287 28.5186 62.855 28.6066 63.0192C28.6131 63.2749 28.866 63.1802 29.0381 63.1762L29.0421 63.3477C28.8708 63.3525 28.7004 63.3574 28.5331 63.3614C28.3651 63.4488 28.1994 63.4528 28.0298 63.4577L28.0273 63.3744C28.277 63.2838 28.3578 63.194 28.4378 62.9375C28.5097 62.516 28.5008 62.1811 28.5751 61.8357L28.9419 59.5584L29.1092 59.5543L30.4472 62.1285C30.5344 62.2936 30.7106 62.5468 30.8011 62.7078C30.8891 62.7919 31.0564 62.787 31.2244 62.783L31.2285 62.9488C31.0604 62.9537 30.8075 62.9602 30.6411 63.0508C30.3874 63.0572 30.1377 63.147 29.9689 63.1511L29.9664 63.0686C30.0456 62.9804 30.3009 62.9739 30.2064 62.7239C30.204 62.6406 30.1199 62.4732 30.1175 62.3898L29.7596 61.8041L28.6648 62.008L28.6689 62.1763ZM15.7522 63.6647L15.9195 63.5798C16.0851 63.5757 16.2524 63.5709 16.3372 63.4034C16.502 63.2303 16.4972 63.0564 16.4907 62.808C16.3946 62.3873 16.2144 62.1414 15.7959 62.2352C15.7959 62.2352 15.6286 62.2401 15.543 62.3275L15.5478 62.4957L15.7522 63.6647ZM15.9457 64.5902C15.9497 64.7561 16.0443 65.0918 16.1299 65.2609C16.2228 65.4235 16.3901 65.4202 16.5573 65.3312C16.9783 65.3199 17.139 64.9818 17.0421 64.4761C16.9492 64.2254 16.8563 63.9746 16.6017 63.8961C16.4329 63.8192 16.18 63.8257 15.9279 63.9139L15.8398 63.9155L15.9457 64.5902ZM18.6007 63.1745L18.6855 63.172C18.8487 63.0758 19.016 63.0717 19.1024 62.9868C19.2648 62.8137 19.2584 62.5629 19.2511 62.3121C19.1558 61.8946 18.9812 61.732 18.6476 61.7417C18.5651 61.8259 18.3906 61.8307 18.3906 61.8307C18.3906 61.8307 18.3947 61.9958 18.3971 62.0831L18.6007 63.1745ZM18.7138 64.1785C18.8003 64.3443 18.806 64.6007 18.8956 64.7666C18.9877 64.9324 19.155 64.9276 19.3222 64.9235C19.66 64.8273 19.8191 64.4875 19.7238 64.0692C19.7141 63.7319 19.5388 63.5636 19.3651 63.4043C19.1122 63.3298 18.9473 63.4156 18.7744 63.4204L18.6088 63.4245L18.7138 64.1785ZM29.7519 61.6633L29.0401 60.3317L28.8203 61.7709L29.7519 61.6633ZM5.01982 60.5218C5.03436 60.7807 5.0376 60.8656 5.221 61.0315L5.14263 61.1213C5.04729 61.0404 4.9568 60.9595 4.86873 60.8737C4.77501 60.7945 4.60049 60.8034 4.51 60.7241L4.57302 60.2872L4.58676 58.9095C4.57302 58.6522 4.57302 58.6522 4.39204 58.4888L3.98968 59.0284C3.90969 59.2048 3.67215 59.5591 3.59459 59.7355C3.60348 59.9094 3.69478 59.9895 3.87172 60.0672L3.78931 60.1578C3.61317 60.0809 3.43138 59.9183 3.25767 59.8382C3.07184 59.6805 2.89005 59.5146 2.62989 59.4459L2.70665 59.3553C2.88521 59.4321 2.9765 59.5098 3.14214 59.4184C3.31261 59.3229 3.55338 58.9637 3.63095 58.7922L4.50919 57.4493C4.59241 57.3579 4.83238 57.0011 4.91479 56.8264C4.98912 56.6508 4.81056 56.5723 4.71926 56.4914L4.71037 56.3191C4.97942 56.4785 5.16121 56.6411 5.43107 56.7989C5.6072 56.8725 5.78738 57.0383 5.87949 57.1184C6.32952 57.4404 6.69633 57.8497 6.29558 58.4727C5.89241 59.0155 5.46016 59.0381 5.01982 58.7979V60.5218ZM7.0995 59.3342C7.17464 59.1562 7.41541 58.7971 7.4962 58.7073C7.56973 58.4476 7.39198 58.3699 7.21584 58.2923L7.38309 58.1919L9.26562 59.3884L8.78085 60.102L8.69197 60.0227C9.01112 59.4912 8.82529 59.3269 8.3801 59.0066L8.10944 58.848C8.0238 58.7647 8.0238 58.7647 7.85897 58.9467L7.13989 60.1044C7.6788 60.5089 7.92765 60.2387 8.16842 59.962L8.25487 59.958C8.10055 60.2298 7.93573 60.4086 7.85493 60.5857C7.69657 60.8527 7.61982 61.0242 7.45742 61.2078L7.36531 61.1237C7.68365 60.5946 7.50186 60.432 7.05829 60.1942L6.57917 60.9967C6.5008 61.1706 6.33921 61.3535 6.34729 61.5209C6.36183 61.7814 6.54201 61.9521 6.72137 62.0217C7.16817 62.2579 7.42914 62.3283 7.83635 61.8834L7.92361 61.8793L7.44772 62.6705L5.29695 61.2337L5.3729 61.1439C5.47066 61.2248 5.64275 61.3049 5.81242 61.207C5.8908 61.1164 6.1348 60.7589 6.29801 60.5817L7.0995 59.3342ZM9.01435 62.393C8.93921 62.571 8.70248 62.931 8.71056 63.1001C8.6338 63.2764 8.80509 63.3573 8.9893 63.5191L8.90689 63.6065C8.72914 63.4471 8.54735 63.3703 8.27749 63.2044C8.10055 63.1324 7.92199 62.9731 7.74424 62.8962L7.73455 62.7198C7.9123 62.8007 8.09247 62.9634 8.17327 62.7878C8.33809 62.6883 8.58371 62.3348 8.66127 62.1544L9.45226 60.822C9.52659 60.6472 9.77059 60.2929 9.85058 60.1958C9.9233 59.9361 9.74797 59.8593 9.56941 59.7832L9.65182 59.691C9.83281 59.8552 10.097 59.9272 10.2812 60.0882C10.4549 60.1634 10.6383 60.3285 10.8161 60.4061C11.2572 60.6375 11.6329 61.1318 11.2298 61.7612C10.8339 62.4699 10.1342 62.3332 9.68738 62.016C9.60012 62.0201 9.41994 61.8575 9.41994 61.8575L9.01435 62.393ZM11.7784 61.8639C11.8446 61.5153 11.9141 61.2548 11.6483 61.0105L11.7283 60.9166C11.9012 60.9975 12.0902 61.1593 12.2639 61.237C12.4433 61.3106 12.6219 61.4748 12.8869 61.5436L12.8037 61.6326C12.7172 61.5517 12.453 61.4829 12.3738 61.6552C12.2955 61.8364 12.0838 62.7045 12.0046 62.9714L11.7436 64.4478L12.8222 63.5337C12.9822 63.3525 13.6423 62.7093 13.7191 62.5362C13.8799 62.2676 13.7005 62.1924 13.61 62.1082L13.6011 61.9392C13.7829 62.0985 13.9558 62.1786 14.0503 62.2579C14.2297 62.3364 14.4026 62.4124 14.4963 62.4949L14.5012 62.5758C14.1432 62.3412 13.8193 62.7878 13.4856 63.062L11.3437 65.0756L11.1675 64.9939L11.7784 61.8639ZM4.55525 58.3076C5.01013 58.6296 5.27917 58.8723 5.76476 58.2429C6.00553 57.8869 5.9829 57.459 5.71466 57.2972C5.62579 57.2195 5.44885 57.1411 5.44885 57.1411C5.35916 57.1459 5.36401 57.2333 5.27756 57.2381L4.55525 58.3076ZM9.58203 61.6771C9.58688 61.7644 9.67575 61.7596 9.76786 61.8397C10.1209 62.0775 10.4651 61.9748 10.7035 61.5306C11.0258 61.0841 10.9184 60.7435 10.5629 60.5073C10.3787 60.3414 10.3787 60.3414 10.2203 60.61L9.58203 61.6771ZM62.9091 37.329C62.947 37.583 62.8905 37.7925 62.7378 37.9576C62.5859 38.1234 62.2934 38.269 61.8628 38.396L61.4434 37.634C61.4685 37.024 61.2649 36.4391 60.8334 35.8801C61.012 35.7272 61.2907 35.5751 61.6713 35.4222C61.9508 35.2952 61.8999 35.2571 61.5194 35.3081C61.113 35.385 60.7954 35.4861 60.5676 35.6131H60.4908C60.7195 34.8001 61.0879 34.0243 61.5953 33.2873C61.723 32.9572 61.6462 32.9693 61.3667 33.3261C60.9352 33.9361 60.5547 34.5833 60.2242 35.2701C60.0723 35.1172 59.9576 34.8381 59.8816 34.4312C59.7798 33.9482 59.7047 33.9361 59.653 34.3931C59.7298 34.978 59.8437 35.3971 59.9964 35.6511C59.4381 36.5159 58.9937 36.8589 58.6641 36.681C58.8669 35.4602 59.1335 34.1763 59.4631 32.8294C60.0465 32.2453 60.5547 32.0544 60.9869 32.2574C61.5953 31.7753 62.1156 31.6855 62.5471 31.9905C62.7757 32.3723 62.8767 32.7477 62.8517 33.1158C62.8266 33.4847 62.6998 33.8972 62.4711 34.3551C62.9535 34.3551 63.208 34.5452 63.233 34.9263C63.0303 35.7919 62.6238 36.414 62.0146 36.795C62.5721 36.897 62.8711 37.0741 62.9091 37.329ZM61.7649 40.6086C61.676 41.2436 61.4668 41.7905 61.1371 42.2476C60.0957 43.4425 59.6642 44.1536 59.842 44.3825C60.1215 44.8655 60.0706 45.4115 59.6901 46.0223C59.1318 46.7083 58.3949 47.4712 57.4811 48.3093C57.7348 48.8182 57.5449 49.2502 56.9107 49.6061C56.173 50.0131 55.3619 50.369 54.4731 50.674C56.1229 49.4282 57.1385 48.0941 57.5191 46.6703C58.0523 46.1874 58.5226 45.8702 58.9282 45.7173C59.2837 45.4884 59.3467 45.3865 59.1188 45.4115C58.6623 45.5903 58.1792 45.8702 57.6718 46.2505C58.1541 45.2853 58.4959 44.2425 58.6995 43.1245C59.6901 42.1586 60.3122 41.3957 60.5659 40.8367C60.9206 40.3028 60.9335 40.1887 60.6039 40.4937C60.2225 41.1287 59.6392 41.8026 58.8522 42.5145C59.2069 41.4208 59.5244 40.2016 59.804 38.8539C59.9308 38.0659 59.8929 37.926 59.6901 38.4348L59.3087 39.7696C59.1318 39.2349 58.9282 38.828 58.6995 38.5489L59.1948 40.1499C59.093 40.7857 58.8522 41.6886 58.4709 42.8576C58.1162 41.8407 57.6459 40.9257 57.0626 40.1118C56.5294 39.4517 56.4405 39.4388 56.796 40.0738C57.3801 40.9136 57.8617 42.0186 58.243 43.3915C57.9384 44.6114 57.5829 45.6283 57.1765 46.4422C56.8719 45.9835 56.5544 45.6664 56.2248 45.4884C55.9702 45.3614 55.9702 45.4374 56.2248 45.7173C56.5544 46.0474 56.821 46.3775 57.0238 46.7083C56.7192 47.4461 56.3193 48.0941 55.8248 48.6531C55.3295 49.2122 54.8407 49.6822 54.3584 50.0632C54.9676 49.1232 55.1704 48.0812 54.9676 46.9373C54.9676 46.7342 55.1267 46.5684 55.4443 46.4422C55.7618 46.3144 55.8684 46.1744 55.7674 46.0223C55.4887 45.4633 55.3489 45.0184 55.3489 44.6875C55.5517 44.5864 55.8563 44.5864 56.2627 44.6875C56.5924 44.4585 56.5609 44.1349 56.1674 43.7151C55.7739 43.296 55.5267 42.6925 55.4249 41.9038C55.4249 41.4467 55.7295 41.2816 56.3395 41.4087C56.6182 41.3836 56.6433 41.0527 56.4146 40.4168L55.7674 39.5399C55.3101 38.523 55.5008 38.1549 56.3395 38.4348L57.3284 39.0448C57.9893 39.2988 58.306 38.8539 58.281 37.7108C58.281 37.4559 58.4773 37.3993 58.8708 37.5385C59.2651 37.6784 59.6262 37.3791 59.9567 36.6421C60.2863 36.2869 60.54 36.617 60.7178 37.6339C60.6418 38.9809 60.9715 39.6167 61.7083 39.5399C61.8344 39.6167 61.8538 39.9719 61.7649 40.6086ZM53.2147 49.073C52.7073 49.632 52.5417 50.2169 52.7203 50.8261C52.0093 51.2071 51.3233 51.7669 50.664 52.5039C50.0039 53.2409 49.503 53.8638 49.1596 54.3719C48.817 54.8799 48.4551 55.1857 48.0745 55.2868C47.6431 55.4907 47.1478 55.3888 46.5895 54.9819L46.4376 55.9357L43.8853 57.4994L42.6289 58.0326C42.7307 57.7777 42.7937 57.3465 42.8196 56.7357L43.2769 56.3547C45.0277 55.4397 46.0433 54.6008 46.3229 53.8379C46.6776 53.2029 47.0589 52.6754 47.4653 52.2564C47.8709 51.8365 48.1626 51.322 48.3411 50.712L48.3791 49.7971L48.2644 48.8433C48.6708 49.3011 49.0384 49.4031 49.3697 49.1482C49.9021 48.1572 50.4733 47.2358 51.0825 46.3839C51.6925 45.5329 52.3389 44.7384 53.0249 44.0015C53.71 43.2645 54.2933 42.6415 54.7765 42.1327L54.7385 43.0865C53.2147 44.9666 52.2638 46.2504 51.8824 46.9373C50.5873 48.8942 49.7114 50.445 49.2549 51.589C48.9754 52.224 48.569 52.7329 48.0365 53.1139C47.6301 53.3178 47.3255 53.533 47.1219 53.7619C46.945 54.0928 47.0468 54.1818 47.4265 54.0289C47.681 53.7748 47.9598 53.5847 48.2644 53.4569C48.8235 53.1778 50.016 51.8559 51.8444 49.4921L51.8057 48.1572L52.225 47.4324C52.1991 48.1694 52.2638 48.5763 52.4157 48.6531C52.5684 48.7292 52.7768 48.5197 53.0434 48.0237C53.3101 47.5278 53.9637 46.1623 55.0043 43.9246C54.7765 44.6114 54.7636 45.2085 54.9664 45.7173C54.3572 46.1493 54.1924 46.8863 54.4719 47.9283L53.2147 49.073ZM45.2576 60.3204C44.5975 60.2185 43.5318 60.0275 42.0589 59.7484L43.392 59.2905C44.1022 59.4434 44.5086 59.2905 44.6104 58.8335C44.7122 59.3666 44.9271 59.8625 45.2576 60.3204ZM48.1154 61.3308C48.8514 61.3939 49.4097 61.3623 49.7911 61.2353C50.4762 60.9554 51.8853 59.9134 54.0183 58.1086C56.0737 56.5578 57.8132 55.4778 59.2352 54.8678C59.6659 54.6138 59.6853 54.4293 59.2918 54.3152C58.8983 54.2004 58.3077 54.1429 57.5208 54.1429C57.2671 54.3468 57.2921 54.5118 57.5967 54.6388C57.953 54.6138 58.2059 54.6388 58.3594 54.7149C56.6579 55.6048 55.2359 56.4947 54.0934 57.3845C54.1952 56.7996 54.2841 55.7957 54.36 54.3719C54.335 53.9148 54.1831 53.5079 53.9035 53.1519C53.7258 52.8979 53.9666 52.6689 54.6267 52.4659L55.1607 52.313V53.1519L54.4368 52.961L54.5127 53.3428C54.6646 53.6227 54.9442 53.8129 55.3506 53.9148L57.4068 54.0289L58.3206 53.9908C59.3871 54.0167 59.9075 54.2764 59.8816 54.7723C59.8566 55.2682 59.8945 55.7318 59.9963 56.1638C60.1741 57.2575 60.6055 58.2995 61.2907 59.2905C61.1388 59.7484 60.8083 60.2823 60.3009 60.8923L58.3206 62.1883C56.6199 63.4083 54.3099 64.9971 51.3908 66.9541C49.3079 67.005 46.8081 66.84 43.8881 66.459C41.7818 66.1791 39.3571 65.6451 36.6149 64.8572L36.0065 64.7051L36.2732 64.4381C36.7046 63.8783 36.9389 63.5037 36.9769 63.3128C37.0157 63.1227 36.951 62.6907 36.7862 62.016C36.6214 61.3429 36.1455 60.5485 35.3594 59.6335V59.4054L35.9298 59.3285C37.5037 59.4305 38.9063 59.6335 40.1376 59.9385C41.3689 60.2435 42.8354 60.5234 44.5361 60.7774C46.186 61.0824 47.3793 61.2669 48.1154 61.3308ZM42.6704 69.0898C41.9845 69.0898 41.553 69.1651 41.3753 69.3188H40.842C40.106 68.8099 39.5218 68.3399 39.0904 67.9079L37.3008 66.497C37.6304 66.319 38.3414 66.3821 39.433 66.6879L42.6704 69.0898ZM44.0772 69.5089L44.4957 69.5849L44.3438 69.7758L43.3532 70.0808C42.9218 70.4619 42.4144 70.7159 41.8302 70.8437L41.1839 70.7288L41.0304 70.2718C41.1831 70.0428 41.3802 69.877 41.621 69.7758C41.8625 69.6739 42.1728 69.5849 42.5542 69.5089L43.468 69.6618L44.0772 69.5089ZM34.9748 64.0182L34.7849 63.4083L33.7556 64.7051L32.9185 65.239C32.5372 65.5691 32.1437 65.6961 31.7381 65.62L30.405 64.972L31.0901 64.6282L31.2808 64.7803C31.154 65.1621 31.3067 65.112 31.7381 64.6282L32.9185 63.4851C32.9945 62.7983 32.8297 61.9149 32.4233 60.8349C32.0169 59.7549 31.7123 59.0745 31.5095 58.7946C31.4594 58.5665 30.8752 58.5147 29.7578 58.6425C30.4171 58.3116 31.1919 58.2866 32.0807 58.5665L32.9945 58.9475L33.4914 58.7347L33.4203 58.6676L32.5751 58.2615L33.0333 58.2995L33.4203 58.6676L33.5277 58.7186L33.4914 58.7347L33.7556 58.9855C35.0507 60.3835 35.7803 61.3372 35.9459 61.8453C36.1108 62.3533 36.1301 62.8493 36.0033 63.3314C35.521 63.9681 35.1776 64.1962 34.9748 64.0182ZM25.2284 65.2576C23.9082 65.5505 22.7148 65.811 21.6483 66.0391C18.9829 66.5221 16.3554 66.9161 13.7659 67.2211C13.1058 67.0431 11.2015 66.0642 8.0545 64.2852C5.8205 62.9383 4.25954 61.8453 3.37079 61.0064C2.35519 59.9135 1.94879 59.2525 2.15158 59.0236C2.81249 57.9306 3.25606 56.9647 3.48471 56.1258C3.58651 55.7706 3.61156 55.4907 3.56066 55.2869C3.28191 54.4229 3.48471 53.9779 4.16985 53.9528C5.87141 53.8509 7.01385 53.825 7.5972 53.8768C7.85089 53.9019 8.01572 53.825 8.09247 53.6478L8.6637 52.5039L8.32112 52.351L7.82585 53.1139L7.78787 52.237C7.78787 52.11 7.86382 52.0719 8.01653 52.1229C9.08222 52.402 9.57749 52.758 9.50154 53.19C9.17109 53.7498 9.01839 54.3848 9.04424 55.0967L9.08222 57.0796C7.73697 56.1897 6.28993 55.4017 4.74108 54.7149C4.91883 54.6898 5.12243 54.6704 5.35027 54.6583C5.57893 54.6453 5.73163 54.5628 5.80758 54.4099C5.88352 54.2578 5.74375 54.1688 5.38906 54.1429C4.6013 54.1429 4.09391 54.2069 3.86525 54.3339C3.68831 54.5369 3.72548 54.7537 3.97998 54.9819C5.80758 55.8968 7.41945 56.8126 8.81559 57.7276C11.0245 59.1255 12.7382 60.2694 13.9558 61.1593C15.15 61.1334 16.8248 60.9684 18.9829 60.6634L22.2575 60.0534C23.6036 59.7986 24.9989 59.5834 26.446 59.4054C26.98 59.3286 27.6522 59.2784 28.465 59.2525C29.277 59.2266 30.026 59.1635 30.7112 59.0616C31.3713 60.3074 31.7777 61.4004 31.9304 62.3412C32.0055 62.8242 31.9425 63.0912 31.7397 63.1413C28.7187 64.2602 26.5478 64.9656 25.2284 65.2576ZM26.1422 66.84C25.0757 67.882 23.8694 68.8738 22.5242 69.8139L22.0677 69.6618C22.8538 69.1788 23.9712 68.39 25.4182 67.2979L26.0662 66.5731L25.7228 66.5342C25.2405 66.967 24.6887 67.4055 24.0665 67.8505C23.4452 68.2954 22.7278 68.7209 21.915 69.1278L20.8105 69.6618L21.0012 69.8899L21.839 70.0048C22.3214 70.309 22.5242 70.6148 22.4482 70.9198C22.1945 71.3008 21.7881 71.3526 21.229 71.0727L20.316 70.5767C19.9856 70.2459 19.6559 70.0169 19.3255 69.8899L18.9449 69.5849L19.0976 69.2039L20.2393 69.6618H20.5826L20.392 68.9749L21.7631 68.136C22.1178 68.0098 22.2705 67.793 22.2196 67.488L22.3343 66.802C22.9176 66.929 23.5519 66.8344 24.2378 66.5156C24.9238 66.1977 25.5701 66.014 26.1793 65.9623C26.5607 66.2171 26.5478 66.5091 26.1422 66.84ZM20.6951 59.7104L18.4102 60.0915L18.9434 58.5665L20.6951 59.7104ZM11.8984 50.5219L12.317 49.9872L13.3075 51.3981L13.8787 52.4279L14.0686 52.9999C13.7139 52.8211 13.4093 52.5549 13.1548 52.199L12.5456 51.3981L11.8984 50.5219ZM10.1094 46.9373L10.338 46.7084L11.4037 48.5003L11.2898 48.7292L10.1094 46.9373ZM17.1183 55.8588L16.6231 55.2108C16.4712 55.0328 16.2611 54.9948 15.9945 55.0967C15.7287 55.1987 15.5186 55.0458 15.3667 54.6389C14.6807 55.0458 13.9827 54.8929 13.2725 54.1818L12.0153 52.656L10.8349 50.6352L10.4164 50.3302C10.1756 50.4855 9.90896 50.5389 9.61648 50.496C9.1204 50.4305 8.54998 50.0996 7.97876 49.4921C7.62407 49.1612 6.86217 47.8522 5.69467 45.5652C4.14582 42.6157 3.09225 40.3918 2.53396 38.8927C2.12755 37.646 1.86093 36.8589 1.73408 36.5288C1.60642 36.1971 1.55633 36.1915 1.58138 36.5086C1.60642 36.8273 1.79791 37.5384 2.1526 38.6443C2.50891 39.7502 3.1682 41.3706 4.1329 43.5055C4.97075 45.2335 5.79567 46.8103 6.60847 48.2333C4.72998 46.2003 3.3718 44.2935 2.53396 42.5145C1.69611 40.7606 1.137 39.133 0.858258 37.6339C0.731409 37.1008 0.655461 36.2805 0.629607 35.1746C0.60456 34.0695 0.617487 33.4522 0.667581 33.326C0.794429 32.9442 0.972179 32.7792 1.20083 32.8293C1.35353 32.8293 1.70257 33.1926 2.24794 33.9166C2.79412 34.6415 3.53663 36.2675 4.47547 38.7964C5.41512 41.3253 5.99281 42.9846 6.20853 43.7725C6.42426 44.5605 6.63998 45.2465 6.8557 45.8314C7.07143 46.4163 7.33159 47.0133 7.63619 47.6233C8.09349 48.5383 8.54998 49.1612 9.00729 49.4921C9.61002 49.9184 10.0495 49.9953 10.338 49.717L8.94508 47.2229C8.81903 47.1678 8.67603 47.1565 8.51201 47.2042C8.48535 47.2051 8.46919 47.1953 8.44333 47.1945C8.44172 47.1986 8.4401 47.2051 8.43849 47.2051C8.3787 47.2042 8.33669 47.1832 8.28498 47.1735C7.88019 47.0983 7.70244 46.7763 7.78889 46.1744C7.83898 45.7173 8.00381 44.9286 8.28336 43.8105C8.84166 41.9296 9.64234 40.0617 10.683 38.2059C10.5561 39.0197 10.4923 39.7049 10.4923 40.2647C9.55266 42.3746 8.86751 44.0775 8.43606 45.3735C8.20741 46.3144 8.22034 46.7722 8.47404 46.7472L8.77864 46.5943L8.54998 46.0603L8.70269 45.6405L9.15918 46.4422L9.42581 46.2504L9.65446 46.5943L9.42581 46.9373L11.1395 49.4152L11.5588 49.073L11.8634 49.4152C11.3552 49.9233 11.1524 50.2541 11.2542 50.407C11.7107 51.246 12.13 51.919 12.5098 52.4279C13.2725 53.5459 13.8938 53.8638 14.3761 53.3809C14.5288 53.2531 14.7195 53.2797 14.9474 53.4569C15.176 53.6349 15.4305 54.0167 15.7085 54.6008L15.6713 53.7239L14.2614 52.3891L13.4623 50.7881C12.8022 49.848 12.3328 49.1232 12.0533 48.6143C11.7737 48.1063 11.4255 47.4963 11.0062 46.7844C10.5876 46.0725 10.0738 45.2724 9.46378 44.3825L9.57851 43.9634L10.7969 45.4504C11.8885 46.8483 12.656 47.9097 13.1004 48.6345C13.5448 49.3586 13.8049 49.5301 13.8817 49.1482L14.1095 48.4242L14.4529 48.6143L14.2242 50.102L14.1483 50.5591C14.1224 50.9151 14.1927 51.1254 14.3576 51.1885C14.5224 51.2524 14.6678 51.487 14.7955 51.894C14.8714 52.148 15.2706 52.6754 15.9945 53.4763C16.7176 54.2764 17.4803 54.9503 18.2794 55.4972C19.0792 56.0441 19.7393 56.4882 20.2597 56.8312C20.78 57.1742 21.0272 57.5108 21.0022 57.8416L21.7261 57.9945L21.5346 57.0796L21.9927 56.9647C22.2206 57.1176 22.4104 57.3975 22.5631 57.8028C23.2232 58.3117 23.7945 58.7186 24.2768 59.0236L22.6019 59.3286L19.7458 57.6127L17.1183 55.8588ZM5.0439 27.2255C4.79021 29.2585 4.57448 30.8473 4.39673 31.9904L4.24484 31.6854C4.09213 31.4573 4.35876 29.9704 5.0439 27.2255ZM6.30285 38.5489C6.30285 38.0408 6.24549 37.7229 6.13157 37.5959C6.01684 37.4689 5.90292 37.2335 5.78819 36.8905C5.67426 36.5474 5.50298 36.0386 5.27433 35.3655C5.04568 34.6916 4.88085 34.0881 4.77905 33.5542C4.77824 33.5542 4.77744 33.5534 4.77663 33.5526V33.5534C4.72249 33.5291 4.67563 33.4943 4.62392 33.466C4.02281 33.1554 3.57439 32.6756 3.29403 32.0098C2.98943 31.2858 2.70422 30.3385 2.4376 29.1695C2.17097 28.0005 2.06352 26.6017 2.11361 24.9749C2.24046 23.0438 2.52001 21.1621 2.95146 19.333C3.58651 16.7903 4.88085 14.3763 6.8353 12.0885C7.26674 11.6055 7.53337 11.4906 7.63517 11.7447C7.73697 12.7616 7.73051 13.7469 7.61659 14.6999C7.50186 15.6529 7.25462 16.7143 6.87408 17.8841C5.88352 21.188 5.28725 23.4127 5.08365 24.5558C4.7031 25.9036 4.28458 27.6575 3.82728 29.8183C3.62368 28.7755 3.74487 26.5831 4.18924 23.2404C4.63281 19.8976 5.19838 17.5152 5.88352 16.0914C6.21317 15.3544 6.20105 15.2403 5.84555 15.7483C4.2967 18.3921 3.39583 22.2939 3.14214 27.4536C3.09123 29.2585 3.19223 30.5617 3.44673 31.3618C3.70043 32.1627 3.9921 32.6263 4.32256 32.7541C4.36619 32.7792 4.41224 32.797 4.45829 32.8083C4.50354 32.8196 4.55121 32.8237 4.59807 32.8204C4.69422 32.814 4.79198 32.7792 4.89378 32.7153C5.04568 31.7493 5.14748 30.9678 5.19838 30.37C5.24928 29.773 5.31876 29.074 5.40764 28.2739C5.49651 27.4722 5.65487 26.8056 5.88352 26.2717L6.03623 26.4238C5.78172 27.5936 5.64841 28.4074 5.63629 28.8645C5.62336 29.3216 5.59185 29.7794 5.54095 30.2365C5.49005 30.6944 5.43915 31.5722 5.38906 32.8674C5.69366 31.8254 6.0233 30.8344 6.3788 29.8935L7.55922 26.4626L9.08222 22.8407C9.92007 21.2131 11.0884 19.358 12.5855 17.2733C13.4743 16.2313 14.2604 15.6715 14.9464 15.5963C15.1241 15.8503 15.1241 16.3713 14.9464 17.1584C14.7686 17.9472 14.464 18.7732 14.0326 19.638C14.0237 19.6533 14.0156 19.6679 14.0067 19.6833C14.0075 19.6841 14.0067 19.6841 14.0075 19.6841C13.8992 19.8831 13.7918 20.0692 13.6851 20.2609C13.5914 20.4267 13.4977 20.599 13.4056 20.76C13.2917 20.9566 13.1794 21.1403 13.0662 21.3287C12.9766 21.4792 12.8853 21.6362 12.7956 21.7818C12.6792 21.9695 12.5653 22.1426 12.449 22.3222C12.3633 22.4557 12.2761 22.5964 12.1904 22.7259C12.0765 22.8966 11.9634 23.0543 11.8495 23.2169C11.763 23.3415 11.6758 23.4726 11.5893 23.5915C11.4746 23.75 11.3623 23.8941 11.2475 24.0437C11.1627 24.1554 11.0779 24.2727 10.993 24.3794C10.8759 24.5275 10.7587 24.6618 10.6424 24.8009C10.5624 24.8964 10.4824 24.9983 10.4024 25.0881C10.2723 25.237 10.1431 25.3713 10.013 25.508C9.94754 25.5767 9.88209 25.6528 9.81584 25.7191C9.62112 25.9157 9.42802 26.1002 9.23492 26.2717L11.8624 22.0018L13.1188 19.7132C13.6011 18.8492 13.69 18.5442 13.3846 18.799C10.8217 22.662 9.28501 25.0897 8.77762 26.0816C8.26941 27.0726 7.77495 28.0005 7.2926 28.8645C6.81025 29.7285 6.49272 30.4024 6.34083 30.8853C6.18812 31.3683 5.87141 32.2323 5.38906 33.4781C5.38906 33.7063 5.54095 34.368 5.84555 35.4602C6.15015 36.5539 6.41031 37.1954 6.62604 37.3856C6.84176 37.5773 6.86115 37.786 6.6834 38.0158C6.60745 38.2188 6.65755 38.5998 6.8353 39.1597C6.96214 39.7696 7.25462 40.6086 7.71112 41.6756L7.5972 42.0567C7.11485 40.9888 6.6834 39.8198 6.30285 38.5489ZM7.78598 17.7303C8.80158 16.0784 10.0192 13.7404 11.4412 10.7148C11.8726 9.82569 12.5069 8.82173 13.3455 7.70371C13.5992 7.11881 13.4594 7.13175 12.9262 7.74173C11.6827 9.29256 10.2357 11.7446 8.58505 15.1003L9.30817 13.2704C9.43582 12.8634 9.84222 11.942 10.5274 10.506C11.2125 9.06928 11.8855 7.93184 12.5456 7.09292C13.2057 6.25481 13.6622 5.70793 13.9167 5.45391C14.8297 4.66596 15.3638 4.29706 15.5157 4.34802C15.6425 4.44915 15.6805 4.61499 15.6304 4.84393L13.764 9.64771C12.5456 12.0116 10.9467 14.4774 8.9664 17.0451C8.12855 17.9601 7.60823 18.5442 7.40462 18.799C7.20183 19.053 7.037 19.2941 6.91016 19.523L7.06205 18.8742L7.78598 17.7303ZM5.84375 24.4029C6.0215 23.259 6.26308 22.217 6.56768 21.277L6.87228 21.658L5.84375 24.4029ZM7.10294 26.2336L6.34184 28.2925L5.80859 30.0844L5.99927 28.5595L6.2659 27.4536L6.49374 26.3485L7.10294 26.2336ZM8.81559 22.0771C8.28234 23.0689 7.87675 23.9588 7.5972 24.7467L7.2926 24.7079L8.09247 22.23L8.81559 22.0771ZM17.1173 8.38897C17.5237 8.16084 17.8025 8.07185 17.9552 8.12281C18.057 8.37684 18.082 8.72632 18.0303 9.17126C17.9802 9.61621 17.6506 10.5498 17.0414 11.9736L15.6323 14.7193C14.6418 14.8463 13.7029 15.3034 12.8134 16.0914C13.2715 15.3034 13.8225 14.4014 14.4705 13.3845C15.1176 12.3676 16.1268 10.8426 17.4979 8.80884C17.7265 8.4278 17.7322 8.33234 17.5173 8.52245C17.3007 8.71418 16.723 9.4447 15.7842 10.7148C14.8445 11.9865 13.5882 13.9564 12.0143 16.6253C11.847 16.8817 11.5861 17.283 11.2322 17.825C10.6666 18.6955 9.8627 19.9324 8.81559 21.5439C8.68874 21.6709 8.3082 21.747 7.67314 21.7721L6.41677 25.4716C6.51777 25.6237 6.8353 25.5727 7.36855 25.3187C7.11485 25.8016 6.7343 26.0686 6.2261 26.1188L5.9215 25.8906L5.7696 25.3187L5.80758 24.9749L6.11218 25.0129L7.4453 21.62L6.64543 20.6282L6.8353 20.057C7.08899 20.5901 7.33057 20.883 7.55922 20.9332C7.91472 20.2479 8.42858 19.3136 9.10161 18.1308C9.77463 16.9489 10.5672 15.7483 11.481 14.5276L11.4431 14.2226C11.4431 14.0454 11.5319 14.0325 11.7097 14.1846L13.614 11.4397L12.0523 14.1474C12.306 14.4265 12.192 14.6174 11.7097 14.7193C10.0849 16.8801 8.84064 19.0272 7.97774 21.1621L8.3591 21.277C8.58694 21.3789 8.80347 21.277 9.00627 20.972L11.3291 16.8534L13.5381 12.7357C14.5787 10.8815 15.7721 9.43176 17.1173 8.38897ZM19.4588 4.15715C20.8428 3.01405 22.4991 2.12335 24.4277 1.4883C25.3682 1.23427 26.1793 1.12021 26.8653 1.14529C27.1949 1.22133 27.2846 1.41225 27.1319 1.71724L26.2941 2.82313C25.558 2.92506 24.5489 3.34412 23.2667 4.08111C21.9853 4.81809 20.6077 5.79697 19.1356 7.01693L18.6015 7.35994C18.3228 7.15688 17.8154 7.24587 17.0794 7.6269C19.4143 5.66996 21.4455 4.18304 23.1721 3.16614C24.2887 2.60713 24.9359 2.21315 25.1137 1.9834C24.5554 2.13711 23.7684 2.48659 22.7528 3.03266C21.7372 3.57872 20.0615 4.71616 17.7265 6.44497L15.4796 8.46583C16.7497 6.73702 18.0756 5.30106 19.4588 4.15715ZM28.0457 3.24218C28.0457 3.72515 27.754 4.25908 27.1699 4.84398C26.2811 5.65702 25.1702 6.40695 23.8379 7.09297C22.5056 7.7798 20.7725 8.59284 18.6403 9.53288V9.30475C21.229 7.37288 23.6286 5.79697 25.8376 4.57702C26.4209 4.22106 26.3708 4.11913 25.6849 4.27203C24.9238 4.65306 24.0859 5.12308 23.1721 5.6829C21.6483 6.67391 20.1633 7.65198 18.7163 8.61872L18.7542 8.16084C21.6483 5.6198 24.0213 3.97917 25.8747 3.24218C26.7893 3.03913 27.5125 3.03913 28.0457 3.24218ZM15.7449 15.331C15.7102 15.4798 16.0115 15.0074 16.4228 14.2963L16.7516 15.0203C16.4228 15.3099 16.1028 15.623 15.7861 15.9417C15.7894 15.729 15.778 15.5235 15.7449 15.331ZM7.21875 29.9534C7.59526 29.1589 8.05983 28.2804 8.61813 27.3217C8.6666 27.2554 9.06008 26.8266 9.18127 26.7967C9.27823 26.7724 9.40265 26.7053 9.54485 26.6066L9.80824 26.7546C9.59979 27.7278 9.45921 28.6323 9.38084 29.5068L7.21875 29.9534ZM18.3912 11.6201L20.0483 13.1289L20.1889 13.0439C21.0712 12.5108 21.9842 12.0456 22.9004 11.6614L23.0523 11.5983L22.8002 9.38163C23.3472 9.17858 24.6278 8.76195 25.182 8.60177L26.3067 10.5506L26.4667 10.511C27.3861 10.2804 28.3977 10.1178 29.4739 10.0288L29.6387 10.0143L30.075 7.83242C30.3465 7.8219 30.8078 7.81543 31.3306 7.81543C31.8541 7.81543 32.3171 7.8219 32.5878 7.83242L33.041 10.0151L33.2042 10.0288C34.2004 10.1089 35.1853 10.2675 36.2139 10.511L36.3746 10.549L37.4654 8.60177C38.0326 8.76114 39.3237 9.17777 39.861 9.38001L39.6089 11.5975L39.7608 11.6614C40.6915 12.0545 41.6102 12.5197 42.49 13.0447L42.6314 13.1297L44.0615 11.7997C44.1318 11.8393 44.2166 11.8725 44.3249 11.8927C44.4493 11.9073 44.5826 11.9178 44.7111 11.9299C45.2476 12.311 45.9546 12.8368 46.2996 13.1062L45.3777 15.136L45.5005 15.2436C46.2874 15.9304 46.9952 16.6399 47.665 17.4108L47.7741 17.5354L48.5836 17.1568C48.6079 17.4303 48.683 17.6875 48.8357 17.8776C48.7509 17.8356 48.3873 18.0912 48.2572 18.2926C47.783 19.0264 48.8099 20.0797 48.9731 20.4413C48.8939 20.4324 48.6103 20.5764 48.46 20.684C48.1061 20.9348 48.2265 22.1992 49.2308 22.4144C49.4813 22.5366 50.6342 23.2073 51.2103 23.7938C51.3226 23.9086 51.6458 24.5178 52.1063 25.1229C52.3527 25.4465 52.6121 25.9918 53.214 26.0055C53.2181 26.0177 53.2237 26.0298 53.2278 26.0428L52.335 26.5508L52.3754 26.7126C52.6056 27.634 52.768 28.6469 52.8577 29.7245L52.8706 29.8895L55.0675 30.3255C55.0901 30.904 55.0901 32.2631 55.0675 32.8407L53.071 33.2533C53.012 33.0009 52.949 32.7541 52.8771 32.5268C52.7591 32.1514 52.5111 31.971 52.2954 31.8861C52.2065 31.8513 51.6385 31.8828 51.5294 32.3205C51.4995 32.073 51.0996 31.9249 50.8031 31.8545C49.9709 31.6571 49.0789 33.2589 49.1791 34.7467C49.0773 34.6658 48.969 34.6099 48.8624 34.5646C49.1322 32.9645 49.188 31.3214 49.0086 29.6767L48.9715 29.3337L39.5968 32.6813L47.602 26.5476L48.1837 26.1018L47.4509 26.084L37.5171 25.8575L47.0251 23.2097L46.8578 22.9079C44.3605 18.4099 40.0298 15.2201 34.9761 14.1555L34.6383 14.0835L34.9227 24.0591L31.5649 14.5325L31.3209 13.8408L31.0785 14.5333L27.7901 23.9264L28.2127 14.0544L27.8741 14.1207C22.8414 15.1117 18.4784 18.2457 15.9059 22.7186L15.7338 23.0179L25.2855 25.8405L15.2087 26.084L14.4758 26.1026L15.0592 26.5476L22.9691 32.5802L13.7099 29.1274L13.6695 29.4721C13.5839 30.1864 13.5499 30.9007 13.5532 31.6118C13.4627 31.3214 13.3706 31.0698 13.3043 30.9242C13.2502 30.8069 13.0853 30.9339 13.0797 30.9371C12.014 31.5827 11.5405 32.9976 11.1608 34.7531L10.8562 35.0339C10.617 35.334 10.3892 35.6463 10.1694 35.9626C9.99088 35.0557 9.86807 34.2265 9.80344 33.4579L9.7897 33.2945L7.59772 32.8423C7.58722 32.259 7.58722 30.9056 7.59772 30.3231L9.79051 29.8709L9.80424 29.7067C9.88019 28.7529 10.0329 27.7667 10.2696 26.6899L10.3052 26.5306L9.91413 26.3113C11.6755 24.7605 15.203 19.8961 15.7193 16.6407C16.1871 16.148 16.6646 15.6731 17.1591 15.2444L17.2835 15.1368L16.688 13.8262C16.9724 13.3214 17.2811 12.7551 17.5622 12.2123C17.8854 11.9777 18.1916 11.7576 18.3912 11.6201ZM46.4542 12.6694C46.2175 12.4873 45.887 12.2398 45.5469 11.9914C45.7747 12.0019 46.0034 12.0157 46.228 12.0108C46.2425 12.1856 46.3435 12.4582 46.4542 12.6694ZM45.0304 10.6776L45.2882 10.2439C44.4616 9.86695 43.6989 9.41715 43.6602 8.38892L44.3453 8.12277C44.6499 7.76681 44.6564 7.49985 44.3639 7.32187C44.0722 7.14389 43.9139 6.67387 43.888 5.91099C44.1676 5.30101 44.8535 5.30101 45.9442 5.91099C46.4274 4.97095 47.0116 4.69104 47.6959 5.07288C46.9598 5.07288 46.5284 5.39 46.4015 6.02587C46.3256 6.43198 46.3256 6.92789 46.4015 7.51198C46.1479 7.15683 45.8424 6.85185 45.4878 6.59782C44.8018 6.24187 44.6749 6.27989 45.1064 6.71189C45.5378 7.14389 45.9192 7.58883 46.2488 8.04672C45.6905 8.5038 45.0813 8.70767 44.4221 8.6567C44.1926 8.75782 44.2306 8.82173 44.536 8.84762C44.8398 8.92367 45.1961 8.89778 45.6025 8.77077C45.5508 9.17769 45.6841 9.85238 45.8626 10.2593C46.1034 10.6064 46.425 10.913 46.8015 11.1913C46.6237 11.2422 46.4775 11.3369 46.4024 11.5157C45.407 11.5327 44.9739 11.5197 44.7719 11.4356C44.7291 11.4065 44.6895 11.3789 44.6507 11.3523C44.6354 11.332 44.6232 11.311 44.6135 11.2867C44.5594 11.1176 44.5303 10.9631 45.0304 10.6776ZM42.0589 7.43679L42.1348 6.55985L41.4117 6.71194C40.7258 6.94088 40.0414 6.73702 39.3555 6.10196C38.899 6.178 38.7075 6.00003 38.7842 5.56803C38.962 5.18618 38.9111 4.98313 38.6323 4.95805L37.5271 5.07293C36.8161 4.97099 36.3466 4.76794 36.1188 4.46214C35.9669 4.20812 36.0679 3.89099 36.4234 3.50915C35.7374 3.23005 35.3125 2.92506 35.1476 2.59418C34.9828 2.26331 35.0838 1.99715 35.4522 1.79329C35.8207 1.59023 36.4993 1.55221 37.4891 1.67922C37.2604 1.40012 37.1974 1.10726 37.2992 0.802274C37.3243 0.497285 37.9844 0.662319 39.2787 1.29818L40.0414 1.75526C40.2442 1.37423 40.586 1.26016 41.0691 1.41225C41.6533 1.69216 42.1987 2.0287 42.7061 2.42187C43.2135 2.81666 43.7847 3.38214 44.4205 4.11913C44.953 3.76398 45.3335 3.83922 45.563 4.34807L45.6761 5.26304C45.1178 4.72911 44.4327 4.69108 43.6199 5.14897L43.0874 4.92003C42.3506 4.03014 41.9062 3.35706 41.7543 2.89917C41.6016 2.31508 41.5264 2.26331 41.5264 2.74708C41.5515 3.25513 41.8561 3.90394 42.4394 4.69108C41.3228 4.33594 40.5044 3.87805 39.9832 3.31904C39.4637 2.75922 39.0638 2.2892 38.7842 1.90816C38.5047 1.45027 38.3908 1.45027 38.4417 1.90816C38.7463 2.46717 39.1656 2.98816 39.698 3.47113C39.2916 3.29315 38.9111 3.11517 38.5556 2.9372C37.6668 2.55535 36.9308 2.35311 36.3466 2.32722C36.0679 2.32722 36.055 2.37818 36.3095 2.48012C37.2992 2.73414 38.0167 2.96875 38.4611 3.18555C38.9046 3.40075 39.2036 3.59895 39.3555 3.77612C38.6445 4.08111 37.9084 4.22106 37.1473 4.19598C36.6642 4.17009 36.4484 4.18304 36.4993 4.234C36.5502 4.28416 36.703 4.33594 36.9558 4.38609C37.8704 4.48803 38.7972 4.38609 39.7368 4.08111C40.4212 4.43706 41.2218 4.78007 42.1348 5.11095C41.5765 5.23796 41.0304 5.49198 40.4979 5.87302C40.2943 6.12785 40.3961 6.13998 40.8025 5.91104C41.2089 5.60605 41.8181 5.41594 42.6301 5.33989L43.2781 5.60605C43.2264 6.29288 43.392 6.99185 43.7726 7.70376L43.3532 7.85585L42.0589 7.43679ZM49.5238 6.3681C49.5489 6.01295 49.784 5.90455 50.2284 6.0445C50.6727 6.18446 51.0848 7.13178 51.4653 8.88567L52.0745 9.11381C52.2781 8.63084 52.443 8.38976 52.5706 8.38895C52.7726 8.38976 52.9754 8.80882 53.179 9.64774C53.6864 10.1056 53.928 10.8547 53.9029 11.8967C53.5733 12.3303 53.3947 12.8635 53.3697 13.4985L53.0651 12.8125C52.8873 12.0504 52.8106 11.2495 52.8372 10.4098C52.8106 10.0547 52.7726 10.0547 52.7225 10.4098C52.6458 11.1476 52.6336 11.7705 52.6845 12.2786C51.9986 11.3887 51.2625 10.5878 50.4756 9.87668C50.3229 9.31767 50.2728 8.68181 50.3229 7.9699C50.2477 7.35992 50.1831 7.21996 50.133 7.55084C50.0821 8.31372 50.108 9.02563 50.209 9.68576C49.6248 9.10086 48.9397 8.25061 48.1527 7.13178C47.9499 6.77502 47.8602 6.69978 47.8861 6.90284C48.3684 7.81781 48.8758 8.58068 49.4091 9.19066C49.9431 9.80064 50.3746 10.2828 50.7042 10.6396C50.0441 10.4357 49.4729 10.303 48.9906 10.2391C48.5082 10.1752 48.0638 10.0417 47.6574 9.83785C47.2769 9.76261 47.289 9.85079 47.6954 10.1056C47.9249 10.2577 48.3878 10.3977 49.0859 10.5247C49.784 10.6517 50.4376 10.8677 51.0468 11.1727C51.3765 11.3765 51.8208 11.8975 52.3791 12.7356L52.8372 13.7655C52.1262 13.3845 51.3385 13.1175 50.4756 12.9654C49.6119 12.8125 49.1045 12.6725 48.9526 12.5455C48.2925 12.2656 48.2165 12.2915 48.7239 12.6216C48.8758 12.7745 49.4156 12.946 50.3423 13.1369C51.269 13.327 52.1642 13.6894 53.0271 14.2226L53.1031 14.4523C52.9253 14.6554 52.8623 14.9345 52.9124 15.2912L53.179 16.0533C52.9504 15.7734 52.6336 15.9012 52.2272 16.4352C52.3791 16.1043 52.3412 15.7993 52.1133 15.5194C51.7578 14.9863 50.8941 14.4143 49.5238 13.8043L49.2952 14.2226C48.1778 13.8674 47.4805 13.2065 47.2009 12.2405C47.1759 11.9356 47.4417 11.7641 48 11.7252C48.5591 11.688 48.648 11.5286 48.2666 11.2495C47.5306 10.9947 46.9214 10.5627 46.4399 9.95273C46.1086 9.52073 46.1086 9.21574 46.4399 9.03776L47.0111 8.88567L47.2769 8.54185L46.9343 7.20702C46.8325 6.52181 47.0232 6.03803 47.5055 5.75812C48.1915 5.657 48.8637 5.86005 49.5238 6.3681ZM48.7544 15.9344C48.6785 16.1439 48.617 16.4036 48.5896 16.6706L47.8891 16.9982C47.2734 16.2993 46.6246 15.6505 45.9136 15.0211L46.7628 13.1507C46.8977 13.323 47.0747 13.526 47.2944 13.7655C47.7081 14.2153 48.4854 14.657 49.1406 14.9361C49.0986 14.9838 48.9184 15.4789 48.7544 15.9344ZM54.9582 29.8555L53.2833 29.5222C53.1952 28.5457 53.0474 27.6211 52.8438 26.7676L53.3818 26.4618C53.7826 27.6211 54.315 28.7504 54.9582 29.8555ZM57.7146 33.0356C57.8665 32.9847 58.2083 33.0275 58.5387 33.0275C58.1832 34.9586 57.7728 37.0741 57.4431 38.396L56.9107 38.091C57.3672 36.2619 57.6128 34.2054 57.7146 33.0356ZM54.9231 38.6759C54.9441 38.6484 54.6282 38.6023 54.4545 38.6994C54.5927 38.2649 54.7131 37.8701 54.7543 37.6808L54.7898 37.5239L52.9849 36.4868C53.0551 36.3881 53.1287 36.2797 53.1893 36.1713C53.3904 35.8096 53.3727 34.957 53.2329 34.063C53.2482 33.9279 53.2709 33.7904 53.2822 33.6585L55.4871 33.2031L55.4984 33.0372C55.5243 32.6853 55.5299 31.5366 55.5178 30.7664C55.5994 30.8958 55.6745 31.0261 55.7586 31.1547C55.7537 31.2065 56.7499 32.2663 57.1087 33.2257C56.9875 33.8462 57.0028 34.3802 56.9996 34.4101C56.8687 35.6365 56.6481 36.7618 56.3395 37.786C55.2592 37.2642 55.0823 37.9761 54.9231 38.6759ZM54.2865 37.7415C54.2445 37.8968 54.1782 38.1161 54.1031 38.3572C53.8825 38.1889 53.5714 38.1136 53.3864 38.2447C53.3775 38.2512 53.0406 38.4882 52.8305 38.6484C52.7594 38.7026 52.6972 38.2989 52.6738 37.998C52.6633 37.8014 52.6285 37.1526 52.7384 36.8516L54.2865 37.7415ZM14.602 32.9822C14.9317 32.9062 14.9963 33.0591 14.7927 33.4393L14.0688 34.508C14.0187 34.0752 13.954 33.7063 13.8789 33.4013C14.1326 33.2241 14.3734 33.0841 14.602 32.9822ZM14.3751 35.4982L14.1473 35.918L14.1085 35.1552L14.6797 34.4311C15.0611 34.0501 15.2259 34.2532 15.175 35.0411C15.0991 36.185 14.8445 37.6088 14.4131 39.3118C14.3881 37.9138 14.325 36.973 14.2232 36.49L14.5658 35.537C14.5917 35.2061 14.5278 35.1932 14.3751 35.4982ZM24.5432 33.7774L24.5206 33.8535L18.3203 42.915C16.9743 41.3552 15.9441 39.5819 15.2315 37.6946C15.507 36.3646 15.6864 34.8696 15.5959 34.3162C15.5192 33.9101 15.4238 33.7006 15.3099 33.6876C15.196 33.6747 15.0877 33.7062 14.9859 33.7831L15.2146 33.326C15.3414 32.9943 15.3414 32.7791 15.2146 32.6772C15.1507 32.6101 14.6555 32.6093 14.1448 32.7897C14.0754 31.8262 14.0802 30.8546 14.1755 29.8813L24.4624 33.716L24.5432 33.7774ZM38.0759 47.472C35.9518 48.3724 33.6192 48.8473 31.3069 48.8473C28.9105 48.8473 26.5924 48.3643 24.4102 47.4097L31.2422 38.7996L31.3262 38.7422L31.3909 38.7875L38.0759 47.472ZM48.0386 35.842C47.3672 38.4931 46.0728 40.9767 44.2202 43.0663L38.1541 33.9085L38.125 33.8115L38.1872 33.7637L48.5056 30.0796C48.6373 31.5673 48.5735 33.051 48.3287 34.4975C48.0305 34.559 47.8213 34.8049 47.873 35.2523C47.894 35.4294 47.9554 35.6293 48.0386 35.842ZM35.2034 14.7622C39.8443 15.8373 43.8267 18.7691 46.2134 22.8715L35.6429 25.8146L35.5427 25.813L35.5161 25.7377L35.2034 14.7622ZM27.0624 25.7976L16.5542 22.6927C19.0087 18.6146 23.0178 15.7338 27.6417 14.725L27.1731 25.6981L27.1384 25.7952L27.0624 25.7976ZM27.3291 26.3065L27.5068 26.3016L27.5658 26.1333L31.3244 15.3964L35.1153 26.1511L35.1743 26.3194L35.3537 26.3234L46.7095 26.5831L37.6685 33.5097L37.5263 33.6189L37.578 33.7888L40.834 44.6891L31.4698 38.2172L31.3236 38.1161L31.1773 38.2172L21.8301 44.6891L25.087 33.754L25.1371 33.5833L24.9965 33.4749L15.9563 26.5823L27.3291 26.3065ZM9.42317 37.1372C9.1412 37.6299 8.88588 38.1412 8.66289 38.6686C8.54654 38.3078 8.43828 37.9672 8.36798 37.7383L9.42317 37.1372ZM6.98894 37.0999C6.73605 36.8459 6.40559 35.702 6 33.6682C6.02505 33.1343 6.24077 32.3342 6.64717 31.2663C6.78695 30.9006 6.96874 30.4897 7.16992 30.0609L7.16749 30.1353C7.15053 30.6086 7.15053 32.5558 7.16749 33.0291L7.17315 33.2014L9.38452 33.6585C9.46208 34.5015 9.60267 35.4051 9.81274 36.4115L7.85022 37.5295L7.89869 37.6961C7.97302 37.9453 8.19925 38.658 8.41174 39.3093C8.2146 39.8529 8.0522 40.4119 7.93182 40.9887C7.70317 40.6336 7.57309 40.1183 7.37029 39.4452C7.16749 38.7713 7.10367 38.3199 7.18042 38.0909C7.38322 37.7358 7.3202 37.4057 6.98894 37.0999ZM10.6837 37.6719C9.56625 39.6038 8.70336 41.5227 8.09416 43.4295C7.94146 44.0144 7.81461 44.7134 7.71281 45.5264C7.63686 44.4844 7.80815 43.029 8.22747 41.1603C8.646 39.2931 9.60423 37.354 11.1022 35.3461C10.8485 36.3889 10.7087 37.1639 10.6837 37.6719ZM10.7199 44.3445L9.88209 43.2766L10.4913 41.7517C10.4654 42.5906 10.5422 43.4546 10.7199 44.3445ZM12.6984 32.3723C12.292 34.4813 12.0504 37.189 11.9745 40.4937L11.9365 42.6674L11.8606 45.6405L11.3653 45.0685C11.0098 43.2896 10.8571 41.4208 10.908 39.4647C10.9847 38.0158 11.2126 36.452 11.5939 34.7741C12.1272 32.6643 12.6346 31.5455 13.1169 31.4185C13.3957 32.1563 13.6243 33.5226 13.8021 35.5184C13.9798 37.5126 13.9798 39.3118 13.8021 40.9136C13.5742 42.9465 13.2309 44.3194 12.7744 45.0305L12.2791 46.0984C12.2791 44.5225 12.2985 43.2394 12.3364 42.2476C12.3744 41.2558 12.4124 39.9403 12.4504 38.3013C12.4883 36.6615 12.5966 34.8 12.7744 32.7153C12.8762 32.2072 12.8503 32.0923 12.6984 32.3723ZM49.8021 46.5708L47.7572 45.6477L47.6505 45.7731C47.03 46.5036 46.3222 47.2115 45.4876 47.938L45.364 48.0464L46.3004 50.0729C45.8383 50.4216 44.75 51.2257 44.2749 51.5469L42.6153 50.0365L42.4756 50.1206C41.6264 50.6343 40.7126 51.106 39.7608 51.5218L39.6122 51.5865L39.8634 53.7975C39.3189 53.9916 38.0334 54.405 37.4646 54.5765L36.361 52.6334L36.2018 52.6706C35.2718 52.8874 34.2861 53.0459 33.1865 53.1535L33.0249 53.1697L32.5902 55.3451C32.3172 55.3507 31.8582 55.354 31.3395 55.354C30.8184 55.354 30.353 55.3507 30.0759 55.3451L29.6242 53.1503L29.4602 53.1365C28.5125 53.0589 27.4985 52.9019 26.4474 52.6698L26.2874 52.635L25.2015 54.5765C24.6432 54.4067 23.3618 53.9916 22.8043 53.7959L23.0548 51.5671L22.9045 51.5032C21.9721 51.1108 21.0535 50.6457 20.1744 50.1198L20.0338 50.0365L18.3937 51.5453C17.9162 51.2184 16.8198 50.4256 16.3649 50.0745L17.2852 48.0302L17.1648 47.9234C16.3366 47.184 15.6272 46.4794 14.9978 45.7691L14.8904 45.6485L12.8689 46.5692C12.8091 46.4891 12.7331 46.3863 12.6523 46.2755C12.9949 45.7731 13.4433 44.8752 13.7221 43.8542C14.1139 42.4255 14.2949 40.8488 14.2788 40.2469C14.3385 40.1337 14.3547 40.1029 14.4242 40.0342C14.6173 39.8853 14.8282 39.3263 15.0172 38.6087C15.7807 40.3909 16.819 42.0639 18.1448 43.5395L18.3759 43.796L24.0122 35.5588L21.1278 45.2441L20.9185 45.9471L21.5213 45.5304L29.7002 39.8675L23.5508 47.6176L23.8651 47.7616C26.2114 48.8432 28.7153 49.3925 31.3064 49.3925C33.8111 49.3925 36.3383 48.8521 38.6152 47.8304L38.9294 47.6896L32.8569 39.8012L41.1465 45.5304L41.7492 45.9471L41.5391 45.2441L38.6895 35.702L44.1513 43.9481L44.3864 43.6932C46.277 41.6449 47.6335 39.2074 48.3971 36.5927C48.9618 37.6355 49.7779 38.7916 49.8142 39.4274C49.2899 38.959 48.1013 38.9461 48.0989 40.0843C48.0989 40.429 48.3809 41.0163 48.4981 41.2654C48.2565 42.4789 49.6534 43.368 50.7943 44.5119C50.7838 44.8137 50.8371 44.948 50.9163 45.0458C50.543 45.5709 50.0582 46.2391 49.8021 46.5708ZM21.8002 56.5456C21.4455 56.7236 21.09 56.7236 20.7345 56.5456L20.1253 56.0878C20.3281 55.5789 20.5948 55.4139 20.9244 55.5918L21.5336 56.1258L21.8002 56.5456ZM21.1918 55.2488C20.7854 55.0199 20.455 54.9438 20.2013 55.0199C20.0235 55.0717 19.8337 55.3257 19.6301 55.7828L19.5541 55.7067C19.6559 55.2747 19.8143 55.007 20.03 54.9058C20.2457 54.8039 20.5188 54.8298 20.8493 54.9819L22.6761 55.8588L25.7996 57.0407C26.5607 57.8546 27.0301 58.4136 27.2079 58.7186C26.5736 58.7946 25.8877 58.8464 25.1516 58.8715L23.5147 57.7276C22.8538 56.9396 22.3723 56.3677 22.0677 56.0117C21.7631 55.6558 21.4706 55.4017 21.1918 55.2488ZM42.0603 56.0498C41.7306 56.0239 41.2862 56.1323 40.7271 56.3742C40.1688 56.6153 39.8642 56.9526 39.8133 57.3846C39.7115 57.6896 39.5726 57.8797 39.3948 57.9566C38.8357 58.2616 38.3291 58.5285 37.8718 58.7567L36.6914 58.6806L37.3006 57.8417C37.6052 57.4857 37.9987 57.1678 38.481 56.8887C40.6391 55.8208 42.0732 55.1987 42.7834 55.0199C42.9102 54.9698 43.025 55.007 43.1268 55.1348L43.4314 55.5158L43.012 55.7828C42.7583 55.9859 42.4408 56.0757 42.0603 56.0498ZM40.3445 58.1086C40.2168 57.6766 40.3695 57.3328 40.801 57.0795C41.2074 56.7737 41.6517 56.6475 42.1333 56.6977C42.3361 56.7236 42.349 57.0925 42.1713 57.8028C42.0194 58.1595 41.2704 58.5915 39.9251 59.0996L38.668 58.9475L40.0011 58.1846L40.3445 58.7186H40.5343L40.3445 58.1086ZM49.5233 48.1589C49.4094 48.4323 49.281 48.8943 49.0265 48.9234C48.7703 48.9525 48.2734 48.5925 48.2734 48.2705C48.2734 47.9486 48.5352 47.722 48.86 47.722C49.1832 47.722 49.6373 47.8863 49.5233 48.1589ZM48.3984 47.4412C48.0906 47.7155 47.8401 48.0868 47.6955 48.3093L47.8482 49.7202C47.95 50.3051 47.639 50.9603 46.915 51.6844C46.1919 52.4092 45.716 53.0758 45.4874 53.6858C45.3605 54.1429 44.8653 54.6388 44.0024 55.1727C43.9515 55.0198 43.7487 54.7788 43.3932 54.4479C43.3423 54.3468 43.2413 54.3087 43.0886 54.3338C42.2257 54.5628 40.4861 55.3256 37.8716 56.6216C37.4151 56.8506 36.7671 57.5245 35.9293 58.6425H34.4443C34.0379 58.4136 33.6064 58.0956 33.1491 57.6895C32.8195 57.4347 32.2361 57.5245 31.3975 57.9565C30.6113 57.7777 29.8236 57.9427 29.0374 58.4516C28.5551 58.6296 28.1988 58.6684 27.9709 58.5664L26.1054 56.5456C22.2458 54.9187 20.1394 54.1947 19.7831 54.3718C19.4034 54.6008 19.1238 54.9317 18.9461 55.3637C18.5655 55.1857 17.9943 54.7019 17.2324 53.9148L16.052 52.5799C15.1891 51.614 14.8328 50.699 14.9855 49.835L15.1762 48.6531C15.202 48.4743 15.1762 48.3352 15.1002 48.2332C14.8207 47.9282 14.3262 47.7446 14.0725 47.6936C14.0184 47.6702 13.8527 47.6136 13.6653 48.3012C13.6976 48.4104 13.153 47.6427 12.7773 47.0926L14.777 46.1816C15.3604 46.8288 16.0092 47.4728 16.7525 48.1434L15.8249 50.2039L15.955 50.3107C16.3251 50.6141 17.8868 51.741 18.2949 52.0072L18.4363 52.101L20.0901 50.5809C20.8957 51.0542 21.7335 51.4781 22.5827 51.8438L22.3298 54.0911L22.4906 54.151C22.956 54.3233 24.7916 54.9179 25.2465 55.0473L25.4129 55.0959L26.5118 53.1333C27.4651 53.338 28.3894 53.4811 29.2604 53.5596L29.7161 55.7746L29.8882 55.7803C30.1613 55.7892 30.8174 55.7924 31.3393 55.7924C31.8637 55.7924 32.5157 55.7892 32.7783 55.7803L32.952 55.7738L33.3907 53.5742C34.3837 53.4714 35.2861 53.3266 36.141 53.1349L37.2543 55.0951L37.4208 55.0473C37.8999 54.9106 39.7412 54.3185 40.1799 54.1494L40.3375 54.0887L40.0846 51.8583C40.9483 51.474 41.7805 51.0453 42.5618 50.5809L44.2278 52.0986L44.3692 52.0096C44.7788 51.7531 46.3325 50.6044 46.7074 50.3148L46.8456 50.2072L45.8994 48.1612C46.65 47.4987 47.2988 46.8491 47.8765 46.1833L49.9311 47.1112L50.0378 46.9809C50.0539 46.9599 50.0774 46.9308 50.0984 46.9041C49.8431 47.3102 49.6395 47.6354 49.633 47.6548C49.5716 47.6791 48.6893 47.1848 48.3984 47.4412ZM51.1304 45.2708C51.1264 45.2781 51.1183 45.291 51.1126 45.2999C51.0763 45.2546 51.0407 45.2085 51.0213 45.1592C51.0569 45.1924 51.094 45.2271 51.1304 45.2708ZM53.3307 40.3788C53.178 40.6838 53.0446 40.9508 52.9307 41.1797C52.816 41.4087 52.6827 41.6376 52.5308 41.8657C52.4799 41.4588 52.3151 40.7348 52.0355 39.6928C51.8069 38.9809 51.7438 38.9938 51.8456 39.7316C52.0484 40.9257 52.1882 42.0825 52.265 43.2006C51.8327 42.7427 51.3948 42.3495 50.9512 42.0186C50.506 41.6886 50.119 41.3318 49.7894 40.9508C49.5098 40.7736 49.4589 40.7987 49.6375 41.0268C49.9421 41.4337 50.3921 41.911 50.9884 42.4571C51.5855 43.004 51.9466 43.3656 52.0735 43.5444C52.2003 43.7216 52.2771 43.8745 52.3021 44.0015C52.0735 44.3065 51.8069 44.6236 51.5023 44.9545C51.3245 44.8533 51.2227 44.681 51.1977 44.4399C51.1726 44.1981 51.0894 44.0201 50.9512 43.906C50.8115 43.7911 50.3857 43.4425 49.6747 42.8576C49.0396 42.2977 48.8368 41.7905 49.0663 41.3318C48.8877 41.1037 48.7294 40.8367 48.5896 40.5317C48.4498 40.2267 48.4821 39.9282 48.6849 39.6354C48.8877 39.3433 49.3579 39.4768 50.094 40.0366C50.2208 39.6038 50.2208 39.1969 50.094 38.8158C49.9671 38.4348 49.8144 38.053 49.6375 37.6719C49.3062 37.062 48.9895 36.541 48.6849 36.109C48.6445 36.024 48.6187 35.9569 48.5872 35.8825C48.6486 35.6317 48.7067 35.3809 48.7576 35.1277C48.8853 35.1746 49.0364 35.2692 49.2182 35.4221C49.8524 34.7361 50.2717 34.5395 50.4745 34.8316C50.6781 35.1236 50.843 35.6131 50.9698 36.2991C51.0959 36.9859 51.1096 37.6978 51.0078 38.4348L50.8551 38.5877L51.0078 38.7398C51.0579 38.8927 50.9949 39.4647 50.8179 40.4557C50.8179 40.6587 50.8809 40.8618 51.0078 41.0656C50.9569 40.7607 50.944 40.5317 50.9698 40.3788C50.9949 40.2518 51.0773 39.9533 51.217 39.4833C51.3568 39.0132 51.4263 38.7463 51.4263 38.6824C51.4263 38.6193 51.4336 38.5748 51.2308 38.5489C51.4586 38.4728 51.4958 38.3644 51.5596 38.2245C51.6234 38.0845 51.6356 37.9454 51.5976 37.8054C51.5596 37.6655 51.5346 37.2658 51.5225 36.6041C51.5087 35.9439 51.4457 35.4416 51.331 35.0985C51.217 34.7547 51.1476 34.4886 51.1217 34.2976C51.0959 34.1067 50.944 33.9991 50.6652 33.9732C50.3857 33.9482 49.9922 34.2281 49.4848 34.813C49.7126 33.7192 49.9478 32.9887 50.1885 32.6206C50.4301 32.2517 50.6781 32.1441 50.931 32.2962C51.1855 32.4491 51.3504 32.6141 51.4263 32.7913C51.5023 32.9693 51.617 32.9377 51.7689 32.6958C51.9216 32.4548 52.0484 32.3723 52.1502 32.4491C52.252 32.5243 52.3595 32.6772 52.4734 32.9062C52.5881 33.1343 52.6706 33.3762 52.7215 33.631C52.7716 33.8843 52.816 34.3486 52.8548 35.0217C52.8927 35.6956 52.8095 36.147 52.6067 36.3751C52.4031 36.6041 52.3021 36.884 52.3021 37.2141C52.353 38.5359 52.4548 39.1912 52.6067 39.1783C52.7594 39.1653 52.9428 39.0634 53.1594 38.8733C53.3751 38.6824 53.5658 38.6128 53.7306 38.6629C53.8954 38.7147 53.9899 39.0828 54.0166 39.7696C54.0417 40.4557 54.1047 40.5252 54.2065 39.9784C54.3083 39.4323 54.4981 39.1597 54.7777 39.1597C55.0573 39.1597 55.1073 39.8967 54.9296 41.3706C53.9399 42.2605 53.2289 42.9975 52.7974 43.5816C52.6447 42.9465 52.6382 42.5016 52.778 42.2476C52.9178 41.9936 53.0446 41.7072 53.1594 41.3892C53.2741 41.0721 53.3686 40.7857 53.4446 40.5317C53.6474 39.9217 53.6102 39.8708 53.3307 40.3788ZM54.1685 12.7357C54.3463 12.3805 54.4731 12.0885 54.5491 11.8587C54.625 11.6306 54.8537 11.6055 55.2342 11.7835C55.6156 11.9607 56.2248 12.6345 57.0626 13.8043C57.4682 13.3456 57.8617 13.5115 58.243 14.2994C58.6995 15.0114 58.8773 15.8632 58.7755 16.8534C59.7151 16.3454 60.0448 16.6884 59.766 17.8841C60.1724 18.7222 60.4197 19.3767 60.5085 19.8475C60.5974 20.3175 60.5206 20.756 60.2799 21.1621C60.0391 21.569 59.9244 21.8805 59.9373 22.0973C59.9494 22.3125 60.0391 22.3068 60.2039 22.0771C60.3688 21.8489 60.7057 21.6588 61.2131 21.5051C61.5427 22.217 61.6825 22.6878 61.6316 22.916C61.6316 23.1959 61.4603 23.5009 61.1177 23.8309C60.7752 24.1626 60.5788 24.5558 60.5271 25.0129C60.5271 25.2418 60.6418 25.3567 60.8705 25.3567L61.5556 25.1666C61.9111 25.1148 61.9241 25.3947 61.5936 26.0047C61.2381 26.6656 60.9779 27.2255 60.8131 27.6825C60.6483 28.1396 60.5659 28.5085 60.5659 28.7876C60.54 29.3725 60.439 29.7163 60.2613 29.8183C60.3122 29.0813 60.2928 28.3111 60.2039 27.511C60.1151 26.7101 59.9559 25.8138 59.728 24.8228C59.9308 24.6448 60.2104 24.0478 60.5659 23.0309C60.7436 22.522 60.7057 22.4589 60.4512 22.8407C60.1724 23.6028 59.8929 24.0728 59.6133 24.2508C59.3346 23.3108 59.03 22.1669 58.6995 20.8199C59.0801 20.184 59.3216 19.3831 59.4234 18.4172C59.4485 17.6042 59.3984 17.5403 59.2707 18.2271C59.1188 19.193 58.8393 19.9429 58.4329 20.4761C58.1032 19.409 57.7477 18.4043 57.3672 17.4642C57.494 16.9303 57.5449 16.3082 57.5191 15.5963C57.494 14.8843 57.4302 14.8593 57.3284 15.5194C57.3284 16.0533 57.2654 16.5104 57.1385 16.8923L56.3007 14.7573L55.7674 13.5374C55.5897 13.1305 55.5267 13.1305 55.5768 13.5374L56.072 15.1384C55.6915 14.7064 55.336 14.3884 55.0055 14.1846C54.6759 13.9823 54.6129 13.9945 54.8157 14.2226C55.374 14.7064 55.8563 15.2274 56.2627 15.7864C56.5924 16.6002 56.9228 17.4391 57.2525 18.3023C56.2878 17.4893 55.6156 17.0322 55.2342 16.9303C54.7527 16.7523 54.7527 16.8413 55.2342 17.1972C55.9202 17.6292 56.7321 18.3921 57.6718 19.4851C57.9764 20.3749 58.2681 21.2389 58.5476 22.0771C58.0645 21.7988 57.4811 21.2389 56.796 20.4C56.4914 20.095 56.4784 20.146 56.758 20.5529C57.3163 21.3918 57.9635 22.1288 58.6995 22.7639L59.2707 25.0897C58.6874 24.5048 57.9247 23.9078 56.9858 23.2978C56.5794 23.0438 56.5544 23.094 56.9107 23.4507C57.7219 24.0348 58.5727 24.8996 59.4614 26.0435C59.7151 26.7554 59.8298 28.0636 59.804 29.9704C59.7781 30.4533 59.4234 30.8085 58.7375 31.0382L58.5856 32.8674L57.633 32.9062C57.1256 32.1943 56.7386 31.6417 56.4728 31.2469C56.2054 30.8538 55.8248 30.2495 55.3295 29.4364C54.8343 28.6226 54.4731 27.9625 54.2445 27.4536C54.0166 26.9456 53.9778 26.4238 54.1297 25.8906C54.2824 25.3567 54.4093 24.9498 54.5111 24.6699C54.6129 24.3908 54.6 24.3398 54.4731 24.5178C54.1685 25.0517 53.952 25.5727 53.8251 26.0816L53.064 23.9078C53.1408 23.0438 53.5973 21.9379 54.4351 20.5901C54.6888 20.1331 54.663 20.095 54.3584 20.4761C53.5973 21.493 53.102 22.522 52.8734 23.5648L51.6937 20.9332C51.6671 20.451 51.9725 19.536 52.6067 18.1891C52.9372 17.4771 52.8612 17.5022 52.3781 18.2643C51.9725 19.0272 51.6808 19.7391 51.5023 20.4C51.1476 18.9511 50.805 17.7182 50.4745 16.7021L50.2079 16.6253L50.3606 17.0452C50.5634 18.3161 50.843 19.4212 51.1977 20.362C50.7161 19.93 50.1699 19.574 49.5607 19.2941C49.2311 19.1162 49.2311 19.1542 49.5607 19.409C50.2968 19.841 50.8551 20.273 51.2364 20.705C51.541 21.4169 51.8198 22.0649 52.0735 22.649C51.617 22.3189 50.843 21.9379 49.7506 21.5051C49.3442 21.4299 49.3442 21.48 49.7506 21.658C51.1217 22.217 51.9725 22.7639 52.3021 23.2978L53.064 25.3187C52.7845 25.3187 52.4169 24.8996 51.9604 24.0607C51.579 23.3488 50.6264 22.662 49.1034 22.0018C48.7988 21.874 48.6599 21.607 48.6849 21.2001C48.735 20.921 49.0275 20.8069 49.5607 20.8579C49.408 20.4251 49.2311 20.0829 49.0275 19.8281L48.7229 19.371C48.3165 18.5321 48.5581 18.1122 49.446 18.1122C49.1164 17.6042 49.0016 17.2102 49.1034 16.9303C49.0784 16.4473 49.1923 15.9765 49.446 15.5194C49.5987 15.2144 49.7126 14.9094 49.7894 14.6044C50.2717 14.8843 50.7097 15.1198 51.1031 15.3099C51.4958 15.5 51.7059 15.8503 51.7309 16.3583L51.541 17.5403C51.617 17.7692 51.8198 17.6923 52.1502 17.3121C52.4799 16.8542 52.7465 16.5873 52.9493 16.5104C53.2289 16.6382 53.4955 16.8672 53.7492 17.1972C54.0029 17.6802 53.9148 18.5693 53.4826 19.8661L53.064 20.9332C53.9269 19.79 54.625 19.2432 55.1591 19.2941C55.336 19.4212 55.3934 19.6816 55.3295 20.0764C55.2657 20.4696 55.2657 20.883 55.3295 21.315C55.3934 21.747 55.2471 22.1159 54.8924 22.4209C54.5361 22.7259 54.2945 23.221 54.1685 23.9078C54.9805 23.2978 55.3101 23.4127 55.1591 24.2508L54.7009 25.8906C54.5741 26.6786 54.7009 27.0475 55.0823 26.9957C55.4637 26.9456 55.698 26.9957 55.7868 27.1486C55.8749 27.3007 55.8951 27.5677 55.8434 27.9495C55.6156 28.4826 55.5138 28.8329 55.5388 28.998C55.5647 29.163 55.6341 29.3029 55.7489 29.4178C55.8628 29.5319 56.11 29.506 56.4914 29.341C56.8719 29.1759 57.0618 29.29 57.0626 29.6848C57.0618 30.078 57.0691 30.4598 57.0812 30.8279C57.0941 31.1968 57.2153 31.5584 57.4431 31.9152C57.6144 32.1595 57.835 32.3172 58.0992 32.3965L58.4709 31.9904C57.9635 32.0163 57.7284 31.6854 57.7663 31.0002C57.8051 30.3134 57.7986 29.7794 57.7477 29.3984C57.5449 28.9154 57.3422 28.6477 57.1385 28.5975C56.9357 28.5465 56.4655 27.2756 55.7295 24.7847L56.5294 24.8228C57.1135 26.9585 57.5829 28.1081 57.9384 28.2739C58.2931 28.4389 58.4587 28.6291 58.4329 28.8459C58.4078 29.0611 58.4709 29.5254 58.6236 30.2365C59.0801 30.1103 59.3467 29.6905 59.4234 28.9794C59.5503 28.3176 59.3596 27.8096 58.8522 27.4536C58.319 27.1486 58.0144 26.8687 57.9384 26.6147C57.7865 26.1835 57.9514 25.9157 58.4329 25.8138C58.7124 25.6617 58.0394 25.0517 56.4146 23.9838C55.5768 23.3989 55.3239 22.8788 55.6535 22.4209C55.7804 22.1919 56.0147 22.1984 56.3581 22.4403C56.7006 22.6814 56.9228 22.7388 57.0238 22.6118C57.2024 22.2558 57.0618 22.0075 56.6061 21.8683C56.148 21.7284 55.9331 21.569 55.9581 21.3918C55.9331 20.6031 55.9452 20.07 55.9961 19.7901C56.047 19.5109 56.0211 19.1801 55.9202 18.799C55.6406 18.3921 55.1073 18.4172 54.3204 18.8743C54.4981 18.4423 54.5426 18.024 54.4545 17.6171C54.3648 17.2102 54.1685 16.8154 53.8639 16.4352L53.4826 15.2524C53.3808 14.8463 53.6102 14.5664 54.1685 14.4143C53.9899 13.6256 53.9899 13.0674 54.1685 12.7357ZM63.5739 33.6683C63.7775 32.2962 63.6377 31.4322 63.1554 31.0754C62.6472 30.7203 62.0259 30.8344 61.289 31.4185C60.8576 31.1903 60.2742 31.4063 59.5382 32.0673C59.6642 31.7372 59.6763 31.4443 59.5753 31.1903C60.2354 30.8853 60.6604 30.548 60.8511 30.1799C61.0418 29.811 61.1371 29.2326 61.1371 28.4446C61.2131 27.9625 61.6574 27.0976 62.4694 25.8518C63.0285 24.6068 62.6351 24.1748 61.289 24.5558C62.0259 23.8949 62.3935 23.3229 62.3935 22.8407C62.4444 22.3829 62.2537 21.7988 61.8223 21.0861C61.6445 20.6799 61.3779 20.6031 61.0224 20.8579C61.15 20.6031 61.2195 20.2981 61.2316 19.9429C61.2446 19.5862 61.0103 18.8363 60.5271 17.6923C60.4512 16.1933 60.0957 15.5704 59.4614 15.8244C59.3596 15.0364 59.1059 14.2865 58.6995 13.5754C58.0903 12.6604 57.608 12.4185 57.2525 12.8505C56.2627 11.3766 55.336 10.7666 54.4731 11.0198C54.4472 10.3847 54.2315 9.81279 53.8251 9.30475C53.5973 8.33881 53.3177 7.66573 52.9881 7.28389C52.5308 7.10591 52.2133 7.35994 52.0355 8.04677C51.9596 7.48695 51.7818 6.90286 51.5023 6.29288C51.2227 5.6829 50.7791 5.36497 50.1699 5.33989C49.9421 5.314 49.7256 5.35284 49.5228 5.45396C49.1164 5.19994 48.7738 5.07293 48.495 5.07293C47.6313 4.15715 46.8444 4.08111 46.1342 4.84398L46.0195 4.04308C45.7658 3.10223 45.2576 2.89917 44.4957 3.4323C43.2522 2.13711 42.1857 1.28524 41.297 0.878319C40.5609 0.624297 40.0794 0.688207 39.8499 1.06924C39.4702 0.688207 39.0638 0.446319 38.6323 0.344386C38.2001 0.242454 37.7937 0.128386 37.414 0.00137523C36.8298 -0.0237034 36.5761 0.294229 36.6512 0.954364C35.7374 1.00533 35.1097 1.1647 34.7663 1.43167C34.4245 1.69863 34.3348 2.0732 34.5005 2.55535C34.6653 3.03913 35.0394 3.4323 35.6235 3.73729C35.4708 3.91607 35.4078 4.19598 35.4337 4.57702C35.4587 4.95805 35.8651 5.27598 36.6512 5.53C37.2354 5.6829 37.8066 5.69504 38.3649 5.56803C38.2381 6.15293 38.4417 6.52182 38.9741 6.67391C39.7102 7.43679 40.6248 7.6269 41.7163 7.24587L41.6016 7.96991L43.0874 8.5807C43.1383 9.29261 43.468 9.80066 44.0772 10.1056L44.6597 10.3572C44.5336 10.3718 43.9883 10.8232 43.981 10.8952C43.9172 10.9705 43.7984 11.2034 43.8178 11.4292L42.5744 12.5844C41.768 12.1103 40.9318 11.6872 40.0834 11.3207L40.3355 9.09926L40.1844 9.03535C39.7473 8.85009 37.8971 8.25306 37.4123 8.13252L37.2499 8.09126L36.156 10.0466C35.2195 9.8314 34.3163 9.68578 33.4049 9.60407L32.9508 7.41414L32.7852 7.40281C32.5194 7.3834 31.8609 7.37612 31.3325 7.37612C30.9867 7.37612 30.5843 7.37935 30.2724 7.38663H30.1044C30.1044 7.38663 30.0995 7.38663 30.0882 7.38744L30.0494 7.38987C30.0478 7.39068 30.043 7.39068 30.043 7.39068L29.8984 7.4012L29.8943 7.402H29.8935H29.8879H29.8838L29.8798 7.40281L29.7125 7.41414L29.2746 9.60488C28.2986 9.69387 27.3743 9.84111 26.5227 10.045L25.3956 8.09045L25.2332 8.13252C24.7735 8.25225 22.9411 8.84767 22.4821 9.03373L22.3286 9.09684L22.5807 11.3207C21.7445 11.6799 20.9131 12.1038 20.1043 12.5844L18.4343 11.0651L18.2937 11.1573C18.225 11.2018 18.1152 11.2787 17.9907 11.366C18.2363 10.8564 18.4206 10.4317 18.469 10.21L18.793 10.1056L19.1736 9.95275C20.4429 9.4447 21.5223 8.90106 22.512 8.44398L24.048 7.6269C25.1137 7.16983 26.1293 6.5469 27.0939 5.75814C28.1095 4.86906 28.6549 3.94115 28.7317 2.97522C28.5539 2.74708 28.0328 2.62007 27.1699 2.59418C27.6264 2.08533 27.868 1.55221 27.893 0.993195C27.5634 0.535308 26.5736 0.459263 24.9238 0.764252C23.1972 1.19625 21.6863 1.87014 20.392 2.78511C19.0726 3.62403 17.8849 4.64659 16.8313 5.85441C15.7777 7.06142 14.9334 8.31374 14.2992 9.60973L15.0611 7.85585C15.4416 7.01693 15.8472 6.03805 16.2787 4.92003C16.4063 4.38609 16.4128 4.00506 16.2981 3.77612C16.1841 3.54717 15.9369 3.48407 15.5555 3.5852C15.15 3.68713 14.4131 4.22106 13.3474 5.18618C12.1791 6.38187 11.1449 7.85585 10.2441 9.60973C9.34319 11.3636 8.72672 12.7486 8.39707 13.7655C8.57401 12.6224 8.54897 11.6435 8.32112 10.8297C8.19427 10.4996 7.91472 10.4098 7.48327 10.5627C7.07687 10.8426 6.67047 11.2617 6.26488 11.8215C5.85848 12.3805 5.465 12.9209 5.08365 13.4419C4.7031 13.9629 4.25307 14.7064 3.73194 15.6715C3.21162 16.6382 2.75432 17.7821 2.36165 19.104C1.96818 20.4251 1.66923 22.179 1.46644 24.3649C1.33959 25.7636 1.44058 27.2635 1.77104 28.8645C2.17663 30.4655 2.58303 31.6474 2.98943 32.4103C3.39583 33.1731 3.77638 33.6181 4.13188 33.7443C4.36053 34.3041 4.66513 35.232 5.04568 36.5288C5.24928 37.1388 5.33735 37.6024 5.3123 37.9195C5.28725 38.2374 5.36967 38.4599 5.56034 38.5877C5.75021 38.7147 5.90938 38.9679 6.03623 39.3498C6.36587 40.5697 6.81025 41.7007 7.36855 42.7427C7.26674 43.3025 7.21665 43.8615 7.21665 44.4213C5.99825 40.8869 5.0077 38.2188 4.24661 36.414C2.77371 33.1343 1.61914 31.6353 0.781292 31.9152C0.374891 32.0673 0.120385 32.4354 0.0193909 33.0211C-0.00646364 33.2492 -0.00646364 33.8341 0.0193909 34.7741C0.0452455 35.715 0.133312 36.706 0.286016 37.748C1.04792 41.1287 2.35519 43.9497 4.20783 46.2124L6.98719 49.4921C7.5463 50.0503 8.07955 50.4637 8.58694 50.7306C9.09514 50.9976 9.56457 51.0672 9.99601 50.9402C10.6303 51.9571 11.4309 53.0249 12.3956 54.1429C13.0048 55.0838 13.6391 55.5287 14.2992 55.4778C14.5787 56.0878 14.9981 56.3927 15.5555 56.3927L16.1268 56.3167C16.9145 57.0796 17.6255 57.6896 18.2598 58.1466L17.5358 60.2055C16.2665 60.3835 15.0991 60.4854 14.0326 60.5105C13.0428 59.7986 11.6467 58.8335 9.84412 57.6127L9.72939 55.3257C9.67929 54.5369 9.81826 53.8768 10.1487 53.3429C10.2247 52.9109 9.98309 52.5161 9.42479 52.1609C8.58694 51.754 7.99067 51.589 7.63517 51.665C7.48327 51.716 7.39359 51.8559 7.36855 52.0841V53.3429L3.75133 53.4197C3.42088 53.4197 3.1486 53.5459 2.93287 53.7999C2.71634 54.0548 2.71069 54.5628 2.91348 55.3257C2.93934 55.6048 2.9256 55.8467 2.87551 56.0497C2.69776 56.8628 2.22834 57.8546 1.46644 59.0236C1.36544 59.2016 1.40907 59.4685 1.59975 59.8245C1.79043 60.1804 2.26631 60.7394 3.02741 61.5023C3.35786 61.8324 3.85879 62.2393 4.53182 62.7223C5.20404 63.2052 6.39092 63.9422 8.09247 64.9332C10.0978 66.1289 12.0143 67.1191 13.8427 67.9079C14.2232 67.933 16.7618 67.59 21.4585 66.8781L21.4964 67.2979C20.1504 68.3148 19.2875 68.7339 18.9061 68.5559C18.3737 68.6069 18.2089 69 18.4117 69.737C18.5644 70.0687 18.8431 70.2968 19.2495 70.4238L19.7448 70.9958L21.1539 71.8347C21.6863 71.9876 22.1945 71.9876 22.6761 71.8347C23.1334 71.6567 23.438 71.2628 23.5907 70.6528L23.7409 70.5031L25.2664 68.9749L26.3708 68.136C27.2337 67.9831 27.792 67.6789 28.0457 67.2211C28.0958 66.8141 28.2105 66.5609 28.3891 66.459L29.7214 65.544C29.7723 65.417 30.3177 65.6322 31.3591 66.192C31.8657 66.319 32.3109 66.294 32.6915 66.116L33.682 65.544C34.57 65.7471 36.1317 66.853 38.3649 68.8601C38.3399 69.0898 38.4796 69.3568 38.7842 69.6618C38.962 69.8899 39.4443 70.0808 40.2313 70.2337L40.7645 71.2247L41.297 71.4157C42.0847 71.4407 42.8208 71.1608 43.5067 70.5767L44.3438 70.309C44.7752 69.9789 44.9651 69.6488 44.915 69.3188L44.5724 68.9749L43.8493 68.7848C42.9347 68.3528 42.008 67.7679 41.0691 67.0309L40.4591 66.5731C43.2264 67.056 46.6666 67.4379 50.7791 67.717C51.2873 67.8181 51.9652 67.5584 52.816 66.9355C53.6668 66.3126 56.2377 64.4762 60.5271 61.4255C61.1622 60.7394 61.6696 59.9515 62.0509 59.0616C61.6696 58.7065 61.3334 58.1976 61.0418 57.5367C60.7501 56.8757 60.5659 56.3167 60.4891 55.8588C60.3873 55.4268 60.3752 55.0393 60.4512 54.6963C60.5271 54.3533 60.4132 54.0289 60.1094 53.7239C59.9817 53.5459 59.6901 53.4319 59.2336 53.3809C58.4208 53.3048 57.507 53.3178 56.4914 53.4197C56.0082 53.3679 55.7295 53.2531 55.6535 53.0759L55.6915 52.1609C55.7674 51.754 55.6535 51.576 55.3489 51.627C54.2315 51.9061 53.5585 52.186 53.3307 52.4659C53.001 52.8211 53.0131 53.2029 53.3686 53.6098C53.6474 53.8638 53.7872 54.1559 53.7872 54.4868C53.6353 56.1638 53.4955 57.2956 53.3686 57.8797C51.5152 59.3536 50.2588 60.2565 49.5987 60.5874C49.0663 60.7653 47.8721 60.6885 46.0195 60.3584C45.6131 60.0025 45.3214 59.3917 45.1437 58.5277C45.7779 58.1466 46.4509 57.6896 47.1619 57.1556C47.6443 57.0796 48.0507 56.9841 48.3803 56.8692C48.71 56.7552 48.8748 56.4437 48.8748 55.9357C49.2052 55.8087 49.446 55.5287 49.5987 55.0967L51.8069 52.4279C52.5179 51.8171 53.2927 51.462 54.1297 51.36C55.1453 51.284 56.4655 50.712 58.0903 49.645C58.344 49.3651 58.344 48.9711 58.0903 48.4622C58.5727 48.1831 59.3596 47.3944 60.4512 46.0984C60.8834 45.4884 60.9844 44.8145 60.7558 44.0775C61.7714 42.8576 62.3426 41.8916 62.4694 41.1797C62.5704 40.5447 62.5583 39.8578 62.4323 39.1208C62.9138 38.8158 63.2499 38.5554 63.4406 38.3394C63.6313 38.1234 63.7258 37.824 63.7258 37.443C63.7258 37.062 63.586 36.744 63.3073 36.49C64.0433 35.448 64.1322 34.508 63.5739 33.6683Z" fill="#0066CC"/>
</svg>
