<svg width="134" height="135" viewBox="0 0 134 135" fill="none" xmlns="http://www.w3.org/2000/svg">
<mask id="mask0_17334_382804" style="mask-type:alpha" maskUnits="userSpaceOnUse" x="0" y="0" width="134" height="135">
<rect width="134" height="135" fill="#C4C4C4"/>
</mask>
<g mask="url(#mask0_17334_382804)">
<path d="M92.7321 22H27.1049C25.4858 22 23.933 22.6521 22.7881 23.813C21.6432 24.9738 21 26.5482 21 28.1899V97.2787C21 97.5848 21.0895 97.8841 21.2573 98.1386C21.4251 98.3931 21.6636 98.5914 21.9426 98.7085C22.2216 98.8256 22.5285 98.8561 22.8246 98.7962C23.1207 98.7363 23.3926 98.5887 23.606 98.3721L40.9117 80.8038H92.7321C94.3512 80.8038 95.904 80.1517 97.0489 78.9909C98.1938 77.83 98.837 76.2556 98.837 74.614V28.1899C98.8369 26.5482 98.1937 24.9738 97.0489 23.813C95.904 22.6522 94.3512 22 92.7321 22V22Z" stroke="#505050" stroke-width="2.52717" stroke-linecap="round" stroke-linejoin="round"/>
<rect x="34.1414" y="33.1196" width="21.2283" height="6.06522" fill="#27D1D6"/>
<rect x="34.1414" y="48.2827" width="21.2283" height="6.06522" fill="#27D1D6"/>
<rect x="34.1414" y="41.2065" width="40.4348" height="3.03261" fill="#0073E6"/>
<rect x="34.1414" y="57.3804" width="40.4348" height="3.03261" fill="#0073E6"/>
<path d="M108.375 55.3586H109.905C111.527 55.3586 113.083 56.0058 114.23 57.1576C115.377 58.3095 116.022 59.8718 116.022 61.5008V113.464C116.022 113.77 115.931 114.069 115.76 114.323C115.59 114.576 115.348 114.773 115.066 114.888C114.784 115.003 114.473 115.03 114.175 114.967C113.877 114.903 113.605 114.752 113.393 114.532L100.765 101.425H62.4974C60.8751 101.425 59.3192 100.778 58.172 99.6259C57.0248 98.474 56.3804 96.9117 56.3804 95.2827V89.1405" stroke="#505050" stroke-width="2.52717" stroke-linecap="round" stroke-linejoin="round"/>
</g>
</svg>
