<svg width="134" height="135" viewBox="0 0 134 135" fill="none" xmlns="http://www.w3.org/2000/svg">
<mask id="mask0_14528_327650" style="mask-type:alpha" maskUnits="userSpaceOnUse" x="0" y="0" width="134" height="135">
<rect width="134" height="135" fill="#C4C4C4"/>
</mask>
<g mask="url(#mask0_14528_327650)">
<path d="M15 61V84.8106C15 90.637 19.7232 95.3602 25.5496 95.3602H120.86C126.686 95.3602 131.409 90.637 131.409 84.8106V24.5496C131.409 18.7232 126.686 14 120.86 14H44.5H19.5C17.0147 14 15 16.0147 15 18.5V18.5" stroke="#505050" stroke-width="2.5" stroke-linecap="round" stroke-linejoin="round"/>
<path d="M70.2637 88.0779H76.908" stroke="#505050" stroke-width="2.53065" stroke-linecap="round" stroke-linejoin="round"/>
<path d="M15.3804 81.5994H130.5" stroke="#505050" stroke-width="2.53065" stroke-linecap="round" stroke-linejoin="round"/>
<path d="M62.4014 108.203L63.6104 95.1475" stroke="#505050" stroke-width="2.53065" stroke-linecap="round" stroke-linejoin="round"/>
<path d="M83.561 95.1475L84.7701 108.203" stroke="#505050" stroke-width="2.53065" stroke-linecap="round" stroke-linejoin="round"/>
<path d="M50.9282 108.203H96.2428" stroke="#505050" stroke-width="2.53065" stroke-linecap="round" stroke-linejoin="round"/>
<rect x="60" y="34" width="29" height="11" fill="#27D1D6"/>
<rect x="60" y="48" width="55" height="4" fill="#0073E6"/>
<path d="M45.7684 45C45.7684 45.646 45.7114 46.254 45.6353 46.862L49.6483 49.997C50.0097 50.282 50.1048 50.795 49.8765 51.213L46.0727 57.787C45.9016 58.091 45.5783 58.262 45.2549 58.262C45.1408 58.262 45.0267 58.243 44.9126 58.205L40.1769 56.305C39.1879 57.046 38.1228 57.692 36.9627 58.167L36.2399 63.202C36.1829 63.658 35.7835 64 35.308 64H27.7004C27.2249 64 26.8255 63.658 26.7685 63.202L26.0458 58.167C24.8856 57.692 23.8205 57.065 22.8315 56.305L18.0958 58.205C18.0007 58.243 17.8866 58.262 17.7725 58.262C17.4302 58.262 17.1068 58.091 16.9357 57.787L13.1319 51.213C12.9036 50.795 12.9987 50.282 13.3601 49.997L17.3731 46.862C17.297 46.254 17.24 45.627 17.24 45C17.24 44.373 17.297 43.746 17.3731 43.138L13.3601 40.003C12.9987 39.718 12.8846 39.205 13.1319 38.787L16.9357 32.213C17.1068 31.909 17.4302 31.738 17.7535 31.738C17.8676 31.738 17.9817 31.757 18.0958 31.795L22.8315 33.695C23.8205 32.954 24.8856 32.308 26.0458 31.833L26.7685 26.798C26.8255 26.342 27.2249 26 27.7004 26H35.308C35.7835 26 36.1829 26.342 36.2399 26.798L36.9627 31.833C38.1228 32.308 39.1879 32.935 40.1769 33.695L44.9126 31.795C45.0077 31.757 45.1218 31.738 45.2359 31.738C45.5782 31.738 45.9016 31.909 46.0727 32.213L49.8765 38.787C50.1048 39.205 50.0097 39.718 49.6483 40.003L45.6353 43.138C45.7114 43.746 45.7684 44.354 45.7684 45Z" stroke="#505050" stroke-width="2.5"/>
<path d="M21.5856 26.8099C22.0738 26.3217 22.0738 25.5303 21.5856 25.0421C21.0975 24.554 20.306 24.554 19.8179 25.0421L21.5856 26.8099ZM19.3627 27.265L18.5951 28.2515L19.4662 28.9294L20.2466 28.1489L19.3627 27.265ZM17.191 25.991L15.9534 26.1664L16.0534 26.8726L16.7122 27.1457L17.191 25.991ZM16.7027 22.546L15.4621 22.6993L15.4635 22.7104L15.465 22.7214L16.7027 22.546ZM10.303 22.546L11.5407 22.7214L11.5422 22.7104L11.5436 22.6993L10.303 22.546ZM9.8147 25.991L10.2934 27.1457L10.9522 26.8726L11.0523 26.1664L9.8147 25.991ZM7.64293 27.265L7.17244 28.4231L7.83164 28.6909L8.39848 28.2608L7.64293 27.265ZM4.44312 25.965L4.91361 24.8069L4.87847 24.7926L4.84253 24.7805L4.44312 25.965ZM3.65923 26.251L4.74455 26.8711L4.74816 26.8648L4.7517 26.8585L3.65923 26.251ZM1.0891 30.749L2.1685 31.3795L2.17442 31.3691L1.0891 30.749ZM1.2433 31.581L0.463232 32.5577L0.46778 32.5613L1.2433 31.581ZM3.95479 33.726L5.19536 33.8793L5.28155 33.1817L4.73032 32.7457L3.95479 33.726ZM3.95479 36.274L4.73032 37.2543L5.28155 36.8183L5.19536 36.1207L3.95479 36.274ZM1.2433 38.419L0.467771 37.4387L0.46324 37.4423L1.2433 38.419ZM1.0891 39.251L-0.0111591 39.8442L-0.00385714 39.8578L0.00377589 39.8711L1.0891 39.251ZM3.65923 43.749L4.7517 43.1415L4.74816 43.1352L4.74455 43.1289L3.65923 43.749ZM4.44312 44.035L4.912 45.1937L4.91361 45.1931L4.44312 44.035ZM7.64293 42.735L8.4106 41.7485L7.84105 41.3053L7.17244 41.5769L7.64293 42.735ZM9.8147 44.009L11.0413 43.7685L10.9124 43.1109L10.2934 42.8543L9.8147 44.009ZM9.07637 46.7405C9.20918 47.4179 9.86603 47.8595 10.5435 47.7267C11.221 47.5938 11.6625 46.937 11.5297 46.2595L9.07637 46.7405ZM19.8179 25.0421L18.4789 26.3811L20.2466 28.1489L21.5856 26.8099L19.8179 25.0421ZM20.1304 26.2785C19.3808 25.6951 18.5648 25.2074 17.6697 24.8363L16.7122 27.1457C17.3849 27.4246 18.0083 27.7949 18.5951 28.2515L20.1304 26.2785ZM18.4286 25.8156L17.9403 22.3706L15.465 22.7214L15.9534 26.1664L18.4286 25.8156ZM17.9432 22.3927C17.8247 21.4333 17.0039 20.75 16.073 20.75V23.25C15.7846 23.25 15.5035 23.0347 15.4621 22.6993L17.9432 22.3927ZM16.073 20.75H10.9327V23.25H16.073V20.75ZM10.9327 20.75C10.0018 20.75 9.181 21.4333 9.06246 22.3927L11.5436 22.6993C11.5021 23.0347 11.2211 23.25 10.9327 23.25V20.75ZM9.06539 22.3706L8.57707 25.8156L11.0523 26.1664L11.5407 22.7214L9.06539 22.3706ZM9.33596 24.8363C8.43205 25.2111 7.62012 25.7133 6.88739 26.2692L8.39848 28.2608C9.00222 27.8027 9.62956 27.4209 10.2934 27.1457L9.33596 24.8363ZM8.11343 26.1069L4.91361 24.8069L3.97262 27.1231L7.17244 28.4231L8.11343 26.1069ZM4.84253 24.7805C4.6439 24.7136 4.43209 24.676 4.21181 24.676V27.176C4.14573 27.176 4.08813 27.1645 4.04371 27.1495L4.84253 24.7805ZM4.21181 24.676C3.56131 24.676 2.91331 25.0203 2.56676 25.6435L4.7517 26.8585C4.63646 27.0657 4.42539 27.176 4.21181 27.176V24.676ZM2.57391 25.6309L0.00377589 30.1289L2.17442 31.3691L4.74455 26.8711L2.57391 25.6309ZM0.00974232 30.1185C-0.480199 30.9573 -0.250201 31.9879 0.46324 32.5577L2.02337 30.6043C2.24848 30.7841 2.32427 31.1127 2.16845 31.3795L0.00974232 30.1185ZM0.46778 32.5613L3.17927 34.7063L4.73032 32.7457L2.01883 30.6007L0.46778 32.5613ZM2.71423 33.5727C2.6597 34.014 2.61484 34.4992 2.61484 35H5.11484C5.11484 34.6428 5.14709 34.27 5.19536 33.8793L2.71423 33.5727ZM2.61484 35C2.61484 35.5008 2.6597 35.986 2.71423 36.4273L5.19536 36.1207C5.14709 35.73 5.11484 35.3572 5.11484 35H2.61484ZM3.17927 35.2937L0.46778 37.4387L2.01883 39.3993L4.73032 37.2543L3.17927 35.2937ZM0.46324 37.4423C-0.284291 38.0393 -0.432818 39.0622 -0.0111591 39.8442L2.18935 38.6578C2.30259 38.8678 2.28257 39.1887 2.02337 39.3957L0.46324 37.4423ZM0.00377589 39.8711L2.57391 44.3691L4.74455 43.1289L2.17442 38.6309L0.00377589 39.8711ZM2.56676 44.3565C2.91982 44.9914 3.57538 45.324 4.22466 45.324V42.824C4.41131 42.824 4.62995 42.9226 4.7517 43.1415L2.56676 44.3565ZM4.22466 45.324C4.43028 45.324 4.67158 45.291 4.912 45.1937L3.97424 42.8763C4.03423 42.852 4.08494 42.8397 4.12214 42.8332C4.16011 42.8265 4.19416 42.824 4.22466 42.824V45.324ZM4.91361 45.1931L8.11343 43.8931L7.17244 41.5769L3.97262 42.8769L4.91361 45.1931ZM6.87527 43.7215C7.62492 44.3049 8.44085 44.7926 9.33596 45.1637L10.2934 42.8543C9.62076 42.5754 8.99742 42.2051 8.4106 41.7485L6.87527 43.7215ZM8.58805 44.2495L9.07637 46.7405L11.5297 46.2595L11.0413 43.7685L8.58805 44.2495Z" fill="#505050"/>
<circle cx="32" cy="45" r="5.75" stroke="#505050" stroke-width="2.5"/>
</g>
</svg>
