<svg width="354" height="241" viewBox="0 0 354 241" fill="none" xmlns="http://www.w3.org/2000/svg">
<path d="M97.0569 51.2096H99.3319C99.4725 49.9783 99.8066 48.7769 100.322 47.6497C100.8 46.5889 101.458 45.6187 102.267 44.7818C103.065 43.9627 104.024 43.317 105.084 42.8851C106.241 42.4213 107.48 42.1915 108.727 42.2091C110.911 42.0997 113.058 42.8117 114.744 44.205C116.334 45.7109 117.284 47.7701 117.397 49.9568H113.277C113.189 48.7426 112.675 47.5986 111.825 46.7268C110.981 45.9587 109.867 45.5556 108.727 45.6054C108.064 45.5681 107.401 45.6856 106.792 45.9487C106.182 46.2118 105.643 46.6132 105.215 47.1212C104.32 48.3101 103.778 49.727 103.651 51.2096H110.441L110.047 53.2861H103.552V55.5288H109.617L109.255 57.6053H103.651C103.762 59.0586 104.313 60.4435 105.231 61.5757C105.681 62.0534 106.23 62.4265 106.839 62.669C107.449 62.9114 108.104 63.0171 108.759 62.9788C111.506 62.9788 113.1 61.3852 113.54 58.1981H117.628C117.47 60.4899 116.493 62.6485 114.876 64.2799C113.178 65.7821 110.958 66.5576 108.695 66.4395C107.444 66.4601 106.2 66.2359 105.035 65.7795C103.989 65.3608 103.036 64.739 102.232 63.9499C101.425 63.1463 100.772 62.2027 100.303 61.1652C99.7948 60.0368 99.467 58.8355 99.3319 57.6053H97.057V55.5288H99.2327V53.2861H97.057L97.0569 51.2096Z" fill="#D98F00"/>
<path d="M346.794 239.739H0" stroke="#5A5A5A" stroke-width="1.85542" stroke-miterlimit="10"/>
<path d="M45.2524 223.76C77.9965 115.119 237.141 0.21725 267.767 84.0718C272.72 97.634 256.377 106.152 252.739 88.4263C250.148 75.8011 259.794 55.1786 282.77 45.1858" stroke="#5A5A5A" stroke-width="1.85542" stroke-miterlimit="10" stroke-dasharray="9.28 9.28"/>
<path d="M249.432 37.8349L353.966 0.00244141L272.298 40.9692L249.432 37.8349Z" fill="#EAF4FE"/>
<path d="M278.978 60.8591L353.967 0.00244141L272.299 40.9692L278.978 60.8591Z" fill="#9AC7F7"/>
<path d="M249.694 37.7847L296.226 28.9779L273.473 40.4274L249.694 37.7847Z" fill="#003C77"/>
<path d="M249.432 37.8342L295.05 29.5166L272.298 40.9685L249.432 37.8342Z" fill="#0058B0"/>
<path d="M278.978 60.8584L296.862 45.5776L296.227 28.9779L272.299 40.9685L278.978 60.8584Z" fill="#003C77"/>
<path d="M278.978 60.8591L353.967 0.00244141L288.851 45.6272L278.978 60.8591Z" fill="#0561FC"/>
<path d="M320.422 70.4363L353.967 0.00244141L288.851 45.6272L320.422 70.4363Z" fill="#C5E1F9"/>
<path d="M320.421 70.4358L304.738 34.6108L289.444 45.1657L320.421 70.4358Z" fill="#003C77"/>
<path d="M320.422 70.4363L304.144 35.0723L288.851 45.6272L320.422 70.4363Z" fill="#0058B0"/>
<path d="M246.186 115.298L155.999 29.8119C155.141 28.8683 154.213 27.9899 153.222 27.1842L152.336 26.3445C152.336 26.3445 152.302 26.3566 152.239 26.379C147.874 23.0757 142.537 21.2865 137.047 21.2865C131.558 21.2865 126.22 23.0757 121.855 26.379C121.793 26.3566 121.758 26.3445 121.758 26.3445L120.872 27.1842C119.882 27.9901 118.953 28.8684 118.095 29.8119L27.9085 115.298C26.9605 116.239 26.2092 117.356 25.6976 118.585C25.186 119.815 24.9242 121.133 24.9273 122.463V223.613C24.9275 227.637 26.5384 231.497 29.4056 234.342C32.2728 237.188 36.1615 238.787 40.2163 238.787H233.878C237.933 238.787 241.821 237.188 244.689 234.342C247.556 231.497 249.167 227.637 249.167 223.613V122.463C249.17 121.133 248.908 119.815 248.397 118.586C247.885 117.356 247.134 116.239 246.186 115.298Z" fill="#D98F00"/>
<path d="M173.083 178.45C192.986 158.697 192.986 126.671 173.083 106.917C153.181 87.1642 120.912 87.1642 101.01 106.917C81.1071 126.671 81.1071 158.697 101.01 178.45C120.912 198.203 153.181 198.203 173.083 178.45Z" stroke="#2094F1" stroke-width="0.144315" stroke-miterlimit="10"/>
<path d="M233.879 208.435V92.0982L177.819 36.4591H55.5064C51.4515 36.4594 47.5629 38.0582 44.6957 40.9039C41.8285 43.7495 40.2176 47.609 40.2173 51.6334V208.435H233.879Z" fill="#EAF4FE"/>
<path d="M233.878 238.788H40.2163C36.1614 238.788 32.2728 237.189 29.4056 234.343C26.5384 231.497 24.9275 227.638 24.9272 223.614V122.452L233.878 238.788Z" fill="#FFBF0D"/>
<path d="M40.2173 238.788H233.879C237.934 238.788 241.822 237.189 244.69 234.343C247.557 231.497 249.168 227.638 249.168 223.614V122.452L40.2173 238.788Z" fill="#FECE40"/>
<path d="M177.819 36.4591V76.9239C177.819 78.9166 178.214 80.8899 178.982 82.7309C179.751 84.572 180.877 86.2448 182.297 87.6539C183.716 89.063 185.402 90.1807 187.257 90.9433C189.112 91.7058 191.1 92.0983 193.108 92.0982H233.879L177.819 36.4591Z" fill="#2A66C4"/>
<path d="M203.738 102.127H115.246V112.339H203.738V102.127Z" fill="#C5E1F9"/>
<path d="M203.301 122.448H75.8918V132.564H203.301V122.448Z" fill="#C5E1F9"/>
<path d="M168.753 81.7017H115.246V91.9142H168.753V81.7017Z" fill="#C5E1F9"/>
<path fill-rule="evenodd" clip-rule="evenodd" d="M107.014 81.7017H76.145V112.339H107.014V81.7017Z" fill="#2A66C4"/>
<path fill-rule="evenodd" clip-rule="evenodd" d="M83.3438 93.9099C83.0828 93.901 82.8227 93.9472 82.581 94.0455C82.3393 94.1438 82.1215 94.2919 81.9418 94.4801C81.5827 94.8723 81.3934 95.389 81.4147 95.9186C81.4 96.455 81.5987 96.9756 81.968 97.3675C82.1465 97.5578 82.3644 97.708 82.6062 97.8082C82.848 97.9083 83.1082 97.956 83.37 97.9481C83.628 97.9574 83.8852 97.9113 84.1235 97.8129C84.3619 97.7145 84.5757 97.5661 84.751 97.378C85.1063 96.9856 85.2952 96.472 85.278 95.9447C85.2944 95.4128 85.1059 94.8946 84.751 94.4957C84.5775 94.3029 84.3636 94.1505 84.1241 94.0492C83.8845 93.9479 83.6251 93.9004 83.3649 93.9099" fill="white"/>
<path d="M94.2844 100.549H91.5704V105.309H88.229V88.9521H94.2844C98.1951 88.9521 100.15 90.844 100.15 94.6277C100.15 96.5387 99.6499 98.0068 98.6485 99.0321C97.6471 100.057 96.1923 100.563 94.2844 100.549ZM91.5704 97.7087H94.2633C95.9287 97.7087 96.7564 96.6625 96.7564 94.6277C96.8307 93.8563 96.6146 93.0849 96.1501 92.4621C95.9034 92.2211 95.607 92.036 95.2813 91.9195C94.9556 91.803 94.6082 91.7579 94.2633 91.7873H91.5704V97.7087Z" fill="white"/>
<path d="M219.619 238.787C218.636 238.787 217.663 238.595 216.756 238.221C215.848 237.848 215.023 237.301 214.329 236.611C213.634 235.921 213.084 235.102 212.708 234.201C212.332 233.3 212.139 232.334 212.14 231.359V167.01C212.139 166.035 212.333 165.07 212.708 164.169C213.084 163.268 213.635 162.45 214.329 161.76C215.024 161.071 215.848 160.524 216.756 160.151C217.664 159.778 218.636 159.586 219.619 159.586H314.379C316.363 159.586 318.266 160.368 319.67 161.76C321.074 163.152 321.863 165.041 321.865 167.01V231.359C321.863 233.329 321.074 235.218 319.671 236.611C318.267 238.004 316.363 238.786 314.379 238.787H219.619Z" fill="#C5E1F9"/>
<path d="M219.619 238.787C218.636 238.787 217.663 238.595 216.756 238.221C215.848 237.848 215.023 237.301 214.329 236.611C213.634 235.921 213.084 235.102 212.708 234.201C212.332 233.3 212.139 232.334 212.14 231.359V167.01C212.139 166.035 212.333 165.07 212.708 164.169C213.084 163.268 213.635 162.45 214.329 161.76C215.024 161.071 215.848 160.524 216.756 160.151C217.664 159.778 218.636 159.586 219.619 159.586H314.379C316.363 159.586 318.266 160.368 319.67 161.76C321.074 163.152 321.863 165.041 321.865 167.01V231.359C321.863 233.329 321.074 235.218 319.671 236.611C318.267 238.004 316.363 238.786 314.379 238.787H219.619Z" fill="#9AC7F7"/>
<path d="M314.379 159.586H219.619C218.636 159.586 217.664 159.778 216.756 160.151C215.848 160.524 215.024 161.071 214.329 161.76C213.635 162.45 213.084 163.268 212.708 164.169C212.333 165.07 212.139 166.035 212.14 167.01V170.9L299.191 238.787H314.379C316.363 238.786 318.267 238.004 319.671 236.611C321.074 235.218 321.863 233.329 321.865 231.359V167.01C321.863 165.041 321.074 163.152 319.67 161.76C318.266 160.368 316.363 159.586 314.379 159.586Z" fill="#67ACF5"/>
<path d="M266.998 209.086L321.865 171.209V167.01C321.863 165.041 321.074 163.152 319.67 161.76C318.267 160.368 316.363 159.586 314.379 159.586H219.619C218.636 159.586 217.664 159.778 216.756 160.151C215.848 160.524 215.024 161.071 214.329 161.76C213.635 162.45 213.084 163.268 212.708 164.169C212.333 165.07 212.139 166.035 212.14 167.01V171.209L266.998 209.086Z" fill="#C5E1F9"/>
</svg>
