<svg width="99" height="97" viewBox="0 0 99 97" fill="none" xmlns="http://www.w3.org/2000/svg">
<path d="M73.7321 2H8.10486C6.48575 2 4.93296 2.65215 3.78807 3.81297C2.64319 4.9738 2 6.54822 2 8.18988V77.2787C1.99999 77.5848 2.08955 77.8841 2.25733 78.1386C2.42511 78.3931 2.66358 78.5914 2.94257 78.7085C3.22156 78.8256 3.52852 78.8561 3.82462 78.7962C4.12072 78.7363 4.39265 78.5887 4.606 78.3721L21.9117 60.8038H73.7321C75.3512 60.8038 76.904 60.1517 78.0489 58.9909C79.1938 57.83 79.837 56.2556 79.837 54.614V8.18988C79.8369 6.54823 79.1937 4.97382 78.0489 3.813C76.904 2.65218 75.3512 2.00002 73.7321 2V2Z" stroke="#505050" stroke-width="2.52717" stroke-linecap="round" stroke-linejoin="round"/>
<rect x="15.1414" y="13.1196" width="21.2283" height="6.06522" fill="#27D1D6"/>
<rect x="15.1414" y="28.2827" width="21.2283" height="6.06522" fill="#27D1D6"/>
<rect x="15.1414" y="21.2065" width="40.4348" height="3.03261" fill="#0073E6"/>
<rect x="15.1414" y="37.3804" width="40.4348" height="3.03261" fill="#0073E6"/>
<path d="M89.3754 35.3586H90.9046C92.527 35.3586 94.0829 36.0058 95.23 37.1576C96.3772 38.3095 97.0217 39.8718 97.0217 41.5008V93.4644C97.0217 93.7703 96.9307 94.0692 96.7604 94.3228C96.5901 94.5764 96.3483 94.7732 96.0659 94.8879C95.7835 95.0026 95.4735 95.03 95.1755 94.9666C94.8775 94.9032 94.6051 94.7519 94.3933 94.5321L81.7647 81.4249H43.4974C41.8751 81.4249 40.3192 80.7777 39.172 79.6259C38.0248 78.474 37.3804 76.9117 37.3804 75.2827V69.1405" stroke="#505050" stroke-width="2.52717" stroke-linecap="round" stroke-linejoin="round"/>
</svg>
