<svg width="104" height="104" viewBox="0 0 104 104" fill="none" xmlns="http://www.w3.org/2000/svg">
<circle cx="52" cy="52" r="52" fill="#F0F6FC"/>
<path d="M17.117 88.2216C16.435 88.2206 15.7812 87.9504 15.2991 87.4702C14.8169 86.9899 14.5457 86.3389 14.5449 85.6598V38.1224C14.5456 37.4433 14.8167 36.7922 15.2989 36.3119C15.7811 35.8316 16.435 35.5614 17.117 35.5605H86.8833C87.5653 35.5613 88.219 35.8316 88.7011 36.3119C89.1832 36.7922 89.4541 37.4433 89.4544 38.1224V85.6598C89.454 86.3388 89.183 86.9899 88.701 87.4702C88.2189 87.9505 87.5652 88.2207 86.8833 88.2216H17.117Z" fill="#EAF4FE"/>
<path d="M89.2136 85.6602C89.2138 86.2757 88.9685 86.8662 88.5315 87.3017C88.0946 87.7372 87.5018 87.982 86.8836 87.9824H17.1172C16.811 87.9824 16.5077 87.9223 16.2247 87.8056C15.9418 87.6889 15.6847 87.5179 15.4681 87.3022C15.2516 87.0866 15.0798 86.8306 14.9626 86.5488C14.8454 86.2671 14.7851 85.9651 14.7852 85.6602V38.1227C14.785 37.8177 14.8452 37.5157 14.9624 37.2339C15.0795 36.9522 15.2513 36.6961 15.4679 36.4805C15.6845 36.2649 15.9416 36.0938 16.2246 35.9772C16.5076 35.8606 16.811 35.8006 17.1172 35.8008H86.8836C87.1897 35.8008 87.4928 35.8609 87.7756 35.9776C88.0584 36.0944 88.3154 36.2654 88.5317 36.481C88.7481 36.6967 88.9197 36.9526 89.0367 37.2343C89.1537 37.516 89.2138 37.8179 89.2136 38.1227V85.6602Z" fill="#0058B0"/>
<path d="M85.5637 39.1309H18.4336V81.7944H85.5637V39.1309Z" fill="#003C77"/>
<path d="M51.9184 37.4156C51.9188 37.4568 51.911 37.4976 51.8955 37.5357C51.88 37.5739 51.857 37.6086 51.8279 37.6378C51.7988 37.6671 51.7642 37.6903 51.7261 37.7061C51.6879 37.722 51.647 37.7302 51.6057 37.7302C51.5643 37.7302 51.5234 37.722 51.4853 37.7061C51.4471 37.6903 51.4125 37.6671 51.3834 37.6378C51.3544 37.6086 51.3314 37.5739 51.3159 37.5357C51.3003 37.4976 51.2926 37.4568 51.293 37.4156C51.2938 37.3336 51.3271 37.2552 51.3857 37.1975C51.4442 37.1398 51.5233 37.1074 51.6057 37.1074C51.6881 37.1074 51.7671 37.1398 51.8257 37.1975C51.8842 37.2552 51.9175 37.3336 51.9184 37.4156Z" fill="#C5E1F9"/>
<path d="M75.2788 39.1316L76.5755 35.8008H65.894L64.5977 39.1316H75.2788Z" fill="#0561FC"/>
<path d="M23.9872 81.7949L21.5781 87.982H32.2606L34.6686 81.7949H23.9872Z" fill="#0561FC"/>
<path d="M82.1413 39.1316L83.4396 35.8008H80.0053L78.709 39.1316H82.1413Z" fill="#0561FC"/>
<path d="M38.0998 81.7949L35.6914 87.982H39.1247L41.5327 81.7949H38.0998Z" fill="#0561FC"/>
<path d="M102 85.3535H2V88.2665H102V85.3535Z" fill="#C5E1F9"/>
<path d="M2.14453 88C3.32684 89.2453 5.50069 89.7349 7.00042 89.7349H96.9953C98.4957 89.7349 100.671 89.2453 101.853 88H2.14453Z" fill="#9AC7F7"/>
<path d="M45.207 85.3535V85.6655C45.2069 85.8021 45.2338 85.9375 45.2862 86.0638C45.3386 86.1901 45.4155 86.3049 45.5125 86.4016C45.6094 86.4983 45.7246 86.575 45.8514 86.6274C45.9781 86.6798 46.114 86.7068 46.2513 86.7069H57.7481C57.8854 86.7069 58.0213 86.68 58.1482 86.6276C58.275 86.5752 58.3902 86.4985 58.4873 86.4018C58.5843 86.3051 58.6613 86.1903 58.7138 86.0639C58.7662 85.9376 58.7932 85.8022 58.7931 85.6655V85.3535H45.207Z" fill="#9AC7F7"/>
<path d="M43.6582 72.2673C43.6582 73.9672 43.152 75.629 42.2035 77.0424C41.255 78.4559 39.9068 79.5575 38.3295 80.208C36.7521 80.8585 35.0165 81.0287 33.3421 80.697C31.6676 80.3653 30.1295 79.5466 28.9224 78.3445C27.7152 77.1424 26.8932 75.6109 26.5603 73.9436C26.2273 72.2763 26.3984 70.5482 27.0519 68.9777C27.7054 67.4072 28.812 66.065 30.2316 65.1208C31.6513 64.1765 33.3203 63.6726 35.0275 63.6729C37.3165 63.6733 39.5117 64.579 41.1301 66.1907C42.7486 67.8024 43.658 69.9881 43.6582 72.2673Z" fill="#FFA800"/>
<path d="M78.9003 81.6378C79.6395 80.1235 79.98 78.4471 79.8897 76.7659C79.7995 75.0846 79.2816 73.4538 78.3846 72.0266C77.4876 70.5995 76.2409 69.4227 74.7618 68.607C73.2826 67.7912 71.6194 67.3633 69.9285 67.3633C68.2376 67.3633 66.5745 67.7912 65.0953 68.607C63.6161 69.4227 62.3695 70.5995 61.4725 72.0266C60.5755 73.4538 60.0575 75.0846 59.9673 76.7659C59.8771 78.4471 60.2176 80.1235 60.9568 81.6378H78.9003Z" fill="#FFA800"/>
<path d="M50.2004 34L54.6998 48.027L59.1992 74H50.2004H41.1992L45.699 48.027L50.2004 34Z" fill="#FFCC00"/>
<path d="M50.1999 34L53.1986 48.027L56.1992 74H50.1999H44.1992L47.1995 48.027L50.1999 34Z" fill="#FFA800"/>
<path d="M50.2016 34L51.2024 48.027L52.1992 74H50.2016H48.1992L49.1997 48.027L50.2016 34Z" fill="#FFCC00"/>
<path d="M71.2553 73.7814C71.4429 72.2503 71.2123 70.6973 70.5878 69.2858C69.9633 67.8743 68.9681 66.6566 67.7069 65.7611C66.4457 64.8656 64.9653 64.3253 63.4216 64.1972C61.8779 64.0691 60.328 64.358 58.9354 65.0333C58.2495 62.6896 56.7837 60.6476 54.7787 59.2425C52.7736 57.8375 50.3484 57.1529 47.9012 57.3011C45.4539 57.4493 43.1299 58.4215 41.3106 60.0581C39.4913 61.6947 38.2849 63.8985 37.8893 66.3078C35.1797 66.7801 32.7281 68.1988 30.9748 70.3093C30.1779 70.0509 29.3344 69.9666 28.5018 70.0621C27.6692 70.1577 26.8671 70.4309 26.1502 70.8631C25.4333 71.2953 24.8184 71.8764 24.3474 72.5666C23.8764 73.2569 23.5605 74.0401 23.4211 74.863C23.2817 75.6859 23.3221 76.529 23.5396 77.3349C23.7571 78.1408 24.1465 78.8905 24.6814 79.533C25.2162 80.1754 25.8839 80.6955 26.639 81.0577C27.394 81.42 28.2186 81.6159 29.0565 81.6321C29.0565 81.6321 29.0565 81.6362 29.0582 81.6374H70.7977C70.8012 81.6273 70.8046 81.6159 70.8081 81.6058C70.9182 81.6159 71.0209 81.6374 71.1333 81.6374C72.17 81.6387 73.1657 81.2336 73.9049 80.5098C74.6441 79.786 75.0675 78.8015 75.0836 77.7693C75.0996 76.7371 74.707 75.7401 73.9906 74.9938C73.2742 74.2476 72.2916 73.812 71.2553 73.7814Z" fill="#FFCC00"/>
<path d="M64.1158 76.7108C62.7859 76.7099 61.4828 77.0831 60.3567 77.7873C60.3341 75.268 59.4248 72.8364 57.787 70.9159C56.1492 68.9955 53.8868 67.7079 51.3937 67.2774C48.9006 66.847 46.3348 67.3009 44.1433 68.5602C41.9517 69.8194 40.2732 71.8042 39.4001 74.1689C36.7386 73.1966 33.7995 73.3079 31.2198 74.4787C28.6402 75.6495 26.6279 77.7853 25.6191 80.4234C26.6045 81.1841 27.8101 81.6079 29.0567 81.6318C29.0567 81.6318 29.0567 81.6359 29.0584 81.6371H70.798C70.8015 81.627 70.8048 81.6156 70.8083 81.6055C70.835 81.6074 70.8602 81.6109 70.8805 81.6122C70.4185 80.1878 69.5148 78.946 68.2993 78.0653C67.0838 77.1846 65.6191 76.7104 64.1158 76.7108Z" fill="#FFA800"/>
<path d="M45.4368 78.3782C45.4371 79.0427 45.2395 79.6925 44.8689 80.2452C44.4983 80.798 43.9714 81.2289 43.3549 81.4835C42.7383 81.7381 42.0598 81.8049 41.4051 81.6755C40.7505 81.5461 40.149 81.2263 39.6769 80.7566C39.2047 80.2868 38.8831 79.6882 38.7526 79.0365C38.6221 78.3847 38.6887 77.7091 38.9439 77.095C39.1991 76.4809 39.6314 75.9559 40.1863 75.5865C40.7411 75.2171 41.3935 75.0198 42.061 75.0195C42.5042 75.0192 42.9431 75.1058 43.3527 75.2744C43.7622 75.443 44.1344 75.6903 44.4479 76.0023C44.7614 76.3142 45.0101 76.6846 45.1798 77.0922C45.3495 77.4999 45.4368 77.9369 45.4368 78.3782Z" fill="#FFCC00"/>
<path d="M54.54 81.7381C54.9177 80.7298 55.0446 79.6455 54.91 78.5777C54.7753 77.51 54.383 76.4906 53.7666 75.6066C53.1503 74.7226 52.3281 74.0003 51.3704 73.5015C50.4127 73.0027 49.348 72.7422 48.2672 72.7422C47.1864 72.7422 46.1217 73.0027 45.164 73.5015C44.2063 74.0003 43.3842 74.7226 42.7678 75.6066C42.1514 76.4906 41.7591 77.51 41.6244 78.5777C41.4898 79.6455 41.6167 80.7298 41.9945 81.7381H54.54Z" fill="#FFCC00"/>
<path d="M58.5702 77.8051C58.5708 78.5835 58.3395 79.3446 57.9056 79.9922C57.4717 80.6397 56.8546 81.1445 56.1325 81.4428C55.4104 81.7411 54.6156 81.8195 53.8488 81.6679C53.0819 81.5164 52.3774 81.1418 51.8245 80.5915C51.2715 80.0413 50.8948 79.3401 50.7421 78.5766C50.5894 77.8132 50.6676 77.0218 50.9667 76.3026C51.2658 75.5834 51.7725 74.9686 52.4225 74.5362C53.0726 74.1037 53.8369 73.8729 54.6187 73.873C55.6663 73.8729 56.6711 74.287 57.4121 75.0244C58.1531 75.7617 58.5697 76.7619 58.5702 77.8051Z" fill="#FFCC00"/>
<path d="M50.186 39.6221C47.3069 39.6221 44.9727 43.4804 44.9727 48.2397C44.9727 48.8276 45.0098 49.4149 45.084 49.9981H55.2885C55.3616 49.4148 55.3978 48.8275 55.397 48.2397C55.397 43.4789 53.0644 39.6221 50.186 39.6221Z" fill="#0058B0"/>
<path d="M48.8294 39.6221C46.6993 39.6221 44.9727 43.4804 44.9727 48.2397C44.9727 48.8414 45.003 49.4313 45.0541 49.9981H52.6019C52.6566 49.4313 52.6843 48.8414 52.6843 48.237C52.6843 43.4804 50.9569 39.6221 48.8294 39.6221Z" fill="#0066CC"/>
<path d="M45.2651 18.9735C45.2651 28.1536 40.5421 36.1434 33.5702 40.2849C33.3599 40.4792 33.1546 40.6676 32.9561 40.8498C31.6667 42.021 32.0869 47.5507 32.0869 47.5507H45.3336V15.5527C45.3246 16.1659 45.2848 16.7783 45.2142 17.3875C45.2437 17.9132 45.2651 18.4404 45.2651 18.9735Z" fill="#0066CC"/>
<path d="M45.3347 29.6865C43.2041 35.0452 39.247 39.486 34.1573 42.2307C33.9256 42.4257 33.6996 42.6138 33.4818 42.7955C32.6211 43.5112 32.457 45.8407 32.457 47.5513H45.3347V29.6865Z" fill="#EAF4FE"/>
<path d="M33.6185 46.9053C33.3996 47.0788 33.2229 47.2994 33.1016 47.5504H45.3344V36.9609C42.6171 41.0266 38.8297 44.2704 34.386 46.3377C34.1246 46.5328 33.8695 46.7227 33.6185 46.9053Z" fill="#C5E1F9"/>
<path d="M55.1083 18.9741C55.1083 28.1542 59.8325 36.1439 66.8043 40.2855C67.0132 40.4798 67.2185 40.668 67.4202 40.8503C68.7051 42.0215 68.2873 47.5513 68.2873 47.5513H55.041V15.5518C55.0499 16.1663 55.09 16.78 55.1612 17.3905C55.1313 17.9138 55.1083 18.441 55.1083 18.9741Z" fill="#0066CC"/>
<path d="M55.041 29.6875C57.1715 35.0463 61.1286 39.4873 66.2185 42.2317C66.4481 42.4267 66.6741 42.6147 66.8931 42.7965C67.7538 43.5098 67.9183 45.8416 67.9183 47.5522H55.041V29.6875Z" fill="#EAF4FE"/>
<path d="M66.7558 46.9063C66.9746 47.0795 67.1508 47.3001 67.271 47.5514H55.041V36.9619C57.7587 41.0266 61.5451 44.2701 65.9874 46.3387C66.2497 46.5337 66.5052 46.7214 66.7558 46.9063Z" fill="#C5E1F9"/>
<path d="M55.3772 47.5508V14.4725C55.3772 11.4434 53.1185 1.61852 50.1876 0C47.2574 1.61852 44.9961 11.4434 44.9961 14.4725V47.5508H55.3772Z" fill="#C5E1F9"/>
<path d="M50.1876 0C50.1569 0.0168467 50.1287 0.0391484 50.0996 0.0587628V47.5508H55.3771V14.4725C55.3771 11.4434 53.1184 1.61852 50.1876 0Z" fill="#EAF4FE"/>
<path d="M46.4766 6.75619H53.8968C52.9644 3.70205 51.6614 0.814336 50.1887 0C48.7142 0.814336 47.4113 3.70049 46.4766 6.75619Z" fill="#0066CC"/>
<path d="M50.0996 6.75619H53.8956C52.9632 3.70205 51.6602 0.814336 50.1876 0C50.1569 0.0168467 50.1287 0.0391484 50.0996 0.0587628V6.75619Z" fill="#0058B0"/>
<path d="M53.3818 12.2374C53.167 12.7204 52.4601 12.5391 51.6329 12.2292C50.6839 11.861 49.6306 11.861 48.6816 12.2292C47.8531 12.5355 47.1466 12.7204 46.9339 12.2374C46.7162 11.7638 47.2306 10.622 48.3083 10.208C49.4969 9.74578 50.8167 9.74578 52.0053 10.208C53.0834 10.6205 53.5974 11.7638 53.3818 12.2374Z" fill="#0066CC"/>
<path d="M39.5995 39.6211C38.3412 39.6211 37.3203 43.4795 37.3203 48.236C37.3203 48.8404 37.3363 49.4303 37.3662 49.9971L41.8327 49.9995C41.8637 49.4303 41.8806 48.8404 41.8806 48.2387C41.8806 43.4795 40.8602 39.6211 39.5995 39.6211Z" fill="#0073E6"/>
<path d="M39.5983 39.6211C39.271 39.6211 38.96 39.8886 38.6758 40.361C39.7114 40.9224 40.5075 44.2789 40.5075 48.3472C40.5075 48.9141 40.4928 49.464 40.4634 49.9971L41.8315 49.9995C41.8625 49.4303 41.8794 48.8404 41.8794 48.2387C41.8794 43.4795 40.859 39.6211 39.5983 39.6211Z" fill="#0058B0"/>
<path d="M60.772 39.6211C59.5127 39.6211 58.4922 43.4795 58.4922 48.236C58.4922 48.8404 58.5085 49.4303 58.537 49.9971H63.0041C63.0348 49.4303 63.0511 48.8404 63.0511 48.236C63.0511 43.4795 62.0311 39.6211 60.772 39.6211Z" fill="#0073E6"/>
<path d="M60.7727 39.6211C60.4444 39.6211 60.1313 39.8886 59.8496 40.361C60.8866 40.9224 61.6813 44.2789 61.6813 48.3472C61.6813 48.914 61.6663 49.464 61.6364 49.9971H63.0049C63.0356 49.4303 63.0519 48.8404 63.0519 48.236C63.0519 43.4795 62.0318 39.6211 60.7727 39.6211Z" fill="#0058B0"/>
<circle cx="16" cy="16" r="15.5" fill="#0066CC" stroke="#0066CC"/>
<path d="M19.8379 23H12.1339V20.894L14.6719 18.32C15.5719 17.396 16.1959 16.688 16.5439 16.196C16.9039 15.704 17.0839 15.182 17.0839 14.63C17.0839 14.066 16.9339 13.67 16.6339 13.442C16.3459 13.214 15.9319 13.1 15.3919 13.1C14.5879 13.1 13.7119 13.172 12.7639 13.316L12.3319 13.37L12.2059 11.444C13.3819 11.084 14.5999 10.904 15.8599 10.904C18.3799 10.904 19.6399 12.038 19.6399 14.306C19.6399 15.194 19.4479 15.962 19.0639 16.61C18.6799 17.258 17.9839 18.044 16.9759 18.968L14.9059 20.84H19.8379V23Z" fill="white"/>
</svg>
