<svg width="180" height="180" viewBox="0 0 180 180" fill="none" xmlns="http://www.w3.org/2000/svg">
<circle cx="90" cy="90" r="90" fill="#F0F6FC"/>
<path d="M29.6235 152.691C28.4432 152.689 27.3116 152.222 26.4771 151.39C25.6426 150.559 25.1732 149.432 25.1719 148.257V65.9808C25.173 64.8054 25.6423 63.6785 26.4769 62.8473C27.3115 62.016 28.4431 61.5484 29.6235 61.5469H150.373C151.553 61.5483 152.685 62.0159 153.519 62.8472C154.353 63.6786 154.822 64.8055 154.823 65.9808V148.257C154.822 149.432 154.353 150.559 153.519 151.39C152.685 152.222 151.553 152.689 150.373 152.691H29.6235Z" fill="#EAF4FE"/>
<path d="M154.408 148.258C154.409 149.323 153.984 150.345 153.228 151.099C152.472 151.853 151.446 152.277 150.376 152.277H29.6261C29.0961 152.277 28.5712 152.173 28.0814 151.971C27.5917 151.769 27.1467 151.473 26.7719 151.1C26.3971 150.727 26.0998 150.284 25.8969 149.796C25.6941 149.308 25.5898 148.786 25.5898 148.258V65.9816C25.5896 65.4538 25.6938 64.9311 25.8966 64.4434C26.0994 63.9557 26.3967 63.5125 26.7715 63.1393C27.1464 62.7661 27.5914 62.4701 28.0812 62.2682C28.5711 62.0664 29.096 61.9626 29.6261 61.9629H150.376C150.905 61.9629 151.43 62.067 151.92 62.269C152.409 62.471 152.854 62.7671 153.228 63.1403C153.603 63.5135 153.9 63.9565 154.102 64.444C154.305 64.9315 154.409 65.454 154.408 65.9816V148.258Z" fill="#0058B0"/>
<path d="M148.093 67.7266H31.9062V141.567H148.093V67.7266Z" fill="#003C77"/>
<path d="M89.8559 64.758C89.8566 64.8292 89.8431 64.8999 89.8163 64.9659C89.7894 65.0319 89.7496 65.092 89.6993 65.1426C89.649 65.1932 89.5891 65.2334 89.5231 65.2609C89.457 65.2883 89.3862 65.3024 89.3147 65.3024C89.2431 65.3024 89.1723 65.2883 89.1063 65.2609C89.0403 65.2334 88.9803 65.1932 88.93 65.1426C88.8797 65.092 88.8399 65.0319 88.8131 64.9659C88.7862 64.8999 88.7727 64.8292 88.7735 64.758C88.7749 64.616 88.8326 64.4804 88.9339 64.3805C89.0353 64.2806 89.1721 64.2246 89.3147 64.2246C89.4573 64.2246 89.5941 64.2806 89.6954 64.3805C89.7967 64.4804 89.8544 64.616 89.8559 64.758Z" fill="#C5E1F9"/>
<path d="M130.284 67.7277L132.528 61.9629H114.041L111.797 67.7277H130.284Z" fill="#0561FC"/>
<path d="M41.5132 141.568L37.3438 152.277H55.8326L60.0004 141.568H41.5132Z" fill="#0561FC"/>
<path d="M142.167 67.7277L144.414 61.9629H138.47L136.227 67.7277H142.167Z" fill="#0561FC"/>
<path d="M65.9418 141.568L61.7734 152.277H67.7157L71.8834 141.568H65.9418Z" fill="#0561FC"/>
<path d="M176.538 147.727H3.46094V152.768H176.538V147.727Z" fill="#C5E1F9"/>
<path d="M3.71094 152.308C5.75725 154.463 9.51967 155.31 12.1154 155.31H167.876C170.473 155.31 174.238 154.463 176.283 152.308H3.71094Z" fill="#9AC7F7"/>
<path d="M78.2422 147.727V148.266C78.242 148.503 78.2885 148.737 78.3792 148.956C78.47 149.174 78.603 149.373 78.7708 149.54C78.9387 149.708 79.138 149.841 79.3574 149.931C79.5768 150.022 79.8119 150.069 80.0495 150.069H99.9478C100.185 150.069 100.421 150.022 100.64 149.932C100.86 149.841 101.059 149.708 101.227 149.541C101.395 149.373 101.528 149.175 101.619 148.956C101.71 148.737 101.757 148.503 101.756 148.266V147.727H78.2422Z" fill="#9AC7F7"/>
<path d="M75.559 125.078C75.5591 128.02 74.6829 130.896 73.0413 133.343C71.3996 135.789 69.0663 137.696 66.3363 138.822C63.6063 139.948 60.6023 140.242 57.7042 139.668C54.8062 139.094 52.1441 137.677 50.0548 135.596C47.9655 133.516 46.5428 130.865 45.9665 127.979C45.3903 125.094 45.6864 122.103 46.8175 119.385C47.9485 116.666 49.8637 114.343 52.3208 112.709C54.7779 111.075 57.6665 110.203 60.6214 110.203C64.5832 110.204 68.3824 111.771 71.1836 114.561C73.9848 117.35 75.5587 121.133 75.559 125.078Z" fill="#FFA800"/>
<path d="M136.555 141.296C137.834 138.675 138.424 135.773 138.267 132.864C138.111 129.954 137.215 127.131 135.662 124.661C134.11 122.191 131.952 120.154 129.392 118.742C126.832 117.331 123.953 116.59 121.027 116.59C118.1 116.59 115.222 117.331 112.662 118.742C110.102 120.154 107.944 122.191 106.391 124.661C104.839 127.131 103.942 129.954 103.786 132.864C103.63 135.773 104.219 138.675 105.499 141.296H136.555Z" fill="#FFA800"/>
<path d="M86.8836 58.8457L94.6711 83.1233L102.459 128.076H86.8836H71.3047L79.0927 83.1233L86.8836 58.8457Z" fill="#FFCC00"/>
<path d="M86.8818 58.8457L92.0719 83.1233L97.2653 128.076H86.8818H76.4961L81.689 83.1233L86.8818 58.8457Z" fill="#FFA800"/>
<path d="M86.8875 58.8457L88.6196 83.1233L90.345 128.076H86.8875H83.4219L85.1534 83.1233L86.8875 58.8457Z" fill="#FFCC00"/>
<path d="M123.325 127.699C123.65 125.049 123.251 122.361 122.17 119.918C121.089 117.475 119.366 115.367 117.184 113.817C115.001 112.267 112.439 111.332 109.767 111.111C107.095 110.889 104.413 111.389 102.002 112.558C100.815 108.501 98.2781 104.967 94.8079 102.535C91.3376 100.103 87.1402 98.9185 82.9045 99.175C78.6688 99.4315 74.6465 101.114 71.4978 103.947C68.349 106.779 66.261 110.594 65.5763 114.763C60.8867 115.581 56.6434 118.036 53.6088 121.689C52.2296 121.242 50.7697 121.096 49.3287 121.261C47.8877 121.427 46.4994 121.9 45.2586 122.648C44.0178 123.396 42.9535 124.401 42.1384 125.596C41.3232 126.791 40.7764 128.146 40.5351 129.571C40.2938 130.995 40.3638 132.454 40.7402 133.849C41.1166 135.244 41.7907 136.541 42.7164 137.653C43.6421 138.765 44.7978 139.665 46.1045 140.292C47.4113 140.919 48.8384 141.258 50.2887 141.286C50.2887 141.286 50.2887 141.293 50.2917 141.296H122.533C122.539 141.278 122.545 141.258 122.551 141.241C122.742 141.258 122.919 141.296 123.114 141.296C124.908 141.298 126.632 140.597 127.911 139.344C129.19 138.091 129.923 136.387 129.951 134.601C129.979 132.814 129.299 131.089 128.059 129.797C126.819 128.505 125.119 127.752 123.325 127.699Z" fill="#FFCC00"/>
<path d="M110.969 132.769C108.667 132.767 106.412 133.413 104.462 134.632C104.424 130.272 102.85 126.063 100.015 122.739C97.1804 119.416 93.2646 117.187 88.9496 116.442C84.6347 115.697 80.1939 116.483 76.4008 118.662C72.6077 120.842 69.7026 124.277 68.1915 128.369C63.585 126.687 58.4981 126.879 54.0333 128.906C49.5686 130.932 46.0858 134.629 44.3398 139.195C46.0453 140.511 48.1319 141.245 50.2895 141.286C50.2895 141.286 50.2895 141.293 50.2925 141.295H122.534C122.54 141.278 122.546 141.258 122.552 141.241C122.598 141.244 122.642 141.25 122.677 141.252C121.877 138.787 120.313 136.638 118.209 135.113C116.106 133.589 113.571 132.768 110.969 132.769Z" fill="#FFA800"/>
<path d="M78.6385 135.654C78.639 136.804 78.297 137.929 77.6556 138.885C77.0142 139.842 76.1023 140.588 75.0352 141.028C73.9681 141.469 72.7938 141.585 71.6607 141.361C70.5276 141.137 69.4866 140.583 68.6694 139.77C67.8522 138.957 67.2955 137.921 67.0697 136.793C66.8439 135.665 66.9591 134.496 67.4008 133.433C67.8425 132.37 68.5908 131.462 69.5511 130.822C70.5113 130.183 71.6405 129.841 72.7957 129.841C73.5628 129.84 74.3225 129.99 75.0313 130.282C75.7402 130.574 76.3844 131.002 76.927 131.542C77.4696 132.082 77.9001 132.723 78.1937 133.428C78.4874 134.134 78.6386 134.89 78.6385 135.654Z" fill="#FFCC00"/>
<path d="M94.3933 141.469C95.0471 139.724 95.2668 137.847 95.0337 135.999C94.8007 134.151 94.1217 132.387 93.0549 130.857C91.9881 129.327 90.5651 128.077 88.9076 127.214C87.25 126.35 85.4072 125.899 83.5366 125.899C81.666 125.899 79.8232 126.35 78.1657 127.214C76.5082 128.077 75.0852 129.327 74.0184 130.857C72.9515 132.387 72.2726 134.151 72.0395 135.999C71.8064 137.847 72.0262 139.724 72.68 141.469H94.3933Z" fill="#FFCC00"/>
<path d="M101.372 134.663C101.373 136.01 100.972 137.327 100.221 138.448C99.4704 139.569 98.4025 140.443 97.1526 140.959C95.9028 141.475 94.5273 141.611 93.2 141.349C91.8728 141.086 90.6535 140.438 89.6964 139.486C88.7393 138.533 88.0874 137.32 87.8231 135.998C87.5589 134.677 87.6941 133.307 88.2118 132.062C88.7296 130.818 89.6064 129.754 90.7315 129.005C91.8566 128.257 93.1794 127.857 94.5325 127.857C96.3457 127.857 98.0848 128.574 99.3673 129.85C100.65 131.126 101.371 132.857 101.372 134.663Z" fill="#FFCC00"/>
<path d="M86.8591 68.5762C81.876 68.5762 77.8359 75.2541 77.8359 83.4913C77.836 84.5088 77.9003 85.5253 78.0286 86.5347H95.6903C95.8168 85.5251 95.8795 84.5087 95.8782 83.4913C95.8782 75.2514 91.8408 68.5762 86.8591 68.5762Z" fill="#0058B0"/>
<path d="M84.511 68.5762C80.8243 68.5762 77.8359 75.2541 77.8359 83.4913C77.8359 84.5327 77.8884 85.5537 77.9769 86.5347H91.0404C91.1351 85.5537 91.1831 84.5327 91.1831 83.4866C91.1831 75.2541 88.1933 68.5762 84.511 68.5762Z" fill="#0066CC"/>
<path d="M78.3435 32.8376C78.3435 48.7262 70.1691 62.5546 58.1024 69.7227C57.7384 70.0589 57.383 70.3851 57.0395 70.7003C54.8079 72.7274 55.5351 82.2981 55.5351 82.2981H78.462V26.917C78.4465 27.9783 78.3776 29.0381 78.2554 30.0925C78.3064 31.0024 78.3435 31.9149 78.3435 32.8376Z" fill="#0066CC"/>
<path d="M78.4641 51.3789C74.7764 60.6535 67.9277 68.3396 59.1186 73.0899C58.7175 73.4275 58.3263 73.753 57.9495 74.0675C56.4597 75.3062 56.1758 79.338 56.1758 82.2986H78.4641V51.3789Z" fill="#EAF4FE"/>
<path d="M58.1838 81.1811C57.8049 81.4815 57.499 81.8632 57.2891 82.2977H78.4614V63.9697C73.7583 71.0065 67.2031 76.6207 59.5121 80.1988C59.0597 80.5364 58.6181 80.8652 58.1838 81.1811Z" fill="#C5E1F9"/>
<path d="M95.3782 32.8393C95.3782 48.728 103.555 62.5564 115.621 69.7244C115.983 70.0606 116.338 70.3865 116.687 70.702C118.911 72.7291 118.188 82.2998 118.188 82.2998H95.2617V26.916C95.2772 27.9796 95.3466 29.0418 95.4697 30.0984C95.418 31.0041 95.3782 31.9166 95.3782 32.8393Z" fill="#0066CC"/>
<path d="M95.2617 51.3818C98.9491 60.6567 105.798 68.343 114.607 73.0929C115.005 73.4305 115.396 73.7559 115.775 74.0705C117.265 75.305 117.549 79.3409 117.549 82.3016H95.2617V51.3818Z" fill="#EAF4FE"/>
<path d="M115.537 81.184C115.916 81.4838 116.221 81.8657 116.429 82.3006H95.2617V63.9727C99.9653 71.0076 106.519 76.6214 114.207 80.2017C114.661 80.5393 115.104 80.8641 115.537 81.184Z" fill="#C5E1F9"/>
<path d="M95.8423 82.2995V25.0485C95.8423 19.8059 91.933 2.80129 86.8604 0C81.7888 2.80129 77.875 19.8059 77.875 25.0485V82.2995H95.8423Z" fill="#C5E1F9"/>
<path d="M86.8592 0C86.8061 0.0291577 86.7574 0.0677569 86.707 0.101705V82.2995H95.8412V25.0485C95.8412 19.8059 91.9319 2.80129 86.8592 0Z" fill="#EAF4FE"/>
<path d="M80.4375 11.6934H93.2802C91.6664 6.4074 89.4113 1.40943 86.8624 0C84.3104 1.40943 82.0553 6.40469 80.4375 11.6934Z" fill="#0066CC"/>
<path d="M86.707 11.6934H93.277C91.6632 6.4074 89.4081 1.40943 86.8592 0C86.8061 0.0291577 86.7574 0.0677569 86.707 0.101705V11.6934Z" fill="#0058B0"/>
<path d="M92.3933 21.1809C92.0216 22.0168 90.798 21.7029 89.3664 21.1666C87.7239 20.5293 85.9009 20.5293 84.2584 21.1666C82.8244 21.6968 81.6016 22.0168 81.2335 21.1809C80.8566 20.3612 81.7469 18.385 83.6122 17.6683C85.6695 16.8684 87.9537 16.8684 90.0109 17.6683C91.8769 18.3823 92.7665 20.3612 92.3933 21.1809Z" fill="#0066CC"/>
<path d="M68.5385 68.5742C66.3607 68.5742 64.5938 75.2522 64.5938 83.4846C64.5938 84.5307 64.6214 85.5517 64.6731 86.5327L72.4036 86.5368C72.4573 85.5517 72.4866 84.5307 72.4866 83.4894C72.4866 75.2522 70.7204 68.5742 68.5385 68.5742Z" fill="#0073E6"/>
<path d="M68.5381 68.5742C67.9716 68.5742 67.4333 69.0373 66.9414 69.8549C68.7339 70.8264 70.1116 76.6358 70.1116 83.6772C70.1116 84.6582 70.0862 85.61 70.0354 86.5327L72.4032 86.5368C72.4569 85.5517 72.4862 84.5307 72.4862 83.4894C72.4862 75.2522 70.72 68.5742 68.5381 68.5742Z" fill="#0058B0"/>
<path d="M105.184 68.5742C103.005 68.5742 101.238 75.2522 101.238 83.4846C101.238 84.5307 101.267 85.5517 101.316 86.5327H109.047C109.101 85.5517 109.129 84.5307 109.129 83.4846C109.129 75.2522 107.363 68.5742 105.184 68.5742Z" fill="#0073E6"/>
<path d="M105.184 68.5742C104.615 68.5742 104.073 69.0373 103.586 69.8549C105.381 70.8264 106.756 76.6358 106.756 83.6772C106.756 84.6582 106.73 85.61 106.679 86.5327H109.047C109.1 85.5517 109.128 84.5307 109.128 83.4846C109.128 75.2522 107.363 68.5742 105.184 68.5742Z" fill="#0058B0"/>
</svg>
