<svg width="54" height="54" viewBox="0 0 54 54" fill="none" xmlns="http://www.w3.org/2000/svg">
<path fill-rule="evenodd" clip-rule="evenodd" d="M54 0.931152L28.5261 0.931152L0 0.931152L0 53.0691H28.5261L54 53.0691L54 0.931152Z" fill="#0066CC"/>
<path fill-rule="evenodd" clip-rule="evenodd" d="M12.5934 21.8887C11.5997 21.8887 10.7816 22.2121 10.1433 22.8616C9.50503 23.5147 9.18555 24.3284 9.18555 25.309C9.18555 26.2896 9.50926 27.111 10.1518 27.7724C10.7929 28.4331 11.6103 28.7655 12.6019 28.7655C13.5914 28.7655 14.3968 28.4401 15.0195 27.7912C15.638 27.1402 15.9519 26.3293 15.9519 25.3514C15.9519 24.3743 15.638 23.5529 15.0195 22.8881C14.3968 22.2218 13.5878 21.8887 12.5934 21.8887Z" fill="white"/>
<path d="M31.7376 35.0325H26.9888V43.4277H21.1376L21.1376 14.5957L31.7376 14.5957C38.5781 14.5957 41.9984 17.9312 41.9984 24.6021C41.9984 27.9659 41.1221 30.5523 39.3696 32.3613C37.6453 34.1421 35.1013 35.0325 31.7376 35.0325ZM26.9888 30.0293H31.6952C34.6067 30.0293 36.0624 28.2203 36.0624 24.6021C36.0624 22.8213 35.7091 21.5493 35.0024 20.7861C34.2957 19.9947 33.1933 19.5989 31.6952 19.5989H26.9888V30.0293Z" fill="white"/>
</svg>
