<svg width="320" height="286" viewBox="0 0 320 286" fill="none" xmlns="http://www.w3.org/2000/svg">
<path d="M150.728 62.6476L117.533 25.6133L3.01367 63.9434L36.2087 100.978" fill="#FFBF0D"/>
<path d="M152.027 62.6476L185.608 25.6133L301.459 63.9434L267.878 100.978L152.027 62.6476ZM152.027 62.6476L36.1758 100.978L152.027 62.6476Z" fill="#FFBF0D"/>
<path d="M155.746 152.224L36.1758 101.557L152.237 61.7871L268.298 101.557L155.746 152.224Z" fill="#FFD671"/>
<path d="M229.109 37.6719H75.3652V176.342H229.109V37.6719Z" fill="white"/>
<path d="M229.109 37.6719H75.3652V49.7302H229.109V37.6719Z" fill="#9AC7F7"/>
<path d="M84.4081 43.7001C84.4081 45.3366 83.03 46.7147 81.3935 46.7147C79.6709 46.7147 78.3789 45.3366 78.3789 43.7001C78.3789 41.9775 79.757 40.6855 81.3935 40.6855C83.03 40.6855 84.4081 42.0636 84.4081 43.7001Z" fill="#003E99"/>
<path d="M93.451 43.7001C93.451 45.3366 92.0729 46.7147 90.4365 46.7147C88.8 46.7147 87.4219 45.3366 87.4219 43.7001C87.4219 41.9775 88.8 40.6855 90.4365 40.6855C92.0729 40.6855 93.451 42.0636 93.451 43.7001Z" fill="#0450CF"/>
<path d="M99.4814 43.7001C99.4814 45.3366 98.7923 46.7147 97.9741 46.7147C97.1128 46.7147 96.4668 45.3366 96.4668 43.7001C96.4668 41.9775 97.1558 40.6855 97.9741 40.6855C98.7923 40.6855 99.4814 42.0636 99.4814 43.7001Z" fill="#EAF4FE"/>
<path d="M210.814 132.873H81.2402V136.338H210.814V132.873Z" fill="#9AC7F7"/>
<path d="M215.801 139.178H81.2402V142.643H215.801V139.178Z" fill="#9AC7F7"/>
<path d="M177.503 145.484H81.2402V148.949H177.503V145.484Z" fill="#9AC7F7"/>
<path d="M213.308 66.5527H138.998V70.0176H213.308V66.5527Z" fill="#9AC7F7"/>
<path d="M215.801 72.8594H138.998V76.3242H215.801V72.8594Z" fill="#9AC7F7"/>
<path d="M215.801 79.1641H138.998V82.6289H215.801V79.1641Z" fill="#9AC7F7"/>
<path d="M212.477 85.4707H138.998V88.9356H212.477V85.4707Z" fill="#9AC7F7"/>
<path d="M215.801 91.7754H138.998V95.2402H215.801V91.7754Z" fill="#9AC7F7"/>
<path d="M210.814 98.082H138.998V101.547H210.814V98.082Z" fill="#9AC7F7"/>
<path d="M215.801 104.393H138.998V107.857H215.801V104.393Z" fill="#9AC7F7"/>
<path d="M211.646 110.693H138.998V114.158H211.646V110.693Z" fill="#9AC7F7"/>
<path d="M171.755 117.004H138.998V120.469H171.755V117.004Z" fill="#9AC7F7"/>
<path d="M129.628 67.8164H81.3945V110.02H129.628V67.8164Z" fill="#2A66C4"/>
<path d="M93.4159 85.9043C92.9816 85.9043 92.6197 85.9402 92.2579 86.012C91.896 86.0837 91.5341 86.1914 91.2446 86.3349C90.6656 86.6221 90.3761 87.0168 90.4484 87.4116C90.4484 87.8064 90.7379 88.2011 91.317 88.4882C91.6065 88.6318 91.9684 88.7394 92.3302 88.8112C92.6921 88.883 93.1264 88.9189 93.4883 88.9189C93.9225 88.9189 94.2844 88.883 94.6463 88.8112C95.0082 88.7394 95.3701 88.6318 95.6596 88.4882C96.2386 88.2011 96.5281 87.8064 96.4557 87.4116C96.4557 87.0168 96.1662 86.6221 95.6596 86.3349C95.3701 86.1914 95.0806 86.0837 94.6463 86.012C94.2844 85.9402 93.9225 85.9043 93.4159 85.9043Z" fill="white"/>
<path d="M108.664 93.9856H104.528V100.978H99.4805V76.8613H108.664C114.553 76.8613 117.568 79.644 117.568 85.2094C117.568 87.9921 116.797 90.204 115.325 91.7023C113.782 93.2007 111.609 93.9856 108.664 93.9856ZM104.598 89.7758H108.664C111.188 89.7758 112.45 88.2061 112.45 85.2094C112.59 84.0678 112.24 82.9262 111.539 81.9986C111.188 81.6418 110.698 81.3564 110.207 81.2137C109.716 81.071 109.155 80.9997 108.664 80.9997H104.598V89.7758Z" fill="white"/>
<path d="M35.3945 150.609V228.984L155.758 285.669V151.025L35.3945 150.609Z" fill="#D98F00"/>
<path d="M155.75 151.025V285.669L269.05 228.984V149.916L155.75 151.025Z" fill="#FECE40"/>
<path d="M156.758 150.462L121.141 203.472L0 146.937L35.6173 100.977" fill="#FFBF0D"/>
<path d="M269.701 100.977L301.458 147.174L195.556 200.458L156.758 150.717" fill="#FFBF0D"/>
<path d="M250.209 34.6562H319.544V89.4524H306.155V103.992L291.674 89.4524H250.209V34.6562Z" fill="#C5E1F9"/>
<path d="M299.63 0H196.857V73.0391H299.63V0Z" fill="#559BFF"/>
<path d="M214.729 92.4454V59.668H247.486L214.729 92.4454Z" fill="#559BFF"/>
<path d="M283.227 22.3828H213.211V26.8871H283.227V22.3828Z" fill="#C5E1F9"/>
<path d="M283.227 34.3008H213.211V38.8051H283.227V34.3008Z" fill="#C5E1F9"/>
<path d="M283.227 46.2227H213.211V50.727H283.227V46.2227Z" fill="#C5E1F9"/>
<path d="M176.528 99.3242H173.619V107.016H176.528V99.3242Z" fill="#FFD671"/>
<path d="M164.34 114.016L157.691 110.205L159.146 107.641L165.794 111.521L164.34 114.016Z" fill="#FFD671"/>
<path d="M159.146 129.405L157.691 126.91L164.34 123.029L165.794 125.593L159.146 129.405Z" fill="#FFD671"/>
<path d="M176.528 130.096H173.619V137.788H176.528V130.096Z" fill="#FFD671"/>
<path d="M185.773 123.062L184.318 125.582L190.975 129.43L192.43 126.909L185.773 123.062Z" fill="#C5E1F9"/>
<path d="M190.943 107.663L184.285 111.508L185.739 114.029L192.397 110.183L190.943 107.663Z" fill="#FFD671"/>
<path d="M209.836 129.751L195.57 125.108L181.373 120.465L186.013 134.74L190.584 148.946L195.57 139.175L203.188 146.798L207.69 142.293L200.072 134.74L209.836 129.751Z" fill="#0450CF"/>
<path d="M195.57 125.108L181.373 120.465L181.512 120.95L205.266 144.719L207.69 142.293L200.072 134.74L209.836 129.751L195.57 125.108Z" fill="#0561FC"/>
</svg>
