<svg width="310" height="274" viewBox="0 0 310 274" fill="none" xmlns="http://www.w3.org/2000/svg">
<g clip-path="url(#clip0_4477_208108)">
<path d="M147.677 58.4274L114.823 22.0859L1.47852 59.699L34.3329 96.0405" fill="#FFBF0D"/>
<path d="M147.676 58.4274L180.531 22.0859L293.875 59.699L261.02 96.0405L147.676 58.4274ZM147.676 58.4274L34.332 96.0405L147.676 58.4274Z" fill="#FFBF0D"/>
<path d="M151.103 143.961L34.332 96.0408L147.676 58.4277L261.02 96.0408L151.103 143.961Z" fill="#FFD671"/>
<path d="M221.649 34.2676H72.0234V167.587H221.649V34.2676Z" fill="white"/>
<path d="M221.649 34.2676H72.0234V46.1137H221.649V34.2676Z" fill="#9AC7F7"/>
<path d="M82.1699 40.1569C82.1699 41.4285 81.0949 42.4994 79.8183 42.4994C78.4746 42.4994 77.4668 41.4285 77.4668 40.1569C77.4668 38.8184 78.5418 37.8145 79.8183 37.8145C81.0949 37.8145 82.1699 38.8853 82.1699 40.1569Z" fill="#003E99"/>
<path d="M89.6953 40.1569C89.6953 41.4285 88.6203 42.4994 87.3437 42.4994C86.0672 42.4994 84.9922 41.4285 84.9922 40.1569C84.9922 38.8184 86.0672 37.8145 87.3437 37.8145C88.6203 37.8145 89.6953 38.8853 89.6953 40.1569Z" fill="#0450CF"/>
<path d="M97.2187 40.1569C97.2187 41.4285 96.1437 42.4994 94.8672 42.4994C93.5234 42.4994 92.5156 41.4285 92.5156 40.1569C92.5156 38.8184 93.5906 37.8145 94.8672 37.8145C96.1437 37.8145 97.2187 38.8853 97.2187 40.1569Z" fill="#EAF4FE"/>
<path d="M204.517 126.427H78.8105V129.773H204.517V126.427Z" fill="#9AC7F7"/>
<path d="M209.355 132.517H78.8105V135.863H209.355V132.517Z" fill="#9AC7F7"/>
<path d="M172.2 138.607H78.8105V141.954H172.2V138.607Z" fill="#9AC7F7"/>
<path d="M206.935 62.377H134.844V65.7233H206.935V62.377Z" fill="#9AC7F7"/>
<path d="M209.354 68.4668H134.844V71.8132H209.354V68.4668Z" fill="#9AC7F7"/>
<path d="M209.354 74.5576H134.844V77.904H209.354V74.5576Z" fill="#9AC7F7"/>
<path d="M206.129 80.6484H134.844V83.9948H206.129V80.6484Z" fill="#9AC7F7"/>
<path d="M209.354 86.7383H134.844V90.0846H209.354V86.7383Z" fill="#9AC7F7"/>
<path d="M204.516 92.8281H134.844V96.1745H204.516V92.8281Z" fill="#9AC7F7"/>
<path d="M209.354 98.9199H134.844V102.266H209.354V98.9199Z" fill="#9AC7F7"/>
<path d="M205.323 105.01H134.844V108.356H205.323V105.01Z" fill="#9AC7F7"/>
<path d="M166.623 111.1H134.844V114.446H166.623V111.1Z" fill="#9AC7F7"/>
<path d="M125.035 62.7783H80.2891V105.143H125.035V62.7783Z" fill="#2A66C4"/>
<path d="M90.7023 79.6445C90.2992 79.6445 89.9633 79.7115 89.6273 79.8453C89.2914 79.9792 88.9555 80.1799 88.6867 80.4477C88.1492 80.9831 87.8805 81.7193 87.9476 82.4555C87.9476 83.1917 88.2164 83.9279 88.7539 84.4633C89.0226 84.731 89.3586 84.9318 89.6945 85.0656C90.0304 85.1995 90.4336 85.2664 90.7695 85.2664C91.1726 85.2664 91.5086 85.1995 91.8445 85.0656C92.1804 84.9318 92.5164 84.731 92.7851 84.4633C93.3226 83.9279 93.5913 83.1917 93.5242 82.4555C93.5242 81.7193 93.2554 80.9831 92.7851 80.4477C92.5164 80.1799 92.2476 79.9792 91.8445 79.8453C91.5086 79.7115 91.1726 79.6445 90.7023 79.6445Z" fill="white"/>
<path d="M106.559 88.8799H102.595V95.4388H97.7578V72.8174H106.559C112.203 72.8174 115.092 75.4275 115.092 80.6479C115.092 83.258 114.353 85.3328 112.942 86.7382C111.464 88.1437 109.381 88.8799 106.559 88.8799ZM102.662 84.9312H106.559C108.978 84.9312 110.187 83.4588 110.187 80.6479C110.322 79.577 109.986 78.5062 109.314 77.6361C108.978 77.3015 108.508 77.0338 108.037 76.8999C107.567 76.7661 107.03 76.6992 106.559 76.6992H102.662V84.9312Z" fill="white"/>
<path d="M34.332 143.561V219.255L151.103 274.002V143.962L34.332 143.561Z" fill="#D98F00"/>
<path d="M151.102 143.961V274.001L261.019 219.255V142.891L151.102 143.961Z" fill="#FECE40"/>
<path d="M151.103 143.961L116.771 195.294L0 140.548L34.3325 96.041" fill="#FFBF0D"/>
<path d="M261.021 96.041L291.927 140.548L188.863 191.881L151.104 143.961" fill="#FFBF0D"/>
<path d="M241.805 30.252H309.999V83.7268H296.831V97.9154L282.587 83.7268H241.805V30.252Z" fill="#C5E1F9"/>
<path d="M290.697 -1.90234H190.992V68.6389H290.697V-1.90234Z" fill="#559BFF"/>
<path d="M208.326 87.3792V55.7227H240.106L208.326 87.3792Z" fill="#559BFF"/>
<path d="M274.774 19.7148H206.848V24.0651H274.774V19.7148Z" fill="#C5E1F9"/>
<path d="M274.774 31.2266H206.848V35.5768H274.774V31.2266Z" fill="#C5E1F9"/>
<path d="M274.774 42.7383H206.848V47.0886H274.774V42.7383Z" fill="#C5E1F9"/>
<path d="M171.259 94.0332H168.438V101.462H171.259V94.0332Z" fill="#FFD671"/>
<path d="M159.434 108.222L152.984 104.541L154.395 102.064L160.845 105.812L159.434 108.222Z" fill="#FFD671"/>
<path d="M154.395 123.079L152.984 120.67L159.434 116.922L160.845 119.398L154.395 123.079Z" fill="#FFD671"/>
<path d="M171.259 123.749H168.438V131.178H171.259V123.749Z" fill="#FFD671"/>
<path d="M180.24 116.955L178.828 119.389L185.286 123.105L186.697 120.671L180.24 116.955Z" fill="#C5E1F9"/>
<path d="M185.238 102.088L178.779 105.802L180.19 108.236L186.649 104.523L185.238 102.088Z" fill="#FFD671"/>
<path d="M203.577 123.414L189.736 118.929L175.963 114.445L180.464 128.232L184.899 141.952L189.736 132.516L197.127 139.878L201.494 135.527L194.103 128.232L203.577 123.414Z" fill="#0450CF"/>
<path d="M189.736 118.929L175.963 114.445L176.097 114.914L199.142 137.87L201.494 135.527L194.103 128.232L203.577 123.414L189.736 118.929Z" fill="#0561FC"/>
</g>
<defs>
<clipPath id="clip0_4477_208108">
<rect width="310" height="274" fill="white"/>
</clipPath>
</defs>
</svg>
