<svg width="124" height="109" viewBox="0 0 124 109" fill="none" xmlns="http://www.w3.org/2000/svg">
<g clip-path="url(#clip0_4477_204902)">
<path d="M59.1142 23.1409L46.1598 8.74707L1.46875 23.6445L14.4231 38.0383" fill="#FFBF0D"/>
<path d="M59.113 23.1409L72.0673 8.74707L116.758 23.6445L103.804 38.0383L59.113 23.1409ZM59.113 23.1409L14.4219 38.0383L59.113 23.1409Z" fill="#FFBF0D"/>
<path d="M60.464 57.0187L14.4219 38.039L59.113 23.1416L103.804 38.039L60.464 57.0187Z" fill="#FFD671"/>
<path d="M88.2797 13.5713H29.2832V66.3751H88.2797V13.5713Z" fill="white"/>
<path d="M88.2797 13.5713H29.2832V18.2632H88.2797V13.5713Z" fill="#9AC7F7"/>
<path d="M33.2841 15.9043C33.2841 16.408 32.8602 16.8321 32.3569 16.8321C31.8271 16.8321 31.4297 16.408 31.4297 15.9043C31.4297 15.3742 31.8536 14.9766 32.3569 14.9766C32.8602 14.9766 33.2841 15.4007 33.2841 15.9043Z" fill="#003E99"/>
<path d="M36.2509 15.9043C36.2509 16.408 35.827 16.8321 35.3237 16.8321C34.8203 16.8321 34.3965 16.408 34.3965 15.9043C34.3965 15.3742 34.8203 14.9766 35.3237 14.9766C35.827 14.9766 36.2509 15.4007 36.2509 15.9043Z" fill="#0450CF"/>
<path d="M39.2196 15.9043C39.2196 16.408 38.7958 16.8321 38.2924 16.8321C37.7626 16.8321 37.3652 16.408 37.3652 15.9043C37.3652 15.3742 37.7891 14.9766 38.2924 14.9766C38.7958 14.9766 39.2196 15.4007 39.2196 15.9043Z" fill="#EAF4FE"/>
<path d="M81.5245 50.0732H31.959V51.3986H81.5245V50.0732Z" fill="#9AC7F7"/>
<path d="M83.4319 52.4854H31.959V53.8107H83.4319V52.4854Z" fill="#9AC7F7"/>
<path d="M68.7821 54.8975H31.959V56.2229H68.7821V54.8975Z" fill="#9AC7F7"/>
<path d="M82.4781 24.7051H54.0527V26.0305H82.4781V24.7051Z" fill="#9AC7F7"/>
<path d="M83.4317 27.1172H54.0527V28.4426H83.4317V27.1172Z" fill="#9AC7F7"/>
<path d="M83.4317 29.5293H54.0527V30.8547H83.4317V29.5293Z" fill="#9AC7F7"/>
<path d="M82.1602 31.9414H54.0527V33.2668H82.1602V31.9414Z" fill="#9AC7F7"/>
<path d="M83.4317 34.3535H54.0527V35.6789H83.4317V34.3535Z" fill="#9AC7F7"/>
<path d="M81.5244 36.7666H54.0527V38.092H81.5244V36.7666Z" fill="#9AC7F7"/>
<path d="M83.4317 39.1787H54.0527V40.5041H83.4317V39.1787Z" fill="#9AC7F7"/>
<path d="M81.8423 41.5908H54.0527V42.9162H81.8423V41.5908Z" fill="#9AC7F7"/>
<path d="M66.5832 44.0029H54.0527V45.3283H66.5832V44.0029Z" fill="#9AC7F7"/>
<path d="M50.1843 24.8643H32.541V41.6438H50.1843V24.8643Z" fill="#2A66C4"/>
<path d="M36.6487 31.5439C36.4898 31.5439 36.3573 31.5705 36.2249 31.6235C36.0924 31.6765 35.96 31.756 35.854 31.862C35.6421 32.0741 35.5361 32.3657 35.5626 32.6573C35.5626 32.9489 35.6686 33.2404 35.8805 33.4525C35.9865 33.5585 36.1189 33.6381 36.2514 33.6911C36.3838 33.7441 36.5428 33.7706 36.6752 33.7706C36.8342 33.7706 36.9666 33.7441 37.0991 33.6911C37.2316 33.6381 37.364 33.5585 37.47 33.4525C37.6819 33.2404 37.7879 32.9489 37.7614 32.6573C37.7614 32.3657 37.6554 32.0741 37.47 31.862C37.364 31.756 37.2581 31.6765 37.0991 31.6235C36.9666 31.5705 36.8342 31.5439 36.6487 31.5439Z" fill="white"/>
<path d="M42.9001 35.2017H41.3371V37.7995H39.4297V28.8398H42.9001C45.1254 28.8398 46.2645 29.8737 46.2645 31.9413C46.2645 32.9751 45.9731 33.7968 45.4168 34.3535C44.8339 34.9102 44.0127 35.2017 42.9001 35.2017ZM41.3636 33.6378H42.9001C43.8538 33.6378 44.3306 33.0546 44.3306 31.9413C44.3836 31.5171 44.2511 31.093 43.9862 30.7484C43.8538 30.6159 43.6683 30.5098 43.4829 30.4568C43.2974 30.4038 43.0855 30.3773 42.9001 30.3773H41.3636V33.6378Z" fill="white"/>
<path d="M14.4219 56.8584V86.8388L60.464 108.522V57.0174L14.4219 56.8584Z" fill="#D98F00"/>
<path d="M60.4629 57.0179V108.523L103.803 86.8393V56.5938L60.4629 57.0179Z" fill="#FECE40"/>
<path d="M60.4641 57.0178L46.9269 77.3493L0.884766 55.6658L14.4219 38.0381" fill="#FFBF0D"/>
<path d="M103.805 38.0381L115.991 55.6658L75.353 75.9974L60.4648 57.0177" fill="#FFBF0D"/>
<path d="M96.2285 11.9814H123.117V33.1613H117.925V38.7809L112.309 33.1613H96.2285V11.9814Z" fill="#C5E1F9"/>
<path d="M115.505 -0.753906H76.1914V27.1854H115.505V-0.753906Z" fill="#559BFF"/>
<path d="M83.0273 34.6076V22.0693H95.5578L83.0273 34.6076Z" fill="#559BFF"/>
<path d="M109.228 7.80859H82.4453V9.53161H109.228V7.80859Z" fill="#C5E1F9"/>
<path d="M109.228 12.3682H82.4453V14.0912H109.228V12.3682Z" fill="#C5E1F9"/>
<path d="M109.228 16.9277H82.4453V18.6507H109.228V16.9277Z" fill="#C5E1F9"/>
<path d="M68.4115 37.2432H67.2988V40.1855H68.4115V37.2432Z" fill="#FFD671"/>
<path d="M63.7483 42.8626L61.2051 41.4046L61.7614 40.4238L64.3046 41.9083L63.7483 42.8626Z" fill="#FFD671"/>
<path d="M61.7614 48.7473L61.2051 47.793L63.7483 46.3086L64.3046 47.2894L61.7614 48.7473Z" fill="#FFD671"/>
<path d="M68.4115 49.0127H67.2988V51.9551H68.4115V49.0127Z" fill="#FFD671"/>
<path d="M71.9511 46.3221L71.3945 47.2861L73.9408 48.7579L74.4973 47.7939L71.9511 46.3221Z" fill="#C5E1F9"/>
<path d="M73.9238 40.4334L71.377 41.9043L71.9332 42.8686L74.48 41.3977L73.9238 40.4334Z" fill="#FFD671"/>
<path d="M81.1517 48.8802L75.6944 47.1042L70.2637 45.3281L72.0386 50.7888L73.787 56.2229L75.6944 52.4853L78.6085 55.4011L80.3304 53.6781L77.4164 50.7888L81.1517 48.8802Z" fill="#0450CF"/>
<path d="M75.6944 47.1042L70.2637 45.3281L70.3167 45.5137L79.4032 54.6059L80.3304 53.6781L77.4164 50.7888L81.1517 48.8802L75.6944 47.1042Z" fill="#0561FC"/>
</g>
<defs>
<clipPath id="clip0_4477_204902">
<rect width="122.232" height="108.523" fill="white" transform="translate(0.884766)"/>
</clipPath>
</defs>
</svg>
