<svg width="172" height="172" viewBox="0 0 172 172" fill="none" xmlns="http://www.w3.org/2000/svg">
<path d="M168.514 144.375H0" stroke="#5A5A5A" stroke-miterlimit="10"/>
<path d="M21.9902 136.552C37.9013 83.3619 115.233 27.1066 130.114 68.1615C132.521 74.8015 124.58 78.9719 122.812 70.2934C121.553 64.1122 126.24 54.0155 137.405 49.123" stroke="#5A5A5A" stroke-miterlimit="10" stroke-dasharray="5 5"/>
<path d="M121.205 45.5226L172 27L132.316 47.0572L121.205 45.5226Z" fill="#EAF4FE"/>
<path d="M135.562 56.7952L172.001 27L132.316 47.0572L135.562 56.7952Z" fill="#9AC7F7"/>
<path d="M121.332 45.4973L143.943 41.1855L132.887 46.7912L121.332 45.4973Z" fill="#003C77"/>
<path d="M121.205 45.5234L143.372 41.4512L132.316 47.058L121.205 45.5234Z" fill="#0058B0"/>
<path d="M135.562 56.7941L144.252 49.3127L143.943 41.1855L132.316 47.0561L135.562 56.7941Z" fill="#003C77"/>
<path d="M135.561 56.7952L172 27L140.358 49.3377L135.561 56.7952Z" fill="#0561FC"/>
<path d="M155.701 61.4842L172 27L140.359 49.3377L155.701 61.4842Z" fill="#C5E1F9"/>
<path d="M155.701 61.4831L148.08 43.9434L140.648 49.111L155.701 61.4831Z" fill="#003C77"/>
<path d="M155.701 61.484L147.791 44.1699L140.359 49.3376L155.701 61.484Z" fill="#0058B0"/>
<path d="M119.627 83.4477L75.8037 41.5939C75.3868 41.1319 74.9357 40.7019 74.4543 40.3074L74.0239 39.8963C74.0239 39.8963 74.0071 39.9022 73.9768 39.9132C71.8557 38.2959 69.2621 37.4199 66.5947 37.4199C63.9273 37.4199 61.3337 38.2959 59.2125 39.9132C59.1822 39.9022 59.1654 39.8963 59.1654 39.8963L58.7349 40.3074C58.2535 40.702 57.8024 41.132 57.3853 41.5939L13.5619 83.4477C13.1013 83.9082 12.7362 84.4551 12.4876 85.0571C12.239 85.6592 12.1118 86.3044 12.1133 86.9557V136.478C12.1134 138.449 12.8962 140.338 14.2894 141.731C15.6826 143.125 17.5722 143.907 19.5425 143.907H113.647C115.617 143.907 117.507 143.125 118.9 141.731C120.293 140.338 121.076 138.449 121.076 136.478V86.9557C121.078 86.3044 120.95 85.6592 120.702 85.0572C120.453 84.4551 120.088 83.9082 119.627 83.4477Z" fill="#D98F00"/>
<path d="M84.1053 114.366C93.7763 104.695 93.7763 89.0155 84.1053 79.3445C74.4342 69.6734 58.7543 69.6734 49.0833 79.3445C39.4122 89.0155 39.4122 104.695 49.0833 114.366C58.7543 124.038 74.4342 124.038 84.1053 114.366Z" stroke="#2094F1" stroke-width="0.07778" stroke-miterlimit="10"/>
<path d="M113.647 129.048V72.0903L86.4065 44.8496H26.9722C25.0019 44.8497 23.1123 45.6325 21.7191 47.0257C20.3259 48.419 19.5431 50.3086 19.543 52.2789V129.048H113.647Z" fill="#EAF4FE"/>
<path d="M113.647 143.907H19.5425C17.5722 143.907 15.6826 143.124 14.2894 141.731C12.8962 140.338 12.1134 138.448 12.1133 136.478V86.9492L113.647 143.907Z" fill="#FFBF0D"/>
<path d="M19.543 143.907H113.647C115.617 143.907 117.507 143.124 118.9 141.731C120.294 140.338 121.076 138.448 121.076 136.478V86.9492L19.543 143.907Z" fill="#FECE40"/>
<path d="M86.4063 44.8496V64.661C86.4062 65.6367 86.5983 66.6027 86.9717 67.5041C87.345 68.4055 87.8923 69.2245 88.5821 69.9144C89.272 70.6043 90.091 71.1515 90.9924 71.5249C91.8938 71.8982 92.8599 72.0903 93.8355 72.0903H113.647L86.4063 44.8496Z" fill="#2A66C4"/>
<path d="M99 77H56V82H99V77Z" fill="#C5E1F9"/>
<path d="M98.7877 86.9492H36.877V91.9021H98.7877V86.9492Z" fill="#C5E1F9"/>
<path d="M82 67H56V72H82V67Z" fill="#C5E1F9"/>
<path fill-rule="evenodd" clip-rule="evenodd" d="M52 67H37V81.9999H52V67Z" fill="#2A66C4"/>
<path fill-rule="evenodd" clip-rule="evenodd" d="M40.4987 72.9771C40.3719 72.9728 40.2455 72.9954 40.1281 73.0436C40.0106 73.0917 39.9048 73.1642 39.8174 73.2563C39.6429 73.4484 39.551 73.7013 39.5613 73.9606C39.5542 74.2232 39.6507 74.4781 39.8302 74.67C39.917 74.7632 40.0228 74.8367 40.1403 74.8857C40.2578 74.9348 40.3842 74.9581 40.5115 74.9543C40.6368 74.9588 40.7618 74.9362 40.8776 74.888C40.9934 74.8399 41.0973 74.7672 41.1825 74.6751C41.3552 74.483 41.4469 74.2316 41.4386 73.9734C41.4465 73.713 41.355 73.4593 41.1825 73.264C41.0982 73.1696 40.9943 73.0949 40.8779 73.0454C40.7614 72.9958 40.6354 72.9725 40.509 72.9771" fill="white"/>
<path d="M45.8155 76.2266H44.4967V78.5572H42.873V70.5488H45.8155C47.7158 70.5488 48.6659 71.4751 48.6659 73.3275C48.6659 74.2632 48.4227 74.982 47.9361 75.4839C47.4495 75.9859 46.7426 76.2334 45.8155 76.2266ZM44.4967 74.836H45.8052C46.6145 74.836 47.0167 74.3238 47.0167 73.3275C47.0528 72.9499 46.9478 72.5722 46.7221 72.2673C46.6022 72.1493 46.4582 72.0587 46.2999 72.0016C46.1417 71.9446 45.9728 71.9225 45.8052 71.9369H44.4967V74.836Z" fill="white"/>
<path d="M106.718 143.908C106.241 143.907 105.768 143.813 105.327 143.63C104.886 143.448 104.485 143.18 104.148 142.842C103.81 142.504 103.543 142.103 103.36 141.662C103.178 141.221 103.084 140.748 103.084 140.271V108.766C103.084 108.289 103.178 107.816 103.36 107.375C103.543 106.934 103.81 106.533 104.148 106.195C104.485 105.858 104.886 105.59 105.327 105.407C105.768 105.225 106.241 105.131 106.718 105.131H152.764C153.728 105.131 154.653 105.514 155.335 106.195C156.017 106.877 156.401 107.802 156.402 108.766V140.271C156.401 141.235 156.017 142.16 155.335 142.842C154.653 143.524 153.728 143.907 152.764 143.908H106.718Z" fill="#C5E1F9"/>
<path d="M106.718 143.908C106.241 143.907 105.768 143.813 105.327 143.63C104.886 143.448 104.485 143.18 104.148 142.842C103.81 142.504 103.543 142.103 103.36 141.662C103.178 141.221 103.084 140.748 103.084 140.271V108.766C103.084 108.289 103.178 107.816 103.36 107.375C103.543 106.934 103.81 106.533 104.148 106.195C104.485 105.858 104.886 105.59 105.327 105.407C105.768 105.225 106.241 105.131 106.718 105.131H152.764C153.728 105.131 154.653 105.514 155.335 106.195C156.017 106.877 156.401 107.802 156.402 108.766V140.271C156.401 141.235 156.017 142.16 155.335 142.842C154.653 143.524 153.728 143.907 152.764 143.908H106.718Z" fill="#9AC7F7"/>
<path d="M152.764 105.131H106.718C106.241 105.131 105.768 105.225 105.327 105.407C104.886 105.59 104.485 105.858 104.148 106.195C103.81 106.533 103.543 106.934 103.36 107.375C103.178 107.816 103.084 108.289 103.084 108.766V110.67L145.384 143.908H152.764C153.728 143.907 154.653 143.524 155.335 142.842C156.017 142.16 156.401 141.235 156.402 140.271V108.766C156.401 107.802 156.017 106.877 155.335 106.195C154.653 105.514 153.728 105.131 152.764 105.131Z" fill="#67ACF5"/>
<path d="M129.741 129.366L156.402 110.822V108.766C156.401 107.802 156.017 106.877 155.335 106.195C154.653 105.514 153.728 105.131 152.764 105.131H106.718C106.241 105.131 105.768 105.225 105.327 105.407C104.886 105.59 104.485 105.858 104.148 106.195C103.81 106.533 103.543 106.934 103.36 107.375C103.178 107.816 103.084 108.289 103.084 108.766V110.822L129.741 129.366Z" fill="#C5E1F9"/>
</svg>
