<svg width="104" height="104" viewBox="0 0 104 104" fill="none" xmlns="http://www.w3.org/2000/svg">
<circle cx="52" cy="52" r="52" fill="#F0F6FC"/>
<path d="M17.117 88.2216C16.435 88.2206 15.7812 87.9504 15.2991 87.4702C14.8169 86.9899 14.5457 86.3389 14.5449 85.6598V38.1224C14.5456 37.4433 14.8167 36.7922 15.2989 36.3119C15.7811 35.8316 16.435 35.5614 17.117 35.5605H86.8833C87.5653 35.5613 88.219 35.8316 88.7011 36.3119C89.1832 36.7922 89.4541 37.4433 89.4544 38.1224V85.6598C89.454 86.3388 89.183 86.9899 88.701 87.4702C88.2189 87.9505 87.5652 88.2207 86.8833 88.2216H17.117Z" fill="#EAF4FE"/>
<path d="M89.2136 85.6602C89.2138 86.2757 88.9685 86.8662 88.5315 87.3017C88.0946 87.7372 87.5018 87.982 86.8836 87.9824H17.1172C16.811 87.9824 16.5077 87.9223 16.2247 87.8056C15.9418 87.6889 15.6847 87.5179 15.4681 87.3022C15.2516 87.0866 15.0798 86.8306 14.9626 86.5488C14.8454 86.2671 14.7851 85.9651 14.7852 85.6602V38.1227C14.785 37.8177 14.8452 37.5157 14.9624 37.2339C15.0795 36.9522 15.2513 36.6961 15.4679 36.4805C15.6845 36.2649 15.9416 36.0938 16.2246 35.9772C16.5076 35.8606 16.811 35.8006 17.1172 35.8008H86.8836C87.1897 35.8008 87.4928 35.8609 87.7756 35.9776C88.0584 36.0944 88.3154 36.2654 88.5317 36.481C88.7481 36.6967 88.9197 36.9526 89.0367 37.2343C89.1537 37.516 89.2138 37.8179 89.2136 38.1227V85.6602Z" fill="#0058B0"/>
<path d="M85.5637 39.1309H18.4336V81.7944H85.5637V39.1309Z" fill="#003C77"/>
<path d="M51.9184 37.4156C51.9188 37.4568 51.911 37.4976 51.8955 37.5357C51.88 37.5739 51.857 37.6086 51.8279 37.6378C51.7988 37.6671 51.7642 37.6903 51.7261 37.7061C51.6879 37.722 51.647 37.7302 51.6057 37.7302C51.5643 37.7302 51.5234 37.722 51.4853 37.7061C51.4471 37.6903 51.4125 37.6671 51.3834 37.6378C51.3544 37.6086 51.3314 37.5739 51.3159 37.5357C51.3003 37.4976 51.2926 37.4568 51.293 37.4156C51.2938 37.3336 51.3271 37.2552 51.3857 37.1975C51.4442 37.1398 51.5233 37.1074 51.6057 37.1074C51.6881 37.1074 51.7671 37.1398 51.8257 37.1975C51.8842 37.2552 51.9175 37.3336 51.9184 37.4156Z" fill="#C5E1F9"/>
<path d="M75.2788 39.1316L76.5755 35.8008H65.894L64.5977 39.1316H75.2788Z" fill="#0561FC"/>
<path d="M23.9872 81.7949L21.5781 87.982H32.2606L34.6686 81.7949H23.9872Z" fill="#0561FC"/>
<path d="M82.1413 39.1316L83.4396 35.8008H80.0053L78.709 39.1316H82.1413Z" fill="#0561FC"/>
<path d="M38.0998 81.7949L35.6914 87.982H39.1247L41.5327 81.7949H38.0998Z" fill="#0561FC"/>
<path d="M102 85.3535H2V88.2665H102V85.3535Z" fill="#C5E1F9"/>
<path d="M2.14453 88C3.32684 89.2453 5.50069 89.7349 7.00042 89.7349H96.9953C98.4957 89.7349 100.671 89.2453 101.853 88H2.14453Z" fill="#9AC7F7"/>
<path d="M45.207 85.3535V85.6655C45.2069 85.8021 45.2338 85.9375 45.2862 86.0638C45.3386 86.1901 45.4155 86.3049 45.5125 86.4016C45.6094 86.4983 45.7246 86.575 45.8514 86.6274C45.9781 86.6798 46.114 86.7068 46.2513 86.7069H57.7481C57.8854 86.7069 58.0213 86.68 58.1482 86.6276C58.275 86.5752 58.3902 86.4985 58.4873 86.4018C58.5843 86.3051 58.6613 86.1903 58.7138 86.0639C58.7662 85.9376 58.7932 85.8022 58.7931 85.6655V85.3535H45.207Z" fill="#9AC7F7"/>
<mask id="mask0_10:7116" style="mask-type:alpha" maskUnits="userSpaceOnUse" x="18" y="9" width="73" height="73">
<path d="M18.4492 37.5609L18.45 81.8H83.0624L91 9.51465L39.67 23.2732L18.4492 37.5609Z" fill="#C4C4C4"/>
</mask>
<g mask="url(#mask0_10:7116)">
<path d="M11.7184 51.787L90.5824 10.8466L30.1519 51.9358L11.7184 51.787Z" fill="#C5E1F9"/>
<path d="M37.5029 67.1191L90.5831 10.8462L30.1526 51.9354L37.5029 67.1191Z" fill="#9AC7F7"/>
<path d="M11.9205 51.7219L47.8581 39.9083L31.0259 51.3851L11.9205 51.7219Z" fill="#6797DC"/>
<path d="M11.7197 51.7866L46.9847 40.4578L30.1533 51.9354L11.7197 51.7866Z" fill="#7EB3FF"/>
<path d="M37.5025 67.1208L50.0828 53.0882L47.8591 39.9081L30.1523 51.9371L37.5025 67.1208Z" fill="#9AC7F7"/>
<path d="M47.8242 25.501L52.147 25.2743C56.396 25.0518 60.4188 29.0051 61.6219 34.9851C62.9905 41.8171 60.1562 48.709 55.2851 50.3756L50.9644 50.6013C55.8356 48.9339 58.6703 42.0436 57.2972 35.2101C56.0972 29.2313 52.0737 25.2778 47.8242 25.501Z" fill="#FFC910"/>
<path d="M53.4602 50.7353L49.1384 50.9605C49.761 50.9269 50.3758 50.8067 50.9652 50.6033L55.286 50.3776C54.6969 50.5809 54.0824 50.7013 53.4602 50.7353Z" fill="#FFC910"/>
<path d="M47.823 25.5015L52.1458 25.2748C51.5227 25.3085 50.9072 25.4284 50.317 25.6309L45.9965 25.859C46.5856 25.655 47.2004 25.5346 47.823 25.5015Z" fill="#FFAB01"/>
<path d="M53.46 50.7341L49.1382 50.9593C44.8878 51.1815 40.8643 47.2281 39.6662 41.2507C38.2938 34.4172 41.1273 27.5259 45.9984 25.8593L50.3189 25.6312C45.4496 27.2999 42.6134 34.1899 43.9866 41.0235C45.185 47.0027 49.2083 50.9551 53.46 50.7341Z" fill="#FFAB01"/>
<path d="M53.596 53.3727L49.2741 53.5985C44.1432 53.8661 39.2857 49.0956 37.8375 41.8772C36.1802 33.6274 39.6036 25.3091 45.4839 23.296L49.8047 23.0697C43.9261 25.0838 40.5025 33.4013 42.159 41.651C43.608 48.8692 48.4645 53.6413 53.596 53.3727Z" fill="#F99B0F"/>
<path d="M49.8055 23.068C55.6841 21.0539 61.7929 26.1098 63.4471 34.3583C65.1037 42.6072 61.6823 50.9267 55.8035 52.94C49.9251 54.9534 43.8138 49.8984 42.1598 41.6493C40.5033 33.3996 43.9269 25.0821 49.8055 23.068ZM55.2866 50.3759C60.1577 48.7092 62.992 41.8174 61.6234 34.9854C60.2487 28.1523 55.1886 23.9639 50.3197 25.6306C45.4504 27.2993 42.6143 34.1894 43.9874 41.023C45.358 47.8562 50.419 52.0435 55.2866 50.3759Z" fill="#FFC910"/>
<path d="M50.3194 25.6318C55.1883 23.965 60.2485 28.1525 61.6232 34.9857C62.9917 41.8185 60.1574 48.7104 55.2863 50.3771C50.4187 52.0446 45.3577 47.8574 43.9871 41.0241C42.614 34.1905 45.4501 27.3005 50.3194 25.6318Z" fill="#FFAB01"/>
<path d="M47.688 22.8638C49.1276 22.7882 50.5685 22.7131 52.0105 22.6385C51.2583 22.6776 50.5153 22.8224 49.8035 23.0687L45.4826 23.2951C46.194 23.0491 46.9363 22.9039 47.688 22.8638Z" fill="#EE8F01"/>
<path d="M50.3175 25.6321C49.4883 25.9231 48.7152 26.3544 48.0321 26.9072C48.6447 26.4533 49.3226 26.0951 50.0427 25.8448C54.9124 24.1778 59.9732 28.3641 61.3449 35.1976C62.4826 40.8741 60.7168 46.5871 57.2947 49.3159C60.8962 46.68 62.7898 40.8143 61.6213 34.986C60.2466 28.1528 55.1863 23.9653 50.3175 25.6321Z" fill="#F99B0F"/>
<path d="M49.2745 53.598L53.5963 53.3722C51.0904 53.5033 48.6506 52.4291 46.6399 50.4574L42.5908 50.9451C44.549 52.7516 46.8796 53.7223 49.2745 53.598Z" fill="#EE8F01"/>
<path d="M47.4343 37.0824L48.4585 36.8172C48.3328 36.0805 48.2985 35.331 48.3564 34.5859C48.403 33.9239 48.5494 33.2728 48.7907 32.6546C49.0049 32.1033 49.3383 31.6063 49.767 31.1989C50.383 30.65 51.1626 30.3191 51.9853 30.2574C52.8081 30.1957 53.6283 30.4066 54.3193 30.8575C55.2012 31.4714 55.8944 32.5079 56.3988 33.967L54.5437 34.4473C54.3377 33.7647 53.9381 33.1566 53.3933 32.6966C53.1747 32.5255 52.9187 32.4087 52.6462 32.3556C52.3737 32.3025 52.0926 32.3147 51.8258 32.3912C51.503 32.466 51.2069 32.6276 50.9693 32.8585C50.7318 33.0895 50.5619 33.3809 50.478 33.7014C50.2561 34.5554 50.2305 35.4485 50.403 36.3138L53.4599 35.5225L53.6019 36.8026L50.6778 37.5596L51.0229 38.8927L53.7537 38.1857L53.9102 39.4621L51.3871 40.1153C51.6426 40.9381 52.0967 41.6854 52.7095 42.2911C52.9475 42.5124 53.239 42.6678 53.5554 42.7419C53.8718 42.8161 54.2021 42.8064 54.5136 42.7139C55.7504 42.3937 56.2226 41.2608 55.9302 39.3152L57.7709 38.8387C58.0345 40.4293 57.9334 41.7412 57.4675 42.7744C57.0971 43.5355 56.4818 44.1501 55.7203 44.5197C54.9589 44.8893 54.0953 44.9924 53.2682 44.8126C52.7052 44.6721 52.1789 44.4127 51.7245 44.0519C51.2187 43.6473 50.7809 43.1644 50.4276 42.6215C50.0186 41.9967 49.6878 41.3241 49.4426 40.6187L48.4184 40.8838L48.0989 39.6496L49.0784 39.3961L48.7333 38.063L47.7538 38.3166L47.4343 37.0824Z" fill="#F99B0F"/>
<path d="M47.8913 36.9095L48.9155 36.6444C48.7899 35.9076 48.7556 35.1582 48.8134 34.413C48.86 33.751 49.0064 33.0999 49.2477 32.4817C49.4619 31.9305 49.7953 31.4334 50.224 31.0261C50.84 30.4771 51.6196 30.1463 52.4424 30.0846C53.2652 30.0229 54.0854 30.2337 54.7763 30.6847C55.6582 31.2986 56.3514 32.3351 56.8559 33.7942L55.0007 34.2744C54.7947 33.5919 54.3951 32.9837 53.8503 32.5237C53.6317 32.3527 53.3757 32.2359 53.1032 32.1828C52.8308 32.1297 52.5496 32.1419 52.2828 32.2183C51.9601 32.2931 51.6639 32.4547 51.4264 32.6857C51.1888 32.9166 51.0189 33.2081 50.935 33.5286C50.7132 34.3825 50.6875 35.2757 50.86 36.141L53.9169 35.3496L54.0589 36.6298L51.1349 37.3868L51.48 38.7198L54.2107 38.0129L54.3672 39.2893L51.8442 39.9425C52.0996 40.7653 52.5538 41.5126 53.1665 42.1183C53.4045 42.3395 53.6961 42.4949 54.0125 42.5691C54.3289 42.6432 54.6591 42.6336 54.9706 42.5411C56.2074 42.2209 56.6796 41.088 56.3872 39.1424L58.2279 38.6658C58.4915 40.2565 58.3904 41.5684 57.9246 42.6015C57.5541 43.3626 56.9388 43.9773 56.1774 44.3469C55.4159 44.7165 54.5523 44.8196 53.7252 44.6398C53.1623 44.4993 52.6359 44.2399 52.1816 43.879C51.6757 43.4745 51.2379 42.9916 50.8847 42.4487C50.4756 41.8239 50.1448 41.1513 49.8997 40.4459L48.8755 40.711L48.556 39.4768L49.5355 39.2232L49.1904 37.8902L48.2109 38.1438L47.8913 36.9095Z" fill="#FFC910"/>
<path d="M37.5027 67.1182L90.5829 10.8453L43.7441 53.9483L37.5027 67.1182Z" fill="#7EB3FF"/>
<path d="M71.3175 70.4977L90.5824 10.8458L43.7435 53.9488L71.3175 70.4977Z" fill="#C5E1F9"/>
<path d="M71.3182 70.4996L55.1849 43.5266L44.1669 53.5217L71.3182 70.4996Z" fill="#4888E6"/>
<path d="M71.3172 70.4996L54.7601 43.9554L43.7431 53.9508L71.3172 70.4996Z" fill="#559BFF"/>
<path d="M34.6262 71.2291L18.1529 87.6655" stroke="#C5E1F9" stroke-miterlimit="10"/>
<path d="M57.6022 66.4616L41.1294 82.8977" stroke="#C5E1F9" stroke-miterlimit="10"/>
<path d="M32.6004 63.3974L16.1333 79.8243" stroke="#C5E1F9" stroke-miterlimit="10"/>
</g>
<circle cx="16" cy="16" r="15.5" fill="#0066CC" stroke="#0066CC"/>
<path d="M12.0799 11.552C13.1839 11.12 14.4139 10.904 15.7699 10.904C17.1379 10.904 18.1339 11.168 18.7579 11.696C19.3819 12.212 19.6939 13.046 19.6939 14.198C19.6939 15.35 19.2319 16.232 18.3079 16.844C18.8839 17.156 19.2919 17.48 19.5319 17.816C19.7839 18.152 19.9099 18.686 19.9099 19.418C19.9099 20.702 19.5859 21.656 18.9379 22.28C18.3019 22.904 17.2759 23.216 15.8599 23.216C14.8159 23.216 13.7179 23.06 12.5659 22.748L11.9899 22.604L12.1159 20.714C13.4599 20.942 14.5879 21.056 15.4999 21.056C16.7359 21.056 17.3539 20.528 17.3539 19.472C17.3539 19.028 17.1919 18.674 16.8679 18.41C16.5559 18.146 16.1419 18.014 15.6259 18.014H13.2319V15.962H15.6259C16.0219 15.962 16.3699 15.794 16.6699 15.458C16.9819 15.122 17.1379 14.75 17.1379 14.342C17.1379 13.49 16.5439 13.064 15.3559 13.064C14.5279 13.064 13.6459 13.148 12.7099 13.316L12.2419 13.388L12.0799 11.552Z" fill="white"/>
</svg>
