<svg width="277" height="162" viewBox="0 0 277 162" fill="none" xmlns="http://www.w3.org/2000/svg">
<path d="M54.4723 131.522C52.7764 131.519 51.1506 130.844 49.9515 129.645C48.7525 128.446 48.0781 126.82 48.0762 125.124V6.39817C48.0778 4.70212 48.7521 3.07597 49.9512 1.87649C51.1503 0.677011 52.7763 0.00216138 54.4723 0H227.965C229.661 0.00199573 231.286 0.676869 232.485 1.87645C233.684 3.07604 234.358 4.70229 234.358 6.39817V125.124C234.357 126.82 233.684 128.446 232.485 129.645C231.286 130.845 229.661 131.52 227.965 131.522H54.4723Z" fill="#EAF4FE"/>
<path d="M233.756 125.125C233.756 126.663 233.146 128.137 232.06 129.225C230.973 130.313 229.499 130.924 227.962 130.925H54.4693C53.7076 130.925 52.9535 130.775 52.2498 130.484C51.5462 130.192 50.9068 129.765 50.3683 129.226C49.8297 128.688 49.4026 128.048 49.1112 127.345C48.8198 126.641 48.6698 125.887 48.6699 125.125V6.39961C48.6696 5.63794 48.8193 4.88368 49.1107 4.17993C49.402 3.47618 49.8292 2.83674 50.3677 2.29818C50.9063 1.75962 51.5458 1.33248 52.2496 1.0412C52.9533 0.749916 53.7076 0.600191 54.4693 0.600587H227.962C228.723 0.600665 229.477 0.75075 230.18 1.04227C230.883 1.33378 231.522 1.76101 232.06 2.29955C232.598 2.83809 233.025 3.47737 233.316 4.18088C233.607 4.88438 233.756 5.63832 233.756 6.39961V125.125Z" fill="#01478E"/>
<path d="M224.68 8.91797H57.7432V115.471H224.68V8.91797Z" fill="#2A66C4"/>
<path fill-rule="evenodd" clip-rule="evenodd" d="M174.484 29.083H108.589V94.9778H174.484V29.083Z" fill="#2A66C4"/>
<path fill-rule="evenodd" clip-rule="evenodd" d="M123.956 55.3424C123.399 55.3233 122.844 55.4228 122.328 55.6342C121.812 55.8456 121.347 56.1641 120.963 56.5687C120.197 57.4124 119.793 58.5237 119.838 59.6627C119.807 60.8164 120.231 61.9361 121.02 62.7791C121.401 63.1884 121.866 63.5115 122.382 63.7269C122.898 63.9422 123.453 64.0449 124.012 64.0279C124.563 64.0479 125.112 63.9486 125.621 63.737C126.13 63.5253 126.586 63.2062 126.96 62.8016C127.719 61.9576 128.122 60.8531 128.085 59.7189C128.12 58.5748 127.718 57.4604 126.96 56.6025C126.59 56.1878 126.133 55.8599 125.622 55.6421C125.111 55.4243 124.557 55.322 124.001 55.3424" fill="white"/>
<path d="M147.312 69.6184H141.518V79.8564H134.386V44.6758H147.312C155.66 44.6758 159.834 48.7447 159.834 56.8827C159.834 60.9929 158.765 64.1506 156.628 66.3557C154.49 68.5608 151.385 69.6484 147.312 69.6184ZM141.518 63.5093H147.267C150.822 63.5093 152.589 61.2591 152.589 56.8827C152.747 55.2236 152.286 53.5646 151.295 52.225C150.768 51.7066 150.135 51.3085 149.44 51.058C148.745 50.8075 148.003 50.7104 147.267 50.7736H141.518V63.5093Z" fill="white"/>
<path d="M134.448 8.91834L137.673 0.599609H111.11L107.887 8.91834H134.448Z" fill="#02509E"/>
<path d="M66.5795 115.469L60.5889 130.921H87.1537L93.1419 115.469H66.5795Z" fill="#02509E"/>
<path d="M151.508 8.91834L154.737 0.599609H146.196L142.973 8.91834H151.508Z" fill="#02509E"/>
<path d="M101.674 115.469L95.6846 130.921H104.222L110.211 115.469H101.674Z" fill="#02509E"/>
<path d="M265.552 124.355H16.876V131.631H265.552V124.355Z" fill="#C5E1F9"/>
<path d="M17.2354 131.631C20.1755 134.741 25.5813 135.964 29.3108 135.964H253.107C256.838 135.964 262.248 134.741 265.187 131.631H17.2354Z" fill="#9AC7F7"/>
<path d="M124.321 124.355V125.135C124.321 125.476 124.388 125.814 124.518 126.129C124.649 126.445 124.84 126.731 125.081 126.973C125.322 127.215 125.608 127.406 125.924 127.537C126.239 127.668 126.577 127.735 126.918 127.736H155.508C155.849 127.736 156.187 127.668 156.503 127.537C156.818 127.407 157.105 127.215 157.346 126.974C157.588 126.732 157.779 126.445 157.909 126.13C158.04 125.814 158.107 125.476 158.107 125.135V124.355H124.321Z" fill="#9AC7F7"/>
<path d="M235.072 111.099L197.428 98.8696L159.783 86.6289L172.024 124.285L184.242 161.929L197.484 136.177L217.578 156.281L229.447 144.423L209.353 124.33L235.072 111.099Z" fill="#4B82E9"/>
<path d="M197.403 98.8696L159.759 86.6289L160.164 87.889L223.056 150.78L229.389 144.423L209.296 124.33L235.071 111.099L197.403 98.8696Z" fill="#88B2F8"/>
<path d="M41.1318 43.6582H104.246V91.8461H92.4451V104.631L79.6603 91.8461H41.1318V43.6582Z" fill="white"/>
<path d="M88.2193 20.251H0V79.7031H88.2193V20.251Z" fill="#FFCC00"/>
<path d="M14.7061 96.8478V68.3096H43.2443L14.7061 96.8478Z" fill="#FFCC00"/>
<path d="M74.3792 37.7959H13.4082V41.6882H74.3792V37.7959Z" fill="#D98F00"/>
<path d="M74.3792 48.1768H13.4082V52.0682H74.3792V48.1768Z" fill="#D98F00"/>
<path d="M74.3792 58.5508H13.4082V62.4428H74.3792V58.5508Z" fill="#D98F00"/>
</svg>
