<svg width="22" height="22" viewBox="0 0 22 22" fill="none" xmlns="http://www.w3.org/2000/svg">
<path fill-rule="evenodd" clip-rule="evenodd" d="M10.9997 0C4.93455 0 0 4.93481 0 10.9998C0 17.0652 4.93455 22 10.9997 22C17.0651 22 22 17.0652 22 10.9998C22 4.93481 17.0651 0 10.9997 0Z" fill="#0066CC"/>
<path fill-rule="evenodd" clip-rule="evenodd" d="M8.37737 10.8571C7.68163 10.1513 7.33398 9.27465 7.33398 8.23023C7.33398 7.1837 7.68163 6.31342 8.37301 5.62066C9.06396 4.93002 9.94485 4.58301 11.0266 4.58301C12.1039 4.58301 12.9809 4.93467 13.6544 5.64729C14.3293 6.35949 14.6673 7.23146 14.6673 8.27588C14.6673 9.31734 14.3293 10.1825 13.6544 10.877C12.9809 11.5689 12.1092 11.9163 11.0353 11.9163C9.9614 11.9163 9.07572 11.5638 8.37737 10.8571Z" fill="#fff" stroke="white" stroke-width="0.3"/>
<path fill-rule="evenodd" clip-rule="evenodd" d="M7.33398 17.4167C7.33398 16.3644 7.67822 15.4901 8.35979 14.7963C9.04696 14.0992 9.91963 13.75 10.9942 13.75C12.0597 13.75 12.9297 14.1035 13.5923 14.8189C14.2605 15.5355 14.6673 16.3678 14.6673 17.4167H7.33398Z" fill="#fff" stroke="white" stroke-width="0.3"/>
</svg>
