<?xml version="1.0" encoding="utf-8"?>
<!-- Generator: Adobe Illustrator 26.0.3, SVG Export Plug-In . SVG Version: 6.00 Build 0)  -->
<svg version="1.1" id="Livello_1" xmlns="http://www.w3.org/2000/svg" xmlns:xlink="http://www.w3.org/1999/xlink" x="0px" y="0px"
	 viewBox="0 0 38 39" style="enable-background:new 0 0 38 39;" xml:space="preserve">
<style type="text/css">
	.st0{fill-rule:evenodd;clip-rule:evenodd;fill:#0066CC;}
</style>
<path class="st0" d="M18.8,20.9c3.5,0,6.2-2.8,6.2-6.2V9.9c0-3.5-2.8-6.3-6.2-6.3s-6.2,2.8-6.2,6.3v4.7
	C12.5,18.1,15.3,20.9,18.8,20.9z M14.1,9.9c0-2.6,2.1-4.7,4.7-4.7s4.7,2.1,4.7,4.7v4.7c0,2.6-2.1,4.7-4.7,4.7s-4.7-2.1-4.7-4.7V9.9z
	 M29.7,34.9h1.6c0-6.9-5.6-12.5-12.5-12.5S6.2,28,6.2,34.9h1.6c0-6,4.9-10.9,10.9-10.9S29.7,28.9,29.7,34.9z"/>
</svg>
