<svg width="128" height="134" viewBox="0 0 128 134" fill="none" xmlns="http://www.w3.org/2000/svg">
<g clip-path="url(#clip0_17289_382788)">
<path fill-rule="evenodd" clip-rule="evenodd" d="M23.79 38.0299C7.07995 53.2199 5.83995 79.08 21.03 95.7999C36.2199 112.51 62.08 113.75 78.7999 98.5599C95.5099 83.3699 96.7499 57.5099 81.5599 40.79C66.3699 24.08 40.5099 22.8399 23.79 38.0299V38.0299ZM19.1799 97.4799C3.05995 79.74 4.36995 52.3 22.11 36.1799C39.8499 20.0599 67.2899 21.37 83.41 39.11C99.53 56.8499 98.2199 84.2899 80.4799 100.41C62.74 116.53 35.3 115.22 19.1799 97.4799V97.4799Z" fill="#505050"/>
<path fill-rule="evenodd" clip-rule="evenodd" d="M76.9999 107.31C77.5099 106.85 78.3099 106.89 78.7799 107.39L99.4499 129.73C101.36 131.79 104.61 131.95 106.7 130.08C108.8 128.21 108.95 125.02 107.04 122.96L86.3699 100.62C85.8999 100.11 85.9399 99.3299 86.4499 98.8699C86.9599 98.4099 87.7599 98.4499 88.2299 98.9599L108.9 121.3C111.75 124.38 111.52 129.13 108.39 131.92C105.26 134.71 100.42 134.48 97.5699 131.4L76.8999 109.06C76.4299 108.55 76.4699 107.77 76.9799 107.31H76.9999Z" fill="#505050"/>
<path fill-rule="evenodd" clip-rule="evenodd" d="M25.34 15C20.59 15 16.53 19.31 16.53 24.9V35.25C16.53 35.94 15.97 36.5 15.28 36.5C14.59 36.5 14.03 35.94 14.03 35.25V24.9C14.03 18.18 18.98 12.5 25.34 12.5H116.22C122.58 12.5 127.53 18.18 127.53 24.9V81.25C127.53 87.97 122.59 93.65 116.22 93.65H92.78C92.09 93.65 91.53 93.09 91.53 92.4C91.53 91.71 92.09 91.15 92.78 91.15H116.22C120.97 91.15 125.03 86.84 125.03 81.25V24.9C125.03 19.31 120.97 15 116.22 15H25.34V15Z" fill="#505050"/>
<path fill-rule="evenodd" clip-rule="evenodd" d="M26.03 58.3101C26.03 57.6201 26.59 57.0601 27.28 57.0601H44.58C45.27 57.0601 45.83 57.6201 45.83 58.3101V72.9401C45.83 73.6301 45.27 74.1901 44.58 74.1901H27.28C26.59 74.1901 26.03 73.6301 26.03 72.9401V58.3101V58.3101ZM28.53 59.5601V71.6901H43.33V59.5601H28.53V59.5601Z" fill="#505050"/>
<path fill-rule="evenodd" clip-rule="evenodd" d="M44.58 30.0601C45.27 30.0601 45.83 30.6201 45.83 31.3101V45.9401C45.83 46.6301 45.27 47.1901 44.58 47.1901H27.28C26.59 47.1901 26.03 46.6301 26.03 45.9401V38.7401C26.03 38.0501 26.59 37.4901 27.28 37.4901C27.97 37.4901 28.53 38.0501 28.53 38.7401V44.6901H43.33V31.3101C43.33 30.6201 43.89 30.0601 44.58 30.0601V30.0601Z" fill="#505050"/>
<path fill-rule="evenodd" clip-rule="evenodd" d="M26.03 83.3101C26.03 82.6201 26.59 82.0601 27.28 82.0601H44.58C45.27 82.0601 45.83 82.6201 45.83 83.3101V97.9401C45.83 98.6301 45.27 99.1901 44.58 99.1901H27.28C26.59 99.1901 26.03 98.6301 26.03 97.9401V83.3101ZM28.53 84.5601V96.6901H43.33V84.5601H28.53V84.5601Z" fill="#505050"/>
<path d="M59.28 59.75H89.28C89.78 61.75 90.28 65.25 90.28 68.75H59.28V59.75Z" fill="#27D1D6"/>
<path d="M58.28 32.75H67.28C67.28 32.75 68.78 33.12 72.09 35.17C73.23 35.87 74.27 36.71 75.26 37.61L79.78 41.76H58.28V32.76V32.75Z" fill="#27D1D6"/>
<path d="M58.28 71.75H90.1C90.1 72.94 90.1 73.52 89.78 74.75H58.28V71.75Z" fill="#0073E6"/>
<path d="M57.28 44.75H82.33C83.28 45.75 83.78 46.75 84.44 47.75H57.28V44.75Z" fill="#0073E6"/>
<path d="M48.45 58L40.63 65.07C40.46 65.23 40.2199 65.31 39.9799 65.31C39.7399 65.31 39.5 65.22 39.33 65.07L35.65 61.75C35.48 61.59 35.24 61.51 35 61.51C34.76 61.51 34.5199 61.6 34.3499 61.75L30.9699 64.81C30.7999 64.97 30.7 65.18 30.7 65.4C30.7 65.62 30.7999 65.83 30.9699 65.99L38.38 72.7C38.59 72.89 38.84 73.04 39.11 73.14C39.38 73.24 39.68 73.3 39.97 73.3C40.27 73.3 40.56 73.25 40.83 73.14C41.1 73.04 41.35 72.89 41.56 72.7L53.13 62.24C53.3 62.08 53.4 61.87 53.4 61.65C53.4 61.43 53.3 61.22 53.13 61.06L49.75 58C49.58 57.84 49.3399 57.76 49.0999 57.76C48.8599 57.76 48.62 57.85 48.45 58V58Z" fill="#0073E6"/>
<path fill-rule="evenodd" clip-rule="evenodd" d="M35.65 61.7401L39.33 65.06C39.5 65.22 39.74 65.3001 39.98 65.3001C40.22 65.3001 40.46 65.21 40.63 65.06L48.45 57.9901C48.62 57.8301 48.86 57.75 49.1 57.75C49.34 57.75 49.58 57.8401 49.75 57.9901L53.13 61.05C53.3 61.21 53.4 61.42 53.4 61.64C53.4 61.86 53.3 62.07 53.13 62.23L41.56 72.6901C41.35 72.8801 41.1 73.03 40.83 73.13C40.56 73.23 40.26 73.2901 39.97 73.2901C39.67 73.2901 39.38 73.24 39.11 73.13C38.84 73.03 38.59 72.8801 38.38 72.6901L30.97 65.9801C30.8 65.8201 30.7 65.61 30.7 65.39C30.7 65.17 30.8 64.9601 30.97 64.8001L34.35 61.7401C34.52 61.5801 34.76 61.5 35 61.5C35.24 61.5 35.48 61.5901 35.65 61.7401V61.7401ZM30.16 66.8601C29.75 66.4901 29.5 65.96 29.5 65.38C29.5 64.8 29.76 64.2701 30.16 63.9001L33.54 60.84C33.94 60.47 34.47 60.2901 34.99 60.2901C35.51 60.2901 36.04 60.48 36.44 60.84L39.97 64.03L47.64 57.1L48.44 57.9901L47.64 57.1C48.04 56.73 48.57 56.55 49.09 56.55C49.61 56.55 50.14 56.74 50.54 57.1L53.92 60.16L53.12 61.05L53.92 60.16C54.33 60.53 54.58 61.06 54.58 61.64C54.58 62.22 54.32 62.75 53.92 63.12L42.35 73.5801C42.02 73.8701 41.64 74.1001 41.23 74.2601C40.82 74.4101 40.38 74.49 39.95 74.49C39.51 74.49 39.08 74.4101 38.67 74.2601C38.26 74.1101 37.88 73.8801 37.56 73.5801L30.16 66.8601ZM30.15 66.8701L37.56 73.5801L30.15 66.8701Z" fill="#F7FAFD"/>
<path d="M92.4832 119.278L97.6688 114.576L104.722 122.354C106.018 123.784 105.91 126.002 104.48 127.298C103.05 128.595 100.833 128.486 99.5362 127.057L92.4832 119.278Z" fill="#0073E6"/>
</g>
<defs>
<clipPath id="clip0_17289_382788">
<rect width="127.53" height="133.87" fill="white"/>
</clipPath>
</defs>
</svg>
