<svg width="380" height="312" viewBox="0 0 380 312" fill="none" xmlns="http://www.w3.org/2000/svg">
<g clip-path="url(#clip0_13565_303776)">
<path d="M270.301 209.208V205.724C272.561 205.722 274.729 204.823 276.327 203.225C277.926 201.626 278.825 199.459 278.827 197.198H282.311H278.827H282.311C282.309 200.383 281.043 203.436 278.791 205.688C276.539 207.94 273.485 209.206 270.301 209.208Z" fill="#C5E1F9"/>
<path d="M293.015 214.854H289.523V193.64C289.523 192.683 289.143 191.765 288.467 191.087C287.791 190.41 286.874 190.028 285.916 190.026C284.96 190.03 284.044 190.413 283.368 191.09C282.693 191.767 282.312 192.684 282.31 193.64V198.153H278.826V193.64C278.826 191.759 279.573 189.955 280.902 188.624C282.232 187.293 284.035 186.544 285.916 186.542C287.798 186.544 289.603 187.293 290.933 188.624C292.264 189.954 293.013 191.759 293.015 193.64V214.854Z" fill="#C5E1F9"/>
<path d="M294.232 222.394C292.988 222.391 291.796 221.896 290.917 221.017C290.037 220.138 289.542 218.946 289.54 217.702V205.969H293.024V217.702C293.026 218.022 293.154 218.328 293.38 218.554C293.606 218.78 293.912 218.908 294.232 218.91C294.552 218.91 294.859 218.782 295.085 218.556C295.312 218.33 295.439 218.022 295.439 217.702L295.619 136.054H299.078L298.907 217.702C298.902 218.942 298.409 220.131 297.534 221.009C296.658 221.887 295.472 222.385 294.232 222.394Z" fill="#C5E1F9"/>
<path d="M270.52 209.208C267.335 209.206 264.28 207.941 262.027 205.689C259.774 203.437 258.506 200.384 258.502 197.198V191.658H261.994V197.198C261.996 199.459 262.895 201.626 264.494 203.225C266.092 204.823 268.26 205.722 270.52 205.725V209.208Z" fill="#C5E1F9"/>
<path d="M299.078 136.053H295.594C295.605 132.867 296.878 129.815 299.136 127.567C301.393 125.318 304.45 124.057 307.637 124.059H316.661V127.543H307.637C305.374 127.539 303.202 128.432 301.597 130.028C299.992 131.623 299.086 133.79 299.078 136.053Z" fill="#C5E1F9"/>
<path d="M262.002 192.703H258.518V181.933C258.514 179.671 257.613 177.504 256.013 175.905C254.413 174.307 252.245 173.408 249.983 173.406H216.768V169.914H249.983C253.17 169.918 256.224 171.186 258.477 173.439C260.73 175.692 261.997 178.746 262.002 181.933V192.703Z" fill="#C5E1F9"/>
<path d="M321.923 160.776C318.108 157.918 314.893 154.337 312.461 150.237C310.03 146.137 308.429 141.598 307.752 136.879C307.075 132.161 307.333 127.355 308.513 122.736C309.693 118.117 311.771 113.776 314.629 109.961C317.482 106.141 321.061 102.92 325.159 100.484C329.257 98.047 333.796 96.4418 338.515 95.7598C343.234 95.0779 348.041 95.3325 352.662 96.5092C357.283 97.6859 361.626 99.7616 365.444 102.618C369.264 105.472 372.483 109.052 374.92 113.151C377.356 117.25 378.961 121.789 379.643 126.508C380.325 131.228 380.07 136.035 378.894 140.657C377.718 145.278 375.643 149.622 372.787 153.441C369.93 157.264 366.348 160.486 362.245 162.924C358.142 165.362 353.599 166.967 348.875 167.648C344.152 168.33 339.34 168.073 334.715 166.894C330.091 165.715 325.744 163.636 321.923 160.776Z" fill="#FFCC00"/>
<path d="M114.73 195.093V191.609C116.992 191.605 119.159 190.704 120.757 189.104C122.356 187.504 123.255 185.336 123.257 183.074V177.91H126.741V183.107C126.728 186.286 125.457 189.331 123.207 191.577C120.957 193.822 117.91 195.086 114.73 195.093Z" fill="#C5E1F9"/>
<path d="M137.437 211.998H133.953V174.246C133.953 173.289 133.574 172.371 132.898 171.693C132.222 171.015 131.304 170.633 130.347 170.631C129.39 170.633 128.473 171.015 127.797 171.693C127.12 172.371 126.741 173.289 126.741 174.246V180.504H123.257V174.246C123.257 172.365 124.004 170.56 125.333 169.229C126.663 167.898 128.466 167.15 130.347 167.147C132.228 167.15 134.032 167.898 135.361 169.229C136.691 170.56 137.437 172.365 137.437 174.246V211.998Z" fill="#C5E1F9"/>
<path d="M156.692 188.721H153.2V162.098C153.2 160.783 152.679 159.523 151.75 158.593C150.821 157.663 149.562 157.139 148.247 157.137C146.932 157.139 145.672 157.662 144.742 158.592C143.812 159.522 143.289 160.782 143.287 162.098V188.721H139.803V162.098C139.805 159.858 140.695 157.712 142.279 156.129C143.862 154.545 146.008 153.655 148.247 153.653C150.486 153.655 152.633 154.545 154.216 156.129C155.8 157.712 156.69 159.858 156.692 162.098V188.721Z" fill="#C5E1F9"/>
<path d="M138.661 219.521C137.414 219.521 136.219 219.026 135.337 218.145C134.456 217.263 133.961 216.068 133.961 214.821V186.591H137.453V214.821C137.453 215.142 137.58 215.449 137.807 215.675C138.033 215.902 138.34 216.029 138.661 216.029C138.819 216.029 138.976 215.998 139.123 215.937C139.269 215.876 139.402 215.787 139.514 215.675C139.627 215.563 139.716 215.43 139.776 215.284C139.837 215.137 139.868 214.98 139.868 214.821V186.591H143.352V214.821C143.352 216.066 142.858 217.261 141.978 218.142C141.099 219.023 139.906 219.519 138.661 219.521Z" fill="#C5E1F9"/>
<path d="M114.942 195.093C111.756 195.089 108.703 193.821 106.451 191.568C104.2 189.315 102.934 186.26 102.932 183.075V172.305H106.416V183.075C106.418 185.336 107.317 187.504 108.915 189.104C110.513 190.704 112.68 191.605 114.942 191.609V195.093Z" fill="#C5E1F9"/>
<path d="M106.423 173.357H102.939V162.579C102.937 160.318 102.038 158.151 100.44 156.552C98.8412 154.954 96.6737 154.055 94.4131 154.053H44.6016V150.569H94.4131C97.5977 150.571 100.651 151.837 102.903 154.089C105.155 156.341 106.421 159.394 106.423 162.579V173.357Z" fill="#C5E1F9"/>
<path d="M46.8461 154.101H40.9471C37.7623 154.097 34.7091 152.831 32.4564 150.579C30.2037 148.328 28.9352 145.276 28.9287 142.091V116.316H32.4127V142.091C32.417 144.352 33.3178 146.52 34.9176 148.118C36.5174 149.716 38.6857 150.615 40.9471 150.617H46.8461V154.101Z" fill="#C5E1F9"/>
<path d="M165.072 211.027V207.544C167.334 207.541 169.502 206.643 171.102 205.044C172.702 203.446 173.602 201.279 173.607 199.017V57.334H177.091V199.017C177.086 202.203 175.818 205.256 173.565 207.508C171.312 209.76 168.258 211.025 165.072 211.027Z" fill="#C5E1F9"/>
<path d="M165.267 211.028C162.082 211.026 159.029 209.759 156.777 207.508C154.525 205.256 153.259 202.202 153.257 199.017V173.251H156.741V199.017C156.743 201.278 157.642 203.446 159.24 205.044C160.839 206.643 163.006 207.542 165.267 207.544V211.028Z" fill="#C5E1F9"/>
<path d="M57.8036 121.449C55.2868 124.81 52.1328 127.641 48.5216 129.782C44.9104 131.924 40.9128 133.333 36.7571 133.929C32.6013 134.525 28.3689 134.297 24.3014 133.258C20.2338 132.218 16.4107 130.388 13.0507 127.87C9.68913 125.355 6.85612 122.202 4.71328 118.591C2.57045 114.981 1.15981 110.983 0.562008 106.827C-0.0357909 102.672 0.190949 98.4388 1.22922 94.3706C2.26749 90.3024 4.097 86.4786 6.61323 83.1175C11.6962 76.3316 19.266 71.8423 27.6583 70.6366C36.0507 69.4309 44.5783 71.6076 51.366 76.6881C54.7279 79.2044 57.5611 82.3583 59.704 85.9695C61.847 89.5808 63.2576 93.5789 63.8554 97.7353C64.4532 101.892 64.2265 106.125 63.1881 110.194C62.1497 114.263 60.32 118.087 57.8036 121.449Z" fill="#F0F6FC" fill-opacity="0.85"/>
<path d="M277.113 258.008H88.719C87.029 258.008 85.4081 257.336 84.2131 256.141C83.018 254.946 82.3467 253.326 82.3467 251.636V91.5942C82.3467 89.8429 83.0418 88.1631 84.2795 86.9239C85.5171 85.6848 87.196 84.9875 88.9474 84.9854H276.885C278.636 84.9875 280.315 85.6848 281.553 86.9239C282.79 88.1631 283.486 89.8429 283.486 91.5942V251.636C283.486 253.326 282.814 254.946 281.619 256.141C280.424 257.336 278.803 258.008 277.113 258.008Z" fill="#EAF4FF"/>
<path d="M118.459 111.168H96.4297V132.137H118.459V111.168Z" fill="#2A66C4"/>
<path d="M101.545 119.523C101.359 119.515 101.173 119.546 100.999 119.613C100.827 119.68 100.671 119.783 100.542 119.915C100.415 120.043 100.317 120.197 100.252 120.365C100.188 120.534 100.158 120.713 100.166 120.894C100.161 121.077 100.192 121.261 100.26 121.432C100.327 121.603 100.429 121.758 100.558 121.889C100.689 122.018 100.845 122.121 101.015 122.191C101.19 122.256 101.375 122.29 101.562 122.289C101.746 122.289 101.928 122.256 102.1 122.191C102.27 122.128 102.424 122.028 102.549 121.897C102.674 121.767 102.771 121.614 102.836 121.446C102.9 121.278 102.93 121.098 102.924 120.918C102.931 120.736 102.901 120.553 102.837 120.383C102.773 120.212 102.675 120.055 102.549 119.923C102.424 119.79 102.27 119.687 102.1 119.621C101.927 119.548 101.741 119.514 101.553 119.523" fill="white"/>
<path d="M109.361 124.06H107.42V127.323H105.037V116.129H109.361C112.157 116.129 113.555 117.423 113.555 120.013C113.589 120.561 113.511 121.11 113.328 121.627C113.144 122.144 112.858 122.619 112.486 123.023C112.06 123.395 111.565 123.678 111.028 123.856C110.492 124.033 109.925 124.103 109.361 124.06ZM107.42 122.11H109.345C110.536 122.11 111.132 121.4 111.132 120.004C111.18 119.473 111.025 118.942 110.699 118.519C110.519 118.357 110.308 118.233 110.079 118.152C109.844 118.07 109.593 118.039 109.345 118.063H107.42V122.11Z" fill="white"/>
<path d="M262.606 111.168H127.475V115.664H262.606V111.168Z" fill="#9AC7F7"/>
<path d="M262.606 119.4H127.475V123.896H262.606V119.4Z" fill="#9AC7F7"/>
<path d="M262.606 127.625H127.475V132.121H262.606V127.625Z" fill="#9AC7F7"/>
<path d="M262.606 150.316H118.671V153.229H262.606V150.316Z" fill="#9AC7F7"/>
<path d="M224.03 158.581L118.663 158.523L118.671 155.603L224.038 155.66L224.03 158.581Z" fill="#9AC7F7"/>
<path d="M258.427 170.942L118.653 170.877L118.661 167.964L258.427 168.037V170.942Z" fill="#9AC7F7"/>
<path d="M155.973 176.213L118.653 176.205V173.284L155.973 173.308V176.213Z" fill="#9AC7F7"/>
<path d="M205.907 185.669H118.653V188.582H205.907V185.669Z" fill="#9AC7F7"/>
<path d="M191.85 203.35H118.646V206.255H191.85V203.35Z" fill="#9AC7F7"/>
<path d="M262.566 208.694H118.631V211.607H262.566V208.694Z" fill="#9AC7F7"/>
<path d="M231.88 221.039H118.631V223.944H231.88V221.039Z" fill="#9AC7F7"/>
<path d="M193.914 237.153H118.621V240.058H193.914V237.153Z" fill="#9AC7F7"/>
<path d="M97.2207 149.165V159.568H107.624V149.165H97.2207ZM105.927 157.887H98.9097V150.862H105.943L105.927 157.887Z" fill="#9AC7F7"/>
<path d="M97.2207 166.593V176.996H107.632V166.585L97.2207 166.593ZM105.918 175.307H98.9097V168.29H105.927L105.918 175.307Z" fill="#9AC7F7"/>
<path d="M97.2119 184.013V194.416H107.623V184.013H97.2119ZM105.91 192.735H98.9009V185.718H105.918L105.91 192.735Z" fill="#9AC7F7"/>
<path d="M97.1953 201.433V211.844H107.59V201.441L97.1953 201.433ZM105.901 210.155H98.8843V203.138H105.901V210.155Z" fill="#9AC7F7"/>
<path d="M97.1953 218.86V229.263H107.598V218.869L97.1953 218.86ZM105.885 227.583H98.8761V220.566H105.893L105.885 227.583Z" fill="#9AC7F7"/>
<path d="M107.574 246.691L107.582 236.288H97.1791L97.1709 246.683" fill="#9AC7F7"/>
<path d="M98.8604 245.002L98.8685 237.969L105.885 237.986L105.877 245.002" fill="#9AC7F7"/>
<path d="M100.149 175.968C99.9836 175.969 99.82 175.936 99.6673 175.873C99.5147 175.81 99.376 175.718 99.2595 175.601C99.0288 175.367 98.8994 175.052 98.8994 174.724C98.8994 174.395 99.0288 174.08 99.2595 173.847L104.857 168.249C104.972 168.133 105.109 168.04 105.26 167.977C105.412 167.914 105.574 167.882 105.738 167.882C105.902 167.882 106.064 167.914 106.215 167.977C106.366 168.04 106.504 168.133 106.619 168.249C106.735 168.365 106.828 168.502 106.891 168.653C106.954 168.804 106.987 168.967 106.987 169.131C106.987 169.294 106.954 169.457 106.891 169.608C106.828 169.759 106.735 169.896 106.619 170.012L101.022 175.601C100.791 175.834 100.477 175.966 100.149 175.968Z" fill="#2A66C4"/>
<path d="M105.706 175.968C105.541 175.969 105.378 175.936 105.225 175.873C105.072 175.81 104.934 175.718 104.817 175.601L99.228 170.004C98.9968 169.769 98.8672 169.452 98.8672 169.122C98.8672 168.793 98.9968 168.476 99.228 168.241C99.4631 168.01 99.7795 167.88 100.109 167.88C100.439 167.88 100.755 168.01 100.99 168.241L106.579 173.847C106.81 174.08 106.939 174.395 106.939 174.724C106.939 175.052 106.81 175.367 106.579 175.601C106.348 175.834 106.034 175.966 105.706 175.968Z" fill="#2A66C4"/>
<path d="M103.299 157.112C103.13 157.111 102.962 157.076 102.806 157.008C102.651 156.941 102.51 156.843 102.393 156.721L99.7987 153.979C99.6847 153.862 99.5952 153.723 99.5358 153.57C99.4764 153.418 99.4481 153.255 99.4526 153.092C99.4572 152.928 99.4945 152.767 99.5624 152.618C99.6302 152.469 99.7272 152.336 99.8476 152.225C99.9649 152.111 100.104 152.021 100.256 151.962C100.409 151.902 100.572 151.874 100.735 151.879C100.899 151.883 101.06 151.921 101.209 151.989C101.357 152.056 101.491 152.153 101.602 152.274L103.234 153.987L108.129 148.064C108.232 147.937 108.359 147.832 108.503 147.754C108.646 147.677 108.804 147.629 108.966 147.613C109.129 147.597 109.293 147.613 109.449 147.661C109.605 147.709 109.75 147.788 109.875 147.892C110.131 148.101 110.294 148.403 110.328 148.732C110.361 149.061 110.263 149.39 110.055 149.647L104.286 156.655C104.174 156.791 104.035 156.901 103.877 156.98C103.72 157.059 103.548 157.104 103.372 157.112H103.299Z" fill="#2A66C4"/>
<path d="M103.798 191.952C103.631 191.952 103.466 191.918 103.313 191.852C103.16 191.786 103.023 191.689 102.908 191.568L100.297 188.835C100.182 188.717 100.092 188.578 100.032 188.425C99.9718 188.273 99.9428 188.109 99.9466 187.945C99.9504 187.781 99.9869 187.619 100.054 187.469C100.121 187.319 100.218 187.184 100.338 187.072C100.453 186.957 100.59 186.866 100.741 186.804C100.891 186.741 101.052 186.709 101.215 186.709C101.378 186.709 101.539 186.741 101.69 186.804C101.84 186.866 101.977 186.957 102.092 187.072L103.724 188.794L108.62 182.879C108.722 182.751 108.848 182.645 108.992 182.567C109.135 182.489 109.293 182.44 109.455 182.423C109.618 182.407 109.782 182.423 109.938 182.47C110.094 182.517 110.24 182.595 110.366 182.699C110.62 182.909 110.781 183.211 110.815 183.539C110.848 183.868 110.752 184.196 110.545 184.453L104.793 191.454C104.682 191.59 104.542 191.701 104.385 191.78C104.227 191.859 104.055 191.903 103.879 191.911L103.798 191.952Z" fill="#2A66C4"/>
<path d="M100.672 209.632C100.503 209.633 100.336 209.599 100.182 209.532C100.027 209.464 99.8885 209.365 99.7745 209.241L97.1718 206.507C97.0585 206.389 96.9698 206.249 96.9109 206.096C96.852 205.943 96.8241 205.78 96.8286 205.616C96.8332 205.452 96.8701 205.291 96.9375 205.141C97.0048 204.992 97.101 204.857 97.2207 204.745C97.3391 204.633 97.4783 204.545 97.6306 204.487C97.7828 204.429 97.945 204.401 98.1079 204.406C98.2709 204.41 98.4314 204.447 98.5801 204.514C98.7289 204.58 98.863 204.675 98.975 204.794L100.607 206.507L105.502 200.584C105.606 200.457 105.733 200.351 105.878 200.274C106.022 200.196 106.181 200.148 106.344 200.132C106.507 200.116 106.671 200.133 106.828 200.181C106.985 200.229 107.13 200.308 107.256 200.413C107.511 200.623 107.672 200.925 107.705 201.254C107.737 201.583 107.637 201.911 107.428 202.167L101.716 209.175C101.605 209.312 101.466 209.423 101.308 209.502C101.151 209.58 100.979 209.625 100.803 209.632H100.672Z" fill="#2A66C4"/>
<path d="M209.237 221.716H204.913V232.943H209.237V221.716Z" fill="#0066CC"/>
<path d="M191.279 243.183L181.488 237.577L183.65 233.881L193.441 239.478L191.279 243.183Z" fill="#0066CC"/>
<path d="M191.279 256.319L181.488 261.94L183.65 265.645L193.441 260.023L191.279 256.319Z" fill="#0066CC"/>
<path d="M209.237 266.591H204.913V277.794H209.237V266.591Z" fill="#0066CC"/>
<path d="M230.54 233.881L220.749 239.487L222.911 243.199L232.702 237.586L230.54 233.881Z" fill="#0066CC"/>
<path d="M271.288 268.525L238.847 258.089L206.406 247.654L216.956 279.76L227.481 311.866L238.904 289.894L256.226 307.028L266.425 296.91L249.103 279.776L271.288 268.525Z" fill="#3683F2"/>
<path d="M238.847 258.089L206.406 247.654L206.749 248.731L260.95 302.361L266.409 296.935L249.087 279.801L271.288 268.525L238.847 258.089Z" fill="#7EB3FF"/>
<path d="M201.062 51.5572C198.525 54.9449 195.345 57.7996 191.704 59.9582C188.063 62.1168 184.032 63.5371 179.843 64.1379C175.653 64.7387 171.385 64.5084 167.285 63.4599C163.184 62.4115 159.33 60.5654 155.942 58.0273C152.55 55.4954 149.689 52.3196 147.525 48.6815C145.36 45.0433 143.934 41.0141 143.328 36.8244C142.722 32.6347 142.947 28.3666 143.992 24.2641C145.036 20.1617 146.879 16.3053 149.415 12.9156C151.949 9.52434 155.126 6.66539 158.765 4.50205C162.404 2.33871 166.433 0.913366 170.623 0.30725C174.813 -0.298867 179.081 -0.0739022 183.184 0.969482C187.287 2.01287 191.144 3.85421 194.535 6.38825C197.932 8.92332 200.796 12.1033 202.963 15.7463C205.131 19.3894 206.558 23.424 207.164 27.6193C207.771 31.8146 207.544 36.0882 206.497 40.1957C205.45 44.3033 203.603 48.164 201.062 51.5572Z" fill="#7EB3FF"/>
<path d="M348.163 137.147C353.976 137.147 358.688 132.434 358.688 126.621C358.688 120.809 353.976 116.096 348.163 116.096C342.35 116.096 337.638 120.809 337.638 126.621C337.638 132.434 342.35 137.147 348.163 137.147Z" fill="#EAF4FF"/>
<path d="M88.4334 84.9932H277.399C279.013 84.9932 280.561 85.6344 281.703 86.7759C282.844 87.9174 283.486 89.4656 283.486 91.0799V101.515H82.3467V91.0799C82.3467 89.4656 82.988 87.9174 84.1294 86.7759C85.2709 85.6344 86.8191 84.9932 88.4334 84.9932Z" fill="#003E99"/>
<path d="M92.5207 94.0176C92.5014 94.7109 92.2081 95.3682 91.7048 95.8454C91.2016 96.3226 90.5297 96.5808 89.8364 96.5633C89.1445 96.5786 88.4745 96.3195 87.9731 95.8425C87.4716 95.3655 87.1794 94.7095 87.1602 94.0176C87.1794 93.3265 87.4719 92.6713 87.9736 92.1956C88.4753 91.7199 89.1452 91.4625 89.8364 91.4801C90.1793 91.4703 90.5207 91.5282 90.8412 91.6505C91.1617 91.7727 91.4551 91.9569 91.7043 92.1926C91.9536 92.4282 92.154 92.7107 92.2941 93.0238C92.4341 93.337 92.5112 93.6747 92.5207 94.0176Z" fill="#0561FC"/>
<path d="M101.014 94.0179C100.995 94.7112 100.701 95.3684 100.198 95.8457C99.6948 96.3229 99.0227 96.5811 98.3294 96.5636C97.6375 96.5789 96.9677 96.3198 96.4662 95.8428C95.9648 95.3658 95.6726 94.7097 95.6533 94.0179C95.6725 93.3268 95.965 92.6716 96.4667 92.1959C96.9684 91.7202 97.6383 91.4628 98.3294 91.4803C99.0214 91.4628 99.6921 91.7199 100.195 92.1954C100.698 92.6708 100.992 93.3261 101.014 94.0179Z" fill="#FEC12F"/>
<path d="M109.499 94.0176C109.48 94.7109 109.187 95.3682 108.683 95.8454C108.18 96.3226 107.508 96.5808 106.815 96.5633C106.123 96.5786 105.453 96.3195 104.952 95.8425C104.45 95.3655 104.158 94.7095 104.139 94.0176C104.158 93.3265 104.45 92.6713 104.952 92.1956C105.454 91.7199 106.124 91.4625 106.815 91.4801C107.158 91.4703 107.499 91.5282 107.82 91.6505C108.14 91.7727 108.434 91.9569 108.683 92.1926C108.932 92.4282 109.133 92.7107 109.273 93.0238C109.413 93.337 109.49 93.6747 109.499 94.0176Z" fill="#7EB3FF"/>
<path d="M169.649 38.2008C169.649 40.302 168.814 42.3171 167.328 43.8028C165.843 45.2886 163.827 46.1233 161.726 46.1233C159.625 46.1233 157.61 45.2886 156.124 43.8028C154.638 42.3171 153.804 40.302 153.804 38.2008C153.804 36.0996 154.638 34.0845 156.124 32.5988C157.61 31.113 159.625 30.2783 161.726 30.2783C163.827 30.2783 165.843 31.113 167.328 32.5988C168.814 34.0845 169.649 36.0996 169.649 38.2008Z" fill="#C5E1F9"/>
<path d="M197.904 36.9852C197.913 39.3612 196.994 41.6468 195.341 43.3541C193.689 45.0615 191.434 46.0553 189.059 46.1234C186.684 46.0553 184.43 45.0615 182.777 43.3541C181.125 41.6468 180.205 39.3612 180.215 36.9852C180.215 34.6395 181.147 32.3899 182.805 30.7312C184.464 29.0725 186.714 28.1406 189.059 28.1406C191.405 28.1406 193.655 29.0725 195.313 30.7312C196.972 32.3899 197.904 34.6395 197.904 36.9852Z" fill="#C5E1F9"/>
<path d="M189.035 28.1406C186.689 28.1406 184.44 29.0725 182.781 30.7312C181.122 32.3899 180.19 34.6395 180.19 36.9852C180.191 38.1893 180.438 39.3805 180.917 40.4854C182.53 41.9207 184.615 42.7135 186.775 42.7129C189.121 42.7129 191.37 41.781 193.029 40.1224C194.688 38.4637 195.619 36.2141 195.619 33.8684C195.62 32.6642 195.373 31.4728 194.893 30.3682C193.281 28.9295 191.195 28.1363 189.035 28.1406Z" fill="#EAF4FE"/>
<path d="M189.524 46.1235C190.176 44.7772 191.229 43.276 191.229 41.685C191.23 40.3432 190.966 39.0143 190.453 37.7744C189.94 36.5346 189.188 35.4081 188.239 34.4593C187.29 33.5105 186.164 32.7581 184.924 32.2451C183.684 31.7321 182.355 31.4687 181.014 31.4697C175.367 31.4697 167.208 36.0389 167.208 41.685C167.208 43.3168 161.073 44.7772 161.725 46.1235H189.524Z" fill="#C5E1F9"/>
<path d="M186.767 30.2297C186.767 33.6704 185.401 36.9702 182.968 39.4031C180.535 41.836 177.235 43.2028 173.794 43.2028C170.354 43.2028 167.054 41.836 164.621 39.4031C162.188 36.9702 160.821 33.6704 160.821 30.2297C160.821 26.7883 162.188 23.4877 164.621 21.0535C167.053 18.6193 170.353 17.2507 173.794 17.2485C175.499 17.2485 177.186 17.5844 178.761 18.2369C180.335 18.8893 181.766 19.8456 182.971 21.0511C184.175 22.2566 185.131 23.6877 185.782 25.2626C186.434 26.8375 186.768 28.5254 186.767 30.2297Z" fill="#C5E1F9"/>
<path d="M170.114 38.6991C171.818 38.6991 173.506 38.3632 175.08 37.7107C176.655 37.0583 178.085 36.102 179.29 34.8965C180.495 33.691 181.45 32.2598 182.102 30.6849C182.753 29.11 183.088 27.4222 183.087 25.7179C183.091 23.7387 182.642 21.7849 181.773 20.0065C179.497 18.2216 176.686 17.2533 173.794 17.2568C170.352 17.259 167.052 18.6276 164.62 21.0618C162.187 23.496 160.821 26.7966 160.821 30.238V30.3196C158.89 30.5418 157.108 31.4659 155.814 32.9162C154.521 34.3664 153.805 36.2416 153.804 38.185C153.814 39.3768 154.093 40.5508 154.62 41.62C155.39 41.9636 156.224 42.1415 157.067 42.1422C158.583 42.1406 160.044 41.5735 161.163 40.5519C162.283 39.5303 162.981 38.1276 163.121 36.6184C165.203 37.972 167.631 38.6947 170.114 38.6991Z" fill="#EAF4FE"/>
<path d="M177.678 32.7675V30.4014C177.676 29.5134 177.322 28.6626 176.693 28.0355C176.065 27.4084 175.213 27.0561 174.325 27.0562H173.827C172.939 27.0561 172.088 27.4084 171.459 28.0355C170.83 28.6626 170.476 29.5134 170.474 30.4014V32.7675H169.731V40.4616H178.421V32.7675H177.678ZM171.967 30.4014C171.969 29.9094 172.166 29.4384 172.515 29.0913C172.863 28.7441 173.335 28.5492 173.827 28.5492H174.325C174.817 28.5492 175.289 28.7441 175.638 29.0913C175.986 29.4384 176.183 29.9094 176.185 30.4014V32.7675H171.967V30.4014ZM174.929 38.1281H173.224L173.615 36.684C173.446 36.6012 173.303 36.4722 173.203 36.3121C173.104 36.1519 173.051 35.9669 173.052 35.7783C173.052 35.6437 173.079 35.5104 173.131 35.3861C173.182 35.2618 173.258 35.149 173.354 35.0542C173.449 34.9594 173.563 34.8844 173.688 34.8336C173.812 34.7828 173.946 34.7573 174.08 34.7584C174.351 34.7584 174.61 34.8659 174.801 35.0571C174.993 35.2484 175.1 35.5078 175.1 35.7783C175.101 35.9669 175.048 36.1519 174.949 36.3121C174.849 36.4722 174.707 36.6012 174.537 36.684L174.929 38.1281Z" fill="#2A66C4"/>
<path d="M357.334 135.303C359.433 133.331 360.754 130.669 361.054 127.805C361.342 124.956 360.585 122.1 358.925 119.768C357.211 117.386 354.736 115.659 351.908 114.873C349.037 114.049 345.974 114.195 343.194 115.289C340.464 116.349 338.182 118.317 336.732 120.861C335.335 123.337 334.882 126.236 335.459 129.02C336.062 131.85 337.653 134.373 339.947 136.135C342.3 137.951 345.191 138.933 348.163 138.926C349.863 138.927 351.549 138.609 353.132 137.987C354.694 137.375 356.121 136.463 357.334 135.303ZM340.722 133.671C339.015 132.07 337.939 129.911 337.687 127.584C337.455 125.272 338.066 122.954 339.408 121.057C340.797 119.105 342.813 117.688 345.12 117.043C347.452 116.373 349.941 116.488 352.202 117.369C354.423 118.232 356.281 119.83 357.464 121.898C358.605 123.921 358.973 126.289 358.501 128.564C358.009 130.863 356.716 132.913 354.854 134.348C352.941 135.823 350.594 136.621 348.179 136.617C346.8 136.619 345.433 136.362 344.149 135.858C342.882 135.362 341.724 134.625 340.738 133.688L340.722 133.671Z" fill="#0058B0"/>
<path opacity="0.2" d="M350.08 118.299C349.361 117.599 348.513 117.045 347.583 116.667C346.651 116.284 345.653 116.088 344.646 116.088C343.638 116.09 342.64 116.289 341.709 116.675C340.797 117.059 339.966 117.613 339.261 118.307C338.565 119.011 338.011 119.842 337.629 120.755C337.246 121.684 337.05 122.679 337.05 123.684C337.054 124.69 337.257 125.685 337.645 126.613C338.023 127.529 338.578 128.36 339.277 129.061C339.98 129.758 340.811 130.313 341.725 130.693C342.657 131.076 343.655 131.272 344.662 131.272C345.67 131.266 346.667 131.067 347.6 130.685C348.513 130.303 349.344 129.749 350.047 129.053C350.745 128.351 351.3 127.519 351.679 126.605C352.063 125.673 352.26 124.675 352.258 123.668C352.257 122.665 352.057 121.672 351.671 120.747C351.288 119.835 350.734 119.004 350.039 118.299H350.08Z" fill="white"/>
<path d="M337.009 126.597C337.013 125.192 337.305 123.803 337.866 122.515C338.427 121.227 339.246 120.067 340.272 119.107C342.405 117.102 345.227 115.992 348.154 116.007C351.082 115.992 353.903 117.102 356.036 119.107C357.058 120.068 357.875 121.227 358.436 122.513C358.997 123.799 359.291 125.186 359.299 126.589H360.385C360.375 125.047 360.05 123.523 359.432 122.11C358.813 120.698 357.913 119.426 356.786 118.373C354.438 116.181 351.342 114.967 348.13 114.979C344.916 114.971 341.821 116.194 339.481 118.397C338.356 119.452 337.459 120.726 336.844 122.14C336.229 123.554 335.911 125.08 335.907 126.622L337.009 126.597Z" fill="#606060"/>
<path d="M337.483 133.092L323.041 146.905L326.786 150.463L341.228 136.649L337.483 133.092Z" fill="#0058B0"/>
<path d="M325.888 151.32C325.397 151.321 324.909 151.23 324.452 151.05C324 150.873 323.587 150.61 323.236 150.275C322.89 149.95 322.612 149.559 322.42 149.125C322.233 148.695 322.136 148.231 322.135 147.762L323.04 146.946L326.785 150.504L325.888 151.32Z" fill="#C5E1F9"/>
<path d="M325.554 150.985L323.922 149.41L324.738 148.676L326.37 150.25L325.554 150.985Z" fill="#EAF4FE"/>
<path d="M40.5791 104.959C40.1977 106.172 39.5542 107.287 38.6943 108.223L45.1237 117.198C48.4448 114.367 50.7249 110.507 51.602 106.232L40.5791 104.959Z" fill="#D98F00"/>
<path d="M34.0127 93.6011C35.8527 93.9866 37.521 94.9509 38.7733 96.353C40.0257 97.7551 40.7964 99.5213 40.9725 101.393L51.9873 102.609C51.9873 102.486 51.9873 102.364 51.9873 102.233C51.9792 97.3131 50.1342 92.573 46.8139 88.9418C43.4936 85.3106 38.9372 83.0498 34.0372 82.6025L34.0127 93.6011Z" fill="#0058B0"/>
<path d="M25.6809 96.3181C26.9322 94.9358 28.5886 93.9848 30.4132 93.6011V82.6025C27.5916 82.8626 24.8588 83.7256 22.3996 85.1332C19.9405 86.5409 17.8123 88.4603 16.1592 90.7617L25.6809 96.3181Z" fill="#80B4FB"/>
<path d="M35.7818 110.287C34.6581 110.792 33.4401 111.054 32.2081 111.054C31.0481 111.056 29.899 110.83 28.8265 110.387C27.7541 109.945 26.7794 109.296 25.958 108.477C25.1366 107.658 24.4847 106.685 24.0395 105.614C23.5944 104.542 23.3646 103.394 23.3635 102.234C23.377 101.272 23.5479 100.318 23.8694 99.4109L14.3314 93.8218C13.0683 96.4461 12.4129 99.3214 12.4141 102.234C12.4249 107.474 14.5158 112.496 18.2274 116.195C21.9391 119.895 26.9677 121.969 32.2081 121.963C35.7234 121.963 39.1746 121.022 42.203 119.237L35.7818 110.287Z" fill="#003E99"/>
</g>
<defs>
<clipPath id="clip0_13565_303776">
<rect width="379.767" height="311.866" fill="white" transform="translate(0.233398)"/>
</clipPath>
</defs>
</svg>
