<svg width="104" height="104" viewBox="0 0 104 104" fill="none" xmlns="http://www.w3.org/2000/svg">
<circle cx="52" cy="52" r="52" fill="#F0F6FC"/>
<path d="M17.117 88.126C16.435 88.1251 15.7812 87.8536 15.2991 87.3713C14.8169 86.889 14.5457 86.2352 14.5449 85.5532V37.8102C14.5456 37.1282 14.8167 36.4742 15.2989 35.9919C15.7811 35.5096 16.435 35.2382 17.117 35.2373H86.8833C87.5653 35.2381 88.2191 35.5095 88.7011 35.9919C89.1832 36.4743 89.4541 37.1282 89.4544 37.8102V85.5532C89.454 86.2351 89.183 86.889 88.701 87.3713C88.219 87.8537 87.5653 88.1251 86.8833 88.126H17.117Z" fill="#CCDAE6"/>
<path d="M89.2136 85.5535C89.2138 86.1717 88.9685 86.7647 88.5315 87.2021C88.0946 87.6394 87.5018 87.8853 86.8836 87.8857H17.1172C16.811 87.8857 16.5077 87.8254 16.2247 87.7082C15.9418 87.591 15.6847 87.4192 15.4681 87.2026C15.2516 86.986 15.0798 86.7289 14.9626 86.446C14.8454 86.163 14.7851 85.8597 14.7852 85.5535V37.8105C14.785 37.5042 14.8452 37.2009 14.9624 36.9179C15.0795 36.6349 15.2513 36.3777 15.4679 36.1612C15.6845 35.9446 15.9416 35.7728 16.2246 35.6557C16.5076 35.5386 16.811 35.4784 17.1172 35.4785H86.8836C87.1897 35.4785 87.4928 35.5389 87.7756 35.6561C88.0584 35.7734 88.3154 35.9452 88.5317 36.1617C88.7481 36.3783 88.9197 36.6354 89.0367 36.9183C89.1537 37.2012 89.2138 37.5043 89.2136 37.8105V85.5535Z" fill="#7A92A9"/>
<path d="M85.5637 38.8232H18.4336V81.6713H85.5637V38.8232Z" fill="#617C98"/>
<mask id="mask0_322:9330" style="mask-type:alpha" maskUnits="userSpaceOnUse" x="18" y="38" width="68" height="44">
<path d="M85.5657 38.8232H18.4355V81.6713H85.5657V38.8232Z" fill="#17324D"/>
</mask>
<g mask="url(#mask0_322:9330)">
<path d="M95.629 61.5432L95.6293 57.9628L93.7425 57.5596C93.6345 57.0384 93.4898 56.5254 93.3096 56.0246L94.697 54.7726L92.9068 51.6714L91.0681 52.2654C90.714 51.8694 90.3327 51.4987 89.9269 51.1559L90.5037 49.3722L87.4033 47.5819L86.1087 49.0146C85.604 48.8489 85.0884 48.7186 84.5656 48.6246L84.173 46.793H80.5929L80.1886 48.68C79.6675 48.7878 79.1546 48.9325 78.654 49.1129L77.4004 47.725L74.3005 49.5151L74.8943 51.3541C74.499 51.7084 74.1283 52.0893 73.785 52.4942L72.0017 51.918L70.2109 55.0191L71.6438 56.3135C71.4783 56.8182 71.348 57.3338 71.254 57.8566L69.4225 58.2499L69.4219 61.8298L71.3088 62.2339C71.4169 62.7547 71.5615 63.2673 71.7414 63.7678L70.354 65.0223L72.1442 68.1221L73.9836 67.5281C74.3376 67.9238 74.7186 68.2945 75.1238 68.6375L74.5475 70.4212L77.6482 72.2106L78.942 70.778C79.4467 70.9437 79.9623 71.0741 80.4852 71.1682L80.8785 73H84.4583L84.8627 71.1133C85.3839 71.0053 85.8969 70.8609 86.3979 70.6809L87.6506 72.0674L90.7514 70.2787L90.1574 68.4389C90.5529 68.0848 90.9236 67.7039 91.2668 67.2989L93.0498 67.8747L94.8398 64.7742L93.4075 63.4802C93.5734 62.9752 93.7038 62.4593 93.798 61.9361L95.629 61.5432ZM88.5403 59.897C88.5403 61.0866 88.1875 62.2494 87.5266 63.2385C86.8657 64.2275 85.9264 64.9984 84.8273 65.4536C83.7283 65.9088 82.519 66.0279 81.3523 65.7958C80.1856 65.5637 79.1139 64.9909 78.2728 64.1498C77.4316 63.3086 76.8588 62.2369 76.6268 61.0702C76.3947 59.9035 76.5138 58.6942 76.969 57.5952C77.4242 56.4962 78.1951 55.5568 79.1842 54.8959C80.1733 54.2351 81.3361 53.8823 82.5257 53.8823C83.3155 53.8823 84.0977 54.0378 84.8274 54.3401C85.5571 54.6424 86.2202 55.0854 86.7787 55.6439C87.3372 56.2025 87.7803 56.8655 88.0825 57.5953C88.3848 58.325 88.5403 59.1071 88.5403 59.897H88.5403Z" fill="#B2C0CF"/>
<path d="M90.8065 59.9857C90.8066 61.5717 90.3364 63.1221 89.4552 64.4409C88.5741 65.7596 87.3217 66.7874 85.8565 67.3944C84.3912 68.0013 82.7788 68.16 81.2233 67.8505C79.6677 67.541 78.2389 66.7772 77.1176 65.6556C75.9962 64.534 75.2326 63.1051 74.9234 61.5495C74.6142 59.9939 74.7732 58.3816 75.3804 56.9164C75.9876 55.4512 77.0157 54.199 78.3346 53.3182C79.6536 52.4373 81.2041 51.9674 82.7901 51.9678C83.8429 51.9678 84.8855 52.1751 85.8582 52.5781C86.8309 52.981 87.7147 53.5717 88.4591 54.3162C89.2035 55.0608 89.794 55.9447 90.1967 56.9174C90.5995 57.8902 90.8067 58.9328 90.8065 59.9857Z" fill="#DAE3EC"/>
<path d="M90.5621 59.9865C90.5624 61.5243 90.1067 63.0275 89.2525 64.3062C88.3984 65.5849 87.1842 66.5816 85.7636 67.1702C84.343 67.7588 82.7797 67.9129 81.2715 67.6129C79.7633 67.313 78.3779 66.5725 77.2906 65.4852C76.2033 64.3978 75.4628 63.0124 75.163 61.5042C74.8631 59.996 75.0172 58.4327 75.6058 57.0121C76.1945 55.5915 77.1912 54.3774 78.4699 53.5233C79.7486 52.6692 81.2519 52.2135 82.7897 52.2139C84.851 52.2142 86.8278 53.0332 88.2853 54.4908C89.7429 55.9484 90.5618 57.9252 90.5621 59.9865Z" fill="#B6C5D6"/>
<path d="M88.9119 59.9855C88.912 61.1963 88.5531 62.3801 87.8804 63.3869C87.2078 64.3938 86.2517 65.1786 85.1331 65.642C84.0144 66.1055 82.7834 66.2268 81.5958 65.9906C80.4082 65.7544 79.3173 65.1713 78.4611 64.3151C77.6049 63.4589 77.0218 62.3681 76.7856 61.1805C76.5494 59.9929 76.6706 58.7619 77.1341 57.6432C77.5975 56.5245 78.3822 55.5684 79.3891 54.8958C80.3959 54.2231 81.5796 53.8641 82.7905 53.8643C84.4138 53.8646 85.9706 54.5097 87.1185 55.6575C88.2664 56.8054 88.9114 58.3621 88.9119 59.9855Z" fill="#DAE3EC"/>
<path d="M79.7324 59.059H80.4085C80.4503 58.6931 80.5496 58.336 80.7027 58.001C80.8449 57.6858 81.0405 57.3974 81.2808 57.1487C81.5181 56.9053 81.8031 56.7134 82.1179 56.585C82.462 56.4472 82.83 56.3789 83.2006 56.3841C83.8499 56.3516 84.4878 56.5632 84.989 56.9773C85.4614 57.4248 85.7437 58.0368 85.7775 58.6867H84.5529C84.5268 58.3259 84.374 57.9858 84.1215 57.7268C83.8706 57.4985 83.5395 57.3787 83.2006 57.3935C83.0036 57.3824 82.8068 57.4173 82.6256 57.4955C82.4445 57.5737 82.284 57.693 82.157 57.844C81.891 58.1973 81.7299 58.6184 81.6922 59.059H83.7101L83.5929 59.6761H81.6626V60.3427H83.4653L83.3577 60.9598H81.6922C81.7252 61.3917 81.889 61.8033 82.1618 62.1398C82.2954 62.2817 82.4585 62.3926 82.6397 62.4647C82.8209 62.5367 83.0156 62.5682 83.2102 62.5568C84.0267 62.5568 84.5002 62.0832 84.631 61.136H85.8461C85.799 61.8171 85.5087 62.4586 85.0281 62.9435C84.5235 63.3899 83.8639 63.6204 83.1911 63.5853C82.8193 63.5914 82.4498 63.5248 82.1036 63.3891C81.7927 63.2647 81.5095 63.0799 81.2704 62.8454C81.0307 62.6066 80.8365 62.3261 80.6972 62.0178C80.5461 61.6824 80.4487 61.3254 80.4086 60.9598H79.7324V60.3427H80.3791V59.6761H79.7324L79.7324 59.059Z" fill="#B6C5D6"/>
</g>
<path d="M51.9184 37.1005C51.9188 37.1419 51.911 37.1829 51.8955 37.2212C51.88 37.2595 51.857 37.2943 51.8279 37.3237C51.7988 37.3531 51.7642 37.3764 51.7261 37.3923C51.6879 37.4082 51.647 37.4164 51.6057 37.4164C51.5643 37.4164 51.5234 37.4082 51.4853 37.3923C51.4471 37.3764 51.4125 37.3531 51.3834 37.3237C51.3544 37.2943 51.3314 37.2595 51.3159 37.2212C51.3003 37.1829 51.2926 37.1419 51.293 37.1005C51.2938 37.0182 51.3271 36.9394 51.3857 36.8815C51.4442 36.8235 51.5233 36.791 51.6057 36.791C51.6881 36.791 51.7671 36.8235 51.8257 36.8815C51.8842 36.9394 51.9175 37.0182 51.9184 37.1005Z" fill="#DAE3EC"/>
<path d="M49.2749 38.8237L50.5716 35.4785H39.8901L38.5938 38.8237H49.2749Z" fill="#95A8BB"/>
<path d="M21.9852 81.6709L19.5762 87.8848H30.2586L32.6667 81.6709H21.9852Z" fill="#95A8BB"/>
<path d="M56.1413 38.8237L57.4396 35.4785H54.0053L52.709 38.8237H56.1413Z" fill="#95A8BB"/>
<path d="M36.0998 81.6709L33.6914 87.8848H37.1247L39.5327 81.6709H36.0998Z" fill="#95A8BB"/>
<path d="M102 85.2441H2V88.1697H102V85.2441Z" fill="#DAE3EC"/>
<path d="M2.14648 88.1699C3.3288 89.4206 5.50264 89.9123 7.00237 89.9123H96.9972C98.4976 89.9123 100.673 89.4206 101.855 88.1699H2.14648Z" fill="#B2C0CF"/>
<path d="M45.207 85.2441V85.5574C45.2069 85.6947 45.2338 85.8306 45.2862 85.9575C45.3386 86.0843 45.4155 86.1996 45.5125 86.2967C45.6095 86.3938 45.7246 86.4709 45.8514 86.5235C45.9781 86.5762 46.114 86.6033 46.2513 86.6034H57.7481C57.8854 86.6034 58.0213 86.5763 58.1482 86.5237C58.275 86.4711 58.3903 86.3941 58.4873 86.2969C58.5844 86.1998 58.6613 86.0845 58.7138 85.9576C58.7662 85.8307 58.7932 85.6947 58.7931 85.5574V85.2441H45.207Z" fill="#B2C0CF"/>
<path d="M21.4473 46.2051H54.3565V71.3316H48.2034V77.998L41.5371 71.3316H21.4473V46.2051Z" fill="white"/>
<path d="M46 34H0V65H46V34Z" fill="#B2C0CF"/>
<path d="M7.66797 73.9392V59.0586H22.5486L7.66797 73.9392Z" fill="#B2C0CF"/>
<path d="M38.7842 43.1484H6.99219V45.178H38.7842V43.1484Z" fill="#8B9DB0"/>
<path d="M38.7842 48.5615H6.99219V50.5906H38.7842V48.5615Z" fill="#8B9DB0"/>
<path d="M38.7842 53.9707H6.99219V56.0001H38.7842V53.9707Z" fill="#8B9DB0"/>
<path d="M53.5375 57.4971H52.6699V59.7749H53.5375V57.4971Z" fill="#DAE3EC"/>
<path d="M49.9315 61.8564L47.959 60.7196L48.3936 59.9688L50.3654 61.1055L49.9315 61.8564Z" fill="#DAE3EC"/>
<path d="M49.9314 64.5197L47.9609 65.6602L48.3954 66.4108L50.3659 65.2704L49.9314 64.5197Z" fill="#DAE3EC"/>
<path d="M53.5375 66.6025H52.6699V68.8769H53.5375V66.6025Z" fill="#DAE3EC"/>
<path d="M56.2795 64.5196L55.8457 65.2705L57.8165 66.409L58.2503 65.6581L56.2795 64.5196Z" fill="#DAE3EC"/>
<path d="M57.8158 59.9653L55.8438 61.1035L56.278 61.8559L58.2501 60.7177L57.8158 59.9653Z" fill="#DAE3EC"/>
<path d="M66 66.9951L59.4848 64.8777L52.9707 62.7598L55.0876 69.2764L57.2025 75.7906L59.4939 71.3335L62.9717 74.8143L65.0202 72.7612L61.5419 69.284L66 66.9951Z" fill="#8B9DB0"/>
<path d="M59.4848 64.8777L52.9707 62.7598L53.0396 62.9784L63.9243 73.8622L65.0202 72.7612L61.5419 69.284L66 66.9951L59.4848 64.8777Z" fill="#B2C0CF"/>
<path d="M85.6853 31.3963L85.6857 26.931L83.3325 26.428C83.1977 25.778 83.0173 25.1382 82.7926 24.5136L84.5229 22.9521L82.2902 19.0843L79.997 19.8252C79.5554 19.3313 79.0798 18.869 78.5737 18.4414L79.2931 16.2168L75.4263 13.9839L73.8117 15.7708C73.1822 15.5642 72.5391 15.4016 71.8871 15.2844L71.3975 13H66.9324L66.4282 15.3535C65.7782 15.488 65.1386 15.6684 64.5142 15.8934L62.9508 14.1624L59.0845 16.3951L59.8251 18.6886C59.3321 19.1305 58.8699 19.6056 58.4416 20.1105L56.2176 19.3919L53.9841 23.2596L55.7712 24.8739C55.5647 25.5034 55.4023 26.1464 55.285 26.7984L53.0008 27.289L53 31.7538L55.3534 32.2578C55.4882 32.9073 55.6685 33.5466 55.8929 34.1709L54.1626 35.7355L56.3953 39.6016L58.6893 38.8606C59.1308 39.3542 59.606 39.8165 60.1114 40.2443L59.3926 42.4689L63.2598 44.7007L64.8734 42.914C65.5029 43.1206 66.146 43.2832 66.798 43.4006L67.2886 45.6852H71.7533L72.2577 43.3321C72.9078 43.1975 73.5476 43.0173 74.1723 42.7928L75.7347 44.5221L79.602 42.2912L78.8611 39.9966C79.3544 39.555 79.8168 39.0799 80.2449 38.5749L82.4685 39.2929L84.701 35.4261L82.9147 33.8122C83.1215 33.1823 83.2842 32.5389 83.4017 31.8864L85.6853 31.3963ZM76.8444 29.3432C76.8443 30.8268 76.4044 32.2771 75.5801 33.5107C74.7558 34.7442 73.5842 35.7057 72.2136 36.2734C70.8429 36.8411 69.3346 36.9897 67.8795 36.7002C66.4244 36.4107 65.0878 35.6963 64.0388 34.6472C62.9897 33.5982 62.2753 32.2616 61.9859 30.8065C61.6964 29.3514 61.845 27.8431 62.4127 26.4724C62.9805 25.1018 63.9419 23.9302 65.1755 23.106C66.409 22.2817 67.8593 21.8417 69.3429 21.8417C70.328 21.8417 71.3035 22.0358 72.2136 22.4127C73.1238 22.7897 73.9507 23.3423 74.6473 24.0389C75.3439 24.7354 75.8964 25.5624 76.2734 26.4725C76.6504 27.3827 76.8444 28.3581 76.8444 29.3432H76.8444Z" fill="#B2C0CF"/>
<path d="M79.6711 29.4539C79.6712 31.432 79.0847 33.3657 77.9858 35.0104C76.8869 36.6552 75.3249 37.9371 73.4974 38.694C71.6699 39.451 69.659 39.649 67.719 39.263C65.7789 38.877 63.9969 37.9243 62.5984 36.5255C61.1998 35.1266 60.2475 33.3445 59.8618 31.4043C59.4762 29.4642 59.6746 27.4533 60.4319 25.626C61.1891 23.7986 62.4714 22.2369 64.1163 21.1383C65.7612 20.0397 67.695 19.4536 69.6731 19.4541C70.9862 19.4541 72.2865 19.7127 73.4996 20.2153C74.7128 20.7178 75.815 21.4545 76.7434 22.3831C77.6719 23.3117 78.4083 24.4141 78.9106 25.6273C79.4129 26.8405 79.6713 28.1408 79.6711 29.4539Z" fill="#DAE3EC"/>
<path d="M79.3665 29.4547C79.3668 31.3726 78.7984 33.2475 77.7332 34.8422C76.6679 36.437 75.1536 37.6801 73.3818 38.4142C71.61 39.1483 69.6603 39.3404 67.7793 38.9663C65.8983 38.5923 64.1705 37.6687 62.8144 36.3126C61.4583 34.9565 60.5348 33.2286 60.1608 31.3476C59.7868 29.4666 59.979 27.5169 60.7131 25.7451C61.4473 23.9733 62.6904 22.4591 64.2852 21.3939C65.88 20.3286 67.7549 19.7603 69.6728 19.7607C72.2436 19.7611 74.7091 20.7826 76.5269 22.6005C78.3448 24.4184 79.3661 26.8839 79.3665 29.4547Z" fill="#B6C5D6"/>
<path d="M77.3076 29.4537C77.3078 30.9639 76.8601 32.4402 76.0212 33.6959C75.1823 34.9517 73.9899 35.9304 72.5947 36.5084C71.1995 37.0864 69.6643 37.2377 68.1831 36.9432C66.7019 36.6486 65.3414 35.9214 64.2735 34.8536C63.2056 33.7857 62.4784 32.4252 62.1838 30.944C61.8892 29.4629 62.0405 27.9276 62.6184 26.5324C63.1964 25.1372 64.1751 23.9448 65.4309 23.1058C66.6866 22.2669 68.1629 21.8192 69.6731 21.8193C71.6977 21.8198 73.6393 22.6243 75.0709 24.0559C76.5025 25.4875 77.3071 27.4291 77.3076 29.4537Z" fill="#DAE3EC"/>
<path d="M65.8594 28.2982H66.7026C66.7548 27.8418 66.8786 27.3965 67.0695 26.9787C67.2469 26.5855 67.4908 26.2259 67.7905 25.9157C68.0865 25.6121 68.4419 25.3727 68.8345 25.2127C69.2637 25.0407 69.7227 24.9555 70.1849 24.9621C70.9947 24.9215 71.7903 25.1855 72.4153 25.7019C73.0045 26.26 73.3566 27.0233 73.3987 27.8338H71.8714C71.8389 27.3838 71.6483 26.9597 71.3334 26.6366C71.0204 26.3519 70.6076 26.2025 70.1849 26.221C69.9392 26.2071 69.6937 26.2507 69.4678 26.3482C69.2418 26.4457 69.0417 26.5945 68.8833 26.7828C68.5516 27.2235 68.3507 27.7487 68.3035 28.2982H70.8203L70.6741 29.0679H68.2667V29.8992H70.515L70.3808 30.6688H68.3036C68.3447 31.2075 68.549 31.7208 68.8893 32.1405C69.0559 32.3175 69.2594 32.4559 69.4853 32.5457C69.7112 32.6356 69.9541 32.6748 70.1969 32.6605C71.2151 32.6605 71.8058 32.0699 71.9688 30.8886H73.4843C73.4256 31.738 73.0635 32.5381 72.464 33.1428C71.8348 33.6996 71.0121 33.9871 70.173 33.9433C69.7093 33.9509 69.2485 33.8678 68.8167 33.6987C68.4289 33.5435 68.0757 33.313 67.7776 33.0205C67.4786 32.7226 67.2364 32.3729 67.0626 31.9883C66.8742 31.5701 66.7527 31.1248 66.7026 30.6688H65.8594V29.8992H66.6658V29.0679H65.8594L65.8594 28.2982Z" fill="#B6C5D6"/>
<circle cx="16" cy="16" r="16" fill="#DEE8F2"/>
<path d="M18.4879 11.12V23H16.0039V13.928L13.4299 15.584L12.2959 13.73L16.2199 11.12H18.4879Z" fill="#5C6F81"/>
</svg>
