<svg width="58" height="48" viewBox="0 0 58 48" fill="none" xmlns="http://www.w3.org/2000/svg">
<path d="M39.192 7.97656L32.2573 11.7591V19.3242L39.192 23.7372L46.1267 19.3242V11.7591L39.192 7.97656Z" fill="#0073E6"/>
<path d="M48.6484 20.585L51.8006 22.4762L39.192 30.0414L26.5835 22.4762L29.7356 20.585" stroke="#505050" stroke-linecap="round" stroke-linejoin="round"/>
<path d="M26.5835 7.97668L39.192 15.5418L51.8006 7.97668L39.192 1.04199L26.5835 7.97668Z" stroke="#505050" stroke-linecap="round" stroke-linejoin="round"/>
<path d="M51.8008 7.97656V22.4764" stroke="#505050" stroke-linecap="round" stroke-linejoin="round"/>
<path d="M39.1919 15.543V30.0428" stroke="#505050" stroke-linecap="round" stroke-linejoin="round"/>
<path d="M39.1919 1.04199V4.19413" stroke="#505050" stroke-linecap="round" stroke-linejoin="round"/>
<path d="M26.5835 7.97656V22.4764" stroke="#505050" stroke-linecap="round" stroke-linejoin="round"/>
<path d="M45.9169 2.25L51.7551 2.25C54.5371 2.25 56.7923 4.49473 56.7923 7.26374V35.9029C56.7923 38.6719 54.5371 40.9167 51.7551 40.9167H6.24624C3.46424 40.9167 1.20898 38.6719 1.20898 35.9029V7.26374C1.20898 4.49473 3.46424 2.25 6.24624 2.25L31.4169 2.25" stroke="#505050" stroke-linecap="round" stroke-linejoin="round"/>
<rect x="7.25" y="10.708" width="9.66667" height="3.625" fill="#27D1D6"/>
<rect x="7.25" y="19.167" width="9.66667" height="3.625" fill="#27D1D6"/>
<rect x="7.25" y="15.542" width="14.5" height="1.20833" fill="#0073E6"/>
<rect x="7.25" y="24" width="14.5" height="1.20833" fill="#0073E6"/>
<path d="M27.4141 37.7031H30.5866" stroke="#505050" stroke-linecap="round" stroke-linejoin="round"/>
<path d="M1.2085 34.6104H56.7916" stroke="#505050" stroke-linecap="round" stroke-linejoin="round"/>
<path d="M23.6602 47.3128L24.2375 41.0791" stroke="#505050" stroke-linecap="round" stroke-linejoin="round"/>
<path d="M33.7632 41.0791L34.3405 47.3128" stroke="#505050" stroke-linecap="round" stroke-linejoin="round"/>
<path d="M18.1816 47.3125H39.8184" stroke="#505050" stroke-linecap="round" stroke-linejoin="round"/>
</svg>
