<svg width="320" height="388" viewBox="0 0 320 388" fill="none" xmlns="http://www.w3.org/2000/svg">
<rect width="220" height="388" fill="white"/>
<path d="M120 0H316C318.209 0 320 1.79086 320 4V384C320 386.209 318.209 388 316 388H120C120 388 80 322 80 194C80 66 120 0 120 0Z" fill="#F0F6FC"/>
<path d="M117.642 116.547L117.643 107.191L112.712 106.137C112.43 104.775 112.052 103.434 111.581 102.125L115.206 98.8533L110.528 90.7489L105.723 92.3012C104.798 91.2665 103.801 90.2976 102.741 89.4019L104.248 84.7404L96.1457 80.0617L92.7626 83.8058C91.4436 83.3729 90.0961 83.0323 88.7298 82.7866L87.704 78H78.3478L77.2914 82.9315C75.9295 83.2133 74.5892 83.5913 73.2808 84.0629L70.0049 80.4357L61.9036 85.114L63.4555 89.9198C62.4224 90.8457 61.4538 91.8411 60.5566 92.8992L55.8963 91.3934L51.2164 99.4977L54.961 102.88C54.5283 104.199 54.1879 105.547 53.9423 106.913L49.156 107.941L49.1543 117.296L54.0855 118.352C54.368 119.713 54.7458 121.053 55.2161 122.361L51.5904 125.639L56.2687 133.74L61.0755 132.188C62.0006 133.222 62.9963 134.191 64.0553 135.087L62.5491 139.748L70.6524 144.425L74.0335 140.681C75.3525 141.114 76.7 141.455 78.0663 141.701L79.0942 146.488H88.4495L89.5063 141.557C90.8685 141.275 92.2091 140.897 93.5182 140.427L96.792 144.051L104.895 139.376L103.343 134.568C104.377 133.643 105.345 132.647 106.242 131.589L110.902 133.093L115.58 124.991L111.837 121.609C112.27 120.29 112.611 118.941 112.857 117.574L117.642 116.547ZM99.1171 112.245C99.117 115.354 98.1951 118.393 96.468 120.978C94.7408 123.562 92.2859 125.577 89.4139 126.766C86.5418 127.956 83.3814 128.267 80.3324 127.661C77.2835 127.054 74.4828 125.557 72.2846 123.359C70.0865 121.161 68.5895 118.36 67.983 115.311C67.3765 112.262 67.6878 109.102 68.8774 106.23C70.0671 103.358 72.0817 100.903 74.6664 99.1758C77.2512 97.4486 80.2901 96.5268 83.3988 96.5267C85.463 96.5267 87.507 96.9333 89.414 97.7232C91.321 98.5131 93.0538 99.6709 94.5134 101.131C95.973 102.59 97.1308 104.323 97.9207 106.23C98.7106 108.137 99.1172 110.181 99.1171 112.245H99.1171Z" fill="#7EB3FF"/>
<path d="M105.037 112.477C105.037 116.622 103.808 120.674 101.506 124.12C99.203 127.567 95.9301 130.253 92.1008 131.839C88.2715 133.425 84.0578 133.84 79.9927 133.031C75.9276 132.222 72.1937 130.226 69.2631 127.295C66.3326 124.364 64.3371 120.629 63.5291 116.564C62.721 112.499 63.1367 108.285 64.7235 104.456C66.3103 100.627 68.997 97.3549 72.4438 95.0529C75.8905 92.751 79.9426 91.5228 84.0874 91.5239C86.8388 91.5239 89.5633 92.0659 92.1053 93.1189C94.6473 94.1719 96.957 95.7154 98.9024 97.6612C100.848 99.6069 102.391 101.917 103.443 104.459C104.496 107.001 105.037 109.726 105.037 112.477V112.477Z" fill="#FFCC00"/>
<path d="M104.399 112.479C104.4 116.498 103.209 120.426 100.976 123.768C98.7443 127.11 95.5713 129.714 91.8587 131.253C88.1462 132.791 84.0608 133.193 80.1194 132.41C76.178 131.626 72.5575 129.691 69.716 126.849C66.8745 124.007 64.9395 120.387 64.1557 116.445C63.372 112.504 63.7748 108.419 65.3131 104.706C66.8514 100.993 69.4561 97.8205 72.7979 95.5885C76.1396 93.3565 80.0682 92.1656 84.0868 92.1665C89.4738 92.1673 94.6398 94.3077 98.4489 98.1169C102.258 101.926 104.398 107.092 104.399 112.479V112.479Z" fill="#D98F00"/>
<path d="M100.085 112.476C100.086 115.641 99.1476 118.734 97.3898 121.365C95.632 123.997 93.1334 126.048 90.21 127.259C87.2866 128.47 84.0696 128.787 80.966 128.17C77.8624 127.552 75.0115 126.029 72.774 123.791C70.5364 121.554 69.0126 118.703 68.3953 115.599C67.778 112.496 68.0949 109.279 69.306 106.355C70.517 103.432 72.5679 100.933 75.1991 99.1752C77.8303 97.4173 80.9237 96.4792 84.088 96.4795C88.3304 96.4805 92.3987 98.1662 95.3985 101.166C98.3983 104.166 100.084 108.234 100.085 112.476V112.476Z" fill="#FFCC00"/>
<path d="M76.0996 110.056H77.8665C77.9758 109.099 78.2352 108.166 78.6353 107.291C79.007 106.467 79.518 105.713 80.146 105.063C80.7662 104.427 81.511 103.926 82.3337 103.59C83.2329 103.23 84.1947 103.051 85.1633 103.065C86.86 102.98 88.5271 103.533 89.8368 104.615C91.0714 105.785 91.8091 107.384 91.8974 109.083H88.697C88.6289 108.14 88.2296 107.251 87.5698 106.574C86.914 105.977 86.0489 105.664 85.1632 105.703C84.6484 105.674 84.1339 105.765 83.6605 105.97C83.1871 106.174 82.7678 106.486 82.4358 106.88C81.7408 107.804 81.3198 108.904 81.2211 110.056H86.4946L86.1884 111.668H81.1439V113.41H85.8549L85.5736 115.023H81.2211C81.3074 116.152 81.7354 117.227 82.4484 118.107C82.7976 118.478 83.2239 118.767 83.6973 118.956C84.1707 119.144 84.6797 119.226 85.1883 119.196C87.3219 119.196 88.5595 117.959 88.9013 115.483H92.0767C91.9538 117.263 91.195 118.94 89.9389 120.207C88.6204 121.374 86.8965 121.976 85.1383 121.884C84.1666 121.9 83.2012 121.726 82.2963 121.372C81.4838 121.046 80.7437 120.563 80.1189 119.951C79.4926 119.326 78.9849 118.594 78.6208 117.788C78.226 116.911 77.9715 115.978 77.8666 115.023H76.0997V113.41H77.7895V111.668H76.0997L76.0996 110.056Z" fill="#D98F00"/>
<path d="M193.928 122.81H0V232.013H193.928V122.81Z" fill="#003C77"/>
<path d="M194.004 122.785H0.0761719V125.614H194.004V122.785Z" fill="#EAF4FE"/>
<path d="M8.17595 124.088H3.50586V124.358H8.17595V124.088Z" fill="#0450CF"/>
<path d="M14.1697 124.088H9.50195V124.358H14.1697V124.088Z" fill="#0450CF"/>
<path d="M20.1632 124.088H15.4961V124.358H20.1632V124.088Z" fill="#0450CF"/>
<path d="M26.158 124.088H21.4902V124.358H26.158V124.088Z" fill="#0450CF"/>
<path d="M32.1541 124.088H27.4863V124.358H32.1541V124.088Z" fill="#0450CF"/>
<path d="M38.1456 124.088H33.4785V124.358H38.1456V124.088Z" fill="#0450CF"/>
<path d="M44.1404 124.088H39.4727V124.358H44.1404V124.088Z" fill="#0450CF"/>
<path d="M50.1349 124.088H45.4648V124.358H50.1349V124.088Z" fill="#0450CF"/>
<path d="M2.31538 123.744H1.43555V124.702H2.31538V123.744Z" fill="#0450CF"/>
<path d="M194.004 125.304H0.0761719V128.686H194.004V125.304Z" fill="#0450CF"/>
<path d="M194.004 128.44H0.0761719V128.667H194.004V128.44Z" fill="#003E99"/>
<path d="M193.3 126.044H180.994V128.175H193.3V126.044Z" fill="#9AC7F7"/>
<path d="M179.403 126.892H178.924V127.329H179.403V126.892Z" fill="#003E99"/>
<path d="M177.919 126.887H171.441V127.327H177.919V126.887Z" fill="#9AC7F7"/>
<path d="M5.26063 126.545H4.38086V127.506H5.26063V126.545Z" fill="#003E99"/>
<path d="M2.31538 126.545H1.43555V127.506H2.31538V126.545Z" fill="#9AC7F7"/>
<path d="M7.19233 126.545H6.3125V127.506H7.19233V126.545Z" fill="#003E99"/>
<path d="M65.2829 130.902H24.7441V132.2H65.2829V130.902Z" fill="#6D5CBB"/>
<path d="M34.8008 135.679H28.0977V136.977H34.8008V135.679Z" fill="#FF876C"/>
<path d="M34.8008 140.455H28.0977V141.753H34.8008V140.455Z" fill="#FF876C"/>
<path d="M34.8008 145.231H28.0977V146.529H34.8008V145.231Z" fill="#FF876C"/>
<path d="M68.4823 135.679H47.9082V136.977H68.4823V135.679Z" fill="#7EC896"/>
<path d="M68.4823 140.455H47.9082V141.753H68.4823V140.455Z" fill="#7EC896"/>
<path d="M68.4823 145.231H47.9082V146.529H68.4823V145.231Z" fill="#7EC896"/>
<path d="M42.4227 135.679H37.6992V136.977H42.4227V135.679Z" fill="#C5E1F9"/>
<path d="M42.4227 140.455H37.6992V141.753H42.4227V140.455Z" fill="#C5E1F9"/>
<path d="M42.4227 145.231H37.6992V146.529H42.4227V145.231Z" fill="#C5E1F9"/>
<path d="M45.7187 135.679H44.4609V136.977H45.7187V135.679Z" fill="#D98F00"/>
<path d="M45.7187 140.455H44.4609V141.753H45.7187V140.455Z" fill="#D98F00"/>
<path d="M45.7187 145.231H44.4609V146.529H45.7187V145.231Z" fill="#D98F00"/>
<path d="M26.1542 135.679H24.8965V136.977H26.1542V135.679Z" fill="#D98F00"/>
<path d="M26.1542 140.455H24.8965V141.753H26.1542V140.455Z" fill="#D98F00"/>
<path d="M26.1542 145.231H24.8965V146.529H26.1542V145.231Z" fill="#D98F00"/>
<path d="M38.4594 154.78H28.0977V156.078H38.4594V154.78Z" fill="#FF876C"/>
<path d="M68.4828 154.78H52.7871V156.078H68.4828V154.78Z" fill="#7EC896"/>
<path d="M47.2975 154.78H41.3555V156.078H47.2975V154.78Z" fill="#C5E1F9"/>
<path d="M50.5926 154.78H49.3379V156.078H50.5926V154.78Z" fill="#D98F00"/>
<path d="M117.708 164.332H69.0918V165.63H117.708V164.332Z" fill="#6D5CBB"/>
<path d="M65.2821 164.332H41.9648V165.63H65.2821V164.332Z" fill="#C5E1F9"/>
<path d="M102.468 154.78H86.7695V156.078H102.468V154.78Z" fill="#7EC896"/>
<path d="M81.2834 154.78H72.9043V156.078H81.2834V154.78Z" fill="#C5E1F9"/>
<path d="M84.5793 154.78H83.3223V156.078H84.5793V154.78Z" fill="#D98F00"/>
<path d="M105.304 154.78H104.049V156.078H105.304V154.78Z" fill="#D98F00"/>
<path d="M26.1542 154.78H24.8965V156.078H26.1542V154.78Z" fill="#D98F00"/>
<path d="M38.4594 173.883H28.0977V175.181H38.4594V173.883Z" fill="#FF876C"/>
<path d="M26.1542 173.883H24.8965V175.181H26.1542V173.883Z" fill="#C5E1F9"/>
<path d="M41.6991 173.883H40.4414V175.181H41.6991V173.883Z" fill="#C5E1F9"/>
<path d="M30.5336 192.985H20.1719V194.283H30.5336V192.985Z" fill="#FF876C"/>
<path d="M18.2274 192.985H16.9727V194.283H18.2274V192.985Z" fill="#C5E1F9"/>
<path d="M33.7753 192.985H32.5176V194.283H33.7753V192.985Z" fill="#C5E1F9"/>
<path d="M34.8417 169.107H33.584V170.405H34.8417V169.107Z" fill="#D98F00"/>
<path d="M39.6791 159.556H33.584V160.854H39.6791V159.556Z" fill="#FF876C"/>
<path d="M65.7306 159.556H41.9648V160.854H65.7306V159.556Z" fill="#D98F00"/>
<path d="M103.532 135.679H82.9609V136.977H103.532V135.679Z" fill="#7EC896"/>
<path d="M103.532 140.455H82.9609V141.753H103.532V140.455Z" fill="#7EC896"/>
<path d="M103.532 145.231H82.9609V146.529H103.532V145.231Z" fill="#7EC896"/>
<path d="M140.567 135.679H104.6V136.977H140.567V135.679Z" fill="#7EC896"/>
<path d="M153.825 140.455H104.6V141.753H153.825V140.455Z" fill="#7EC896"/>
<path d="M162.663 145.231H104.6V146.529H162.663V145.231Z" fill="#7EC896"/>
<path d="M77.4759 135.679H72.75V136.977H77.4759V135.679Z" fill="#C5E1F9"/>
<path d="M77.4759 140.455H72.75V141.753H77.4759V140.455Z" fill="#C5E1F9"/>
<path d="M77.4759 145.231H72.75V146.529H77.4759V145.231Z" fill="#C5E1F9"/>
<path d="M80.7684 135.679H79.5137V136.977H80.7684V135.679Z" fill="#D98F00"/>
<path d="M80.7684 140.455H79.5137V141.753H80.7684V140.455Z" fill="#D98F00"/>
<path d="M80.7684 145.231H79.5137V146.529H80.7684V145.231Z" fill="#D98F00"/>
<path d="M146.549 135.679H145.291V136.977H146.549V135.679Z" fill="#D98F00"/>
<path d="M158.643 140.455H157.389V141.753H158.643V140.455Z" fill="#D98F00"/>
<path d="M166.872 145.231H165.615V146.529H166.872V145.231Z" fill="#D98F00"/>
<path d="M65.2829 150.006H24.7441V151.304H65.2829V150.006Z" fill="#7EB3FF"/>
<path d="M26.5747 203.14H19.8691V204.438H26.5747V203.14Z" fill="#FF876C"/>
<path d="M42.27 212.69H35.5645V213.988H42.27V212.69Z" fill="#FF876C"/>
<path d="M99.8768 212.69H55.375V213.988H99.8768V212.69Z" fill="#7EC896"/>
<path d="M90.4308 207.917H25.2031V209.215H90.4308V207.917Z" fill="#C5E1F9"/>
<path d="M49.8895 212.69H45.166V213.988H49.8895V212.69Z" fill="#C5E1F9"/>
<path d="M53.1854 212.69H51.9277V213.988H53.1854V212.69Z" fill="#D98F00"/>
<path d="M17.9237 203.14H16.666V204.438H17.9237V203.14Z" fill="#D98F00"/>
<path d="M29.3553 203.14H28.0977V204.438H29.3553V203.14Z" fill="#D98F00"/>
<path d="M47.6046 217.468H44.5547V218.766H47.6046V217.468Z" fill="#FF876C"/>
<path d="M42.615 217.468H41.3555V218.766H42.615V217.468Z" fill="#D98F00"/>
<path d="M50.3866 217.468H49.1289V218.766H50.3866V217.468Z" fill="#D98F00"/>
<path d="M56.1411 227.018H53.0918V228.316H56.1411V227.018Z" fill="#FF876C"/>
<path d="M51.1464 227.018H49.8887V228.316H51.1464V227.018Z" fill="#D98F00"/>
<path d="M58.9192 227.018H57.6621V228.316H58.9192V227.018Z" fill="#D98F00"/>
<path d="M33.6223 212.69H32.3652V213.988H33.6223V212.69Z" fill="#D98F00"/>
<path d="M150.93 222.244H50.041V223.542H150.93V222.244Z" fill="#C5E1F9"/>
<path d="M102.658 212.69H101.4V213.988H102.658V212.69Z" fill="#D98F00"/>
<path d="M80.5224 178.659H24.7441V179.957H80.5224V178.659Z" fill="#7EB3FF"/>
<path d="M107.343 183.434H24.7441V184.732H107.343V183.434Z" fill="#7EB3FF"/>
<path d="M52.7866 188.208H24.7441V189.507H52.7866V188.208Z" fill="#7EB3FF"/>
<path d="M5.54168 130.902H2.49414V132.2H5.54168V130.902Z" fill="#D98F00"/>
<path d="M5.54168 135.679H2.49414V136.977H5.54168V135.679Z" fill="#D98F00"/>
<path d="M5.54168 140.455H2.49414V141.753H5.54168V140.455Z" fill="#D98F00"/>
<path d="M5.54168 145.231H2.49414V146.529H5.54168V145.231Z" fill="#D98F00"/>
<path d="M5.54168 150.006H2.49414V151.304H5.54168V150.006Z" fill="#D98F00"/>
<path d="M5.54168 154.78H2.49414V156.078H5.54168V154.78Z" fill="#D98F00"/>
<path d="M5.54168 159.556H2.49414V160.854H5.54168V159.556Z" fill="#D98F00"/>
<path d="M5.54168 164.332H2.49414V165.63H5.54168V164.332Z" fill="#D98F00"/>
<path d="M5.54168 169.107H2.49414V170.405H5.54168V169.107Z" fill="#D98F00"/>
<path d="M5.54168 173.883H2.49414V175.181H5.54168V173.883Z" fill="#D98F00"/>
<path d="M5.54168 178.659H2.49414V179.957H5.54168V178.659Z" fill="#D98F00"/>
<path d="M5.54168 183.434H2.49414V184.732H5.54168V183.434Z" fill="#D98F00"/>
<path d="M5.54168 188.208H2.49414V189.507H5.54168V188.208Z" fill="#D98F00"/>
<path d="M5.54168 192.985H2.49414V194.283H5.54168V192.985Z" fill="#D98F00"/>
<path d="M5.54168 197.761H2.49414V199.059H5.54168V197.761Z" fill="#D98F00"/>
<path d="M5.54168 202.536H2.49414V203.834H5.54168V202.536Z" fill="#D98F00"/>
<path d="M5.54168 207.311H2.49414V208.609H5.54168V207.311Z" fill="#D98F00"/>
<path d="M56.8514 260.064L58.4923 240.039L60.1387 220.013L42.9681 230.461L25.8006 240.897L40.0698 244.428L32.4871 256.704L39.7322 261.181L47.3093 248.906L56.8514 260.064Z" fill="#4B82E9"/>
<path d="M58.4883 240.027L60.1348 220L59.5597 220.348L35.844 258.766L39.7245 261.152L47.3016 248.877L56.8502 260.063L58.4883 240.027Z" fill="#88B2F8"/>
<path d="M160.078 312.348V309.751C162.091 309.749 164.02 308.948 165.443 307.525C166.866 306.101 167.667 304.172 167.669 302.159V297.659H170.265V302.159C170.262 304.86 169.188 307.45 167.278 309.36C165.369 311.27 162.779 312.344 160.078 312.348V312.348Z" fill="#0058B0"/>
<path d="M179.525 312.916H176.929V294.515C176.929 293.631 176.578 292.784 175.953 292.159C175.328 291.534 174.48 291.182 173.597 291.182C172.713 291.182 171.865 291.534 171.24 292.159C170.615 292.784 170.264 293.631 170.264 294.515V299.936H167.668V294.515C167.668 292.943 168.293 291.435 169.404 290.323C170.516 289.211 172.024 288.586 173.597 288.586C175.169 288.586 176.677 289.211 177.789 290.323C178.901 291.435 179.525 292.943 179.525 294.515V312.916Z" fill="#0058B0"/>
<path d="M196.187 307.048H193.59V283.997C193.59 282.803 193.116 281.658 192.272 280.815C191.428 279.971 190.284 279.496 189.09 279.496C187.897 279.496 186.752 279.971 185.908 280.815C185.064 281.658 184.59 282.803 184.59 283.997V307.048H181.994V283.997C181.994 282.115 182.742 280.31 184.073 278.979C185.403 277.648 187.208 276.9 189.09 276.9C190.972 276.9 192.777 277.648 194.108 278.979C195.439 280.31 196.187 282.115 196.187 283.997V307.048Z" fill="#0058B0"/>
<path d="M180.791 319.234C179.769 319.233 178.789 318.826 178.067 318.103C177.345 317.38 176.94 316.4 176.939 315.378V305.222H179.536V315.378C179.535 315.543 179.567 315.707 179.63 315.86C179.693 316.013 179.785 316.152 179.902 316.269C180.019 316.386 180.157 316.479 180.31 316.542C180.463 316.606 180.626 316.638 180.792 316.638C180.957 316.638 181.121 316.606 181.273 316.542C181.426 316.479 181.565 316.386 181.681 316.269C181.798 316.152 181.891 316.013 181.953 315.86C182.016 315.707 182.048 315.543 182.048 315.378V305.222H184.644V315.378C184.644 316.4 184.237 317.38 183.515 318.103C182.792 318.826 181.813 319.233 180.791 319.234V319.234Z" fill="#0058B0"/>
<path d="M160.267 312.348C157.566 312.344 154.976 311.27 153.067 309.36C151.157 307.45 150.083 304.86 150.08 302.159V292.837H152.676V302.159C152.678 304.172 153.479 306.102 154.902 307.525C156.325 308.948 158.254 309.749 160.267 309.752V312.348Z" fill="#0058B0"/>
<path d="M152.682 293.742H150.086V284.419C150.084 282.407 149.283 280.477 147.861 279.054C146.438 277.631 144.508 276.83 142.496 276.828H139.92V274.231H142.496C145.196 274.235 147.786 275.309 149.695 277.219C151.605 279.129 152.679 281.719 152.682 284.419V293.742Z" fill="#0058B0"/>
<path d="M121.312 276.867H116.199C113.498 276.865 110.908 275.791 108.998 273.881C107.088 271.971 106.013 269.382 106.01 266.681V232.013H108.606V266.681C108.609 268.693 109.409 270.623 110.833 272.046C112.256 273.469 114.186 274.269 116.199 274.271H121.312V276.867Z" fill="#0058B0"/>
<path d="M203.656 326.145V323.548C205.67 323.546 207.6 322.745 209.023 321.321C210.447 319.897 211.247 317.967 211.249 315.954V252.438H213.845V315.954C213.842 318.655 212.768 321.245 210.858 323.156C208.948 325.066 206.358 326.141 203.656 326.145V326.145Z" fill="#0058B0"/>
<path d="M203.848 326.145C201.146 326.141 198.556 325.066 196.647 323.156C194.737 321.245 193.663 318.655 193.66 315.954V293.653H196.256V315.954C196.258 317.967 197.058 319.897 198.481 321.321C199.905 322.745 201.834 323.546 203.848 323.549V326.145Z" fill="#0058B0"/>
<path d="M215.203 275.248C253.199 275.248 284 244.925 284 207.521C284 170.117 253.199 139.795 215.203 139.795C177.208 139.795 146.406 170.117 146.406 207.521C146.406 244.925 177.208 275.248 215.203 275.248Z" fill="#9AC7F7"/>
<path fill-rule="evenodd" clip-rule="evenodd" d="M225.71 274.463C222.284 274.979 218.775 275.248 215.203 275.248C209.858 275.248 204.655 274.647 199.66 273.512L205.657 222.074L212.628 189.789L219.598 222.074L225.71 274.463Z" fill="#D98F00"/>
<path fill-rule="evenodd" clip-rule="evenodd" d="M221.782 274.942C219.617 275.144 217.423 275.248 215.204 275.248C211.224 275.248 207.323 274.915 203.527 274.276L207.771 222.074L212.628 189.789L217.486 222.074L221.782 274.942Z" fill="#FFCC00"/>
<path fill-rule="evenodd" clip-rule="evenodd" d="M215.344 275.247C215.297 275.247 215.25 275.248 215.203 275.248C213.423 275.248 211.658 275.181 209.912 275.05L211.188 222.074L212.627 189.789L214.066 222.074L215.344 275.247Z" fill="#D98F00"/>
<path fill-rule="evenodd" clip-rule="evenodd" d="M254.569 263.071C254.329 262.579 254.062 262.099 253.77 261.632C252.346 259.359 250.368 257.484 248.021 256.184C245.674 254.884 243.035 254.203 240.352 254.203C237.669 254.203 235.03 254.884 232.683 256.184C230.336 257.484 228.358 259.359 226.934 261.632C225.511 263.906 224.688 266.505 224.544 269.184C224.447 270.999 224.663 272.811 225.177 274.541C235.994 272.995 245.996 268.97 254.569 263.071Z" fill="#FFCC00"/>
<path fill-rule="evenodd" clip-rule="evenodd" d="M244.68 268.734C235.746 272.911 225.752 275.248 215.204 275.248C204.91 275.248 195.145 273.022 186.377 269.033C188.584 267.468 191.126 266.399 193.83 265.925C194.458 262.085 196.373 258.573 199.261 255.965C202.148 253.356 205.836 251.807 209.72 251.571C213.604 251.335 217.453 252.426 220.635 254.665C223.817 256.904 226.144 260.159 227.233 263.895C229.443 262.818 231.903 262.357 234.353 262.561C236.803 262.765 239.153 263.627 241.155 265.054C242.555 266.053 243.749 267.303 244.68 268.734Z" fill="#D98F00"/>
<path fill-rule="evenodd" clip-rule="evenodd" d="M197.696 273.035L193.316 262.187C192.317 262.187 191.442 261.502 190.621 260.859C189.643 260.093 188.742 259.388 187.8 259.976C187.765 255.961 186.322 252.084 183.723 249.023C181.123 245.962 177.533 243.909 173.576 243.223C169.619 242.536 165.547 243.26 162.068 245.267C161.119 245.815 160.231 246.449 159.412 247.157C168.616 259.691 182.072 269 197.696 273.035Z" fill="#FFCC00"/>
<path fill-rule="evenodd" clip-rule="evenodd" d="M254.9 262.842C255.088 261.849 254.991 260.822 254.619 259.88C254.36 259.226 253.976 258.629 253.486 258.123C252.997 257.617 252.413 257.213 251.768 256.933C251.122 256.653 250.428 256.503 249.724 256.491C249.021 256.48 248.322 256.607 247.667 256.866C246.682 257.255 245.834 257.928 245.231 258.799C244.628 259.67 244.297 260.701 244.28 261.76C244.263 262.819 244.56 263.86 245.134 264.75C245.708 265.641 246.533 266.341 247.505 266.763C247.714 266.853 247.928 266.93 248.145 266.993C250.483 265.736 252.737 264.349 254.9 262.842Z" fill="#D98F00"/>
<path fill-rule="evenodd" clip-rule="evenodd" d="M267.658 251.346C267.193 250.895 266.687 250.486 266.145 250.124C264.718 249.173 263.082 248.582 261.377 248.401C259.671 248.22 257.948 248.454 256.352 249.084C254.757 249.713 253.338 250.72 252.217 252.017C251.095 253.314 250.304 254.864 249.911 256.533C249.519 258.202 249.536 259.942 249.961 261.603C250.278 262.838 250.813 264.002 251.538 265.042C257.608 261.318 263.047 256.689 267.658 251.346Z" fill="#D98F00"/>
<path fill-rule="evenodd" clip-rule="evenodd" d="M202.89 274.166C203.435 272.826 203.718 271.387 203.718 269.927C203.717 266.944 202.531 264.084 200.421 261.975C198.312 259.866 195.451 258.682 192.468 258.682C190.243 258.682 188.068 259.342 186.218 260.578C184.368 261.814 182.926 263.571 182.075 265.627C181.931 265.975 181.805 266.328 181.697 266.686C188.186 270.255 195.323 272.82 202.89 274.166Z" fill="#FFCC00"/>
<path fill-rule="evenodd" clip-rule="evenodd" d="M182.637 267.194C183.389 265.659 183.784 263.966 183.783 262.244C183.782 259.261 182.596 256.401 180.487 254.292C178.377 252.183 175.516 250.998 172.533 250.999C170.308 250.999 168.133 251.658 166.283 252.895C165.843 253.189 165.425 253.513 165.033 253.864C170.11 259.188 176.052 263.704 182.637 267.194Z" fill="#D98F00"/>
<path d="M213.516 204.777C207.794 204.777 203.154 212.483 203.154 221.986C203.154 223.162 203.227 224.337 203.372 225.503H223.662C223.808 224.337 223.881 223.162 223.88 221.986C223.88 212.483 219.241 204.777 213.516 204.777Z" fill="#0058B0"/>
<path d="M210.821 204.777C206.587 204.777 203.154 212.483 203.154 221.986C203.154 223.192 203.21 224.37 203.314 225.503H218.323C218.427 224.37 218.483 223.192 218.483 221.986C218.483 212.483 215.052 204.777 210.821 204.777Z" fill="#0073E6"/>
<path d="M203.736 163.541C203.736 181.878 194.34 197.834 180.479 206.102C180.063 206.488 179.653 206.866 179.255 207.231C176.694 209.568 177.528 220.616 177.528 220.616H203.867V156.712C203.851 157.938 203.771 159.162 203.629 160.38C203.691 161.427 203.736 162.478 203.736 163.541Z" fill="#0073E6"/>
<path d="M203.867 184.939C199.632 195.64 191.764 204.507 181.643 209.986C181.187 210.374 180.738 210.753 180.302 211.118C178.591 212.542 178.261 217.194 178.264 220.616H203.867V184.939Z" fill="#EAF4FE"/>
<path d="M180.576 219.32C180.139 219.668 179.788 220.111 179.549 220.616H203.867V199.465C198.464 207.584 190.934 214.062 182.099 218.191C181.582 218.578 181.073 218.956 180.576 219.32Z" fill="#C5E1F9"/>
<path d="M223.302 163.541C223.302 181.878 232.696 197.833 246.558 206.101C246.972 206.488 247.382 206.865 247.781 207.231C250.341 209.568 249.507 220.616 249.507 220.616H223.168V156.711C223.185 157.937 223.265 159.162 223.406 160.38C223.346 161.427 223.302 162.478 223.302 163.541Z" fill="#0073E6"/>
<path d="M223.168 184.938C227.404 195.639 235.272 204.507 245.392 209.986C245.849 210.374 246.3 210.753 246.733 211.118C248.447 212.541 248.774 217.194 248.772 220.615H223.168V184.938Z" fill="#EAF4FE"/>
<path d="M246.462 219.319C246.897 219.669 247.248 220.112 247.489 220.615H223.168V199.464C228.572 207.582 236.102 214.06 244.936 218.191C245.453 218.578 245.964 218.956 246.462 219.319Z" fill="#C5E1F9"/>
<path d="M223.84 220.616V154.553C223.84 148.506 219.345 128.887 213.516 125.656C207.69 128.887 203.195 148.506 203.195 154.553V220.616H223.84Z" fill="#C5E1F9"/>
<path d="M213.517 125.655C213.459 125.687 213.403 125.732 213.342 125.77V220.616H223.841V154.553C223.841 148.506 219.346 128.887 213.517 125.655Z" fill="#EAF4FE"/>
<path d="M206.141 139.146H220.894C219.041 133.043 216.447 127.278 213.517 125.655C210.588 127.278 207.997 133.043 206.141 139.146Z" fill="#0073E6"/>
<path d="M213.342 139.146H220.895C219.042 133.043 216.448 127.278 213.517 125.655C213.459 125.687 213.403 125.732 213.342 125.77V139.146Z" fill="#0058B0"/>
<path d="M219.87 150.088C219.446 151.054 218.042 150.689 216.395 150.075C214.508 149.337 212.412 149.337 210.525 150.075C208.88 150.687 207.475 151.054 207.052 150.088C206.615 149.148 207.643 146.868 209.785 146.037C212.149 145.115 214.773 145.115 217.137 146.037C219.28 146.861 220.304 149.143 219.87 150.088Z" fill="#0073E6"/>
<path d="M192.468 204.777C189.964 204.777 187.936 212.483 187.936 221.986C187.936 223.191 187.968 224.37 188.029 225.503H196.908C196.971 224.37 197.002 223.191 197.002 221.986C197.002 212.483 194.973 204.777 192.468 204.777Z" fill="#0073E6"/>
<path d="M192.467 204.777C191.813 204.777 191.196 205.312 190.633 206.255C192.691 207.379 194.276 214.083 194.276 222.207C194.276 223.337 194.246 224.436 194.187 225.503H196.907C196.971 224.37 197.001 223.191 197.001 221.986C197.001 212.483 194.973 204.777 192.467 204.777Z" fill="#0058B0"/>
<path d="M234.566 204.777C232.064 204.777 230.033 212.483 230.033 221.986C230.033 223.191 230.065 224.37 230.127 225.503H239.006C239.069 224.37 239.099 223.191 239.099 221.986C239.099 212.483 237.071 204.777 234.566 204.777Z" fill="#0073E6"/>
<path d="M234.566 204.777C233.914 204.777 233.293 205.312 232.732 206.255C234.791 207.379 236.373 214.083 236.373 222.207C236.373 223.337 236.344 224.436 236.284 225.503H239.005C239.068 224.37 239.099 223.191 239.099 221.986C239.099 212.483 237.07 204.777 234.566 204.777Z" fill="#0058B0"/>
<path d="M148.697 249.492H150.521C150.634 249.492 150.743 249.537 150.823 249.618C150.904 249.698 150.949 249.807 150.949 249.921V251.313C150.949 251.369 150.938 251.425 150.916 251.477C150.895 251.529 150.863 251.576 150.823 251.616C150.784 251.656 150.736 251.687 150.684 251.709C150.633 251.73 150.577 251.741 150.521 251.741H148.7C148.586 251.741 148.477 251.696 148.397 251.616C148.317 251.535 148.271 251.426 148.271 251.313V249.918C148.271 249.805 148.316 249.697 148.396 249.617C148.476 249.537 148.584 249.492 148.697 249.492V249.492Z" fill="#0058B0"/>
<path d="M146.943 252.274C146.991 252.302 147.034 252.34 147.068 252.385C147.102 252.43 147.126 252.481 147.141 252.536C147.155 252.59 147.158 252.647 147.15 252.703C147.142 252.758 147.123 252.812 147.095 252.861L146.193 254.434C146.135 254.532 146.041 254.603 145.931 254.632C145.821 254.661 145.704 254.646 145.605 254.59L144.398 253.894C144.349 253.866 144.307 253.828 144.273 253.784C144.239 253.739 144.214 253.689 144.2 253.634C144.185 253.58 144.182 253.524 144.189 253.468C144.197 253.413 144.215 253.359 144.243 253.311L145.151 251.735C145.207 251.637 145.301 251.566 145.41 251.536C145.519 251.507 145.636 251.522 145.734 251.578L146.943 252.274Z" fill="#0058B0"/>
<path d="M145.77 256.223C145.818 256.195 145.872 256.177 145.928 256.169C145.984 256.162 146.041 256.166 146.095 256.18C146.15 256.195 146.201 256.22 146.245 256.254C146.29 256.289 146.327 256.332 146.355 256.381L147.265 257.957C147.293 258.006 147.311 258.059 147.319 258.115C147.326 258.17 147.323 258.227 147.309 258.281C147.294 258.335 147.269 258.386 147.236 258.431C147.202 258.475 147.159 258.513 147.111 258.541L145.901 259.235C145.853 259.264 145.799 259.282 145.743 259.289C145.688 259.297 145.631 259.293 145.577 259.278C145.523 259.264 145.472 259.238 145.427 259.204C145.383 259.17 145.346 259.127 145.318 259.078L144.408 257.505C144.352 257.406 144.337 257.288 144.367 257.178C144.397 257.068 144.469 256.975 144.568 256.918L145.77 256.223Z" fill="#0058B0"/>
<path d="M148.604 259.213C148.603 259.157 148.615 259.101 148.636 259.048C148.658 258.996 148.69 258.949 148.73 258.909C148.77 258.869 148.817 258.838 148.869 258.816C148.922 258.795 148.978 258.784 149.034 258.784H150.852C150.908 258.784 150.964 258.795 151.016 258.816C151.068 258.837 151.115 258.869 151.155 258.908C151.195 258.948 151.226 258.995 151.248 259.047C151.269 259.098 151.281 259.154 151.281 259.21V260.605C151.281 260.661 151.27 260.717 151.248 260.769C151.226 260.821 151.195 260.868 151.155 260.907C151.115 260.947 151.068 260.979 151.016 261C150.964 261.021 150.908 261.032 150.852 261.032H149.032C148.918 261.032 148.81 260.987 148.729 260.907C148.649 260.827 148.604 260.718 148.604 260.605V259.213Z" fill="#0058B0"/>
<path d="M152.611 258.251C152.562 258.223 152.519 258.185 152.485 258.141C152.451 258.096 152.426 258.046 152.411 257.992C152.397 257.937 152.393 257.881 152.4 257.825C152.408 257.77 152.426 257.716 152.454 257.667L153.364 256.094C153.42 255.995 153.512 255.923 153.622 255.892C153.731 255.861 153.848 255.875 153.947 255.93L155.154 256.632C155.251 256.689 155.322 256.782 155.352 256.891C155.381 257 155.366 257.116 155.311 257.215L154.399 258.788C154.371 258.837 154.335 258.88 154.29 258.915C154.246 258.949 154.196 258.975 154.142 258.989C154.088 259.004 154.031 259.008 153.976 259.001C153.92 258.993 153.866 258.975 153.818 258.946L152.611 258.251Z" fill="#0058B0"/>
<path d="M153.782 254.298C153.734 254.327 153.68 254.345 153.624 254.353C153.569 254.361 153.512 254.358 153.458 254.343C153.404 254.329 153.353 254.304 153.308 254.27C153.264 254.235 153.227 254.193 153.199 254.144L152.288 252.568C152.231 252.47 152.216 252.353 152.245 252.244C152.274 252.134 152.345 252.041 152.443 251.984L153.65 251.287C153.748 251.231 153.865 251.216 153.974 251.245C154.083 251.275 154.176 251.346 154.233 251.444L155.146 253.021C155.202 253.12 155.217 253.237 155.187 253.347C155.157 253.456 155.085 253.55 154.986 253.606L153.782 254.298Z" fill="#0058B0"/>
<path d="M149.777 251.097C148.953 251.097 148.148 251.341 147.463 251.798C146.778 252.256 146.244 252.906 145.929 253.667C145.613 254.427 145.531 255.265 145.691 256.072C145.851 256.88 146.248 257.622 146.83 258.205C147.412 258.788 148.154 259.184 148.961 259.345C149.769 259.507 150.606 259.424 151.367 259.11C152.128 258.795 152.779 258.262 153.237 257.577C153.695 256.893 153.94 256.088 153.94 255.264C153.94 254.717 153.833 254.175 153.624 253.67C153.415 253.165 153.108 252.705 152.721 252.318C152.335 251.931 151.876 251.624 151.37 251.415C150.865 251.205 150.324 251.097 149.777 251.097V251.097ZM149.777 257.252C149.383 257.252 148.998 257.135 148.671 256.917C148.343 256.698 148.088 256.387 147.937 256.024C147.787 255.66 147.747 255.26 147.824 254.874C147.901 254.488 148.091 254.133 148.369 253.855C148.647 253.577 149.002 253.387 149.388 253.311C149.774 253.234 150.174 253.274 150.538 253.425C150.901 253.575 151.212 253.831 151.43 254.158C151.649 254.486 151.765 254.871 151.765 255.264C151.765 255.791 151.555 256.297 151.182 256.669C150.809 257.042 150.304 257.251 149.777 257.252V257.252Z" fill="#0058B0"/>
<path d="M130.293 284.895C128.412 284.915 126.567 284.376 124.994 283.345C123.42 282.315 122.188 280.84 121.455 279.108C120.721 277.376 120.519 275.465 120.873 273.618C121.228 271.771 122.124 270.071 123.447 268.733C124.77 267.396 126.46 266.483 128.303 266.108C130.147 265.734 132.06 265.916 133.8 266.631C135.539 267.346 137.027 268.562 138.074 270.125C139.121 271.687 139.681 273.526 139.681 275.407C139.692 277.909 138.709 280.314 136.949 282.093C135.189 283.872 132.795 284.88 130.293 284.895V284.895ZM130.293 267.619C128.748 267.598 127.232 268.038 125.938 268.881C124.643 269.725 123.629 270.934 123.024 272.356C122.418 273.777 122.25 275.346 122.539 276.864C122.828 278.382 123.561 279.779 124.647 280.879C125.732 281.978 127.12 282.73 128.633 283.039C130.147 283.348 131.718 283.2 133.148 282.613C134.577 282.027 135.799 281.028 136.66 279.745C137.52 278.462 137.98 276.952 137.98 275.407C137.991 273.356 137.187 271.384 135.746 269.923C134.305 268.463 132.344 267.635 130.293 267.619V267.619Z" fill="#0058B0"/>
<path d="M130.293 284.656C127.781 284.656 125.887 280.68 125.887 275.406C125.887 270.134 127.781 266.158 130.293 266.158C132.808 266.158 134.702 270.134 134.702 275.406C134.702 280.68 132.808 284.656 130.293 284.656ZM130.293 267.859C129.19 267.859 127.588 270.8 127.588 275.406C127.588 280.016 129.19 282.954 130.293 282.954C131.398 282.954 133.001 280.016 133.001 275.406C133.001 270.8 131.398 267.859 130.293 267.859Z" fill="#0058B0"/>
<path d="M138.832 276.258H121.757C121.532 276.258 121.315 276.169 121.156 276.009C120.996 275.849 120.906 275.633 120.906 275.407C120.906 275.181 120.996 274.965 121.156 274.805C121.315 274.646 121.532 274.556 121.757 274.556H138.832C139.058 274.556 139.274 274.646 139.434 274.805C139.594 274.965 139.683 275.181 139.683 275.407C139.683 275.633 139.594 275.849 139.434 276.009C139.274 276.169 139.058 276.258 138.832 276.258V276.258Z" fill="#0058B0"/>
<path d="M130.292 272.509C127.814 272.51 125.348 272.179 122.957 271.526C122.74 271.466 122.555 271.322 122.444 271.127C122.332 270.931 122.303 270.699 122.362 270.481C122.421 270.264 122.565 270.079 122.76 269.967C122.956 269.855 123.188 269.825 123.406 269.884C127.914 271.117 132.67 271.117 137.178 269.884C137.396 269.825 137.628 269.854 137.824 269.966C138.02 270.078 138.164 270.263 138.223 270.481C138.283 270.698 138.253 270.931 138.141 271.127C138.029 271.323 137.844 271.466 137.627 271.526C135.237 272.179 132.77 272.51 130.292 272.509V272.509Z" fill="#0058B0"/>
<path d="M123.181 280.958C122.975 280.958 122.776 280.883 122.622 280.748C122.467 280.612 122.367 280.425 122.34 280.221C122.312 280.017 122.36 279.811 122.474 279.639C122.587 279.468 122.759 279.343 122.958 279.289C127.76 277.973 132.827 277.973 137.629 279.289C137.847 279.349 138.032 279.493 138.143 279.689C138.255 279.885 138.284 280.117 138.224 280.335C138.164 280.552 138.02 280.737 137.824 280.849C137.628 280.96 137.396 280.989 137.178 280.929C132.67 279.695 127.914 279.695 123.406 280.929C123.332 280.949 123.257 280.959 123.181 280.958V280.958Z" fill="#0058B0"/>
<path d="M132.024 262.168L131.303 262.191L129.494 262.247L128.775 262.269L128.355 265.732L129.603 265.692L131.412 265.635L132.665 265.596L132.024 262.168Z" fill="#0058B0"/>
<path d="M125.171 263.074L124.563 263.453L123.019 264.409L122.41 264.788L123.777 267.997L124.839 267.338L126.378 266.385L127.443 265.728L125.171 263.074Z" fill="#0058B0"/>
<path d="M119.693 267.286L119.353 267.918L118.496 269.516L118.156 270.146L120.948 272.248L121.536 271.147L122.393 269.551L122.983 268.449L119.693 267.286Z" fill="#0058B0"/>
<path d="M117.051 273.676L117.073 274.393L117.129 276.206L117.155 276.921L120.617 277.346L120.58 276.098L120.521 274.284L120.483 273.034L117.051 273.676Z" fill="#0058B0"/>
<path d="M117.961 280.527L118.339 281.138L119.294 282.679L119.672 283.289L122.887 281.923L122.228 280.86L121.269 279.323L120.613 278.259L117.961 280.527Z" fill="#0058B0"/>
<path d="M122.174 286.01L122.805 286.347L124.402 287.206L125.036 287.544L127.135 284.755L126.035 284.164L124.436 283.309L123.335 282.716L122.174 286.01Z" fill="#0058B0"/>
<path d="M128.563 288.649L129.278 288.623L131.094 288.57L131.806 288.545L132.232 285.079L130.981 285.12L129.17 285.178L127.922 285.218L128.563 288.649Z" fill="#0058B0"/>
<path d="M135.413 287.742L136.022 287.361L137.565 286.407L138.174 286.028L136.808 282.817L135.748 283.475L134.207 284.431L133.146 285.088L135.413 287.742Z" fill="#0058B0"/>
<path d="M140.895 283.529L141.234 282.894L142.089 281.297L142.429 280.665L139.642 278.563L139.049 279.666L138.194 281.262L137.602 282.363L140.895 283.529Z" fill="#0058B0"/>
<path d="M143.536 277.139L143.508 276.422L143.456 274.606L143.43 273.894L139.967 273.467L140.005 274.716L140.063 276.528L140.102 277.779L143.536 277.139Z" fill="#0058B0"/>
<path d="M142.627 270.286L142.246 269.675L141.291 268.131L140.916 267.524L137.701 268.892L138.36 269.954L139.318 271.493L139.973 272.555L142.627 270.286Z" fill="#0058B0"/>
<path d="M138.413 264.805L137.784 264.467L136.182 263.611L135.55 263.271L133.451 266.06L134.551 266.65L136.151 267.506L137.253 268.097L138.413 264.805Z" fill="#0058B0"/>
<path d="M130.294 286.418C128.112 286.439 125.972 285.812 124.148 284.615C122.323 283.418 120.895 281.705 120.045 279.695C119.195 277.685 118.962 275.468 119.374 273.325C119.787 271.182 120.827 269.21 122.363 267.66C123.899 266.109 125.86 265.05 127.999 264.616C130.138 264.182 132.357 264.394 134.376 265.224C136.394 266.055 138.12 267.466 139.335 269.279C140.549 271.092 141.198 273.225 141.198 275.407C141.209 278.313 140.067 281.104 138.023 283.168C135.979 285.232 133.199 286.401 130.294 286.418ZM130.294 267.688C128.762 267.666 127.259 268.1 125.975 268.935C124.691 269.77 123.684 270.968 123.083 272.377C122.482 273.786 122.313 275.341 122.598 276.846C122.884 278.351 123.61 279.737 124.686 280.828C125.761 281.918 127.136 282.665 128.637 282.972C130.138 283.278 131.696 283.132 133.113 282.551C134.53 281.97 135.742 280.98 136.595 279.708C137.449 278.436 137.904 276.939 137.904 275.407C137.916 273.375 137.122 271.421 135.695 269.974C134.268 268.527 132.326 267.705 130.294 267.688V267.688Z" fill="#0058B0"/>
<path d="M142.782 265.178H121.045V286.901H142.782V265.178Z" fill="#EAF4FE"/>
<path d="M142.338 288.549H117.305V263.53H142.338V288.549ZM120.601 285.252H139.042V266.824H120.601V285.252Z" fill="#0066CC"/>
<path fill-rule="evenodd" clip-rule="evenodd" d="M144.185 261.508H115.785V289.908H144.185V261.508Z" fill="#2A66C4"/>
<path fill-rule="evenodd" clip-rule="evenodd" d="M122.409 272.825C122.169 272.817 121.93 272.86 121.707 272.951C121.485 273.042 121.285 273.179 121.119 273.354C120.789 273.717 120.615 274.196 120.634 274.687C120.621 275.185 120.804 275.667 121.143 276.03C121.308 276.207 121.508 276.346 121.731 276.439C121.953 276.532 122.192 276.576 122.433 276.569C122.671 276.577 122.907 276.534 123.126 276.443C123.346 276.352 123.543 276.214 123.704 276.04C124.031 275.676 124.204 275.2 124.189 274.712C124.204 274.218 124.03 273.738 123.704 273.368C123.544 273.19 123.347 273.048 123.127 272.954C122.907 272.861 122.668 272.817 122.428 272.825" fill="white"/>
<path d="M132.475 278.978H129.978V283.391H126.904V268.228H132.475C136.073 268.228 137.872 269.982 137.872 273.489C137.872 275.261 137.412 276.621 136.49 277.572C135.569 278.522 134.231 278.991 132.475 278.978ZM129.978 276.345H132.456C133.988 276.345 134.75 275.375 134.75 273.489C134.818 272.774 134.619 272.059 134.192 271.482C133.965 271.258 133.692 271.087 133.393 270.979C133.093 270.871 132.773 270.829 132.456 270.856H129.978V276.345Z" fill="white"/>
</svg>
