<svg width="369" height="290" viewBox="0 0 369 290" fill="none" xmlns="http://www.w3.org/2000/svg">
<path d="M341.583 197.661V43.1653C341.579 41.2381 340.815 39.391 339.457 38.0284C338.1 36.6658 336.26 35.8987 334.34 35.895H84.4457C82.5256 35.8973 80.6848 36.6639 79.3269 38.0268C77.969 39.3897 77.2049 41.2376 77.2021 43.1653V197.661H341.583Z" fill="#0058B0"/>
<path d="M76.6777 197.951V220.293C76.68 222.36 77.4997 224.341 78.9564 225.801C80.4131 227.261 82.3878 228.08 84.4462 228.079H334.34C336.397 228.078 338.369 227.258 339.824 225.798C341.278 224.338 342.095 222.358 342.096 220.293V197.951H76.6777Z" fill="#C5E1F9"/>
<path d="M255.106 260.981C255.106 260.981 253.182 260.037 250.969 259.199C248.614 258.308 245.779 257.194 244.107 256.391C241.188 254.981 240.934 254.054 239.841 249.252C238.65 243.998 237.525 232.914 237.076 228.08H181.721C181.263 232.914 180.139 243.998 178.951 249.252C177.857 254.054 177.609 254.981 174.684 256.391C173.022 257.19 170.242 258.287 167.897 259.177C165.652 260.021 163.822 260.674 163.822 260.674C163.822 260.674 162.034 261.669 164.896 261.808H253.895C256.579 261.864 255.106 260.981 255.106 260.981Z" fill="#C5E1F9"/>
<path d="M237.658 233.921C237.41 231.62 237.202 229.557 237.071 228.08H181.706C181.572 229.557 181.369 231.62 181.124 233.921H237.658Z" fill="#9AC7F7"/>
<path d="M124.685 197.661H179.712L280.282 35.8948H225.271L124.685 197.661Z" fill="#1F62B2"/>
<path d="M195.433 197.661H215.517L316.085 35.8948H296.003L195.433 197.661Z" fill="#1F62B2"/>
<path d="M329.338 47.8452H89.5332V183.413H329.338V47.8452Z" fill="#C5E1F9"/>
<path d="M368.251 214.698L368.252 203.408L362.326 202.136C361.987 200.493 361.532 198.875 360.966 197.296L365.324 193.348L359.701 183.568L353.926 185.441C352.814 184.193 351.616 183.024 350.341 181.943L352.153 176.318L342.415 170.672L338.349 175.19C336.763 174.668 335.144 174.257 333.501 173.96L332.269 168.185H321.023L319.754 174.135C318.117 174.475 316.506 174.931 314.933 175.5L310.996 171.124L301.259 176.769L303.124 182.568C301.883 183.685 300.718 184.886 299.64 186.163L294.039 184.346L288.414 194.125L292.915 198.207C292.395 199.798 291.985 201.424 291.69 203.073L285.938 204.313L285.936 215.602L291.862 216.876C292.202 218.519 292.656 220.135 293.221 221.714L288.863 225.67L294.486 235.445L300.264 233.571C301.376 234.819 302.572 235.988 303.845 237.07L302.035 242.695L311.774 248.337L315.838 243.82C317.423 244.342 319.043 244.754 320.685 245.05L321.92 250.827H333.165L334.435 244.877C336.072 244.537 337.683 244.081 339.257 243.514L343.192 247.886L352.931 242.245L351.065 236.444C352.308 235.327 353.472 234.126 354.55 232.849L360.15 234.664L365.773 224.887L361.274 220.807C361.795 219.214 362.204 217.587 362.5 215.938L368.251 214.698ZM345.986 209.507C345.986 213.258 344.878 216.925 342.802 220.044C340.726 223.163 337.776 225.594 334.324 227.03C330.872 228.465 327.073 228.841 323.409 228.109C319.744 227.377 316.378 225.571 313.736 222.918C311.094 220.266 309.295 216.886 308.566 213.207C307.837 209.528 308.211 205.714 309.641 202.249C311.071 198.783 313.492 195.821 316.599 193.737C319.705 191.653 323.358 190.54 327.094 190.54C329.575 190.54 332.032 191.031 334.324 191.984C336.616 192.937 338.699 194.334 340.453 196.096C342.207 197.857 343.599 199.948 344.548 202.249C345.498 204.55 345.986 207.017 345.986 209.507H345.986Z" fill="#7EB3FF"/>
<path d="M353.101 209.787C353.102 214.788 351.625 219.677 348.857 223.836C346.089 227.995 342.156 231.236 337.553 233.15C332.951 235.064 327.886 235.564 323.001 234.588C318.115 233.612 313.627 231.204 310.105 227.667C306.582 224.13 304.184 219.624 303.213 214.718C302.242 209.813 302.741 204.728 304.648 200.108C306.556 195.488 309.785 191.539 313.927 188.761C318.07 185.984 322.94 184.502 327.922 184.503C331.229 184.503 334.504 185.157 337.559 186.428C340.614 187.698 343.39 189.561 345.728 191.909C348.066 194.256 349.921 197.044 351.186 200.111C352.451 203.179 353.102 206.467 353.101 209.787Z" fill="#FFCC00"/>
<path d="M352.334 209.789C352.335 214.638 350.904 219.378 348.221 223.411C345.538 227.443 341.724 230.586 337.262 232.442C332.8 234.298 327.89 234.784 323.153 233.838C318.416 232.892 314.064 230.557 310.649 227.128C307.234 223.699 304.908 219.331 303.966 214.575C303.024 209.819 303.508 204.889 305.357 200.409C307.206 195.929 310.337 192.101 314.353 189.407C318.369 186.714 323.091 185.277 327.921 185.278C334.396 185.279 340.605 187.862 345.183 192.458C349.761 197.055 352.333 203.288 352.334 209.789Z" fill="#D98F00"/>
<path d="M347.148 209.786C347.149 213.604 346.021 217.337 343.909 220.512C341.796 223.687 338.793 226.162 335.279 227.623C331.765 229.085 327.899 229.467 324.169 228.723C320.438 227.978 317.012 226.139 314.323 223.439C311.633 220.739 309.802 217.299 309.06 213.554C308.318 209.809 308.699 205.927 310.154 202.4C311.61 198.872 314.075 195.857 317.237 193.736C320.4 191.615 324.118 190.483 327.921 190.483C333.02 190.484 337.91 192.518 341.515 196.138C345.121 199.758 347.147 204.667 347.148 209.786Z" fill="#FFCC00"/>
<path d="M318.321 206.865H320.445C320.576 205.711 320.888 204.585 321.369 203.529C321.816 202.534 322.43 201.625 323.185 200.841C323.93 200.073 324.825 199.468 325.814 199.063C326.895 198.629 328.051 198.413 329.215 198.43C331.254 198.327 333.258 198.995 334.832 200.3C336.316 201.712 337.203 203.641 337.309 205.691H333.462C333.38 204.553 332.9 203.481 332.107 202.664C331.319 201.944 330.279 201.566 329.215 201.613C328.596 201.578 327.978 201.688 327.409 201.934C326.84 202.181 326.336 202.557 325.937 203.033C325.101 204.148 324.595 205.475 324.477 206.865H330.815L330.447 208.811H324.384V210.913H330.046L329.708 212.859H324.477C324.581 214.221 325.095 215.519 325.952 216.58C326.372 217.027 326.884 217.377 327.453 217.604C328.022 217.832 328.634 217.931 329.245 217.895C331.809 217.895 333.297 216.401 333.708 213.414H337.524C337.376 215.562 336.465 217.585 334.955 219.114C333.37 220.522 331.298 221.249 329.185 221.138C328.017 221.157 326.857 220.947 325.769 220.52C324.793 220.127 323.903 219.544 323.152 218.805C322.399 218.052 321.789 217.167 321.352 216.195C320.877 215.138 320.571 214.012 320.445 212.859H318.321V210.913H320.352V208.811H318.321L318.321 206.865Z" fill="#D98F00"/>
<path d="M329.523 65.9036H213.992V163.44H329.523V65.9036Z" fill="#EAF4FE"/>
<path d="M329.523 65.9036H213.992V75.13H329.523V65.9036Z" fill="#0058B0"/>
<path d="M329.523 68.5398H261.255V72.494H329.523V68.5398Z" fill="white"/>
<path d="M221.034 70.6287C221.034 70.9986 220.925 71.3602 220.72 71.6679C220.516 71.9755 220.225 72.2153 219.885 72.357C219.544 72.4987 219.17 72.5359 218.808 72.4639C218.447 72.3919 218.115 72.214 217.854 71.9526C217.593 71.6912 217.416 71.358 217.344 70.9953C217.272 70.6325 217.308 70.2565 217.449 69.9146C217.59 69.5727 217.828 69.2804 218.134 69.0746C218.44 68.8688 218.8 68.7587 219.169 68.7583C219.663 68.7581 220.137 68.9551 220.487 69.3058C220.837 69.6566 221.034 70.1324 221.034 70.6287Z" fill="#D98F00"/>
<path d="M226.933 70.6287C226.933 70.9983 226.824 71.3595 226.619 71.6667C226.415 71.974 226.124 72.2134 225.784 72.3549C225.444 72.4963 225.069 72.5334 224.708 72.4614C224.347 72.3894 224.016 72.2116 223.755 71.9504C223.495 71.6893 223.317 71.3565 223.245 70.9941C223.173 70.6317 223.209 70.256 223.35 69.9144C223.49 69.5728 223.729 69.2806 224.034 69.0749C224.34 68.8691 224.7 68.7589 225.068 68.7583C225.562 68.7584 226.036 68.9554 226.386 69.3061C226.736 69.6568 226.932 70.1325 226.933 70.6287Z" fill="#FFCC00"/>
<path d="M232.832 70.6287C232.832 70.9987 232.723 71.3604 232.518 71.6681C232.313 71.9757 232.022 72.2155 231.682 72.3572C231.342 72.4988 230.967 72.5359 230.605 72.4638C230.244 72.3916 229.912 72.2135 229.651 71.9519C229.391 71.6903 229.213 71.3569 229.141 70.9941C229.069 70.6312 229.106 70.255 229.247 69.9132C229.388 69.5713 229.627 69.2792 229.934 69.0736C230.24 68.868 230.6 68.7583 230.969 68.7583C231.463 68.7589 231.936 68.9561 232.285 69.3068C232.635 69.6574 232.831 70.1328 232.832 70.6287Z" fill="#7EB3FF"/>
<path d="M329.338 134.534H225.623V134.816H329.338V134.534Z" fill="#9AC7F7"/>
<path d="M329.338 117.655H225.623V117.94H329.338V117.655Z" fill="#9AC7F7"/>
<path d="M329.338 100.779H225.623V101.065H329.338V100.779Z" fill="#9AC7F7"/>
<path d="M329.523 99.5145L327.069 98.0002L312.173 103.903L297.827 93.7837L286.686 103.424L274.024 104.24L265.726 91.1443L256.054 86.6634L246.001 95.2038L236.237 94.8103L225.86 104.072L225.085 103.193L235.813 93.6138L245.595 94.0093L255.867 85.2791L266.529 90.2181L274.644 103.022L286.219 102.272L297.752 92.2901L312.329 102.578L327.146 96.7073L329.523 98.1964V99.5145Z" fill="#0561FC"/>
<path d="M222.471 134.087H217.023V135.262H222.471V134.087Z" fill="#9AC7F7"/>
<path d="M222.471 117.207H217.023V118.384H222.471V117.207Z" fill="#9AC7F7"/>
<path d="M222.471 100.332H217.023V101.51H222.471V100.332Z" fill="#9AC7F7"/>
<path d="M300.217 128.175L288.205 126.948L276.582 122.669L263.924 123.068L256.461 115.174L243.414 113.304L237.596 126.151L225.547 127.765L225.393 126.598L236.8 125.07L242.708 112.015L257.027 114.067L264.415 121.875L276.777 121.486L288.539 125.817L300.05 126.975L307.585 123.946L316.145 112.484L324.2 122.596L328.379 121.543L329.523 119.944V121.543L328.959 122.613L323.757 123.92L316.176 114.406L308.322 124.917L300.217 128.175Z" fill="#D98F00"/>
<path d="M247.382 123.247L237.099 114.908L225.306 119.872L224.851 118.789L237.291 113.549L247.337 121.696L264.828 105.693L277.68 110.934L290.921 119.658L296.262 109.442L302.426 104.798L310.075 92.2661L319.321 96.9477L326.921 104.957L329.55 104.368V105.445L326.512 106.233L318.54 97.8342L310.513 93.8055L303.219 105.675L297.073 110.304L291.364 121.359L277.136 111.971L265.076 107.065L247.382 123.247Z" fill="#7EB3FF"/>
<path d="M238.958 114.132C238.958 114.461 238.861 114.783 238.679 115.058C238.496 115.332 238.237 115.545 237.934 115.671C237.631 115.798 237.297 115.831 236.975 115.767C236.653 115.703 236.357 115.544 236.125 115.312C235.893 115.079 235.734 114.782 235.67 114.459C235.606 114.136 235.638 113.801 235.763 113.496C235.888 113.191 236.101 112.931 236.373 112.747C236.646 112.564 236.967 112.465 237.295 112.465C237.735 112.465 238.158 112.64 238.47 112.953C238.782 113.265 238.958 113.689 238.958 114.132Z" fill="#7EB3FF"/>
<path d="M248.925 122.275C248.925 122.604 248.827 122.926 248.645 123.2C248.462 123.474 248.203 123.688 247.9 123.814C247.596 123.939 247.263 123.972 246.941 123.908C246.619 123.844 246.323 123.685 246.091 123.452C245.859 123.219 245.701 122.922 245.637 122.599C245.573 122.275 245.606 121.94 245.732 121.636C245.858 121.332 246.07 121.071 246.343 120.888C246.616 120.705 246.937 120.608 247.265 120.608C247.483 120.607 247.699 120.65 247.901 120.734C248.102 120.818 248.286 120.941 248.44 121.095C248.594 121.25 248.716 121.434 248.799 121.637C248.883 121.839 248.925 122.056 248.925 122.275Z" fill="#7EB3FF"/>
<path d="M266.712 106.481C266.712 106.811 266.615 107.134 266.432 107.408C266.249 107.683 265.989 107.897 265.685 108.023C265.382 108.149 265.047 108.182 264.725 108.118C264.402 108.053 264.106 107.894 263.873 107.661C263.641 107.427 263.483 107.13 263.419 106.806C263.355 106.482 263.388 106.146 263.514 105.841C263.64 105.536 263.853 105.276 264.126 105.092C264.4 104.909 264.722 104.811 265.05 104.812C265.491 104.812 265.914 104.988 266.225 105.301C266.537 105.614 266.712 106.038 266.712 106.481Z" fill="#7EB3FF"/>
<path d="M279.22 111.285C279.22 111.615 279.122 111.937 278.94 112.211C278.757 112.485 278.498 112.699 278.194 112.825C277.891 112.951 277.557 112.984 277.235 112.92C276.913 112.856 276.617 112.697 276.385 112.464C276.153 112.231 275.995 111.934 275.93 111.611C275.866 111.287 275.899 110.952 276.025 110.647C276.15 110.343 276.363 110.082 276.636 109.899C276.909 109.716 277.23 109.618 277.558 109.618C277.776 109.617 277.992 109.66 278.194 109.744C278.396 109.828 278.579 109.95 278.734 110.105C278.888 110.26 279.01 110.444 279.094 110.647C279.177 110.849 279.22 111.066 279.22 111.285Z" fill="#7EB3FF"/>
<path d="M292.707 120.411C292.707 120.741 292.61 121.064 292.428 121.338C292.245 121.613 291.986 121.827 291.682 121.953C291.379 122.08 291.044 122.113 290.722 122.049C290.4 121.985 290.103 121.826 289.871 121.593C289.638 121.359 289.48 121.062 289.416 120.738C289.352 120.415 289.384 120.079 289.51 119.774C289.636 119.47 289.849 119.209 290.122 119.026C290.395 118.842 290.717 118.744 291.045 118.744C291.486 118.744 291.908 118.92 292.22 119.233C292.531 119.545 292.707 119.969 292.707 120.411Z" fill="#7EB3FF"/>
<path d="M298.179 109.912C298.179 110.242 298.082 110.565 297.899 110.84C297.716 111.115 297.457 111.329 297.153 111.456C296.849 111.582 296.514 111.615 296.192 111.551C295.869 111.486 295.573 111.327 295.34 111.093C295.107 110.86 294.949 110.562 294.885 110.238C294.821 109.914 294.855 109.578 294.981 109.273C295.107 108.968 295.321 108.707 295.594 108.524C295.868 108.341 296.19 108.244 296.519 108.244C296.737 108.244 296.953 108.287 297.155 108.371C297.356 108.455 297.539 108.578 297.693 108.733C297.848 108.888 297.97 109.071 298.053 109.274C298.136 109.476 298.179 109.693 298.179 109.912Z" fill="#7EB3FF"/>
<path d="M304.727 105.105C304.727 105.435 304.63 105.757 304.447 106.031C304.265 106.305 304.005 106.519 303.702 106.645C303.398 106.771 303.065 106.804 302.743 106.74C302.421 106.675 302.125 106.516 301.893 106.283C301.66 106.05 301.502 105.753 301.438 105.43C301.374 105.107 301.407 104.772 301.532 104.467C301.658 104.162 301.871 103.902 302.144 103.719C302.417 103.535 302.737 103.437 303.066 103.437C303.284 103.437 303.5 103.48 303.702 103.563C303.904 103.647 304.087 103.77 304.242 103.925C304.396 104.08 304.518 104.264 304.602 104.467C304.685 104.669 304.728 104.886 304.727 105.105Z" fill="#7EB3FF"/>
<path d="M311.762 93.2323C311.762 93.5618 311.665 93.8839 311.482 94.1578C311.3 94.4318 311.041 94.6453 310.738 94.7714C310.435 94.8975 310.101 94.9305 309.779 94.8663C309.457 94.802 309.162 94.6434 308.929 94.4104C308.697 94.1775 308.539 93.8807 308.475 93.5575C308.411 93.2344 308.444 92.8994 308.57 92.595C308.695 92.2906 308.908 92.0304 309.181 91.8473C309.454 91.6642 309.774 91.5665 310.102 91.5664C310.32 91.5663 310.536 91.6093 310.738 91.693C310.939 91.7766 311.122 91.8993 311.276 92.0541C311.43 92.2088 311.553 92.3924 311.636 92.5946C311.719 92.7968 311.762 93.0135 311.762 93.2323Z" fill="#7EB3FF"/>
<path d="M320.954 97.352C320.954 97.6818 320.857 98.0041 320.674 98.2784C320.492 98.5526 320.233 98.7664 319.929 98.8928C319.626 99.0192 319.292 99.0525 318.97 98.9884C318.648 98.9244 318.351 98.7659 318.119 98.533C317.886 98.3001 317.728 98.0033 317.663 97.6799C317.599 97.3566 317.631 97.0213 317.756 96.7164C317.881 96.4115 318.094 96.1507 318.366 95.9669C318.639 95.7832 318.96 95.6846 319.288 95.6838C319.73 95.6834 320.153 95.8589 320.465 96.1717C320.778 96.4845 320.953 96.9091 320.954 97.352Z" fill="#7EB3FF"/>
<path d="M328.375 105.597C328.375 105.927 328.277 106.25 328.094 106.524C327.911 106.798 327.652 107.012 327.348 107.138C327.044 107.264 326.71 107.297 326.388 107.232C326.065 107.167 325.769 107.008 325.537 106.775C325.305 106.541 325.147 106.244 325.083 105.92C325.02 105.596 325.053 105.261 325.179 104.956C325.305 104.651 325.518 104.391 325.792 104.208C326.065 104.025 326.387 103.928 326.715 103.928C326.934 103.927 327.15 103.97 327.352 104.054C327.554 104.138 327.737 104.261 327.891 104.416C328.046 104.571 328.168 104.755 328.251 104.958C328.334 105.161 328.376 105.378 328.375 105.597Z" fill="#7EB3FF"/>
<path d="M258.212 143.662H233.86V144.917H258.212V143.662Z" fill="#9AC7F7"/>
<path d="M258.212 147.348H233.86V148.6H258.212V147.348Z" fill="#9AC7F7"/>
<path d="M251.334 151.03H233.86V152.283H251.334V151.03Z" fill="#9AC7F7"/>
<path d="M291.9 143.662H267.547V144.917H291.9V143.662Z" fill="#9AC7F7"/>
<path d="M291.9 147.348H267.547V148.6H291.9V147.348Z" fill="#9AC7F7"/>
<path d="M285.02 151.03H267.547V152.283H285.02V151.03Z" fill="#9AC7F7"/>
<path d="M266.123 143.098H263.273V145.483H266.123V143.098Z" fill="#7EB3FF"/>
<path d="M231.465 143.098H228.615V145.483H231.465V143.098Z" fill="#7EB3FF"/>
<path d="M325.586 143.662H301.235V144.917H325.586V143.662Z" fill="#9AC7F7"/>
<path d="M325.586 147.348H301.235V148.6H325.586V147.348Z" fill="#9AC7F7"/>
<path d="M318.709 151.03H301.235V152.283H318.709V151.03Z" fill="#9AC7F7"/>
<path d="M299.812 143.098H296.963V145.483H299.812V143.098Z" fill="#0561FC"/>
<path d="M135.624 151.738H148.674C151.856 151.738 154.907 150.469 157.157 148.21C159.407 145.952 160.671 142.888 160.671 139.693C160.671 136.499 159.407 133.435 157.157 131.177C154.907 128.918 151.856 127.649 148.674 127.649H135.624V151.738Z" fill="#D98F00"/>
<path d="M148.675 151.738H13.9089V151.775L11.9036 151.738C8.96089 151.746 6.12331 152.838 3.9289 154.806C1.73448 156.774 0.335796 159.483 -0.00195312 162.418C-0.00195312 165.692 0.0187345 269.174 -0.00195312 274.533C0.336771 271.601 1.73677 268.897 3.93184 266.934C6.12691 264.971 8.96399 263.886 11.9036 263.886H14.6426V263.841H148.675C151.613 263.842 154.45 262.759 156.645 260.797C158.841 258.836 160.241 256.133 160.582 253.203C160.582 249.922 160.563 146.446 160.582 141.088C160.242 144.02 158.841 146.724 156.646 148.687C154.451 150.65 151.614 151.736 148.675 151.738Z" fill="white"/>
<path d="M143.423 209.015H15.5273V211.3H143.423V209.015Z" fill="#0066CC"/>
<path d="M21.7858 210.157C21.7858 211.955 21.2547 213.712 20.2598 215.207C19.2649 216.702 17.8509 217.867 16.1966 218.555C14.5422 219.243 12.7218 219.423 10.9655 219.072C9.20925 218.721 7.59601 217.856 6.32978 216.584C5.06356 215.313 4.20121 213.694 3.85179 211.93C3.50237 210.167 3.68156 208.34 4.36672 206.679C5.05187 205.018 6.21221 203.598 7.70102 202.599C9.18982 201.6 10.9402 201.067 12.7309 201.067C13.9201 201.066 15.0977 201.301 16.1965 201.758C17.2952 202.214 18.2936 202.884 19.1345 203.728C19.9754 204.572 20.6424 205.575 21.0973 206.678C21.5522 207.781 21.7862 208.963 21.7858 210.157Z" fill="white"/>
<path d="M12.7304 220.387C10.7148 220.386 8.74475 219.785 7.06927 218.66C5.39379 217.536 4.08816 215.937 3.31745 214.067C2.54674 212.198 2.34558 210.14 2.7394 208.156C3.13323 206.171 4.10434 204.349 5.52996 202.918C6.95557 201.488 8.77167 200.514 10.7486 200.119C12.7255 199.725 14.7745 199.928 16.6365 200.703C18.4984 201.478 20.0897 202.79 21.2092 204.472C22.3286 206.155 22.9259 208.133 22.9255 210.157C22.922 212.87 21.8466 215.471 19.9352 217.389C18.0238 219.307 15.4327 220.385 12.7304 220.387ZM12.7304 202.207C11.165 202.207 9.63476 202.673 8.33326 203.547C7.03175 204.42 6.01737 205.661 5.41837 207.113C4.81937 208.565 4.66264 210.163 4.968 211.704C5.27335 213.246 6.02709 214.662 7.13391 215.773C8.24072 216.884 9.65092 217.641 11.1862 217.948C12.7215 218.255 14.313 218.098 15.7594 217.497C17.2058 216.896 18.4422 215.878 19.3122 214.571C20.1823 213.265 20.647 211.729 20.6476 210.157C20.6461 208.049 19.8115 206.028 18.3271 204.538C16.8427 203.047 14.8298 202.209 12.7304 202.207Z" fill="#0066CC"/>
<path d="M129.305 210.157C129.305 211.955 128.774 213.712 127.779 215.207C126.784 216.702 125.37 217.867 123.716 218.555C122.061 219.243 120.241 219.423 118.484 219.072C116.728 218.721 115.115 217.855 113.849 216.584C112.582 215.312 111.72 213.693 111.371 211.929C111.022 210.166 111.201 208.338 111.887 206.677C112.572 205.016 113.733 203.597 115.222 202.598C116.711 201.599 118.462 201.066 120.252 201.067C121.441 201.067 122.619 201.302 123.717 201.759C124.816 202.215 125.814 202.885 126.654 203.729C127.495 204.573 128.162 205.575 128.617 206.678C129.072 207.781 129.306 208.963 129.305 210.157Z" fill="white"/>
<path d="M120.253 220.387C118.237 220.387 116.267 219.787 114.591 218.662C112.915 217.538 111.608 215.94 110.837 214.07C110.066 212.2 109.864 210.143 110.257 208.158C110.651 206.173 111.622 204.35 113.047 202.919C114.473 201.489 116.289 200.514 118.266 200.12C120.243 199.725 122.292 199.928 124.154 200.703C126.016 201.477 127.608 202.789 128.727 204.472C129.847 206.155 130.444 208.133 130.444 210.157C130.44 212.869 129.365 215.469 127.455 217.387C125.544 219.304 122.954 220.383 120.253 220.387ZM120.253 202.207C118.687 202.207 117.157 202.672 115.855 203.545C114.553 204.418 113.538 205.659 112.939 207.111C112.34 208.563 112.183 210.161 112.488 211.703C112.793 213.244 113.546 214.661 114.653 215.772C115.76 216.884 117.17 217.641 118.705 217.948C120.241 218.255 121.832 218.098 123.279 217.497C124.725 216.896 125.962 215.878 126.832 214.572C127.702 213.265 128.167 211.729 128.168 210.157C128.166 208.05 127.331 206.029 125.847 204.539C124.364 203.049 122.352 202.21 120.253 202.207Z" fill="#0066CC"/>
<path d="M94.6517 202.626H62.5762V217.685H94.6517V202.626Z" fill="white"/>
<path d="M95.7903 218.828H61.4375V201.483H95.7903V218.828ZM63.7134 216.542H93.5144V203.767H63.7134V216.542Z" fill="#0066CC"/>
<path d="M154.388 202.627H139.379V217.686H154.388V202.627Z" fill="#EAF4FE"/>
<path d="M154.082 218.828H136.796V201.484H154.082V218.828ZM139.072 216.542H151.806V203.767H139.072V216.542Z" fill="#0066CC"/>
<path fill-rule="evenodd" clip-rule="evenodd" d="M155.358 200.082H135.748V219.77H155.358V200.082Z" fill="#2A66C4"/>
<path fill-rule="evenodd" clip-rule="evenodd" d="M140.32 207.928C140.154 207.922 139.989 207.952 139.836 208.015C139.682 208.078 139.544 208.174 139.43 208.294C139.201 208.546 139.081 208.878 139.095 209.219C139.085 209.564 139.212 209.898 139.446 210.15C139.56 210.272 139.698 210.369 139.852 210.433C140.005 210.497 140.171 210.528 140.337 210.523C140.501 210.529 140.664 210.499 140.816 210.436C140.967 210.373 141.103 210.278 141.214 210.157C141.44 209.904 141.56 209.574 141.549 209.236C141.559 208.894 141.44 208.561 141.214 208.304C141.104 208.181 140.968 208.083 140.816 208.018C140.664 207.952 140.499 207.922 140.334 207.928" fill="white"/>
<path d="M147.272 212.194H145.548V215.253H143.425V204.741H147.272C149.756 204.741 150.998 205.957 150.998 208.388C150.998 209.616 150.68 210.56 150.044 211.219C149.408 211.878 148.484 212.203 147.272 212.194ZM145.548 210.368H147.258C148.316 210.368 148.842 209.696 148.842 208.388C148.889 207.893 148.752 207.397 148.457 206.997C148.3 206.842 148.112 206.723 147.905 206.648C147.698 206.573 147.477 206.544 147.258 206.563H145.548V210.368Z" fill="white"/>
<path d="M39.5064 197.234L26.6357 210.156L39.5069 223.078L52.3776 210.156L39.5064 197.234Z" fill="white"/>
<path d="M39.5067 224.694L25.0273 210.157L39.5067 195.618L53.9874 210.157L39.5067 224.694ZM28.2453 210.157L39.5067 221.463L50.7694 210.157L39.5067 198.847L28.2453 210.157Z" fill="#0066CC"/>
<path d="M64.594 233.419H38.1396V223.448H40.4173V231.135H64.594V233.419Z" fill="#0066CC"/>
<path d="M40.4173 196.865H38.1396V186.89H64.5941V189.176H40.4173V196.865Z" fill="#0066CC"/>
<path d="M122.054 233.419H95.6006V231.135H119.777V218.877H122.054V233.419Z" fill="#0066CC"/>
<path d="M122.054 201.435H119.777V189.176H95.6006V186.89H122.054V201.435Z" fill="#0066CC"/>
<path d="M94.6526 181.3H62.5771V196.363H94.6526V181.3Z" fill="white"/>
<path d="M95.7913 197.505H61.4385V180.159H95.7913V197.505ZM63.7144 195.22H93.5154V182.444H63.7144V195.22Z" fill="#0066CC"/>
<path d="M94.6526 223.947H62.5771V239.008H94.6526V223.947Z" fill="white"/>
<path d="M95.7913 240.15H61.4385V222.806H95.7913V240.15ZM63.7144 237.865H93.5154V225.092H63.7144V237.865Z" fill="#0066CC"/>
<path d="M17.9345 173.975H11.9036C8.964 173.975 6.1268 172.891 3.93166 170.928C1.73651 168.965 0.336554 166.26 -0.00195312 163.329C0.0187345 168.681 -0.00195312 272.163 -0.00195312 275.437C0.336551 278.368 1.73657 281.073 3.93177 283.035C6.12696 284.998 8.96416 286.082 11.9036 286.081H17.9345V173.975Z" fill="#FFCC00"/>
<path d="M158.134 122.255H190.122C190.663 122.255 191.181 122.039 191.564 121.655C191.946 121.271 192.161 120.751 192.161 120.208C192.161 119.665 191.946 119.145 191.564 118.761C191.181 118.377 190.663 118.161 190.122 118.161H158.134C157.594 118.161 157.075 118.377 156.693 118.761C156.31 119.145 156.096 119.665 156.096 120.208C156.096 120.751 156.31 121.271 156.693 121.655C157.075 122.039 157.594 122.255 158.134 122.255Z" fill="#0058B0"/>
<path d="M134.304 39.9846C134.309 29.383 138.507 19.2174 145.976 11.7228C153.445 4.22818 163.572 0.0180664 174.132 0.0180664C184.692 0.0180664 194.819 4.22818 202.288 11.7228C209.757 19.2174 213.955 29.383 213.96 39.9846C213.96 41.2909 212.998 59.7672 197.994 79.1684C193.603 85.0243 194.328 96.7903 194.368 96.7903H153.788C153.826 96.7903 154.636 85.0243 150.259 79.1684C135.239 59.7546 134.304 41.2909 134.304 39.9846Z" fill="#D98F00"/>
<path d="M161.353 91.575C161.079 86.5445 159.851 77.0616 156.746 72.9098C142.479 54.465 141.838 37.011 141.832 36.8388C141.834 27.6166 145.485 18.773 151.982 12.2535C158.479 5.73393 167.289 2.07252 176.475 2.07471C185.661 2.0769 194.47 5.7425 200.963 12.2651C207.457 18.7877 211.104 27.6331 211.102 36.8553C211.098 37.0066 210.441 54.4733 196.235 72.8438C193.082 77.0431 191.81 86.5319 191.513 91.575H161.353Z" fill="#FFCC00"/>
<path d="M205.501 43.1033C205.091 43.104 204.685 43.0236 204.306 42.8667C203.927 42.7098 203.583 42.4795 203.293 42.1889C203.002 41.8982 202.772 41.5531 202.615 41.173C202.457 40.793 202.376 40.3856 202.376 39.974C202.367 32.4559 199.387 25.2484 194.091 19.9335C188.794 14.6186 181.614 11.6305 174.125 11.625C173.299 11.625 172.507 11.2956 171.923 10.7091C171.339 10.1227 171.011 9.32728 171.011 8.49793C171.011 7.66858 171.339 6.87319 171.923 6.28675C172.507 5.70031 173.299 5.37085 174.125 5.37085C183.266 5.37857 192.029 9.02624 198.494 15.5135C204.958 22.0007 208.596 30.7977 208.607 39.974C208.608 40.8023 208.281 41.5969 207.699 42.1835C207.116 42.7702 206.326 43.101 205.501 43.1033Z" fill="#FFDD55"/>
<path d="M163.932 99.8844L158.764 58.67L160.846 58.0439L166.009 99.2584L163.932 99.8844Z" fill="#0058B0"/>
<path d="M184.211 99.8844L189.381 58.67L187.3 58.0439L182.132 99.2584L184.211 99.8844Z" fill="#0058B0"/>
<path d="M187.685 63.8315C186.252 63.8315 185.636 62.4296 185.182 61.4034C184.992 60.9842 184.599 60.0967 184.376 60.0967C184.149 60.0967 183.761 60.9842 183.573 61.4034C183.125 62.4296 182.501 63.8315 181.076 63.8315C179.644 63.8315 179.022 62.4296 178.572 61.4034C178.469 61.1753 178.306 60.8061 178.143 60.5159C177.412 61.8741 176.082 63.8315 174.466 63.8315C173.033 63.8315 172.413 62.4296 171.963 61.4034C171.773 60.9802 171.383 60.0967 171.159 60.0967C170.936 60.0967 170.542 60.9802 170.355 61.4034C169.901 62.4296 169.284 63.8315 167.856 63.8315C166.421 63.8315 165.8 62.4296 165.345 61.4034C165.159 60.9842 164.768 60.0967 164.542 60.0967C164.314 60.0967 163.924 60.9802 163.729 61.4034C163.284 62.4296 162.662 63.8315 161.23 63.8315V61.961C161.452 61.961 161.848 61.0778 162.035 60.6503C162.493 59.6279 163.115 58.2305 164.542 58.2305C165.973 58.2305 166.591 59.6279 167.043 60.6503C167.235 61.0778 167.63 61.961 167.856 61.961C168.071 61.961 168.47 61.0778 168.658 60.6503C169.106 59.6279 169.728 58.2305 171.159 58.2305C172.587 58.2305 173.209 59.6279 173.661 60.6503C173.846 61.0778 174.239 61.961 174.466 61.961C175.011 61.961 176.181 60.4475 176.92 58.7821C176.994 58.6179 177.113 58.4784 177.263 58.3806C177.414 58.2827 177.589 58.2306 177.769 58.2305C179.2 58.2305 179.818 59.6279 180.27 60.6503C180.456 61.0778 180.848 61.961 181.076 61.961C181.293 61.961 181.688 61.0778 181.875 60.6528C182.324 59.6279 182.951 58.2305 184.376 58.2305C185.81 58.2305 186.427 59.6279 186.875 60.6528C187.07 61.0778 187.462 61.961 187.685 61.961V63.8315Z" fill="#0058B0"/>
<path d="M194.41 97.0085V117.911C194.41 118.599 194.139 119.26 193.654 119.747C193.17 120.235 192.513 120.51 191.828 120.511H156.482C155.796 120.51 155.138 120.236 154.653 119.748C154.169 119.26 153.896 118.6 153.896 117.911V97.0085H194.41Z" fill="#0058B0"/>
<path d="M195.223 101.072H153.038C152.769 101.074 152.503 101.022 152.255 100.919C152.006 100.817 151.78 100.666 151.59 100.476C151.399 100.286 151.248 100.06 151.145 99.8105C151.042 99.5615 150.989 99.2944 150.989 99.0248C150.989 98.7551 151.042 98.4881 151.145 98.2391C151.248 97.99 151.399 97.7639 151.59 97.5736C151.78 97.3834 152.006 97.2327 152.255 97.1303C152.503 97.028 152.769 96.9759 153.038 96.9771H195.223C195.764 96.9771 196.283 97.1928 196.665 97.5768C197.048 97.9608 197.262 98.4817 197.262 99.0248C197.262 99.5679 197.048 100.089 196.665 100.473C196.283 100.857 195.764 101.072 195.223 101.072Z" fill="#0058B0"/>
<path d="M176.576 100.034H153.166C153.017 100.035 152.869 100.006 152.732 99.9491C152.594 99.8923 152.469 99.8087 152.363 99.7032C152.258 99.5977 152.174 99.4724 152.117 99.3343C152.06 99.1962 152.03 99.0482 152.03 98.8987C152.03 98.7492 152.06 98.6011 152.117 98.463C152.174 98.325 152.258 98.1996 152.363 98.0941C152.469 97.9886 152.594 97.905 152.732 97.8483C152.869 97.7915 153.017 97.7626 153.166 97.7632H176.576C176.876 97.7632 177.164 97.8828 177.376 98.0958C177.588 98.3087 177.707 98.5975 177.707 98.8987C177.707 99.1998 177.588 99.4886 177.376 99.7016C177.164 99.9145 176.876 100.034 176.576 100.034Z" fill="#4B96E1"/>
<path d="M195.223 107.906H153.038C152.769 107.908 152.503 107.855 152.254 107.753C152.005 107.651 151.779 107.5 151.588 107.309C151.398 107.119 151.247 106.893 151.144 106.643C151.04 106.394 150.987 106.127 150.987 105.857C150.987 105.587 151.04 105.32 151.144 105.07C151.247 104.821 151.398 104.595 151.588 104.404C151.779 104.214 152.005 104.063 152.254 103.961C152.503 103.858 152.769 103.806 153.038 103.807H195.223C195.764 103.807 196.284 104.023 196.666 104.407C197.049 104.792 197.264 105.313 197.264 105.857C197.264 106.4 197.049 106.922 196.666 107.306C196.284 107.69 195.764 107.906 195.223 107.906Z" fill="#0058B0"/>
<path d="M195.223 114.74H153.038C152.768 114.742 152.501 114.69 152.252 114.588C152.002 114.486 151.775 114.335 151.584 114.144C151.393 113.954 151.241 113.727 151.137 113.477C151.034 113.228 150.98 112.96 150.98 112.689C150.98 112.419 151.034 112.151 151.137 111.901C151.241 111.651 151.393 111.424 151.584 111.234C151.775 111.043 152.002 110.892 152.252 110.79C152.501 110.688 152.768 110.636 153.038 110.638H195.223C195.762 110.642 196.278 110.86 196.658 111.244C197.038 111.628 197.252 112.148 197.252 112.689C197.252 113.231 197.038 113.75 196.658 114.134C196.278 114.519 195.762 114.736 195.223 114.74Z" fill="#0058B0"/>
<path d="M176.576 106.551H153.166C153.017 106.551 152.869 106.522 152.731 106.466C152.593 106.409 152.468 106.325 152.362 106.22C152.257 106.114 152.173 105.989 152.116 105.85C152.059 105.712 152.029 105.564 152.029 105.414C152.029 105.265 152.059 105.117 152.116 104.979C152.173 104.84 152.257 104.715 152.362 104.609C152.468 104.504 152.593 104.42 152.731 104.363C152.869 104.307 153.017 104.278 153.166 104.278H176.576C176.876 104.278 177.164 104.398 177.376 104.611C177.588 104.824 177.707 105.113 177.707 105.414C177.707 105.716 177.588 106.005 177.376 106.218C177.164 106.431 176.876 106.551 176.576 106.551Z" fill="#4B96E1"/>
<path d="M176.576 113.458H153.166C152.866 113.458 152.577 113.338 152.365 113.125C152.153 112.912 152.033 112.622 152.033 112.321C152.033 112.019 152.153 111.73 152.365 111.516C152.577 111.303 152.866 111.183 153.166 111.183H176.576C176.877 111.183 177.165 111.303 177.377 111.516C177.59 111.73 177.709 112.019 177.709 112.321C177.709 112.622 177.59 112.912 177.377 113.125C177.165 113.338 176.877 113.458 176.576 113.458Z" fill="#4B96E1"/>
<path d="M179.404 101.089H159.414V103.173H179.404V101.089Z" fill="#1569BE"/>
<path d="M179.404 107.738H159.414V109.822H179.404V107.738Z" fill="#1569BE"/>
<path d="M179.404 114.383H159.414V116.47H179.404V114.383Z" fill="#1569BE"/>
<path d="M82.098 289.861H86.9476V281.251H82.098C81.9755 281.252 81.8545 281.277 81.7417 281.325C81.629 281.373 81.5267 281.442 81.4408 281.53C81.3549 281.618 81.2871 281.721 81.2411 281.835C81.1951 281.949 81.1719 282.071 81.1729 282.194V288.915C81.171 289.163 81.2673 289.402 81.4407 289.58C81.6141 289.757 81.8504 289.858 82.098 289.861Z" fill="#FF876C"/>
<path d="M82.1884 288.685H86.9471V285.027H82.1884C82.0673 285.031 81.9524 285.082 81.8684 285.169C81.7843 285.257 81.7376 285.374 81.7384 285.496V288.216C81.7371 288.276 81.7478 288.336 81.7697 288.393C81.7917 288.449 81.8245 288.501 81.8663 288.544C81.9081 288.588 81.9581 288.623 82.0134 288.647C82.0686 288.671 82.1281 288.684 82.1884 288.685Z" fill="#FFA38F"/>
<path d="M86.9476 283.265V281.251H82.098C81.9755 281.252 81.8545 281.277 81.7417 281.325C81.629 281.373 81.5267 281.442 81.4408 281.53C81.3549 281.618 81.2871 281.721 81.2411 281.835C81.1951 281.949 81.1719 282.071 81.1729 282.194V283.265H86.9476Z" fill="#E36E54"/>
<path d="M103.334 289.972H239.604C239.542 289.469 239.318 289 238.966 288.636C238.615 288.272 238.155 288.033 237.656 287.955H103.334V289.972Z" fill="#0058B0"/>
<path d="M103.334 283.157V287.955H237.656L237.68 287.945L237.656 287.941C238.211 287.838 238.714 287.543 239.075 287.107C239.437 286.671 239.635 286.121 239.635 285.554C239.635 284.987 239.437 284.437 239.075 284.001C238.714 283.565 238.211 283.27 237.656 283.167L237.68 283.161L237.656 283.157H103.334Z" fill="#0066CC"/>
<path d="M237.656 283.157C238.154 283.079 238.614 282.84 238.965 282.476C239.316 282.113 239.541 281.644 239.604 281.142H103.334V283.157H237.656Z" fill="#0058B0"/>
<path d="M239.605 281.135C239.543 281.638 239.319 282.108 238.968 282.472C238.616 282.837 238.156 283.077 237.657 283.157L237.682 283.161L237.657 283.167C238.213 283.27 238.715 283.565 239.077 284.001C239.438 284.437 239.636 284.986 239.636 285.554C239.636 286.121 239.438 286.67 239.077 287.106C238.715 287.542 238.213 287.838 237.657 287.94L237.682 287.944L237.657 287.955C238.156 288.034 238.615 288.273 238.967 288.637C239.318 289.001 239.542 289.47 239.605 289.973L257.655 285.552L239.605 281.135Z" fill="#C5E1F9"/>
<path d="M239.605 281.135C239.543 281.638 239.319 282.108 238.968 282.472C238.616 282.837 238.156 283.077 237.657 283.157L237.682 283.161L237.657 283.167C238.768 283.318 257.655 285.552 257.655 285.552L239.605 281.135Z" fill="#9AC7F7"/>
<path d="M103.335 281.198H86.7705V289.927H103.335V281.198Z" fill="#D98F00"/>
<path d="M103.335 285.241H86.7744V287.03H103.335V285.241Z" fill="#F4DA80"/>
<path d="M252.21 284.223C252.152 284.639 252.121 285.059 252.114 285.48C252.116 285.951 252.157 286.421 252.234 286.886L257.654 285.552L252.21 284.223Z" fill="#0450CF"/>
<path d="M101.597 289.137H99.2197V289.703H101.597V289.137Z" fill="#F4DA80"/>
<path d="M101.597 287.853H99.2197V288.416H101.597V287.853Z" fill="#F4DA80"/>
<path d="M101.597 286.568H99.2197V287.128H101.597V286.568Z" fill="#D98F00"/>
<path d="M101.597 285.287H99.2197V285.852H101.597V285.287Z" fill="#D98F00"/>
<path d="M101.597 284.002H99.2197V284.56H101.597V284.002Z" fill="#F4DA80"/>
<path d="M101.597 282.716H99.2197V283.275H101.597V282.716Z" fill="#F4DA80"/>
<path d="M101.597 281.436H99.2197V281.995H101.597V281.436Z" fill="#F4DA80"/>
<path d="M91.4506 289.137H89.0625V289.703H91.4506V289.137Z" fill="#F4DA80"/>
<path d="M91.4506 287.853H89.0625V288.416H91.4506V287.853Z" fill="#F4DA80"/>
<path d="M91.4506 286.568H89.0625V287.128H91.4506V286.568Z" fill="#D98F00"/>
<path d="M91.4506 285.286H89.0625V285.852H91.4506V285.286Z" fill="#D98F00"/>
<path d="M91.4506 284.002H89.0625V284.56H91.4506V284.002Z" fill="#F4DA80"/>
<path d="M91.4506 282.716H89.0625V283.275H91.4506V282.716Z" fill="#F4DA80"/>
<path d="M91.4506 281.435H89.0625V281.995H91.4506V281.435Z" fill="#F4DA80"/>
</svg>
