<svg width="46" height="46" viewBox="0 0 46 46" fill="none" xmlns="http://www.w3.org/2000/svg">
<path d="M34.5 0.71875H3.59375C2.83125 0.71875 2.09999 1.02165 1.56082 1.56082C1.02165 2.09999 0.71875 2.83125 0.71875 3.59375V35.6833C0.718747 35.8255 0.760921 35.9645 0.839936 36.0827C0.918951 36.2009 1.03126 36.293 1.16264 36.3474C1.29403 36.4018 1.43859 36.4159 1.57803 36.3881C1.71747 36.3603 1.84553 36.2918 1.94601 36.1911L10.0959 28.0312H34.5C35.2625 28.0312 35.9938 27.7283 36.5329 27.1892C37.0721 26.65 37.375 25.9187 37.375 25.1562V3.59375C37.375 2.83126 37.0721 2.1 36.5329 1.56083C35.9938 1.02167 35.2625 0.718761 34.5 0.71875V0.71875Z" stroke="#505050" stroke-linecap="round" stroke-linejoin="round"/>
<rect x="7" y="6" width="10" height="3" fill="#27D1D6"/>
<rect x="7" y="13" width="10" height="3" fill="#27D1D6"/>
<rect x="7" y="10" width="19" height="1" fill="#0073E6"/>
<rect x="7" y="17" width="19" height="1" fill="#0073E6"/>
<path d="M41.6875 16.5312H42.4062C43.1687 16.5312 43.9 16.8342 44.4392 17.3733C44.9783 17.9125 45.2812 18.6438 45.2812 19.4062V43.7292C45.2812 43.8723 45.2385 44.0123 45.1585 44.131C45.0784 44.2497 44.9648 44.3418 44.832 44.3955C44.6993 44.4492 44.5536 44.462 44.4135 44.4323C44.2735 44.4026 44.1455 44.3318 44.0459 44.2289L38.1105 38.0937H20.125C19.3625 38.0937 18.6312 37.7908 18.0921 37.2517C17.5529 36.7125 17.25 35.9812 17.25 35.2187V32.3437" stroke="#505050" stroke-linecap="round" stroke-linejoin="round"/>
</svg>
