<svg width="100" height="107" viewBox="0 0 100 107" fill="none" xmlns="http://www.w3.org/2000/svg">
<path d="M31.3346 34.0171H54.9361V43.7676H31.3346V34.0171Z" fill="#27D1D6"/>
<path d="M31.3346 46.7183H71.5338V49.9777H31.3346V46.7183Z" fill="#0073E6"/>
<path d="M8.5188 14.269H31.3346V17.5284H8.5188V14.269Z" fill="#0073E6"/>
<path d="M8.5188 19.7012H23.7293V22.9606H8.5188V19.7012Z" fill="#0073E6"/>
<path d="M8.5188 25.1338H16.1241V28.3932H8.5188V25.1338Z" fill="#0073E6"/>
<path d="M31.3346 53.2368H71.5338V56.4962H31.3346V53.2368Z" fill="#0073E6"/>
<path fill-rule="evenodd" clip-rule="evenodd" d="M29.9195 25.8448C17.3553 37.2633 16.4265 56.7051 27.845 69.2693C39.2635 81.8335 58.7053 82.7623 71.2695 71.3438C83.8337 59.9253 84.7625 40.4835 73.344 27.9193C61.9255 15.3551 42.4837 14.4263 29.9195 25.8448ZM25.9949 70.9507C13.6478 57.3647 14.6521 36.3418 28.2381 23.9947C41.8241 11.6476 62.847 12.6519 75.1941 26.2379C87.5412 39.8239 86.5369 60.8468 72.9509 73.1939C59.3649 85.541 38.342 84.5367 25.9949 70.9507Z" fill="#505050"/>
<path fill-rule="evenodd" clip-rule="evenodd" d="M69.8998 77.9854C70.4148 77.5257 71.2123 77.5638 71.6812 78.0705L87.372 95.0291C88.7081 96.4733 90.9811 96.5818 92.4488 95.2716C93.9165 93.9613 94.0231 91.7284 92.687 90.2843L76.9962 73.3257C76.5273 72.8189 76.5647 72.0354 77.0797 71.5757C77.5947 71.1159 78.3923 71.154 78.8611 71.6608L94.5519 88.6194C96.8258 91.077 96.6443 94.8768 94.1467 97.1066C91.649 99.3363 87.7809 99.1516 85.507 96.694L69.8162 79.7354C69.3474 79.2287 69.3848 78.4452 69.8998 77.9854Z" fill="#505050"/>
<path d="M83.8616 90.3633L88.2918 86.4083L91.5582 89.9378C92.6721 91.1415 92.5834 93.0029 91.3599 94.0951L-nan -nanL-nan -nanL91.3599 94.0951C90.1366 95.1871 88.2422 95.0968 87.1285 93.8933L83.8616 90.3633Z" fill="#0066CC"/>
<path fill-rule="evenodd" clip-rule="evenodd" d="M0.75 5.5843C0.75 3.68996 2.28566 2.1543 4.18 2.1543H55.2298C57.1241 2.1543 58.6598 3.68996 58.6598 5.5843V13.1825C58.6598 13.8728 58.1001 14.4325 57.4098 14.4325C56.7194 14.4325 56.1598 13.8728 56.1598 13.1825V5.5843C56.1598 5.07067 55.7434 4.6543 55.2298 4.6543H4.18C3.66638 4.6543 3.25 5.07067 3.25 5.5843V59.3201C3.25 59.8337 3.66638 60.2501 4.18 60.2501H16C16.6904 60.2501 17.25 60.8098 17.25 61.5001C17.25 62.1905 16.6904 62.7501 16 62.7501H4.18C2.28566 62.7501 0.75 61.2145 0.75 59.3201V5.5843Z" fill="#505050"/>
</svg>
