<svg width="178" height="56" viewBox="0 0 178 56" fill="none" xmlns="http://www.w3.org/2000/svg">
<path d="M69.4536 12.8418V5.13835H74.3702V6.49778H71.0169V8.7635H73.7584V10.1229H71.0169V12.8418H69.4536ZM75.3359 12.8418V7.1775H76.854V12.8418H75.3359ZM75.3359 6.45247V4.91178H76.854V6.45247H75.3359ZM79.7746 12.8418H78.2566V7.1775H79.7633V7.4947C80.2768 7.1926 80.7489 7.04156 81.1794 7.04156C81.9346 7.04156 82.4557 7.26435 82.7427 7.70994C83.0297 8.15554 83.1732 8.8428 83.1732 9.77175V12.8418H81.6552V9.81706C81.6552 9.33371 81.5985 8.97875 81.4852 8.75217C81.3719 8.51805 81.1454 8.40099 80.8055 8.40099C80.4959 8.40099 80.1975 8.45385 79.9106 8.55959L79.7746 8.6049V12.8418ZM88.8571 8.94476V11.3011C88.8722 11.4824 88.9024 11.6108 88.9478 11.6863C88.9931 11.7543 89.0875 11.8033 89.231 11.8336L89.1857 12.9777C88.8005 12.9777 88.4908 12.9513 88.2567 12.8984C88.0301 12.8456 87.7998 12.7398 87.5657 12.5812C87.0219 12.8456 86.4668 12.9777 85.9004 12.9777C84.7297 12.9777 84.1444 12.3584 84.1444 11.1199C84.1444 10.5157 84.3068 10.0889 84.6316 9.83972C84.9563 9.58294 85.4548 9.43189 86.1269 9.38658L87.3391 9.29595V8.94476C87.3391 8.71064 87.2862 8.55204 87.1805 8.46896C87.0748 8.37833 86.9048 8.33302 86.6707 8.33302L84.5409 8.42365L84.4956 7.37009C85.3037 7.15107 86.0703 7.04156 86.7953 7.04156C87.5279 7.04156 88.0528 7.1926 88.37 7.4947C88.6948 7.7968 88.8571 8.28015 88.8571 8.94476ZM86.3082 10.4401C85.8853 10.4779 85.6738 10.7045 85.6738 11.1199C85.6738 11.5352 85.8588 11.7429 86.2289 11.7429C86.5159 11.7429 86.8293 11.6976 87.1692 11.607L87.3391 11.5617V10.3495L86.3082 10.4401ZM91.8223 12.8418H90.3043V7.1775H91.811V7.4947C92.3245 7.1926 92.7966 7.04156 93.227 7.04156C93.9823 7.04156 94.5034 7.26435 94.7904 7.70994C95.0774 8.15554 95.2209 8.8428 95.2209 9.77175V12.8418H93.7028V9.81706C93.7028 9.33371 93.6462 8.97875 93.5329 8.75217C93.4196 8.51805 93.1931 8.40099 92.8532 8.40099C92.5436 8.40099 92.2452 8.45385 91.9582 8.55959L91.8223 8.6049V12.8418ZM96.3281 8.53693V7.1775H100.531V8.53693L98.152 11.4824H100.531V12.8418H96.3281V11.4824L98.7071 8.53693H96.3281ZM101.71 12.8418V7.1775H103.228V12.8418H101.71ZM101.71 6.45247V4.91178H103.228V6.45247H101.71ZM108.97 8.94476V11.3011C108.985 11.4824 109.015 11.6108 109.06 11.6863C109.106 11.7543 109.2 11.8033 109.344 11.8336L109.298 12.9777C108.913 12.9777 108.604 12.9513 108.369 12.8984C108.143 12.8456 107.912 12.7398 107.678 12.5812C107.135 12.8456 106.579 12.9777 106.013 12.9777C104.842 12.9777 104.257 12.3584 104.257 11.1199C104.257 10.5157 104.419 10.0889 104.744 9.83972C105.069 9.58294 105.567 9.43189 106.24 9.38658L107.452 9.29595V8.94476C107.452 8.71064 107.399 8.55204 107.293 8.46896C107.187 8.37833 107.018 8.33302 106.783 8.33302L104.654 8.42365L104.608 7.37009C105.416 7.15107 106.183 7.04156 106.908 7.04156C107.641 7.04156 108.165 7.1926 108.483 7.4947C108.807 7.7968 108.97 8.28015 108.97 8.94476ZM106.421 10.4401C105.998 10.4779 105.786 10.7045 105.786 11.1199C105.786 11.5352 105.972 11.7429 106.342 11.7429C106.629 11.7429 106.942 11.6976 107.282 11.607L107.452 11.5617V10.3495L106.421 10.4401ZM113.555 8.46896H112.162V10.7913C112.162 11.0179 112.165 11.1803 112.173 11.2785C112.188 11.3691 112.23 11.4484 112.297 11.5164C112.373 11.5843 112.486 11.6183 112.637 11.6183L113.498 11.5957L113.566 12.8078C113.06 12.9211 112.675 12.9777 112.411 12.9777C111.731 12.9777 111.267 12.8267 111.017 12.5246C110.768 12.2149 110.644 11.6485 110.644 10.8253V8.46896H109.975V7.1775H110.644V5.60283H112.162V7.1775H113.555V8.46896ZM114.849 7.82323C115.25 7.30211 115.918 7.04156 116.855 7.04156C117.791 7.04156 118.459 7.30211 118.86 7.82323C119.26 8.33679 119.46 9.06182 119.46 9.99832C119.46 11.9846 118.592 12.9777 116.855 12.9777C115.117 12.9777 114.249 11.9846 114.249 9.99832C114.249 9.06182 114.449 8.33679 114.849 7.82323ZM116.016 11.2785C116.175 11.5503 116.454 11.6863 116.855 11.6863C117.255 11.6863 117.53 11.5503 117.681 11.2785C117.84 11.0066 117.919 10.5799 117.919 9.99832C117.919 9.41679 117.84 8.99385 117.681 8.72952C117.53 8.46518 117.255 8.33302 116.855 8.33302C116.454 8.33302 116.175 8.46518 116.016 8.72952C115.865 8.99385 115.79 9.41679 115.79 9.99832C115.79 10.5799 115.865 11.0066 116.016 11.2785ZM74.1323 20.9118V28.8418H72.6256V28.6039C72.0969 28.8531 71.64 28.9777 71.2548 28.9777C70.4316 28.9777 69.8576 28.7398 69.5329 28.264C69.2081 27.7882 69.0457 27.0368 69.0457 26.0096C69.0457 24.975 69.2383 24.2235 69.6235 23.7553C70.0162 23.2795 70.6053 23.0416 71.3907 23.0416C71.6324 23.0416 71.9685 23.0793 72.399 23.1548L72.6142 23.2002V20.9118H74.1323ZM72.4556 27.4824L72.6142 27.4484V24.469C72.1988 24.3934 71.8288 24.3557 71.504 24.3557C70.8923 24.3557 70.5864 24.8994 70.5864 25.987C70.5864 26.5761 70.6544 26.9952 70.7903 27.2445C70.9263 27.4937 71.1491 27.6183 71.4587 27.6183C71.7759 27.6183 72.1082 27.573 72.4556 27.4824ZM79.8739 24.9448V27.3011C79.889 27.4824 79.9192 27.6108 79.9645 27.6863C80.0099 27.7543 80.1043 27.8033 80.2478 27.8336L80.2024 28.9777C79.8173 28.9777 79.5076 28.9513 79.2735 28.8984C79.0469 28.8456 78.8166 28.7398 78.5824 28.5812C78.0387 28.8456 77.4836 28.9777 76.9171 28.9777C75.7465 28.9777 75.1612 28.3584 75.1612 27.1199C75.1612 26.5157 75.3236 26.0889 75.6483 25.8397C75.9731 25.5829 76.4716 25.4319 77.1437 25.3866L78.3559 25.2959V24.9448C78.3559 24.7106 78.303 24.552 78.1973 24.469C78.0915 24.3783 77.9216 24.333 77.6875 24.333L75.5577 24.4236L75.5124 23.3701C76.3205 23.1511 77.0871 23.0416 77.8121 23.0416C78.5447 23.0416 79.0696 23.1926 79.3868 23.4947C79.7115 23.7968 79.8739 24.2801 79.8739 24.9448ZM77.325 26.4401C76.902 26.4779 76.6906 26.7045 76.6906 27.1199C76.6906 27.5352 76.8756 27.7429 77.2457 27.7429C77.5327 27.7429 77.8461 27.6976 78.1859 27.607L78.3559 27.5617V26.3495L77.325 26.4401ZM81.389 28.8418V20.9118H82.9071V28.8418H81.389ZM84.4424 28.8418V20.9118H85.9605V28.8418H84.4424ZM87.19 23.9365L87.7224 21.1384H89.3197L88.3568 23.9365H87.19ZM91.9356 26.2702C91.9356 27.1689 92.3925 27.6183 93.3063 27.6183C94.2202 27.6183 94.6771 27.1689 94.6771 26.2702V21.1384H96.2405V26.2362C96.2405 27.1803 95.995 27.8751 95.5041 28.3207C95.0207 28.7587 94.2882 28.9777 93.3063 28.9777C92.3245 28.9777 91.5882 28.7587 91.0973 28.3207C90.6139 27.8751 90.3722 27.1803 90.3722 26.2362V21.1384H91.9356V26.2702ZM99.1792 28.8418H97.6612V23.1775H99.1679V23.4947C99.6815 23.1926 100.154 23.0416 100.584 23.0416C101.339 23.0416 101.86 23.2644 102.147 23.7099C102.434 24.1555 102.578 24.8428 102.578 25.7717V28.8418H101.06V25.8171C101.06 25.3337 101.003 24.9787 100.89 24.7522C100.777 24.5181 100.55 24.401 100.21 24.401C99.9005 24.401 99.6022 24.4539 99.3152 24.5596L99.1792 24.6049V28.8418ZM103.923 28.8418V23.1775H105.441V28.8418H103.923ZM103.923 22.4525V20.9118H105.441V22.4525H103.923ZM107.149 23.8232C107.55 23.3021 108.218 23.0416 109.155 23.0416C110.091 23.0416 110.759 23.3021 111.16 23.8232C111.56 24.3368 111.76 25.0618 111.76 25.9983C111.76 27.9846 110.892 28.9777 109.155 28.9777C107.418 28.9777 106.549 27.9846 106.549 25.9983C106.549 25.0618 106.749 24.3368 107.149 23.8232ZM108.316 27.2785C108.475 27.5503 108.754 27.6863 109.155 27.6863C109.555 27.6863 109.831 27.5503 109.982 27.2785C110.14 27.0066 110.219 26.5799 110.219 25.9983C110.219 25.4168 110.14 24.9939 109.982 24.7295C109.831 24.4652 109.555 24.333 109.155 24.333C108.754 24.333 108.475 24.4652 108.316 24.7295C108.165 24.9939 108.09 25.4168 108.09 25.9983C108.09 26.5799 108.165 27.0066 108.316 27.2785ZM114.391 28.8418H112.873V23.1775H114.38V23.4947C114.893 23.1926 115.365 23.0416 115.796 23.0416C116.551 23.0416 117.072 23.2644 117.359 23.7099C117.646 24.1555 117.79 24.8428 117.79 25.7717V28.8418H116.272V25.8171C116.272 25.3337 116.215 24.9787 116.102 24.7522C115.988 24.5181 115.762 24.401 115.422 24.401C115.112 24.401 114.814 24.4539 114.527 24.5596L114.391 24.6049V28.8418ZM120.381 26.6554C120.388 27.0028 120.479 27.2558 120.653 27.4144C120.834 27.5654 121.091 27.641 121.423 27.641C122.125 27.641 122.752 27.6183 123.304 27.573L123.621 27.539L123.643 28.6605C122.775 28.872 121.989 28.9777 121.287 28.9777C120.434 28.9777 119.814 28.7512 119.429 28.298C119.044 27.8449 118.851 27.1085 118.851 26.0889C118.851 24.0574 119.686 23.0416 121.355 23.0416C123.001 23.0416 123.825 23.895 123.825 25.6018L123.711 26.6554H120.381ZM122.329 25.4999C122.329 25.0467 122.258 24.7333 122.114 24.5596C121.971 24.3783 121.718 24.2877 121.355 24.2877C121 24.2877 120.747 24.3821 120.596 24.5709C120.453 24.7522 120.377 25.0618 120.369 25.4999H122.329ZM128.645 26.6554C128.652 27.0028 128.743 27.2558 128.917 27.4144C129.098 27.5654 129.355 27.641 129.687 27.641C130.39 27.641 131.016 27.6183 131.568 27.573L131.885 27.539L131.908 28.6605C131.039 28.872 130.254 28.9777 129.551 28.9777C128.698 28.9777 128.078 28.7512 127.693 28.298C127.308 27.8449 127.116 27.1085 127.116 26.0889C127.116 24.0574 127.95 23.0416 129.619 23.0416C131.266 23.0416 132.089 23.895 132.089 25.6018L131.976 26.6554H128.645ZM130.593 25.4999C130.593 25.0467 130.522 24.7333 130.378 24.5596C130.235 24.3783 129.982 24.2877 129.619 24.2877C129.264 24.2877 129.011 24.3821 128.86 24.5709C128.717 24.7522 128.641 25.0618 128.634 25.4999H130.593ZM136.516 23.1775H138.034V28.8418H136.527V28.5246C135.983 28.8267 135.511 28.9777 135.111 28.9777C134.325 28.9777 133.797 28.7625 133.525 28.332C133.253 27.894 133.117 27.1652 133.117 26.1456V23.1775H134.635V26.1682C134.635 26.7271 134.68 27.1085 134.771 27.3124C134.862 27.5164 135.081 27.6183 135.428 27.6183C135.76 27.6183 136.074 27.5654 136.368 27.4597L136.516 27.4144V23.1775ZM139.435 28.8418V23.1775H140.942V23.7779C141.577 23.4003 142.181 23.1548 142.755 23.0416V24.5709C142.143 24.6993 141.618 24.8315 141.18 24.9674L140.953 25.0467V28.8418H139.435ZM143.956 23.8232C144.357 23.3021 145.025 23.0416 145.961 23.0416C146.898 23.0416 147.566 23.3021 147.967 23.8232C148.367 24.3368 148.567 25.0618 148.567 25.9983C148.567 27.9846 147.699 28.9777 145.961 28.9777C144.224 28.9777 143.356 27.9846 143.356 25.9983C143.356 25.0618 143.556 24.3368 143.956 23.8232ZM145.123 27.2785C145.282 27.5503 145.561 27.6863 145.961 27.6863C146.362 27.6863 146.637 27.5503 146.788 27.2785C146.947 27.0066 147.026 26.5799 147.026 25.9983C147.026 25.4168 146.947 24.9939 146.788 24.7295C146.637 24.4652 146.362 24.333 145.961 24.333C145.561 24.333 145.282 24.4652 145.123 24.7295C144.972 24.9939 144.897 25.4168 144.897 25.9983C144.897 26.5799 144.972 27.0066 145.123 27.2785ZM149.68 31.2208V23.1775H151.187V23.4834C151.677 23.1888 152.108 23.0416 152.478 23.0416C153.241 23.0416 153.803 23.2719 154.166 23.7326C154.528 24.1857 154.71 24.9599 154.71 26.055C154.71 27.1501 154.51 27.9129 154.109 28.3433C153.709 28.7663 153.052 28.9777 152.138 28.9777C151.889 28.9777 151.621 28.9551 151.334 28.9098L151.198 28.8871V31.2208H149.68ZM152.183 24.401C151.904 24.401 151.621 24.4576 151.334 24.5709L151.198 24.6276V27.5957C151.538 27.641 151.813 27.6636 152.025 27.6636C152.463 27.6636 152.761 27.5352 152.92 27.2785C153.086 27.0217 153.169 26.5836 153.169 25.9643C153.169 24.9221 152.84 24.401 152.183 24.401ZM157.088 26.6554C157.096 27.0028 157.186 27.2558 157.36 27.4144C157.541 27.5654 157.798 27.641 158.13 27.641C158.833 27.641 159.46 27.6183 160.011 27.573L160.328 27.539L160.351 28.6605C159.482 28.872 158.697 28.9777 157.994 28.9777C157.141 28.9777 156.522 28.7512 156.136 28.298C155.751 27.8449 155.559 27.1085 155.559 26.0889C155.559 24.0574 156.393 23.0416 158.062 23.0416C159.709 23.0416 160.532 23.895 160.532 25.6018L160.419 26.6554H157.088ZM159.037 25.4999C159.037 25.0467 158.965 24.7333 158.821 24.5596C158.678 24.3783 158.425 24.2877 158.062 24.2877C157.707 24.2877 157.454 24.3821 157.303 24.5709C157.16 24.7522 157.084 25.0618 157.077 25.4999H159.037ZM165.956 24.9448V27.3011C165.971 27.4824 166.001 27.6108 166.046 27.6863C166.092 27.7543 166.186 27.8033 166.33 27.8336L166.284 28.9777C165.899 28.9777 165.589 28.9513 165.355 28.8984C165.129 28.8456 164.898 28.7398 164.664 28.5812C164.12 28.8456 163.565 28.9777 162.999 28.9777C161.828 28.9777 161.243 28.3584 161.243 27.1199C161.243 26.5157 161.405 26.0889 161.73 25.8397C162.055 25.5829 162.553 25.4319 163.226 25.3866L164.438 25.2959V24.9448C164.438 24.7106 164.385 24.552 164.279 24.469C164.173 24.3783 164.003 24.333 163.769 24.333L161.64 24.4236L161.594 23.3701C162.402 23.1511 163.169 23.0416 163.894 23.0416C164.627 23.0416 165.151 23.1926 165.469 23.4947C165.793 23.7968 165.956 24.2801 165.956 24.9448ZM163.407 26.4401C162.984 26.4779 162.772 26.7045 162.772 27.1199C162.772 27.5352 162.957 27.7429 163.327 27.7429C163.614 27.7429 163.928 27.6976 164.268 27.607L164.438 27.5617V26.3495L163.407 26.4401Z" fill="#2B528D"/>
<path d="M69.4382 44.2305V37.5307H70.8324L73.398 43.5721H73.6013V37.5307H74.3371V44.2305H72.972L70.3676 38.1891H70.1837V44.2305H69.4382ZM79.0996 43.6302L79.3803 43.6012L79.3997 44.1724C78.6639 44.2757 78.0346 44.3273 77.5118 44.3273C76.8147 44.3273 76.3209 44.1272 76.0305 43.727C75.74 43.3204 75.5948 42.6911 75.5948 41.8391C75.5948 40.1416 76.2693 39.2928 77.6183 39.2928C78.2702 39.2928 78.7575 39.4767 79.0802 39.8446C79.4029 40.2061 79.5643 40.7773 79.5643 41.5583L79.5256 42.1102H76.3306C76.3306 42.6459 76.4274 43.0428 76.621 43.301C76.8147 43.5592 77.1503 43.6883 77.6279 43.6883C78.112 43.6883 78.6026 43.6689 79.0996 43.6302ZM78.8382 41.5293C78.8382 40.9355 78.7413 40.5159 78.5477 40.2706C78.3605 40.0254 78.0507 39.9027 77.6183 39.9027C77.1923 39.9027 76.8695 40.0318 76.6501 40.29C76.4371 40.5482 76.3274 40.9613 76.3209 41.5293H78.8382ZM80.174 39.3896H80.9679L82.1491 41.2872L83.3303 39.3896H84.1242L82.5848 41.7907L84.1145 44.2305H83.3206L82.1491 42.3425L80.9679 44.2305H80.174L81.694 41.81L80.174 39.3896ZM87.5432 40.0189H86.0038V42.3328C86.0038 42.8879 86.0426 43.2526 86.12 43.4269C86.2039 43.6012 86.3976 43.6883 86.7009 43.6883L87.5626 43.6302L87.611 44.2305C87.1786 44.3015 86.8494 44.337 86.6235 44.337C86.12 44.337 85.7715 44.2143 85.5779 43.9691C85.3842 43.7238 85.2874 43.2558 85.2874 42.5652V40.0189H84.6V39.3896H85.2874V37.9083H86.0038V39.3896H87.5432V40.0189ZM91.2086 41.4712V40.8031H93.0578V44.0949C92.2446 44.2498 91.5184 44.3273 90.8794 44.3273C89.9048 44.3273 89.2271 44.0465 88.8463 43.485C88.4719 42.9234 88.2847 42.0585 88.2847 40.8903C88.2847 39.7156 88.4719 38.8474 88.8463 38.2859C89.2271 37.7179 89.8983 37.4339 90.8601 37.4339C91.4603 37.4339 92.0832 37.4984 92.7286 37.6275L93.0578 37.6856L93.0288 38.3052C92.2284 38.1697 91.5346 38.1019 90.9472 38.1019C90.2049 38.1019 89.7047 38.3182 89.4465 38.7506C89.1884 39.1766 89.0593 39.8898 89.0593 40.8903C89.0593 41.8843 89.1884 42.5975 89.4465 43.0299C89.7047 43.4559 90.2017 43.6689 90.9375 43.6689C91.3893 43.6689 91.8508 43.6237 92.322 43.5334V41.4712H91.2086ZM97.6877 43.6302L97.9685 43.6012L97.9879 44.1724C97.2521 44.2757 96.6227 44.3273 96.0999 44.3273C95.4028 44.3273 94.9091 44.1272 94.6186 43.727C94.3282 43.3204 94.1829 42.6911 94.1829 41.8391C94.1829 40.1416 94.8574 39.2928 96.2064 39.2928C96.8583 39.2928 97.3456 39.4767 97.6684 39.8446C97.9911 40.2061 98.1525 40.7773 98.1525 41.5583L98.1137 42.1102H94.9188C94.9188 42.6459 95.0156 43.0428 95.2092 43.301C95.4028 43.5592 95.7385 43.6883 96.2161 43.6883C96.7002 43.6883 97.1907 43.6689 97.6877 43.6302ZM97.4263 41.5293C97.4263 40.9355 97.3295 40.5159 97.1359 40.2706C96.9487 40.0254 96.6389 39.9027 96.2064 39.9027C95.7804 39.9027 95.4577 40.0318 95.2383 40.29C95.0253 40.5482 94.9155 40.9613 94.9091 41.5293H97.4263ZM100.01 44.2305H99.2841V39.3896H100.001V39.7285C100.523 39.438 101.024 39.2928 101.501 39.2928C102.147 39.2928 102.579 39.4671 102.799 39.8156C103.024 40.1641 103.137 40.7838 103.137 41.6745V44.2305H102.421V41.6939C102.421 41.0226 102.353 40.5643 102.218 40.319C102.089 40.0673 101.808 39.9415 101.375 39.9415C101.169 39.9415 100.949 39.9737 100.717 40.0383C100.491 40.0964 100.317 40.1545 100.194 40.2126L100.01 40.2997V44.2305ZM107.776 43.6302L108.057 43.6012L108.076 44.1724C107.34 44.2757 106.711 44.3273 106.188 44.3273C105.491 44.3273 104.997 44.1272 104.707 43.727C104.416 43.3204 104.271 42.6911 104.271 41.8391C104.271 40.1416 104.946 39.2928 106.295 39.2928C106.947 39.2928 107.434 39.4767 107.757 39.8446C108.079 40.2061 108.241 40.7773 108.241 41.5583L108.202 42.1102H105.007C105.007 42.6459 105.104 43.0428 105.297 43.301C105.491 43.5592 105.827 43.6883 106.304 43.6883C106.788 43.6883 107.279 43.6689 107.776 43.6302ZM107.515 41.5293C107.515 40.9355 107.418 40.5159 107.224 40.2706C107.037 40.0254 106.727 39.9027 106.295 39.9027C105.869 39.9027 105.546 40.0318 105.327 40.29C105.114 40.5482 105.004 40.9613 104.997 41.5293H107.515ZM109.372 44.2305V39.3896H110.089V40.048C110.65 39.6607 111.241 39.4057 111.861 39.2831V40.0189C111.589 40.0706 111.305 40.1512 111.009 40.261C110.718 40.3707 110.495 40.4675 110.341 40.5514L110.098 40.6773V44.2305H109.372ZM116.137 40.8515V43.3301C116.156 43.5689 116.344 43.7109 116.699 43.7561L116.67 44.3273C116.16 44.3273 115.776 44.1982 115.517 43.94C114.936 44.1982 114.356 44.3273 113.775 44.3273C113.329 44.3273 112.99 44.2014 112.758 43.9497C112.526 43.698 112.41 43.3365 112.41 42.8653C112.41 42.3942 112.529 42.0489 112.768 41.8294C113.007 41.6035 113.381 41.4647 113.891 41.4131L115.411 41.2679V40.8515C115.411 40.5224 115.34 40.2868 115.198 40.1448C115.056 40.0028 114.862 39.9318 114.617 39.9318C114.101 39.9318 113.565 39.9641 113.01 40.0286L112.71 40.0576L112.681 39.5058C113.391 39.3638 114.02 39.2928 114.569 39.2928C115.117 39.2928 115.514 39.4186 115.759 39.6704C116.011 39.9221 116.137 40.3158 116.137 40.8515ZM113.155 42.8266C113.155 43.4204 113.4 43.7173 113.891 43.7173C114.33 43.7173 114.762 43.6431 115.188 43.4947L115.411 43.4172V41.8197L113.978 41.9553C113.688 41.9811 113.478 42.065 113.349 42.207C113.22 42.349 113.155 42.5555 113.155 42.8266ZM120.077 40.0189H118.538V42.3328C118.538 42.8879 118.577 43.2526 118.654 43.4269C118.738 43.6012 118.932 43.6883 119.235 43.6883L120.097 43.6302L120.145 44.2305C119.713 44.3015 119.383 44.337 119.157 44.337C118.654 44.337 118.306 44.2143 118.112 43.9691C117.918 43.7238 117.821 43.2558 117.821 42.5652V40.0189H117.134V39.3896H117.821V37.9083H118.538V39.3896H120.077V40.0189ZM120.964 44.2305V39.3896H121.69V44.2305H120.964ZM120.964 38.2956V37.4533H121.69V38.2956H120.964ZM122.869 41.8004C122.869 40.9161 123.027 40.2771 123.343 39.8834C123.66 39.4896 124.192 39.2928 124.941 39.2928C125.696 39.2928 126.228 39.4896 126.538 39.8834C126.854 40.2771 127.013 40.9161 127.013 41.8004C127.013 42.6846 126.864 43.3268 126.567 43.727C126.27 44.1272 125.728 44.3273 124.941 44.3273C124.153 44.3273 123.611 44.1272 123.314 43.727C123.017 43.3268 122.869 42.6846 122.869 41.8004ZM123.614 41.7907C123.614 42.4942 123.698 42.988 123.866 43.272C124.04 43.556 124.399 43.698 124.941 43.698C125.489 43.698 125.848 43.5592 126.015 43.2817C126.183 42.9977 126.267 42.5007 126.267 41.7907C126.267 41.0807 126.174 40.5934 125.986 40.3287C125.799 40.0576 125.451 39.9221 124.941 39.9221C124.437 39.9221 124.089 40.0576 123.895 40.3287C123.708 40.5934 123.614 41.0807 123.614 41.7907ZM128.923 44.2305H128.197V39.3896H128.913V39.7285C129.436 39.438 129.936 39.2928 130.414 39.2928C131.059 39.2928 131.492 39.4671 131.711 39.8156C131.937 40.1641 132.05 40.7838 132.05 41.6745V44.2305H131.334V41.6939C131.334 41.0226 131.266 40.5643 131.13 40.319C131.001 40.0673 130.721 39.9415 130.288 39.9415C130.082 39.9415 129.862 39.9737 129.63 40.0383C129.404 40.0964 129.23 40.1545 129.107 40.2126L128.923 40.2997V44.2305ZM133.523 44.2305V37.5307H137.599V38.1891H134.268V40.503H137.018V41.1517H134.268V43.5721H137.599V44.2305H133.523ZM139.571 42.2167C139.571 43.1848 140.094 43.6689 141.14 43.6689C141.682 43.6689 142.089 43.556 142.36 43.3301C142.637 43.0977 142.776 42.7266 142.776 42.2167V37.5307H143.512V42.1973C143.512 42.946 143.312 43.4882 142.912 43.8238C142.518 44.1595 141.934 44.3273 141.159 44.3273C140.385 44.3273 139.801 44.1595 139.407 43.8238C139.02 43.4882 138.826 42.946 138.826 42.1973V37.5307H139.571V42.2167Z" fill="#373567"/>
<path d="M59.0462 4.27344H0V44.0708H59.0462V4.27344Z" fill="#164194"/>
<path d="M28.2521 12.9438L29.5013 12.0178L30.7505 12.9438L30.2717 11.4495L31.5417 10.5446H29.9802L29.5013 9.0293L29.0225 10.5446H27.4609L28.731 11.4495L28.2521 12.9438Z" fill="white"/>
<path d="M21.8205 14.6918L23.0489 13.7658L24.2981 14.6918L23.84 13.1976L25.0892 12.2926H23.5277L23.0489 10.7773L22.57 12.2926H21.0293L22.2785 13.1976L21.8205 14.6918Z" fill="white"/>
<path d="M18.3431 15.5547L17.8643 17.07H16.3027L17.5728 17.996L17.0939 19.4692L18.3431 18.5642L19.5923 19.4692L19.1135 17.996L20.3835 17.07H18.822L18.3431 15.5547Z" fill="white"/>
<path d="M16.6146 25.0666L17.8638 25.9716L17.3849 24.4984L18.655 23.5724H17.0935L16.6146 22.0781L16.1357 23.5724H14.5742L15.8443 24.4984L15.3654 25.9716L16.6146 25.0666Z" fill="white"/>
<path d="M18.822 30.0958L18.3431 28.6016L17.8643 30.0958H16.3027L17.5728 31.0218L17.0939 32.5161L18.3431 31.59L19.5923 32.5161L19.1135 31.0218L20.3835 30.0958H18.822Z" fill="white"/>
<path d="M23.5485 34.8731L23.0697 33.3789L22.5908 34.8942L21.0293 34.8731L22.2993 35.7992L21.8205 37.2934L23.0697 36.3674L24.3189 37.2934L23.84 35.7992L25.1101 34.8731H23.5485Z" fill="white"/>
<path d="M29.9802 36.6208L29.5013 35.1055L29.0225 36.6208H27.4609L28.731 37.5257L28.2521 39.02L29.5013 38.0939L30.7505 39.02L30.2717 37.5257L31.5417 36.6208H29.9802Z" fill="white"/>
<path d="M36.4144 34.8731L35.9564 33.3789L35.4775 34.8942L33.916 34.8731L35.1652 35.7992L34.7072 37.2934L35.9564 36.3674L37.1848 37.2934L36.7267 35.7992L37.976 34.8731H36.4144Z" fill="white"/>
<path d="M41.1618 30.0958L40.683 28.6016L40.2041 30.0958H38.6426L39.9126 31.0218L39.4337 32.5161L40.683 31.59L41.9114 32.5161L41.4533 31.0218L42.7025 30.0958H41.1618Z" fill="white"/>
<path d="M44.4304 23.5509H42.8689L42.39 22.0566L41.9111 23.5509H40.3496L41.6196 24.4769L41.1408 25.9711L42.39 25.0451L43.6392 25.9711L43.1603 24.4769L44.4304 23.5509Z" fill="white"/>
<path d="M39.4337 19.4477L40.683 18.5427L41.9114 19.4477L41.4533 17.9745L42.7025 17.0485H41.1618L40.683 15.5332L40.2041 17.0485H38.6426L39.9126 17.9745L39.4337 19.4477Z" fill="white"/>
<path d="M35.9571 10.7773L35.4782 12.2926H33.9375L35.1867 13.2186L34.7287 14.6918L35.9571 13.7658L37.2063 14.6918L36.7274 13.2186L37.9975 12.2926H36.4359L35.9571 10.7773Z" fill="white"/>
</svg>
