<svg width="309" height="247" viewBox="0 0 309 247" fill="none" xmlns="http://www.w3.org/2000/svg">
<g clip-path="url(#clip0_4477_209200)">
<path d="M307.778 177.353V38.6838C307.778 36.9927 307.144 35.3016 305.876 34.0333C304.608 32.765 302.917 32.1309 301.225 32.1309H76.0998C74.4087 32.1309 72.7177 32.765 71.4493 34.0333C70.181 35.3016 69.5469 36.9927 69.5469 38.6838V177.353H307.778Z" fill="#0058B0"/>
<path d="M69.123 177.775V197.857C69.123 199.759 69.9686 201.451 71.2369 202.719C72.5052 203.987 74.4077 204.833 76.0988 204.833H301.224C303.127 204.833 304.818 204.199 306.086 202.719C307.355 201.451 308.2 199.548 308.2 197.857V177.775H69.123Z" fill="#C5E1F9"/>
<path d="M229.988 234.215C229.988 234.215 228.297 233.37 226.183 232.524C224.069 231.678 221.532 230.622 220.053 229.987C217.516 228.719 217.093 227.874 216.248 223.646C215.191 218.995 214.134 209.06 213.711 204.621H163.824C163.401 209.06 162.345 218.995 161.288 223.646C160.231 227.874 160.019 228.719 157.483 229.987C156.003 230.622 153.466 231.678 151.352 232.524C149.239 233.37 147.759 233.792 147.759 233.792C147.759 233.792 146.068 234.638 148.816 234.849H228.931C231.256 235.061 229.988 234.215 229.988 234.215Z" fill="#C5E1F9"/>
<path d="M214.135 209.906C213.923 207.792 213.712 205.889 213.501 204.621H163.825C163.614 205.889 163.614 207.792 163.402 209.906H214.135Z" fill="#9AC7F7"/>
<path d="M112.457 177.353H162.133L252.817 32.1309H202.93L112.457 177.353Z" fill="#1F62B2"/>
<path d="M176.086 177.353H194.265L284.95 32.1309H266.77L176.086 177.353Z" fill="#1F62B2"/>
<path d="M296.786 42.9111H80.75V164.669H296.786V42.9111Z" fill="#C5E1F9"/>
<path d="M296.996 59.1875H192.783V146.701H296.996V59.1875Z" fill="#EAF4FE"/>
<path d="M296.996 59.1875H192.783V67.4315H296.996V59.1875Z" fill="#0058B0"/>
<path d="M296.998 61.5137H235.484V65.1072H296.998V61.5137Z" fill="white"/>
<path d="M199.126 63.4161C199.126 63.8389 199.126 64.0503 198.915 64.2617C198.704 64.4731 198.492 64.6845 198.069 64.8958C197.647 65.1072 197.435 65.1072 197.012 64.8958C196.59 64.8958 196.378 64.6845 196.167 64.4731C195.956 64.2617 195.744 63.8389 195.744 63.6275C195.744 63.2048 195.744 62.9934 195.744 62.5706C195.956 62.3592 196.167 61.9364 196.378 61.7251C196.59 61.5137 197.012 61.5137 197.224 61.5137C197.647 61.5137 198.069 61.7251 198.492 61.9364C198.915 62.5706 199.126 62.9934 199.126 63.4161Z" fill="#D98F00"/>
<path d="M204.62 63.4161C204.62 63.8389 204.62 64.0503 204.409 64.2617C204.198 64.4731 203.986 64.6845 203.564 64.8958C203.352 65.1072 202.929 65.1072 202.507 64.8958C202.084 64.8958 201.872 64.6845 201.661 64.4731C201.45 64.2617 201.238 63.8389 201.238 63.6275C201.238 63.2048 201.238 62.9934 201.238 62.5706C201.238 62.1478 201.661 61.9364 201.872 61.7251C202.084 61.5137 202.507 61.5137 202.718 61.5137C203.141 61.5137 203.564 61.7251 203.986 61.9364C204.409 62.5706 204.62 62.9934 204.62 63.4161Z" fill="#FFCC00"/>
<path d="M209.906 63.4161C209.906 63.8389 209.906 64.0503 209.694 64.2617C209.483 64.4731 209.271 64.6845 208.849 64.8958C208.637 65.1072 208.215 65.1072 207.792 64.8958C207.369 64.8958 207.158 64.6845 206.946 64.4731C206.735 64.2617 206.523 63.8389 206.523 63.6275C206.523 63.2048 206.523 62.9934 206.523 62.5706C206.735 62.3592 206.946 61.9364 207.158 61.7251C207.369 61.5137 207.792 61.5137 208.003 61.5137C208.426 61.5137 208.849 61.7251 209.271 61.9364C209.694 62.5706 209.906 62.9934 209.906 63.4161Z" fill="#7EB3FF"/>
<path d="M122.18 136.132H134.017C136.977 136.132 139.725 135.075 141.627 132.961C143.741 130.847 144.798 128.099 144.798 125.351C144.798 122.392 143.741 119.644 141.627 117.741C139.513 115.627 136.765 114.57 134.017 114.57H122.18V136.132Z" fill="#D98F00"/>
<path d="M134.019 136.132H12.4722H10.5697C7.82171 136.132 5.28509 137.189 3.38262 138.88C1.48015 140.572 0.211834 143.108 -0.210938 145.645C-0.210938 148.604 -0.210938 241.402 -0.210938 246.264C0.000448093 243.728 1.26876 241.191 3.38262 239.5C5.28509 237.809 7.82171 236.752 10.5697 236.752H13.1064H133.808C136.556 236.752 139.092 235.695 140.995 234.004C142.897 232.313 144.165 229.776 144.588 227.24C144.588 224.28 144.588 131.482 144.588 126.62C144.377 129.157 143.108 131.693 140.995 133.384C139.092 135.287 136.556 136.132 134.019 136.132Z" fill="#EAF4FE"/>
<path d="M129.158 187.711H13.9531V189.825H129.158V187.711Z" fill="#0066CC"/>
<path d="M116.475 188.557C116.475 190.248 116.053 191.727 114.996 192.996C114.15 194.264 112.882 195.321 111.402 195.955C109.922 196.589 108.231 196.801 106.752 196.378C105.272 196.166 103.792 195.321 102.524 194.053C101.256 192.784 100.621 191.516 100.199 189.825C99.9873 188.345 99.9873 186.654 100.621 185.174C101.256 183.695 102.313 182.426 103.581 181.581C104.849 180.735 106.54 180.312 108.02 180.312C109.077 180.312 110.134 180.524 111.191 180.947C112.248 181.369 113.093 182.004 113.939 182.638C114.784 183.483 115.207 184.329 115.63 185.386C116.264 186.443 116.475 187.5 116.475 188.557Z" fill="#EAF4FE"/>
<path d="M108.442 197.857C106.539 197.857 104.848 197.223 103.369 196.377C101.889 195.32 100.621 193.84 99.9865 192.361C99.3523 190.67 99.1409 188.767 99.5637 187.076C99.9865 185.385 100.832 183.694 102.1 182.426C103.369 181.157 105.06 180.312 106.751 179.889C108.442 179.466 110.344 179.678 112.035 180.312C113.727 180.946 115.206 182.214 116.263 183.694C117.32 185.174 117.743 187.076 117.743 188.767C117.743 191.304 116.686 193.629 114.995 195.32C113.092 196.8 110.767 197.857 108.442 197.857ZM108.442 181.58C106.962 181.58 105.694 182.003 104.426 182.848C103.157 183.694 102.312 184.751 101.889 186.019C101.255 187.287 101.255 188.767 101.466 190.035C101.678 191.515 102.523 192.783 103.369 193.629C104.426 194.686 105.694 195.32 106.962 195.531C108.442 195.743 109.71 195.743 110.979 195.109C112.247 194.475 113.304 193.629 114.149 192.572C114.995 191.304 115.418 190.035 115.418 188.556C115.418 186.653 114.572 184.751 113.304 183.482C112.035 182.214 110.344 181.58 108.442 181.58Z" fill="#0066CC"/>
<path d="M85.4012 181.791H56.4414V195.32H85.4012V181.791Z" fill="#EAF4FE"/>
<path d="M86.2451 196.377H55.3828V180.734H86.2451V196.377ZM57.4967 194.263H84.3426V182.848H57.4967V194.263Z" fill="#0066CC"/>
<path d="M139.091 181.791H125.562V195.32H139.091V181.791Z" fill="#EAF4FE"/>
<path d="M138.881 196.377H123.238V180.734H138.881V196.377ZM125.352 194.263H136.767V182.848H125.352V194.263Z" fill="#0066CC"/>
<path d="M139.936 179.678H122.18V197.434H139.936V179.678Z" fill="#2A66C4"/>
<path d="M126.408 186.654C126.197 186.654 126.197 186.654 125.986 186.654C125.774 186.654 125.774 186.866 125.563 186.866C125.352 187.077 125.352 187.288 125.352 187.711C125.352 187.923 125.352 188.345 125.774 188.557C125.774 188.768 125.986 188.768 126.197 188.768C126.408 188.768 126.408 188.768 126.62 188.768C126.831 188.768 126.831 188.768 127.043 188.768C127.254 188.768 127.254 188.557 127.465 188.557C127.677 188.345 127.677 188.134 127.677 187.711C127.677 187.5 127.677 187.077 127.465 186.866C127.465 186.654 127.254 186.654 127.043 186.654C126.831 186.654 126.62 186.654 126.408 186.654Z" fill="white"/>
<path d="M132.749 190.458H131.27V193.206H129.367V183.693H132.749C135.075 183.693 136.132 184.75 136.132 186.864C136.132 187.921 135.92 188.767 135.286 189.401C134.652 190.246 133.806 190.458 132.749 190.458ZM131.27 188.767H132.749C133.806 188.767 134.229 188.132 134.229 187.076C134.229 186.653 134.229 186.23 133.806 185.807C133.595 185.596 133.595 185.596 133.384 185.596C133.172 185.596 132.961 185.596 132.749 185.596H131.27V188.767Z" fill="white"/>
<path d="M35.5129 176.93L23.8867 188.556L35.5129 200.182L47.1391 188.556L35.5129 176.93Z" fill="#EAF4FE"/>
<path d="M35.5122 201.662L22.4062 188.556L35.5122 175.45L48.6181 188.556L35.5122 201.662ZM25.3656 188.556L35.5122 198.703L45.6587 188.556L35.5122 178.41L25.3656 188.556Z" fill="#0066CC"/>
<path d="M58.1303 209.483H34.4551V200.604H36.5689V207.58H58.3416V209.483H58.1303Z" fill="#0066CC"/>
<path d="M36.358 176.718H34.2441V167.84H58.1307V169.954H36.358V176.718Z" fill="#0066CC"/>
<path d="M109.921 209.483H86.2461V207.369H108.019V196.377H110.133V209.483H109.921Z" fill="#0066CC"/>
<path d="M109.921 180.735H107.807V169.743H86.2461V167.629H109.921V180.735Z" fill="#0066CC"/>
<path d="M85.4012 162.768H56.4414V176.296H85.4012V162.768Z" fill="#EAF4FE"/>
<path d="M86.2451 177.352H55.3828V161.71H86.2451V177.352ZM57.4967 175.239H84.3426V163.824H57.4967V175.239Z" fill="#0066CC"/>
<path d="M85.4012 201.027H56.4414V214.556H85.4012V201.027Z" fill="#EAF4FE"/>
<path d="M86.2451 215.613H55.3828V199.971H86.2451V215.613ZM57.4967 213.499H84.3426V202.085H57.4967V213.499Z" fill="#0066CC"/>
<path d="M142.475 109.709H171.223C171.646 109.709 172.28 109.498 172.491 109.075C172.914 108.652 173.126 108.23 173.126 107.807C173.126 107.384 172.914 106.75 172.491 106.538C172.069 106.116 171.646 105.904 171.223 105.904H142.475C142.052 105.904 141.418 106.116 141.206 106.538C140.784 106.961 140.572 107.384 140.572 107.807C140.572 108.23 140.784 108.864 141.206 109.075C141.629 109.286 142.052 109.709 142.475 109.709Z" fill="#0058B0"/>
<path d="M121.125 35.9356C121.125 26.4232 124.93 17.3336 131.694 10.5693C138.459 3.80494 147.548 0 157.061 0C166.573 0 175.662 3.80494 182.427 10.5693C189.191 17.3336 192.996 26.4232 192.996 35.9356C192.996 37.2039 192.151 53.6919 178.622 71.0256C174.606 76.3102 175.24 86.8795 175.451 86.8795H138.67C138.67 86.8795 139.516 76.3102 135.499 71.0256C121.971 53.6919 121.125 36.9925 121.125 35.9356Z" fill="#D98F00"/>
<path d="M145.434 82.2284C145.223 77.7893 144.166 69.1225 141.206 65.529C128.312 49.0409 127.678 33.3983 127.678 33.187C127.678 24.9429 131.06 16.9103 136.767 11.2029C142.686 5.28407 150.507 2.11328 158.751 2.11328C166.995 2.11328 175.028 5.49545 180.736 11.2029C186.866 16.9103 190.248 24.7315 190.248 32.9756C190.248 33.187 189.614 48.8295 176.931 65.3176C174.183 69.1225 172.914 77.5779 172.703 82.2284H145.434Z" fill="#FFCC00"/>
<path d="M185.175 38.683C184.752 38.683 184.541 38.683 184.118 38.4716C183.696 38.2603 183.484 38.0489 183.273 37.8375C183.061 37.6261 182.85 37.2033 182.639 36.9919C182.427 36.5692 182.427 36.3578 182.427 35.935C182.427 29.1707 179.679 22.6177 175.029 17.9672C170.167 13.1054 163.825 10.5687 157.061 10.5687C156.215 10.5687 155.581 10.3574 155.158 9.7232C154.313 9.08904 154.102 8.45488 154.102 7.60934C154.102 6.7638 154.313 6.12964 154.947 5.70687C155.37 5.2841 156.215 4.86133 156.85 4.86133C165.094 4.86133 172.915 8.2435 178.834 13.9509C184.752 19.8697 187.923 27.691 187.923 35.935C187.923 36.7806 187.712 37.4147 187.078 37.8375C186.655 38.4716 186.021 38.683 185.175 38.683Z" fill="#FFDD55"/>
<path d="M147.758 89.6276L143.107 52.6351L145.01 52.001L149.66 88.9935L147.758 89.6276Z" fill="#0058B0"/>
<path d="M165.938 89.6276L170.588 52.6351L168.686 52.001L164.035 88.9935L165.938 89.6276Z" fill="#0058B0"/>
<path d="M169.109 57.2856C167.841 57.2856 167.207 56.0173 166.784 55.1718C166.573 54.749 166.361 53.9034 166.15 53.9034C165.938 53.9034 165.516 54.749 165.516 55.1718C165.093 56.0173 164.459 57.2856 163.19 57.2856C161.922 57.2856 161.288 56.0173 160.865 55.1718C160.865 54.9604 160.654 54.5376 160.442 54.3262C159.808 55.5945 158.54 57.2856 157.06 57.2856C155.792 57.2856 155.158 56.0173 154.735 55.1718C154.524 54.749 154.312 53.9034 154.101 53.9034C153.889 53.9034 153.467 54.749 153.467 55.1718C153.044 56.0173 152.41 57.2856 151.141 57.2856C149.873 57.2856 149.239 56.0173 148.816 55.1718C148.605 54.749 148.393 53.9034 148.182 53.9034C147.971 53.9034 147.548 54.749 147.548 55.1718C147.125 56.0173 146.491 57.2856 145.223 57.2856V55.5945C145.434 55.5945 145.857 54.749 145.857 54.3262C146.28 53.4807 146.914 52.2124 148.182 52.2124C149.45 52.2124 150.085 53.4807 150.507 54.3262C150.719 54.749 150.93 55.5945 151.141 55.5945C151.353 55.5945 151.776 54.749 151.776 54.3262C152.198 53.4807 152.833 52.2124 154.101 52.2124C155.369 52.2124 156.003 53.4807 156.426 54.3262C156.637 54.749 156.849 55.5945 157.06 55.5945C157.483 55.5945 158.54 54.3262 159.174 52.6351C159.174 52.4237 159.385 52.4237 159.385 52.2124C159.597 52.2124 159.597 52.001 159.808 52.001C161.077 52.001 161.711 53.2693 162.134 54.1148C162.345 54.5376 162.556 55.3831 162.768 55.3831C162.979 55.3831 163.402 54.5376 163.402 54.1148C163.825 53.2693 164.459 52.001 165.727 52.001C166.995 52.001 167.63 53.2693 168.052 54.1148C168.264 54.5376 168.475 55.3831 168.686 55.3831V57.2856H169.109Z" fill="#0058B0"/>
<path d="M175.24 87.0908V105.904C175.24 106.538 175.028 107.172 174.605 107.595C174.183 108.018 173.549 108.229 172.914 108.229H140.995C140.361 108.229 139.727 108.018 139.304 107.595C138.881 107.172 138.67 106.538 138.67 105.904V87.0908H175.24Z" fill="#0058B0"/>
<path d="M175.874 90.6839H137.824C137.613 90.6839 137.402 90.6838 137.19 90.4725C136.979 90.4725 136.767 90.2611 136.556 90.0497C136.345 89.8383 136.345 89.6269 136.133 89.4155C136.133 89.2041 135.922 88.9928 135.922 88.7814C135.922 88.57 135.922 88.3586 136.133 88.1472C136.133 87.9358 136.345 87.7245 136.556 87.5131C136.767 87.3017 136.979 87.3017 137.19 87.0903C137.402 87.0903 137.613 86.8789 137.824 86.8789H175.874C176.297 86.8789 176.931 87.0903 177.142 87.5131C177.565 87.9358 177.776 88.3586 177.776 88.7814C177.776 89.2042 177.565 89.8383 177.142 90.0497C176.931 90.4725 176.508 90.6839 175.874 90.6839Z" fill="#0058B0"/>
<path d="M159.174 89.8385H138.035C137.824 89.8385 137.824 89.8385 137.613 89.8385C137.401 89.8385 137.401 89.6271 137.19 89.6271C137.19 89.6271 136.979 89.4157 136.979 89.2043C136.979 88.9929 136.979 88.9929 136.979 88.7815C136.979 88.5702 136.979 88.5702 136.979 88.3588C136.979 88.1474 137.19 88.1474 137.19 87.936C137.19 87.936 137.401 87.7246 137.613 87.7246C137.824 87.7246 137.824 87.7246 138.035 87.7246H159.174C159.385 87.7246 159.808 87.936 159.808 87.936C160.02 88.1474 160.02 88.3588 160.02 88.5702C160.02 88.7815 159.808 88.9929 159.808 89.2043C159.597 89.6271 159.385 89.8385 159.174 89.8385Z" fill="#4B96E1"/>
<path d="M175.874 96.8147H137.824C137.613 96.8147 137.402 96.8147 137.19 96.6033C136.979 96.6033 136.767 96.3919 136.556 96.1805C136.345 95.9692 136.345 95.7578 136.133 95.5464C136.133 95.335 135.922 95.1236 135.922 94.9122C135.922 94.7009 135.922 94.4895 136.133 94.2781C136.133 94.0667 136.345 93.8553 136.556 93.6439C136.767 93.4325 136.979 93.4325 137.19 93.2211C137.402 93.2211 137.613 93.0098 137.824 93.0098H175.874C176.297 93.0098 176.931 93.2211 177.142 93.6439C177.565 94.0667 177.776 94.4895 177.776 94.9122C177.776 95.335 177.565 95.9692 177.142 96.1805C176.719 96.3919 176.508 96.8147 175.874 96.8147Z" fill="#0058B0"/>
<path d="M175.874 102.945H137.824C137.613 102.945 137.402 102.945 137.19 102.733C136.979 102.733 136.767 102.522 136.556 102.31C136.345 102.099 136.345 101.888 136.133 101.676C136.133 101.465 135.922 101.253 135.922 101.042C135.922 100.831 135.922 100.619 136.133 100.408C136.133 100.197 136.345 99.9852 136.556 99.7738C136.767 99.5624 136.979 99.5624 137.19 99.351C137.402 99.351 137.613 99.1396 137.824 99.1396H175.874C176.297 99.1396 176.931 99.351 177.142 99.7738C177.565 100.197 177.776 100.619 177.776 101.042C177.776 101.465 177.565 102.099 177.142 102.31C176.931 102.733 176.508 102.945 175.874 102.945Z" fill="#0058B0"/>
<path d="M159.174 95.5455H138.035C137.824 95.5455 137.824 95.5455 137.613 95.5455C137.401 95.5455 137.401 95.3341 137.19 95.3341C137.19 95.3341 136.979 95.1227 136.979 94.9113C136.979 94.7 136.979 94.7 136.979 94.4886C136.979 94.2772 136.979 94.2772 136.979 94.0658C136.979 93.8544 137.19 93.8544 137.19 93.643C137.19 93.643 137.401 93.4316 137.613 93.4316C137.824 93.4316 137.824 93.4316 138.035 93.4316H159.174C159.385 93.4316 159.808 93.643 159.808 93.643C160.02 93.8544 160.02 94.0658 160.02 94.2772C160.02 94.4886 159.808 94.7 159.808 94.9113C159.597 95.5455 159.385 95.5455 159.174 95.5455Z" fill="#4B96E1"/>
<path d="M159.174 101.888H138.035C137.824 101.888 137.401 101.677 137.401 101.677C137.189 101.466 137.189 101.254 137.189 101.043C137.189 100.831 137.401 100.409 137.401 100.409C137.612 100.197 137.824 100.197 138.035 100.197H159.174C159.385 100.197 159.808 100.197 159.808 100.409C160.019 100.62 160.019 100.831 160.019 101.043C160.019 101.254 159.808 101.466 159.808 101.677C159.596 101.677 159.385 101.888 159.174 101.888Z" fill="#4B96E1"/>
<path d="M161.71 90.6846H143.742V92.587H161.71V90.6846Z" fill="#1569BE"/>
<path d="M161.71 96.6035H143.742V98.506H161.71V96.6035Z" fill="#1569BE"/>
<path d="M161.71 102.733H143.742V104.636H161.71V102.733Z" fill="#1569BE"/>
<path d="M261.274 90.8965L247.322 98.5064V113.726L261.274 122.604L275.225 113.726V98.5064L261.274 90.8965Z" fill="#FFCC00"/>
<path d="M280.086 116.262L286.428 120.067L261.062 135.286L235.695 120.067L242.037 116.262" stroke="#7EB3FF" stroke-width="2.11386" stroke-linecap="round" stroke-linejoin="round"/>
<path d="M235.906 90.8958L261.273 106.116L286.639 90.8958L261.273 76.9443L235.906 90.8958Z" stroke="#7EB3FF" stroke-width="2.11386" stroke-linecap="round" stroke-linejoin="round"/>
<path d="M261.273 106.115V135.286" stroke="#7EB3FF" stroke-width="2.11386" stroke-linecap="round" stroke-linejoin="round"/>
<path d="M261.273 76.9443V83.2859" stroke="#7EB3FF" stroke-width="2.11386" stroke-linecap="round" stroke-linejoin="round"/>
<path d="M235.906 90.8965V120.068" stroke="#7EB3FF" stroke-width="2.11386" stroke-linecap="round" stroke-linejoin="round"/>
<path d="M225.972 78.6348H203.988V79.6917H225.972V78.6348Z" fill="#4B96E1"/>
<path d="M225.972 81.8066H203.988V82.8636H225.972V81.8066Z" fill="#4B96E1"/>
<path d="M219.631 85.1885H203.988V86.2454H219.631V85.1885Z" fill="#4B96E1"/>
<path d="M201.662 78.002H199.125V80.1158H201.662V78.002Z" fill="#4B96E1"/>
<path d="M225.972 93.2207H203.988V94.2776H225.972V93.2207Z" fill="#4B96E1"/>
<path d="M225.972 96.6035H203.988V97.6604H225.972V96.6035Z" fill="#4B96E1"/>
<path d="M219.631 99.7734H203.988V100.83H219.631V99.7734Z" fill="#4B96E1"/>
<path d="M201.662 92.7988H199.125V94.9127H201.662V92.7988Z" fill="#4B96E1"/>
<path d="M225.972 108.441H203.988V109.498H225.972V108.441Z" fill="#4B96E1"/>
<path d="M225.972 111.611H203.988V112.668H225.972V111.611Z" fill="#4B96E1"/>
<path d="M219.631 114.994H203.988V116.051H219.631V114.994Z" fill="#4B96E1"/>
<path d="M201.662 107.807H199.125V109.92H201.662V107.807Z" fill="#4B96E1"/>
<path d="M225.972 123.026H203.988V124.083H225.972V123.026Z" fill="#4B96E1"/>
<path d="M225.972 126.408H203.988V127.465H225.972V126.408Z" fill="#4B96E1"/>
<path d="M219.631 129.58H203.988V130.637H219.631V129.58Z" fill="#4B96E1"/>
<path d="M201.662 122.604H199.125V124.717H201.662V122.604Z" fill="#4B96E1"/>
<path d="M210.54 120.49H208.215V126.409H210.54V120.49Z" fill="#C5E1F9"/>
<path d="M201.029 131.905L195.744 128.945L196.801 127.043L202.086 130.002L201.029 131.905Z" fill="#C5E1F9"/>
<path d="M201.029 138.881L195.744 141.84L196.801 143.743L202.086 140.783L201.029 138.881Z" fill="#C5E1F9"/>
<path d="M210.54 144.377H208.215V150.296H210.54V144.377Z" fill="#C5E1F9"/>
<path d="M221.957 127.043L216.672 130.002L217.729 131.905L223.013 128.945L221.957 127.043Z" fill="#C5E1F9"/>
<path d="M243.518 145.433L226.396 139.937L209.273 134.441L214.769 151.564L220.265 168.686L226.396 157.06L235.485 166.149L240.981 160.865L231.892 151.775L243.518 145.433Z" fill="#3683F2"/>
<path d="M226.396 139.937L209.273 134.441L209.485 135.076L238.233 163.613L241.193 160.653L232.103 151.564L243.941 145.645L226.396 139.937Z" fill="#7EB3FF"/>
</g>
<defs>
<clipPath id="clip0_4477_209200">
<rect width="308.2" height="246.476" fill="white"/>
</clipPath>
</defs>
</svg>
