<svg width="161" height="81" viewBox="0 0 161 81" fill="none" xmlns="http://www.w3.org/2000/svg">
<rect x="53.6824" y="11.9646" width="21.7412" height="8.24665" fill="#27D1D6"/>
<rect x="83.5764" y="53.6353" width="21.7412" height="8.24665" fill="#27D1D6"/>
<rect x="53.6824" y="22.8352" width="51.6353" height="3.75529" fill="#0073E6"/>
<rect x="53.6824" y="65.4119" width="51.6353" height="3.75529" fill="#0073E6"/>
<path d="M41.6961 30.0824C41.6961 30.6676 41.6444 31.2183 41.5755 31.7691L45.2108 34.6091C45.5381 34.8672 45.6243 35.332 45.4175 35.7106L41.9717 41.6659C41.8167 41.9413 41.5238 42.0962 41.2309 42.0962C41.1275 42.0962 41.0241 42.079 40.9208 42.0445L36.6308 40.3234C35.7348 40.9946 34.77 41.5798 33.7191 42.0101L33.0644 46.5712C33.0127 46.9843 32.6509 47.2941 32.2201 47.2941H25.3286C24.8978 47.2941 24.536 46.9843 24.4843 46.5712L23.8296 42.0101C22.7787 41.5798 21.8138 41.0118 20.9179 40.3234L16.6279 42.0445C16.5418 42.079 16.4384 42.0962 16.335 42.0962C16.0249 42.0962 15.732 41.9413 15.577 41.6659L12.1312 35.7106C11.9244 35.332 12.0106 34.8672 12.3379 34.6091L15.9732 31.7691C15.9043 31.2183 15.8526 30.6504 15.8526 30.0824C15.8526 29.5144 15.9043 28.9464 15.9732 28.3956L12.3379 25.5557C12.0106 25.2975 11.9072 24.8328 12.1312 24.4541L15.577 18.4989C15.732 18.2235 16.0249 18.0686 16.3178 18.0686C16.4212 18.0686 16.5246 18.0858 16.6279 18.1202L20.9179 19.8414C21.8138 19.1701 22.7787 18.5849 23.8296 18.1546L24.4843 13.5935C24.536 13.1804 24.8978 12.8706 25.3286 12.8706H32.2201C32.6509 12.8706 33.0127 13.1804 33.0644 13.5935L33.7191 18.1546C34.77 18.5849 35.7348 19.1529 36.6308 19.8414L40.9208 18.1202C41.0069 18.0858 41.1103 18.0686 41.2137 18.0686C41.5238 18.0686 41.8167 18.2235 41.9717 18.4989L45.4175 24.4541C45.6243 24.8328 45.5381 25.2975 45.2108 25.5557L41.5755 28.3956C41.6444 28.9464 41.6961 29.4972 41.6961 30.0824Z" stroke="#505050" stroke-width="2.26471"/>
<path d="M19.7893 13.6043C20.2315 13.162 20.2315 12.4451 19.7893 12.0029C19.3471 11.5607 18.6301 11.5607 18.1879 12.0029L19.7893 13.6043ZM17.7756 14.0165L17.0802 14.9102L17.8693 15.5242L18.5763 14.8172L17.7756 14.0165ZM15.8082 12.8624L14.6871 13.0214L14.7778 13.661L15.3746 13.9085L15.8082 12.8624ZM15.3659 9.74168L14.2421 9.88054L14.2433 9.89059L14.2447 9.9006L15.3659 9.74168ZM9.56856 9.74168L10.6897 9.9006L10.6911 9.89059L10.6924 9.88054L9.56856 9.74168ZM9.12619 12.8624L9.55987 13.9085L10.1567 13.661L10.2473 13.0214L9.12619 12.8624ZM7.15883 14.0165L6.73262 15.0656L7.32977 15.3082L7.84326 14.9186L7.15883 14.0165ZM4.26017 12.8389L4.68639 11.7898L4.65455 11.7769L4.62199 11.7659L4.26017 12.8389ZM3.55006 13.098L4.5333 13.6598L4.53971 13.6483L3.55006 13.098ZM1.22182 17.1726L2.19964 17.7438L2.205 17.7344L1.22182 17.1726ZM1.36152 17.9263L0.654865 18.8111L0.658985 18.8144L1.36152 17.9263ZM3.81781 19.8694L4.94162 20.0083L5.0197 19.3764L4.52034 18.9814L3.81781 19.8694ZM3.81781 22.1776L4.52034 23.0657L5.0197 22.6707L4.94162 22.0388L3.81781 22.1776ZM1.36152 24.1208L0.658977 23.2327L0.654872 23.236L1.36152 24.1208ZM1.22182 24.8744L0.225122 25.4119L0.231737 25.4241L0.238652 25.4362L1.22182 24.8744ZM3.55006 28.9491L4.53978 28.3988L4.53323 28.3873L3.55006 28.9491ZM4.26017 29.2082L4.68492 30.2579L4.68639 30.2573L4.26017 29.2082ZM7.15883 28.0305L7.85425 27.1369L7.3383 26.7354L6.73262 26.9815L7.15883 28.0305ZM9.12619 29.1846L10.2374 28.9668L10.1206 28.3711L9.55987 28.1386L9.12619 29.1846ZM8.45736 31.659C8.57766 32.2727 9.17269 32.6727 9.78639 32.5524C10.4001 32.4321 10.8001 31.8371 10.6798 31.2234L8.45736 31.659ZM18.1879 12.0029L16.9749 13.2158L18.5763 14.8172L19.7893 13.6043L18.1879 12.0029ZM18.471 13.1229C17.7919 12.5944 17.0528 12.1526 16.2419 11.8164L15.3746 13.9085C15.9839 14.1611 16.5486 14.4965 17.0802 14.9102L18.471 13.1229ZM16.9294 12.7035L16.487 9.58276L14.2447 9.9006L14.6871 13.0214L16.9294 12.7035ZM16.4897 9.60282C16.3823 8.73375 15.6387 8.11472 14.7955 8.11472V10.3794C14.5342 10.3794 14.2796 10.1843 14.2421 9.88054L16.4897 9.60282ZM14.7955 8.11472H10.139V10.3794H14.7955V8.11472ZM10.139 8.11472C9.29569 8.11472 8.55214 8.73375 8.44475 9.60282L10.6924 9.88054C10.6548 10.1843 10.4002 10.3794 10.139 10.3794V8.11472ZM8.44741 9.58276L8.00505 12.7035L10.2473 13.0214L10.6897 9.9006L8.44741 9.58276ZM8.69252 11.8164C7.87368 12.1559 7.13816 12.6108 6.4744 13.1144L7.84326 14.9186C8.39019 14.5037 8.95848 14.1578 9.55987 13.9085L8.69252 11.8164ZM7.58504 12.9675L4.68639 11.7898L3.83396 13.888L6.73262 15.0656L7.58504 12.9675ZM4.62199 11.7659C4.44206 11.7052 4.25018 11.6712 4.05063 11.6712V13.9359C3.99078 13.9359 3.9386 13.9255 3.89835 13.9119L4.62199 11.7659ZM4.05063 11.6712C3.46135 11.6712 2.87435 11.9831 2.56041 12.5477L4.53971 13.6483C4.43532 13.836 4.24411 13.9359 4.05063 13.9359V11.6712ZM2.56689 12.5362L0.238651 16.6109L2.205 17.7344L4.53323 13.6598L2.56689 12.5362ZM0.244056 16.6015C-0.199773 17.3613 0.00857818 18.295 0.654872 18.8111L2.06816 17.0415C2.27209 17.2044 2.34075 17.5021 2.19959 17.7438L0.244056 16.6015ZM0.658985 18.8144L3.11528 20.7575L4.52034 18.9814L2.06405 17.0383L0.658985 18.8144ZM2.694 19.7306C2.6446 20.1304 2.60397 20.5699 2.60397 21.0235H4.86867C4.86867 20.6999 4.89789 20.3622 4.94162 20.0083L2.694 19.7306ZM2.60397 21.0235C2.60397 21.4772 2.6446 21.9167 2.694 22.3165L4.94162 22.0388C4.89789 21.6849 4.86867 21.3472 4.86867 21.0235H2.60397ZM3.11528 21.2896L0.658984 23.2327L2.06405 25.0088L4.52034 23.0657L3.11528 21.2896ZM0.654872 23.236C-0.0223033 23.7768 -0.156851 24.7034 0.225122 25.4119L2.21852 24.337C2.32111 24.5273 2.30297 24.818 2.06816 25.0056L0.654872 23.236ZM0.238652 25.4362L2.56689 29.5109L4.53323 28.3873L2.205 24.3127L0.238652 25.4362ZM2.56041 29.4994C2.88025 30.0746 3.47411 30.3759 4.06227 30.3759V28.1112C4.23136 28.1112 4.42942 28.2005 4.53971 28.3988L2.56041 29.4994ZM4.06227 30.3759C4.24854 30.3759 4.46714 30.346 4.68492 30.2579L3.83543 28.1585C3.88977 28.1365 3.93571 28.1254 3.9694 28.1195C4.0038 28.1134 4.03464 28.1112 4.06227 28.1112V30.3759ZM4.68639 30.2573L7.58504 29.0796L6.73262 26.9815L3.83396 28.1591L4.68639 30.2573ZM6.46342 28.9242C7.14251 29.4526 7.88165 29.8945 8.69252 30.2307L9.55987 28.1386C8.95051 27.886 8.38584 27.5506 7.85425 27.1369L6.46342 28.9242ZM8.01499 29.4025L8.45736 31.659L10.6798 31.2234L10.2374 28.9668L8.01499 29.4025Z" fill="#505050"/>
<circle cx="29.2235" cy="30.0824" r="5.20882" stroke="#505050" stroke-width="2.26471"/>
<path d="M142.459 57.2588V69.9412C142.459 74.9442 138.403 79 133.4 79H34.6587C29.6556 79 25.5999 74.9442 25.5999 69.9412V50.9176M142.459 30.9882V11.0588C142.459 6.05577 138.403 2 133.4 2H32.394C28.6417 2 25.5999 5.04183 25.5999 8.79412V8.79412" stroke="#505050" stroke-width="2.26471" stroke-linecap="round" stroke-linejoin="round"/>
<path d="M128.871 50.9177C142.006 51.3707 146.988 54.0883 155.594 63.6001" stroke="#27D1D6" stroke-width="2.26471" stroke-linecap="round" stroke-linejoin="round"/>
<path d="M127.99 59.0102V48.7625C141.186 48.9952 150.339 53.3402 156.942 62.4527C157.255 62.8843 157.826 63.0393 158.314 62.8251C158.802 62.6109 159.075 62.0854 158.969 61.5631C157.532 54.483 154.646 47.3359 149.546 41.5903C144.595 36.0128 137.606 31.8133 127.99 30.256V20.1177C127.99 19.6612 127.716 19.2493 127.295 19.0731C126.873 18.8969 126.388 18.9908 126.063 19.3112L106.334 38.7575C106.119 38.9703 105.997 39.2608 105.997 39.5639C105.997 39.8671 106.119 40.1576 106.334 40.3704L126.063 59.8167C126.388 60.1371 126.873 60.231 127.295 60.0548C127.716 59.8786 127.99 59.4667 127.99 59.0102Z" stroke="#505050" stroke-width="2.26471" stroke-linejoin="round"/>
</svg>
