<svg width="266" height="162" viewBox="0 0 266 162" fill="none" xmlns="http://www.w3.org/2000/svg">
<path d="M54.4723 131.522C52.7764 131.519 51.1506 130.844 49.9515 129.645C48.7525 128.446 48.0781 126.82 48.0762 125.124V6.39817C48.0778 4.70212 48.7521 3.07597 49.9512 1.87649C51.1503 0.677011 52.7763 0.00216138 54.4723 0H227.965C229.661 0.00199573 231.286 0.676869 232.485 1.87645C233.684 3.07604 234.358 4.70229 234.358 6.39817V125.124C234.357 126.82 233.684 128.446 232.485 129.645C231.286 130.845 229.661 131.52 227.965 131.522H54.4723Z" fill="#EAF4FE"/>
<path d="M233.756 125.125C233.756 126.663 233.146 128.137 232.06 129.225C230.973 130.313 229.499 130.924 227.962 130.925H54.4693C53.7076 130.925 52.9535 130.775 52.2498 130.484C51.5462 130.192 50.9068 129.765 50.3683 129.226C49.8297 128.688 49.4026 128.048 49.1112 127.345C48.8198 126.641 48.6698 125.887 48.6699 125.125V6.39961C48.6696 5.63794 48.8193 4.88368 49.1107 4.17993C49.402 3.47618 49.8292 2.83674 50.3677 2.29818C50.9063 1.75962 51.5458 1.33248 52.2496 1.0412C52.9533 0.749916 53.7076 0.600191 54.4693 0.600587H227.962C228.723 0.600665 229.477 0.75075 230.18 1.04227C230.883 1.33378 231.522 1.76101 232.06 2.29955C232.598 2.83809 233.025 3.47737 233.316 4.18088C233.607 4.88438 233.756 5.63832 233.756 6.39961V125.125Z" fill="#01478E"/>
<path d="M224.68 8.91797H57.7432V115.471H224.68V8.91797Z" fill="#2A66C4"/>
<path fill-rule="evenodd" clip-rule="evenodd" d="M174.484 29.083H108.589V94.9778H174.484V29.083Z" fill="#2A66C4"/>
<path fill-rule="evenodd" clip-rule="evenodd" d="M123.956 55.3424C123.399 55.3233 122.844 55.4228 122.328 55.6342C121.812 55.8456 121.347 56.1641 120.963 56.5687C120.197 57.4124 119.793 58.5237 119.838 59.6627C119.807 60.8164 120.231 61.9361 121.02 62.7791C121.401 63.1884 121.866 63.5115 122.382 63.7269C122.898 63.9422 123.453 64.0449 124.012 64.0279C124.563 64.0479 125.112 63.9486 125.621 63.737C126.13 63.5253 126.586 63.2062 126.96 62.8016C127.719 61.9576 128.122 60.8531 128.085 59.7189C128.12 58.5748 127.718 57.4604 126.96 56.6025C126.59 56.1878 126.133 55.8599 125.622 55.6421C125.111 55.4243 124.557 55.322 124.001 55.3424" fill="white"/>
<path d="M147.312 69.6184H141.518V79.8565H134.386V44.6758H147.312C155.66 44.6758 159.834 48.7447 159.834 56.8827C159.834 60.9929 158.765 64.1506 156.628 66.3557C154.49 68.5608 151.385 69.6484 147.312 69.6184ZM141.518 63.5093H147.267C150.822 63.5093 152.589 61.2591 152.589 56.8827C152.747 55.2236 152.286 53.5646 151.295 52.225C150.768 51.7066 150.135 51.3085 149.44 51.058C148.745 50.8075 148.003 50.7104 147.267 50.7736H141.518V63.5093Z" fill="white"/>
<path d="M134.448 8.91834L137.673 0.599609H111.11L107.887 8.91834H134.448Z" fill="#02509E"/>
<path d="M66.5795 115.469L60.5889 130.921H87.1537L93.1419 115.469H66.5795Z" fill="#02509E"/>
<path d="M151.508 8.91834L154.737 0.599609H146.196L142.973 8.91834H151.508Z" fill="#02509E"/>
<path d="M101.674 115.469L95.6846 130.921H104.222L110.211 115.469H101.674Z" fill="#02509E"/>
<path d="M265.552 124.355H16.876V131.631H265.552V124.355Z" fill="#C5E1F9"/>
<path d="M17.2354 131.631C20.1755 134.741 25.5813 135.964 29.3108 135.964H253.107C256.838 135.964 262.248 134.741 265.187 131.631H17.2354Z" fill="#9AC7F7"/>
<path d="M124.321 124.355V125.135C124.321 125.476 124.388 125.814 124.518 126.129C124.649 126.445 124.84 126.731 125.081 126.973C125.322 127.215 125.608 127.406 125.924 127.537C126.239 127.668 126.577 127.735 126.918 127.736H155.508C155.849 127.736 156.187 127.668 156.503 127.537C156.818 127.407 157.105 127.215 157.346 126.974C157.588 126.732 157.779 126.445 157.909 126.13C158.04 125.814 158.107 125.476 158.107 125.135V124.355H124.321Z" fill="#9AC7F7"/>
<path d="M235.072 111.099L197.428 98.8696L159.783 86.6289L172.024 124.285L184.242 161.929L197.484 136.177L217.578 156.281L229.447 144.423L209.353 124.33L235.072 111.099Z" fill="#4B82E9"/>
<path d="M197.403 98.8696L159.759 86.6289L160.164 87.889L223.056 150.78L229.389 144.423L209.296 124.33L235.071 111.099L197.403 98.8696Z" fill="#88B2F8"/>
<path d="M41.1318 43.6582H104.246V91.8461H92.4451V104.631L79.6603 91.8461H41.1318V43.6582Z" fill="white"/>
<path d="M88.2193 20.251H0V79.7031H88.2193V20.251Z" fill="#FFCC00"/>
<path d="M14.7061 96.8478V68.3096H43.2443L14.7061 96.8478Z" fill="#FFCC00"/>
<path d="M74.3792 37.7959H13.4082V41.6882H74.3792V37.7959Z" fill="#D98F00"/>
<path d="M74.3792 48.1768H13.4082V52.0682H74.3792V48.1768Z" fill="#D98F00"/>
<path d="M74.3792 58.5508H13.4082V62.4428H74.3792V58.5508Z" fill="#D98F00"/>
<mask id="mask0_15402_366304" style="mask-type:alpha" maskUnits="userSpaceOnUse" x="131" y="36" width="94" height="61">
<path d="M224.53 36.9795H131V96.678H224.53V36.9795Z" fill="#003C77"/>
</mask>
<g mask="url(#mask0_15402_366304)">
<path d="M238.55 68.6348L238.551 63.6465L235.922 63.0847C235.772 62.3585 235.57 61.6438 235.319 60.946L237.252 59.2016L234.758 54.8809L232.196 55.7085C231.703 55.1568 231.171 54.6403 230.606 54.1627L231.41 51.6775L227.09 49.1831L225.286 51.1793C224.583 50.9485 223.865 50.7669 223.136 50.6359L222.589 48.084H217.601L217.038 50.7131C216.312 50.8634 215.597 51.0649 214.9 51.3163L213.153 49.3825L208.834 51.8767L209.662 54.4389C209.111 54.9325 208.594 55.4632 208.116 56.0273L205.632 55.2245L203.136 59.5452L205.133 61.3485C204.902 62.0517 204.721 62.7701 204.59 63.4985L202.038 64.0465L202.037 69.0342L204.666 69.5972C204.817 70.3228 205.018 71.037 205.269 71.7344L203.336 73.4822L205.83 77.8011L208.393 76.9734C208.886 77.5247 209.417 78.0412 209.981 78.5191L209.178 81.0043L213.499 83.4974L215.301 81.5015C216.004 81.7323 216.723 81.914 217.451 82.0451L217.999 84.5972H222.987L223.55 81.9685C224.276 81.8181 224.991 81.6168 225.689 81.3661L227.435 83.2979L231.755 80.8057L230.927 78.2424C231.478 77.7491 231.995 77.2184 232.473 76.6541L234.957 77.4563L237.451 73.1366L235.455 71.3337C235.686 70.6301 235.868 69.9112 235.999 69.1824L238.55 68.6348ZM228.674 66.3413C228.674 67.9987 228.183 69.6188 227.262 70.9969C226.341 72.3749 225.032 73.4489 223.501 74.0831C221.97 74.7174 220.285 74.8833 218.659 74.5599C217.034 74.2366 215.541 73.4385 214.369 72.2665C213.197 71.0946 212.399 69.6014 212.075 67.9759C211.752 66.3504 211.918 64.6655 212.552 63.1343C213.186 61.6031 214.261 60.2943 215.639 59.3735C217.017 58.4528 218.637 57.9613 220.294 57.9612C221.395 57.9612 222.484 58.178 223.501 58.5991C224.518 59.0203 225.442 59.6375 226.22 60.4157C226.998 61.1939 227.615 62.1177 228.036 63.1344C228.457 64.1511 228.674 65.2408 228.674 66.3413H228.674Z" fill="#7EB3FF"/>
<path d="M231.832 66.464C231.832 68.6737 231.177 70.8339 229.949 72.6712C228.722 74.5086 226.977 75.9406 224.935 76.7862C222.894 77.6318 220.647 77.853 218.48 77.4218C216.313 76.9906 214.322 75.9264 212.76 74.3637C211.197 72.801 210.133 70.8101 209.703 68.6428C209.272 66.4755 209.493 64.2291 210.339 62.1877C211.185 60.1463 212.618 58.4017 214.455 57.1744C216.293 55.9471 218.453 55.2924 220.663 55.293C222.13 55.2929 223.582 55.5819 224.938 56.1433C226.293 56.7047 227.524 57.5276 228.561 58.565C229.599 59.6023 230.421 60.8338 230.982 62.1892C231.544 63.5445 231.832 64.9971 231.832 66.464Z" fill="#FFCC00"/>
<path d="M231.49 66.4661C231.491 68.6085 230.856 70.703 229.666 72.4846C228.476 74.2661 226.784 75.6548 224.805 76.4748C222.825 77.2949 220.647 77.5096 218.546 77.0917C216.445 76.6738 214.514 75.6421 213 74.1271C211.485 72.6121 210.453 70.6819 210.035 68.5806C209.617 66.4793 209.832 64.3012 210.652 62.322C211.472 60.3427 212.861 58.6511 214.643 57.4611C216.424 56.2711 218.519 55.6362 220.661 55.6367C223.533 55.6372 226.287 56.7783 228.318 58.8091C230.349 60.8399 231.49 63.5941 231.49 66.4661Z" fill="#D98F00"/>
<path d="M229.193 66.464C229.193 68.1511 228.693 69.8003 227.756 71.2031C226.819 72.6059 225.486 73.6993 223.928 74.345C222.369 74.9907 220.654 75.1597 219 74.8307C217.345 74.5016 215.825 73.6893 214.632 72.4963C213.439 71.3034 212.627 69.7836 212.298 68.1289C211.969 66.4743 212.138 64.7592 212.783 63.2006C213.429 61.642 214.522 60.3099 215.925 59.3727C217.328 58.4355 218.977 57.9354 220.664 57.9355C222.926 57.9361 225.095 58.8348 226.694 60.4341C228.293 62.0333 229.192 64.2023 229.193 66.464Z" fill="#FFCC00"/>
<path d="M216.403 65.1728H217.345C217.404 64.6629 217.542 64.1655 217.755 63.6987C217.953 63.2595 218.226 62.8578 218.561 62.5112C218.891 62.1721 219.288 61.9047 219.727 61.7259C220.206 61.5338 220.719 61.4387 221.235 61.4459C222.14 61.4007 223.029 61.6955 223.727 62.2724C224.385 62.8959 224.779 63.7486 224.826 64.654H223.119C223.083 64.1513 222.87 63.6776 222.518 63.3166C222.169 62.9985 221.708 62.8316 221.235 62.8523C220.961 62.8368 220.687 62.8855 220.434 62.9944C220.182 63.1033 219.958 63.2696 219.781 63.4799C219.411 63.9722 219.186 64.5589 219.134 65.1728H221.945L221.782 66.0326H219.093V66.9613H221.604L221.454 67.821H219.134C219.18 68.4228 219.408 68.9963 219.788 69.4651C219.974 69.6629 220.202 69.8174 220.454 69.9178C220.706 70.0181 220.978 70.0619 221.249 70.046C222.386 70.046 223.046 69.3862 223.228 68.0665H224.921C224.856 69.0155 224.451 69.9093 223.782 70.5848C223.079 71.2068 222.16 71.5279 221.222 71.479C220.704 71.4876 220.189 71.3947 219.707 71.2058C219.274 71.0324 218.879 70.7749 218.546 70.4482C218.212 70.1154 217.942 69.7247 217.747 69.2951C217.537 68.8279 217.401 68.3304 217.345 67.821H216.403V66.9613H217.304V66.0326H216.403L216.403 65.1728Z" fill="#D98F00"/>
</g>
<path d="M224.693 26.6309L224.694 20.4095L221.415 19.7087C221.228 18.8031 220.976 17.9117 220.663 17.0414L223.074 14.8658L219.963 9.47704L216.768 10.5092C216.153 9.82118 215.49 9.17699 214.785 8.58135L215.787 5.48182L210.4 2.37085L208.15 4.86044C207.273 4.57257 206.377 4.34611 205.469 4.1827L204.787 1H198.566L197.863 4.27907C196.958 4.46643 196.067 4.71781 195.197 5.03133L193.018 2.61954L187.632 5.73023L188.664 8.92574C187.977 9.54137 187.333 10.2033 186.736 10.9068L183.637 9.90556L180.525 15.2943L183.015 17.5434C182.728 18.4204 182.501 19.3164 182.338 20.2248L179.155 20.9083L179.154 27.129L182.433 27.8311C182.621 28.7361 182.872 29.6268 183.185 30.4966L180.774 32.6765L183.885 38.0629L187.081 37.0306C187.696 37.7182 188.358 38.3624 189.062 38.9585L188.061 42.0579L193.449 45.1673L195.697 42.678C196.574 42.9659 197.47 43.1925 198.379 43.356L199.062 46.539H205.283L205.985 43.2605C206.891 43.0729 207.782 42.8219 208.653 42.5092L210.83 44.9185L216.218 41.8103L215.186 38.6134C215.873 37.998 216.517 37.3362 217.114 36.6325L220.212 37.6329L223.322 32.2454L220.833 29.9968C221.121 29.1193 221.348 28.2228 221.512 27.3137L224.693 26.6309ZM212.376 23.7704C212.376 25.8375 211.763 27.8581 210.614 29.5767C209.466 31.2954 207.834 32.6349 205.924 33.4259C204.014 34.2169 201.913 34.4239 199.885 34.0206C197.858 33.6173 195.996 32.6219 194.534 31.1603C193.073 29.6986 192.077 27.8364 191.674 25.8091C191.271 23.7817 191.478 21.6803 192.269 19.7706C193.06 17.8609 194.399 16.2287 196.118 15.0802C197.837 13.9318 199.857 13.3189 201.924 13.3188C203.297 13.3188 204.656 13.5892 205.924 14.1144C207.192 14.6396 208.344 15.4095 209.315 16.38C210.285 17.3505 211.055 18.5027 211.58 19.7708C212.105 21.0388 212.376 22.3979 212.376 23.7704H212.376Z" fill="#7EB3FF"/>
<path d="M216.314 23.9226C216.314 26.6786 215.497 29.3727 213.966 31.6643C212.435 33.9558 210.259 35.7418 207.713 36.7965C205.166 37.8511 202.365 38.1269 199.662 37.5891C196.959 37.0513 194.476 35.724 192.527 33.7751C190.579 31.8261 189.252 29.3431 188.715 26.64C188.177 23.937 188.454 21.1353 189.509 18.5893C190.564 16.0433 192.35 13.8674 194.642 12.3367C196.934 10.8061 199.628 9.98952 202.384 9.99023C204.214 9.9902 206.025 10.3506 207.716 11.0508C209.406 11.751 210.942 12.7772 212.235 14.071C213.529 15.3648 214.555 16.9007 215.255 18.5911C215.954 20.2814 216.314 22.0931 216.314 23.9226Z" fill="#FFCC00"/>
<path d="M215.889 23.9223C215.89 26.5943 215.098 29.2065 213.613 31.4285C212.129 33.6504 210.019 35.3823 207.551 36.4051C205.082 37.4279 202.366 37.6956 199.745 37.1744C197.124 36.6532 194.717 35.3665 192.828 33.4771C190.938 31.5876 189.652 29.1803 189.13 26.5595C188.609 23.9388 188.877 21.2223 189.9 18.7538C190.923 16.2852 192.655 14.1755 194.877 12.6914C197.099 11.2072 199.711 10.4154 202.383 10.416C205.965 10.4166 209.4 11.8397 211.933 14.3725C214.466 16.9053 215.889 20.3404 215.889 23.9223Z" fill="#D98F00"/>
<path d="M213.02 23.9218C213.02 26.0259 212.396 28.0828 211.228 29.8323C210.059 31.5819 208.397 32.9456 206.454 33.7509C204.51 34.5562 202.371 34.767 200.307 34.3566C198.243 33.9462 196.348 32.9331 194.86 31.4453C193.372 29.9575 192.359 28.0619 191.949 25.9983C191.538 23.9346 191.749 21.7956 192.554 19.8517C193.359 17.9078 194.723 16.2464 196.473 15.0776C198.222 13.9087 200.279 13.285 202.383 13.2852C205.204 13.2858 207.909 14.4067 209.904 16.4013C211.898 18.3959 213.019 21.101 213.02 23.9218Z" fill="#FFCC00"/>
<path d="M197.069 22.3139H198.244C198.317 21.678 198.489 21.0576 198.755 20.4755C199.002 19.9277 199.342 19.4266 199.76 18.9944C200.172 18.5714 200.667 18.238 201.215 18.0149C201.812 17.7754 202.452 17.6567 203.096 17.6658C204.224 17.6094 205.333 17.977 206.203 18.6966C207.024 19.4742 207.515 20.5377 207.574 21.6669H205.446C205.4 21.0399 205.135 20.4491 204.696 19.9989C204.26 19.6022 203.685 19.394 203.096 19.4198C202.754 19.4005 202.412 19.4612 202.097 19.597C201.782 19.7329 201.503 19.9402 201.282 20.2025C200.82 20.8165 200.54 21.5483 200.475 22.3139H203.981L203.778 23.3863H200.423V24.5445H203.556L203.369 25.6168H200.475C200.532 26.3673 200.817 27.0825 201.291 27.6672C201.523 27.9139 201.806 28.1066 202.121 28.2318C202.436 28.357 202.774 28.4116 203.113 28.3918C204.531 28.3918 205.354 27.5689 205.581 25.923H207.693C207.611 27.1065 207.107 28.2212 206.271 29.0637C205.395 29.8395 204.248 30.24 203.079 30.179C202.433 30.1897 201.791 30.0739 201.19 29.8382C200.649 29.622 200.157 29.3008 199.742 28.8933C199.325 28.4783 198.988 27.991 198.746 27.4553C198.483 26.8725 198.314 26.2521 198.244 25.6168H197.069V24.5445H198.193V23.3863H197.069L197.069 22.3139Z" fill="#D98F00"/>
</svg>
