<svg width="74" height="74" viewBox="0 0 74 74" fill="none" xmlns="http://www.w3.org/2000/svg">
<path d="M44.46 59.5098H29.36V69.2198H44.46V59.5098Z" stroke="#505050" stroke-miterlimit="10"/>
<path d="M36.91 59.3198V69.2198" stroke="#505050" stroke-miterlimit="10"/>
<path d="M45.16 18.2002H40.2V21.8902H45.16V18.2002Z" fill="#27D1D6" stroke="#27D1D6" stroke-miterlimit="10"/>
<path d="M43.49 16.3599H36.91V20.0499H43.49V16.3599Z" fill="#0066CC" stroke="#0066CC" stroke-miterlimit="10"/>
<path d="M36.91 25.1102V14.9302" stroke="#505050" stroke-miterlimit="10"/>
<path d="M7.77002 66.1802V69.2202" stroke="#505050" stroke-miterlimit="10"/>
<path d="M12.6 63.1699V73.4499" stroke="#505050" stroke-miterlimit="10"/>
<path d="M66.04 66.1802V69.2202" stroke="#505050" stroke-miterlimit="10"/>
<path d="M61.21 63.1699V73.4499" stroke="#505050" stroke-miterlimit="10"/>
<path d="M72.47 69.2202H1.33997V73.4502H72.47V69.2202Z" fill="white" stroke="#505050" stroke-miterlimit="10"/>
<path d="M29.36 73.4501V71.3301H44.46V73.4501" stroke="#505050" stroke-miterlimit="10"/>
<path d="M42.81 32.2499H68.93L71.57 39.9299H49.16L36.91 25.1099L24.65 39.9299H2.25L4.88 32.2499H31" stroke="#505050" stroke-miterlimit="10"/>
<path d="M36.91 45.7198C39.7818 45.7198 42.11 43.3917 42.11 40.5198C42.11 37.6479 39.7818 35.3198 36.91 35.3198C34.0381 35.3198 31.71 37.6479 31.71 40.5198C31.71 43.3917 34.0381 45.7198 36.91 45.7198Z" stroke="#505050" stroke-miterlimit="10"/>
<path d="M36.91 37.8999V40.5199H39.08" stroke="#505050" stroke-miterlimit="10"/>
<path d="M5.31006 39.9302V52.5502" stroke="#505050" stroke-miterlimit="10"/>
<path d="M68.5 39.9302V52.5502" stroke="#505050" stroke-miterlimit="10"/>
<path d="M17.21 58.55C17.239 59.1741 17.1412 59.7977 16.9224 60.3829C16.7036 60.9681 16.3683 61.5029 15.9369 61.9548C15.5055 62.4068 14.9869 62.7666 14.4125 63.0124C13.8381 63.2582 13.2198 63.3849 12.595 63.3849C11.9702 63.3849 11.3519 63.2582 10.7774 63.0124C10.203 62.7666 9.68444 62.4068 9.25303 61.9548C8.82163 61.5029 8.48638 60.9681 8.26757 60.3829C8.04875 59.7977 7.95092 59.1741 7.97998 58.55C7.99998 56 10.05 49 12.6 49C15.15 49 17.21 56 17.21 58.55Z" fill="white" stroke="#505050" stroke-miterlimit="10"/>
<path d="M11.5999 62.3501C11.5999 63.3659 11.1964 64.3401 10.4782 65.0583C9.7599 65.7766 8.78572 66.1801 7.76994 66.1801C6.75416 66.1801 5.77999 65.7766 5.06172 65.0583C4.34346 64.3401 3.93994 63.3659 3.93994 62.3501C3.93994 60.2401 5.64994 54.3501 7.76994 54.3501C9.88994 54.3501 11.5999 60.2401 11.5999 62.3501Z" fill="white" stroke="#505050" stroke-miterlimit="10"/>
<path d="M56.6 58.55C56.5709 59.1741 56.6687 59.7977 56.8876 60.3829C57.1064 60.9681 57.4416 61.5029 57.873 61.9548C58.3044 62.4068 58.823 62.7666 59.3974 63.0124C59.9719 63.2582 60.5902 63.3849 61.215 63.3849C61.8398 63.3849 62.4581 63.2582 63.0325 63.0124C63.6069 62.7666 64.1255 62.4068 64.5569 61.9548C64.9883 61.5029 65.3236 60.9681 65.5424 60.3829C65.7612 59.7977 65.859 59.1741 65.83 58.55C65.83 56 63.76 49 61.21 49C58.66 49 56.6 56 56.6 58.55Z" fill="white" stroke="#505050" stroke-miterlimit="10"/>
<path d="M62.21 62.3501C62.2602 63.3333 62.6861 64.2597 63.3998 64.9379C64.1135 65.6161 65.0604 65.9942 66.045 65.9942C67.0295 65.9942 67.9764 65.6161 68.6901 64.9379C69.4038 64.2597 69.8297 63.3333 69.88 62.3501C69.88 60.2401 68.16 54.3501 66.04 54.3501C63.92 54.3501 62.21 60.2401 62.21 62.3501Z" fill="white" stroke="#505050" stroke-miterlimit="10"/>
<path d="M9.32996 47.5701V44.8501H28.58V56.0601H20.26" stroke="#505050" stroke-miterlimit="10"/>
<path d="M64.48 47.5701V44.8501H45.23V56.0601H53.55" stroke="#505050" stroke-miterlimit="10"/>
<path d="M18.95 44.8501V53.4001" stroke="#505050" stroke-miterlimit="10"/>
<path d="M54.86 44.8501V53.4001" stroke="#505050" stroke-miterlimit="10"/>
</svg>
