<svg width="266" height="141" viewBox="0 0 266 141" fill="none" xmlns="http://www.w3.org/2000/svg">
<g clip-path="url(#clip0_13760_305753)">
<path d="M238.173 141H63.231C61.522 141 59.8828 140.322 58.6744 139.115C57.4659 137.907 56.7871 136.27 56.7871 134.563V6.46224C56.7855 5.6142 56.9512 4.77414 57.2749 3.99018C57.5986 3.20622 58.0739 2.49374 58.6736 1.8935C59.2733 1.29326 59.9856 0.817059 60.7698 0.492147C61.554 0.167235 62.3947 -1.6112e-06 63.2436 0H238.186C239.899 0.00333019 241.541 0.685642 242.752 1.89719C243.962 3.10873 244.642 4.75052 244.642 6.46224V134.563C244.641 135.41 244.472 136.248 244.146 137.03C243.82 137.812 243.343 138.522 242.742 139.12C242.141 139.718 241.429 140.191 240.645 140.514C239.861 140.836 239.021 141.002 238.173 141Z" fill="white"/>
<path d="M244.629 13.4776H56.7363V6.44965C56.7363 4.74127 57.4149 3.10269 58.623 1.8935C59.8311 0.684316 61.47 0.00333018 63.1802 0H238.122C238.97 0 239.81 0.166813 240.593 0.490939C241.376 0.815064 242.088 1.29014 242.688 1.88905C243.287 2.48796 243.763 3.19896 244.087 3.98147C244.412 4.76398 244.579 5.60267 244.579 6.44965L244.629 13.4776Z" fill="#0066CC"/>
<path d="M66.6172 6.73886C66.6172 7.45359 66.3338 8.13923 65.8291 8.64579C65.3243 9.15236 64.6393 9.43861 63.9238 9.44193C63.2084 9.43861 62.5234 9.15236 62.0186 8.64579C61.5139 8.13923 61.2305 7.45359 61.2305 6.73886C61.2305 6.0253 61.5143 5.34095 62.0194 4.83638C62.5245 4.33181 63.2095 4.04834 63.9238 4.04834C64.6382 4.04834 65.3232 4.33181 65.8283 4.83638C66.3334 5.34095 66.6172 6.0253 66.6172 6.73886Z" fill="#387BFF"/>
<path d="M75.1368 6.73889C75.1368 7.45579 74.8516 8.14333 74.3442 8.65025C73.8367 9.15718 73.1485 9.44196 72.4308 9.44196C72.0771 9.44031 71.7273 9.36909 71.4011 9.23236C71.075 9.09562 70.779 8.89606 70.53 8.64506C70.2811 8.39405 70.084 8.09652 69.9502 7.76946C69.8164 7.4424 69.7484 7.09221 69.75 6.73889C69.7484 6.38616 69.8165 6.03658 69.9505 5.71022C70.0845 5.38387 70.2817 5.08716 70.5308 4.83716C70.7799 4.58716 71.076 4.38879 71.4021 4.25343C71.7281 4.11806 72.0777 4.04837 72.4308 4.04837C72.7856 4.04671 73.1372 4.11508 73.4654 4.24955C73.7936 4.38402 74.092 4.58194 74.3434 4.83194C74.5948 5.08194 74.7945 5.3791 74.9306 5.70635C75.0667 6.0336 75.1368 6.38451 75.1368 6.73889Z" fill="#FBD260"/>
<path d="M83.6953 6.73889C83.697 7.09327 83.6285 7.44448 83.4939 7.77235C83.3593 8.10023 83.1611 8.39832 82.9109 8.64949C82.6606 8.90066 82.3631 9.09997 82.0355 9.23596C81.7079 9.37196 81.3567 9.44196 81.002 9.44196C80.2865 9.43864 79.6015 9.15239 79.0967 8.64582C78.592 8.13926 78.3086 7.45362 78.3086 6.73889C78.3086 6.02533 78.5924 5.34098 79.0975 4.83641C79.6026 4.33184 80.2876 4.04837 81.002 4.04837C81.3561 4.0467 81.707 4.11516 82.0345 4.24978C82.3621 4.3844 82.6597 4.58252 82.9101 4.83269C83.1605 5.08286 83.3588 5.38013 83.4936 5.70731C83.6284 6.03449 83.697 6.3851 83.6953 6.73889Z" fill="#EAF4FE"/>
<path d="M197.218 93.4006C199.048 88.2017 199.985 82.7309 199.987 77.2199C199.982 74.8175 199.805 72.4184 199.459 70.041L192.75 71.0343C192.068 66.3423 190.577 61.8037 188.345 57.6194L194.286 54.4512C191.689 49.5956 188.284 45.2166 184.217 41.5016L179.661 46.5306C176.168 43.3126 172.15 40.7146 167.78 38.8488L170.398 32.6632C165.312 30.5253 159.898 29.271 154.389 28.9543L153.999 35.6931C153.193 35.6931 152.375 35.5674 151.557 35.5674C147.629 35.5796 143.722 36.1468 139.953 37.2521L138.078 30.7773C132.782 32.3187 127.786 34.7461 123.302 37.9561L127.254 43.4629C123.401 46.2291 120.047 49.6303 117.337 53.5208L111.799 49.6611C108.642 54.1853 106.284 59.2156 104.826 64.5343L111.358 66.3196C110.36 69.8803 109.852 73.5601 109.848 77.2576C109.848 78.3011 109.949 79.3321 109.999 80.363L103.266 80.8533C103.686 86.3487 105.03 91.7339 107.243 96.7826L113.41 94.067C115.342 98.3976 117.998 102.368 121.263 105.81L116.342 110.449C120.118 114.464 124.559 117.798 129.469 120.306L132.553 114.309C136.77 116.479 141.329 117.908 146.032 118.533L145.164 125.222C147.284 125.497 149.419 125.636 151.557 125.636C154.915 125.642 158.264 125.297 161.55 124.605L160.166 118.03C164.812 117.048 169.253 115.27 173.293 112.775L176.829 118.533C181.526 115.661 185.701 112.013 189.176 107.746L183.928 103.496C186.928 99.8132 189.269 95.6409 190.85 91.1627L197.218 93.4006ZM177.887 77.2199C177.863 84.1869 175.076 90.8606 170.137 95.7788C165.197 100.697 158.506 103.459 151.532 103.459C144.553 103.449 137.863 100.674 132.93 95.7433C127.996 90.8126 125.222 84.1284 125.215 77.157C125.225 70.1878 128.001 63.5069 132.934 58.5789C137.868 53.651 144.555 50.878 151.532 50.8681C158.513 50.8714 165.207 53.6414 170.146 58.5701C175.085 63.4988 177.864 70.1835 177.874 77.157" fill="#7EB3FF"/>
<path d="M151.633 108.588C143.113 108.585 134.943 105.202 128.92 99.1827C122.897 93.1637 119.514 85.0014 119.514 76.4908C119.509 72.2742 120.336 68.098 121.948 64.2009C123.56 60.3038 125.925 56.7624 128.908 53.779C131.891 50.7957 135.433 48.4289 139.332 46.8142C143.232 45.1994 147.411 44.3682 151.633 44.3682C155.852 44.3666 160.03 45.1953 163.928 46.8069C167.826 48.4186 171.368 50.7817 174.352 53.7612C177.336 56.7408 179.703 60.2783 181.318 64.1718C182.933 68.0654 183.764 72.2386 183.764 76.4531C183.764 84.9659 180.379 93.13 174.353 99.1494C168.327 105.169 160.154 108.551 151.633 108.551" fill="#0D5AAD"/>
<path d="M163.551 79.3951C160.741 78.0821 157.736 77.2329 154.653 76.8806C154.766 76.1514 154.867 75.4222 154.968 74.693C155.279 74.5276 155.551 74.2989 155.768 74.0217C155.985 73.7445 156.141 73.4249 156.226 73.0837L156.453 71.0595C156.553 71.162 156.687 71.2246 156.83 71.2355C156.985 71.2496 157.14 71.202 157.26 71.1032C157.38 71.0043 157.456 70.8622 157.472 70.7075L157.787 67.6021C157.797 67.5258 157.792 67.4482 157.772 67.3739C157.751 67.2997 157.716 67.2304 157.667 67.1704C157.619 67.1104 157.559 67.0608 157.491 67.0248C157.423 66.9888 157.348 66.967 157.271 66.9609C157.154 66.9362 157.032 66.9588 156.931 67.0238C156.931 66.4203 157.07 65.8294 157.132 65.2385C157.132 64.4213 157.586 62.2588 156.025 60.8507C154.67 59.7768 152.991 59.1923 151.261 59.1923C149.531 59.1923 147.852 59.7768 146.497 60.8507C144.937 62.2588 145.327 64.4213 145.377 65.2385C145.453 65.8294 145.516 66.4203 145.591 67.0238C145.49 66.9601 145.369 66.9376 145.251 66.9609C145.097 66.9768 144.954 67.053 144.855 67.1731C144.756 67.2931 144.709 67.4472 144.723 67.6021L145.05 70.7075C145.056 70.7847 145.078 70.8599 145.114 70.9286C145.15 70.9972 145.199 71.058 145.259 71.1073C145.319 71.1565 145.388 71.1933 145.463 71.2153C145.537 71.2373 145.615 71.2442 145.692 71.2355C145.832 71.225 145.962 71.1622 146.057 71.0595C146.132 71.7259 146.221 72.4048 146.296 73.0837C146.382 73.4249 146.538 73.7445 146.754 74.0217C146.971 74.2989 147.244 74.5276 147.555 74.693L147.857 76.8806C144.778 77.2329 141.777 78.0821 138.971 79.3951C138.512 79.6687 138.134 80.0602 137.877 80.5289C137.621 80.9976 137.494 81.5264 137.511 82.0604C137.625 83.1542 137.725 84.2606 137.851 85.3544C137.918 85.8388 138.126 86.293 138.448 86.6615C138.77 87.0299 139.192 87.2966 139.663 87.4289C147.366 88.6736 155.219 88.6736 162.922 87.4289C163.396 87.2987 163.821 87.0329 164.145 86.6643C164.469 86.2957 164.678 85.8404 164.747 85.3544C164.86 84.2606 164.973 83.1542 165.074 82.0604C165.094 81.5274 164.97 80.9989 164.715 80.5301C164.461 80.0612 164.085 79.6693 163.627 79.3951" fill="#EAF4FD"/>
<path d="M150.903 59.1787C149.272 59.1752 147.694 59.76 146.46 60.8257C144.9 62.2338 145.29 64.3962 145.353 65.2134C145.353 65.8043 145.479 66.3953 145.554 66.9987C145.453 66.935 145.332 66.9125 145.214 66.9359C145.06 66.9518 144.917 67.028 144.818 67.148C144.719 67.2681 144.672 67.4222 144.686 67.5771L145.013 70.695C145.021 70.7712 145.044 70.845 145.08 70.9122C145.117 70.9794 145.166 71.0387 145.226 71.0867C145.286 71.1346 145.355 71.1703 145.428 71.1915C145.502 71.2128 145.579 71.2192 145.655 71.2105C145.725 71.2057 145.794 71.1865 145.857 71.1541C145.92 71.1216 145.975 71.0766 146.02 71.0219C146.095 71.7008 146.183 72.3797 146.259 73.0587C146.344 73.3999 146.501 73.7195 146.717 73.9967C146.934 74.2739 147.207 74.5026 147.518 74.6679L147.82 76.8555C144.741 77.2079 141.74 78.0571 138.934 79.37C138.475 79.6436 138.097 80.0351 137.84 80.5038C137.584 80.9725 137.457 81.5014 137.474 82.0354C137.587 83.1418 137.688 84.2356 137.801 85.3294C137.87 85.8153 138.079 86.2707 138.403 86.6393C138.727 87.0079 139.153 87.2736 139.626 87.4038C143.372 88.0081 147.159 88.3192 150.953 88.3342L150.903 59.1787Z" fill="#C6E1F8"/>
<path d="M236.046 72.2287H253.213C253.356 72.2293 253.497 72.2019 253.628 72.148C253.76 72.094 253.88 72.0147 253.981 71.9144C254.081 71.8135 254.161 71.6939 254.215 71.5623C254.269 71.4307 254.296 71.2897 254.296 71.1475C254.297 71.0032 254.27 70.8601 254.216 70.7263C254.162 70.5926 254.082 70.4708 253.981 70.368C253.88 70.2677 253.76 70.1884 253.628 70.1344C253.497 70.0805 253.356 70.053 253.213 70.0537H236.046C235.755 70.0545 235.476 70.167 235.266 70.368C235.165 70.4708 235.085 70.5926 235.031 70.7263C234.977 70.8601 234.95 71.0032 234.951 71.1475C234.951 71.2897 234.978 71.4307 235.032 71.5623C235.086 71.6939 235.166 71.8135 235.266 71.9144C235.476 72.1154 235.755 72.2279 236.046 72.2287Z" fill="#0058B0"/>
<path d="M223.258 28.3131C223.272 22.6499 225.535 17.2237 229.551 13.2262C233.552 9.21473 238.984 6.95381 244.654 6.93994C247.461 6.9427 250.241 7.49945 252.833 8.57822C255.425 9.65699 257.777 11.2365 259.756 13.2262C263.772 17.2237 266.035 22.6499 266.049 28.3131C266.049 29.0046 265.533 38.874 257.479 49.2337C255.125 52.3516 255.515 58.6379 255.528 58.6379H233.717C233.717 58.6379 234.182 52.3516 231.829 49.2337C223.761 38.8614 223.258 29.0046 223.258 28.3131Z" fill="#D98F00"/>
<path d="M237.77 55.8592C237.619 53.1687 236.964 48.102 235.253 45.8893C227.588 36.0451 227.248 26.7289 227.248 26.6283C227.247 21.7062 229.203 16.9851 232.685 13.5026C234.413 11.7788 236.464 10.4118 238.72 9.47991C240.977 8.54799 243.395 8.06936 245.837 8.07136C250.766 8.07538 255.492 10.0333 258.977 13.5152C260.702 15.2388 262.07 17.2852 263.003 19.5374C263.936 21.7896 264.416 24.2034 264.414 26.6408C264.414 26.7163 264.061 36.045 256.435 45.8515C254.748 48.102 254.056 53.1561 253.917 55.9095L237.77 55.8592Z" fill="#FFCC00"/>
<path d="M261.405 29.9729C261.185 29.9749 260.967 29.9321 260.763 29.8471C260.557 29.7692 260.372 29.6444 260.222 29.4825C260.068 29.3263 259.945 29.143 259.857 28.9419C259.771 28.7394 259.728 28.5209 259.731 28.3007C259.718 24.2892 258.122 20.4447 255.289 17.6016C252.441 14.7673 248.585 13.1759 244.566 13.1761C244.347 13.1771 244.132 13.1341 243.93 13.0499C243.729 12.9657 243.547 12.8418 243.395 12.6858C243.081 12.3724 242.905 11.9473 242.904 11.5039C242.905 11.0606 243.081 10.6355 243.395 10.3221C243.547 10.1661 243.729 10.0422 243.93 9.95798C244.132 9.87373 244.347 9.83082 244.566 9.8318C246.995 9.83122 249.4 10.3096 251.644 11.2394C253.888 12.1693 255.927 13.5323 257.642 15.2505C261.113 18.7098 263.068 23.4031 263.079 28.3007C263.08 28.5204 263.037 28.7379 262.952 28.9408C262.868 29.1437 262.744 29.3278 262.588 29.4825C262.275 29.7962 261.849 29.9726 261.405 29.9729Z" fill="#FFDD55"/>
<path d="M239.154 60.2847L236.373 38.283L237.493 37.9561L240.262 59.9578L239.154 60.2847Z" fill="#0058B0"/>
<path d="M250.078 60.2847L252.86 38.283L251.74 37.9561L248.971 59.9578L250.078 60.2847Z" fill="#0058B0"/>
<path d="M251.891 41.0363C251.123 41.0363 250.796 40.2945 250.557 39.779C250.456 39.5653 250.242 39.0875 250.117 39.0875C249.991 39.0875 249.789 39.5653 249.689 39.779C249.449 40.3322 249.11 41.0363 248.355 41.0363C247.599 41.0363 247.247 40.2945 247.008 39.779C247.008 39.6659 246.869 39.4647 246.781 39.3138C246.379 40.0305 245.674 41.074 244.805 41.074C243.937 41.074 243.698 40.3322 243.459 39.8167C243.358 39.5904 243.144 39.1253 243.031 39.1253C242.918 39.1253 242.704 39.5904 242.603 39.8167C242.351 40.3699 242.024 41.074 241.256 41.074C240.488 41.074 240.149 40.3322 239.91 39.8167C239.809 39.603 239.595 39.1253 239.482 39.1253C239.368 39.1253 239.142 39.5904 239.041 39.8167C238.802 40.3699 238.475 41.074 237.707 41.074V40.0808C237.82 40.0808 238.034 39.6156 238.135 39.3767C238.374 38.8361 238.714 38.1195 239.482 38.1195C240.249 38.1195 240.577 38.8612 240.816 39.3767C240.929 39.6156 241.13 40.0808 241.256 40.0808C241.382 40.0808 241.583 39.6156 241.684 39.3767C241.923 38.8361 242.263 38.1195 243.031 38.1195C243.799 38.1195 244.126 38.8612 244.365 39.3767C244.465 39.6156 244.68 40.0808 244.805 40.0808C244.931 40.0808 245.724 39.2761 246.064 38.3835C246.11 38.2987 246.174 38.2256 246.253 38.1698C246.336 38.1183 246.432 38.0921 246.53 38.0943C247.297 38.0943 247.625 38.8361 247.864 39.3516C247.964 39.5904 248.178 40.0556 248.304 40.0556C248.43 40.0556 248.631 39.5904 248.732 39.3641C248.971 38.811 249.311 38.1069 250.066 38.1069C250.821 38.1069 251.174 38.8487 251.413 39.3641C251.514 39.5904 251.728 40.0556 251.841 40.0556L251.891 41.0363Z" fill="#0058B0"/>
<path d="M255.503 58.751V69.9153C255.504 70.0972 255.469 70.2774 255.399 70.4457C255.33 70.614 255.229 70.767 255.1 70.896C254.971 71.0242 254.818 71.1258 254.65 71.1948C254.481 71.2638 254.301 71.299 254.119 71.2983H235.152C234.97 71.299 234.789 71.2638 234.621 71.1948C234.453 71.1258 234.299 71.0242 234.17 70.896C233.915 70.6325 233.771 70.2816 233.768 69.9153V58.751H255.503Z" fill="#0058B0"/>
<path d="M255.943 60.9261H233.288C233.145 60.9274 233.003 60.8974 232.873 60.8381C232.74 60.79 232.62 60.7127 232.521 60.6118C232.416 60.5089 232.334 60.3846 232.282 60.2472C232.221 60.1174 232.191 59.9755 232.194 59.8323C232.191 59.6891 232.221 59.5472 232.282 59.4174C232.334 59.2801 232.416 59.1557 232.521 59.0528C232.62 58.952 232.74 58.8746 232.873 58.8265C233.003 58.7673 233.145 58.7372 233.288 58.7385H255.943C256.086 58.7374 256.229 58.7658 256.361 58.822C256.493 58.8783 256.612 58.9611 256.711 59.0654C256.815 59.1639 256.898 59.2828 256.954 59.4148C257.01 59.5468 257.039 59.6889 257.038 59.8323C257.039 59.9758 257.01 60.1179 256.954 60.2498C256.898 60.3818 256.815 60.5007 256.711 60.5992C256.612 60.7035 256.493 60.7863 256.361 60.8426C256.229 60.8988 256.086 60.9273 255.943 60.9261Z" fill="#0058B0"/>
<path d="M245.937 60.373H233.352C233.273 60.3908 233.191 60.3908 233.112 60.373C233.042 60.3431 232.978 60.3005 232.924 60.2472C232.866 60.1886 232.82 60.1206 232.785 60.0461C232.773 59.9711 232.773 59.8947 232.785 59.8198C232.772 59.7407 232.772 59.66 232.785 59.5809C232.82 59.5064 232.866 59.4384 232.924 59.3797C232.978 59.3265 233.042 59.2839 233.112 59.254C233.192 59.2423 233.272 59.2423 233.352 59.254H245.937C246.018 59.2532 246.098 59.2696 246.172 59.3021C246.246 59.3347 246.312 59.3826 246.365 59.4426C246.421 59.4988 246.466 59.5655 246.496 59.6388C246.526 59.7122 246.542 59.7907 246.541 59.8701C246.54 60.03 246.477 60.1833 246.365 60.2975C246.237 60.3748 246.084 60.4017 245.937 60.373Z" fill="#4B96E1"/>
<path d="M255.943 64.572H233.288C233.147 64.5704 233.006 64.5449 232.873 64.4966C232.742 64.4394 232.622 64.3584 232.521 64.2577C232.419 64.1572 232.337 64.0375 232.282 63.9057C232.221 63.7714 232.191 63.6254 232.194 63.4782C232.191 63.335 232.221 63.1932 232.282 63.0633C232.337 62.9276 232.418 62.8039 232.521 62.6987C232.62 62.5979 232.74 62.5205 232.873 62.4724C233.003 62.4132 233.145 62.3832 233.288 62.3844H255.943C256.086 62.3833 256.229 62.4117 256.361 62.468C256.493 62.5242 256.612 62.607 256.711 62.7113C256.815 62.8098 256.898 62.9288 256.954 63.0607C257.01 63.1927 257.039 63.3348 257.038 63.4782C257.038 63.6234 257.009 63.767 256.952 63.9008C256.896 64.0347 256.814 64.156 256.711 64.2577C256.61 64.358 256.49 64.4373 256.358 64.4913C256.226 64.5452 256.085 64.5727 255.943 64.572Z" fill="#0058B0"/>
<path d="M255.945 68.2559H233.29C233.149 68.2543 233.008 68.2288 232.875 68.1805C232.739 68.1249 232.615 68.0438 232.51 67.9416C232.412 67.8377 232.331 67.7188 232.271 67.5896C232.221 67.4525 232.195 67.3079 232.195 67.1621C232.195 67.0203 232.22 66.8797 232.271 66.7472C232.331 66.614 232.412 66.491 232.51 66.3826C232.616 66.2841 232.74 66.2072 232.875 66.1563C233.005 66.097 233.147 66.067 233.29 66.0683H255.945C256.234 66.0717 256.51 66.1892 256.712 66.3952C256.813 66.4961 256.892 66.6157 256.946 66.7473C257 66.8789 257.028 67.0199 257.027 67.1621C257.026 67.4526 256.914 67.7317 256.712 67.9416C256.611 68.0418 256.492 68.1212 256.36 68.1751C256.228 68.2291 256.087 68.2565 255.945 68.2559Z" fill="#0058B0"/>
<path d="M245.937 63.8554H233.352C233.272 63.8686 233.192 63.8686 233.112 63.8554C233.041 63.8284 232.976 63.7854 232.924 63.7297C232.866 63.6711 232.82 63.603 232.785 63.5286C232.772 63.4495 232.772 63.3688 232.785 63.2897C232.773 63.2147 232.773 63.1384 232.785 63.0634C232.82 62.9889 232.866 62.9209 232.924 62.8622C232.976 62.8065 233.041 62.7635 233.112 62.7365C233.191 62.7178 233.273 62.7178 233.352 62.7365H245.937C246.017 62.7363 246.095 62.7517 246.169 62.7819C246.242 62.8122 246.309 62.8565 246.365 62.9125C246.477 63.0268 246.54 63.18 246.541 63.34C246.542 63.4193 246.526 63.4979 246.496 63.5712C246.466 63.6446 246.421 63.7112 246.365 63.7674C246.253 63.884 246.099 63.9517 245.937 63.956V63.8554Z" fill="#4B96E1"/>
<path d="M245.938 67.5392H233.352C233.273 67.5394 233.194 67.524 233.121 67.4938C233.047 67.4636 232.981 67.4192 232.924 67.3632C232.812 67.249 232.749 67.0957 232.748 66.9357C232.75 66.7722 232.813 66.6152 232.924 66.4957C232.981 66.4397 233.047 66.3954 233.121 66.3652C233.194 66.3349 233.273 66.3195 233.352 66.3197H245.938C246.017 66.3195 246.096 66.3349 246.169 66.3652C246.243 66.3954 246.31 66.4397 246.366 66.4957C246.478 66.6152 246.54 66.7722 246.542 66.9357C246.541 67.0957 246.478 67.249 246.366 67.3632C246.31 67.4192 246.243 67.4636 246.169 67.4938C246.096 67.524 246.017 67.5394 245.938 67.5392Z" fill="#4B96E1"/>
<path d="M247.46 60.9386H236.725V62.045H247.46V60.9386Z" fill="#1569BE"/>
<path d="M247.46 64.484H236.725V65.5904H247.46V64.484Z" fill="#1569BE"/>
<path d="M247.46 68.0297H236.725V69.1486H247.46V68.0297Z" fill="#1569BE"/>
<path d="M75.3223 64.1786H80.9963C81.6819 64.1804 82.361 64.0472 82.9949 63.7865C83.6288 63.5259 84.2052 63.143 84.6908 62.6596C85.6642 61.6774 86.2105 60.3514 86.2114 58.9692C86.2105 57.5871 85.6642 56.2611 84.6908 55.2788C84.2052 54.7955 83.6288 54.4126 82.9949 54.1519C82.361 53.8913 81.6819 53.7581 80.9963 53.7598H75.3223V64.1786Z" fill="#D98F00"/>
<path d="M80.9971 64.1786H22.3575H21.4901C20.2158 64.1887 18.989 64.6636 18.0407 65.5141C17.0839 66.3642 16.4736 67.5362 16.3262 68.8069C16.3262 70.2239 16.3262 115.019 16.3262 117.343C16.4754 116.073 17.0854 114.901 18.0407 114.05C18.9973 113.202 20.2318 112.734 21.5105 112.735H22.7045H81.0176C82.2959 112.734 83.5299 112.266 84.4874 111.42C85.4389 110.566 86.0481 109.396 86.2019 108.127C86.2019 106.71 86.2019 61.9154 86.2019 59.5911C86.0508 60.8606 85.4412 62.0314 84.4874 62.8839C83.5299 63.73 82.2959 64.1976 81.0176 64.199L80.9971 64.1786Z" fill="#C5E1F9"/>
<path d="M76.6709 88.9614H21.0215V89.9809H76.6709V88.9614Z" fill="#0066CC"/>
<path d="M70.526 89.471C70.5243 90.2507 70.2936 91.0128 69.8627 91.6629C69.4297 92.3086 68.8155 92.8122 68.0972 93.1105C67.3773 93.4078 66.5854 93.4858 65.8213 93.3348C65.0485 93.1852 64.3379 92.809 63.7802 92.2541C63.2253 91.6967 62.8488 90.987 62.6985 90.2152C62.5615 89.4496 62.6464 88.6608 62.9434 87.9419C63.2457 87.2207 63.7532 86.604 64.4028 86.168C65.0497 85.7372 65.8093 85.5067 66.5867 85.5054C67.1056 85.5045 67.6195 85.6086 68.0972 85.8112C68.5752 86.0043 69.0092 86.2921 69.3728 86.6574C69.7378 87.0271 70.0288 87.4631 70.23 87.9419C70.425 88.4175 70.5255 88.9265 70.526 89.4405V89.471Z" fill="#C5E1F9"/>
<path d="M66.5873 93.9057C65.7105 93.9047 64.8542 93.642 64.1279 93.1513C63.3867 92.6555 62.8166 91.9436 62.4951 91.1124C62.1565 90.3039 62.0677 89.4128 62.24 88.5536C62.4125 87.696 62.835 86.9086 63.4543 86.2904C64.0732 85.6716 64.8615 85.2496 65.7199 85.0772C66.5801 84.9051 67.4721 84.9939 68.2814 85.3321C69.1135 85.6532 69.8262 86.2228 70.3225 86.9632C70.8137 87.6887 71.0767 88.5442 71.0777 89.4201C71.0734 90.5948 70.6037 91.72 69.7714 92.5498C69.3614 92.9633 68.8734 93.2915 68.3356 93.5155C67.7979 93.7395 67.221 93.8548 66.6384 93.8547L66.5873 93.9057ZM66.5873 86.0355C65.9085 86.0317 65.244 86.2305 64.6789 86.6064C64.1113 86.9874 63.6678 87.5261 63.4033 88.156C63.1459 88.7855 63.0786 89.4765 63.2094 90.1439C63.3446 90.8103 63.6709 91.423 64.1484 91.9075C64.6334 92.3845 65.2468 92.7104 65.9139 92.8454C66.5819 92.9767 67.2737 92.9094 67.9038 92.6517C68.5334 92.3907 69.0727 91.9513 69.4551 91.3876C69.833 90.8196 70.0352 90.1531 70.0367 89.4711C70.0313 88.5593 69.6643 87.6868 69.0162 87.0448C68.6974 86.722 68.3177 86.4658 67.899 86.2908C67.4803 86.1158 67.0311 86.0255 66.5772 86.0253L66.5873 86.0355Z" fill="#0066CC"/>
<path d="M55.4541 86.209H41.5137V92.7335H55.4746L55.4541 86.209Z" fill="#C5E1F9"/>
<path d="M55.9445 93.2227H41.0039V85.7196H55.9445V93.2227ZM41.9938 92.2033H54.9546V86.6779H41.9938V92.2033Z" fill="#0066CC"/>
<path d="M81.4353 86.209H74.9141V92.7335H81.4353V86.209Z" fill="#EAF4FE"/>
<path d="M81.3143 93.2227H73.793V85.7196H81.3143V93.2227ZM74.7931 92.2033H80.2937V86.6779H74.7624L74.7931 92.2033Z" fill="#0066CC"/>
<path d="M81.8636 85.1078H73.332V93.6304H81.8636V85.1078Z" fill="#2A66C4"/>
<path d="M75.3222 88.513C75.2515 88.4981 75.1786 88.4981 75.1079 88.513C75.044 88.5443 74.9854 88.5856 74.9344 88.6353C74.8357 88.7442 74.7811 88.886 74.7813 89.0329C74.7795 89.1832 74.8342 89.3286 74.9344 89.4407C74.9872 89.4928 75.0497 89.5343 75.1181 89.563C75.1853 89.5783 75.255 89.5783 75.3222 89.563C75.3929 89.5776 75.4658 89.5776 75.5365 89.563C75.6004 89.5316 75.659 89.4904 75.71 89.4407C75.8059 89.3307 75.8569 89.1888 75.8529 89.0431C75.859 88.897 75.8077 88.7544 75.71 88.6455C75.662 88.5898 75.6029 88.5447 75.5365 88.513C75.4658 88.4981 75.3929 88.4981 75.3222 88.513Z" fill="white"/>
<path d="M78.3436 90.3581H77.5884V91.6834H76.6699V87.1264H78.3436C78.5608 87.0931 78.7828 87.1106 78.992 87.1776C79.2013 87.2445 79.392 87.3591 79.5494 87.5123C79.7067 87.6656 79.8262 87.8532 79.8986 88.0604C79.9709 88.2677 79.9942 88.4889 79.9663 88.7066C79.9944 89.1536 79.8439 89.5935 79.5479 89.9299C79.3877 90.0805 79.1979 90.1964 78.9907 90.27C78.7834 90.3437 78.5631 90.3737 78.3436 90.3581ZM77.5884 89.5629H78.3334C78.8028 89.5629 79.0274 89.2775 79.0274 88.7066C79.0467 88.493 78.9887 88.2797 78.8641 88.1051C78.7956 88.0357 78.7117 87.9833 78.6192 87.9522C78.525 87.9315 78.4275 87.9315 78.3334 87.9522H77.5884V89.5629Z" fill="white"/>
<path d="M31.4601 83.8641L25.8574 89.4609L31.4601 95.0577L37.0526 89.4609L31.4601 83.8641Z" fill="#C5E1F9"/>
<path d="M31.4599 95.7715L25.1836 89.4713L31.4905 83.1813L37.7871 89.4713L31.4599 95.7715ZM26.5511 89.4713L31.4599 94.3646L36.3583 89.4713L31.4599 84.5779L26.5511 89.4713Z" fill="#0066CC"/>
<path d="M42.3709 99.5433H30.8594V95.231H31.8799V98.5544H42.4015L42.3709 99.5433Z" fill="#0066CC"/>
<path d="M31.8487 83.7213H30.8281V79.3989H42.3397V80.4183H31.818L31.8487 83.7213Z" fill="#0066CC"/>
<path d="M67.3728 99.5433H55.8613V98.5238H66.3829V93.2227H67.4035L67.3728 99.5433Z" fill="#0066CC"/>
<path d="M67.3722 85.6991H66.3517V80.3878H55.8301V79.3683H67.3417L67.3722 85.6991Z" fill="#0066CC"/>
<path d="M55.4541 76.983H41.5137V83.5074H55.4746L55.4541 76.983Z" fill="#C5E1F9"/>
<path d="M55.9445 83.9966H41.0039V76.4833H55.9445V83.9966ZM41.9938 82.9772H54.9546V77.4416H41.9938V82.9772Z" fill="#0066CC"/>
<path d="M55.4541 95.445H41.5137V101.959H55.4746L55.4541 95.445Z" fill="#C5E1F9"/>
<path d="M55.9445 102.459H41.0039V94.9454H55.9445V102.459ZM41.9938 101.439H54.9546V95.9037H41.9938V101.439Z" fill="#0066CC"/>
</g>
<defs>
<clipPath id="clip0_13760_305753">
<rect width="266" height="141" fill="white"/>
</clipPath>
</defs>
</svg>
