<svg width="368" height="280" viewBox="0 0 368 280" fill="none" xmlns="http://www.w3.org/2000/svg">
<g clip-path="url(#clip0_3895_34859)">
<path d="M315.741 35H43.1238C33.1158 35 25 43.6647 25 54.3573V206.451C25 217.143 33.1158 225.808 43.1238 225.808H315.741C325.749 225.808 333.865 217.143 333.865 206.451V54.3573C333.865 43.6647 325.749 35 315.741 35Z" fill="white"/>
<path d="M25.3062 52.9931C25.3086 48.2218 27.2169 43.6466 30.6118 40.2728C34.0066 36.8989 38.6103 35.0024 43.4114 35H315.759C320.561 35.0024 325.164 36.8989 328.559 40.2728C331.954 43.6466 333.862 48.2218 333.865 52.9931H25.3062Z" fill="#9AC7F7"/>
<path d="M310.843 47.9875C311.638 47.9875 312.414 47.7534 313.075 47.3148C313.735 46.8763 314.25 46.2529 314.554 45.5236C314.858 44.7943 314.937 43.9918 314.782 43.2175C314.627 42.4433 314.245 41.7321 313.683 41.1739C313.121 40.6157 312.406 40.2356 311.627 40.0816C310.848 39.9276 310.04 40.0066 309.306 40.3087C308.573 40.6108 307.945 41.1224 307.504 41.7787C307.063 42.4351 306.827 43.2068 306.827 43.9962C306.827 45.0547 307.25 46.0699 308.003 46.8185C308.757 47.567 309.778 47.9875 310.843 47.9875Z" fill="white"/>
<path d="M296.876 47.9875C297.67 47.9875 298.447 47.7534 299.107 47.3148C299.768 46.8763 300.282 46.2529 300.586 45.5236C300.89 44.7943 300.97 43.9918 300.815 43.2175C300.66 42.4433 300.278 41.7321 299.716 41.1739C299.154 40.6157 298.439 40.2356 297.66 40.0816C296.88 39.9276 296.073 40.0066 295.339 40.3087C294.605 40.6108 293.978 41.1224 293.537 41.7787C293.095 42.4351 292.86 43.2068 292.86 43.9962C292.86 45.0547 293.283 46.0699 294.036 46.8185C294.789 47.567 295.811 47.9875 296.876 47.9875Z" fill="#0450CF"/>
<path d="M282.916 47.9875C283.71 47.9875 284.487 47.7534 285.147 47.3148C285.808 46.8763 286.323 46.2529 286.627 45.5236C286.93 44.7943 287.01 43.9918 286.855 43.2175C286.7 42.4433 286.318 41.7321 285.756 41.1739C285.194 40.6157 284.479 40.2356 283.7 40.0816C282.921 39.9276 282.113 40.0066 281.379 40.3087C280.645 40.6108 280.018 41.1224 279.577 41.7787C279.135 42.4351 278.9 43.2068 278.9 43.9962C278.9 45.0547 279.323 46.0699 280.076 46.8185C280.829 47.567 281.851 47.9875 282.916 47.9875Z" fill="#003E99"/>
<path d="M125.311 110.982H50.563C47.7948 110.982 45.5508 113.158 45.5508 115.843V194.507C45.5508 197.192 47.7948 199.368 50.563 199.368H125.311C128.079 199.368 130.323 197.192 130.323 194.507V115.843C130.323 113.158 128.079 110.982 125.311 110.982Z" fill="#EAF4FE"/>
<path d="M88.7291 151.353C94.1395 151.353 98.5256 146.982 98.5256 141.591C98.5256 136.2 94.1395 131.83 88.7291 131.83C83.3186 131.83 78.9326 136.2 78.9326 141.591C78.9326 146.982 83.3186 151.353 88.7291 151.353Z" fill="#50A7EF"/>
<path d="M101.983 176.618H75.4746V164.188C75.4746 161.395 76.5934 158.716 78.5852 156.74C80.577 154.764 83.2788 153.652 86.0969 153.65H91.3605C94.1785 153.652 96.8803 154.764 98.8721 156.74C100.864 158.716 101.983 161.395 101.983 164.188V176.618Z" fill="#50A7EF"/>
<path d="M217.713 110.982H142.965C140.197 110.982 137.953 113.158 137.953 115.843V194.507C137.953 197.192 140.197 199.368 142.965 199.368H217.713C220.481 199.368 222.725 197.192 222.725 194.507V115.843C222.725 113.158 220.481 110.982 217.713 110.982Z" fill="#EAF4FE"/>
<path d="M181.131 151.353C186.541 151.353 190.927 146.982 190.927 141.591C190.927 136.2 186.541 131.83 181.131 131.83C175.72 131.83 171.334 136.2 171.334 141.591C171.334 146.982 175.72 151.353 181.131 151.353Z" fill="#FFBF0D"/>
<path d="M194.385 176.618H167.876V164.188C167.876 161.395 168.995 158.716 170.987 156.74C172.979 154.764 175.681 153.652 178.499 153.65H183.762C186.58 153.652 189.282 154.764 191.274 156.74C193.266 158.716 194.385 161.395 194.385 164.188V176.618Z" fill="#FFBF0D"/>
<path d="M310.115 110.982H235.367C232.599 110.982 230.355 113.158 230.355 115.843V194.507C230.355 197.192 232.599 199.368 235.367 199.368H310.115C312.883 199.368 315.127 197.192 315.127 194.507V115.843C315.127 113.158 312.883 110.982 310.115 110.982Z" fill="#EAF4FE"/>
<path d="M273.533 151.353C278.943 151.353 283.329 146.982 283.329 141.591C283.329 136.2 278.943 131.83 273.533 131.83C268.122 131.83 263.736 136.2 263.736 141.591C263.736 146.982 268.122 151.353 273.533 151.353Z" fill="#0058B0"/>
<path d="M286.786 176.618H260.278V164.188C260.278 161.395 261.397 158.716 263.389 156.74C265.381 154.764 268.082 153.652 270.901 153.65H276.164C278.982 153.652 281.684 154.764 283.676 156.74C285.668 158.716 286.786 161.395 286.786 164.188V176.618Z" fill="#0058B0"/>
<path d="M315.008 63.5752H267.982V66.0824H315.008V63.5752Z" fill="#2A66C4"/>
<path d="M315 68.1748H269.635V70.682H315V68.1748Z" fill="#2A66C4"/>
<path d="M314.998 72.6738H294.945V75.1811H314.998V72.6738Z" fill="#2A66C4"/>
<path d="M73.9632 62.9946H45.6553V89.7262H73.9632V62.9946Z" fill="#2A66C4"/>
<path d="M52.2516 73.6508C52.0142 73.6461 51.778 73.6868 51.556 73.7706C51.3361 73.8533 51.1368 73.9822 50.9716 74.1485C50.8097 74.3139 50.6833 74.5103 50.6004 74.7259C50.5175 74.9414 50.4797 75.1716 50.4893 75.4021C50.4795 75.6341 50.5172 75.8657 50.6001 76.0827C50.683 76.2998 50.8094 76.4979 50.9716 76.665C51.1398 76.8342 51.3421 76.9661 51.5652 77.0521C51.7852 77.1432 52.0229 77.1841 52.2609 77.1719C52.4988 77.1832 52.7363 77.1423 52.9565 77.0521C53.1725 76.967 53.3683 76.8383 53.5316 76.6742C53.6903 76.5084 53.8145 76.3132 53.8973 76.0997C53.9801 75.8861 54.0197 75.6585 54.0139 75.4298C54.022 74.9602 53.8495 74.5052 53.5316 74.1577C53.3661 73.9938 53.171 73.8625 52.9565 73.7706C52.7345 73.6868 52.4983 73.6461 52.2609 73.6508" fill="white"/>
<path d="M62.2868 79.4395H59.8011V83.5968H56.7402V69.3276H62.3054C65.8918 69.3276 67.685 70.9776 67.685 74.2776C67.7325 74.9775 67.6353 75.6797 67.3992 76.3408C67.1631 77.0019 66.7932 77.6079 66.3123 78.1214C65.7652 78.5992 65.1266 78.9622 64.4349 79.1887C63.7432 79.4153 63.0125 79.5006 62.2868 79.4395V79.4395ZM59.8011 76.96H62.2683C63.7987 76.96 64.5592 76.0382 64.5592 74.2776C64.6123 73.6155 64.4137 72.9577 64.0027 72.434C63.7727 72.2185 63.4989 72.0543 63.1997 71.9525C62.9006 71.8508 62.583 71.8138 62.2683 71.8441H59.8011V76.96Z" fill="white"/>
<path d="M214.418 63.5752H81.0308V66.3774H214.418V63.5752Z" fill="#9AC7F7"/>
<path d="M181.175 67.9175H81.0308V70.7197H181.175V67.9175Z" fill="#9AC7F7"/>
<path d="M134.994 72.9771H81.0308V75.7793H134.994V72.9771Z" fill="#9AC7F7"/>
<path d="M356.251 214.821L326.885 204.359L297.519 193.888L306.262 223.775L314.989 253.652L326.037 233.698L341.388 249.96L351.022 240.901L335.672 224.648L356.251 214.821Z" fill="#4B82E9"/>
<path d="M326.86 204.359L297.491 193.887L297.781 194.887L345.832 245.762L350.974 240.905L335.622 224.651L356.248 214.824L326.86 204.359Z" fill="#88B2F8"/>
</g>
<defs>
<clipPath id="clip0_3895_34859">
<rect width="368" height="280" fill="white"/>
</clipPath>
</defs>
</svg>
