<svg width="364" height="332" viewBox="0 0 364 332" fill="none" xmlns="http://www.w3.org/2000/svg">
<path d="M150.111 49.5481L150.112 37.5213L143.772 36.1666C143.409 34.4158 142.923 32.6928 142.318 31.0104L146.979 26.8047L140.964 16.3873L134.786 18.3827C133.597 17.0526 132.315 15.8073 130.952 14.6558L132.89 8.66399L122.473 2.65005L118.123 7.46279C116.427 6.90629 114.695 6.46851 112.938 6.15261L111.619 0H99.5896L98.2314 6.33891C96.4804 6.7011 94.7572 7.18706 93.075 7.79313L88.8631 3.13081L78.4472 9.14421L80.4424 15.3216C79.1142 16.5117 77.8688 17.7912 76.7152 19.1512L70.7235 17.2157L64.7064 27.633L69.5209 31.9808C68.9646 33.6762 68.527 35.4082 68.2112 37.1643L62.0573 38.4855L62.0552 50.511L68.3953 51.8683C68.7585 53.6179 69.2442 55.3397 69.8489 57.0211L65.1873 61.2352L71.2022 71.6479L77.3825 69.6523C78.5719 70.9816 79.852 72.2268 81.2137 73.3792L79.2771 79.3708L89.6956 85.3818L94.0427 80.5695C95.7386 81.1261 97.4711 81.564 99.2278 81.8802L100.549 88.0334H112.578L113.936 81.6956C115.688 81.333 117.411 80.8477 119.094 80.2432L123.304 84.9007L133.722 78.8921L131.726 72.712C133.055 71.5225 134.301 70.243 135.454 68.8826L141.445 70.8166L147.459 60.4017L142.647 56.055C143.204 54.3586 143.642 52.6255 143.959 50.8682L150.111 49.5481ZM126.293 44.0184C126.293 48.0144 125.108 51.9205 122.887 55.2429C120.666 58.5653 117.51 61.1548 113.817 62.6839C110.125 64.213 106.061 64.6131 102.141 63.8335C98.2212 63.0539 94.6204 61.1296 91.7942 58.3041C88.968 55.4785 87.0433 51.8786 86.2635 47.9594C85.4838 44.0403 85.884 39.978 87.4135 36.2863C88.943 32.5946 91.5332 29.4392 94.8565 27.2191C98.1798 24.9991 102.087 23.8141 106.084 23.8141C108.738 23.8141 111.366 24.3367 113.818 25.352C116.27 26.3674 118.497 27.8556 120.374 29.7318C122.251 31.6079 123.739 33.8353 124.755 36.2866C125.77 38.7379 126.293 41.3652 126.293 44.0184H126.293Z" fill="#7EB3FF"/>
<path d="M133.903 44.3171C133.904 49.6448 132.324 54.8529 129.363 59.2828C126.403 63.7127 122.194 67.1653 117.271 69.2041C112.348 71.2428 106.93 71.7761 101.704 70.7364C96.477 69.6968 91.6762 67.1309 87.9084 63.3633C84.1406 59.5957 81.575 54.7957 80.536 49.5702C79.4971 44.3448 80.0315 38.9287 82.0717 34.0069C84.1119 29.0852 87.5662 24.8788 91.9978 21.9199C96.4294 18.961 101.639 17.3824 106.968 17.3838C110.506 17.3837 114.009 18.0804 117.277 19.4339C120.545 20.7875 123.515 22.7715 126.016 25.2726C128.517 27.7736 130.501 30.7428 131.854 34.0105C133.208 37.2782 133.904 40.7804 133.903 44.3171Z" fill="#FFCC00"/>
<path d="M133.082 44.3196C133.083 49.4851 131.552 54.5348 128.682 58.8302C125.812 63.1256 121.733 66.4736 116.96 68.4507C112.186 70.4279 106.934 70.9455 101.866 69.9379C96.7986 68.9304 92.1437 66.443 88.4903 62.7904C84.8369 59.1378 82.3491 54.484 81.3414 49.4177C80.3338 44.3514 80.8516 39.1002 82.8294 34.3281C84.8073 29.5561 88.1562 25.4776 92.4527 22.6086C96.7493 19.7395 101.8 18.2088 106.967 18.21C113.893 18.211 120.535 20.9622 125.433 25.8585C130.33 30.7548 133.082 37.3953 133.082 44.3196Z" fill="#D98F00"/>
<path d="M127.536 44.3151C127.536 48.3826 126.33 52.3588 124.07 55.741C121.81 59.1232 118.598 61.7594 114.839 63.3162C111.08 64.873 106.944 65.2805 102.954 64.4871C98.9637 63.6937 95.2983 61.7352 92.4214 58.8591C89.5445 55.983 87.5854 52.3185 86.7917 48.3292C85.998 44.3399 86.4055 40.2048 87.9626 36.447C89.5197 32.6893 92.1564 29.4775 95.5394 27.2179C98.9224 24.9584 102.9 23.7526 106.968 23.7529C112.423 23.7542 117.653 25.921 121.51 29.7768C125.367 33.6327 127.534 38.862 127.536 44.3151Z" fill="#FFCC00"/>
<path d="M96.6982 41.2034H98.97C99.1104 39.9742 99.444 38.7747 99.9585 37.6494C100.436 36.5905 101.093 35.6219 101.901 34.7864C102.698 33.9687 103.656 33.3241 104.714 32.8929C105.87 32.4298 107.106 32.2004 108.352 32.218C110.533 32.1088 112.676 32.8196 114.36 34.2106C115.948 35.7139 116.896 37.7697 117.01 39.9527H112.895C112.807 38.7406 112.294 37.5984 111.446 36.7281C110.602 35.9613 109.49 35.5589 108.351 35.6086C107.69 35.5713 107.028 35.6887 106.419 35.9513C105.811 36.214 105.272 36.6147 104.845 37.1218C103.951 38.3088 103.41 39.7233 103.283 41.2034H110.063L109.669 43.2764H103.184V45.5154H109.241L108.879 47.5883H103.283C103.394 49.0392 103.944 50.4218 104.861 51.5521C105.31 52.029 105.858 52.4015 106.467 52.6436C107.075 52.8856 107.73 52.9911 108.384 52.9528C111.127 52.9528 112.718 51.362 113.157 48.1802H117.24C117.082 50.4682 116.107 52.6231 114.492 54.2518C112.796 55.7515 110.58 56.5257 108.319 56.4078C107.07 56.4284 105.829 56.2045 104.665 55.7489C103.621 55.3309 102.669 54.7101 101.866 53.9224C101.061 53.1201 100.408 52.1781 99.9398 51.1424C99.4322 50.0158 99.105 48.8165 98.97 47.5883H96.6983V45.5154H98.8709V43.2764H96.6983L96.6982 41.2034Z" fill="#D98F00"/>
<path d="M240.508 57.0312H14.9924C6.71359 57.0312 0 64.2245 0 73.1013V199.366C0 208.243 6.71359 215.436 14.9924 215.436H240.508C248.787 215.436 255.5 208.243 255.5 199.366V73.1013C255.5 64.2245 248.787 57.0312 240.508 57.0312Z" fill="white"/>
<path d="M156.692 174.549H16.834V215.436H156.692V174.549Z" fill="#EAF4FE"/>
<path d="M30.4219 200.047H25.1431V215.436H30.4219V200.047Z" fill="#9BC7F4"/>
<path d="M38.3403 194.629H33.0615V215.436H38.3403V194.629Z" fill="#FFBF0D"/>
<path d="M46.2511 198.279H40.98V215.436H46.2511V198.279Z" fill="#80B4FB"/>
<path d="M54.1689 186.969H48.8901V215.436H54.1689V186.969Z" fill="#0058B0"/>
<path d="M141.638 192.923H64.8574V195.364H141.638V192.923Z" fill="#9BC7F4"/>
<path d="M138.937 197.675H64.8574V199.718H138.937V197.675Z" fill="#9BC7F4"/>
<path d="M111.714 202.175H64.8574V205.106H111.714V202.175Z" fill="#9BC7F4"/>
<path d="M98.1342 187.428H64.5586V189.984H98.1342V187.428Z" fill="#9BC7F4"/>
<path d="M0.253418 71.9687C0.255451 68.0077 1.83404 64.2095 4.64235 61.4086C7.45065 58.6077 11.2589 57.0333 15.2305 57.0312H240.523C244.495 57.0333 248.303 58.6077 251.111 61.4086C253.92 64.2095 255.498 68.0077 255.5 71.9687H0.253418Z" fill="#9AC7F7"/>
<path d="M236.457 67.8135C237.114 67.8135 237.756 67.6192 238.302 67.2551C238.849 66.891 239.274 66.3735 239.526 65.768C239.777 65.1626 239.843 64.4963 239.715 63.8536C239.587 63.2108 239.27 62.6204 238.806 62.157C238.341 61.6936 237.749 61.378 237.105 61.2502C236.46 61.1223 235.792 61.188 235.185 61.4387C234.578 61.6895 234.059 62.1142 233.694 62.6591C233.329 63.204 233.134 63.8447 233.134 64.5C233.134 65.3788 233.484 66.2216 234.107 66.843C234.73 67.4644 235.575 67.8135 236.457 67.8135Z" fill="white"/>
<path d="M224.902 67.8135C225.559 67.8135 226.202 67.6192 226.748 67.2551C227.294 66.891 227.72 66.3735 227.972 65.768C228.223 65.1626 228.289 64.4963 228.161 63.8536C228.033 63.2108 227.716 62.6204 227.252 62.157C226.787 61.6936 226.195 61.378 225.55 61.2502C224.906 61.1223 224.238 61.188 223.631 61.4387C223.024 61.6895 222.505 62.1142 222.14 62.6591C221.775 63.204 221.58 63.8447 221.58 64.5C221.58 65.3788 221.93 66.2216 222.553 66.843C223.176 67.4644 224.021 67.8135 224.902 67.8135Z" fill="#0450CF"/>
<path d="M213.354 67.8135C214.012 67.8135 214.654 67.6192 215.2 67.2551C215.747 66.891 216.172 66.3735 216.424 65.768C216.675 65.1626 216.741 64.4963 216.613 63.8536C216.485 63.2108 216.168 62.6204 215.704 62.157C215.239 61.6936 214.647 61.378 214.003 61.2502C213.358 61.1223 212.69 61.188 212.083 61.4387C211.476 61.6895 210.957 62.1142 210.592 62.6591C210.227 63.204 210.032 63.8447 210.032 64.5C210.032 65.3788 210.382 66.2216 211.005 66.843C211.628 67.4644 212.473 67.8135 213.354 67.8135Z" fill="#003E99"/>
<path d="M152.102 118.028H21.4213C18.8872 118.028 16.833 120.077 16.833 122.604V162.657C16.833 165.184 18.8872 167.233 21.4213 167.233H152.102C154.636 167.233 156.691 165.184 156.691 162.657V122.604C156.691 120.077 154.636 118.028 152.102 118.028Z" fill="#EAF4FE"/>
<path d="M238.844 117.754H170.084C167.537 117.754 165.473 119.763 165.473 122.241V194.863C165.473 197.341 167.537 199.35 170.084 199.35H238.844C241.39 199.35 243.455 197.341 243.455 194.863V122.241C243.455 119.763 241.39 117.754 238.844 117.754Z" fill="#EAF4FE"/>
<path d="M127.31 131.172H65.0156V133.253H127.31V131.172Z" fill="#9BC7F4"/>
<path d="M125.116 134.99H65.0156V137.072H125.116V134.99Z" fill="#9BC7F4"/>
<path d="M127.31 151.037H65.0156V153.126H127.31V151.037Z" fill="#9BC7F4"/>
<path d="M127.31 138.725H65.0156V140.806H127.31V138.725Z" fill="#9BC7F4"/>
<path d="M239.901 80.7539H201.001V82.8354H239.901V80.7539Z" fill="#2A66C4"/>
<path d="M239.895 84.5723H202.368V86.6537H239.895V84.5723Z" fill="#2A66C4"/>
<path d="M239.894 88.3066H223.305V90.3881H239.894V88.3066Z" fill="#2A66C4"/>
<path d="M125.116 142.536H65.0156V144.618H125.116V142.536Z" fill="#9BC7F4"/>
<path d="M127.31 146.347H65.0156V148.436H127.31V146.347Z" fill="#9BC7F4"/>
<path d="M40.5034 80.2715H17.0864V102.463H40.5034V80.2715Z" fill="#2A66C4"/>
<path d="M22.5431 89.1185C22.3466 89.1146 22.1513 89.1484 21.9676 89.2179C21.7857 89.2866 21.6208 89.3936 21.4842 89.5317C21.3502 89.669 21.2457 89.8321 21.1771 90.011C21.1085 90.19 21.0773 90.381 21.0853 90.5724C21.0771 90.765 21.1083 90.9572 21.1769 91.1374C21.2454 91.3177 21.35 91.4821 21.4842 91.6208C21.6234 91.7613 21.7907 91.8708 21.9753 91.9422C22.1572 92.0178 22.3539 92.0518 22.5507 92.0417C22.7475 92.051 22.944 92.0171 23.1262 91.9422C23.3048 91.8716 23.4668 91.7647 23.6019 91.6284C23.7332 91.4908 23.8359 91.3288 23.9044 91.1515C23.9729 90.9742 24.0056 90.7853 24.0009 90.5954C24.0076 90.2055 23.8649 89.8278 23.6019 89.5393C23.465 89.4033 23.3036 89.2943 23.1262 89.2179C22.9425 89.1484 22.7472 89.1146 22.5507 89.1185" fill="white"/>
<path d="M30.8446 93.924H28.7883V97.3752H26.2563V85.5293H30.86C33.8267 85.5293 35.3101 86.8991 35.3101 89.6386C35.3494 90.2197 35.269 90.8026 35.0737 91.3515C34.8784 91.9003 34.5724 92.4034 34.1746 92.8297C33.722 93.2263 33.1938 93.5277 32.6216 93.7158C32.0493 93.9038 31.4449 93.9746 30.8446 93.924ZM28.7883 91.8655H30.8293C32.0953 91.8655 32.7244 91.1002 32.7244 89.6386C32.7683 89.089 32.6041 88.5429 32.2641 88.1082C32.0738 87.9292 31.8473 87.7929 31.5998 87.7084C31.3523 87.624 31.0896 87.5933 30.8293 87.6184H28.7883V91.8655Z" fill="white"/>
<path d="M156.691 80.7539H46.3501V83.0802H156.691V80.7539Z" fill="#9AC7F7"/>
<path d="M129.192 84.3584H46.3501V86.6847H129.192V84.3584Z" fill="#9AC7F7"/>
<path d="M90.9898 88.5586H46.3501V90.8849H90.9898V88.5586Z" fill="#9AC7F7"/>
<path d="M47.2853 143.719C46.9446 144.734 46.3784 145.668 45.625 146.456L51.2814 153.984C54.2229 151.616 56.2471 148.378 57.0313 144.786L47.2853 143.719Z" fill="#D98F00"/>
<path d="M41.077 133.762C42.7106 134.095 44.1913 134.921 45.3037 136.121C46.4161 137.321 47.102 138.831 47.2617 140.433L57.0313 141.438C57.0313 141.326 57.0313 141.221 57.0313 141.117C57.0233 136.903 55.3807 132.845 52.426 129.739C49.4714 126.632 45.4183 124.702 41.0625 124.328L41.077 133.762Z" fill="#0058B0"/>
<path d="M34.6157 135.734C35.7152 134.581 37.1738 133.788 38.7813 133.468V124.328C36.2964 124.54 33.8892 125.256 31.7239 126.427C29.5585 127.598 27.6861 129.196 26.2344 131.114L34.6157 135.734Z" fill="#80B4FB"/>
<path d="M43.3991 148.611C42.2156 149.117 40.9201 149.331 39.6297 149.232C38.3393 149.133 37.0947 148.725 36.0085 148.045C34.9222 147.365 34.0285 146.434 33.4082 145.336C32.7878 144.239 32.4604 143.009 32.4555 141.758C32.466 140.939 32.6166 140.128 32.901 139.356L24.5011 134.594C23.3934 136.831 22.8165 139.279 22.8125 141.758C22.8185 144.72 23.6335 147.627 25.1751 150.186C26.7167 152.746 28.9303 154.867 31.5921 156.334C34.2539 157.802 37.2697 158.566 40.3345 158.547C43.3994 158.528 46.4048 157.727 49.0469 156.226L43.3991 148.611Z" fill="#FFBF0D"/>
<path d="M75.537 259.094L77.6453 233.353L79.7607 207.61L57.6857 221.04L35.6146 234.453L53.9603 238.993L44.2122 254.772L53.5274 260.528L63.2683 244.75L75.537 259.094Z" fill="#4B82E9"/>
<path d="M77.6414 233.336L79.7568 207.594L79.0175 208.04L48.5296 257.423L53.5187 260.49L63.2595 244.712L75.5366 259.092L77.6414 233.336Z" fill="#88B2F8"/>
<path d="M204.672 313.775V310.438C207.26 310.435 209.74 309.405 211.57 307.576C213.4 305.746 214.429 303.266 214.431 300.679V294.895H217.769V300.679C217.766 304.15 216.385 307.479 213.929 309.934C211.474 312.389 208.145 313.771 204.672 313.775Z" fill="#0058B0"/>
<path d="M229.675 314.506H226.338V290.853C226.338 289.717 225.886 288.627 225.083 287.824C224.279 287.021 223.189 286.569 222.053 286.569C220.916 286.569 219.826 287.021 219.023 287.824C218.219 288.627 217.768 289.717 217.768 290.853V297.821H214.43V290.853C214.43 288.832 215.233 286.894 216.663 285.464C218.092 284.035 220.031 283.232 222.053 283.232C224.074 283.232 226.013 284.035 227.443 285.464C228.872 286.894 229.675 288.832 229.675 290.853V314.506Z" fill="#0058B0"/>
<path d="M251.098 306.963H247.76V277.333C247.76 275.799 247.151 274.328 246.065 273.243C244.98 272.158 243.509 271.549 241.974 271.549C240.44 271.549 238.968 272.158 237.883 273.243C236.798 274.328 236.188 275.799 236.188 277.333V306.963H232.851V277.333C232.851 274.914 233.812 272.594 235.523 270.883C237.234 269.173 239.555 268.212 241.974 268.212C244.394 268.212 246.715 269.173 248.426 270.883C250.137 272.594 251.098 274.914 251.098 277.333V306.963Z" fill="#0058B0"/>
<path d="M231.303 322.627C229.989 322.625 228.73 322.102 227.802 321.173C226.874 320.243 226.352 318.984 226.352 317.67V304.616H229.689V317.67C229.689 317.883 229.73 318.093 229.811 318.29C229.892 318.486 230.011 318.665 230.161 318.816C230.311 318.966 230.489 319.085 230.685 319.167C230.882 319.248 231.092 319.29 231.305 319.29C231.517 319.29 231.727 319.248 231.924 319.167C232.12 319.085 232.298 318.966 232.448 318.816C232.598 318.665 232.717 318.486 232.798 318.29C232.879 318.093 232.92 317.883 232.92 317.67V304.616H236.257V317.67C236.257 318.984 235.735 320.244 234.806 321.173C233.877 322.103 232.617 322.626 231.303 322.627Z" fill="#0058B0"/>
<path d="M204.916 313.776C201.443 313.771 198.114 312.39 195.659 309.935C193.203 307.48 191.822 304.151 191.819 300.679V288.697H195.157V300.679C195.159 303.266 196.188 305.747 198.018 307.576C199.848 309.406 202.328 310.435 204.916 310.439V313.776Z" fill="#0058B0"/>
<path d="M195.162 289.86H191.824V277.877C191.822 275.29 190.793 272.809 188.963 270.98C187.134 269.151 184.653 268.121 182.065 268.118H178.754V264.781H182.065C185.538 264.786 188.867 266.167 191.322 268.622C193.777 271.077 195.158 274.405 195.162 277.877V289.86Z" fill="#0058B0"/>
<path d="M154.831 268.169H148.257C144.784 268.166 141.454 266.786 138.998 264.331C136.542 261.876 135.16 258.548 135.156 255.075V215.578H138.494V255.075C138.498 257.663 139.527 260.143 141.358 261.972C143.188 263.801 145.669 264.83 148.257 264.832H154.831V268.169Z" fill="#0058B0"/>
<path d="M260.702 331.51V328.173C263.29 328.17 265.772 327.14 267.602 325.31C269.432 323.48 270.461 320.998 270.464 318.411V236.768H273.802V318.411C273.798 321.883 272.417 325.212 269.961 327.668C267.505 330.124 264.175 331.505 260.702 331.51Z" fill="#0058B0"/>
<path d="M260.948 331.51C257.474 331.505 254.145 330.124 251.689 327.668C249.234 325.212 247.853 321.883 247.85 318.411V289.745H251.187V318.411C251.19 320.998 252.219 323.479 254.048 325.309C255.878 327.14 258.359 328.169 260.948 328.173V331.51Z" fill="#0058B0"/>
<path d="M275.547 266.085C324.399 266.085 364 227.109 364 179.03C364 130.951 324.399 91.9756 275.547 91.9756C226.696 91.9756 187.094 130.951 187.094 179.03C187.094 227.109 226.696 266.085 275.547 266.085Z" fill="#9AC7F7"/>
<path fill-rule="evenodd" clip-rule="evenodd" d="M289.057 265.077C284.652 265.741 280.141 266.085 275.548 266.085C268.676 266.085 261.986 265.314 255.564 263.854L263.274 197.736L272.237 156.237L281.199 197.736L289.057 265.077Z" fill="#D98F00"/>
<path fill-rule="evenodd" clip-rule="evenodd" d="M284.005 265.692C281.221 265.952 278.4 266.085 275.547 266.085C270.43 266.085 265.414 265.658 260.535 264.837L265.99 197.736L272.235 156.237L278.481 197.736L284.005 265.692Z" fill="#FFCC00"/>
<path fill-rule="evenodd" clip-rule="evenodd" d="M275.728 266.085C275.668 266.085 275.608 266.085 275.547 266.085C273.258 266.085 270.99 266 268.745 265.832L270.385 197.736L272.235 156.237L274.085 197.736L275.728 266.085Z" fill="#D98F00"/>
<path fill-rule="evenodd" clip-rule="evenodd" d="M326.16 250.434C325.85 249.802 325.507 249.184 325.132 248.584C323.301 245.662 320.758 243.252 317.74 241.581C314.722 239.911 311.33 239.034 307.88 239.034C304.431 239.034 301.038 239.911 298.021 241.581C295.003 243.252 292.459 245.662 290.629 248.584C288.799 251.507 287.741 254.847 287.556 258.291C287.431 260.624 287.709 262.953 288.37 265.177C302.278 263.189 315.138 258.016 326.16 250.434Z" fill="#FFCC00"/>
<path fill-rule="evenodd" clip-rule="evenodd" d="M313.444 257.712C301.957 263.081 289.108 266.085 275.546 266.085C262.312 266.085 249.756 263.224 238.482 258.097C241.32 256.085 244.589 254.71 248.065 254.102C248.873 249.166 251.335 244.651 255.048 241.298C258.76 237.945 263.502 235.954 268.496 235.65C273.49 235.347 278.438 236.749 282.529 239.628C286.621 242.506 289.612 246.689 291.012 251.491C293.854 250.107 297.016 249.515 300.167 249.777C303.317 250.04 306.338 251.146 308.912 252.981C310.713 254.265 312.248 255.872 313.444 257.712Z" fill="#D98F00"/>
<path fill-rule="evenodd" clip-rule="evenodd" d="M253.039 263.241L247.407 249.297C246.122 249.297 244.997 248.417 243.942 247.591C242.684 246.607 241.526 245.7 240.315 246.456C240.269 241.294 238.414 236.312 235.073 232.377C231.731 228.442 227.114 225.803 222.027 224.921C216.939 224.039 211.703 224.969 207.231 227.549C206.011 228.253 204.869 229.068 203.816 229.979C215.65 246.089 232.95 258.054 253.039 263.241Z" fill="#FFCC00"/>
<path fill-rule="evenodd" clip-rule="evenodd" d="M326.585 250.14C326.826 248.863 326.702 247.542 326.223 246.331C325.891 245.49 325.396 244.723 324.767 244.073C324.138 243.422 323.387 242.903 322.557 242.543C321.727 242.183 320.835 241.99 319.93 241.976C319.026 241.961 318.127 242.124 317.286 242.457C316.019 242.957 314.929 243.822 314.154 244.942C313.379 246.062 312.953 247.386 312.931 248.748C312.908 250.109 313.29 251.447 314.028 252.592C314.766 253.736 315.827 254.636 317.077 255.178C317.346 255.295 317.622 255.394 317.902 255.475C320.906 253.859 323.805 252.077 326.585 250.14Z" fill="#D98F00"/>
<path fill-rule="evenodd" clip-rule="evenodd" d="M342.989 235.363C342.392 234.783 341.741 234.257 341.044 233.793C339.209 232.57 337.105 231.81 334.913 231.577C332.72 231.345 330.504 231.646 328.453 232.455C326.402 233.264 324.578 234.558 323.136 236.226C321.694 237.893 320.677 239.885 320.172 242.031C319.667 244.176 319.689 246.412 320.236 248.548C320.643 250.135 321.331 251.632 322.263 252.969C330.068 248.182 337.06 242.231 342.989 235.363Z" fill="#D98F00"/>
<path fill-rule="evenodd" clip-rule="evenodd" d="M259.715 264.695C260.415 262.973 260.779 261.123 260.779 259.246C260.777 255.412 259.253 251.736 256.54 249.025C253.828 246.315 250.15 244.792 246.315 244.792C243.454 244.792 240.658 245.64 238.279 247.229C235.901 248.819 234.047 251.077 232.952 253.72C232.767 254.166 232.605 254.621 232.467 255.081C240.81 259.668 249.986 262.965 259.715 264.695Z" fill="#FFCC00"/>
<path fill-rule="evenodd" clip-rule="evenodd" d="M233.676 255.735C234.643 253.761 235.151 251.585 235.15 249.37C235.148 245.536 233.624 241.86 230.912 239.149C228.199 236.439 224.521 234.916 220.686 234.916C217.825 234.916 215.029 235.764 212.65 237.353C212.083 237.732 211.546 238.149 211.042 238.6C217.57 245.444 225.209 251.248 233.676 255.735Z" fill="#D98F00"/>
<path d="M273.378 175.505C266.021 175.505 260.056 185.41 260.056 197.625C260.055 199.136 260.149 200.646 260.336 202.146H286.422C286.61 200.646 286.704 199.136 286.702 197.625C286.702 185.41 280.738 175.505 273.378 175.505Z" fill="#0058B0"/>
<path d="M269.913 175.505C264.469 175.505 260.056 185.41 260.056 197.625C260.056 199.175 260.127 200.689 260.261 202.146H279.558C279.692 200.689 279.764 199.175 279.764 197.625C279.764 185.41 275.352 175.505 269.913 175.505Z" fill="#0073E6"/>
<path d="M260.802 122.498C260.802 146.068 248.722 166.578 230.902 177.205C230.367 177.702 229.839 178.187 229.327 178.657C226.035 181.661 227.107 195.862 227.107 195.862H260.972V113.72C260.951 115.296 260.848 116.869 260.665 118.435C260.745 119.781 260.802 121.132 260.802 122.498Z" fill="#0073E6"/>
<path d="M260.972 150.003C255.526 163.758 245.41 175.156 232.398 182.198C231.811 182.697 231.234 183.184 230.674 183.653C228.473 185.483 228.049 191.463 228.053 195.861H260.972V150.003Z" fill="#EAF4FE"/>
<path d="M231.025 194.196C230.464 194.644 230.013 195.213 229.705 195.862H260.972V168.675C254.025 179.111 244.343 187.438 232.984 192.746C232.319 193.243 231.664 193.729 231.025 194.196Z" fill="#C5E1F9"/>
<path d="M285.96 122.497C285.96 146.067 298.037 166.577 315.861 177.204C316.392 177.701 316.92 178.186 317.432 178.656C320.724 181.66 319.651 195.861 319.651 195.861H285.787V113.719C285.809 115.295 285.912 116.868 286.094 118.434C286.016 119.78 285.96 121.131 285.96 122.497Z" fill="#0073E6"/>
<path d="M285.787 150C291.233 163.754 301.349 175.153 314.361 182.195C314.948 182.694 315.528 183.181 316.086 183.65C318.289 185.481 318.71 191.461 318.706 195.858H285.787V150Z" fill="#EAF4FE"/>
<path d="M315.737 194.195C316.296 194.645 316.747 195.214 317.057 195.861H285.787V168.674C292.735 179.109 302.416 187.435 313.775 192.745C314.439 193.242 315.096 193.728 315.737 194.195Z" fill="#C5E1F9"/>
<path d="M286.651 195.863V110.946C286.651 103.173 280.872 77.9555 273.378 73.8018C265.887 77.9555 260.107 103.173 260.107 110.946V195.863H286.651Z" fill="#C5E1F9"/>
<path d="M273.378 73.8008C273.303 73.842 273.231 73.8992 273.152 73.948V195.862H286.651V110.945C286.651 103.172 280.872 77.9545 273.378 73.8008Z" fill="#EAF4FE"/>
<path d="M263.894 91.1415H282.862C280.48 83.297 277.145 75.8864 273.377 73.8008C269.612 75.8864 266.281 83.297 263.894 91.1415Z" fill="#0073E6"/>
<path d="M273.152 91.1415H282.862C280.48 83.297 277.146 75.8864 273.378 73.8008C273.303 73.842 273.231 73.8992 273.152 73.948V91.1415Z" fill="#0058B0"/>
<path d="M281.546 105.207C281.001 106.449 279.195 105.98 277.077 105.19C274.651 104.241 271.957 104.241 269.531 105.19C267.416 105.977 265.609 106.449 265.065 105.207C264.504 103.999 265.824 101.067 268.579 99.9997C271.618 98.8139 274.993 98.8139 278.032 99.9997C280.786 101.059 282.103 103.992 281.546 105.207Z" fill="#0073E6"/>
<path d="M246.315 175.504C243.095 175.504 240.488 185.409 240.488 197.624C240.488 199.174 240.529 200.688 240.608 202.145H252.023C252.105 200.688 252.144 199.174 252.144 197.624C252.144 185.409 249.536 175.504 246.315 175.504Z" fill="#0073E6"/>
<path d="M246.315 175.504C245.473 175.504 244.68 176.192 243.956 177.403C246.603 178.849 248.64 187.465 248.64 197.908C248.64 199.361 248.602 200.774 248.526 202.145H252.023C252.105 200.688 252.144 199.174 252.144 197.624C252.144 185.409 249.536 175.504 246.315 175.504Z" fill="#0058B0"/>
<path d="M300.442 175.504C297.225 175.504 294.614 185.409 294.614 197.624C294.614 199.174 294.655 200.688 294.735 202.145H306.15C306.231 200.688 306.271 199.174 306.271 197.624C306.271 185.409 303.663 175.504 300.442 175.504Z" fill="#0073E6"/>
<path d="M300.442 175.504C299.604 175.504 298.805 176.192 298.085 177.403C300.732 178.849 302.766 187.465 302.766 197.908C302.766 199.361 302.728 200.774 302.652 202.145H306.15C306.231 200.688 306.27 199.174 306.27 197.624C306.27 185.409 303.662 175.504 300.442 175.504Z" fill="#0058B0"/>
<path d="M190.041 232.98H192.385C192.531 232.98 192.671 233.038 192.774 233.142C192.877 233.245 192.936 233.385 192.936 233.531V235.321C192.936 235.393 192.921 235.465 192.894 235.531C192.866 235.598 192.825 235.659 192.774 235.71C192.723 235.761 192.662 235.802 192.596 235.829C192.529 235.857 192.457 235.871 192.385 235.871H190.044C189.898 235.871 189.758 235.813 189.655 235.71C189.551 235.607 189.493 235.466 189.493 235.32V233.528C189.493 233.383 189.551 233.244 189.654 233.141C189.756 233.038 189.896 232.98 190.041 232.98Z" fill="#0058B0"/>
<path d="M187.784 236.556C187.847 236.592 187.901 236.641 187.945 236.699C187.988 236.757 188.02 236.822 188.039 236.892C188.057 236.962 188.061 237.035 188.051 237.107C188.041 237.179 188.017 237.248 187.98 237.31L186.82 239.332C186.745 239.458 186.624 239.55 186.483 239.587C186.341 239.625 186.191 239.605 186.064 239.533L184.512 238.638C184.45 238.602 184.395 238.554 184.352 238.497C184.308 238.44 184.276 238.374 184.258 238.305C184.239 238.235 184.235 238.163 184.244 238.091C184.254 238.02 184.277 237.951 184.314 237.889L185.48 235.863C185.553 235.738 185.673 235.646 185.813 235.608C185.954 235.57 186.104 235.589 186.23 235.661L187.784 236.556Z" fill="#0058B0"/>
<path d="M186.276 241.633C186.338 241.597 186.407 241.573 186.479 241.563C186.551 241.554 186.624 241.559 186.694 241.577C186.764 241.596 186.83 241.629 186.887 241.673C186.944 241.717 186.992 241.772 187.028 241.835L188.198 243.862C188.234 243.924 188.258 243.993 188.267 244.064C188.277 244.136 188.272 244.208 188.254 244.278C188.236 244.347 188.204 244.413 188.16 244.47C188.116 244.527 188.062 244.575 188 244.612L186.445 245.505C186.382 245.541 186.313 245.564 186.242 245.574C186.17 245.583 186.097 245.578 186.027 245.56C185.958 245.541 185.892 245.508 185.835 245.464C185.778 245.42 185.73 245.365 185.694 245.303L184.525 243.28C184.452 243.153 184.433 243.002 184.472 242.861C184.51 242.719 184.603 242.599 184.731 242.526L186.276 241.633Z" fill="#0058B0"/>
<path d="M189.92 245.476C189.92 245.404 189.934 245.332 189.962 245.265C189.99 245.197 190.031 245.137 190.082 245.085C190.134 245.034 190.195 244.994 190.262 244.966C190.329 244.938 190.401 244.924 190.474 244.925H192.811C192.883 244.924 192.955 244.938 193.022 244.966C193.088 244.993 193.149 245.033 193.2 245.084C193.252 245.135 193.292 245.195 193.32 245.262C193.348 245.329 193.362 245.4 193.362 245.472V247.265C193.362 247.337 193.348 247.409 193.32 247.476C193.292 247.542 193.252 247.603 193.201 247.654C193.149 247.705 193.089 247.745 193.022 247.773C192.955 247.8 192.883 247.814 192.811 247.814H190.471C190.325 247.814 190.185 247.756 190.082 247.653C189.979 247.55 189.92 247.411 189.92 247.265V245.476Z" fill="#0058B0"/>
<path d="M195.073 244.238C195.01 244.202 194.955 244.154 194.911 244.097C194.867 244.04 194.835 243.974 194.816 243.905C194.797 243.835 194.793 243.763 194.802 243.691C194.812 243.62 194.835 243.551 194.871 243.488L196.041 241.466C196.113 241.339 196.232 241.246 196.373 241.206C196.513 241.167 196.664 241.184 196.791 241.255L198.343 242.157C198.468 242.23 198.559 242.35 198.597 242.49C198.635 242.631 198.616 242.78 198.544 242.906L197.371 244.929C197.336 244.992 197.289 245.047 197.232 245.091C197.176 245.136 197.111 245.168 197.041 245.187C196.972 245.206 196.899 245.211 196.828 245.202C196.756 245.192 196.687 245.169 196.625 245.132L195.073 244.238Z" fill="#0058B0"/>
<path d="M196.576 239.158C196.514 239.195 196.445 239.219 196.374 239.229C196.302 239.239 196.23 239.234 196.16 239.216C196.09 239.197 196.025 239.165 195.967 239.121C195.91 239.077 195.862 239.022 195.827 238.96L194.655 236.934C194.583 236.808 194.563 236.658 194.6 236.517C194.638 236.377 194.729 236.256 194.855 236.183L196.407 235.287C196.533 235.215 196.683 235.196 196.823 235.234C196.963 235.272 197.083 235.364 197.156 235.489L198.33 237.516C198.402 237.643 198.421 237.794 198.382 237.935C198.344 238.076 198.251 238.196 198.124 238.269L196.576 239.158Z" fill="#0058B0"/>
<path d="M191.428 235.044C190.369 235.044 189.334 235.357 188.453 235.945C187.572 236.533 186.886 237.369 186.48 238.347C186.075 239.325 185.969 240.401 186.175 241.439C186.381 242.477 186.89 243.431 187.639 244.18C188.387 244.929 189.341 245.439 190.379 245.646C191.418 245.853 192.494 245.748 193.473 245.343C194.451 244.939 195.288 244.253 195.877 243.373C196.465 242.493 196.78 241.459 196.781 240.4C196.781 239.697 196.643 239.001 196.374 238.351C196.105 237.701 195.711 237.111 195.214 236.614C194.717 236.116 194.126 235.722 193.477 235.452C192.827 235.183 192.131 235.044 191.428 235.044ZM191.428 242.955C190.922 242.955 190.427 242.805 190.006 242.524C189.585 242.243 189.257 241.844 189.063 241.377C188.869 240.909 188.819 240.395 188.917 239.899C189.016 239.402 189.26 238.947 189.618 238.589C189.976 238.231 190.432 237.988 190.928 237.889C191.424 237.791 191.939 237.842 192.406 238.036C192.874 238.229 193.273 238.558 193.554 238.979C193.835 239.399 193.984 239.894 193.984 240.4C193.984 241.078 193.714 241.727 193.235 242.206C192.755 242.686 192.105 242.955 191.428 242.955Z" fill="#0058B0"/>
<path d="M166.378 278.487C163.96 278.513 161.589 277.82 159.565 276.495C157.542 275.171 155.958 273.275 155.015 271.049C154.072 268.822 153.812 266.366 154.268 263.992C154.724 261.617 155.875 259.432 157.576 257.713C159.277 255.994 161.451 254.82 163.821 254.339C166.191 253.858 168.65 254.091 170.887 255.011C173.124 255.93 175.037 257.493 176.383 259.502C177.73 261.51 178.448 263.873 178.448 266.291C178.462 269.508 177.199 272.598 174.936 274.885C172.674 277.172 169.596 278.467 166.378 278.487ZM166.378 256.28C164.392 256.254 162.443 256.819 160.779 257.903C159.115 258.988 157.811 260.542 157.032 262.369C156.254 264.196 156.037 266.213 156.409 268.164C156.78 270.115 157.724 271.911 159.119 273.325C160.514 274.738 162.298 275.705 164.245 276.102C166.191 276.499 168.211 276.308 170.049 275.554C171.887 274.8 173.458 273.517 174.565 271.867C175.671 270.218 176.261 268.277 176.261 266.291C176.276 263.654 175.243 261.119 173.39 259.243C171.537 257.366 169.016 256.301 166.378 256.28Z" fill="#0058B0"/>
<path d="M166.378 278.181C163.148 278.181 160.713 273.069 160.713 266.291C160.713 259.513 163.148 254.403 166.378 254.403C169.612 254.403 172.047 259.513 172.047 266.291C172.047 273.069 169.612 278.181 166.378 278.181ZM166.378 256.59C164.96 256.59 162.9 260.37 162.9 266.291C162.9 272.216 164.96 275.993 166.378 275.993C167.799 275.993 169.86 272.216 169.86 266.291C169.86 260.37 167.799 256.59 166.378 256.59Z" fill="#0058B0"/>
<path d="M177.357 267.386H155.404C155.114 267.386 154.835 267.271 154.63 267.066C154.425 266.86 154.31 266.582 154.31 266.292C154.31 266.002 154.425 265.724 154.63 265.519C154.835 265.313 155.114 265.198 155.404 265.198H177.357C177.648 265.198 177.926 265.313 178.131 265.519C178.336 265.724 178.451 266.002 178.451 266.292C178.451 266.582 178.336 266.86 178.131 267.066C177.926 267.271 177.648 267.386 177.357 267.386Z" fill="#0058B0"/>
<path d="M166.378 262.567C163.192 262.568 160.021 262.143 156.948 261.303C156.668 261.226 156.431 261.042 156.287 260.79C156.144 260.538 156.106 260.24 156.182 259.96C156.259 259.681 156.443 259.443 156.694 259.299C156.946 259.155 157.244 259.117 157.524 259.193C163.32 260.778 169.435 260.778 175.231 259.193C175.511 259.117 175.81 259.154 176.062 259.298C176.314 259.442 176.498 259.68 176.575 259.96C176.651 260.24 176.613 260.538 176.47 260.79C176.326 261.042 176.088 261.226 175.808 261.303C172.735 262.143 169.564 262.568 166.378 262.567Z" fill="#0058B0"/>
<path d="M157.234 273.428C156.969 273.428 156.714 273.331 156.515 273.157C156.316 272.983 156.187 272.742 156.152 272.48C156.117 272.218 156.178 271.952 156.325 271.732C156.471 271.512 156.692 271.352 156.947 271.282C163.121 269.591 169.637 269.591 175.811 271.282C176.09 271.359 176.328 271.544 176.471 271.796C176.615 272.048 176.652 272.347 176.575 272.626C176.498 272.906 176.313 273.144 176.061 273.287C175.809 273.43 175.51 273.468 175.231 273.391C169.435 271.804 163.319 271.804 157.523 273.391C157.429 273.416 157.331 273.428 157.234 273.428Z" fill="#0058B0"/>
<path d="M168.603 249.271L167.676 249.301L165.35 249.373L164.426 249.402L163.887 253.853L165.49 253.801L167.816 253.728L169.428 253.678L168.603 249.271Z" fill="#0058B0"/>
<path d="M159.792 250.436L159.01 250.923L157.025 252.151L156.242 252.638L158 256.764L159.365 255.916L161.343 254.691L162.712 253.847L159.792 250.436Z" fill="#0058B0"/>
<path d="M152.748 255.851L152.312 256.663L151.21 258.717L150.773 259.527L154.362 262.229L155.118 260.814L156.22 258.762L156.979 257.345L152.748 255.851Z" fill="#0058B0"/>
<path d="M149.352 264.064L149.381 264.985L149.453 267.316L149.486 268.235L153.938 268.781L153.889 267.177L153.814 264.845L153.765 263.238L149.352 264.064Z" fill="#0058B0"/>
<path d="M150.522 272.869L151.008 273.655L152.236 275.636L152.722 276.42L156.856 274.664L156.008 273.298L154.776 271.321L153.931 269.954L150.522 272.869Z" fill="#0058B0"/>
<path d="M155.939 279.918L156.751 280.352L158.804 281.456L159.62 281.89L162.318 278.305L160.904 277.545L158.847 276.446L157.433 275.685L155.939 279.918Z" fill="#0058B0"/>
<path d="M164.154 283.31L165.073 283.277L167.407 283.209L168.322 283.177L168.871 278.722L167.263 278.774L164.933 278.849L163.329 278.9L164.154 283.31Z" fill="#0058B0"/>
<path d="M172.961 282.143L173.744 281.654L175.728 280.428L176.511 279.94L174.754 275.813L173.391 276.659L171.41 277.887L170.047 278.732L172.961 282.143Z" fill="#0058B0"/>
<path d="M180.009 276.729L180.445 275.913L181.545 273.86L181.981 273.048L178.398 270.347L177.636 271.764L176.537 273.815L175.775 275.231L180.009 276.729Z" fill="#0058B0"/>
<path d="M183.404 268.516L183.368 267.594L183.3 265.261L183.267 264.345L178.814 263.796L178.864 265.401L178.938 267.731L178.988 269.339L183.404 268.516Z" fill="#0058B0"/>
<path d="M182.235 259.706L181.746 258.92L180.518 256.935L180.036 256.155L175.902 257.914L176.749 259.279L177.982 261.257L178.823 262.622L182.235 259.706Z" fill="#0058B0"/>
<path d="M176.818 252.661L176.009 252.226L173.95 251.126L173.138 250.689L170.439 254.274L171.853 255.032L173.91 256.132L175.328 256.893L176.818 252.661Z" fill="#0058B0"/>
<path d="M166.378 280.443C163.572 280.47 160.821 279.663 158.475 278.125C156.129 276.586 154.293 274.385 153.201 271.802C152.108 269.218 151.808 266.368 152.338 263.613C152.869 260.859 154.207 258.324 156.181 256.331C158.155 254.338 160.677 252.976 163.427 252.419C166.177 251.862 169.031 252.134 171.626 253.201C174.221 254.268 176.44 256.082 178.001 258.412C179.563 260.743 180.397 263.485 180.397 266.29C180.412 270.024 178.944 273.612 176.315 276.265C173.687 278.919 170.113 280.421 166.378 280.443ZM166.378 256.367C164.409 256.339 162.476 256.897 160.825 257.971C159.174 259.044 157.879 260.584 157.106 262.395C156.333 264.205 156.116 266.205 156.483 268.139C156.85 270.074 157.785 271.855 159.167 273.257C160.55 274.659 162.318 275.619 164.247 276.013C166.177 276.407 168.18 276.219 170.002 275.472C171.824 274.725 173.383 273.453 174.48 271.818C175.577 270.183 176.162 268.259 176.162 266.29C176.178 263.678 175.156 261.166 173.322 259.306C171.488 257.446 168.99 256.389 166.378 256.367Z" fill="#0058B0"/>
<path d="M182.434 253.142H154.486V281.063H182.434V253.142Z" fill="#EAF4FE"/>
<path d="M181.863 283.182H149.677V251.022H181.863V283.182ZM153.915 278.944H177.626V255.257H153.915V278.944Z" fill="#0066CC"/>
<path fill-rule="evenodd" clip-rule="evenodd" d="M184.24 248.422H147.725V284.927H184.24V248.422Z" fill="#2A66C4"/>
<path fill-rule="evenodd" clip-rule="evenodd" d="M156.24 262.969C155.932 262.959 155.624 263.014 155.338 263.131C155.052 263.248 154.794 263.424 154.582 263.649C154.157 264.116 153.933 264.732 153.958 265.363C153.941 266.002 154.176 266.622 154.613 267.089C154.824 267.316 155.082 267.495 155.368 267.614C155.654 267.733 155.962 267.79 156.271 267.781C156.576 267.792 156.881 267.737 157.163 267.62C157.445 267.502 157.698 267.326 157.905 267.101C158.325 266.634 158.549 266.022 158.528 265.394C158.548 264.76 158.325 264.143 157.905 263.667C157.7 263.438 157.447 263.256 157.163 263.135C156.88 263.015 156.573 262.958 156.265 262.969" fill="white"/>
<path d="M169.182 270.878H165.972V276.55H162.02V257.061H169.182C173.808 257.061 176.121 259.315 176.121 263.823C176.121 266.1 175.529 267.849 174.344 269.071C173.16 270.293 171.439 270.895 169.182 270.878ZM165.972 267.494H169.157C171.127 267.494 172.106 266.248 172.106 263.823C172.194 262.904 171.939 261.985 171.389 261.243C171.097 260.956 170.747 260.735 170.362 260.596C169.976 260.457 169.565 260.404 169.157 260.439H165.972V267.494Z" fill="white"/>
</svg>
