<svg width="238" height="296" viewBox="0 0 238 296" fill="none" xmlns="http://www.w3.org/2000/svg">
<path d="M179.844 261.575C173.077 270.611 164.597 278.225 154.888 283.982C145.179 289.739 134.431 293.527 123.258 295.13C112.085 296.732 100.705 296.118 89.7699 293.321C78.8343 290.525 68.5566 285.601 59.5237 278.832C50.4764 272.079 42.8487 263.609 37.0768 253.905C31.3049 244.202 27.5019 233.456 25.8853 222.281C24.2687 211.107 24.8703 199.723 27.6555 188.782C30.4408 177.84 35.355 167.555 42.1175 158.514C48.8749 149.469 57.3474 141.844 67.0511 136.074C76.7549 130.304 87.5 126.502 98.6728 124.886C109.846 123.269 121.227 123.869 132.168 126.652C143.109 129.435 153.395 134.346 162.438 141.105C171.497 147.866 179.135 156.347 184.914 166.064C190.693 175.78 194.499 186.541 196.116 197.73C197.733 208.92 197.128 220.318 194.336 231.273C191.544 242.228 186.619 252.525 179.844 261.575V261.575Z" fill="#F0F6FC"/>
<path d="M155.717 204H67.2829C63.8141 204 61 201.193 61 197.733V177.267C61 173.807 63.8141 171 67.2829 171H155.715C159.186 171 162 173.807 162 177.267V197.732C162 201.193 159.186 204 155.717 204Z" fill="#0058B0"/>
<path d="M111 281C114.866 281 118 277.866 118 274C118 270.134 114.866 267 111 267C107.134 267 104 270.134 104 274C104 277.866 107.134 281 111 281Z" fill="#003E99" stroke="#0066CC" stroke-width="4" stroke-miterlimit="10" stroke-linecap="round"/>
<path d="M229 208C232.866 208 236 204.866 236 201C236 197.134 232.866 194 229 194C225.134 194 222 197.134 222 201C222 204.866 225.134 208 229 208Z" fill="#2A66C4" stroke="#0066CC" stroke-width="4" stroke-miterlimit="10" stroke-linecap="round"/>
<path d="M10 238C13.866 238 17 234.866 17 231C17 227.134 13.866 224 10 224C6.13401 224 3 227.134 3 231C3 234.866 6.13401 238 10 238Z" fill="#2A66C4" stroke="#0066CC" stroke-width="4" stroke-miterlimit="10" stroke-linecap="round"/>
<path d="M155.719 249H67.283C63.8141 249 61 246.193 61 242.733V222.267C61 218.807 63.8141 216 67.283 216H155.717C159.188 216 162 218.807 162 222.267V242.732C162.002 246.193 159.188 249 155.719 249Z" fill="#003E99"/>
<path d="M25 274L104 274" stroke="#2A66C4" stroke-width="3.5" stroke-miterlimit="10" stroke-linecap="round"/>
<path d="M111 267V249" stroke="#2A66C4" stroke-width="4" stroke-miterlimit="10"/>
<path d="M112 216L112 204" stroke="#2A66C4" stroke-width="4" stroke-miterlimit="10"/>
<path d="M112 171L112 143" stroke="#2A66C4" stroke-width="4" stroke-miterlimit="10"/>
<path d="M77.5 194C81.0899 194 84 191.09 84 187.5C84 183.91 81.0899 181 77.5 181C73.9101 181 71 183.91 71 187.5C71 191.09 73.9101 194 77.5 194Z" fill="#FFCC00"/>
<path d="M77.5 239C81.0899 239 84 236.314 84 233C84 229.686 81.0899 227 77.5 227C73.9101 227 71 229.686 71 233C71 236.314 73.9101 239 77.5 239Z" fill="#FFCC00"/>
<path d="M146 187C147.105 187 148 186.105 148 185C148 183.895 147.105 183 146 183C144.895 183 144 183.895 144 185C144 186.105 144.895 187 146 187Z" fill="#FFCC00"/>
<path d="M139 187C140.105 187 141 186.105 141 185C141 183.895 140.105 183 139 183C137.895 183 137 183.895 137 185C137 186.105 137.895 187 139 187Z" fill="#FFCC00"/>
<path d="M149.5 192C150.328 192 151 191.105 151 190C151 188.895 150.328 188 149.5 188C148.672 188 148 188.895 148 190C148 191.105 148.672 192 149.5 192Z" fill="#FFCC00"/>
<path d="M142.5 192C143.328 192 144 191.105 144 190C144 188.895 143.328 188 142.5 188C141.672 188 141 188.895 141 190C141 191.105 141.672 192 142.5 192Z" fill="#FFCC00"/>
<path d="M132.5 187C133.328 187 134 186.105 134 185C134 183.895 133.328 183 132.5 183C131.672 183 131 183.895 131 185C131 186.105 131.672 187 132.5 187Z" fill="#FFCC00"/>
<path d="M135.5 192C136.328 192 137 191.105 137 190C137 188.895 136.328 188 135.5 188C134.672 188 134 188.895 134 190C134 191.105 134.672 192 135.5 192Z" fill="#FFCC00"/>
<path d="M125.5 187C126.328 187 127 186.105 127 185C127 183.895 126.328 183 125.5 183C124.672 183 124 183.895 124 185C124 186.105 124.672 187 125.5 187Z" fill="#FFCC00"/>
<path d="M129 192C130.105 192 131 191.105 131 190C131 188.895 130.105 188 129 188C127.895 188 127 188.895 127 190C127 191.105 127.895 192 129 192Z" fill="#FFCC00"/>
<path d="M118.5 187C119.328 187 120 186.105 120 185C120 183.895 119.328 183 118.5 183C117.672 183 117 183.895 117 185C117 186.105 117.672 187 118.5 187Z" fill="#FFCC00"/>
<path d="M122 192C123.105 192 124 191.105 124 190C124 188.895 123.105 188 122 188C120.895 188 120 188.895 120 190C120 191.105 120.895 192 122 192Z" fill="#FFCC00"/>
<path d="M146 232C147.105 232 148 231.105 148 230C148 228.895 147.105 228 146 228C144.895 228 144 228.895 144 230C144 231.105 144.895 232 146 232Z" fill="#FFCC00"/>
<path d="M139 232C140.105 232 141 231.105 141 230C141 228.895 140.105 228 139 228C137.895 228 137 228.895 137 230C137 231.105 137.895 232 139 232Z" fill="#FFCC00"/>
<path d="M149.5 237C150.328 237 151 236.328 151 235.5C151 234.672 150.328 234 149.5 234C148.672 234 148 234.672 148 235.5C148 236.328 148.672 237 149.5 237Z" fill="#FFCC00"/>
<path d="M142.5 237C143.328 237 144 236.328 144 235.5C144 234.672 143.328 234 142.5 234C141.672 234 141 234.672 141 235.5C141 236.328 141.672 237 142.5 237Z" fill="#FFCC00"/>
<path d="M132.5 232C133.328 232 134 231.105 134 230C134 228.895 133.328 228 132.5 228C131.672 228 131 228.895 131 230C131 231.105 131.672 232 132.5 232Z" fill="#FFCC00"/>
<path d="M135.5 237C136.328 237 137 236.328 137 235.5C137 234.672 136.328 234 135.5 234C134.672 234 134 234.672 134 235.5C134 236.328 134.672 237 135.5 237Z" fill="#FFCC00"/>
<path d="M125.5 232C126.328 232 127 231.105 127 230C127 228.895 126.328 228 125.5 228C124.672 228 124 228.895 124 230C124 231.105 124.672 232 125.5 232Z" fill="#FFCC00"/>
<path d="M129 237C130.105 237 131 236.328 131 235.5C131 234.672 130.105 234 129 234C127.895 234 127 234.672 127 235.5C127 236.328 127.895 237 129 237Z" fill="#FFCC00"/>
<path d="M118.5 232C119.328 232 120 231.105 120 230C120 228.895 119.328 228 118.5 228C117.672 228 117 228.895 117 230C117 231.105 117.672 232 118.5 232Z" fill="#FFCC00"/>
<path d="M122 237C123.105 237 124 236.328 124 235.5C124 234.672 123.105 234 122 234C120.895 234 120 234.672 120 235.5C120 236.328 120.895 237 122 237Z" fill="#FFCC00"/>
<path d="M85 111.5C85 122.507 80.5223 133.062 72.552 140.845C64.5817 148.628 53.7716 153 42.4999 153C31.2282 153 20.4183 148.628 12.448 140.845C4.47767 133.062 0 122.507 0 111.5C0 100.493 4.47767 89.9379 12.448 82.1551C20.4183 74.3723 31.2282 70 42.4999 70C53.7716 70 64.5817 74.3723 72.552 82.1551C80.5223 89.9379 85 100.493 85 111.5Z" fill="#9AC7F7"/>
<path d="M236 104.216C236.05 116.901 231.163 129.102 222.382 138.217C213.601 147.331 201.621 152.636 189 153C176.379 152.636 164.399 147.331 155.618 138.217C146.837 129.102 141.95 116.901 142 104.216C142 91.6938 146.952 79.6843 155.766 70.8296C164.58 61.9749 176.535 57 189 57C201.465 57 213.419 61.9749 222.234 70.8296C231.048 79.6843 236 91.6938 236 104.216V104.216Z" fill="#9AC7F7"/>
<path d="M188.579 57.0001C175.96 57.0001 163.858 62.0521 154.936 71.0442C146.013 80.0362 141 92.232 141 104.949C141.002 111.476 142.331 117.934 144.906 123.924C153.588 131.705 164.803 136.003 176.421 136C189.04 136 201.142 130.948 210.064 121.956C218.987 112.964 224 100.768 224 88.0515C224.003 81.5232 222.673 75.0644 220.094 69.076C211.423 61.2769 200.201 56.9765 188.579 57.0001V57.0001Z" fill="#C7DEFF"/>
<path d="M191.825 153C195.337 145.926 201 138.038 201 129.677C201.006 122.627 199.588 115.644 196.828 109.129C194.068 102.614 190.02 96.6945 184.915 91.709C179.81 86.7235 173.749 82.7699 167.078 80.0743C160.407 77.3788 153.258 75.9944 146.039 76C115.661 76 71.7617 100.009 71.7617 129.677C71.7617 138.252 38.7497 145.926 42.2616 153H191.825Z" fill="#9AC7F7"/>
<path d="M176 69.0217C176 87.3159 168.678 104.861 155.644 117.797C142.61 130.733 124.933 138 106.5 138C88.0676 138 70.39 130.733 57.3563 117.797C44.3225 104.861 37 87.3159 37 69.0217C37 50.7236 44.3211 33.174 57.3536 20.2312C70.3861 7.28842 88.0636 0.011501 106.5 0C115.631 -1.79225e-06 124.672 1.78575 133.107 5.25494C141.542 8.72413 149.205 13.8087 155.659 20.2185C162.114 26.6283 167.232 34.2376 170.722 42.6115C174.212 50.9853 176.006 59.9597 176 69.0217V69.0217Z" fill="#9AC7F7"/>
<path d="M86.8887 114.598C95.9681 114.598 104.959 112.803 113.346 109.316C121.734 105.829 129.355 100.718 135.773 94.2752C142.191 87.8323 147.281 80.1837 150.751 71.7667C154.222 63.3496 156.006 54.3288 156 45.22C156.023 34.6423 153.629 24.2 149.002 14.6954C136.873 5.15638 121.903 -0.0188637 106.492 5.16677e-05C88.1585 0.0116121 70.58 7.32611 57.6204 20.3358C44.6608 33.3454 37.3807 50.9856 37.3807 69.3782V69.8142C27.0952 71.0015 17.6037 75.9406 10.7113 83.6914C3.81897 91.4422 0.00676725 101.464 0 111.851C0.0554799 118.22 1.54116 124.495 4.34661 130.209C8.4504 132.045 12.893 132.996 17.3864 133C25.461 132.991 33.2419 129.961 39.2068 124.501C45.1717 119.041 48.8913 111.544 49.6382 103.478C60.7256 110.713 73.6626 114.575 86.8887 114.598V114.598Z" fill="#C7DEFF"/>
<path d="M127.07 82.1015V69.2165C127.058 64.3811 125.183 59.7481 121.855 56.3331C118.527 52.9181 114.018 51 109.317 51H106.683C101.982 51 97.4734 52.9181 94.1454 56.3331C90.8175 59.7481 88.9421 64.3811 88.9307 69.2165V82.1015H85V124H131V82.1015H127.07ZM96.8349 69.2165C96.8464 66.5375 97.889 63.9724 99.7346 62.0822C101.58 60.192 104.078 59.1306 106.683 59.1306H109.317C111.922 59.1306 114.42 60.192 116.266 62.0822C118.111 63.9724 119.154 66.5375 119.165 69.2165V82.1015H96.8349V69.2165ZM112.514 111.293H103.486L105.56 103.429C104.663 102.978 103.907 102.276 103.38 101.403C102.853 100.531 102.575 99.5239 102.579 98.4968C102.579 97.7637 102.721 97.0377 102.995 96.3609C103.269 95.6842 103.67 95.0701 104.176 94.5538C104.682 94.0375 105.282 93.6289 105.942 93.3524C106.602 93.0759 107.309 92.9371 108.022 92.9429C109.454 92.9429 110.827 93.5279 111.839 94.5695C112.852 95.611 113.421 97.0238 113.421 98.4968C113.425 99.5239 113.147 100.531 112.62 101.403C112.093 102.276 111.337 102.978 110.44 103.429L112.514 111.293Z" fill="#D68D21"/>
<path fill-rule="evenodd" clip-rule="evenodd" d="M209.794 181C211.003 181.002 212.161 181.482 213.015 182.335C213.87 183.188 214.351 184.345 214.353 185.551V188.315H214.371L214.371 208.894C214.371 209.823 214.74 210.713 215.397 211.371C216.054 212.028 216.945 212.398 217.875 212.4C218.805 212.396 219.695 212.025 220.351 211.368C221.008 210.711 221.377 209.822 221.379 208.894V204.517H224.765V208.894C224.765 210.719 224.039 212.469 222.747 213.761C221.455 215.052 219.703 215.778 217.875 215.78C216.047 215.778 214.294 215.052 213.001 213.761C211.707 212.47 210.98 210.72 210.978 208.894L210.978 196.933H210.967V185.551C210.965 185.241 210.841 184.944 210.622 184.725C210.402 184.506 210.105 184.382 209.794 184.38C209.483 184.38 209.185 184.503 208.965 184.723C208.744 184.942 208.621 185.24 208.621 185.551L208.446 264.758H205.085L205.252 185.551C205.256 184.348 205.735 183.195 206.586 182.343C207.436 181.491 208.589 181.008 209.794 181ZM208.47 264.758H205.084C205.076 266.953 204.196 269.056 202.636 270.603C201.077 272.151 198.967 273.018 196.768 273.014H188L188 276.394L196.768 276.394C199.864 276.396 202.834 275.172 205.028 272.991C207.221 270.81 208.459 267.849 208.47 264.758Z" fill="#2A66C4"/>
<path d="M188 274.989L119.5 274.795" stroke="#2A66C4" stroke-width="3.5"/>
<path d="M25.4094 275.655H19.6777C16.5832 275.651 13.6165 274.422 11.4277 272.238C9.23882 270.055 8.00629 267.093 8 264.004V239H11.3852V264.004C11.3894 266.198 12.2646 268.3 13.8191 269.851C15.3735 271.401 17.4804 272.273 19.6777 272.275H25.4094V275.655Z" fill="#2A66C4"/>
</svg>
